<svg version="1.2" xmlns="http://www.w3.org/2000/svg" viewBox="0 0 1400 500" width="1400" height="500">
	<style>
		.s0 { fill: #000000 } 
	</style>
	<path class="s0" d="m330.35 307.79c-20.03 32.13-39.49 63.4-61.35 98.53-48.45-76.99-94.82-150.68-142.87-227.04-15.09 23.69-28.88 45.33-44.56 69.95 13.74 0 23.87-0.03 34.01 0 20.83 0.05 27.35 5.37 33.75 28.52-39.22 0-78.09 0-120.96 0 32.93-52.17 64.36-101.96 98-155.25 47.97 76.69 93.94 150.2 141.27 225.88 16.95-22.21 29.61-44.41 44.35-69.31-13.26 0-23.38 0-33.5 0-21.12-0.02-27.47-5.34-32.85-28.55 39.11 0 77.91 0 120.44 0-12.66 20.31-23.92 38.36-35.73 57.27z"/>
	<path class="s0" d="m727.88 264.07c3.17 3.92 5.75 7.07 10.94 13.4 0-13.17 0.01-22.76 0-32.34-0.01-16.39-0.08-32.78-0.04-49.17 0.05-23.71 11.27-31.54 34.41-24.53 5.97 1.81 6.55 5.94 6.55 10.8 0 54.78-0.12 109.57 0.06 164.36 0.03 8.69-3.96 10.73-11.94 11.35-14.79 1.14-25.25-2.78-34.22-15.96-19.48-28.61-40.85-55.93-61.51-83.73-2.19-2.93-3.82-6.52-8.64-8.11-3.42 5.99-1.64 12.58-1.7 18.73-0.24 25.28-0.37 50.57 0.03 75.85 0.15 9.64-3.38 13.01-13.1 13.2-28.06 0.56-28.08 0.93-28.08-26.76 0.01-45.89-0.14-91.78 0.3-137.67 0.07-7.6-4.25-17.7 7.14-21.78 12.03-4.3 31.4-0.39 37.59 7.91 20.68 27.79 41.11 55.77 62.21 84.45z"/>
	<path class="s0" d="m1320.51 310.35c8.94 15.66 20.53 28.62 28.7 46.7-16.24 0-30.06 0.53-43.81-0.25-5.92-0.34-8.91-6.35-11.95-11.09-8.08-12.61-16.38-25.08-24.07-37.92-7.17-11.99-18.26-9.47-28.73-8.18-5.17 0.63-5.13 5.99-5.15 10.25-0.07 11.7-0.32 23.41 0.02 35.1 0.25 8.63-2.66 12.51-11.99 12.93-29.51 1.32-29.5 1.66-29.5-27.81 0-47.75 0.34-95.5-0.22-143.24-0.15-12.41 4.18-16.7 16.29-16.06 26.59 1.4 53.27-1.7 79.86 2.09 28.69 4.08 45.86 17.81 52.39 43.22 7.25 28.19-1.41 53.22-24.07 69.44-2.64 1.89-5.35 3.69-8.19 5.64 0.76 7.75 6.38 12.49 10.42 19.18zm-83.51-81.2c-0.09 7.49-0.09 14.99-0.31 22.48-0.14 4.86 1.12 8.52 6.74 8.51 12.17-0.04 24.46 0.77 36.47-0.69 13.44-1.64 21.12-11.67 20.98-24.09-0.15-13.61-8.24-20.76-20.49-22.77-9.14-1.5-18.7-0.33-27.99-1.18-11.6-1.06-16.72 3.57-15.4 17.74z"/>
	<path class="s0" d="m808.69 191.23c0.31-20.14 0.31-20.41 18.77-20.22 21.51 0.23 42.96-0.36 64.52 1.75 45.21 4.42 80.31 40.92 81.62 86.91 1.43 50.07-29.79 88.38-76.54 95.65-25.72 4-51.41 1.35-77.08 2.43-11.36 0.48-11.31-6.69-11.29-14.72 0.08-50.14 0.02-100.29 0-151.8zm61.49 20.3c-20.21 0.03-20.21 0.03-20.22 19.62q-0.01 30.24-0.03 60.47c-0.01 27.04-0.01 27.03 26.13 25.24 3.28-0.22 6.58-0.09 9.84-0.39 20.23-1.88 36.02-15.41 40.97-35 10.25-40.59-12.27-69.69-56.69-69.94z"/>
	<path class="s0" d="m987.21 290.47c-8.37-42.44 1.65-78.03 37.21-102.15 33.25-22.54 69.4-23.11 104.85-3.91 33.69 18.24 47.4 48.73 45.64 85.38-1.95 40.5-24.1 68.74-62 82-49.22 17.22-106.72-2.77-125.7-61.32zm50.68-58.07c-6.18 7-8.49 15.98-9.61 24.54-4.09 31.17 19.73 64.68 56.15 61.12 24.53-2.4 42.12-20.91 45.24-43.25 3.7-26.56-6.95-48.31-28.67-58.56-22.04-10.41-42.92-5.52-63.11 16.15z"/>
	<path class="s0" d="m454.01 271.38c12.47-29.97 25.05-58.74 36.35-88 4.37-11.31 11.92-13 22.02-12.56 10.6 0.47 21.1-1.52 26.64 12.27 21.47 53.44 43.7 106.57 66.01 159.66 4.76 11.32 1.94 15.81-10.15 15.01-3.74-0.24-7.55-0.44-11.24 0.05-12.65 1.67-20.8-2.79-23.64-15.85-0.89-4.06-3.25-7.79-4.38-11.82-2.49-8.99-7.88-12.82-17.44-12.49-15.91 0.55-31.87 0.53-47.79 0.01-9.52-0.31-15.15 3.38-17.38 12.51-0.11 0.45-0.3 0.89-0.48 1.32-11.96 28.78-18.26 31.82-52.97 23.42 11.45-27.74 22.75-55.13 34.45-83.53zm73.7-11.31c-4.52-9.7-6.52-20.64-14.16-30.52-6.32 16.02-13.49 29.9-17.4 46.37 12.75 1.74 24.19 2.51 36.45-0.55-1.7-5.44-2.94-9.37-4.89-15.3z"/>
</svg>