<?xml version="1.0" encoding="UTF-8" standalone="no"?>
<!DOCTYPE svg PUBLIC "-//W3C//DTD SVG 1.1//EN" "http://www.w3.org/Graphics/SVG/1.1/DTD/svg11.dtd">
<svg width="100%" height="100%" viewBox="0 0 438 236" version="1.1" xmlns="http://www.w3.org/2000/svg" xmlns:xlink="http://www.w3.org/1999/xlink" xml:space="preserve" xmlns:serif="http://www.serif.com/" style="fill-rule:evenodd;clip-rule:evenodd;stroke-linejoin:round;stroke-miterlimit:1.41421;">
    <g transform="matrix(3.2664,0,0,3.50832,-66.2066,-1696)">
        <path d="M82.769,542.422C82.902,540.956 82.736,539.656 82.269,538.522C82.069,537.922 81.802,537.822 81.469,538.222C80.002,540.222 78.169,541.789 75.969,542.922C73.836,544.122 72.002,544.656 70.469,544.522C68.669,544.322 67.536,544.089 67.069,543.822C66.202,543.356 65.769,542.456 65.769,541.122C65.769,539.789 66.102,537.989 66.769,535.722C67.436,533.589 68.419,530.756 69.719,527.222C71.019,523.689 72.669,519.422 74.669,514.422C76.202,510.622 77.519,507.456 78.619,504.922C79.719,502.389 80.569,500.456 81.169,499.122C81.569,498.322 81.769,497.622 81.769,497.022C81.769,495.489 80.736,494.589 78.669,494.322C75.602,493.856 73.569,494.656 72.569,496.722C69.569,502.589 66.952,507.606 64.719,511.772C62.486,515.939 60.536,519.289 58.869,521.822C50.002,535.489 42.836,542.322 37.369,542.322C36.502,542.322 35.769,542.189 35.169,541.922C32.569,541.056 31.269,539.089 31.269,536.022C31.269,532.756 32.769,528.356 35.769,522.822C36.969,520.622 38.186,518.622 39.419,516.822C40.652,515.022 41.902,513.389 43.169,511.922C55.236,498.322 66.369,490.989 76.569,489.922C79.236,489.656 80.569,489.089 80.569,488.222C80.569,487.889 80.102,487.056 79.169,485.722C78.036,484.189 76.636,483.422 74.969,483.422C69.636,483.422 63.136,485.456 55.469,489.522C46.802,494.122 39.636,499.922 33.969,506.922C24.836,518.189 20.269,528.356 20.269,537.422C20.269,542.422 21.802,545.956 24.869,548.022C27.269,549.622 29.869,550.422 32.669,550.422C37.736,550.422 43.236,547.722 49.169,542.322C53.369,538.522 56.736,534.489 59.269,530.222C59.536,529.822 59.769,529.622 59.969,529.622C60.436,529.622 60.502,529.989 60.169,530.722C57.702,536.322 56.469,540.856 56.469,544.322C56.469,545.656 56.702,546.589 57.169,547.122C58.902,549.056 62.502,550.022 67.969,550.022C69.636,550.022 71.069,549.922 72.269,549.722C76.136,548.989 79.402,547.289 82.069,544.622C82.402,544.289 82.636,543.556 82.769,542.422Z" style="fill-rule:nonzero;"/>
        <path d="M154.169,542.422C154.302,540.956 154.136,539.656 153.669,538.522C153.469,537.922 153.202,537.822 152.869,538.222C151.602,540.022 149.769,541.589 147.369,542.922C145.369,544.056 143.736,544.656 142.469,544.722C139.869,544.856 137.936,544.522 136.669,543.722C135.736,543.189 135.269,542.422 135.269,541.422C135.269,541.022 135.369,540.456 135.569,539.722C135.636,539.589 135.936,538.789 136.469,537.322C137.002,535.856 137.802,533.689 138.869,530.822C140.869,525.556 142.169,521.756 142.769,519.422C143.169,518.022 143.369,516.756 143.369,515.622C143.369,513.022 142.302,511.222 140.169,510.222C138.902,509.556 137.569,509.222 136.169,509.222C133.636,509.222 130.802,510.489 127.669,513.022C125.669,514.689 123.469,517.056 121.069,520.122C119.069,522.656 118.036,523.922 117.969,523.922C117.636,523.922 117.736,523.356 118.269,522.222C119.536,519.422 120.169,516.989 120.169,514.922C120.169,511.789 118.502,509.922 115.169,509.322C114.836,509.256 114.536,509.206 114.269,509.172C114.002,509.139 113.736,509.122 113.469,509.122C108.269,509.122 102.736,513.556 96.869,522.422C95.736,524.156 95.169,524.522 95.169,523.522C95.169,522.856 95.736,520.922 96.869,517.722C97.802,515.122 98.602,513.189 99.269,511.922C99.536,511.456 99.669,510.989 99.669,510.522C99.669,509.522 98.936,508.722 97.469,508.122C96.469,507.656 95.302,507.422 93.969,507.422C91.169,507.422 89.536,508.422 89.069,510.422C87.202,517.222 85.419,523.706 83.719,529.872C82.019,536.039 80.369,541.956 78.769,547.622C78.436,549.222 79.869,550.022 83.069,550.022C86.269,550.022 88.136,549.356 88.669,548.022C89.536,546.022 91.736,541.856 95.269,535.522C99.202,528.322 102.102,523.656 103.969,521.522C106.369,518.656 108.269,517.322 109.669,517.522C110.936,517.722 111.236,518.756 110.569,520.622C108.636,525.689 106.769,530.472 104.969,534.972C103.169,539.472 101.502,543.756 99.969,547.822C99.436,549.356 101.002,550.122 104.669,550.122C107.936,550.122 109.836,549.356 110.369,547.822C110.769,546.556 111.602,544.789 112.869,542.522C114.136,540.256 115.836,537.489 117.969,534.222C119.702,531.556 121.286,529.189 122.719,527.122C124.152,525.056 125.469,523.256 126.669,521.722C128.469,519.456 129.836,518.322 130.769,518.322C131.769,518.322 132.269,518.822 132.269,519.822C132.269,520.556 131.836,521.756 130.969,523.422C130.369,524.622 129.736,526.006 129.069,527.572C128.402,529.139 127.702,530.889 126.969,532.822C125.302,537.356 124.469,540.556 124.469,542.422C124.469,545.556 126.302,547.822 129.969,549.222C132.036,549.956 134.536,550.322 137.469,550.322C139.469,550.322 141.536,550.122 143.669,549.722C147.402,549.122 150.669,547.422 153.469,544.622C153.802,544.289 154.036,543.556 154.169,542.422Z" style="fill-rule:nonzero;"/>
    </g>
</svg>
