<svg width="621" height="40" viewBox="0 0 621 40" fill="none" xmlns="http://www.w3.org/2000/svg">
<path d="M23.65 29.0499L24.55 28.3999C25.6833 27.7332 26.4833 27.3999 26.95 27.3999C27.9833 27.3999 29.1 28.3332 30.3 30.1999C31.0333 31.3666 31.4 32.2999 31.4 32.9999C31.4 33.6999 31.1667 34.2832 30.7 34.7499C30.2667 35.2166 29.75 35.6332 29.15 35.9999C28.55 36.3666 27.9667 36.7166 27.4 37.0499C26.8667 37.3832 25.75 37.8166 24.05 38.3499C22.35 38.8832 20.7 39.1499 19.1 39.1499C17.5333 39.1499 15.9333 38.9499 14.3 38.5499C12.7 38.1166 11.0333 37.4166 9.3 36.4499C7.6 35.4499 6.06667 34.2499 4.7 32.8499C3.33333 31.4166 2.2 29.5999 1.3 27.3999C0.433333 25.1666 1.86265e-08 22.7499 1.86265e-08 20.1499C1.86265e-08 17.5499 0.433333 15.1999 1.3 13.0999C2.16667 10.9666 3.26667 9.21657 4.6 7.8499C5.96667 6.4499 7.51667 5.28323 9.25 4.3499C12.5167 2.5499 15.8 1.6499 19.1 1.6499C20.6667 1.6499 22.25 1.8999 23.85 2.3999C25.4833 2.86657 26.7167 3.3499 27.55 3.8499L28.75 4.5499C29.35 4.91657 29.8167 5.21657 30.15 5.4499C31.0167 6.1499 31.45 6.9499 31.45 7.8499C31.45 8.71657 31.1 9.63323 30.4 10.5999C29.1 12.3999 27.9333 13.2999 26.9 13.2999C26.3 13.2999 25.45 12.9332 24.35 12.1999C22.95 11.0666 21.0833 10.4999 18.75 10.4999C16.5833 10.4999 14.45 11.2499 12.35 12.7499C11.35 13.4832 10.5167 14.5166 9.85 15.8499C9.18333 17.1832 8.85 18.6999 8.85 20.3999C8.85 22.0666 9.18333 23.5666 9.85 24.8999C10.5167 26.2332 11.3667 27.2832 12.4 28.0499C14.4333 29.5166 16.55 30.2499 18.75 30.2499C19.7833 30.2499 20.75 30.1166 21.65 29.8499C22.5833 29.5832 23.25 29.3166 23.65 29.0499ZM33.9355 25.4999C33.9355 21.4999 35.3355 18.1999 38.1355 15.5999C40.9355 12.9999 44.1355 11.6999 47.7355 11.6999C51.3355 11.6999 54.5189 12.9999 57.2855 15.5999C60.0522 18.1666 61.4355 21.4499 61.4355 25.4499C61.4355 28.2166 60.7189 30.6832 59.2855 32.8499C57.8522 34.9832 56.1022 36.5666 54.0355 37.5999C52.0022 38.5999 49.8855 39.0999 47.6855 39.0999C45.4855 39.0999 43.3522 38.5666 41.2855 37.4999C39.2189 36.3999 37.4689 34.7999 36.0355 32.6999C34.6355 30.5666 33.9355 28.1666 33.9355 25.4999ZM44.3855 29.0999C45.4522 29.8999 46.5355 30.2999 47.6355 30.2999C48.7355 30.2999 49.8355 29.8832 50.9355 29.0499C52.0355 28.2166 52.5855 26.9832 52.5855 25.3499C52.5855 23.7166 52.0689 22.4999 51.0355 21.6999C50.0022 20.8999 48.8855 20.4999 47.6855 20.4999C46.4855 20.4999 45.3689 20.9166 44.3355 21.7499C43.3022 22.5832 42.7855 23.8166 42.7855 25.4499C42.7855 27.0499 43.3189 28.2666 44.3855 29.0999ZM79.416 31.6999H67.516C65.6493 31.6999 64.5327 31.1332 64.166 29.9999C63.9993 29.3999 63.916 28.6332 63.916 27.6999C63.916 26.7666 64.016 26.0166 64.216 25.4499C64.416 24.8832 64.7327 24.4832 65.166 24.2499C65.766 23.9499 66.566 23.7999 67.566 23.7999H79.466C81.3327 23.7999 82.4327 24.3499 82.766 25.4499C82.966 26.0499 83.066 26.8166 83.066 27.7499C83.066 28.6832 82.966 29.4499 82.766 30.0499C82.5993 30.6166 82.316 31.0166 81.916 31.2499C81.316 31.5499 80.4827 31.6999 79.416 31.6999ZM108.947 3.3499C109.214 2.8499 109.664 2.4999 110.297 2.2999C110.93 2.0999 111.73 1.9999 112.697 1.9999C113.664 1.9999 114.43 2.08323 114.997 2.2499C115.564 2.41657 115.997 2.61657 116.297 2.8499C116.597 3.08323 116.83 3.41657 116.997 3.8499C117.164 4.41657 117.247 5.28323 117.247 6.4499V34.1999C117.247 34.9666 117.214 35.5499 117.147 35.9499C117.114 36.3166 116.964 36.7499 116.697 37.2499C116.23 38.1499 114.93 38.5999 112.797 38.5999C110.464 38.5999 109.097 37.9832 108.697 36.7499C108.497 36.1832 108.397 35.3166 108.397 34.1499V23.9999H95.1469V34.1999C95.1469 34.9666 95.1135 35.5499 95.0469 35.9499C95.0135 36.3166 94.8635 36.7499 94.5969 37.2499C94.1302 38.1499 92.8302 38.5999 90.6969 38.5999C88.3635 38.5999 86.9969 37.9832 86.5969 36.7499C86.3969 36.1832 86.2969 35.3166 86.2969 34.1499V6.3999C86.2969 5.63323 86.3135 5.06657 86.3469 4.6999C86.4135 4.2999 86.5802 3.8499 86.8469 3.3499C87.3135 2.4499 88.6135 1.9999 90.7469 1.9999C93.0802 1.9999 94.4635 2.61657 94.8969 3.8499C95.0635 4.41657 95.1469 5.28323 95.1469 6.4499V16.6499H108.397V6.3999C108.397 5.63323 108.414 5.06657 108.447 4.6999C108.514 4.2999 108.68 3.8499 108.947 3.3499ZM120.508 25.4999C120.508 21.4999 121.908 18.1999 124.708 15.5999C127.508 12.9999 130.708 11.6999 134.308 11.6999C137.908 11.6999 141.091 12.9999 143.858 15.5999C146.624 18.1666 148.008 21.4499 148.008 25.4499C148.008 28.2166 147.291 30.6832 145.858 32.8499C144.424 34.9832 142.674 36.5666 140.608 37.5999C138.574 38.5999 136.458 39.0999 134.258 39.0999C132.058 39.0999 129.924 38.5666 127.858 37.4999C125.791 36.3999 124.041 34.7999 122.608 32.6999C121.208 30.5666 120.508 28.1666 120.508 25.4999ZM130.958 29.0999C132.024 29.8999 133.108 30.2999 134.208 30.2999C135.308 30.2999 136.408 29.8832 137.508 29.0499C138.608 28.2166 139.158 26.9832 139.158 25.3499C139.158 23.7166 138.641 22.4999 137.608 21.6999C136.574 20.8999 135.458 20.4999 134.258 20.4999C133.058 20.4999 131.941 20.9166 130.908 21.7499C129.874 22.5832 129.358 23.8166 129.358 25.4499C129.358 27.0499 129.891 28.2666 130.958 29.0999ZM151.438 36.2999C150.805 35.8999 150.488 35.2666 150.488 34.3999C150.488 33.5332 151.122 32.2166 152.388 30.4499C152.755 29.8832 153.338 29.5999 154.138 29.5999C154.972 29.5999 156.088 30.0166 157.488 30.8499C158.888 31.6499 160.155 32.0499 161.288 32.0499C163.322 32.0499 164.338 31.6499 164.338 30.8499C164.338 30.2166 163.222 29.7499 160.988 29.4499C158.888 29.1499 156.805 28.3666 154.738 27.0999C153.772 26.4999 152.972 25.5666 152.338 24.2999C151.705 22.9999 151.388 21.4666 151.388 19.6999C151.388 14.4332 155.005 11.7999 162.238 11.7999C164.605 11.7999 167.038 12.3666 169.538 13.4999C170.705 14.0332 171.288 14.6999 171.288 15.4999C171.288 16.2999 170.922 17.2832 170.188 18.4499C169.455 19.6166 168.705 20.1999 167.938 20.1999C167.538 20.1999 166.788 19.9499 165.688 19.4499C164.622 18.9499 163.455 18.6999 162.188 18.6999C160.222 18.6999 159.238 19.0666 159.238 19.7999C159.238 20.7999 160.372 21.4499 162.638 21.7499C164.838 21.9832 166.972 22.6166 169.038 23.6499C170.005 24.1166 170.805 24.9332 171.438 26.0999C172.105 27.2332 172.438 28.6666 172.438 30.3999C172.438 32.1332 172.105 33.6166 171.438 34.8499C170.805 36.0499 169.905 36.9499 168.738 37.5499C166.605 38.5832 163.922 39.0999 160.688 39.0999C157.488 39.0999 154.405 38.1666 151.438 36.2999ZM190.22 21.1499L186.97 20.9499V27.8499C186.97 28.7499 187.103 29.3999 187.37 29.7999C187.67 30.1999 188.203 30.3999 188.97 30.3999C189.77 30.3999 190.37 30.4332 190.77 30.4999C191.203 30.5332 191.653 30.6832 192.12 30.9499C192.887 31.3832 193.27 32.4999 193.27 34.2999C193.27 36.3999 192.803 37.6832 191.87 38.1499C191.37 38.3832 190.92 38.5332 190.52 38.5999C190.153 38.6332 189.603 38.6499 188.87 38.6499C185.403 38.6499 182.77 37.8666 180.97 36.2999C179.17 34.7332 178.27 32.0832 178.27 28.3499V20.9499C177.637 21.0499 176.953 21.0999 176.22 21.0999C175.487 21.0999 174.87 20.8166 174.37 20.2499C173.903 19.6832 173.67 18.7166 173.67 17.3499C173.67 15.9832 173.753 14.9999 173.92 14.3999C174.087 13.7666 174.32 13.3166 174.62 13.0499C175.153 12.6166 175.82 12.3999 176.62 12.3999L178.27 12.5999V7.4499C178.27 6.68323 178.287 6.11657 178.32 5.7499C178.387 5.38323 178.553 4.98323 178.82 4.5499C179.253 3.71657 180.537 3.2999 182.67 3.2999C184.937 3.2999 186.287 3.91657 186.72 5.1499C186.887 5.68323 186.97 6.53323 186.97 7.6999V12.5999C188.437 12.4666 189.537 12.3999 190.27 12.3999C191.037 12.3999 191.603 12.4332 191.97 12.4999C192.37 12.5332 192.82 12.6832 193.32 12.9499C194.187 13.3832 194.62 14.6666 194.62 16.7999C194.62 18.8999 194.17 20.1832 193.27 20.6499C192.77 20.8832 192.32 21.0332 191.92 21.0999C191.553 21.1332 190.987 21.1499 190.22 21.1499ZM225.327 21.1499L222.077 20.9499V27.8499C222.077 28.7499 222.211 29.3999 222.477 29.7999C222.777 30.1999 223.311 30.3999 224.077 30.3999C224.877 30.3999 225.477 30.4332 225.877 30.4999C226.311 30.5332 226.761 30.6832 227.227 30.9499C227.994 31.3832 228.377 32.4999 228.377 34.2999C228.377 36.3999 227.911 37.6832 226.977 38.1499C226.477 38.3832 226.027 38.5332 225.627 38.5999C225.261 38.6332 224.711 38.6499 223.977 38.6499C220.511 38.6499 217.877 37.8666 216.077 36.2999C214.277 34.7332 213.377 32.0832 213.377 28.3499V20.9499C212.744 21.0499 212.061 21.0999 211.327 21.0999C210.594 21.0999 209.977 20.8166 209.477 20.2499C209.011 19.6832 208.777 18.7166 208.777 17.3499C208.777 15.9832 208.861 14.9999 209.027 14.3999C209.194 13.7666 209.427 13.3166 209.727 13.0499C210.261 12.6166 210.927 12.3999 211.727 12.3999L213.377 12.5999V7.4499C213.377 6.68323 213.394 6.11657 213.427 5.7499C213.494 5.38323 213.661 4.98323 213.927 4.5499C214.361 3.71657 215.644 3.2999 217.777 3.2999C220.044 3.2999 221.394 3.91657 221.827 5.1499C221.994 5.68323 222.077 6.53323 222.077 7.6999V12.5999C223.544 12.4666 224.644 12.3999 225.377 12.3999C226.144 12.3999 226.711 12.4332 227.077 12.4999C227.477 12.5332 227.927 12.6832 228.427 12.9499C229.294 13.3832 229.727 14.6666 229.727 16.7999C229.727 18.8999 229.277 20.1832 228.377 20.6499C227.877 20.8832 227.427 21.0332 227.027 21.0999C226.661 21.1332 226.094 21.1499 225.327 21.1499ZM231.738 25.4999C231.738 21.4999 233.138 18.1999 235.938 15.5999C238.738 12.9999 241.938 11.6999 245.538 11.6999C249.138 11.6999 252.322 12.9999 255.088 15.5999C257.855 18.1666 259.238 21.4499 259.238 25.4499C259.238 28.2166 258.522 30.6832 257.088 32.8499C255.655 34.9832 253.905 36.5666 251.838 37.5999C249.805 38.5999 247.688 39.0999 245.488 39.0999C243.288 39.0999 241.155 38.5666 239.088 37.4999C237.022 36.3999 235.272 34.7999 233.838 32.6999C232.438 30.5666 231.738 28.1666 231.738 25.4999ZM242.188 29.0999C243.255 29.8999 244.338 30.2999 245.438 30.2999C246.538 30.2999 247.638 29.8832 248.738 29.0499C249.838 28.2166 250.388 26.9832 250.388 25.3499C250.388 23.7166 249.872 22.4999 248.838 21.6999C247.805 20.8999 246.688 20.4999 245.488 20.4999C244.288 20.4999 243.172 20.9166 242.138 21.7499C241.105 22.5832 240.588 23.8166 240.588 25.4499C240.588 27.0499 241.122 28.2666 242.188 29.0999ZM289.565 12.3499C292.532 12.3499 295.249 13.6666 297.715 16.2999C300.215 18.9332 301.465 21.9999 301.465 25.4999C301.465 28.9666 300.232 32.0166 297.765 34.6499C295.299 37.2499 292.649 38.5499 289.815 38.5499C286.982 38.5499 284.965 37.7499 283.765 36.1499C283.499 37.7832 282.065 38.5999 279.465 38.5999C277.365 38.5999 276.082 38.1499 275.615 37.2499C275.382 36.7499 275.232 36.3166 275.165 35.9499C275.132 35.5499 275.115 34.9666 275.115 34.1999V4.3499C275.115 3.58323 275.132 3.01657 275.165 2.6499C275.232 2.2499 275.382 1.81657 275.615 1.3499C276.082 0.449899 277.382 -0.000100732 279.515 -0.000100732C281.615 -0.000100732 282.882 0.449899 283.315 1.3499C283.582 1.8499 283.732 2.2999 283.765 2.6999C283.832 3.06657 283.865 3.63323 283.865 4.3999V14.7999C285.199 13.1666 287.099 12.3499 289.565 12.3499ZM285.165 28.4999C285.999 29.3999 287.032 29.8499 288.265 29.8499C289.499 29.8499 290.549 29.3999 291.415 28.4999C292.282 27.5999 292.715 26.5999 292.715 25.4999C292.715 24.3999 292.315 23.3999 291.515 22.4999C290.715 21.5666 289.649 21.0999 288.315 21.0999C286.982 21.0999 285.915 21.5666 285.115 22.4999C284.349 23.4332 283.965 24.4499 283.965 25.5499C283.965 26.6166 284.365 27.5999 285.165 28.4999ZM330.105 22.3499C330.105 24.3832 329.588 25.8999 328.555 26.8999C327.555 27.8666 326.438 28.3499 325.205 28.3499H313.355C313.355 29.2832 313.905 30.0666 315.005 30.6999C316.105 31.3332 317.205 31.6499 318.305 31.6499C320.238 31.6499 321.755 31.4499 322.855 31.0499L323.405 30.8499C324.205 30.4832 324.872 30.2999 325.405 30.2999C326.472 30.2999 327.388 31.0499 328.155 32.5499C328.588 33.4499 328.805 34.2166 328.805 34.8499C328.805 37.8166 325.255 39.2999 318.155 39.2999C315.688 39.2999 313.488 38.8832 311.555 38.0499C309.655 37.1832 308.172 36.0499 307.105 34.6499C305.005 31.9499 303.955 28.9332 303.955 25.5999C303.955 21.3999 305.305 18.0499 308.005 15.5499C310.738 13.0166 314.138 11.7499 318.205 11.7499C322.838 11.7499 326.238 13.3832 328.405 16.6499C329.538 18.3832 330.105 20.2832 330.105 22.3499ZM319.555 23.7999C320.822 23.7999 321.455 23.2666 321.455 22.1999C321.455 21.4332 321.155 20.8166 320.555 20.3499C319.988 19.8832 319.155 19.6499 318.055 19.6499C316.988 19.6499 315.922 20.0999 314.855 20.9999C313.788 21.8666 313.255 22.7999 313.255 23.7999H319.555ZM363.114 15.0999C363.314 13.2332 364.63 12.2999 367.064 12.2999C368.364 12.2999 369.33 12.3999 369.964 12.5999C370.597 12.7999 371.03 13.1499 371.264 13.6499C371.53 14.1499 371.68 14.5999 371.714 14.9999C371.78 15.3666 371.814 15.9332 371.814 16.6999V34.1999C371.814 34.9666 371.78 35.5499 371.714 35.9499C371.68 36.3166 371.547 36.7499 371.314 37.2499C370.847 38.1166 369.697 38.5499 367.864 38.5499C366.064 38.5499 364.847 38.3332 364.214 37.8999C363.614 37.4332 363.264 36.7666 363.164 35.8999C361.93 37.6666 359.864 38.5499 356.964 38.5499C354.097 38.5499 351.43 37.2332 348.964 34.5999C346.497 31.9666 345.264 28.9166 345.264 25.4499C345.264 21.9499 346.497 18.8999 348.964 16.2999C351.464 13.6666 354.197 12.3499 357.164 12.3499C358.297 12.3499 359.33 12.5499 360.264 12.9499C361.197 13.3499 361.847 13.7332 362.214 14.0999C362.58 14.4332 362.88 14.7666 363.114 15.0999ZM354.014 25.4999C354.014 26.5999 354.447 27.5999 355.314 28.4999C356.18 29.3666 357.23 29.7999 358.464 29.7999C359.697 29.7999 360.714 29.3499 361.514 28.4499C362.347 27.5499 362.764 26.5666 362.764 25.4999C362.764 24.3999 362.364 23.3832 361.564 22.4499C360.797 21.5166 359.747 21.0499 358.414 21.0499C357.114 21.0499 356.047 21.5166 355.214 22.4499C354.414 23.3832 354.014 24.3999 354.014 25.4999ZM390.449 12.2999C393.782 12.2999 396.549 13.5832 398.749 16.1499C400.982 18.6832 402.099 21.7832 402.099 25.4499V34.2499C402.099 35.0166 402.065 35.5999 401.999 35.9999C401.965 36.3666 401.832 36.7832 401.599 37.2499C401.132 38.1499 399.832 38.5999 397.699 38.5999C395.332 38.5999 393.965 37.9832 393.599 36.7499C393.399 36.1832 393.299 35.3332 393.299 34.1999V25.3999C393.299 24.0332 392.899 22.9666 392.099 22.1999C391.332 21.4332 390.282 21.0499 388.949 21.0499C387.649 21.0499 386.582 21.4499 385.749 22.2499C384.949 23.0499 384.549 24.0999 384.549 25.3999V34.2499C384.549 35.0166 384.515 35.5999 384.449 35.9999C384.415 36.3666 384.265 36.7832 383.999 37.2499C383.565 38.1499 382.282 38.5999 380.149 38.5999C378.049 38.5999 376.765 38.1499 376.299 37.2499C376.065 36.7499 375.915 36.3166 375.849 35.9499C375.815 35.5499 375.799 34.9666 375.799 34.1999V16.4999C375.799 15.7666 375.815 15.2166 375.849 14.8499C375.915 14.4499 376.082 14.0166 376.349 13.5499C376.815 12.7166 378.099 12.2999 380.199 12.2999C382.232 12.2999 383.482 12.6832 383.949 13.4499C384.282 14.0166 384.449 14.6999 384.449 15.4999C384.582 15.2666 384.882 14.9332 385.349 14.4999C385.815 14.0666 386.265 13.7166 386.699 13.4499C387.832 12.6832 389.082 12.2999 390.449 12.2999ZM420.771 12.2999C424.104 12.2999 426.871 13.5832 429.071 16.1499C431.304 18.6832 432.421 21.7832 432.421 25.4499V34.2499C432.421 35.0166 432.388 35.5999 432.321 35.9999C432.288 36.3666 432.154 36.7832 431.921 37.2499C431.454 38.1499 430.154 38.5999 428.021 38.5999C425.654 38.5999 424.288 37.9832 423.921 36.7499C423.721 36.1832 423.621 35.3332 423.621 34.1999V25.3999C423.621 24.0332 423.221 22.9666 422.421 22.1999C421.654 21.4332 420.604 21.0499 419.271 21.0499C417.971 21.0499 416.904 21.4499 416.071 22.2499C415.271 23.0499 414.871 24.0999 414.871 25.3999V34.2499C414.871 35.0166 414.838 35.5999 414.771 35.9999C414.738 36.3666 414.588 36.7832 414.321 37.2499C413.888 38.1499 412.604 38.5999 410.471 38.5999C408.371 38.5999 407.088 38.1499 406.621 37.2499C406.388 36.7499 406.238 36.3166 406.171 35.9499C406.138 35.5499 406.121 34.9666 406.121 34.1999V16.4999C406.121 15.7666 406.138 15.2166 406.171 14.8499C406.238 14.4499 406.404 14.0166 406.671 13.5499C407.138 12.7166 408.421 12.2999 410.521 12.2999C412.554 12.2999 413.804 12.6832 414.271 13.4499C414.604 14.0166 414.771 14.6999 414.771 15.4999C414.904 15.2666 415.204 14.9332 415.671 14.4999C416.138 14.0666 416.588 13.7166 417.021 13.4499C418.154 12.6832 419.404 12.2999 420.771 12.2999ZM435.693 25.4999C435.693 21.4999 437.093 18.1999 439.893 15.5999C442.693 12.9999 445.893 11.6999 449.493 11.6999C453.093 11.6999 456.277 12.9999 459.043 15.5999C461.81 18.1666 463.193 21.4499 463.193 25.4499C463.193 28.2166 462.477 30.6832 461.043 32.8499C459.61 34.9832 457.86 36.5666 455.793 37.5999C453.76 38.5999 451.643 39.0999 449.443 39.0999C447.243 39.0999 445.11 38.5666 443.043 37.4999C440.977 36.3999 439.227 34.7999 437.793 32.6999C436.393 30.5666 435.693 28.1666 435.693 25.4999ZM446.143 29.0999C447.21 29.8999 448.293 30.2999 449.393 30.2999C450.493 30.2999 451.593 29.8832 452.693 29.0499C453.793 28.2166 454.343 26.9832 454.343 25.3499C454.343 23.7166 453.827 22.4999 452.793 21.6999C451.76 20.8999 450.643 20.4999 449.443 20.4999C448.243 20.4999 447.127 20.9166 446.093 21.7499C445.06 22.5832 444.543 23.8166 444.543 25.4499C444.543 27.0499 445.077 28.2666 446.143 29.0999ZM478.124 38.5499C474.757 38.5499 471.957 37.2832 469.724 34.7499C467.524 32.1832 466.424 29.0666 466.424 25.3999V16.6499C466.424 15.8499 466.44 15.2666 466.474 14.8999C466.54 14.5332 466.69 14.0999 466.924 13.5999C467.39 12.6999 468.69 12.2499 470.824 12.2499C473.157 12.2499 474.524 12.8832 474.924 14.1499C475.124 14.6832 475.224 15.5332 475.224 16.6999V25.4499C475.224 26.8166 475.607 27.8832 476.374 28.6499C477.174 29.4166 478.224 29.7999 479.524 29.7999C480.857 29.7999 481.924 29.3999 482.724 28.5999C483.557 27.7999 483.974 26.7499 483.974 25.4499V16.5999C483.974 15.8332 483.99 15.2666 484.024 14.8999C484.09 14.4999 484.257 14.0499 484.524 13.5499C484.957 12.6832 486.24 12.2499 488.374 12.2499C490.474 12.2499 491.757 12.6999 492.224 13.5999C492.457 14.0999 492.59 14.5499 492.624 14.9499C492.69 15.3166 492.724 15.8832 492.724 16.6499V34.3499C492.724 35.0832 492.69 35.6499 492.624 36.0499C492.59 36.4166 492.44 36.8332 492.174 37.2999C491.674 38.1666 490.39 38.5999 488.324 38.5999C486.29 38.5999 485.04 38.1999 484.574 37.3999C484.24 36.8332 484.074 36.1499 484.074 35.3499C483.94 35.5832 483.64 35.9166 483.174 36.3499C482.707 36.7832 482.257 37.1499 481.824 37.4499C480.69 38.1832 479.457 38.5499 478.124 38.5499ZM511.396 12.2999C514.729 12.2999 517.496 13.5832 519.696 16.1499C521.929 18.6832 523.046 21.7832 523.046 25.4499V34.2499C523.046 35.0166 523.013 35.5999 522.946 35.9999C522.913 36.3666 522.779 36.7832 522.546 37.2499C522.079 38.1499 520.779 38.5999 518.646 38.5999C516.279 38.5999 514.913 37.9832 514.546 36.7499C514.346 36.1832 514.246 35.3332 514.246 34.1999V25.3999C514.246 24.0332 513.846 22.9666 513.046 22.1999C512.279 21.4332 511.229 21.0499 509.896 21.0499C508.596 21.0499 507.529 21.4499 506.696 22.2499C505.896 23.0499 505.496 24.0999 505.496 25.3999V34.2499C505.496 35.0166 505.463 35.5999 505.396 35.9999C505.363 36.3666 505.213 36.7832 504.946 37.2499C504.513 38.1499 503.229 38.5999 501.096 38.5999C498.996 38.5999 497.713 38.1499 497.246 37.2499C497.013 36.7499 496.863 36.3166 496.796 35.9499C496.763 35.5499 496.746 34.9666 496.746 34.1999V16.4999C496.746 15.7666 496.763 15.2166 496.796 14.8499C496.863 14.4499 497.029 14.0166 497.296 13.5499C497.763 12.7166 499.046 12.2999 501.146 12.2999C503.179 12.2999 504.429 12.6832 504.896 13.4499C505.229 14.0166 505.396 14.6999 505.396 15.4999C505.529 15.2666 505.829 14.9332 506.296 14.4999C506.763 14.0666 507.213 13.7166 507.646 13.4499C508.779 12.6832 510.029 12.2999 511.396 12.2999ZM535.318 25.4999C535.318 26.8999 535.785 27.9999 536.718 28.7999C537.652 29.5666 538.635 29.9499 539.668 29.9499C540.735 29.9499 541.718 29.6499 542.618 29.0499C543.552 28.4166 544.302 28.0999 544.868 28.0999C545.868 28.0999 547.085 28.9832 548.518 30.7499C549.285 31.7166 549.668 32.5832 549.668 33.3499C549.668 34.6166 548.752 35.7999 546.918 36.8999C545.018 38.2332 542.685 38.8999 539.918 38.8999C536.818 38.8999 533.835 37.7832 530.968 35.5499C529.602 34.4832 528.485 33.0666 527.618 31.2999C526.752 29.4999 526.318 27.5332 526.318 25.3999C526.318 23.2332 526.752 21.2832 527.618 19.5499C528.485 17.7832 529.602 16.3666 530.968 15.2999C533.735 13.0999 536.685 11.9999 539.818 11.9999C541.085 11.9999 542.318 12.1832 543.518 12.5499C544.718 12.8832 545.602 13.2166 546.168 13.5499L546.968 14.0499C547.568 14.4499 548.035 14.7666 548.368 14.9999C549.235 15.6666 549.668 16.4332 549.668 17.2999C549.668 18.1332 549.318 19.0832 548.618 20.1499C547.418 21.9832 546.268 22.8999 545.168 22.8999C544.535 22.8999 543.635 22.5332 542.468 21.7999C541.868 21.2332 541.002 20.9499 539.868 20.9499C538.768 20.9499 537.735 21.3499 536.768 22.1499C535.802 22.9499 535.318 24.0666 535.318 25.4999ZM577.566 22.3499C577.566 24.3832 577.049 25.8999 576.016 26.8999C575.016 27.8666 573.899 28.3499 572.666 28.3499H560.816C560.816 29.2832 561.366 30.0666 562.466 30.6999C563.566 31.3332 564.666 31.6499 565.766 31.6499C567.699 31.6499 569.216 31.4499 570.316 31.0499L570.866 30.8499C571.666 30.4832 572.333 30.2999 572.866 30.2999C573.933 30.2999 574.849 31.0499 575.616 32.5499C576.049 33.4499 576.266 34.2166 576.266 34.8499C576.266 37.8166 572.716 39.2999 565.616 39.2999C563.149 39.2999 560.949 38.8832 559.016 38.0499C557.116 37.1832 555.633 36.0499 554.566 34.6499C552.466 31.9499 551.416 28.9332 551.416 25.5999C551.416 21.3999 552.766 18.0499 555.466 15.5499C558.199 13.0166 561.599 11.7499 565.666 11.7499C570.299 11.7499 573.699 13.3832 575.866 16.6499C576.999 18.3832 577.566 20.2832 577.566 22.3499ZM567.016 23.7999C568.283 23.7999 568.916 23.2666 568.916 22.1999C568.916 21.4332 568.616 20.8166 568.016 20.3499C567.449 19.8832 566.616 19.6499 565.516 19.6499C564.449 19.6499 563.383 20.0999 562.316 20.9999C561.249 21.8666 560.716 22.7999 560.716 23.7999H567.016ZM598.478 1.3499C598.745 0.8499 599.195 0.499901 599.828 0.299901C600.461 0.0999 601.295 -0.000100732 602.328 -0.000100732C603.395 -0.000100732 604.245 0.0999 604.878 0.299901C605.511 0.499901 605.945 0.8499 606.178 1.3499C606.445 1.8499 606.595 2.2999 606.628 2.6999C606.695 3.06657 606.728 3.63323 606.728 4.3999V34.2499C606.728 35.0166 606.695 35.5999 606.628 35.9999C606.595 36.3666 606.445 36.7832 606.178 37.2499C605.678 38.1499 604.261 38.5999 601.928 38.5999C599.628 38.5999 598.345 37.7832 598.078 36.1499C596.678 37.7499 594.728 38.5499 592.228 38.5499C589.228 38.5499 586.495 37.2499 584.028 34.6499C581.561 32.0166 580.328 28.9666 580.328 25.4999C580.328 21.9999 581.561 18.9332 584.028 16.2999C586.528 13.6666 589.261 12.3499 592.228 12.3499C594.695 12.3499 596.611 13.1832 597.978 14.8499V4.3499C597.978 3.58323 597.995 3.01657 598.028 2.6499C598.095 2.2499 598.245 1.81657 598.478 1.3499ZM590.378 28.4999C591.245 29.3999 592.295 29.8499 593.528 29.8499C594.761 29.8499 595.778 29.3999 596.578 28.4999C597.411 27.5999 597.828 26.6166 597.828 25.5499C597.828 24.4499 597.428 23.4332 596.628 22.4999C595.861 21.5666 594.811 21.0999 593.478 21.0999C592.145 21.0999 591.078 21.5666 590.278 22.4999C589.478 23.3999 589.078 24.3999 589.078 25.4999C589.078 26.5999 589.511 27.5999 590.378 28.4999ZM611.211 31.0499C611.544 30.3832 612.044 29.9332 612.711 29.6999C613.411 29.4666 614.478 29.3499 615.911 29.3499C617.378 29.3499 618.428 29.6666 619.061 30.2999C619.728 30.9332 620.061 31.9332 620.061 33.2999V34.0999C620.061 34.8999 620.028 35.4999 619.961 35.8999C619.928 36.2666 619.778 36.7166 619.511 37.2499C618.978 38.2166 617.694 38.6999 615.661 38.6999C613.661 38.6999 612.328 38.3832 611.661 37.7499C611.028 37.0832 610.711 35.8166 610.711 33.9499C610.711 32.6499 610.878 31.6832 611.211 31.0499ZM617.911 25.1999C617.278 25.3666 616.428 25.4499 615.361 25.4499C614.294 25.4499 613.444 25.3666 612.811 25.1999C612.178 25.0332 611.728 24.7332 611.461 24.2999C611.228 23.8666 611.078 23.4832 611.011 23.1499C610.978 22.8166 610.961 22.2999 610.961 21.5999V5.7499C610.961 5.0499 610.978 4.53323 611.011 4.1999C611.078 3.83323 611.244 3.43323 611.511 2.9999C611.778 2.56657 612.228 2.26657 612.861 2.0999C613.494 1.8999 614.344 1.7999 615.411 1.7999C616.478 1.7999 617.328 1.8999 617.961 2.0999C618.594 2.26657 619.028 2.58324 619.261 3.0499C619.528 3.48323 619.678 3.88323 619.711 4.2499C619.778 4.58323 619.811 5.0999 619.811 5.7999V21.6499C619.811 22.3499 619.778 22.8666 619.711 23.1999C619.678 23.5332 619.528 23.9166 619.261 24.3499C618.994 24.7499 618.544 25.0332 617.911 25.1999Z" fill="#272727"/>
</svg>
