<?xml version="1.0" encoding="UTF-8"?>
<svg width="1718px" height="1007px" viewBox="0 0 1718 1007" version="1.1" xmlns="http://www.w3.org/2000/svg" xmlns:xlink="http://www.w3.org/1999/xlink">
    <title>Logo-Stacked-Primary-Full</title>
    <g id="Logo-Stacked-Primary-Full" stroke="none" stroke-width="1" fill="none" fill-rule="evenodd">
        <g id="elements/stacked-primary" transform="translate(208.4483, 156.6709)">
            <g id="wordmark" transform="translate(0, 564.6612)" fill="#1D4094">
                <path d="M1239.11655,104.863026 L1206.33554,104.863026 L1206.33554,26.2157564 L1239.11655,26.2157564 C1261.40779,26.2157564 1275.17534,42.6001401 1275.17534,65.5398973 C1275.17534,88.478642 1261.40779,104.863026 1239.11655,104.863026 M1235.51045,0 L1176.83277,0 L1176.83277,131.078782 L1235.51045,131.078782 C1274.51951,131.078782 1301.40003,104.863228 1301.40003,65.5398973 C1301.40003,26.2155539 1274.51951,0 1235.51045,0" id="D"></path>
                <path d="M1098.26817,52.4315128 L1062.09977,52.4315128 L1062.09977,26.2157564 L1098.26817,26.2157564 C1113.66119,26.2157564 1121.10532,27.28726 1121.10532,39.3230879 C1121.10532,51.4452922 1114.15068,52.4315128 1098.26817,52.4315128 L1098.26817,52.4315128 Z M1032.597,0 L1032.597,131.078782 L1062.09899,131.078782 L1062.09899,76.7502432 L1089.61848,76.7502432 L1127.66121,131.078782 L1163.72043,131.078782 L1124.05539,74.4347435 C1144.62602,69.9518226 1153.37779,58.7627765 1153.37779,39.2935118 C1153.37779,11.6789218 1137.49453,0 1098.15821,0 L1032.597,0 Z" id="R"></path>
                <polygon id="I" points="973.587336 131.078478 1003.08931 131.078478 1003.08931 0.000101256355 973.587336 0.000101256355"></polygon>
                <polygon id="H" points="914.582178 49.6229046 855.577223 49.6229046 855.577223 0.000202512709 826.074239 0.000202512709 826.074239 131.07858 855.577223 131.07858 855.577223 75.8381749 914.582178 75.8381749 914.582178 131.07858 944.084149 131.07858 944.084149 0.000202512709 914.582178 0.000202512709"></polygon>
                <polygon id="T" points="675.282964 0.00040502542 799.849431 0.00040502542 799.849431 26.2156754 752.31769 26.2156754 752.31769 131.078782 722.814705 131.078782 722.814705 26.2156754 675.282964 26.2156754"></polygon>
                <polygon id="H" points="485.154478 75.8383775 544.159434 75.8383775 544.159434 131.078782 573.662418 131.078782 573.662418 0.00040502542 544.159434 0.00040502542 544.159434 49.6231071 485.154478 49.6231071 485.154478 0.00040502542 455.652507 0.00040502542 455.652507 131.078782 485.154478 131.078782"></polygon>
                <polygon id="T" points="311.416877 0.00040502542 429.427801 0.00040502542 429.427801 26.2156754 381.89606 26.2156754 381.89606 131.078782 352.393075 131.078782 352.393075 26.2156754 304.392357 26.2156754"></polygon>
                <polygon id="F" points="216.352786 75.8379724 267.490482 75.8379724 274.374208 49.622702 216.352786 49.622702 216.352786 26.2152704 281.586116 26.2152704 288.469842 0 186.850815 0 186.850815 131.078377 216.352786 131.078377"></polygon>
                <polygon id="I" points="127.845252 131.078478 157.347223 131.078478 157.347223 0.000101256355 127.845252 0.000101256355"></polygon>
                <polygon id="F" points="29.5029842 75.8383775 81.9523962 75.8383775 81.9523962 49.6231071 29.5029842 49.6231071 29.5029842 26.2156754 101.620039 26.2156754 101.620039 0.00040502542 0 0.00040502542 0 131.078782 29.5029842 131.078782"></polygon>
            </g>
            <g id="bug/full-color" transform="translate(409.5801, 0)">
                <path d="M0,-7.49353511e-15 L0,304.172677 C0,374.014901 56.8069166,430.802503 126.672894,430.802503 L483.185268,430.802503 L483.185268,126.629827 C483.185268,56.7876027 426.378351,-7.49353511e-15 356.512373,-7.49353511e-15 L0,-7.49353511e-15 L0,-7.49353511e-15 Z" id="Outer-Shield" fill="#26D07C" fill-rule="nonzero"></path>
                <path d="M19.5885919,19.581932 L356.512373,19.581932 C415.278149,19.581932 463.596676,67.8840308 463.596676,126.629827 L463.596676,411.220571 L126.672894,411.220571 C67.9071187,411.220571 19.5885919,362.918472 19.5885919,304.172677 L19.5885919,19.581932" id="Middle-Shield" fill="#FFFFFF"></path>
                <path d="M39.1771839,38.5111329 L39.1771839,300.25629 C39.1771839,349.863851 79.6602739,390.985908 129.93766,390.985908 L444.008084,390.985908 L444.008084,129.240751 C444.008084,79.63319 403.524994,38.5111329 353.247608,38.5111329 L39.1771839,38.5111329 Z" id="Inner-Shield" fill="#1D4094" fill-rule="nonzero"></path>
                <g id="53-lockup" transform="translate(84.8839, 84.855)" fill="#FFFFFF">
                    <path d="M276.114484,171.434108 C311.302861,164.293513 316.615002,137.037579 310.640258,119.513011 C305.328117,105.884429 288.066487,89.0087817 266.817923,89.0087817 L186.479489,89.0087817 C217.685961,99.3927555 225.654801,126.002226 225.654801,126.002226 C225.654801,126.002226 238.269408,162.349207 189.798792,172.08303 C189.798792,172.08303 219.6788,185.06269 224.990941,209.077703 C232.958524,245.423455 186.479489,255.158507 186.479489,255.158507 L264.827599,255.158507 C302.008814,255.158507 316.615002,226.599814 311.969236,207.12971 C307.984816,187.010684 293.378628,178.574704 276.114484,171.434108" id="Fill-4"></path>
                    <polygon id="Fill-6" points="124.108735 261.092426 192.494957 0 176.664635 0 108.278413 261.092426"></polygon>
                    <path d="M86.4669812,172.083645 C107.582973,172.083645 131.336746,149.19636 125.398927,120.586653 C121.437883,100.875415 102.346147,83.0748629 78.54989,83.0748629 L0,83.0748629 C32.9928781,93.8828141 40.9112188,122.492522 40.9112188,122.492522 C40.9112188,122.492522 54.1076203,161.911384 3.30003753,172.083645 L86.4669812,172.083645 Z" id="Fill-8"></path>
                    <polygon id="Fill-10" points="0 65.2731065 114.293881 65.2731065 114.293881 5.93391878 0 5.93391878"></polygon>
                </g>
            </g>
        </g>
    </g>
</svg>