<svg version="1.2" xmlns="http://www.w3.org/2000/svg" viewBox="0 0 1000 161" width="1000" height="161">
	<style>
		.s0 { fill: #231f20;stroke: #ffffff;stroke-width: 7.3 } 
		.s1 { fill: #fdec0a } 
		.s2 { fill: #ffffff } 
	</style>
	<path fill-rule="evenodd" class="s0" d="m25.55 3.66h948.9c12.1 0 21.9 9.83 21.9 21.95v109.78c0 12.12-9.8 21.95-21.9 21.95h-948.9c-12.1 0-21.9-9.83-21.9-21.95v-109.78c0-12.12 9.8-21.95 21.9-21.95z"/>
	<path fill-rule="evenodd" class="s1" d="m948.91 36.59q0-0.47 0.06-0.93 0.06-0.47 0.18-0.92 0.12-0.46 0.3-0.89 0.17-0.44 0.4-0.84 0.25-0.42 0.55-0.8 0.3-0.38 0.64-0.72 0.34-0.35 0.72-0.64 0.38-0.3 0.79-0.55 0.42-0.25 0.86-0.44 0.44-0.19 0.9-0.32 0.46-0.13 0.94-0.19 0.47-0.07 0.95-0.08 0.47-0.01 0.94 0.05 0.47 0.06 0.92 0.18 0.45 0.12 0.89 0.3 0.43 0.18 0.83 0.42 0.41 0.25 0.79 0.55 0.38 0.3 0.73 0.64 0.34 0.35 0.63 0.73 0.3 0.38 0.55 0.79 0.48 0.84 0.73 1.77 0.25 0.93 0.25 1.89 0 0.96-0.25 1.89-0.25 0.94-0.73 1.77-0.24 0.42-0.53 0.81-0.3 0.38-0.64 0.72-0.34 0.35-0.73 0.64-0.38 0.3-0.8 0.54-0.83 0.48-1.76 0.73-0.93 0.25-1.89 0.25-0.96 0-1.89-0.25-0.93-0.25-1.76-0.73-0.41-0.26-0.78-0.56-0.38-0.3-0.72-0.65-0.34-0.34-0.64-0.71-0.3-0.38-0.56-0.79-0.22-0.42-0.38-0.87-0.16-0.44-0.28-0.91-0.11-0.46-0.16-0.93-0.06-0.47-0.05-0.95zm1.38 0q0 0.39 0.04 0.78 0.04 0.39 0.13 0.77 0.1 0.38 0.24 0.74 0.14 0.37 0.32 0.71 0.21 0.35 0.46 0.67 0.25 0.32 0.54 0.6 0.28 0.29 0.6 0.54 0.32 0.25 0.66 0.46 0.34 0.19 0.71 0.34 0.36 0.14 0.74 0.23 0.38 0.1 0.77 0.14 0.39 0.04 0.78 0.02 0.38 0.01 0.76-0.03 0.38-0.04 0.75-0.13 0.37-0.1 0.72-0.24 0.36-0.14 0.69-0.33 0.34-0.21 0.66-0.46 0.32-0.25 0.61-0.54 0.28-0.28 0.53-0.6 0.25-0.32 0.46-0.67 0.36-0.69 0.55-1.45 0.18-0.77 0.18-1.55 0-0.78-0.18-1.54-0.19-0.76-0.55-1.46-0.21-0.34-0.46-0.65-0.25-0.31-0.54-0.59-0.28-0.27-0.6-0.51-0.32-0.25-0.66-0.45-0.33-0.19-0.68-0.34-0.36-0.16-0.73-0.26-0.37-0.1-0.75-0.15-0.38-0.05-0.76-0.05-0.4-0.01-0.79 0.04-0.39 0.05-0.76 0.15-0.38 0.11-0.75 0.26-0.36 0.15-0.7 0.35-0.34 0.2-0.66 0.45-0.32 0.24-0.6 0.51-0.29 0.28-0.54 0.59-0.25 0.31-0.46 0.65-0.18 0.34-0.32 0.71-0.14 0.36-0.24 0.74-0.09 0.38-0.13 0.77-0.04 0.39-0.04 0.78z"/>
	<path fill-rule="evenodd" class="s1" d="m958.76 35.27q0.03 0.31-0.04 0.6-0.06 0.3-0.22 0.55-0.16 0.26-0.39 0.46-0.24 0.19-0.52 0.3l1.46 3.29h-2.12l-0.73-3h-0.36v2.78h-1.9v-7.32h2.19q0.29-0.03 0.57-0.01 0.29 0.02 0.57 0.08 0.28 0.07 0.54 0.18 0.27 0.11 0.51 0.26 0.19 0.16 0.34 0.36 0.15 0.2 0.24 0.43 0.1 0.23 0.14 0.48 0.03 0.24 0.01 0.49zm-3.21 1.32q0.11 0.03 0.22 0.05 0.11 0.01 0.22 0.01 0.11 0 0.22-0.01 0.11-0.02 0.22-0.05 0.03-0.11 0.05-0.22 0.02-0.11 0.02-0.22 0-0.11-0.02-0.22-0.02-0.11-0.05-0.22 0.03-0.1 0.05-0.2 0.02-0.1 0.02-0.2 0-0.11-0.02-0.21-0.02-0.1-0.05-0.2-0.11-0.03-0.22-0.05-0.11-0.02-0.22-0.02-0.11 0-0.22 0.02-0.11 0.02-0.22 0.05z"/>
	<path fill-rule="evenodd" class="s2" d="m93.8 29.27l-12.56 37.55-12.55-37.55h-17.67v102.46h17.08v-61.91l12.99 38.85h0.3l12.99-38.85v61.91h17.08v-102.46h-17.66z"/>
	<path fill-rule="evenodd" class="s2" d="m123.58 82.92v-5.27c0.51-33.74 11.24-49.84 27.44-49.84 16.21 0 27.16 16.1 27.16 50.13v5.27c0 33.81-10.95 50.05-27.16 50.05-16.2 0-26.93-16.17-26.93-50.05m35.98-5.27c0-26.71-3.65-34.03-9.05-34.03-5.4 0-9.05 7.32-9.05 33.74v5.27c0 26.34 3.65 33.66 9.05 33.66 5.4 0 9.05-7.32 9.05-33.66z"/>
	<path fill-rule="evenodd" class="s2" d="m190.58 29.27h18.4c18.25 0 31.9 9.66 31.9 32.64v1.32q0.23 3.85-0.45 7.65-0.68 3.79-2.24 7.32-1.57 3.53-3.92 6.58-2.36 3.05-5.36 5.45l13.35 41.5h-18.98l-11.6-35.64h-3.36v35.64h-17.74zm18.69 50.64c7.74 0 13.43-4.47 13.43-16.54v-1.17c0-12.88-6.13-16.25-13.87-16.25h-0.44v33.96z"/>
	<path fill-rule="evenodd" class="s2" d="m250.58 82.33v-3.51c0-33.15 14.02-50.28 34.16-50.28q1.76-0.02 3.5 0.15 1.74 0.18 3.46 0.54 1.71 0.37 3.37 0.93 1.66 0.56 3.25 1.31v18.59q-1.43-1-2.98-1.78-1.56-0.78-3.21-1.34-1.64-0.56-3.35-0.88-1.71-0.32-3.45-0.39c-10.22 0-16.64 10.24-16.64 32.34v5.05c0 26.79 7.88 32.93 15.18 32.93h1.6v-26.42h-8.75v-15.95h24.96v54.52q-2.16 1.05-4.43 1.86-2.26 0.81-4.6 1.36-2.34 0.55-4.72 0.85-2.39 0.29-4.79 0.32c-17.81 0-32.56-14.63-32.56-50.2z"/>
	<path fill-rule="evenodd" class="s2" d="m329.42 29.27h18.97l19.42 102.46h-17.45l-3.35-20.35h-16.57l-3.21 20.35h-17.23zm14.6 65.86l-5.4-33.66-5.55 33.66z"/>
	<path fill-rule="evenodd" class="s2" d="m376.86 29.27h16.64l17.96 51.89v-51.89h17.37v102.46h-15.76l-18.84-54.23v54.23h-17.37v-102.46z"/>
	<path fill-rule="evenodd" class="s2" d="m466.5 105.97v-0.88q0.1-4.42 1.2-8.71 1.09-4.28 3.12-8.21 2.03-3.93 4.89-7.3 2.86-3.37 6.41-6-1.9-2.57-3.41-5.39-1.5-2.81-2.6-5.81-1.09-3-1.75-6.13-0.65-3.12-0.86-6.31v-1.03c-0.16-2.88 0.27-5.77 1.27-8.48 0.99-2.71 2.52-5.19 4.51-7.29 1.98-2.09 4.36-3.76 7.01-4.9 2.65-1.14 5.5-1.73 8.38-1.72 2.83-0.05 5.64 0.49 8.25 1.6 2.61 1.1 4.95 2.74 6.89 4.81 1.94 2.06 3.43 4.52 4.36 7.19 0.94 2.68 1.31 5.52 1.09 8.35v1.47q-0.1 4.06-1.13 8-1.03 3.93-2.92 7.52-1.91 3.59-4.58 6.65-2.67 3.06-5.97 5.42l9.19 17.56c0.73-3.22 1.32-7.32 2.19-13.76l13.73 2.49q-0.31 3.4-0.87 6.76-0.57 3.36-1.4 6.67-0.82 3.31-1.9 6.54-1.08 3.24-2.4 6.38l8.46 14.63-12.84 7.91-4.82-9.59q-1.7 2.12-3.84 3.79-2.15 1.67-4.62 2.8-2.47 1.12-5.14 1.64-2.67 0.52-5.38 0.4c-3.44-0.13-6.82-0.97-9.94-2.44-3.11-1.48-5.9-3.57-8.19-6.16-2.29-2.58-4.04-5.6-5.13-8.87-1.1-3.28-1.53-6.74-1.26-10.19m36.27 7.54l-13.21-25.1q-1.37 1.68-2.45 3.57-1.08 1.88-1.84 3.91-0.77 2.04-1.19 4.17-0.43 2.13-0.5 4.3v1.17c0 7.91 3.79 13.18 9.63 13.18q1.35-0.02 2.67-0.35 1.31-0.34 2.51-0.97 1.2-0.63 2.22-1.52 1.01-0.89 1.8-1.99zm-8.61-46.33q-0.07-0.11-0.14-0.22-0.11 0.11-0.23 0.22zm2.4-3.25q1.2-1.77 2.02-3.76 0.81-1.99 1.19-4.1 0.37-2.11 0.3-4.26v-0.87c0-4.98-2.33-8.2-5.69-8.2-3.36 0-5.33 3.22-5.33 7.61v1.46q0.17 2.04 0.59 4.05 0.41 2 1.05 3.94 0.65 1.94 1.52 3.79 0.81 1.74 1.81 3.37 1.42-1.39 2.54-3.03z"/>
	<path fill-rule="evenodd" class="s2" d="m563.72 29.27h17.67l12.55 37.55 12.56-37.55h17.66v102.46h-17.08v-61.91l-12.99 38.85h-0.29l-13-38.85v61.91h-17.08v-102.46z"/>
	<path fill-rule="evenodd" class="s2" d="m636.28 82.92v-5.27c0-33.89 10.95-50.13 27.15-50.13 16.21 0 27.52 16.39 27.52 50.42v5.27c0 33.81-11.02 50.05-27.23 50.05-16.2 0-27.15-16.17-27.15-50.05m36.2-5.27c0-26.71-3.65-34.03-9.05-34.03-5.4 0-9.05 7.32-9.05 33.74v5.27c0 26.34 3.65 33.66 9.05 33.66 5.4 0 9.05-7.32 9.05-33.66z"/>
	<path fill-rule="evenodd" class="s2" d="m703.36 29.27h18.39c18.25 0 31.53 9.66 31.53 32.64v1.32q0.24 3.85-0.44 7.65-0.68 3.79-2.24 7.32-1.57 3.53-3.92 6.58-2.36 3.05-5.37 5.45l13.73 41.5h-18.98l-11.53-35.72h-3.36v35.72h-17.81zm18.68 50.64c7.74 0 13.43-4.47 13.43-16.54v-1.17c0-12.88-6.13-16.25-13.86-16.25h-0.44v33.96z"/>
	<path fill-rule="evenodd" class="s2" d="m763.36 82.33v-3.51c0-33.15 14.01-50.28 34.16-50.28q1.75-0.02 3.49 0.15 1.75 0.18 3.46 0.54 1.71 0.37 3.38 0.93 1.66 0.56 3.24 1.31v18.59q-1.43-1-2.98-1.78-1.55-0.78-3.2-1.34-1.65-0.56-3.36-0.88-1.71-0.32-3.45-0.39c-10.22 0-16.64 10.24-16.64 32.34v5.05c0 26.79 7.88 32.93 15.18 32.93h1.61v-26.42h-8.76v-15.95h24.96v54.52q-2.16 1.05-4.42 1.86-2.27 0.81-4.61 1.36-2.34 0.55-4.72 0.85-2.38 0.29-4.79 0.32c-17.81 0-32.55-14.63-32.55-50.2z"/>
	<path fill-rule="evenodd" class="s2" d="m842.19 28.76h19.12l19.27 102.97h-17.81l-3.35-20.35h-16.21l-3.21 20.35h-17.23zm14.6 66.37l-5.4-33.88-5.55 33.88z"/>
	<path fill-rule="evenodd" class="s2" d="m889.64 29.27h16.64l17.95 51.89v-51.89h17.38v102.46h-15.77l-18.83-54.23v54.23h-17.37v-102.46z"/>
</svg>