<?xml version="1.0" encoding="utf-8"?>
<!-- Generator: Adobe Illustrator 19.2.1, SVG Export Plug-In . SVG Version: 6.00 Build 0)  -->
<svg version="1.1" id="layer" xmlns="http://www.w3.org/2000/svg" xmlns:xlink="http://www.w3.org/1999/xlink" x="0px" y="0px"
	 viewBox="0 0 652 652" style="enable-background:new 0 0 652 652;" xml:space="preserve">
<style type="text/css">
	.st0{fill:#6CADDF;}
	.st1{fill:#FFFFFF;}
	.st2{fill:#696559;}
	.st3{fill:#C1AB87;}
	.st4{fill:#757165;}
	.st5{fill:#328088;}
	.st6{fill:#231F20;}
</style>
<path d="M200.7,268.4c-3.2-15.9-10.6-17.7-23.3-17.7v51.4c0,9.7,0.8,11.8,11.8,12.7v2.2c-6-0.2-12.2-0.4-18.3-0.4
	c-6.6,0-13,0.2-19.8,0.4v-2.2c11-0.9,11.8-3,11.8-12.7v-51.4c-12.8,0-20.1,1.8-23.3,17.7h-2.8c0.8-7.5,1.1-15,1.1-22.5
	c10.8,0.3,21.2,0.6,31.7,0.6c10.7,0,21.5-0.3,32.4-0.7c-0.1,7.5,0.3,15,1.1,22.5H200.7z M200.7,268.4 M241.5,296.4
	c0,13.9-12.4,21.8-25.2,21.8c-12.8,0-25.2-8-25.2-21.8c0-13.9,12.4-21.8,25.2-21.8C229.1,274.5,241.5,282.5,241.5,296.4L241.5,296.4
	z M217.4,314.1c5.9,0,9.7-5.4,9.7-15.7c0-13.6-5.7-19.8-11.8-19.8c-5.9,0-9.7,5.4-9.7,15.7C205.6,307.9,211.3,314.1,217.4,314.1
	L217.4,314.1z M238.1,275.8c5.1,0.2,10.2,0.4,15.4,0.4c4.4,0,8.7-0.2,13.1-0.4v2.1c-2.5,0.3-5.9,1.3-5.9,4.4
	c0,2.9,7.3,19.1,8.6,22.7l9.5-19.6c-1.8-3.5-4.3-7.1-8.6-7.3v-2.3c4.5,0.2,9.1,0.4,13.6,0.4c4.2,0,8.3-0.2,12.5-0.4v2.1
	c-2.6-0.1-5.9,0.6-5.9,4.2c0,3.8,6,15.6,8.6,23.1c2.3-4.4,9-17.7,9-21.6c-0.2-3.3-2.9-5.8-6.2-5.7v-2.1c3.3,0.2,6.6,0.4,9.9,0.4
	c3.2,0,6.6-0.2,9.9-0.4v2.1c-6.7,1.1-8.8,5-24.2,40H292l-11.6-28.4L266.9,318h-4.7c-13.6-35.1-15.9-38.3-24.1-40V275.8z
	 M331.8,296.2c0,9,5.4,15.5,14.6,15.5c5.2,0,10.1-2.3,13.4-6.2l2.6,2.8c-5.5,6.2-13.3,9.8-21.5,9.9c-14,0-22.9-8.7-22.9-21.8
	c0-13.1,8.9-21.8,22.9-21.8c13.9,0,20.9,9.6,21.9,21.7H331.8z M345.5,292.2c2.8,0,3.7-0.4,3.7-3c0-6.2-2.4-10.5-8.6-10.5
	c-6.6,0-8.7,8.1-8.7,13.5H345.5z M384.5,307.2c0,5.2,2.8,7.3,10.6,7.5v2.2c-5.1-0.2-10-0.4-15.1-0.4c-5.1,0-10,0.2-15.1,0.4v-2.2
	c4.7-0.2,7.5-2.4,7.5-7.5v-21.3c0-5.2-2.8-7.3-7.5-7.5v-2.2c6.6-0.4,13.1-1.1,19.6-2.2v7.5c4.8-3.9,9.6-8.6,16.1-8.6
	c5.3,0,7.1,3.4,7.1,9.8c-3.4,1.6-10,4.5-12.5,6l-1.3-0.9c1-0.6,2.8-2.2,2.8-3.7c0-2.6-1.6-3.7-4.1-3.7c-3.2,0.8-6.1,2.5-8.1,5.1
	L384.5,307.2z M431.9,314.3c8.6-0.4,11.2-1.7,11.2-10.6v-41.9c0-10.2-0.9-12-11-13.3v-2.6c12.4,0.9,24.8,0.9,37.1,0v2.6
	c-10.7,1.3-11.7,3.1-11.7,13.3V276h35.7v-14.2c0-10.2-0.9-12.1-11.6-13.3v-2.6c12.5,0.8,25,0.8,37.4,0v2.6
	c-10.5,1.3-11.4,3.1-11.4,13.3v41.9c0,8.8,2.6,10.1,11.4,10.5v2.6c-6.1-0.3-12.5-0.4-18.6-0.4c-6.1,0-12.4,0.1-18.5,0.4v-2.6
	c8.6-0.4,11.3-1.7,11.3-10.6v-23.2h-35.7v23.2c0,8.8,2.7,10.1,11.4,10.5v2.6c-6.2-0.2-12.6-0.4-18.8-0.4c-6,0-12.1,0.2-18.2,0.4
	L431.9,314.3z M542.5,308.4c0,5.2,3.8,6.3,7.9,6.3v2.2c-3.8-0.2-6.9-0.4-14.3-0.4c-7,0-10.7,0.2-14,0.4v-2.2c4,0,7.7-1.2,7.7-6.3
	v-24.6c0-3.7-2.3-5.4-7.7-5.4v-2.2c7-0.1,13.9-0.9,20.8-2.3c-0.1,3.5-0.3,7-0.3,10.3V308.4z M543.8,252.7c0,7.4-8.9,11-14.1,5.8
	c-5.2-5.2-1.5-14.1,5.9-14.1C540.1,244.3,543.9,248.1,543.8,252.7L543.8,252.7z M572.3,308.4c0,5.2,3.8,6.3,7.9,6.3v2.2
	c-3.7-0.2-6.9-0.4-14.3-0.4c-7,0-10.6,0.2-14,0.4v-2.2c4,0,7.7-1.2,7.7-6.3v-57.3c0-5-2.3-6.7-7.5-6.7v-2.2
	c6.8-0.1,13.6-0.9,20.2-2.4V308.4z M602,308.4c0,5.2,3.7,6.3,7.8,6.3v2.2c-3.7-0.2-6.9-0.4-14.3-0.4c-7,0-10.6,0.2-14,0.4v-2.2
	c4,0,7.7-1.2,7.7-6.3v-57.3c0-5-2.2-6.7-7.5-6.7v-2.2c6.8-0.1,13.6-0.9,20.2-2.4V308.4z M153.3,329.3c6.6,0.3,13,0.7,19.6,0.7
	c6.2,0,12.3-0.3,18.6-0.7v2.6c-9.9,0.3-12.3,3.3-12.3,11.8v45.6c0,5.6,3.2,8,12,8.4l-0.2,2.6c-6.2-0.3-12.5-0.4-18.7-0.4
	c-6.4,0-12.9,0.1-19.4,0.4v-2.6c8.7-0.4,12-2.8,12-8.4v-45.6c0-8.5-2.6-11.5-11.5-11.8V329.3z M214.1,364.8c5.1-4.3,9.8-6.9,16-6.9
	c8.7,0,14.2,5.4,14.2,13.7v20.2c0,5.2,3.8,6.4,7.1,6.4v2.1c-3-0.2-6.1-0.4-13.6-0.4c-7,0-10.7,0.2-13.1,0.4v-2.1
	c3.1,0,6.9-1.2,6.9-6.4v-20c0-4.2-3.5-7-8.5-7c-3.4,0.2-6.7,1.7-9,4.2v22.8c0,5.2,3.7,6.4,7,6.4v2.1c-2.9-0.2-6-0.4-13.4-0.4
	c-7,0-10.7,0.2-13.7,0.4v-2.1c3.7,0,7.4-1.2,7.4-6.4v-24.6c0-3.7-2.3-5.4-7.1-5.4v-2.1c6.6,0,13.3-0.6,19.8-1.7L214.1,364.8z
	 M256.8,384.8c3.9,7.4,10.3,13.3,19,13.3c3.1,0,6-1.4,6-4.6c0-9.2-26.8-7.2-26.8-22.8c0-9.7,7.5-12.8,14.8-12.8
	c4.5,0,10.7,1.9,15.9,1.9c0.5,0,1-0.1,1.5-0.2l0.9,13.3h-2.6c-2.5-5.1-8.7-11.6-14.8-11.6c-3,0-6,0.9-6,4.6c0,9,26.1,7.4,26.1,22.6
	c0,9.8-8.2,13-16.5,13c-6.6,0-13.1-1.2-19.1-3.7l-0.9-13.1H256.8z M341.5,392.3c0,3.7,2.3,5.4,7.7,5.4v2.2
	c-6.9-0.1-13.7,0.5-20.4,1.7v-6.3c-4.5,3.2-9.9,6.3-16.1,6.3c-7.7,0-12.9-4.7-12.9-14.2v-20.2c0-3.7-2.3-5.4-7.1-5.4v-2.1
	c6.6,0,13.3-0.6,19.8-1.7v28.7c0,4.9,2.8,7.8,7.2,7.8c3.4,0.1,6.7-1.3,9.1-3.7v-23.7c0-3.7-2.2-5.4-7.7-5.4v-2.1
	c6.8,0.1,13.7-0.5,20.4-1.7V392.3z M371.2,390.6c0,5.2,2.8,7.3,10.5,7.5v2.1c-5.1-0.2-10-0.4-15.1-0.4c-5.1,0-10,0.2-15.1,0.4v-2.1
	c4.7-0.2,7.5-2.4,7.5-7.5v-21.3c0-5.2-2.8-7.3-7.5-7.5v-2.1c6.6-0.4,13.1-1.1,19.6-2.2v7.5c4.8-3.9,9.6-8.6,16.1-8.6
	c5.3,0,7.1,3.5,7.1,9.8c-3.5,1.6-10,4.5-12.5,6l-1.3-0.9c1-0.7,2.8-2.2,2.8-3.7c0-2.6-1.6-3.7-4.1-3.7c-3.2,0.7-6.1,2.5-8.1,5
	L371.2,390.6z M425.7,369.3c0-4.7-1.7-7.3-5.2-7.3c-4.8,0-5.7,3.9-5.7,7.1c0,1,0.1,2,0.2,3c-5.3-1.2-9.7-2.2-14.4-2.9
	c1.1-9.2,10.1-11.3,17.8-11.3c9.3,0,19.9,2.8,19.9,12.6c0,5.2-0.6,13.1-0.6,16.9c0,3.1,0.8,6.2,4.5,6.2c2.3-0.3,4.5-1.4,6-3.1
	l1.7,1.9c-3.5,3-8.3,9.1-13.3,9.1c-3.7,0-7.2-3.2-9.7-5.7c-5.2,3.5-11.3,5.5-17.5,5.7c-6.1,0-12.2-4.3-12.2-9.9
	c0-13.6,16.9-14.4,28.3-14.4V369.3z M418.5,395.1c2.6,0,5.2-0.9,7.2-2.7c-0.1-1.9-0.2-3.7-0.2-5.5c0-1.9,0.1-3.9,0.2-5.8
	c-1.9-0.3-3.8-0.5-5.7-0.4c-4.3,0-8.8,2.5-8.8,7.3C410.9,392.1,414.4,395.5,418.5,395.1L418.5,395.1z M470.8,364.8
	c5.1-4.3,9.8-6.9,16-6.9c8.7,0,14.2,5.4,14.2,13.7v20.2c0,5.2,3.8,6.4,7.1,6.4v2.1c-3-0.2-6.2-0.4-13.6-0.4c-7,0-10.7,0.2-13.1,0.4
	v-2.1c3.1,0,6.9-1.2,6.9-6.4v-20c0-4.2-3.5-7-8.5-7c-3.4,0.2-6.7,1.7-9,4.2v22.8c0,5.2,3.7,6.4,7,6.4v2.1c-2.9-0.2-6-0.4-13.4-0.4
	c-4.5,0-9.1,0.1-13.6,0.4v-2.1c3.7,0,7.4-1.2,7.4-6.4v-24.6c0-3.7-2.3-5.4-7.1-5.4v-2.1c6.6,0,13.3-0.6,19.8-1.7L470.8,364.8z
	 M554.4,392.9c-6.4,5.5-13,8.6-20.3,8.6c-12.8,0-25.2-8-25.2-21.8c0-13.9,12.4-21.8,25.2-21.8c2.3,0,4.6,0.3,6.9,0.7
	c2.1,0.4,4.1,0.6,6.2,0.6h2.7c0.1,6.3,0.5,12.6,1.2,18.9h-2c-2.4-6.1-6.7-16.1-15.4-16.1c-7,0-11,5.7-11,13.1c0,11.6,6.7,20,16.8,20
	c4.6-0.1,9-1.7,12.5-4.6L554.4,392.9z M571.2,379.6c0,9,5.4,15.5,14.6,15.5c5.2,0,10.1-2.3,13.4-6.3l2.6,2.8
	c-5.4,6.2-13.3,9.8-21.5,9.9c-14,0-22.9-8.7-22.9-21.8c0-13.1,8.9-21.8,22.9-21.8c13.9,0,20.9,9.6,21.9,21.7H571.2z M584.9,375.5
	c2.8,0,3.7-0.4,3.7-3c0-6.3-2.4-10.5-8.6-10.5c-6.6,0-8.7,8.1-8.7,13.5H584.9z M584.9,375.5"/>
<rect x="25" y="248.4" class="st0" width="93.6" height="143.6"/>
<path d="M24.1,251.2c0.1,0,0,0,0,0.1C24.1,251.3,24.1,251.3,24.1,251.2L24.1,251.2z M24.1,251.2"/>
<path d="M119.4,250.6c0.4,0.1-0.2,0.3,0.1,0.4c-0.3,0.3,0.1,0.6-0.1,0.9c0,0.2,0.1,0.3,0,0.4c0.1,0.2,0,0.5,0,0.7
	c-0.1,0.1-0.1,0.2-0.1,0.2c0.1,0,0.1,0.4,0.1,0.6h-0.1c0.1,0.1,0.1,0.1,0.2,0.1c0,0-0.2,0.1,0,0.2c0,0.2,0.1,0.4-0.1,0.5
	c-0.1,0.1,0.2,0.2,0,0.3c0,0.1,0.3,0.1,0,0.2v0.1c0,0,0.2,0.1,0.2,0.2c-0.1,0.4-0.1,0.7-0.2,1.1c0.2,0.2-0.1,0.4,0.1,0.6
	c-0.2,0.1,0.2,0.4-0.1,0.3c0.1,0.1,0.2,0.3,0.1,0.4c0,0.2,0,0.4,0,0.6c-0.2,0.4-0.1,0.8,0.1,1.1c-0.1,0-0.2,0-0.2,0.1
	c-0.1,0.1,0.1,0.3-0.1,0.4c0.1,0.3-0.1,0.4,0.1,0.6c-0.2,0.1,0.1,0.4-0.1,0.7c0.1,0.1,0.2,0.4,0,0.5v0.8c0,0.2,0,0.4,0,0.6
	c0,0.3,0.1,0.6-0.1,0.8c0.3,0.1-0.1,0.3,0.2,0.4c-0.1,0.5,0,0.9-0.1,1.1h0.1c0.1,0.5-0.2,0.9,0,1.4c-0.1,0.1,0,0.2,0,0.3
	c-0.1,0.8-0.1,1.6,0,2.5c0,0.2,0,0.3,0,0.5c0,0-0.1,0.1-0.1,0.1c0.3,0.1-0.2,0.2,0.1,0.2c0,0.9,0,1.8-0.1,2.7
	c0.1,0.1,0.1,0.3,0.1,0.4c0.1,0.4-0.1,0.8,0,1.1c-0.1,0.2,0,0.4,0,0.6c-0.1,0.7,0,1.6,0,2.3c0,0.4,0.1,0.8,0,1.3
	c-0.1,0.7,0,1.4,0,2.1c0,0.4,0,0.8,0,1.3c-0.1,0.3,0.2,0.8-0.1,1.1c0.2,0.1,0,0.2,0.1,0.3c-0.1,0.6,0.1,1.3,0,1.9
	c-0.2,0.1,0,0.3,0,0.4c0.1,0.7-0.1,1.5,0,2.4c0,0.3,0,0.6-0.1,0.9c0.1,0.4,0.1,0.7,0.1,1.1c0.1,1-0.1,2.1,0,3.1
	c0.1,0.2-0.2,0.2,0,0.4c-0.1,0.4,0.1,0.7,0,1.1c0.2,0.4,0,0.8,0.1,1.2c0,0.4-0.1,0.8,0,1.3c0.1,0.5,0.1,1,0,1.6
	c-0.1,1.5,0,2.9,0,4.4c-0.2,0.2,0,0.4,0,0.7c-0.1,1.3,0,2.4,0,3.8c-0.1,0.1,0,0.2,0,0.2c-0.1,1-0.1,2,0,2.9
	c-0.2,0.3,0.1,0.5-0.1,0.8c0.1,0.2,0.1,0.4,0.1,0.6c-0.1,0.9,0.1,1.7,0,2.6c0.2,0.2-0.1,0.4,0.1,0.6c-0.2,1.1,0.1,2.1-0.1,3.3
	c0,0,0.1,0.1,0,0.1c-0.1,0.3,0,0.5,0,0.8v9.7c0.1,0.4,0.1,0.8,0,1.1c0.1,0.1,0,0.3,0.1,0.4c0,0.4,0,0.7,0,1.1c0,1.5,0.1,3,0,4.4
	c-0.1,0.2,0,0.6-0.1,0.7c0.3,0.7-0.1,1.4,0.1,2.1v2.2c-0.1,0.1,0,0.3,0,0.4c-0.1,1,0,2.4-0.1,3.4c0.2,0.4,0,0.9,0,1.3
	c0.1,0.1,0,0.3,0.1,0.4c0.1,0,0.2-0.1,0.2,0.1c-0.2,0-0.2,0.3-0.3,0.4c0.1,0.4,0,0.9,0.1,1.3c-0.1,0.3-0.1,0.6-0.1,0.9
	c0,0.1,0.2,0.1,0,0.2v2c0.3,0-0.1,0.4,0.1,0.3c-0.2,0.3-0.1,0.7-0.2,1c0.3,0.1-0.1,0.3,0.1,0.3c0,0.3,0,0.6,0,0.9
	c0.3-0.1,0.1,0.4,0.1,0.1c-0.2,0.1-0.2,0.3-0.1,0.4c0.1,0-0.2,0.2,0.1,0.2c-0.1,0.1,0.1,0.4-0.2,0.4c0.1,0,0,0.3,0.1,0.2
	c0-0.1,0.1,0,0.1,0.1c-0.3,0.1-0.1,0.4-0.1,0.7c0.1,0.1,0.1,0.2,0,0.3c-0.1,0.4,0,0.9,0,1.3c-0.2,0.1,0,0.2,0,0.3
	c-0.1,1,0,2.1-0.1,3.1c0.1,0.4,0,0.8,0,1.2c-0.2,0.4,0.1,0.7,0,1c0.2,0-0.1,0.1,0,0.2c0,0.2-0.1,0.4,0.1,0.7c-0.1,0.2,0,0.4-0.1,0.6
	c0.1,0.1,0,0.2,0,0.2c-0.2,0.1,0.2,0.2-0.1,0.3c0.1,0.6,0.1,1.3,0,1.9c0,0.8,0.1,1.9,0,2.8c0.1,0.3,0.1,0.6,0,0.9c0,0.6,0,1.3,0,1.9
	c-0.1,0.1,0,0.1,0,0.2c-0.2,1.4,0.2,2.6,0,4c0.1,0.1,0,0.4,0.1,0.7c-0.1,0,0,0.2-0.1,0.3c0,0.7,0,1.4,0,2.2c0,3.2,0,6.4,0,9.4
	c0.2,0.2,0.2,0.6,0,0.8l0,6.1c-0.2,0.2-0.4,0.4-0.6,0.4c-0.7,0.1-1.4,0.1-2,0c-0.2,0-0.3,0-0.5,0c-0.3,0-0.5,0.2-0.8,0
	c-0.3,0.1-0.6,0.2-0.9,0.1c-1.9,0-3.8,0.1-5.7,0c-0.3-0.1-0.6,0-1-0.1c-0.8,0.1-1.6,0-2.4,0c-0.3,0-0.6,0.1-0.9,0
	c-0.8,0.1-1.7-0.1-2.5,0c-0.2,0-0.4,0-0.6,0c-0.5,0-0.9,0-1.4-0.1c-0.5,0.2-1.1,0-1.6,0c0,0-0.1-0.1-0.2,0c-2.8,0-5.7,0.1-8.4,0
	c-0.1,0.1-0.3-0.1-0.5,0c-0.3,0-0.5-0.1-0.7,0.1c-1.3-0.1-2.6,0-3.9-0.1c-1,0-2,0-3.1,0c-0.1-0.1-0.3,0.1-0.5,0l-2.7,0
	c0,0.1-0.1,0-0.1,0c-0.6-0.2-1.1,0.1-1.8,0c-0.1,0-0.1,0.1-0.2,0c-0.1,0-0.2-0.2-0.3,0c-0.4,0-1,0.1-1.5,0c-0.1,0-0.3,0.1-0.4,0
	c-0.7,0.1-1.5,0-2.2-0.1c-1.8,0.1-3.5,0.1-5.3,0.1c-0.8-0.1-1.8,0.1-2.6,0c-0.1,0.1-0.3,0-0.4,0.1c-0.6,0-1.1,0-1.7-0.1
	c0,0.1-0.2,0-0.2,0c-0.9,0-1.8-0.1-2.8,0c-0.3,0-0.5,0-0.8,0c-0.2,0-0.3,0.1-0.4,0c-1.2,0.1-2.3,0-3.4,0c-0.1,0-0.1-0.1-0.2,0
	l-4.7,0c-0.2,0-0.5,0-0.7,0c-1.3,0-2.7,0-3.9,0c-1.1,0-2.1,0-3.3,0c-1.3,0.1-2.6,0-4,0.1c0-0.1-0.1,0-0.1-0.1
	c-1.9-0.1-3.6,0.1-5.4,0c-0.4,0.1-0.9,0.1-1.4,0c-2.1,0.1-4.2-0.1-6.3,0c-0.1,0.2-0.3-0.2-0.4-0.3c0.1-0.9,0.1-1.9,0-2.8
	c0.1-0.2,0-0.4,0.1-0.6c0-1.2-0.1-2.2,0-3.4c0-0.2,0-0.5,0-0.8c0-0.2,0.2-0.6-0.1-0.8c0.1-0.6,0.1-1.3,0.1-2c-0.1-0.1-0.1-0.3,0-0.4
	c0-0.5,0-0.9,0-1.4c-0.2-0.2,0-0.5,0-0.8c0,0.1,0-0.2,0-0.1c-0.1-0.2,0.2-0.3,0-0.4c-0.1-0.3-0.1-0.7,0-1c-0.1-0.1,0-0.2,0-0.3
	c-0.1-0.3-0.1-0.5,0-0.8c-0.1-1-0.1-2.1,0-3.1c-0.2-0.1,0-0.1,0-0.3c0-0.3,0-0.6,0.1-0.9c-0.1-0.2-0.1-0.5-0.1-0.7
	c0-0.5,0-0.8,0.1-1.3c-0.2-0.1,0-0.3-0.1-0.4c0.3-0.1-0.3-0.2,0.1-0.3c-0.1,0-0.2-0.2-0.1-0.1h0c0-0.2-0.3-0.1,0-0.3v0
	c-0.2,0-0.1-0.2-0.1-0.4c0.2-0.1,0-0.2-0.1-0.3c-0.2-0.3,0.4-0.2,0-0.4c-0.1-0.1,0.2-0.1,0.1-0.2c-0.2-0.2,0.2-0.4-0.1-0.6
	c0.2-0.1-0.1-0.2,0.1-0.3c-0.2-0.1,0-0.3-0.1-0.4c0.2-0.5-0.1-1.1,0-1.6c-0.1-0.2,0.2-0.4,0-0.6l0.1-0.3c0,0-0.1,0-0.1,0
	c0,0.1-0.1,0,0,0c0.1-0.2,0-0.4,0-0.7c0.1-0.3,0.1-0.6,0-0.9c-0.2-0.1,0.2-0.2,0-0.3c0-0.2,0.1-0.4,0-0.6c-0.1-0.1,0.2-0.2,0-0.3
	c-0.1-0.2,0-0.4,0.1-0.5c-0.2-0.1-0.1-0.2-0.1-0.4c0.1,0,0.2-0.1,0.1-0.1c-0.1,0-0.1-0.2-0.1-0.3c0-0.1,0.2,0,0.1-0.2
	c-0.1-0.2-0.2-0.5,0-0.7c-0.1-0.1,0-0.2-0.1-0.4c0-0.1,0.2-0.4,0-0.5c-0.1-0.1,0.1-0.2,0-0.4c0.2,0,0-0.3,0-0.4
	c-0.1-0.1,0-0.2,0-0.3c0-0.1,0.2-0.1,0-0.1c-0.1,0,0,0,0-0.1c0.2-0.1-0.2-0.2,0-0.1c0.2-0.1,0.1-0.2,0-0.2c0-0.2,0-0.4,0.1-0.6
	c-0.1-0.4-0.1-0.9,0-1.4c0,0-0.1,0-0.1,0c0.2-0.1-0.2-0.3,0.1-0.4c-0.1-0.1,0-0.2,0-0.3c0.2-0.3-0.1-0.5,0-0.8
	c-0.2-0.2,0.2-0.4-0.1-0.6c0.2-0.1-0.1-0.2,0.1-0.3c-0.2,0,0.1-0.1-0.1-0.2c0,0,0.1-0.1,0.2-0.1c0,0,0.1-0.1,0.1-0.1
	c-0.2,0-0.1-0.1-0.2-0.1c0-0.2-0.1-0.5,0.1-0.7c0-0.1-0.3-0.3,0-0.4c-0.1,0-0.1-0.1,0-0.1c0.1,0,0,0-0.1-0.1c-0.1-0.2,0.2-0.3,0-0.4
	c-0.1-0.3,0.2-0.4,0-0.6c0.1-0.1-0.1-0.1,0-0.2c0-0.1,0.1-0.3,0-0.4c0,0,0.1-0.1,0-0.1c0-0.1,0.1-0.1,0.1-0.1
	c-0.2-0.1,0-0.3-0.1-0.4c0.3-0.2-0.2-0.3,0.1-0.4c-0.1,0,0-0.2,0-0.4c-0.1-0.2-0.1-0.4,0-0.6c0.2-0.1,0-0.1,0-0.2
	c-0.1-0.2,0.1-0.3,0-0.5c0,0,0.1,0,0.1,0c-0.3-0.1,0.2-0.3-0.1-0.4c0-0.2-0.1-0.4,0-0.5c-0.2-0.2,0.2-0.5,0-0.7c0-0.1,0-0.3,0-0.3
	c-0.1,0,0.2-0.1,0-0.2c-0.1-0.1,0.2-0.2,0-0.3c0,0,0.1-0.1,0-0.1c-0.2,0,0.1-0.1,0-0.1c-0.1,0,0.1,0,0-0.1c-0.1,0,0-0.1-0.1-0.2
	c0,0,0.1,0,0.1-0.1c-0.2-0.1,0.2-0.3-0.1-0.3c0.3-0.1-0.1-0.4,0.1-0.6c0.2-0.3-0.3-0.5,0-0.7c0.1-0.1,0-0.2,0-0.2c0-0.1,0-0.2,0-0.2
	c-0.1-0.2,0-0.5,0-0.7c-0.1,0,0-0.1,0-0.2c-0.1-0.1,0.2-0.4-0.1-0.4c0.2-0.1,0-0.4,0.1-0.4c-0.1,0-0.2-0.2,0-0.2
	c0-0.2-0.1-0.4,0-0.5c-0.2-0.2,0.3-0.6,0-0.8c0.1-0.3-0.1-0.7,0-1.1c0-0.1,0.1,0,0.1-0.1c-0.1,0,0-0.2-0.1-0.3
	c0.2-0.1-0.2-0.2,0.1-0.3c0-0.1-0.3-0.1,0-0.1c0.2-0.1-0.3-0.1-0.1-0.3c0.1-0.2,0-0.2,0-0.3c0.1-0.1,0.2-0.2,0.1-0.3
	c0,0-0.1,0-0.1,0c0-0.1,0.2,0,0.2-0.1c-0.2,0,0-0.4-0.1-0.6c-0.2,0.1-0.1-0.1-0.1-0.1c0.1-0.1,0.3,0.2,0.2-0.1
	c-0.1-0.1-0.2,0.1-0.2-0.1c0-0.1,0.2,0,0.1-0.1c-0.2-0.2,0.1-0.5,0-0.7c0.1-0.2-0.1-0.3,0-0.4c-0.1-0.1,0-0.2,0-0.2l0.2-0.1
	c-0.4-0.1,0.1-0.2-0.2-0.4c0-0.1,0.1-0.2,0.1-0.3c0,0-0.1,0-0.1,0c0.1,0,0-0.2,0.1-0.2c-0.2-0.2-0.1-0.4-0.1-0.6c0,0,0-0.1,0-0.1
	c0,0,0.1-0.1,0.1-0.1c-0.3-0.1,0.3-0.2,0-0.3c-0.1-0.3,0.1-0.4,0.1-0.7c0.4-0.4-0.5-0.1,0-0.4c0,0-0.1,0-0.1,0c0-0.1,0-0.3-0.1-0.4
	c0.4-0.1-0.2-0.1,0.2-0.2c0-0.1-0.2-0.2-0.1-0.4c0.3-0.1-0.2-0.2,0.1-0.3c-0.2-0.2,0-0.4-0.1-0.6c0,0,0.1,0,0.1-0.1
	c-0.3-0.1,0.2-0.2-0.1-0.2c0-0.2,0.2-0.6,0-0.8c0.2-0.1-0.2-0.3,0.1-0.2c0-0.2-0.3-0.1,0-0.2c0-0.1,0-0.1-0.1-0.1
	c0.4-0.1-0.3-0.1,0-0.3c-0.1-0.2,0.1-0.3,0-0.5c0.2-0.2,0-0.2,0-0.3c0,0,0.1,0,0.1-0.1c-0.3-0.1,0-0.4,0-0.4c0-0.2-0.2-0.2,0-0.3
	c-0.2-0.2,0.1-0.2-0.1-0.4c0.1-0.2,0-0.4,0.1-0.5c-0.4-0.1,0.1-0.4-0.2-0.6c0.3-0.1-0.1-0.5,0.2-0.6c0,0,0-0.1,0-0.1
	c-0.1-0.1-0.2-0.1-0.1-0.2c0,0,0.1,0,0.1,0l0-0.1c-0.2,0,0.1-0.3,0-0.4c0-0.1-0.2-0.2,0-0.3c-0.2-0.3,0.2-0.6,0-0.9
	c0.1-0.2,0.1-0.4,0-0.6c0.2-0.1-0.1-0.3,0-0.4c0.1-0.1,0.1-0.1,0-0.2c0-0.1,0.1-0.3,0-0.4l-0.1-0.4c0.1,0,0.1-0.1,0.1-0.2
	c-0.2,0,0-0.1,0-0.2c0,0,0.1-0.1,0-0.1c-0.1,0-0.1,0,0-0.1c0-0.2,0-0.3-0.1-0.5c0.2-0.2,0-0.3,0.1-0.4c-0.1,0,0-0.2,0-0.2
	c0-0.1,0.1-0.1,0-0.1c0,0-0.1,0,0,0c0-0.2,0.2-0.4,0-0.6c0-0.2,0.1-0.4,0.1-0.6c0,0,0,0,0,0c0-0.1-0.2-0.2,0-0.2
	c-0.1-0.3-0.1-0.6,0-0.9c-0.2-0.2,0.1-0.4-0.1-0.6c0.2-0.4-0.1-0.9,0.1-1.1c-0.1,0,0-0.1-0.1-0.2c-0.2-0.3,0.4-0.2,0-0.4
	c0-0.2,0-0.5,0.1-0.6h0.1c-0.3-0.1,0.2-0.3-0.2-0.3c0-0.2,0.2-0.4,0-0.7c0.1-0.2-0.2-0.5,0.1-0.7c-0.3-0.1,0.1-0.1-0.1-0.2
	c0-0.1,0.2-0.2,0-0.3c0.1,0,0.1-0.1,0.1-0.2c0-0.5,0-0.9,0-1.4c-0.1,0,0-0.1,0-0.1l-0.1-0.4c0-0.2,0.3-0.4,0-0.6c0.2,0,0-0.3,0-0.4
	c-0.2-0.1,0.1-0.2,0-0.3c0.3-0.1-0.1-0.2,0.1-0.3c-0.2-0.1,0.1-0.2,0-0.4c0,0,0.1,0,0.1-0.1c-0.3,0,0-0.3-0.1-0.4c0,0,0,0,0.1,0
	v-0.1c-0.1,0-0.1,0.1-0.1,0c0.2,0,0.1-0.2,0-0.2c0.1-0.2-0.1-0.3,0.2-0.4c-0.2-0.1,0.2-0.3-0.1-0.3c0-0.1,0.2-0.2,0-0.2
	c-0.2,0,0-0.2-0.1-0.2c0-0.1,0.2-0.2,0-0.2c0-0.3,0-0.5,0-0.8H24c0,0,0-0.1-0.1-0.1c0.1,0,0-0.2,0-0.3c-0.1,0,0-0.1,0-0.1
	c0-0.1-0.1-0.1,0-0.2c-0.1-0.1,0-0.2,0-0.4c0,0.1,0-0.1,0.1-0.1c-0.1,0-0.2-0.2-0.1-0.3h0.1c0-0.1-0.2-0.1-0.1-0.2
	c0.3-0.2-0.1-0.5,0-0.8c0,0-0.1,0,0-0.1c-0.1-0.1,0.3,0,0-0.2c-0.1-0.2-0.1-0.5,0.1-0.7c-0.2-0.1,0-0.4-0.1-0.4
	c0.2,0.1,0-0.2,0.1-0.2c-0.1-0.2,0.2-0.4-0.1-0.6c0.2,0-0.1-0.2,0.1-0.3c-0.1-0.1-0.2-0.2,0-0.3c0.3,0.1,0-0.2,0.2-0.3
	c0-0.1-0.1,0-0.2,0c0-0.1,0-0.2,0-0.4c0.2-0.1-0.2-0.3-0.1-0.4l0.1-0.1c-0.2,0.1,0-0.2-0.2-0.2c0.2-0.1,0-0.1,0.2-0.3
	c0,0-0.1,0-0.1-0.1c0-0.2,0.2-0.2,0-0.4c0.2-0.2-0.3-0.2,0-0.3c0.1-0.4-0.1-0.4,0-0.8c-0.1-0.1-0.1-0.2,0-0.3c0.3-0.1-0.3-0.1,0-0.3
	c-0.2-0.1-0.1-0.3,0-0.5c0-0.1,0-0.2,0-0.3c-0.1-0.1,0.1-0.3-0.1-0.4c0.2-0.2,0-0.3,0.1-0.5c0-0.1,0,0-0.1-0.1
	c0.1-0.1,0.2,0,0.2-0.1c-0.1,0-0.1-0.1-0.1-0.1c0-0.1-0.1-0.1,0.1-0.2c-0.1-0.2-0.1-0.5,0-0.7c0,0,0.1-0.1,0-0.1
	c-0.1,0-0.1-0.1-0.1-0.1l0.1,0c-0.2,0-0.1-0.2-0.1-0.3c0.1,0-0.1-0.3,0.1-0.2c-0.1-0.1,0-0.2-0.1-0.2c-0.1-0.3,0.1-0.2,0-0.5
	c0.1,0,0.2-0.2,0-0.1c-0.2-0.2,0.4-0.3,0.1-0.4c-0.3-0.1,0.3-0.2,0-0.3c0.1-0.1-0.1-0.3,0-0.3c-0.2-0.1,0.1-0.1-0.1-0.2
	c0,0-0.1-0.2,0-0.2l0.1,0c0-0.1-0.1,0-0.2-0.1c-0.1-0.1,0-0.2,0.1-0.3c0.3-0.1-0.2-0.2,0.1-0.4c-0.2,0,0-0.2-0.2-0.3
	c0.1-0.1,0-0.3,0.2-0.3c0-0.1-0.2-0.1-0.1-0.1c0.1-0.2-0.1-0.1,0-0.2c-0.1-0.4-0.1-0.7,0-1.1c-0.1-0.1,0.2-0.3-0.1-0.4
	c-0.1-0.1,0.3-0.1,0.1-0.2c0,0,0.2-0.2,0-0.1c-0.3,0,0.2,0-0.1-0.2c0-0.1,0.2-0.3,0-0.4c0-0.1,0-0.4,0-0.5c0,0,0-0.1,0-0.2
	c0.2-0.2-0.2-0.3,0-0.4c0-0.2,0-0.4,0-0.7c-0.4-2.1,0.3-4.3,0-6.4l0-0.1c0.1-1.4,0-2.9,0.1-4.2c-0.1-0.1,0.1-0.4,0-0.5
	c-0.1-0.4,0.2-0.6,0-1.1c0-0.9,0-1.9,0-2.7l0.1-0.9c-0.2-0.7,0.2-1.5,0-2.3c0-1,0-2-0.1-2.9c0.1-0.4,0.1-0.9,0.1-1.3
	c-0.2,0-0.1-0.2-0.2-0.2c0.3-2.8,0.3-5.6,0.2-8.4c-0.2-0.6,0.2-1.2,0-1.7h0c0-0.6-0.1-1.4-0.1-2.1c0-0.2-0.2,0.1-0.2-0.1
	c0.1,0,0.2,0,0.2-0.2c0-0.1-0.1,0.1-0.2,0.1c0.2-0.2-0.1-0.3,0.1-0.4c-0.2,0-0.1,0,0-0.1c0-0.1,0-0.3-0.1-0.4
	c0.2-0.1-0.1-0.1,0.1-0.2v-1.1l0.2-0.4c0.2,0,0.2-0.1,0.4,0c0,0.1,0.1,0,0.1,0.1c0.7,0,1.4,0,2.2,0c0.4,0,0.8,0,1.3,0
	c1.5,0.1,2.6,0,4,0c0.2-0.2,0.4,0,0.6-0.1h3.1c0.4,0,0.9,0,1.3,0c0.3,0,0.7,0,1,0c0,0,0.1-0.1,0.2,0c0.1,0,0.3,0.1,0.4,0
	c0.1-0.1,0.2,0,0.3,0c1.3-0.1,2.2,0.1,3.5,0c0.4,0.2,0.9-0.1,1.3,0c0.3-0.1,0.7,0.1,0.9,0c1-0.1,2.1,0,3,0c0.5-0.2,1,0.1,1.5-0.1
	c0.3,0.1,0.5,0,0.7,0.1c0.3-0.1,0.6,0,0.9-0.1c0.2,0,0.4,0,0.7,0c0.6-0.1,1.1,0,1.7,0.1c0.2-0.1,0.4-0.1,0.7,0
	c0.8-0.1,1.5-0.1,2.3,0c0.7-0.1,1.5-0.1,2.2,0c0.5,0,1,0,1.5-0.1c0.7,0.2,1.4,0,2.1,0.1c0.8,0.1,1.6,0,2.4,0.1
	c0.5-0.2,1.2,0.1,1.8-0.1c0.5,0.1,1.1,0,1.8,0c0.5,0,1,0,1.5,0c0.2-0.1,0.6,0.2,0.8,0c0.2,0.3,0.2-0.2,0.4,0.1
	c0.9,0.1,1.8,0,2.7-0.1c0,0,0.1,0.1,0.1,0.1c0.4,0,0.9,0,1.3-0.1c0,0.2,0.2,0,0.3,0c0.4,0,0.9,0,1.3,0c0.2,0.1,0.6-0.1,0.8,0
	c0.4-0.1,0.8-0.1,1.2,0c0.2-0.1,0.4,0,0.6,0.1c0.4,0,0.9-0.1,1.3-0.1c0.5-0.2,1.1,0.1,1.6,0c0.3,0,0.6,0,0.8,0c0.3,0,0.6,0.1,0.9,0
	c0.4,0.2,0.7,0,1.1,0.1c0.6-0.1,1.3,0.1,1.9-0.1c0,0.1,0.2,0,0.3,0c0.4,0,0.7,0,1.1,0c0,0,0,0,0.1,0c0.6,0,1.3,0,1.9-0.1
	c0.2,0.2,0.4-0.1,0.7,0.1c0.6-0.1,1.2-0.1,1.7,0.1c0.5-0.1,1.1-0.1,1.6-0.1c0.2-0.1,0.4,0,0.5-0.1c0.5,0.1,0.9,0.1,1.4,0
	c0.1,0.2,0.3,0,0.4,0c0.8,0,1.5,0,2.3,0c0.4,0,0.7,0,1.1,0c0.6,0.1,1.2-0.1,1.8,0c0.1-0.2,0.2,0.2,0.3,0c0.4-0.1,0.7,0,1.1,0.1
	c0.1-0.3,0.4,0.1,0.5-0.1c0.1,0.1,0.3,0,0.4,0.1c0-0.2,0.2,0,0.3,0c1.2,0,2.3,0,3.5,0c0.3-0.2,0.8,0.1,1.1,0c0.2-0.1,0.4,0,0.6,0
	c0.1-0.2,0.2,0.1,0.4,0c0.2,0.1,0.4,0,0.6,0c0.4,0,0.8,0,1.3,0.1c0.4-0.2,0.9,0,1.3-0.1c0.1,0.1,0.2,0,0.3,0.1
	c0.2-0.2,0.4,0,0.6-0.1c0.3,0,0.5,0,0.8-0.1c0.1,0.2,0.3,0,0.5,0.1c0.5,0.1,0.8,0,1.3,0c0.6,0,1.2-0.4,1.8-0.2
	c0.5,0,0.9,0.4,1.4,0.4c0,0,0,0.1-0.1,0c0.1,0.4,0.1,0.9,0.1,1.3L119.4,250.6z M116.9,251.7c0-0.4,0-0.8-0.1-1.2
	c0.1,0,0.1,0,0.1-0.1c-0.5,0-0.9-0.4-1.4-0.4c-0.6-0.2-1.2,0.2-1.8,0.2h-1.3c-0.2-0.1-0.4,0.1-0.5-0.1c-0.4,0-0.6,0-0.8,0.1
	c-0.2,0.1-0.4-0.1-0.6,0c-0.1-0.1-0.2,0-0.3-0.1c-0.4,0.1-0.9-0.1-1.3,0.1c-0.4-0.1-0.9-0.1-1.3-0.1c-0.2,0-0.4,0.1-0.6,0
	c-0.1,0.2-0.3-0.1-0.3,0.1c-0.2,0-0.4-0.1-0.6,0c-0.3,0.1-0.8-0.1-1.1,0c-1.3-0.1-2.4,0-3.5,0c-0.1,0-0.2-0.1-0.3,0
	c-0.1,0-0.3,0-0.4-0.1c-0.1,0.2-0.4-0.2-0.5,0.1c-0.4-0.1-0.7-0.1-1.1-0.1c-0.1,0.2-0.2-0.1-0.3,0c-0.6-0.1-1.2,0-1.9,0
	c-0.3,0-0.7,0-1,0c-0.8-0.1-1.5-0.1-2.3,0c-0.2,0-0.3,0.1-0.4,0c-0.4,0.1-0.9,0.1-1.3,0c-0.1,0.1-0.3,0-0.5,0.1c-0.5,0-1.1,0-1.6,0
	c-0.6-0.1-1.1-0.1-1.7,0c-0.2-0.2-0.4,0.2-0.7-0.1c-0.5,0.1-1.4,0-1.9,0l-0.1,0c-0.4,0-0.7,0-1.1,0c-0.1-0.1-0.2,0.1-0.3,0
	c-0.7,0.2-1.3,0-1.9,0.1c-0.4-0.1-0.7,0-1.1-0.1c-0.3,0.2-0.6,0-0.9,0c-0.3,0-0.6,0-0.8,0c-0.5,0.2-1.1-0.1-1.6,0
	c-0.4,0-0.9,0-1.3,0c-0.2,0-0.4-0.1-0.6,0c-0.4-0.1-0.8-0.1-1.2,0c-0.2-0.1-0.5,0.1-0.8,0c-0.4,0-0.9,0-1.3,0c-0.1,0-0.3,0.1-0.3,0
	c-0.4,0.1-0.9,0.1-1.3,0.1c-0.1,0-0.1-0.1-0.1-0.1c-0.9,0.1-1.8,0.1-2.7,0.1c-0.2-0.2-0.2,0.2-0.4-0.1c-0.3,0.2-0.6-0.1-0.8,0l-1,0
	l-0.5-0.2h-0.9c-0.7-0.2-1.4,0.1-2.1-0.1c-0.5,0.1-1,0.1-1.5,0.1c-0.6,0-1.5,0-2.2,0c-0.8-0.1-1.5-0.1-2.3,0c-0.2-0.1-0.4-0.1-0.7,0
	c-0.6-0.1-1.1-0.1-1.7,0c-0.2,0-0.5,0-0.7,0c-0.2,0.1-0.6,0-0.9,0.1c-0.2-0.1-0.4,0-0.7-0.1c-0.6,0.2-1-0.1-1.5,0.1c-1,0-2,0-3,0
	c-0.3,0.1-0.6-0.1-0.9,0c-0.4-0.1-0.9,0.2-1.3,0c-1.3,0.1-2.2-0.1-3.5,0c0,0-0.2-0.1-0.3,0c-0.1,0-0.3,0-0.4,0c-0.1,0-0.1,0-0.2,0
	c-0.3,0-0.7,0-1,0c-0.4,0-0.9,0-1.3,0H35c-0.2,0.1-0.4-0.1-0.6,0.1c-1.4-0.1-2.5,0-4,0c-0.4,0-0.8,0-1.2,0c-0.7,0-1.4,0-2.2,0
	c0-0.1-0.1,0-0.1-0.1c-0.2-0.1-0.3,0-0.4,0l-0.2,0.4v1.1c-0.2,0.1,0.1,0.1-0.1,0.2c0,0.1,0.1,0.3,0.1,0.4c0,0-0.1,0.1,0,0.1
	c-0.2,0.1,0.1,0.3-0.1,0.4c0.1,0,0.1-0.1,0.2,0c0,0.1-0.1,0.1-0.2,0.1c-0.1,0.2,0.1,0,0.2,0.1c0,0.7,0.1,1.5,0,2.1
	c0.2,0.5-0.2,1.2,0,1.7c0.2,2.8,0.1,5.6-0.2,8.3l0.1,0.3c0,0.2,0,0.4,0,0.6c0,0.1,0,0.3-0.2,0.2c-0.1,0.4,0,0.9,0.1,1.3
	c-0.1,1-0.1,2-0.1,2.9l0,0.2c-0.1,1-0.1,2-0.1,2.9c-0.2,0.8,0.2,1.6,0,2.3l0.1,0.9c0,0.8,0.1,1.8,0,2.8c-0.2,0.4,0.1,0.7,0,1.1
	c-0.2,0.2,0.1,0.4-0.1,0.5c0.2,1.4,0.1,2.8,0.1,4.2l0,0.1c-0.3,2,0.3,4.3,0,6.4c0,0.2,0,0.4,0,0.7c0.2,0.2-0.2,0.3,0,0.4
	c0,0,0,0.1,0,0.2c0,0.1,0,0.3,0,0.5c-0.2,0.1,0,0.3,0,0.4v0.3c0,0.2-0.1,0.2,0,0.4c0,0.1,0.1,0.2-0.1,0.2c0,0.2,0,0.4,0,0.6
	c-0.1,0.1,0.1,0.2,0,0.3l0,0.1c0,0.6,0,1.1,0,1.7c0,0.2,0,0.4-0.1,0.7c0.1,0.1,0.1,0.3,0,0.4c0,0,0,0.1,0,0.2
	c0.2,0.1,0.1,0.4,0.1,0.6c-0.1,0,0.1,0.1,0,0.2c0.1,0.3-0.3,0.5,0,0.8c0,0.1-0.2,0.1,0,0.1c0,0.3,0,0.5,0.1,0.8c0,0-0.2,0.1-0.1,0
	c0.2,0,0,0.2,0.1,0.2c-0.2,0.1,0.1,0.2-0.1,0.3c0,0.3,0,0.5,0,0.8c-0.2,0,0,0.1,0,0.2c0.1,0.1-0.1,0.1-0.1,0.1
	c0.1,0.3,0.1,0.5,0,0.8c0,0-0.2,0.2,0,0.2c0,0.5,0,1.1,0,1.6c0,0.1-0.1,0.1,0,0.2c-0.2,0.1,0.1,0.2,0,0.3c0.1,0.2-0.3,0.3,0,0.4
	c-0.1,0.3,0.1,0.6-0.1,0.9c0.2,0.5-0.1,0.7,0,1.3l-0.1,0c0.2,0.2,0.1,0.4,0.1,0.6c0.1,0.3,0.1,0.6,0,0.8c0,0,0,0.1,0.1,0.1
	c0,0.5,0,1,0,1.5c0,0.3,0,0.6,0,0.9c0,0.2-0.2,0.4,0,0.6c0,0.1,0.1,0.2,0,0.2c0,0.2,0.1,0.5,0,0.7c0,0.2-0.2,0.1,0,0.3
	c0.1,0,0,0.1-0.1,0.1c0.1,0.2-0.2,0.4,0,0.6c-0.3,0.4,0.2,0.7,0,1c0,0.7,0.1,1.5,0,2.3c0.2,0.2-0.1,0.5,0,0.8
	c-0.1,0.3,0.1,0.7-0.1,0.9c0.1,0.1,0.1,0.4,0.1,0.5c0,0.3,0,0.6,0,0.8c0,0.5,0,0.9,0,1.4c0,0.2-0.1,0.6,0,0.7
	c-0.2,0.5,0.1,0.9,0,1.4c0,0.2-0.1,0.4,0,0.5c-0.1,0.1,0.1,0.3-0.1,0.3c0.2,0.2,0.1,0.5,0.1,0.7c0,0,0,0-0.1,0
	c0,0.1,0.1,0.1,0.1,0.2c0,0.1,0,0.2-0.1,0.2c0.1,0.4,0.1,0.9,0.1,1.3c-0.1,0,0,0.1,0,0.2c-0.3,0,0.2,0.5,0,0.7c0,0.2-0.1,0.5,0,0.8
	c0,0.1,0,0.3-0.1,0.4c-0.2,0.2,0.2,0.3,0.1,0.5c0,0,0,0.1,0,0.1c-0.2,0,0,0.2-0.1,0.3c0,0.2,0.2,0.6,0,0.9c0.1,0.4,0.1,0.7,0,1.1
	c0.2,0.2-0.1,0.4,0,0.7c0.1,0,0.2,0.2,0,0.2c0,0.1-0.1,0.2,0,0.3c0.2,0.2-0.2,0.3,0,0.4c0,0.1,0.1,0.2,0,0.2c0,0.3-0.1,1,0,1.4
	c0,0.2,0,0.4,0,0.6c-0.1,0.2,0,0.3,0,0.5c-0.2,0.1,0,0,0,0.1c-0.1,0.1,0.2,0.3,0,0.4c0.2,0.1,0,0.4,0,0.5c-0.5,0.1,0.3,0.1,0,0.3
	c0.1,0.2-0.1,0.4,0,0.7c0,0.7,0.1,1.4,0,2.1c0,0.5,0,1.1,0,1.6c-0.1,0.2,0,0.3,0,0.4c0.2,0.1-0.2,0.1,0,0.2c0-0.1,0,0,0.1,0.1
	c-0.1,0.7,0,1.6-0.1,2.3c0.1,0.1-0.1,0.3,0,0.4c-0.1,0.2-0.1,0.5,0,0.7c0.1,0.1-0.1,0.3,0.1,0.4c0,0.1-0.1,0.2,0,0.2
	c0,0.2,0,0.4,0,0.6c0,0.1-0.1,0.2,0,0.3c0.1,0.2,0.1,0.4,0,0.6c0.2,0.1-0.1,0.5,0,0.7c0,0.1,0,0.2,0,0.4c0,0.2,0,0.3-0.1,0.4
	c0.1,0.1,0,0.4,0.1,0.5c0,0.2-0.1,0.3,0,0.5c-0.1,0.1,0,0.2,0,0.3c-0.1,0.2,0.1,0.4-0.1,0.6c0,0,0.1,0,0,0.1c0,0.2,0.1,0.5,0,0.7
	c0.2,0.3,0,0.6,0.1,1c0,0,0,0,0,0.1c0.1,0.2-0.2,0.4-0.1,0.4c0.1,0,0.1,0,0.1,0.1c0.1,0.1,0,0.1,0,0.2c-0.1,0.4,0,0.8,0.2,1.2
	c0.7,0,1.3,0.1,2,0.2c0.6,0.1,1.1,0.3,1.6,0.4c0.3-0.4,0.6-0.8,0.9-1.2c0.2-0.1,0.1-0.3,0.3-0.4c0.5-0.1,0.8-0.6,1.3-0.9
	c0.2-0.1,0.4-0.2,0.4-0.4c-0.4-0.6-0.4-1.2-0.8-1.8c0.1-0.3-0.2-0.6-0.1-0.8c-0.2-0.2,0-0.4,0-0.5c0,0-0.1,0-0.1-0.1
	c0-0.2,0-0.4,0-0.7c0.2-0.1-0.1,0-0.1-0.1c0.2-0.1-0.1-0.2,0-0.4c-0.1-0.4,0-0.8,0.2-1.1c0-0.3,0-0.6,0.1-0.9c0-0.1,0-0.2,0.1-0.3
	c-0.1-0.1,0.2-0.4,0.1-0.7c0.3-0.1-0.1-0.2,0.1-0.3c-0.1-0.4,0.3-0.4,0.4-0.7c0-0.2,0.2-0.3,0.2-0.4c0.2-0.1,0.3-0.4,0.4-0.6
	c0.1,0,0,0,0-0.1c0.2-0.2-0.1,0-0.2-0.1c0.2-0.1,0.1-0.2,0.3-0.3c0.3-0.2,0.6-0.4,0.8-0.7c0.4-0.2,0.4-0.6,0.8-0.8
	c0.5,0.1,0.6-0.6,1.1-0.7c0-0.8,0.1-1.5,0.2-2.3c0.7-0.5,0.8-1.2,1.3-1.8c0.1-0.4-0.4-0.4-0.5-0.7c0.3-0.2-0.1-0.3-0.2-0.5
	c-0.2,0.1,0-0.1-0.2-0.2c0-0.3-0.3-0.2-0.4-0.5h0c-0.1,0,0-0.1,0-0.2c-0.1-0.1-0.3-0.2-0.3-0.4c-0.3-0.1-0.2-0.4-0.4-0.5
	c0-0.1,0-0.3,0.1-0.3c-0.3-0.6-0.4-1.2-0.7-1.8c-0.1-0.3,0.1-0.5-0.1-0.7c0-0.3,0-0.6,0-0.8c-0.3-0.1,0.2-0.4-0.2-0.3
	c0.1-0.4,0-0.8,0.2-1.3c-0.1-0.1-0.1,0-0.1,0c0-0.1-0.1-0.1,0-0.1c0.1-0.3-0.1-1,0.3-1.1c-0.2-0.1,0.1-0.2-0.1-0.2
	c0-0.1,0-0.2,0.1-0.3c0-0.3,0.2-0.4,0.1-0.7c0.1-0.1,0.1-0.2,0.1-0.3c0.1-0.2,0-0.5,0.3-0.7c-0.2-0.2,0.2-0.3,0.1-0.5h0.1
	c0-0.1,0.1-0.1,0-0.2c0.2-0.1,0.2-0.3,0.2-0.5c0.1-0.1,0-0.4,0.2-0.4c-0.1-0.3,0.1-0.4,0.2-0.6c0.1,0,0-0.2,0.2-0.3
	c0.5-0.4,0.5-0.9,1-1.4c0.1-0.1,0.2,0,0.2-0.1c-0.2-0.1,0.2-0.2,0.2-0.3c0,0,0,0,0,0c0.1,0,0.1,0,0.1,0c0-0.1,0.1,0,0.1,0
	c-0.2-0.1,0.2-0.1,0-0.2c0.1-0.1,0.2,0,0.2-0.1c0,0,0-0.2,0.1-0.1v0c0.1,0.1-0.1-0.2,0.1-0.2c0.3-0.2,0.6-0.5,0.9-0.8
	c0.8-0.6,1-1.5,2.1-1.7c0.2-0.1,0.3-0.2,0.4-0.3c0.4-0.3,0.8-0.5,1.2-0.6c0.4-0.2,0.8-0.4,1.2-0.6c0.9-0.6,2-0.5,2.9-1
	c0-0.1,0-0.2,0-0.3c0.2-0.8,0.1-1.8,0.2-2.7c-0.1-1.6,0.1-3,0.2-4.4c0.1-0.6,0.1-1.2,0.1-1.9c0.3-2.2,0.1-4.2,0.4-6.5
	c0.1-0.9,0.1-1.7,0-2.6c0.2-0.6,0.2-1.2,0.2-1.8c0.1-0.2,0.1-0.4,0.1-0.6c-0.1,0-0.3,0.1-0.4,0c0.2-0.1,0.2-0.3,0.4-0.3l-3.1-0.9
	c-0.7-0.1-1.3-0.3-2-0.6c0.2-0.4-0.1-0.5-0.1-0.9c-0.4-0.3,0.3-0.4,0.5-0.7c0.8-0.5,1.7-1,2.4-1.6c0.6-0.4,1.2-0.7,1.6-1.1
	c0.3,0,0.5-0.4,0.8-0.6c0.3,0,0.3-0.4,0.6-0.4c0.5-0.4,0.9-0.7,1.5-0.9c0.8-0.6,1.8-1.2,2.6-1.9c0.5-0.3,1.1-0.7,1.5-1.1
	c0.4,0,0.6-0.4,0.9-0.6c0.3,0,0.3-0.4,0.6-0.3c0.4-0.4,1.1-0.7,1.6-1.1c0,0.1,0,0,0,0c0,0,0.1,0,0.1,0c0.1-0.3,0.4-0.5,0.7-0.5
	c0.9-0.7,2-1.4,2.9-2.1c0.4-0.4,0.9-0.6,1.3-0.9c0.7-0.4,1.4-0.9,2-1.4c0.1,0,0.1-0.2,0.2-0.2c0.1-1-0.1-1.7,0-2.6
	c-0.3-0.1-0.6-0.2-1-0.2c-0.2,0.1-0.4-0.1-0.7-0.1c-0.1-0.2-0.4-0.2-0.3-0.4c-0.2,0-0.2-0.3-0.4-0.3c0-0.2-0.1-0.4,0-0.7
	c2.2-1.3,4.4-2.9,6.5-4.4c-0.1-0.6,0.2-1.3,0.7-1.7c0.7-0.1,0.5-1,0.6-1.4c0.2-0.2-0.1-0.5,0.2-0.7c0-0.2-0.1-0.5,0-0.7
	c0.1-0.4,0.2-0.7,0.2-1.1c0-0.5,0.1-1,0.1-1.4c-0.1-0.1,0.1-0.2-0.1-0.2c0.1-0.1,0.1-0.3,0.3-0.2c0.1,0.1,0.1,0.2,0,0.3
	c0.5,0-0.3,0.2,0.2,0.3c0,0.1,0,0.4,0.1,0.4c-0.2,0.2,0.2,0.5,0.1,0.8c0.1,0.3-0.1,0.3,0.1,0.6c0.1,0.1,0,0.4,0,0.3
	c0,0.2,0.2,0.4,0.1,0.6c0,0.3,0.1,0.6,0.2,0.9c0,0.1-0.1,0-0.1,0c0.1,0.1,0.1,0.3,0.1,0.4c-0.3,0.2,0.2,0.1,0,0.4
	c-0.1,0.6,0.6,0.7,0.8,1.1c0.1,0.2,0.2,0.4,0.4,0.6c-0.1,0.2,0.2,0.3,0.1,0.6c-0.1,0.1-0.2,0.2-0.2,0.4c0.4,0.3,0.9,0.7,1.4,0.9
	c0.5,0.6,1.4,0.9,2,1.5c0.6,0.4,1.4,1,2,1.4c0.3,0.2,0.8,0.8,1.3,0.6l0,0.1c-0.2,0,0,0.2,0,0.3c0,0.2-0.2,0-0.2,0.1
	c0.2,0.1-0.2,0.2-0.3,0.6c-0.4,0-0.8,0.1-1.1,0.4c-0.3-0.1-0.4,0.3-0.7,0.3c-0.2,0.8,0.1,1.5,0,2.2c-0.1,0.1,0.1,0.1,0,0.2
	c0.1,0.1,0.2,0.2,0.3,0.2c0.3,0.2,0.6,0.4,0.9,0.7c0.6,0.1,0.8,0.7,1.3,0.9c0,0,0,0,0,0c0,0.1,0.1,0.2,0.3,0.2
	c0.7,0.6,1.5,1,2.2,1.7c0.5,0.3,0.9,0.6,1.4,0.9c0.2,0.3,0.5,0.2,0.7,0.5c0.1,0.1,0.3,0.2,0.4,0.3c0.5,0.2,0.7,0.6,1.1,0.7
	c0.6,0.5,1.2,1,1.8,1.4c0.3,0.2,0.6,0.4,1,0.6c0.4,0.5,1,0.7,1.4,1.1c0.6,0.3,1.1,0.8,1.6,1.1l1.3,0.9c0.2,0,0.2,0.2,0.4,0.2
	c0.2,0.2,0.6,0.3,0.7,0.6c1.6,1,3.1,2.2,4.7,3.3c0.4,0.3,0.2,0.3,0.5,0.6c0.1-0.1,0,0.2-0.1,0.3c-0.1,0.1,0.1,0.1-0.1,0.2
	c-0.2,0,0-0.1-0.2-0.1c0.1,0.3-0.3,0.3-0.3,0.5c-0.4,0.4-0.6-0.4-1.1-0.1c-0.3,0.1-0.7,0.2-1,0.3c-0.6,0.2-1.1,0.3-1.7,0.4
	c0,0,0,0.1,0,0.1c0.2,0.2,0.1,0.5-0.1,0.7c-0.1,0.2,0.1,0.3-0.1,0.4c0.2,1.4,0.2,2.9,0.4,4.3c0,0,0.1,0.1,0,0.2
	c0.2,6.9,0.6,14.3,1,21.3c-0.1,2,0.3,3.9,0.2,5.8c0.2,1,0.1,2.1,0.3,3.1c0,1.8,0.2,3.5,0.2,5.4c0,0,0,0.1,0.1,0.1c0-0.1,0,0,0.1,0
	c0.2-0.1,0.4,0.1,0.6,0.1c0.1,0.1,0.4,0.1,0.3,0.3c0.2,0.1,0.5,0,0.7,0.2c0.1,0.1,0.2,0.1,0.3,0c0,0.2,0.4,0,0.3,0.2
	c0,0-0.1-0.1,0.1-0.1c0,0,0.1,0.1,0,0.1c0.1-0.2,0.3,0.2,0.5,0.1c0.1,0.2,0.3,0.2,0.5,0.3c0.1,0,0.2,0.1,0.2,0.1
	c0.3,0.1,0.7,0.3,1,0.4c0.1,0.1,0.2,0.2,0.4,0.2c0.2,0,0.3,0.3,0.4,0.3c0.1-0.1,0.1,0.1,0.2,0.1c0.1,0.1,0.2,0.2,0.3,0.2
	c0.2,0.1,0.2,0.3,0.4,0.3c0.2,0.3,0.5,0.5,0.8,0.7c-0.2,0.2,0.1,0,0.1,0.2c0.3,0.1,0.4,0.3,0.7,0.5c0,0,0,0.2,0,0.1
	c0.6,0.4,1,0.9,1.3,1.5c0.4,0.6,0.9,1.2,1.4,1.7c0.3,0.4,0.5,0.9,0.7,1.3c0.1,0.6,0.6,0.9,0.5,1.6c0.3,0.7,0.5,1.5,0.5,2.3
	c0.2,0.1-0.1,0.4,0.2,0.5c-0.1,0.5,0.1,1-0.1,1.5c0,0.1,0.2,0.2,0,0.3c0.1,0.8,0.1,1.5,0.1,2.3c0,0.3-0.1,0.6-0.1,0.9
	c-0.1,0.7-0.2,1.4-0.4,2c-0.4,0.9-0.8,1.8-1.3,2.7c-0.4,0.6,0.3,0.7,0.5,1.1c0.8,0.6,1.2,1.4,1.3,2.4c-0.1,0.7,0.8,0.8,1,1.3
	c0.1,0.1,0.2,0.2,0.2,0.4c0.3,0.2,0.4,0.5,0.6,0.7c0,0.3,0.3,0.5,0.4,0.8c-0.3,0.2-0.2,0.4-0.2,0.6c0.3,0.4,0.7,0,1-0.1
	c0-0.1,0-0.2,0.1-0.1c0.2-0.1,0.4-0.3,0.7-0.3c0-0.1,0-0.1,0.1-0.2c0.3,0,0.4-0.3,0.8-0.2c0.5-0.4,1.3-0.3,1.9-0.3
	c0-2.5,0-5.1,0-7.7c0-0.9-0.1-1.8,0-2.7c-0.2-2.7,0.1-5.2-0.1-7.8c0-2.3,0-4.4,0-6.5c0-0.6,0-1.2,0.1-1.8c-0.1-1.1-0.1-2.2-0.1-3.3
	c0.1-1.3-0.2-2.5,0-3.8l0,0c0.1-0.3-0.1-0.7,0-1.1c-0.1-0.3,0.1-0.6,0-0.9c0.1-1.1,0.1-2.2,0-3.4c0.2-0.3-0.1-0.8,0.1-1.1
	c-0.1-1-0.1-2,0-2.9c0.1-0.1,0.1-0.3,0-0.4c0.1-1.8,0-3.3,0-5c0-0.1,0-0.1,0-0.1c-0.2-1.2,0.1-2.5,0-3.8c0.1,0,0.1-0.1,0-0.1
	c0.2-0.2-0.1-0.6,0.1-0.8c-0.1-3.3,0-6.5-0.1-9.8c0.1-1.2,0-2.1,0.1-3.3h0c0,0,0.1-1.5,0.1-1.5v-1.2c0-0.7,0-1.3,0-2
	c-0.1-0.1,0.1-0.1,0-0.2c0-0.3,0-0.6-0.1-0.9c0.1-0.4-0.1-0.9,0-1.3c0-0.2,0-0.4-0.2-0.4c-0.1-0.2,0-0.1,0.2-0.1
	c0.1-0.1,0-0.3,0.1-0.4c0-0.4-0.2-0.9,0-1.3c-0.1-1,0-2.4-0.1-3.5c0.1-0.1,0.1-0.3,0-0.4l0-2.2c0.2-0.7-0.2-1.4,0.1-2.1
	c-0.1-0.2,0-0.6-0.1-0.8c0-1.4,0-2.9,0.1-4.4c0-0.4,0-0.7,0-1.1c0-0.1-0.1-0.3,0.1-0.4c-0.1-0.4-0.1-0.8,0-1.1v-9.7
	c0-0.3,0.1-0.6,0-0.8v-0.8c-0.3-0.3-0.3-0.7-0.1-1.1c-0.1-0.2-0.1-0.4,0-0.6c0.1-0.2,0-0.3-0.2-0.4c0.3,0,0-0.2,0.1-0.3
	c-0.2-0.2,0.1-0.4-0.1-0.6c0-0.4,0.1-0.7,0.2-1.1c0-0.1-0.2-0.2-0.2-0.2v-0.1c0.2,0,0-0.1,0-0.2c0.3-0.1,0-0.2,0-0.3
	c0.2-0.1,0.1-0.3,0.1-0.6c-0.2,0,0-0.1,0-0.2c-0.1,0-0.1-0.1-0.1-0.1c0,0,0-0.1,0.1-0.1c0-0.2,0-0.6-0.1-0.6c0-0.1,0-0.2,0.1-0.2
	c0-0.2,0.1-0.5,0-0.7c0.1-0.2,0-0.3,0-0.4c0.3-0.3-0.2-0.6,0.1-0.9c-0.3-0.1,0.2-0.3-0.1-0.4L116.9,251.7z M116.9,251.7"/>
<path class="st1" d="M114.8,385.9c-0.4-0.3-0.6-0.9-1.1-0.9c-0.2-0.1-0.6,0.2-0.8-0.1c0.1-0.5-0.2-0.9-0.7-1.1
	c-0.7-0.4-1.4,0.2-2,0.3c-0.1,0.1-0.4,0.1-0.6,0.2c-0.3,0.3-0.8,0.4-1.2,0.3c-0.3-0.2-0.2-0.5-0.1-0.8c0.2-0.3,0.4-0.6,0.6-0.9
	c0.2-0.4-0.3-0.4-0.5-0.6c-0.2-0.6-1-0.4-1.2-0.9c-0.2-0.1-0.3-0.4-0.5-0.3c-0.5-0.3-1.2,0.5-1.2-0.2c-0.2-0.1-0.2-0.4-0.6-0.5
	c-0.5-0.2-1-0.2-1.5,0.2c-0.5,0.3-0.8,0.8-1.4,1c-0.3,0-0.6-0.1-0.9-0.2c-0.1-0.6-0.4-1.1-0.9-1.4c-0.2-2.3-0.3-4.4-0.3-6.7
	c-0.2-1.6-0.1-3.2-0.4-4.8c0.1-0.6,0-1.2-0.2-1.8c-0.1-2.7-0.2-5.3-0.4-8.1c-0.5-7.1-0.8-14.2-1.1-21.4c0.9,0.1,1.9,0.3,2.7,0.7
	c0.4,0.2,0.7,0.3,1.1,0.6c0.8,0.5,1.7,1,2.4,1.7c0.2,0.4,0.8,0.5,1.1,0.9c0.2,0.2,0.4,0.3,0.6,0.5c0.3,0.3,0.6,0.7,0.9,1.1
	c0.4,0.5,0.7,1,0.9,1.6c0.6,1.8,1.1,3.6,1.5,5.4c0.2,1,0.2,2,0.2,3c0,0.3,0,0.6,0,0.9c-0.2,0.2-0.1,0.5-0.2,0.7
	c-0.3,1.3-0.8,2.5-1.5,3.7c0,0.3-0.4,0.5-0.3,0.8c-0.2,0.1-0.1,0.5-0.2,0.6c0,0,0,0.1,0,0.2c0.1,0.1,0,0.4,0.2,0.4
	c0.4,0,0.4,0.4,0.7,0.5c0.4,0.2,0.7,0.6,0.9,1c0.1,0.3,0.2,0.6,0.2,0.9c-0.1,0.4,0.2,0.9,0.6,1c0.3,0.3,0.6,0.6,0.9,1
	c0.4,0,0,0.4,0.3,0.5c0.2,0.7,0.2,1.5,0.3,2.2c-0.1,0.2,0.1,0.4,0.2,0.6c0.6,0.3,1.2,0.4,1.9,0.2c0.4,0,0.3-0.4,0.5-0.7
	c0.7-0.7,1.7-1.1,2.7-1c0.2,0,0.4,0,0.6,0c0.2,1.4,0,2.9,0.1,4.3c0,1,0.1,1.9,0,2.9c0,0.2,0.1,0.4,0.1,0.6c-0.1,0.4,0,0.9-0.1,1.3
	c0.1,2.4,0,4.6,0.1,7c0.2,0.6-0.1,1.2,0.1,1.8c-0.1,0.5,0.1,1.1-0.1,1.6c0,0.2,0.2,0.6-0.3,0.4c-0.1,0.1-0.2,0-0.3,0.1
	c-0.3,0.2-0.6,0.5-1,0.4c-0.3-0.2-0.5-0.4-0.6-0.7C114.9,386,114.8,386,114.8,385.9L114.8,385.9z M27,385.8c-0.1,0.1-0.3,0.1-0.3,0
	c-0.1-0.3,0-0.8-0.1-1.1c-0.1-0.5,0.1-0.7,0.1-1.2h0c-0.1-1.1-0.1-2.1,0-3.2c-0.1-0.1-0.1-0.3-0.1-0.5c-0.1-0.3,0-0.6-0.1-0.9
	c0.2-0.1,0-0.2,0-0.3c-0.2-0.1,0.2-0.2-0.1-0.2c0.1-0.3,0.1-0.7,0.1-1c0.1-0.2-0.2-0.4,0-0.7c-0.1-0.3-0.1-0.7,0-1
	c0.1-0.2-0.4-0.2,0-0.4c-0.1-0.1,0-0.1-0.1-0.3c0-0.2,0-0.4-0.1-0.7c0.2-0.1-0.2-0.1,0.1-0.3c-0.1-0.4,0-0.8-0.1-1.2
	c0.1,0,0.1,0,0.1-0.1c0-0.2-0.1-0.4-0.1-0.6c0,0,0.1,0,0.1-0.1c-0.1,0,0-0.2-0.1-0.2c0.1,0,0.1,0,0.1-0.1c-0.2-0.2,0-0.5-0.1-0.7
	c0.2-0.3-0.1-0.8,0.1-1.1c-0.1-0.1-0.1-0.2,0-0.3c0-0.2-0.2-0.4,0-0.4c-0.1-0.1,0-0.3,0-0.3c0-0.1-0.2-0.2,0-0.3
	c-0.1-0.1-0.1-0.2-0.1-0.3c0,0,0.1,0,0.1,0c0-0.1-0.2,0-0.1-0.1c0.2-0.1-0.1-0.4,0-0.5c-0.2-0.2,0.2-0.2,0-0.4c0-0.1,0-0.3-0.1-0.4
	c0.1-0.3,0.1-0.6,0.1-0.8c-0.1-0.5,0-0.9,0.1-1.4c-0.3-0.1,0.1-0.2-0.1-0.2c0-0.1,0.1-0.2,0.1-0.3c-0.1,0-0.1,0-0.1-0.1
	c0.1,0,0.1-0.1,0.1-0.1c0.1-0.4-0.1-0.8,0-1.2c-0.3-0.1,0.2-0.3-0.1-0.5c0.1-0.3-0.1-0.6,0.1-0.9c-0.1,0,0-0.1,0-0.2
	c-0.2-0.4-0.2-0.8,0-1.2c-0.2,0,0-0.1-0.1-0.2c0,0,0.1-0.1,0-0.1c0.1-0.4,0.1-0.9,0-1.3c0.2-0.3-0.3-0.7,0.2-0.9
	c0.1,0.1,0.2,0,0.2,0c0.9,0,1.8,0.2,2.6,0.5c0.1,0.1,0.4,0,0.5,0.3c0.3-0.1,0.5,0.2,0.7,0.1c0,0,0.1,0.1,0.1,0c0.1,0,0.6,0,0.7,0
	c0.4-0.2,0.3-0.7,0.5-1.1c0.1-0.5,0.6-0.8,0.9-1.3c0.2,0,0.2-0.3,0.4-0.4c0.4-0.2,0.8-0.5,1.3-0.7c0.2-0.3,0.4-0.6,0.4-1
	c-0.5-0.4-0.4-1-0.7-1.5c-0.4-1.3-0.5-2.6-0.4-3.9c0.1-0.3,0.2-0.6,0.3-1c0.2,0.1,0.4,0,0.2,0c-0.2-0.5,0.3-0.9,0.2-1.2
	c0.2-0.5,0.5-1,0.7-1.5c0.4-0.5,0.9-1,1.4-1.5c0.1-0.2,0.4-0.3,0.6-0.4c0.1,0,0.1-0.1,0.2-0.1c0.2,0,0.4-0.1,0.6-0.2
	c0.3-0.6-0.1-1.2,0.2-1.7c0.1-0.7,0.1-1.6,0.8-2.1c0.3-0.3,0.6-0.4,0.7-0.9c-0.1-0.3,0.1-0.6-0.2-0.7c-0.4-1-1.5-1.7-2-2.7
	c-0.2-0.3-0.3-0.6-0.4-0.8c-0.2-0.7-0.4-1.4-0.5-2.1c0.1,0,0-0.1,0-0.1c-0.1-1.4,0-2.8,0.4-4.1c0.1-0.2,0.3-0.4,0.2-0.7
	c0.3-0.1,0-0.3,0.1-0.4c0.2-0.8,0.6-1.6,1-2.3c-0.1-0.2,0.2-0.2,0.2-0.4c0.2-0.3,0.4-0.5,0.5-0.8c0.2,0,0.3-0.1,0.3-0.2
	c0,0,0.2-0.2,0.2-0.3c0.1,0,0.2-0.1,0.2-0.2c-0.1-0.2,0.3-0.2,0.2-0.4c0.2,0,0.2-0.2,0.3-0.2c0.2-0.2,0.4-0.4,0.7-0.5
	c-0.1-0.1,0.2-0.1,0.3-0.1c0-0.2,0.3-0.2,0.4-0.4c0,0,0.1,0,0.1,0c0,0-0.1-0.1,0-0.1c0.1,0.2,0.2-0.2,0.3-0.2c0-0.2,0.4-0.1,0.3-0.4
	c0.3,0,0.3-0.3,0.6-0.4c0-0.2,0.4-0.1,0.4-0.3c0.4-0.3,0.9-0.4,1.4-0.5c0.2-0.2,0.1,0.2,0.3,0c0.2-0.3,0.4-0.3,0.8-0.4
	c0.4-0.2,0.9-0.3,1.4-0.5c0.3,0,0.3-0.1,0.5-0.1c-0.1,0.8,0,1.5-0.1,2.3c-0.2,0.1,0.1,0.3-0.1,0.4c0,0.2-0.1,0.4,0,0.7
	c-0.1,0.5,0.1,1.1-0.1,1.7c-0.1,1.4,0,2.7-0.2,4c0.1,0.7-0.1,1.4-0.1,2.1c0.1,0.3-0.2,0.6,0,0.9c0,0.4,0,0.7-0.1,1.1
	c-0.1,0.4,0.1,0.8-0.1,1.2c0.1,0.5,0,1-0.1,1.5c0.1,0.2-0.1,0.3,0,0.4c-0.1,0.4-0.1,0.7,0,1.1c-0.1,0.3,0.1,0.7-0.1,0.9
	c0.1,1-0.2,2.1-0.1,3.1c0.1,1-0.3,1.9-0.1,2.9c-0.1,0.2,0,0.4-0.1,0.6c0,0.3,0,0.5-0.1,0.8c0.2,0.6-0.1,1.4,0,1.9
	c-0.1,0.3,0,0.7-0.1,1c0.1,1-0.2,1.8-0.1,2.9c0,0,0.1,0,0.1,0.1c-0.1,0.3-0.2,0.7-0.1,1c-0.1,0.7-0.1,1.4-0.1,2.1
	c0.1,0.1-0.1,0.2,0,0.2c0.1,0.2,0,0.5-0.1,0.7c0,0,0.1,0,0.1,0c0,1-0.2,1.7-0.2,2.8c0.1,0.1,0,0.2,0,0.3c0,0.9-0.1,1.7-0.1,2.5
	c0.2,0.1-0.1,0.1,0,0.2c0,0.5,0,0.9-0.1,1.4c-0.1,0.7,0.1,1.2-0.1,1.7c0.1,0,0.1,0.1,0,0.2c0,0.4-0.1,0.7-0.1,1c0,0.1,0.1,0.3,0,0.4
	c0,0.5,0,1-0.1,1.5c0.2,0.3-0.2,0.6,0,0.8c-0.1,0.2,0,0.4-0.1,0.4c0.1,1.1-0.2,1.9-0.1,2.9c-0.1,0.1,0,0.4-0.1,0.6
	c-0.1,0.5-0.1,1-0.1,1.5c0,0.1,0,0.3,0,0.4c0,0.1-0.2,0.2,0,0.2c-0.1,0.2,0,0.4-0.1,0.6c0.1,0.2-0.1,0.3,0,0.5
	c-0.1,0.2,0.1,0.4,0,0.7c0,0.2-0.2,0.5,0,0.6c-0.2,0.2,0,0.4-0.1,0.6c-0.1,0.6,0,1.2-0.2,1.9c-0.3,0.1-0.6,0.3-0.9,0.6
	c-0.1,0.2-0.4,0.4-0.4,0.7c-0.2,0.1-0.2,0.4-0.1,0.6c0.2,0.2,0.1,0.5,0.1,0.7c-0.4,0.6-1.3,0.2-1.8,0.3c-0.4-0.1-0.9,0-1.3,0.2
	c-0.2,0.2-0.5,0.5-0.4,0.8c0.2,0.1,0.2,0.2,0.2,0.3c-0.3,0.6-1.3,0.4-1.9,0.4c-0.3-0.3-0.6,0-0.9,0c-0.5,0.2-1,0.5-1.5,0.8
	c-0.4,0.2-0.7,0.5-0.9,0.9c-0.4,0.2-0.4,0.9-1,0.8c-0.1,0.1-0.1,0.1-0.2,0.1l0,0c0,0.1-0.2,0.1-0.1,0.2c-0.2,0.1-0.2,0.3-0.6,0.3
	c-0.4,0.1-0.7-0.2-1-0.1c-0.1,0-0.1-0.1-0.2,0c0,0.2-0.2,0-0.3,0.2c-0.3,0-0.7,0.2-0.9,0.4c-0.3-0.1-0.2,0.2-0.5,0.3
	c-0.5,0.1-0.9-0.2-1.3,0.1c-0.3,0.2-0.3,0.4-0.7,0.5C27.9,385.8,27.4,385.7,27,385.8L27,385.8z M27,385.8"/>
<path class="st2" d="M55.3,312.4c0.1-1.1-0.1-2.2-0.1-3.3c0-0.7,0-1.5,0.1-2.2c0-0.1-0.1-0.2-0.1-0.4c0.1-0.4,0.1-0.8,0.1-1.3
	c0,0,0,0,0,0c0,0,0.1-0.1,0-0.2c0-0.6,0-1.1,0-1.7c0-0.6,0-1.2,0-1.9c0.1-0.1,0-0.4,0.1-0.5c0-0.1-0.1-0.2,0-0.3c0-0.3,0-0.7,0-1
	c0.1-0.5,0.3-1,0.5-1.4c0.2-0.2,0.6-0.4,0.6-0.7l0.1,0c-0.1-0.1,0.1-0.2,0.1-0.3c0.4-0.4,0.9-0.8,1.5-1c0.1-0.4,0.6-0.2,0.8-0.4
	c0.2-0.1,0.4-0.3,0.6-0.3c0.2,0.2,0.2-0.2,0.5-0.1c0.4-0.2,0.9-0.3,1.3-0.3l0.1-0.1c0.2,0.1,0.5,0.2,0.8,0.2c0.3,0,0.4,0.3,0.7,0.3
	c0.2,0,0.1,0.3,0.4,0.3c0.2,0.4,0.9,0.6,1,1.1c0.1,0.4,0.2,0.7,0.3,1.1c0.2,0.2,0,0.6,0.1,0.8c-0.1,1.3,0.1,2.5,0,3.8
	c0.2,0.4,0,0.7,0.1,1.2c-0.1,0.2,0,0.4-0.1,0.7c0.1,0.8,0,1.3,0,2.1c0.1,1.1,0,2.5,0,3.9c-0.5,0.2-1,0.3-1.5,0.3
	c-0.3,0.3-0.7,0-0.9,0.3c-0.5,0.1-1,0.3-1.6,0.3c-0.3,0.1-0.7,0.2-1.1,0.2c-0.7,0.3-1.5,0.4-2.3,0.6c-0.7,0.2-1.4,0.3-2.2,0.5
	C55.3,312.6,55.3,312.5,55.3,312.4L55.3,312.4z M55.3,312.4"/>
<path class="st3" d="M86.2,311.9c0.2-0.9,0-1.7,0.1-2.7c-0.1-1.4,0.1-3,0-4.3c0,0,0.1-0.1,0-0.1c-0.1-1-0.1-2,0.1-3
	c-0.1-0.1,0-0.3,0-0.5c0-0.4,0-0.7-0.1-1.1c0,0,0,0,0-0.1c0-0.7-0.1-1.4-0.2-2c-0.1-0.1-0.2-0.3-0.2-0.5c-0.1-0.3-0.3-0.6-0.4-0.9
	c0.4,0.4,0.8,0.8,1.1,1.3c0.2,0.5,0.4,0.9,0.5,1.4c0.2,0.3-0.2,0.6,0.1,0.8c0,0.1-0.1,0.1,0,0.1c0.2,0.1,0.1,0.3,0.1,0.4
	c0.1,1.2,0.1,2.3,0.1,3.5l0,6.1l0,0.1c0,0.5,0,1,0.1,1.5c0,0.4-0.4,0.2-0.6,0.2C86.6,312,86.3,312.1,86.2,311.9L86.2,311.9z
	 M50.1,303.9c0-0.4,0-0.9,0.3-1.1c0.4-0.1,0.6-0.3,0.9-0.2c0.6-0.3,1.1-0.3,1.6-0.6c0.1,0.4,0.1,0.9,0,1.3c-0.9,0.3-1.8,0.6-2.8,0.9
	C50.1,304.1,50.1,304,50.1,303.9L50.1,303.9z M50.1,303.9"/>
<path class="st4" d="M96.1,380.4c-0.9-0.2-1.7-0.6-2.5-1.1c-0.1-0.8,0-1.6,0.2-2.4c-0.3-0.1,0.1,0,0-0.2c-0.1-0.2,0.1-0.4-0.1-0.6
	c0.1-0.3,0.1-0.6,0-0.8c0.2-0.4,0.2-0.8,0-1.2c0.1-0.1,0.1-0.3,0.1-0.4c0.1-0.5,0.1-1.1,0.1-1.6c0.2-0.2,0.4-0.6,0.8-0.4
	c0.1,0.1,0.4,0,0.6,0.1c0.2-0.1,0.2,0,0.3,0.1c0.4,0,0.8,0,1,0.3l0.4,1.4c0.3,2.3,0.5,4.6,0.5,6.9c-0.1,0-0.1,0.1-0.2,0.2
	L96.1,380.4z M88.2,378.9c-0.4,0-0.3-0.4-0.5-0.5c0-0.3,0.1-0.7,0.2-1c-0.1,0,0,0,0,0c0.1-0.1,0-0.3,0.2-0.4
	c0.2-0.2,0.2-0.5,0.3-0.6c0-0.2,0.2-0.3,0.2-0.5c0.2,0,0-0.1,0.1-0.2c0.1-0.2,0.2-0.5,0.2-0.7c0.1,0,0.1-0.1,0.1-0.1
	c-0.1,0,0-0.1,0-0.1c0.1,0,0.1-0.2,0.2-0.3c0.4-0.9,1.1-1.7,1.5-2.6c0.1-0.3,0.4-0.4,0.4-0.7c0-0.2,0.3-0.4,0.2-0.6
	c0.1-0.1,0.2-0.1,0.2-0.1c0.4,0.1,0.7,0.4,1.1,0.5c0,0.1,0.2,0.1,0.1,0.3c0.1,1.1,0.1,2.1-0.1,3.2c0.1,0.1,0,0.2,0,0.3
	c0.2,0.1-0.2,0.2,0,0.3c-0.2,0.3,0,0.6-0.2,0.8c0,0.5-0.1,1-0.3,1.5c0.1,0.1-0.1,0.2,0,0.4c-0.1,0.4-0.1,0.8-0.3,1.2
	c-0.9,0.6-2.1,0.3-3.1,0.2C88.6,379,88.4,379,88.2,378.9L88.2,378.9z M83.6,378.4c-0.5,0-0.9,0-1.4-0.1c-0.3-0.1-0.5-0.3-0.8-0.3
	c-0.2,0.1-0.2-0.2-0.4-0.1c-0.1-0.2-0.3,0-0.5-0.1c-0.8,0-1.5-0.2-2.2-0.5c-0.3-0.4-0.1-1,0.2-1.3c0.1-0.1,0.5-0.5,0.4-0.6
	c0.8,0.1,1.7,0.1,2.5,0.1c0.3,0,0.6,0,0.9,0c1.4,0,2.8-0.2,4.1-0.4c0.4,0.1,1-0.1,1.2,0.2c0,0.8-0.3,1.6-0.7,2.2
	c-0.1,0.4-0.4,0.7-0.7,1c0,0.1-0.1,0.1-0.2,0.1C85.3,378.5,84.4,378.6,83.6,378.4L83.6,378.4z M74.8,377.9c-0.2,0-0.3,0-0.5,0
	c-0.3,0-0.6-0.1-0.9-0.2c-0.3-0.5-1.1-0.5-1-1.1c-0.1,0-0.2-0.1-0.1-0.1c0.1-0.1,0-0.3,0-0.4c0.1-1.1,0.1-2.5,0.1-3.7
	c-0.2-0.3,0.1-0.6,0-0.8c0.1-0.3,0.3-0.6,0.6-0.9c0.9-0.1,1.8-0.1,2.7,0c0.3,0.2,1.1-0.1,1,0.5c-0.1,0.3,0,0.7,0.1,1
	c0,1.2,0,2.3-0.1,3.5c-0.1,0.7,0.1,1.5-0.5,2c-0.1,0-0.2,0-0.3,0.1c-0.1-0.1-0.3-0.1-0.4,0C75.2,377.8,75,378,74.8,377.9L74.8,377.9
	z M80.9,375.1c-0.6-0.1-1.1-0.1-1.7-0.1c-0.5-0.2-0.9-0.2-1.2-0.6c0-0.4-0.2-0.8,0-1.2c-0.1-0.8,0.1-1.6,0-2.4
	c-0.1-0.2,0.2-0.3,0.3-0.5c0.1-0.4-0.1-0.8,0.2-1.1c-0.1-0.2,0.2-0.3,0.3-0.5c0.2,0,0.4-0.1,0.6-0.2c0.5,0,1.4,0.2,1.5,0
	c0.9,0.1,1.7,0.4,2.5,0.7c0.1,0.4,0.7,0.6,0.5,1c0,0.3,0,0.5-0.1,0.8c-0.1,0-0.1,0.3-0.1,0.4c-0.3,0.5-0.7,1-0.8,1.5
	c-0.3,0.3-0.3,0.8-0.6,1.1c0,0.2,0,0.3-0.2,0.3c-0.1,0.3-0.4,0.6-0.7,0.7C81.1,375,81,375.1,80.9,375.1L80.9,375.1z M85.1,374.4
	c-0.3,0.3-0.4-0.2-0.7,0c-0.1-0.1-0.2,0-0.2-0.2c-0.2,0-0.2-0.2-0.3-0.3c0.1-0.4,0.2-0.8,0.4-1.1c-0.1-0.2,0.2-0.1,0.2-0.2
	c0.4-0.1,0.8-0.1,1.3-0.1c0.5-0.1,0.7,0.2,1.1,0.1c0.1,0.1,0.4-0.2,0.5-0.1c0.3,0.1,0.6-0.1,0.8,0.2c0.4,0.4,0.2,1.2-0.1,1.7
	c-0.3,0-0.5,0-0.8,0c0,0.2,0-0.1-0.1,0c-0.2,0.3-0.1-0.2-0.3,0.1c-0.2,0-0.4,0-0.6,0c-0.1,0.1-0.4,0.2-0.6,0
	c-0.1,0.4-0.2-0.1-0.3,0.2C85.3,374.3,85.1,374.6,85.1,374.4L85.1,374.4z M85.8,371.6c-0.1,0.1-0.3,0.1-0.4,0
	c-0.5-0.3-0.3-0.9-0.6-1.3c-0.2-0.9-0.1-1.9,0.1-2.8c0.3-0.4,0.7-0.6,1.1-0.6c0.3,0.1,0.6,0.2,0.7,0.4c0.1-0.2,0.2,0,0.3,0
	c0.5,0.5,1.4,0.6,1.8,1.3c0.8,0.5,1.6,1.3,1.5,2.2c0.1,0.7-0.8,0.5-1.2,0.7c-0.1-0.1-0.2,0-0.2-0.1c-0.1,0.2-0.4,0.2-0.6,0.1
	c-0.3-0.4-0.4,0.3-0.8,0.1C86.9,371.9,86.3,371.9,85.8,371.6L85.8,371.6z M95.4,370.2c0-0.1-0.2-0.1-0.3-0.1c-0.8-0.3-1.7-0.6-2.5-1
	c-0.5-0.2-1-0.4-1.5-0.6c-0.5-0.3-0.9-0.4-1.3-0.6c-1.6-0.6-3-1.5-4.2-2.8c-0.1-0.3-0.2-0.6-0.3-0.9c0.1-0.2,0.6-0.1,0.6-0.4
	c0.1,0.1,0.3,0.1,0.5,0.1c0-0.1,0.1-0.1,0.2-0.1c0.2,0,0.4,0,0.5,0c0.5,0,1,0,1.5,0.1c0.1-0.2,0.2,0,0.3,0c0.8-0.1,1.5,0.1,2.4,0
	c0.3,0.1,0.5,0,0.8,0c0.2-0.2,0.4,0,0.6-0.1c0,0,0,0.1,0.1,0c0.1,0,0-0.1,0-0.1c0.1,0.3,0.4,0,0.6,0.1c0.5-0.1,1.1-0.1,1.5,0.1
	c0.4,0,0.7,0.3,1,0.2c0,0,0,0.1,0.1,0c0.1-0.1,0.2,0.1,0.3,0.2c0.2,0.2,0.4,0.3,0.3,0.6c0.2,0.2,0.1,0.4,0.2,0.6
	c0.2,1.1-0.1,2.2,0.2,3.3c0,0.6-0.3,1.1-0.8,1.3C95.8,370.4,95.6,370.2,95.4,370.2L95.4,370.2z M71.9,369.8c0,0,0.1,0,0-0.1
	c0-0.1-0.1,0.1-0.1,0c-0.1-0.4-0.1-0.8,0-1.2c0.1-0.3,0,0,0.2-0.1c0-0.2-0.1-0.3,0.1-0.4c0.4-0.2,0.7,0,1-0.1c0.7,0,1.3,0,2,0.1
	c0.2,0,0.3,0.1,0.5,0c0.2,0.1,0.4,0.1,0.5,0.2c0.2,0,0.4,0,0.6,0.2c-0.1,0.3,0.3,0.4,0.4,0.5c0.4,0.2,0,0.6,0,0.9
	c-0.2,0-0.2,0.2-0.3,0c0,0,0,0.1,0,0.1c0-0.1-0.2-0.1-0.2,0c-0.1,0.1-0.2-0.1-0.4,0c-0.4,0.1-0.6-0.2-0.9,0c-0.2-0.2-0.4,0-0.6-0.1
	c-0.2,0.1-0.5,0-0.4,0.1c-0.1-0.1-0.2,0-0.3-0.1c-0.1,0.1-0.4-0.1-0.5,0.1c0,0,0-0.1-0.1,0c-0.1,0-0.3,0-0.4,0
	C72.5,370.1,72.3,370,71.9,369.8C72,369.9,71.9,369.8,71.9,369.8L71.9,369.8z M81.7,368c-0.3,0-0.5-0.2-0.9-0.2c0,0,0-0.1,0-0.1
	c-0.2,0-0.4-0.1-0.5-0.3c-0.2-0.6-0.2-1.2,0-1.8c0.2-0.7,0.4-1.4,0.7-2.1c0.1-0.1,0.2,0,0.2-0.1c0.5,0.1,1-0.1,1.4,0
	c0.5,0.1,1.3,0.2,1.5,0.6c0,0.2,0.2,0.4,0.2,0.6c0.3,0.3,0.2,0.8,0.1,1.1c0,0.5-0.1,0.9-0.2,1.4c0,0-0.1,0,0,0.1
	c0,0.3-0.1,0.5-0.4,0.7c-0.6,0-1.2,0-1.7-0.1C81.8,367.9,81.8,367.9,81.7,368L81.7,368z M74.8,367.3c-0.2,0-0.6,0.1-0.7-0.1
	c-0.4,0-0.8,0-1.2,0c-0.4-0.1-0.7-0.2-1-0.4c-0.1-0.3-0.2-0.7-0.1-1c0.1-0.7-0.3-1.7,0.3-2.3c0.6-0.4,1.3-0.8,2.1-0.9
	c0.2,0.1,0.4-0.2,0.6,0c0.1,0,0.1,0.1,0.2,0.2c1-0.2,2-0.4,3-0.4c0.2,0,0.5,0.4,0.7,0.1c0.4,0.1,0.7,0.5,0.8,0.9c-0.1,1-0.3,2-0.6,3
	c-0.1,0.2-0.2,0.5-0.4,0.7c-0.1,0.2-0.3,0.1-0.5,0.2c-0.4,0.1-0.8,0-1,0c-0.1,0-0.2,0-0.3,0c-0.2,0-0.4,0.1-0.6,0
	c-0.3,0.2-0.5,0-0.7,0.2C75.2,367.1,75,367.2,74.8,367.3L74.8,367.3z M96.1,363.2c-0.1-0.2-0.4-0.4-0.4-0.6
	c-0.2-0.2-0.3-0.5-0.4-0.7c-0.2-0.8-0.9-1.3-1-2.1c-0.4-0.6-0.7-1.3-1-2c0.1-0.4-0.4-0.6-0.4-1c-0.1-0.2-0.1-0.5-0.2-0.7
	c0,0,0.1,0,0.1-0.1c-0.1,0,0.1-0.2,0-0.4c0.3-0.1,1.3-0.1,1.3-0.2c0,0.1,0.1,0,0.2,0.1c0.2-0.1,0.6,0.1,0.8-0.1
	c0.1,0.5,1.3,0.5,1.4,0.8c0.2,2.4,0.3,4.9,0.3,7.1C96.5,363.4,96.3,363.3,96.1,363.2L96.1,363.2z M83.6,363.1
	c-0.1-0.2-0.4-0.1-0.4-0.3c-0.6,0.2-1.1-0.3-1.7-0.2c-0.3-0.1-0.7-0.1-0.8-0.4c0,0,0,0,0,0c-0.2-0.2,0-0.6,0.1-0.8
	c0.3-0.7,0.3-1.4,0.8-2c0.8,0,1.7,0.2,2.4,0.5c0.4,0.1,0.7,0.2,1.1,0.2c0.2,0.1,0.6,0,0.8,0.1c0.2,0.1,0.6,0.1,0.8,0.2
	c0.1,0.2,0.4,0.3,0.4,0.6c0.1,0.3,0.1,0.6,0.1,0.9c-0.1,0.1-0.1,0.3-0.1,0.5c-0.2,0.1-0.1,0.4-0.4,0.5c-0.1,0.4-0.5,0.6-0.8,0.8
	C85.1,363.5,84.3,363.3,83.6,363.1L83.6,363.1z M92.9,363.1c-0.1-0.1-0.2,0.2-0.3-0.1c-0.1-0.1-0.1,0.2-0.2,0
	c-0.1,0.3-0.2-0.2-0.3,0.1c-0.1-0.2-0.2,0.1-0.2-0.1c0,0-0.1,0-0.1,0.1c-0.9,0-1.9,0-2.8,0c-0.1-0.2-0.3,0-0.4-0.2
	c0.1-0.8,0.3-1.6,0.5-2.3c0.2-0.3,0.6-0.4,0.8-0.7c0.2,0,0.5-0.1,0.7,0.1c0.3-0.1,0.6,0.1,0.9,0c0.1,0,0.2,0.3,0.3,0
	c0.2,0.1,0.5,0.1,0.7,0.2c0.1,0.1,0.4,0.1,0.4,0.3c0.6,0.5,1.1,1.1,1.3,1.9c0.1,0.2-0.1,0.5-0.3,0.6
	C93.6,363.2,93.3,363.1,92.9,363.1L92.9,363.1z M71.9,361.2c0-0.8,0.1-1.5,0.4-2.2c0.4-0.8,1-1.4,1.8-1.7c0.3-0.2,0.8-0.6,1.1-0.8
	c0.5-0.4,1.1-0.8,1.7-1.1c0.3,0.1,0.6,0,0.8,0.3c0.2-0.1,0.2,0.2,0.4,0c0.4,0.2,0.8,0.6,1.1,1c0,0.3,0.4,0.4,0.5,0.6
	c0.2,0.3,0.3,0.5,0.5,0.8c0.3,0.4,0.5,0.9,0.7,1.3c0.1,0.5-0.4,0.7-0.6,1c-0.2,0-0.3,0.3-0.6,0.2c-0.8,0.4-1.7,0.6-2.6,0.5
	c-1.5,0-3.1,0.1-4.6,0.3C72.4,361.4,72.1,361.5,71.9,361.2L71.9,361.2z M90.5,359.1c-0.1-0.1-0.3,0-0.4,0c-0.5-0.1-0.9-0.1-1.4-0.1
	c-0.1-0.2-0.3,0-0.3,0c-0.1,0-0.2-0.2-0.4,0c-0.2-0.2-0.4,0.1-0.6-0.2c0-0.2,0.1-0.4-0.1-0.6l0.4-1c0,0,0.1,0,0.1-0.1
	c-0.2-0.1,0.2-0.1,0-0.3c0.2,0,0-0.2,0.2-0.2c0-0.1,0-0.3,0.1-0.4c0-0.7,0.7-1.2,0.5-1.9c0.3-0.1,0-0.7,0.3-0.7
	c0.2,0.1,0.6,0,0.8,0.2c0.2,0.1,0,0.4,0.3,0.4c0.3,0.4,0.7,0.7,0.8,1.1c0.6,0.8,1.2,1.6,1.5,2.6c-0.3,0.2-0.2,0.5-0.4,0.7
	c0,0.1-0.2,0.2-0.2,0.2c0,0-0.1,0.1-0.1,0.1c0.1,0.1-0.1,0.1-0.1,0.2c-0.1-0.1-0.1,0-0.2,0.1C91.1,359.2,90.8,359,90.5,359.1
	L90.5,359.1z M83.2,358.6c-0.5-0.1-0.7-0.6-1.2-0.8c-0.2,0-0.1-0.2-0.3-0.2c-0.5-0.5-1.3-0.8-1.7-1.4c-0.4-0.1-0.4-0.5-0.6-0.8
	c-0.2-0.3-0.3-0.6-0.2-1c0.5-0.2,1-0.2,1.5-0.4c0.7-0.2,1.4-0.2,2.1-0.1c0.3-0.1,0.7-0.1,0.9-0.1c0.2-0.1,0.6-0.1,0.8-0.2
	c0.5-0.1,1.1-0.2,1.6-0.2c0.3,0.1,0.9,0.3,1,0.7c0.5,0.1,0.1,0.6,0.2,0.9c-0.2,0.4-0.4,0.8-0.7,1.2c0.2,0.1,0,0.1-0.1,0.2
	c-0.2,0.3-0.4,0.7-0.6,1c-0.2,0.1,0,0.3-0.2,0.4c-0.1,0.4-0.4,0.7-0.7,1c-0.3,0.2-0.7,0.6-1.1,0.5c-0.2-0.1-0.4,0-0.6-0.2
	C83.5,358.8,83.3,358.7,83.2,358.6L83.2,358.6z M71.8,355.5v-3.7c-0.2-0.2,0.1-0.3,0-0.4c0.1-0.6-0.1-1,0.2-1.4c0.9,0,1.9,0,2.8,0.1
	c0,0,0,0.2,0.1,0.2c0.5,0.2,0.7,0.8,1,1.1c0.2,0.2,0.3,0.5,0.4,0.7c0.2,0.3,0.3,0.5,0.4,0.8c0.2,0.3,0.2,0.6,0.1,0.9
	c-0.1,0.2,0.1,0.5-0.3,0.7c-0.5,0.2-0.9,0.5-1.3,0.8c-0.1,0.1-0.1,0-0.2,0.1c-0.4,0.3-0.8,0.6-1.3,0.8
	C72.9,356.2,72.2,356.2,71.8,355.5L71.8,355.5z M93.5,354.5l-0.1-0.2c-0.2,0-0.3,0.2-0.5,0.1c-0.6-0.1-1.2-0.3-1.8-0.6
	c-0.4-0.4-0.6-0.9-0.4-1.5c0.7-1.2,1.2-2.5,1.5-3.8c0-0.3,0.3-0.5,0.2-0.7c0.2-1,0.6-2,1-3c0.2-0.4,0.5,0,0.8-0.1
	c0.6,0.1,1.2,0,1.5,0.5c0.1,0.2,0.1,0.6,0.2,0.7c0.1,0.6,0.1,1.2,0.2,1.8c-0.1,0.9-0.2,1.8-0.2,2.7c0.4,0,0.1,0.3,0.2,0.6
	c0.1,0.4,0.1,0.8,0,1.2c0,0.2,0,0.5,0,0.7c0.2,0-0.2,0.1,0,0.2c0,0.4-0.2,0.6-0.1,1c-0.1,0.1-0.1,0.4-0.3,0.4
	c-0.5,0.1-0.9,0.1-1.4,0.1C94,354.6,93.7,354.5,93.5,354.5L93.5,354.5z M77.6,352.7c-0.1-0.2-0.2-0.4-0.3-0.7
	c-0.4-0.7-0.8-1.4-1.3-2c-0.2-0.2-0.4-0.5-0.6-0.7c0-0.3,0.2-0.5,0.4-0.7c0.2,0,0.3-0.1,0.4-0.1c0.1,0.2,0.1,0,0.2,0
	c1.7-0.2,3.4-0.2,5.1,0.1c0.4,0.1,0.7,0.2,1.1,0.3c0.3,0.4,1,0.6,1.1,1.2c0.3,0.2,0.3,0.7,0.6,1c0.2,0.5,0.2,1-0.1,1.4
	c-0.4,0-0.7,0.6-1.2,0.4c-0.1,0.1-0.2,0.1-0.4,0.1c-0.1-0.1-0.3,0-0.4,0c-0.9,0.2-2.1,0.2-3,0.4C78.7,353.3,77.7,353.4,77.6,352.7
	L77.6,352.7z M87.1,352.5c-0.3-0.2-0.7-0.3-1-0.6c-0.1-0.2-0.4-0.4-0.3-0.7c-0.2-0.3-0.3-0.6-0.4-0.9c-0.4-0.7-1.1-1.3-0.5-2.2
	c0.7-0.6,1.6-1.1,2.5-1.2c0.6,0.1,1.2,0.2,1.7,0.5c0.2,0.1,0.3,0,0.5,0.1c0.2,0.1,0.5,0,0.6,0.2c0,0,0,0,0,0
	c0.2,0.1,0.5,0.1,0.6,0.3c0.1,0.1,0,0.3,0,0.4c0,0.3-0.1,0.6-0.3,0.8c-0.2,0.7-0.4,1.4-0.8,2c0,0.5-0.2,1-0.6,1.4
	c-0.4,0.2-0.9,0.2-1.3,0.2C87.7,352.7,87.4,352.5,87.1,352.5L87.1,352.5z M71.9,349c-0.1-0.3,0-0.6-0.1-0.9c0.2,0,0-0.2,0-0.3
	c0.1-0.8,0.1-1.7,0.1-2.6c0-0.7-0.1-1.4,0-2.1c0.1-0.1,0.2-0.3,0.4-0.4c0.1,0.1,0.2,0.2,0.3,0.1c-0.1-0.2,0.1,0,0.2,0
	c0,0.1,0.2,0.1,0.2,0.1c0.3,0.1,0.5,0.4,0.8,0.4c0.5,0.3,0.9,0.6,1.3,0.9c0.5,1.2-0.6,2.1-0.8,3.1c-0.2,0.3-0.2,0.5-0.4,0.8
	c-0.3,0.2-0.2,0.7-0.6,0.8C72.8,349.2,72.3,349.1,71.9,349L71.9,349z M71.9,349"/>
<path class="st4" d="M90.2,347.8C90.2,347.8,90.2,347.8,90.2,347.8L90.2,347.8L90.2,347.8z M78.6,347.4c-0.2-0.1-0.5,0-0.7,0
	c-0.4,0.1-0.9-0.2-1.3-0.2c-0.4-0.1-0.8-0.4-0.9-0.9c0.6-1,1.2-1.9,1.8-2.9c0.2-0.2,0.4-0.4,0.5-0.5c0.1-0.1,0.3-0.5,0.6-0.5
	c0-0.1,0.1-0.2,0.2-0.2c0.6,0.2,0.8,0.7,1.2,1c0.2,0.2,0.4,0.5,0.4,0.8c0.1,0.4,0.6,0.6,0.7,1c0.3,0.3,0.5,0.7,0.6,1.1
	c-0.1,0.5-0.3,0.9-0.6,1.2C80.3,347.5,79.4,347.5,78.6,347.4L78.6,347.4z M84.5,346.9c-0.2-0.1-0.4-0.2-0.6-0.4
	c-0.3-0.4-0.6-0.9-0.9-1.4c-0.4-0.3-0.6-0.7-1.1-1.1c-0.4-0.6-0.7-1.1-1.1-1.8c-0.2-0.1-0.2-0.4-0.2-0.5c0-0.3,0.5-0.4,0.8-0.5
	c0.1,0.1,0.4,0,0.5,0.1c0.9,0,1.8,0.2,2.7,0.3c0.8,0.2,1.7,0.3,2.1,0.9c0.1,0.8,0.1,1.7,0,2.5c-0.1,0.3,0.1,0.9-0.4,1
	c-0.4,0.4-1,0.7-1.5,0.9C84.8,346.9,84.7,346.9,84.5,346.9L84.5,346.9z M89.7,346.2c-0.1-0.2-0.4-0.2-0.5-0.4
	c-0.1,0-0.1-0.1-0.3-0.1c-0.1-0.1-0.2-0.3-0.3-0.5c0.2-0.4-0.3-0.7-0.2-1.2c-0.2-0.4-0.6-0.9-0.4-1.3c0.1-0.5,0.1-1,0-1.5
	c0.1-0.3,0-0.7,0-0.9c0.1-0.8,0.2-1.5,0.3-2.3c-0.1-0.4,0.2-0.7,0.1-1.1c0.4-0.2,1.1-0.1,1.4-0.6c0,0,0,0.1,0.1,0
	c0.2-0.2,0.4-0.4,0.6-0.6h0.4c0.4,0.2,0.3,0.7,0.5,0.9c0.1,1,0.2,2,0.2,2.9c-0.1,0.1,0,0.1,0,0.2c0.1,0.6-0.1,1.2,0.1,1.6
	c0,0.5,0,1.5,0,2.1c-0.2,1,0.4,2.4-0.7,3.1C90.7,346.4,90.2,346.3,89.7,346.2L89.7,346.2z M92.9,343.5c0-0.3,0.1-0.6,0.1-0.8
	c0.2-0.7-0.2-1.2,0-1.9c-0.1-0.3-0.1-0.7,0.1-1c0.2,0.1,0.2-0.3,0.5-0.2c0.4,0,0.8,0.2,1.1,0.4c0.3,0.3,0.3,0.6,0.6,0.8
	c-0.1,0.3,0.2,0.4,0.1,0.7c0.1,0.2,0,0.3,0.1,0.4c0.2,0.7,0,1.5-0.7,2C94.1,344,93.4,343.8,92.9,343.5L92.9,343.5z M73.7,342.6
	c-0.2-0.2-0.5-0.2-0.6-0.5c-0.3-0.3-0.8-0.6-1-0.9c0.1-0.3,0.1-0.5,0-0.8c0.2-0.2-0.1-0.4,0.1-0.6c0-0.1,0.1-0.2-0.1-0.3
	c0.4-0.9-0.2-1.8,0.1-2.7c0,0,0,0,0,0c0.1-0.4,0.1-0.8,0.1-1.1c0.2-0.4,0-0.7,0-1c0-0.3,0-0.7,0.2-1c0.1,0.1,0.2,0,0.4,0.1
	c0,0.2,0.3,0.3,0.4,0.4c0.1,0.3,0.6,0.5,0.6,0.8c0.2,0.1,0.2,0.3,0.4,0.4c0,0,0,0.1,0,0.1c0.2,0.1,0.3,0.3,0.3,0.4
	c0.5,0.4,0.3,0.9,0.7,1.3c0,0.2,0.1,0.4,0.3,0.7c0.1,0,0.2,0.3,0.4,0.3c0.2,0.3,0.2,0.5,0.5,0.7c0.1,0.3,0.3,0.5,0.4,0.8
	c0.3,0.6,1.1,1.3,0.5,2c0.1,0.2-0.2,0.2-0.2,0.3c-0.3,0.4-0.7,0.9-1,1.3c-0.2,0.1-0.2,0.3-0.4,0.4C75,343.6,74.3,343.2,73.7,342.6
	L73.7,342.6z M84.4,340.9c-0.8-0.3-1.8,0-2.4-0.5c-0.3,0-0.6-0.1-0.8-0.3c-0.1-0.4,0-0.8,0.2-1.1c0.1-0.2,0.2-0.4,0.4-0.5
	c0.1-0.2,0.3-0.2,0.6-0.2c0,0.1,0.1,0.1,0.1,0c0.8,0.1,1.5,0.2,2.3,0.2c0.7,0,1.5,0.1,2.2,0.3c0.3,0.3,0.2,0.5,0.2,0.8
	c0.1,0.5-0.1,1.1-0.3,1.5c-0.5,0.1-1,0.1-1.5-0.1L84.4,340.9z M78.7,339.8c-0.3-0.6-0.9-0.8-1.3-1.3c-0.4-0.8-0.9-1.6-1.2-2.4
	c-0.2-0.2-0.2-0.6-0.4-0.8c-0.4-0.6-1-1.5-0.6-2.3c0.2-0.2,0.4-0.1,0.7-0.1c0.1,0.2,0.3-0.1,0.3,0.1c0.3,0.1,0.6,0.1,0.8,0.3
	c0.2,0.2,0.6,0.2,0.8,0.4c0.4-0.1,0.1,0.4,0.5,0.3c0.1-0.1,0.1-0.2,0.3-0.1c0.6,0.2,1.3,0.1,1.9,0.4c0.2,0.1,0.4,0,0.6,0.3
	c0,0.3,0,0.6-0.1,0.9c-0.1,0.1-0.1,0.2-0.1,0.2c0.1,0.1-0.1,0.1-0.1,0.1c-0.2,0.7-0.4,1.7-0.6,2.5c-0.3,0.4-0.2,1.2-0.9,1.3
	C79.1,339.6,79,339.9,78.7,339.8L78.7,339.8z M93.9,338.3c0.1-0.2-0.2-0.2-0.2-0.4c-0.4-0.3-0.6-0.9-0.9-1.3
	c-0.3-0.7-1.1-1.4-0.6-2.2c0.2,0,0.2-0.4,0.5-0.3c0.3,0.2,0.6,0.1,0.8,0.3c0.1-0.2,0.4-0.1,0.6,0c0.5,0.2,1,0.4,1.4,0.8l0.1,3.5
	c-0.2,0.1,0.1,0.3-0.2,0.3c-0.2,0.1-0.4,0.3-0.7,0.3C94.5,338.9,94.3,338.5,93.9,338.3L93.9,338.3z M82.6,337.5
	c-0.3-0.1-0.6-0.2-0.8-0.3c-0.1-0.3,0.1-0.4,0-0.7c0.3-0.6,0.2-1.4,0.7-1.9c0-0.1,0-0.3,0.2-0.3c0.4,0,0.7-0.2,1.1-0.2
	c0.2-0.1,0.5,0.1,0.7,0c0.3,0,0.5,0.1,0.6,0.3c0.2,0.4,0.6,0.8,0.8,1.2c0.3,0.3,0.6,0.7,0.6,1.1c-0.1,0.2-0.2,0.4-0.4,0.6
	c-0.3,0-0.4,0.3-0.7,0.3c-0.4,0.1-0.7-0.1-1.1,0.1C83.8,337.7,83.2,337.6,82.6,337.5L82.6,337.5z M87.3,335.9
	c-0.2-0.4-0.3-0.8-0.5-1.2c-0.2-0.6-0.4-1.1-0.5-1.7c-0.1-0.2-0.1-0.5-0.2-0.7c-0.1-0.2-0.1-0.5-0.2-0.7c0.1-0.5-0.1-0.7,0-1.2
	c-0.1-0.1-0.2-0.4,0-0.5c0.3-0.2,0.4-0.6,0.9-0.4c0.1-0.1,0.3,0,0.4,0.1c0.1-0.1,0.2,0.1,0.4,0.1c0.4,0.1,0.7,0.3,1,0.5
	c-0.1,0,0,0.2,0,0.2c0.3,0.2,0.7,0.2,0.9,0.6c0.4,0.6,1.2,1,1.7,1.6c0.1,0.2,0,0.4,0,0.7c-0.4,0.8-1,1.5-1.6,2.1
	c-0.4,0.6-1,0.9-1.7,1.1C87.6,336.4,87.5,336.2,87.3,335.9L87.3,335.9z M92.7,332.6c-0.6-0.1-1.3-0.4-1.4-1c0.1-0.1,0.3-0.2,0.4-0.4
	c0-0.5,0.5-0.8,0.9-1.1c0.2,0.1,0.3-0.1,0.4-0.2c0.7-0.1,1.4-0.1,2-0.1c0.4,0.7,0.2,1.4,0.3,2.3c0.1,0.5,0.2,1-0.2,1.3
	C94.2,333.8,93.5,332.9,92.7,332.6L92.7,332.6z M82.6,333.3c-0.9-0.1-2.5,0.1-3.1-0.8c0.1-0.2,0.2-0.3,0.3-0.5
	c0.3-0.4,0.7-0.8,0.9-1.1c0.4-0.4,0.7-0.8,1.1-1.2c0.5-0.4,0.8-1,1.3-1.4c0.5,0.1,0.9,0.3,1.2,0.6c0.2,1.1,0.5,2.2,0.7,3.2
	c-0.1,0.4,0.3,1.1-0.4,1.2c-0.4,0.1-0.9,0.1-1.3,0C83,333.4,82.8,333.4,82.6,333.3L82.6,333.3z M76,331.3c0.1-0.3,0.2-0.5,0.3-0.8
	c0.5-0.4,0.6-0.9,1.1-1.3c0.5-0.7,0.7-1.7,1.7-1.9c0.3,0,0.5-0.3,0.7-0.2c0.4-0.1,0.7-0.6,1.1-0.4c0.2,0.1,0.4,0.2,0.7,0.2
	c0.3,0.2,0.7,0.3,0.7,0.7c-0.1,0.2-0.3,0.3-0.3,0.4c-0.1,0.1-0.2,0.2-0.3,0.3c0.1,0.3-0.2,0.1-0.3,0.3c-0.4,0.2-0.4,0.7-0.8,0.7
	c0,0.3-0.5,0.4-0.6,0.8c-0.3,0.1-0.3,0.4-0.6,0.5c-0.5,0.6-1,1.1-1.6,1.5c-0.6,0-1.2-0.1-1.7-0.5C76.1,331.5,76,331.4,76,331.3
	L76,331.3z M72.3,331.6c-0.1-0.2-0.3-0.4-0.3-0.7c-0.1-0.2-0.1-0.4-0.1-0.7c-0.1-0.3-0.2-0.6,0-0.8c-0.2-1.2-0.2-2.5,0.1-3.7
	c0.2-0.2,0.3-0.5,0.6-0.6c0.2-0.3,0.5-0.5,0.9-0.5c0.6-0.1,1.3-0.1,1.9-0.1c0.4,0.1,1.1,0,1.1,0.5c0.2,1.1,0,2,0.2,3.1
	c-0.2,0.8-0.6,1.5-1.1,2.1c-0.1,0.3-0.3,0.5-0.4,0.7c-0.2,0.3-0.4,0.6-0.8,0.7C73.7,331.9,73,331.8,72.3,331.6L72.3,331.6z
	 M88.7,329.2c-0.1-0.6,0.5-0.9,0.6-1.4c0.6-0.2,1-0.9,1.7-0.4c0.3,0.5,0.4,1.2,0.2,1.8c-0.2,0.3-0.5,0.5-0.8,0.6
	C89.9,329.7,89.3,329.6,88.7,329.2L88.7,329.2z M92.4,328.4c0-0.4-0.3-0.6-0.2-1c0-0.3-0.3-0.4-0.1-0.7c-0.1-0.1,0-0.4-0.1-0.6
	c-0.1-0.2,0-0.4-0.1-0.6c0.1-0.1-0.1-0.2-0.1-0.3c-0.1-0.7-0.2-1.5-0.4-2.2c-0.1,0,0.1-0.1,0-0.2c-0.3-0.3,0-0.7,0-1
	c0.4-0.7,0.7-1.1,1.1-1.8c0.3,0,0.7,0,1.2,0.1c0.1,0.2,0.2,0.5,0.4,0.6c0,0.4,0.2,0.5,0.1,0.8c0.1,0.2-0.1,0.7,0,1
	c-0.1,0.2-0.1,0.3,0,0.5c0,0.2,0,0.3,0.1,0.4c0-0.2,0.2,0,0.2,0c0.1,0.4-0.1,0.6,0,1c0,0,0.1,0,0.1,0.1c-0.2-0.1,0,0.3-0.1,0.4
	c0.2,0.9,0,1.9,0.1,2.9c-0.1,0.4-0.1,1-0.6,1.2C93.6,328.8,92.6,329.1,92.4,328.4L92.4,328.4z M85.6,328.3c-0.3-0.2-0.6-0.6-1-0.5
	c-0.2-0.2-0.5-0.4-0.7-0.5c0-0.2-0.1-0.1-0.2-0.2c-0.7-0.4-1.4-0.8-2-1.4c0-0.4,0.1-0.7,0.3-1.1c0-0.2,0.3-0.3,0.3-0.5
	c0.2,0,0.3-0.3,0.5-0.2c0,0.2,0.1,0,0.2-0.1c0.6-0.1,1,0.3,1.5,0.4c0.3-0.1,0.6,0.2,0.9,0.2c0.4,0,0.7,0.4,1.1,0.5
	c0.4,0.1,0.7,0.3,1.1,0.5c0.2,0,0.3,0.1,0.5,0.2c0.5,0.1,0.8,0.5,0.9,0.9c-0.1,0.6-0.4,1.1-0.9,1.5c-0.4,0.3-0.9,0.5-1.4,0.4
	C86.2,328.3,85.9,328.4,85.6,328.3L85.6,328.3z M87.6,325.2c-0.4-0.1-0.6-0.4-1-0.4c-0.1-0.2-0.2-0.5-0.2-0.7
	c0.4-0.4,0.9-0.2,1.4-0.5c0,0,0.1-0.2-0.1-0.2h-0.1c0.7-0.5,1.5-0.7,2.3-0.8c0.4,0,0.3,0.4,0.5,0.6c0,0.5,0.4,0.9,0.4,1.3
	c0.2,0.3-0.1,0.5,0.2,0.8c-0.1,0.2-0.1,0.3-0.1,0.5c-0.3,0.3-0.4,0.6-0.7,0.6C89.1,326.4,88.5,325.6,87.6,325.2L87.6,325.2z
	 M77.8,326.1c-0.4,0-0.1-0.3-0.3-0.5c0.1-0.5,0.1-1,0.1-1.5c0.2-0.1-0.1-0.3,0-0.4c0.2-0.4,0.4-0.8,0.7-1.1c0.2-0.2,0-0.6,0.3-0.9
	c0.1-0.5,0.3-1.1,0.9-1.2c0.6,0.2,1.1-0.6,1.4,0.2c0.4,0.3,0.7,0.7,0.7,1.2c-0.1,0.6-0.2,1.2-0.5,1.7c-0.3,0.6-0.8,1.1-1.1,1.7
	c-0.4,0.5-0.9,0.8-1.5,1C78.3,326.4,77.9,326.4,77.8,326.1L77.8,326.1z M72.8,323.6c-0.2-0.1-0.4,0-0.6-0.1c-0.1,0-0.2-0.1-0.3-0.1
	c0-0.3-0.1-0.6-0.1-0.9c0,0,0.2-0.2,0-0.2c0.1-0.4,0-0.7,0.1-1.1c-0.2-0.5,0.2-0.9,0-1.4c-0.1-0.7,0-1.3,0-1.9
	c0.1-0.4-0.1-1.2,0.7-1.5c0.4-0.2,0.8-0.4,1.2-0.5c0.3,0,0.6,0.4,0.7,0.6c0.4,0.8,1.1,1.5,1.4,2.3c0.2,0,0.1,0.2,0.2,0.2
	c0.4,0.9,1.5,1.5,1.6,2.5c-0.2,0.6,0.1,1.3-0.6,1.7c-0.5,0.7-1.5,0.4-2.4,0.6C74.1,323.9,73.5,323.4,72.8,323.6L72.8,323.6z
	 M83.1,323.1c-0.3,0-0.4-0.4-0.6-0.7c-0.1-0.7-0.8-1.3-0.4-1.9c0.1-0.2,0.3-0.4,0.6-0.4c0.2-0.2,0.2-0.4,0.5-0.5
	c0.9,0.2,1.6,0.4,2.4,0.6c0.3,0.2,0.7,0.1,1,0.4c0.3,0.3,1,0.7,0.8,1.2c-0.1,0.5-0.3,1-0.7,1.4c-0.3-0.2-0.5,0.2-0.9,0.1
	c-0.5,0-1.1,0-1.6,0.1C83.9,323.3,83.3,323.4,83.1,323.1L83.1,323.1z M89.1,321.9c-0.6-0.2-0.4-1-0.4-1.4c0-0.3,0.1-0.6,0-0.9
	c0.1-1.2,0-2.4,0.2-3.7c0.3-0.3-0.2-0.9,0.3-1.2c0.4,0,0.7,0,1,0c0.1,0.2,0.4,0,0.6,0.1c0.2,0.3,0.7-0.1,0.8,0.4
	c0.3,0.4,0,0.8,0.1,1.3c-0.1,0.1-0.1,0.2,0,0.3c-0.1,0.3-0.2,0.7-0.2,1c0.2,0.2-0.2,0.2,0,0.4c-0.2,0.1-0.1,0.3-0.1,0.6
	c-0.1,1.1-0.4,2.2-1,3.2C89.8,322,89.4,322,89.1,321.9L89.1,321.9z M84.7,319.1c-0.4-0.2-0.9-0.3-1-0.7c-0.1-0.5-0.1-1-0.1-1.5
	c0-0.2-0.2-0.4-0.1-0.6c-0.1-0.5-0.1-1.1,0-1.6c0.1-0.6-0.5-1.5,0.5-1.9c0.1,0,0.2,0.1,0.3,0.1c0,0.1,0.8,0.3,1.3,0.3
	c0.1,0.1,0.1,0.1,0.2,0.1c0.1,0.1,0.4,0,0.5,0.2c0.5,0,0.7,0.3,1,0.6c0.6,0.5,0.2,1.3,0.4,1.9c0.1,0.3,0,0.7,0,1c0.1,0,0,0.2,0,0.2
	c0.1,0.5,0,1.1-0.1,1.6c-0.1,0.4-0.4,0.7-0.7,1C86.2,319.7,85.5,319.3,84.7,319.1L84.7,319.1z M77.9,319.6c-1.1-0.8-1.9-2-2.3-3.3
	c0-0.3,0.2-0.3,0.3-0.6c0.1-0.2,0.3-0.3,0.3-0.3c0.2,0,0.3-0.2,0.4-0.4c0-0.1,0.2-0.2,0.2-0.4c0.1-0.2,0.4,0,0.3-0.2
	c0-0.3,0.4-0.1,0.3-0.4c0.3-0.2,0.6-0.4,0.8-0.6c0.2,0,0.1-0.3,0.3-0.3c0-0.3,0.3-0.2,0.4-0.4c0-0.1,0.2-0.1,0.2-0.2
	c0.4-0.2,0.7-0.9,1.4-0.7c0.2,0.1,0.4,0.2,0.6,0.3c0.1-0.1,0.3,0,0.4,0.1c0.7,1,0.4,2.2,0.6,3.4c0,1.1,0.4,2.5-0.3,3.5
	c-0.7,0.4-1.4,0.5-2.1,0.6c-0.4,0.1-0.7,0.2-1.1,0.1C78.4,319.8,78.2,319.7,77.9,319.6L77.9,319.6z M92.4,318.8
	c-0.2,0.1-0.4-0.1-0.5-0.2c0-0.7,0.2-1.4,0.4-2.1c0.3-0.3,0.1-1,0.8-0.8c0.1,0,0.1,0.1,0.1,0.1c0,0,0,0.1,0,0.1c0.2-0.1,0.3,0,0.6,0
	c0,0.2,0.3,0.4,0.3,0.6c0,0.9,0.3,1.8-0.4,2.6c-0.2,0-0.4,0-0.6-0.1C92.8,319,92.5,318.9,92.4,318.8L92.4,318.8z M92.4,314.7
	c-0.6-0.7,0.3-1.5,0.3-2.2c0.2-0.2,0.2-0.5,0.3-0.7c0.1-0.3,0.2-0.5,0.3-0.7c0.1-0.5,0.3-0.9,0.6-1.3c0.1,0.6,0.1,1.2,0.2,1.8
	c-0.1,0-0.1,0.1,0,0.1c0.2,1,0,2.1-0.4,3.1c-0.2,0.1-0.4-0.3-0.4,0c0,0.1,0.2,0,0.1,0.1C92.9,314.9,92.7,314.9,92.4,314.7
	L92.4,314.7z M72,314.8c0.3-0.7-0.1-1.2,0.2-1.8c0-0.2,0.1-0.5,0.2-0.7c0-0.2,0.2-0.1,0.1-0.3c0.2-0.1,0.2-0.4,0.5-0.6
	c0.1-0.2,0.2-0.2,0.2-0.3c0.3-0.2,0.6-0.5,0.8-0.8c0.2-0.1,0.3-0.3,0.4-0.5c0.4-0.2,0.3-0.8,0.9-0.7c0.2,0,0.4,0.1,0.6,0.3
	c0.1-0.2,0.4,0,0.7,0c0.4,0.3,0.5,0.1,0.7,0.2c0.2,0,0.3,0.2,0.4,0.4c0,0.7-0.2,1.3-0.1,2c0,0.2-0.4,0.1-0.3,0.4
	c-0.2,0.2-0.4,0.6-0.7,0.7c0-0.2-0.2,0.1-0.2,0.1c-0.3,0.2-0.7,0.4-1,0.7c0.3,0,0,0.1-0.1,0.2c-0.1,0.2-0.4,0.2-0.6,0.4l-0.6,0.2
	c0,0.1,0.1,0.1,0.2,0.2c-0.4,0.2-0.8,0.3-1.2,0.4C72.8,315,72.3,315.2,72,314.8L72,314.8z M89.7,313.9c-0.2,0.1-0.3-0.1-0.3-0.2
	c-0.1-0.4-0.1-0.8-0.1-1.1v-2.3c-0.1,0,0-0.1,0-0.2h0.1c0-0.3,0-0.7,0-1c0-0.4,0.1-0.7,0.4-1c0.5,0,0.9,0.2,1.5,0.2
	c0.4,0.2,1,0.3,1.1,0.7c0,0.4-0.1,0.8-0.2,1.2c0.2,0.2,0,0.5,0,0.7c-0.2,0.6-0.4,1.3-0.6,2c-0.1,0.5-0.2,0.9-0.5,1.3
	C90.6,314.2,90.1,314.1,89.7,313.9L89.7,313.9z M71.8,310.3c-0.1-0.2,0.2-0.3,0-0.4c0,0,0.1,0,0.1,0c-0.2-0.1,0.2-0.2-0.1-0.3
	l0.1-1.7c0-0.2-0.1-0.4,0-0.6c0.1-0.1-0.1-0.3,0.1-0.4c-0.2-0.3,0-0.5-0.1-0.8c0.1,0,0-0.1,0-0.1c-0.1-0.2,0-0.4-0.1-0.6
	c0.1-0.3,0.1-0.5,0.1-0.8c0.2-0.1,0.4-0.3,0.6-0.2c0.2,0,0.2,0.2,0.4,0c0.3,0,0.6,0.2,0.9,0.4c0.6,1.2,0,2.3,0.4,3.6
	c0,0.9-0.9,1.7-1.5,2.3C72.3,310.3,72,310.7,71.8,310.3L71.8,310.3z M93.3,308.4c-0.3-0.2-0.6-0.2-1-0.4c-0.7-0.3-1.5-0.7-2.2-1
	c-0.1-0.6-1-0.1-0.8-0.8c0-0.3,0.1-0.5,0.3-0.7c1.2,0.4,2.8,0.7,3.9,1.2c0.3,0.6,0.4,1.2,0.2,1.8C93.5,308.5,93.5,308.4,93.3,308.4
	L93.3,308.4z M75.3,307.7c0-0.3-0.1-0.7,0-0.9c0-0.6-0.2-1.3-0.1-1.8c0.2-0.3,0.6,0,0.9,0c0.3,0.1,0.7,0,0.9,0.2
	c0.1-0.1,0.2,0,0.3,0c0.1,0.2,0,0.4,0.2,0.6c-0.2,0.8,0.4,1.6-0.1,2.5c-0.4,0.2-0.9-0.1-1.3,0.1C75.7,308.2,75.3,308,75.3,307.7
	L75.3,307.7z M76,303.8c-0.5,0-0.9-0.2-1.1-0.6c-0.1-0.4,0-0.9,0.2-1.3c-0.1-0.1,0.1-0.2,0.1-0.4c0.4-0.2,0.9-0.2,1.3,0
	c0.3,0.2,0.9,0.2,1,0.6c0.2,0.1,0.1,0.3,0.4,0.4c-0.1,0-0.1,0.1-0.1,0.2c0.1,0.1,0.1,0.2,0.1,0.3c0,0.5,0,1,0,1.5
	c-0.1,0-0.1,0.2-0.2,0.2C77.1,304.1,76.5,304.1,76,303.8L76,303.8z M72,303c-0.2,0-0.1-0.3-0.2-0.3l0.1,0v-1.4
	c0.2-0.2-0.2-0.2,0.1-0.4c-0.2-0.1,0.1-0.4,0-0.6c0.2-0.1,0.4,0,0.5-0.1c0.2,0,0.5,0.1,0.7,0.2c0.4,0,0.7,0.1,1,0.3
	c0.1,0,0.2,0,0.2,0c0,0.8-0.1,1.6-0.3,2.3c-0.1,0.1-0.3,0.2-0.4,0.3C73,303.3,72.5,303.2,72,303L72,303z M72,303"/>
<path class="st3" d="M92.9,305.6c-0.4,0-0.8-0.2-1.2-0.4c-0.5-0.1-1-0.2-1.5-0.4c-0.2-0.5-1,0.1-0.9-0.4c0-0.3,0-0.6,0-0.9
	c-0.1-0.1-0.1-0.1,0-0.2c0.2,0,0.5,0,0.7,0.1c0.6,0.3,1.2,0.3,1.8,0.6c0.1,0.1,0.4,0.1,0.5,0.1c0.5,0.2,1,0.3,1.5,0.6
	c0,0.4,0.1,0.9,0,1.3C93.5,305.8,93.2,305.7,92.9,305.6L92.9,305.6z M92.7,302.6C92.7,302.6,92.6,302.6,92.7,302.6
	c-1.1-0.4-2.2-0.7-3.3-1.1c-0.3-0.6,0.2-1-0.1-1.5c0.1-0.7-0.2-1.5-0.3-1.4c-0.1,0,0-0.2-0.2-0.2c0.2-0.1-0.1-0.1,0-0.2
	c-0.2-0.3-0.1-0.6-0.4-0.8c0-0.1,0-0.2-0.1-0.3c0,0-0.2,0-0.2-0.1c-0.1-0.2-0.4-0.4-0.4-0.6c-0.4-0.1-0.2-0.6-0.6-0.7
	c0-0.3-0.5-0.2-0.6-0.5c-0.7-0.4-1-0.9-1.8-0.9c-0.1,0.2-0.2-0.1-0.3,0c-0.3-0.1-0.5-0.2-0.8-0.3c-0.4,0.2-0.7-0.2-1,0
	c-0.3-0.1-0.7-0.1-1.1,0c-0.2,0.1-0.5,0-0.7,0.2c-0.6,0.1-1.1,0.4-1.5,0.7c0,0.2-0.2,0-0.2,0.2c-0.2,0-0.2,0.3-0.4,0.2
	c0,0,0,0.2-0.1,0.1c0,0-0.1,0-0.1,0c0.2,0,0,0.1,0,0.2c0-0.1-0.1,0-0.2,0c0.1,0.2-0.3,0.2-0.1,0.4c-0.1,0.1,0,0.4-0.3,0.4
	c0,0.1,0.1,0.2,0,0.2l-0.1,1c-0.6,0-1.2-0.4-1.8-0.5c-0.9-0.3-1.9-0.7-2.8-1c-0.5-0.1-1-0.4-1.4-0.4c-0.2,0-0.1-0.3-0.2-0.4
	c0-0.3,0.1-0.5,0-0.7c-0.2-0.1,0.1-0.1,0-0.2c0.1-0.1-0.1-0.4,0-0.5c-0.1-0.3,0.1-0.7,0-1c0,0,0.1-0.1,0-0.1c0.1-0.6,0-1.1,0.1-1.7
	c-0.1-0.3,0.1-0.5,0-0.8c0.2,0.1,0-0.9,0-1.4c0-0.8,0-1.7,0-2.7c0.3-0.1,0.6,0.2,0.9,0.2c0.4,0.2,1,0.3,1.4,0.6c0.1,0,0.3,0.1,0.4,0
	c0.4,0.1,0.7,0.4,1.1,0.4l0.9,0.4l0.8,0.2c0.4,0.1,0.7,0.2,1,0.4c0.3-0.1,0.5,0.2,0.8,0.2c0.6,0.3,1.3,0.2,1.7,0.7
	c0.7-0.1,1.1,0.4,1.7,0.6c0,0.2,0.2,0.1,0.2,0.1c0.1,0.1,0.2,0.2,0.3,0.1c0.6,0,0.9,0.4,1.5,0.5c0.4,0.2,0.8,0.1,1.1,0.4
	c0.4,0,0.9,0.4,1.3,0.4c0.6,0.2,1.1,0.4,1.7,0.6c0.3,0.3,0.7,0.1,1,0.4c0.6,0.3,1.1,0.2,1.7,0.5c0.7,0.3,1.6,0.4,2.1,0.9
	c0.1-0.1,0.1,0,0.1,0.1c-0.4,0.2,0.1,0.6-0.1,0.9c-0.1,1,0.2,2.3,0.1,3.3c0,0.1,0.1,0.1,0.1,0.1c0,1.1,0.1,2.4,0.1,3.6
	c0.1,0.3,0.1,0.7,0.1,1L92.7,302.6z M76.7,300.6c-0.6-0.2-1.3-0.4-1.9-0.6c-0.4-0.2-0.7-0.3-1.1-0.4l-1.8-0.6c0.2-0.4-0.2-1,0-1.4
	l1.9,0.7c0.2-0.1,0.3,0,0.4,0.1c1.2,0.4,2.5,0.7,3.7,1.2c0.2,0.5-0.1,1,0,1.4C77.5,300.9,77.1,300.8,76.7,300.6L76.7,300.6z
	 M66.7,298.5c0-0.1,0.2-0.2,0-0.2c0-0.2,0-0.4,0-0.6c0.4,0,0.7-0.3,1-0.2c0.8-0.4,1.5-0.5,2.3-0.8c0.2-0.1,0.3,0,0.4-0.1
	c0.1,0.5,0.1,1.1-0.2,1.5c-0.1,0.1-0.2-0.1-0.3,0.1c-1,0.2-2.1,0.7-3.1,0.9C66.5,299,66.7,298.7,66.7,298.5L66.7,298.5z M66.7,298.5
	"/>
<path class="st5" d="M47.1,292.1c0-0.2,0-0.4,0.1-0.5c0.2-0.2,0.6,0.3,0.5-0.2l3.9-1.4c0.3-0.1,0.6-0.2,0.9-0.4
	c0.4-0.1,0.9-0.3,1.3-0.5c0.2,0.1,0.3-0.3,0.5-0.2c0.7-0.4,1.5-0.5,2.2-0.8c0.5-0.3,1.1-0.4,1.7-0.7c0.4-0.1,0.8-0.4,1.3-0.4
	c0.2-0.3,0.6-0.2,0.8-0.4c0.1-0.2,0.4-0.1,0.6-0.3l1.8-0.6c0.3-0.1,0.6-0.3,0.9-0.3c0.4-0.2,0.9-0.4,1.4-0.5
	c-0.1-0.2,0.1,0.1,0.2-0.1c0.9-0.2,1.7-0.7,2.6-0.9c0.1-0.1,0.2-0.1,0.3-0.2c0.1,0.1,0.1-0.2,0.3-0.1c0.1,0,0.1-0.2,0.2-0.1
	c0.1,0.1,0.2-0.1,0.2-0.1c0.3,0.1,0.4-0.2,0.7-0.1c0.1,0,0.4-0.1,0.4-0.2c0.2,0.1,0.4-0.2,0.5-0.1l0.1-0.1c0.1,0,0.2,0.2,0.3,0.2
	c-0.1,0.2,0.1,0.4-0.2,0.5c-0.1,0.1,0.3,0.4-0.1,0.2c-0.1,0,0,0.1-0.1,0.2c-0.4,0.1-0.8,0.3-1.2,0.5c-0.4,0.1-0.9,0.3-1.3,0.4
	c-0.3,0-0.4,0.4-0.7,0.3c-0.5,0.1-0.9,0.4-1.5,0.5c-0.8,0.3-1.4,0.5-2.1,0.8c0,0-0.2,0-0.3,0c-0.7,0.3-1.3,0.4-2,0.7
	c-0.1,0.2-0.4,0.1-0.7,0.2c-0.3,0.1-0.7,0.2-0.9,0.5c-0.1-0.1-0.2,0-0.3,0c-0.1,0.1-0.3,0.1-0.3,0.2c0,0-0.1-0.1-0.1-0.1
	c-0.5,0.1-0.8,0.4-1.2,0.4c-0.1,0,0.1,0.1,0,0.1c-0.1-0.1-0.2,0-0.3,0c0,0.2-0.3-0.1-0.3,0.2c-0.2-0.1-0.3,0.1-0.4,0.1
	c-0.2,0.1-0.3,0.1-0.5,0.2c-0.1,0.1-0.4,0.1-0.5,0.2c-0.3,0-0.4,0.2-0.6,0.2c-0.2,0.1-0.4,0.2-0.6,0.2c-0.6,0.3-1.2,0.5-1.8,0.6
	c-0.4,0.2-0.8,0.4-1.3,0.5c-0.1,0-0.1,0.1-0.2,0.1c0-0.1-0.1,0.1-0.2,0.1c-0.4,0-0.6,0.2-1,0.3c-0.8,0.4-1.7,0.6-2.5,0.9
	C47.3,292.3,47.1,292.2,47.1,292.1L47.1,292.1z M92.6,290.1c-0.8-0.2-1.5-0.5-2.2-0.8c-0.4,0-0.8-0.4-1.2-0.4
	c-0.7-0.4-1.7-0.6-2.4-1c-0.2,0-0.4-0.2-0.7-0.2c-0.3-0.1-0.7-0.3-0.9-0.4c-0.6-0.1-1.1-0.5-1.6-0.6c-0.2,0-0.3-0.1-0.5-0.2
	c-0.6-0.2-1.1-0.5-1.7-0.7c-0.2-0.2-0.8-0.2-1.1-0.4c-0.1,0-0.1,0-0.2,0c0-0.1-0.2,0-0.3-0.2c-0.2,0-0.5-0.1-0.7-0.3
	c-0.3-0.1-0.6-0.2-0.9-0.3c0-0.2-0.2,0.1-0.3-0.2c-0.5-0.1-0.9-0.3-1.4-0.5c-0.4-0.1-0.7-0.4-1.1-0.4c-0.2,0-0.2-0.3-0.5-0.2
	c-0.4-0.2-0.7-0.4-1.2-0.4c-0.1-0.2-0.2-0.1-0.3-0.2c-0.4-0.3-0.9-0.4-1.4-0.5c-0.3-0.2-0.2-0.5-0.1-0.9c-0.1,0-0.1,0,0-0.1
	c0-0.9,0-1.5,0-2.4v-1.7c-0.2,0.1,0,0,0-0.1c0-0.2-0.1-0.3,0-0.4c0-0.3,0-0.5,0-0.8c0.3-0.1,0.7,0.2,1,0.4c0.7,0.2,1.3,0.6,2,0.9
	c0.3,0.2,0.5,0.5,0.7,0.7c0.2,0.3,0.5,0.5,0.9,0.6c0.1,0.2,0.4,0.2,0.5,0.5c0.3,0.2,0.6,0.2,0.8,0.5c0.4,0.4,1,0.6,1.4,0.9
	c0.3,0.1,0.5,0.5,0.9,0.6c0.4,0.5,1.1,0.6,1.6,1.2c1,0.6,1.7,1.2,2.7,1.8c0.2,0.3,0.6,0.3,0.8,0.6c0.6,0.4,1.2,0.7,1.8,1.2
	c1.7,1.2,3.5,2.4,5.2,3.7c0.6,0.3,1.2,0.7,1.8,1.2C93.5,290.5,93,290.3,92.6,290.1L92.6,290.1z M92.6,290.1"/>
<path class="st0" d="M74.6,275.1c-0.1,0.1-0.2-0.1-0.2-0.2c-0.3,0.2-0.5-0.1-0.7-0.2c-0.1,0,0-0.1-0.1-0.2c0.1,0,0-0.1,0.1-0.2
	c0,0-0.1-0.1-0.1-0.1v-1.7c0.9,0.3,1.8,0.8,2.7,1.2c0,0.7,0,1.4,0,2.1C75.7,275.7,75.2,275.4,74.6,275.1L74.6,275.1z M67.5,273.4
	l1.5-0.7c0.5-0.1,0.8-0.4,1.3-0.4c0,0.7,0,1.4,0,2.2c-0.9,0.4-1.9,0.8-2.8,1.1C67.4,274.8,67.5,274.1,67.5,273.4L67.5,273.4z
	 M67.5,273.4"/>
<path d="M56.5,312.1c0.1-1.1-0.1-1.2,0-2.3c-0.1-0.7-0.1-1.5,0-2.2c-0.1-0.2,0-0.2,0-0.4c0-0.4,0-0.8,0-1.3c0,0,0,0,0,0
	c0.1,0,0-0.1,0-0.2c0-0.6,0.1-1.1,0-1.7c0.1-0.6,0.1-1.2,0-1.9c0.1-0.1,0-0.4,0-0.5c0-0.1,0-0.2,0.1-0.3c0-0.3,0-0.7,0-1
	c0.1-0.5,0.2-1,0.5-1.4c0.2-0.2,0.4-0.4,0.5-0.7h0c-0.1-0.2,0.1-0.2,0.1-0.3c0.4-0.4,0.9-0.8,1.5-1c0.1-0.4,0.6-0.2,0.8-0.5
	c0.2-0.1,0.9-0.5,1.1-0.4c0.4-0.2,0.9-0.3,1.3-0.3c0,0,0,0,0.1-0.1c0.2,0.1,0.5,0.2,0.7,0.2c0.3,0,0.4,0.3,0.7,0.3
	c0.2,0,0.1,0.3,0.4,0.3c0.2,0.4,0.8,0.6,0.9,1.1c0.1,0.4,0.3,0.7,0.4,1.1c0.2,0.2,0,0.6,0.1,0.8c-0.1,1.2,0.1,2.5,0,3.8
	c0.1,0.4,0,0.8,0.1,1.2c-0.1,0.2,0,0.4-0.1,0.7c0.1,0.7,0.1,1.4,0,2.1c0.1,1.1,0,1.5,0,2.9c-0.5,0.2-0.9,0.3-1.4,0.3
	c-0.3,0.3-0.6,0.1-1,0.3c-0.5,0.2-1,0.3-1.6,0.4c-0.4,0.1-0.7,0.2-1.1,0.2c-0.7,0.2-1.5,0.4-2.3,0.6c-0.7,0.2-1.2,0.3-1.9,0.5
	C56.5,312.3,56.5,312.2,56.5,312.1L56.5,312.1z M56.5,312.1"/>
<path d="M49.1,250c-1.2,0.1-2.4,0.1-3.6-0.1c-0.5-0.1-1.3,0.2-1.8,0.1c0.4,0.4,1,0.7,1.4,1.1c0.9,0.9,1.8,1.7,2.8,2.5
	c0.4,0.1,0.7,0.6,1,0.9c0.2,0.3,0.4,0.6,0.7,0.7c0.2,0.3,0.4,0.6,0.7,0.8c0.5,0.8,1.3,1.3,1.6,2.1c0.1,0,0.2,0.1,0.2,0.2
	c0.1,0.1,0.1,0.2,0.2,0.3c0.2,0,0.1,0.3,0.2,0.4c-0.2,0-0.3-0.4-0.5-0.5c0-0.3-0.4-0.4-0.7-0.6c-0.6-0.3-0.9-0.9-1.5-1.1
	c-0.2,0.1-0.2-0.3-0.4-0.3c-0.4-0.7-1.4-0.9-1.9-1.5c-0.5-0.4-1-0.7-1.5-1c-0.1-0.1-0.2-0.2-0.2-0.3c-1.3-1-2.6-1.9-4-2.8
	c-0.6-0.5-1.2-0.9-1.9-1.1c-0.5,0-1,0-1.5,0c-0.1,0-0.1,0-0.2,0.1c0.5,0.7,1.2,1.3,1.8,2c0.3,0.2,0.3,0.7,0.7,0.8
	c-0.1,0.2,0.3,0.2,0.2,0.4c0.3,0.5,0.7,0.9,1.1,1.4c0.7,1.1,1.5,2.1,2.4,3.1c0.1,0.4,0.4,0.6,0.7,0.8c0.5,0.7,1,1.4,1.4,2.1
	c0.1-0.1,0.2,0,0.2,0.1c0.1,0.2,0.1,0.3,0.4,0.4c0,0,0,0.1,0,0.1c0.1,0,0.2,0,0.2,0.2c-0.1-0.1-0.4,0.2-0.3-0.1c0,0-0.1,0-0.1,0
	c-0.1,0,0,0,0-0.1c0.1,0,0,0,0-0.1c0,0-0.1,0,0,0.1c-0.2,0,0,0.1-0.1,0.2c-0.2-0.1-0.1-0.4-0.2-0.3c-0.1,0-0.1-0.1-0.1-0.2
	c0.1,0,0,0,0,0c-0.1,0-0.2-0.2-0.4-0.1c-0.2-0.4-0.7-0.7-0.8-1.1c-0.1,0-0.1,0-0.2,0c0-0.1-0.1-0.1-0.1-0.1
	c-0.2-0.3-0.5-0.7-0.8-0.9c0-0.1,0-0.1-0.1-0.1c-0.2-0.2-0.5-0.3-0.6-0.5c-0.4-0.4-0.9-0.8-1.3-1.2c-0.2-0.1-0.3-0.3-0.4-0.5
	c-0.4-0.2-0.8-0.6-1-1c-0.3-0.2-0.5-0.5-0.8-0.7c-0.3-0.3-0.6-0.6-0.9-0.9c-0.2-0.2-0.6-0.3-0.7-0.6c-0.6-0.5-1.1-1.1-1.8-1.5
	c-0.4-0.3-0.6-0.8-1.1-0.8c0.7,1.2,1.3,2.6,2.1,3.8c0.6,0.8,0.8,1.8,1.3,2.6c0.2,0.4,0.4,0.9,0.6,1.4c0.2,0.3,0.3,0.7,0.6,1
	c0.3,0.9,0.7,1.8,1.2,2.6c0.3,0.5,0.5,1,0.7,1.5c0.2,0.5,0.4,1,0.6,1.5c0.4,0.4,0.3,0.8,0.6,1.2c0,0.4,0.4,0.7,0.3,1.1
	c0.1,0.2,0.1,0.4,0.1,0.7c0.4,0.7,0.2,1.5,0.7,2.2c0,0.2-0.1,0.4-0.2,0.6c0,0.2,0.2,0.3,0.1,0.5c0,0.1-0.1,0.4-0.2,0.4
	c-0.1,0-0.2,0-0.3,0c-0.4-1.2-0.9-2.4-1.5-3.6c0-0.6-0.5-1.1-0.7-1.5c0-0.2-0.2-0.3-0.1-0.4c-0.1-0.1-0.2-0.2-0.3-0.3
	c0.1-0.2-0.3-0.3-0.2-0.5c-0.4-0.6-0.7-1.1-1-1.8c-0.1-0.2-0.1-0.3-0.2-0.5c-0.3-0.2-0.3-0.5-0.5-0.7c0.2-0.1-0.3-0.2-0.2-0.4
	c-0.3-0.4-0.5-1.1-0.9-1.5c-0.2-0.6-0.7-1.1-0.9-1.7c-0.2-0.2-0.3-0.3-0.4-0.5c0-0.4-0.2-0.5-0.4-0.8c-0.3-0.1-0.2-0.4-0.4-0.6
	c0.3-0.3-0.3,0-0.2-0.3c-0.4-0.5-0.7-1.1-1-1.7c-0.3-0.2-0.4-0.6-0.6-0.7c-0.1,0.5,0.2,0.9,0.2,1.4c0.1,0.8,0.2,1.5,0.4,2.3
	c0.1,0.4,0.2,0.7,0.3,1.1c-0.1,0.5,0.2,0.9,0.2,1.4c0,0,0.1,0,0.1,0.1c-0.1,0.1-0.1,0.1,0,0.1c0.1,0.8,0.4,1.7,0.6,2.5
	c0.1,0.7,0.2,1.3,0.4,1.9c0.5,0.5,0,1.3,0.5,1.8c0.1,0.6,0.1,0.9,0.2,1.5c0.2,0.9,0.2,1.7,0.4,2.6c0.2,0.5,0.2,0.9,0.3,1.4
	c0,0.5,0.1,1,0.3,1.5c-0.1,0.6,0.3,1.1,0.4,1.6c-0.1,0.3,0.2,0.6,0,0.8c0.2,0.2,0.2,0.5,0,0.7c0,0-0.1,0-0.2,0
	c0.1-0.1,0-0.4-0.1-0.5c-0.1,0,0-0.1,0-0.1c0.1,0.1,0,0,0,0c-0.4,0-0.4-0.6-0.7-0.6c0-0.1-0.1-0.1-0.1-0.2c0.1-0.1,0.3,0,0.2-0.2
	c-0.2,0-0.1-0.2-0.2-0.3c0.2,0,0-0.1,0-0.2c-0.2-0.3-0.2-0.7-0.4-1c-0.2-0.8-0.5-1.7-0.8-2.5c-0.4-1.6-0.9-3.1-1.5-4.6
	c-0.2-0.5-0.4-1.1-0.5-1.6c-0.3-0.4-0.5-0.9-0.7-1.4c-0.2-0.1-0.2-0.3-0.2-0.4c-0.1-0.1-0.2-0.3-0.2-0.5c0,0-0.1-0.1-0.1-0.1
	c0.2-0.1-0.1-0.1-0.2-0.2c0,0,0,0,0-0.1c0.2,0,0-0.1,0-0.2c-0.2-0.1-0.2-0.4-0.4-0.6c-0.1,0.6,0.4,1.3,0.2,1.9l0.2,1.7
	c0,0.8,0.1,1.6,0.2,2.4c-0.2,0.5,0.1,1.1,0,1.5c0,0.3,0.4,0.7,0,1.1c-0.2,0-0.3,0.2-0.5,0.1c-0.3-0.2-0.1-0.4-0.4-0.6
	c-0.3-1-0.7-2-1.1-2.9c-0.1-0.2-0.4-0.4-0.3-0.6c-0.1-0.6-0.4-1-0.7-1.6c-0.2-0.3-0.2-0.5-0.4-0.8c-0.4-0.6-0.4-1.2-0.8-1.8
	c-0.6-0.8-0.8-1.7-1.4-2.4c0.1-0.2-0.3-0.2-0.1-0.4c-0.2,0.1,0,0.5-0.1,0.7c0,0.2-0.1,0.5,0,0.6l0,1.7c0,0.3,0,0.6,0,0.8
	c-0.1,1.1,0.2,2.1,0,3l0.1,0.3c-0.1,0.8-0.1,1.6,0,2.4c-0.1,0.6-0.1,1.2,0.1,1.8c0.3,0.4,0.7,0.3,0.9,0.7c0.5,0.4,0.9,0.8,1.4,1.1
	c0.8,0.8,1.8,1.4,2.5,2.3c0.5,0.5,1.2,1.1,1.6,1.5c0.1,0.2,0.4,0.3,0.4,0.5c0.4,0.3,0.6,0.7,0.9,0.9c0.3,0.2,0.4,0.6,0.7,0.8
	c0.3,0.4,0.7,0.8,1,1.1c0.1,0.2,0.2,0.2,0.4,0.4c0.4,0.5,0.8,1,1.2,1.5c0,0.2,0.3,0.3,0.3,0.4c0.3,0.3,0.5,0.7,0.8,0.8
	c0.3,0.3,0.4,0.8,0.7,1c0.1,0.4,0.6,0.6,0.7,0.9c0,0,0,0,0.1,0c0,0.2,0.3,0.2,0.2,0.4c0.1,0.1,0.3,0,0.2,0.2
	c-0.1,0.1-0.2,0.2-0.4,0.1c0,0,0.1,0,0.1-0.1c-0.5,0,0-0.6-0.6-0.5c-0.2-0.1-0.3-0.4-0.6-0.6l-0.9-0.7c-0.8-0.7-1.4-1.2-2.2-1.7
	l-2.1-1.5c-1.3-0.9-2.5-1.6-3.6-2.4l0,0c0.5,0.5,0.6,1.1,1.2,1.6c0.2,0.3,0.3,0.6,0.5,0.9l0.3,0.6c0.1,0.1,0.3,0.2,0.2,0.4
	c0.6,1,1.1,2.1,1.7,3.1c-0.2,0.3,0.3,0.3,0.3,0.6c0.1,0.1,0.2,0.3,0.3,0.4c0.2,0,0,0.4,0.2,0.4c0,0.4,0.3,0.6,0.4,0.9
	c0.4,0.3,0.2,0.8,0.5,1.1c0.2,0.1,0.3,0.4,0.3,0.6c0.2,0.2,0.2,0.4,0.4,0.7c-0.1,0.4,0.4,0.5,0.1,0.8c0.2,0.2,0.2,0.5,0.1,0.7
	c-0.1,0.1-0.2,0.1-0.2-0.1c0.1-0.2-0.1-0.3-0.1-0.5c-0.4,0-0.6-0.4-0.8-0.7c-0.2-0.3-0.5-0.6-0.7-0.8c-0.3-0.2-0.4-0.5-0.7-0.8
	c-0.4-0.3-0.8-0.7-1.1-1.2l-1.5-1.5c-0.6-0.6-1.3-1.2-2-1.8c0,0,0,0.1,0,0.1c0.1,0.7,0.3,1.5,0.5,2.2c0.1,0.6,0.3,1.2,0.5,1.8
	c0.1,0.7,0.1,1.6,0.7,2.1c-0.1,0.2,0,0.6-0.2,0.8c-0.2,0-0.5,0.3-0.7,0c-0.7-0.8-1.5-1.6-2.3-2.3c-0.3-0.2-0.3-0.5-0.6-0.7
	c-0.1-0.2-0.4-0.3-0.4-0.5c-0.2-0.1-0.4-0.4-0.7-0.4c0,0.4,0,0.7,0,1.1c0,0.9,0,1.6,0,2.5c0.4,0.4,0.9,0.8,1.4,1.2
	c0.2,0.2,0.4,0.7,0.7,0.9c0.5,0.6,1,1.2,1.6,1.8c0,0.3,0.4,0.2,0.4,0.5c0.7,0.6,1,1.6,1.8,2.1c0.2,0.6,0.8,1,1.1,1.6
	c0.3,0.2,0.2,0.4,0.5,0.6c0.2,0.3,0.4,0.5,0.6,0.7c0.2,0,0.4,0.2,0.3,0.4c-0.1,0,0,0.1,0,0.1c0.1,0.2,0.4,0.2,0.3,0.4
	c0,0.1,0.1,0.2,0,0.2c-0.2-0.2-0.4-0.4-0.7-0.4c0,0,0-0.1-0.1-0.1c-0.1,0-0.2-0.2-0.3-0.3c-0.3-0.4-0.8-0.6-1.1-0.9
	c-0.7-0.3-1.2-0.9-1.8-1.2c0.2,0.1,0.1,0.4,0.3,0.5c0.2,0.5,0.4,1,0.4,1.5c0.2,0.5,0.5,1,0.6,1.5c0.1,0.2,0.2,0.5,0.3,0.8
	c0.3,0.6,0.4,1.2,0.7,1.8c0,0.2,0.3,0.3,0.2,0.4c0.2,0.1,0,0.4,0.3,0.5c0.1,0.4,0.4,0.9,0.4,1.2c0,0,0.1,0.1,0.1,0.1
	c-0.1,0.1,0.1,0.1,0.1,0.2c-0.1,0.5,0.5,0.9,0.4,1.4c0,0.1-0.1,0.2-0.1,0.2c-0.3,0-0.3-0.4-0.6-0.6c-0.5-0.7-0.9-1.5-1.3-2.4
	c-0.4-0.8-1.1-1.4-1.5-2.2c-0.2-0.2-0.4-0.4-0.5-0.7c-0.2-0.3-0.3-0.6-0.6-0.8c0-0.1-0.2-0.3-0.2-0.5c-0.2-0.4-0.6-0.5-0.7-0.9
	c-0.3-0.2-0.2-0.5-0.6-0.7c0-0.1-0.2-0.2-0.2-0.4c-0.3-0.2-0.4-0.4-0.6-0.7c-0.4-0.6-0.9-1.1-1.4-1.7c-0.2-0.1-0.2-0.1-0.2,0.1
	c0.2,0.1,0.1,0.2,0,0.4c0.1,1,0,2.1,0.1,3.1c0.3,0.5,0.7,1.2,1.2,1.8c0.4,0.6,0.6,1.2,1,1.8c0.3,0.5,0.6,1.1,0.9,1.6
	c0.2,0.4,0.2,0.9,0.6,1.3c-0.1,0.2,0,0.4-0.2,0.6c-0.1,0.2-0.4,0.2-0.5,0c-0.2-0.2-0.3-0.6-0.6-0.6c-0.7-0.6-2.8-2.2-3.5-2.8
	l0.2-54.3l22.9-0.1L49.1,250z M49.1,250"/>
<path d="M44.7,249.1l22.9-0.1l0.1,0.8c-0.3,0-0.7,0-1,0c-0.1,0.1-0.4-0.1-0.4,0c-0.2-0.1-0.4,0.1-0.5,0c-0.1,0.1-0.4,0-0.6,0
	c0.1-0.2-0.2,0.1-0.2,0c-0.4,0-0.9,0-1.3,0c-0.1,0.1-0.2,0.1-0.2,0c-0.3,0-0.6,0-0.9,0c-0.4,0-0.8,0-1.2-0.1c-0.2,0-0.4,0-0.6,0.1
	c0.2,0.1,0.1,0.3,0.2,0.4c-0.1,0.7,0.4,1.2,0.4,1.8c0.1,0.1,0,0.3,0.1,0.4c-0.1,0.1,0,0.2,0.1,0.4c0,0.4,0.3,0.8,0.3,1.3
	c0.2,0.1,0.1,0.2,0.1,0.4c0.1,0.4,0.2,0.9,0.2,1.3c-0.2,0.1,0.1,0.1,0,0.2c0,0-0.1,0-0.1,0c0.1-0.2-0.5-0.2-0.4-0.5
	c-0.6-1.1-1.3-2.3-1.9-3.4c-0.1,0-0.1-0.1-0.1-0.2c-0.4-0.6-0.9-1.2-1.3-1.8c-0.2-0.2-0.3-0.5-0.7-0.3c0-0.1-0.1,0-0.2,0v0
	c-0.1,0-0.1-0.1-0.2,0c-0.1,0.1-0.2,0-0.3,0c-0.2,0.1-0.4,0-0.6,0c0,0-0.3,0-0.1,0.2c0,0,0,0.1,0,0.1c0.2,0.3,0.3,0.6,0.4,1l0.3,0.6
	c0,0.3,0.2,0.4,0.3,0.7c0.1,0.1,0.2,0.3,0.3,0.4c0,0,0.2,0.1,0,0.2c0.1,0.1,0.2,0,0.2,0.1c-0.1,0.1,0.1,0.2,0.1,0.3
	c0.1,0,0.1,0.1,0.1,0.2c0,0.3,0.3,0.5,0.4,0.7h0c-0.2,0.1,0.4,0.2,0,0.3c0.1,0.1,0.1,0.2,0.2,0.4c-0.2,0,0.1,0.1,0.1,0.2
	c0,0,0.1,0.1,0.1,0.2l-0.1,0c0.1,0.1,0.1,0.2,0.2,0.3c0,0-0.1,0.2,0.1,0.2c0,0.2,0.2,0.4,0.2,0.6c0.2,0.1,0.1,0.2,0.2,0.4
	c0,0.1,0,0.1-0.1,0.1c-0.1,0,0.1,0,0.1,0c-0.2,0.3,0.4,0.3,0.2,0.6c0,0.1,0.2,0.2,0,0.4c-0.1,0.1,0-0.1,0-0.1c0-0.1-0.2-0.1-0.1-0.2
	c0-0.2-0.2,0-0.3-0.1c-0.3-0.5-0.6-1-0.9-1.4c-0.1-0.5-0.7-0.9-0.9-1.5c-0.6-1.1-1.7-2.2-2.3-3.3c-0.4-0.5-0.7-0.9-1.2-1.3
	c-0.3,0.1-0.6-0.1-0.9,0.1c-0.1,0,0-0.2-0.1-0.1c0,0-0.1,0.1-0.1,0.1c-0.2,0-0.4,0.1-0.6,0c0,0-0.4-0.1-0.2,0.1
	c0.3,0.1,0.1,0.5,0.3,0.6h0c0.2,0.1,0,0.4,0.2,0.5c0.3,0.2,0.2,0.6,0.4,0.8c0.2,0.6,0.5,1.2,0.6,1.7c0.2,0.1,0,0.3,0.2,0.3
	c0,0.5,0.2,1,0.4,1.5c0,0.3,0.1,0.6,0.2,0.9c0.1,0.2,0.2,0.5,0.2,0.8c0.1,0.2,0.2,0.5,0.1,0.7c0.2,0.2,0.1,0.5,0.2,0.7
	c0.1,0.2,0,0.5,0.2,0.7c0.1,0.2,0,0.4-0.1,0.5c-0.2,0.1,0-0.2-0.2-0.1c-0.1-0.2-0.3-0.3-0.4-0.5c0-0.2-0.2-0.3-0.2-0.5
	c-0.2-0.6-0.5-1.2-0.8-1.8c-0.2-0.6-0.5-1.3-0.8-1.8l-0.8-1.6c-0.1-0.2-0.2-0.3-0.3-0.5c-0.1-0.3-0.3-0.5-0.4-0.7
	c-0.2-0.4-0.4-0.6-0.6-1c-0.3-0.4-0.6-0.9-0.9-1.3c-0.2-0.1-0.5,0.1-0.7,0c-0.1,0.1-0.2-0.1-0.3,0c0.2,0.7,0.3,1.4,0.3,2.2
	c0.2,0.4,0.1,0.8,0.1,1.2c0,1,0.1,2.1,0.2,3.1c-0.2,0.4,0.2,0.9,0,1.3c0.1,0.7,0.1,1.3,0,2c-0.1,0.3,0,0.6-0.1,0.8
	c-0.2,0.3,0.2,1-0.5,1c0,0,0,0,0,0.1c-0.1,0-0.2,0-0.3-0.1c0-0.1,0-0.3,0-0.4c0-0.8-0.1-1.5-0.4-2.3c0-0.6-0.1-1.1-0.3-1.7
	c0,0-0.1,0-0.1-0.1c0-0.1,0-0.1,0.1-0.1c0.1-0.2,0-0.4-0.1-0.5c0,0,0,0.1-0.1,0.1l0-0.1c0,0,0-0.1,0.1-0.1v0l-0.3-1.5
	c-0.2-0.6-0.3-1.2-0.3-1.8c-0.2-1-0.4-2-0.8-2.9c0-0.1,0.1-0.3-0.1-0.4h-1 M93.6,263.1c0.1,0.3,0,0.4,0.2,0.7c0-0.1,0.1,0,0.2,0
	c-0.1,0.2,0.1,0.3,0.2,0.4c0.1,0.1,0.3-0.1,0.4-0.5c-0.1-0.1,0-0.3,0.1-0.4c0.1,0,0.2-0.9,0.3-0.9l0.1-0.9c0-0.3-0.1-0.5-0.1-0.9
	c0.2-0.3-0.2-1.3-0.1-1.6l-0.2-1.9c0-0.5-1.3-3.6-0.7-3.3c0.1,0.4,0.7,0.9,1,1.5c0.2,0.3,0.3,0.7,0.5,1.1l0.4,0.8
	c0.3,1,0.7,1.9,0.7,2.2c0.2,0.3,0.2,0.9,0.4,1.2c0,0.4,0.1,0.7,0.2,1c0,0.5,0.1,0.9,0.3,1.3c0.2,0,0.3-0.3,0.4-0.3
	c0-0.7,0.2-1.7,0.2-2.4l-0.3-1.8c-0.4-1.9-1-3.7-1.7-5.5c-0.4-0.8-0.5-1.3-0.2-1.3c0.7,0.5,1.5,1.5,2.3,2.1c0.3,0.1,1,1.2,1.3,1.4
	c0.7,0.5,1.3,1.2,1.8,1.9c1,0.9,1.9,2,2.5,3.2c0.2,0.1,0.4,0,0.4-0.2c-0.4-0.7-0.4-1.4-0.8-2c-0.1-0.3-0.2-0.4-0.2-0.7
	c-0.4-0.4-0.3-1-0.7-1.2c-0.1-0.4-0.3-0.8-0.5-1.2c-0.3-0.7-0.7-1.4-1.1-2c0-0.4-0.3-0.4-0.3-0.7c-0.1-0.1-0.2-0.3-0.3-0.4
	c0-0.3-0.2-0.4-0.2-0.6c-0.4-0.2-0.4-0.5-0.5-0.7c0-0.1,0.2,0,0.2-0.1c0.1,0.2,0.2,0,0.3,0c0.5,0,1,0,1.5-0.1
	c0.2,0.3,0.4-0.1,0.6,0.1c0.3,0.2,0.4,0.6,0.7,0.7c-0.1,0.2,0.1,0.1,0.2,0.2l2.5,2.6c0,0.2,0.3,0.2,0.3,0.4c0.5,0.3,0.4,0.7,0.9,1
	c0,0.1,0,0.1,0,0.2c0-0.2,0.2,0.2,0.2,0.3c0.2,0.2,0.4,0.5,0.6,0.7c0.3,0-0.1,0.3,0.3,0.4c0,0.1,0,0.1,0.1,0.2
	c0.1,0,0.2,0.2,0.3,0.2c0,0.2,0.1,0.4,0.2,0.5c0,0,0.1,0,0.1,0c0,0.1,0.1,0,0.1,0.2c0.3,0.2,0.2,0.2,0.4,0.4c0-0.2,0,0.1,0,0.2
	c0,0.1,0.1,0,0.2,0.1c0.1-0.2,0-0.1,0,0c-0.1,0,0,0,0,0.1c0,0.3,0.5,0.1,0.4,0.4h0.1c0.1,0-0.1-0.1,0.1-0.1c0.2,0.1,0,0.4,0.2,0.4
	c0.1-0.2,0.1,0.2,0.2,0.2c0.1,0.2,0.3,0.4,0.5,0.6c-0.1,0.2,0.1,0.3,0.2,0.4c0.2,0.1,0.1,0.4,0.4,0.3c0.2,0,0.2,0.4,0.5,0.2
	c0.2-0.2,0-0.5-0.1-0.7c0-0.1-0.3-0.3-0.1-0.4c-0.1-0.1-0.2,0-0.2-0.2h0c-0.1-0.2-0.2-0.4-0.4-0.6c-0.2-0.6-0.5-1.1-0.7-1.7
	c-0.7-0.8-1-1.7-1.7-2.5c-0.5-0.6-1-1.3-1.4-2c-0.3-0.2-0.3-0.6-0.7-0.8c-0.2-0.3-0.4-0.6-0.6-0.9c-0.2-0.3-0.3-0.6-0.5-0.8
	c-0.1-0.1-0.2-0.1-0.1-0.3c0.4,0,0.8,0.1,1.3,0l1,0c0,0.2,0.3,0.2,0.4,0.4c0.2,0.2,0.4,0.3,0.6,0.5c0.2,0,0.2,0.3,0.4,0.4
	c0.4,0.4,0.8,0.8,1.1,1.2c0.1,0,0.3,0.1,0.2,0.2c0.3,0.5,0.7,0.8,1,1.3c0.3,0.3,0.6,0.7,0.9,1.1c0.1,0.1,0.3,0.4,0.4,0.4
	c0,0,0,0.1,0,0.1c0.1,0,0.1,0.2,0.2,0.2c0,0.1,0,0.1,0.1,0.2c0.1,0,0.1-0.1,0.1,0c-0.2,0.2,0.1,0.3,0.2,0.4c0.2,0.2,0.4,0.4,0.5,0.7
	c0.2,0.1,0.2,0.3,0.3,0.5c0.1,0.1,0.1,0.3,0.3,0.2c-0.3,0,0.1,0.2,0,0.4c0.3,0,0.1,0.3,0.2,0.3c0.2,0.1,0.1,0.5,0.3,0.4
	c0-0.2-0.1-0.3-0.2-0.4c-0.2-0.2,0.3-0.3,0-0.2c-0.4-0.2,0.6-0.1-0.1-0.2c0.2-0.1-0.1-0.1,0-0.2c0,0-0.1,0-0.1,0
	c0,0,0.1-0.1,0.1-0.1c-0.1,0,0,0,0-0.1c0-0.3-0.4-0.4-0.3-0.7c-0.4-0.7-0.7-1.4-0.9-2.2c-0.2-0.4-0.4-0.8-0.6-1.2
	c-0.4-0.9-0.9-1.7-1.5-2.5c-0.2-0.2-0.3-0.5-0.5-0.8c0-0.2,0.3,0.1,0.4-0.1c0,0,0.1,0.1,0.1,0c0.6,0.1,1.1,0.1,1.7,0
	c0,0,0.1,0.1,0.2,0c0.1-0.2,0.2,0.1,0.3,0c0.1,0,0.5,0,0.7,0c0.2-0.1,0.4,0,0.6,0c0.1,0.1,0.1,0,0.2,0l-0.1-1L78.1,249l0.3,1
	c1.3,0.1,2.6,0,3.9,0c0.3,0.4,0.9,0.6,1.1,1c0.6,0.3,0.7,0.8,1.1,1c0.5,0.6,1,1.2,1.4,1.8c0.4,0.1,0.3,0.8,0.8,0.7
	c0-0.1,0.1-0.2,0.2-0.2c0-0.3,0.1-0.6-0.2-0.7c0-0.2-0.2-0.5-0.2-0.7c-0.4-0.7-0.7-1.6-1.1-2.4c0-0.1,0.1-0.2,0.1-0.2
	c0.1,0.1,0.4,0,0.5,0c0-0.1,0.2,0,0.2-0.1c0.2,0.1,0.3,0,0.4,0.1c0-0.2,0.4,0.2,0.4-0.1c0.6,1,1.6,1.3,2,2.3
	c0.5,0.5,0.9,1.1,1.1,1.8c0.1,0.3,0.8,1.1,0.8,1.4c0.3,0.2,0.4,0.9,0.7,1.2c0,0.3,0.5,0.5,0.5,0.8l0.5,1.6c0,0.4,0.4,0.8,0.4,1.1
	c0.1,0.2,0.1,0.5,0.2,0.8L93.6,263.1z M93.6,263.1"/>
<path class="st6" d="M122.1,399.9H21.3V245.2h100.8V399.9z M22.2,399h99.1V246.1H22.2V399z M22.2,399"/>
<path class="st0" d="M82.7,311c-0.7-0.2-0.9-0.2-1.4-0.4c-0.2-0.1-0.4-0.1-0.6-0.2c-0.1,0-1.3-0.4-1.5-0.4l0-2.1v-1.3
	c0-0.3-0.1-0.6,0-0.9c0-0.1,0.1-1.1,0-1.2c0-0.6,0.1-0.6,0-1.2c0.1-0.4,0.1-0.7,0-1.1c0.1-0.1,0-0.4,0-0.6c0-0.1,0-0.6,0-0.6
	c-0.1-0.2-0.1-0.4,0-0.7c-0.1-0.1,0-0.1,0-0.4c0.1-0.4,0-0.5,0-0.5c0-0.1,0-0.2,0-0.4c0,0,0-0.1,0-0.1v-0.4c0-0.5,0.1-1,0.3-1.5
	c0.3-0.6,0.9-1.1,1.5-1.4c0.4,0.1,0.8,0.3,1.2,0.6c0.3,0.3,0.6,0.7,0.7,1.1c0.1,0.4,0.2,0.7,0.2,1.1c0,0.3,0.1,0.6,0,0.9
	c0,0.2,0,0.9,0,1.1v3.8c0.1,0.3,0,0.6,0,1.1v0.7c0.1,0.8,0,1.4,0,2.2c0.1,1,0.1,2,0,3L82.7,311L82.7,311z M64.2,310.6
	c-0.1-1.1,0-13.5,0.1-13.4c-0.5-0.3-1-0.5-1.6-0.5c-0.1,0-0.3,0.1-0.3,0.1c-0.2,0.1-0.4,0.1-0.6,0.2c-0.3,0.2,0,0.1-0.3,0.2
	c-0.2,0.1-0.4,0.3-0.6,0.4c-0.3,0.3-0.6,0.6-0.8,1c-0.2,0.3-0.3,0.7-0.4,1c0,0.3-0.1,0.6-0.1,1c0.1,1.3-0.1,2,0,3.3
	c-0.1,0.4,0.1,0.9,0,1.3c0.1,0.2-0.1-0.1,0,0.2c-0.1,0.7-0.1,1.4,0,2.1c-0.1,1.1,0.1,3.1,0,4.4C61.2,311.3,64,310.6,64.2,310.6
	L64.2,310.6z M64.2,310.6"/>
<path d="M614.6,245.9c6,0,8.9,7.3,4.7,11.5c-4.3,4.2-11.5,1.1-11.4-4.9C607.9,248.8,610.9,245.8,614.6,245.9L614.6,245.9z
	 M614.6,258.3c3.1,0,5.6-2.6,5.5-5.8c0-3-2.5-5.5-5.5-5.5c-3.1,0-5.5,2.5-5.5,5.5C608.9,255.7,611.5,258.3,614.6,258.3L614.6,258.3z
	 M612,248.7h3c1.9,0,2.8,0.7,2.8,2.2c0.1,1.2-0.9,2.1-2.1,2.1l2.2,3.5h-1.3l-2.1-3.4h-1.3v3.4H612L612,248.7z M613.2,252.1h1.3
	c1.1,0,2.1-0.1,2.1-1.3c0-1-0.9-1.2-1.7-1.2h-1.6V252.1z M131.2,386.6c5.9,0,8.9,7.2,4.7,11.4c-4.2,4.2-11.4,1.2-11.4-4.7
	C124.4,389.5,127.5,386.5,131.2,386.6L131.2,386.6z M131.2,399c5.1,0.2,7.9-6,4.3-9.7c-3.6-3.7-9.8-1.2-9.8,3.9
	C125.5,396.4,128,399,131.2,399L131.2,399z M128.6,389.4h3c1.9,0,2.8,0.7,2.8,2.2c0.1,1.2-0.9,2.2-2.1,2.1l2.2,3.4h-1.3l-2.1-3.4
	h-1.3v3.4h-1.2V389.4z M129.8,392.8h1.3c1.1,0,2.1-0.1,2.1-1.3c0-1-0.9-1.2-1.7-1.2h-1.6V392.8z M129.8,392.8"/>
</svg>
