<svg version="1.2" xmlns="http://www.w3.org/2000/svg" viewBox="0 0 800 300" width="800" height="300">
	<style>
		.s0 { fill: #221f1f } 
	</style>
	<path id="Vobile" fill-rule="evenodd" class="s0" d="m352.65 100.38h0.02c8.01 0 13.54 8.02 10.7 15.5l-32.05 86.6c-2.74 7.2-9.64 11.96-17.35 11.96-7.7 0-14.61-4.76-17.34-11.96l-32.1-86.6c-2.85-7.48 2.68-15.5 10.69-15.5 4.87 0 9.21 3.09 10.81 7.7l27.85 80.24 27.97-80.27c1.61-4.59 5.94-7.67 10.8-7.67zm89.39 101.03q-13.41 13.32-32.73 13.32-19.33 0-32.66-13.32-13.32-13.32-13.32-32.65 0-19.33 13.32-32.65 13.33-13.32 32.66-13.32 19.32 0 32.73 13.32 13.41 13.32 13.41 32.65 0 19.33-13.41 32.65zm-49.54-15.41q6.7 6.79 16.81 6.79 10.09 0 16.89-6.79 6.79-6.79 6.79-17.24 0-10.45-6.79-17.24-6.8-6.79-16.89-6.79-10.11 0-16.81 6.79-6.71 6.79-6.71 17.24 0 10.45 6.71 17.24zm192.78-71.22q-5.5-0.05-9.54-4.1-4.1-4.09-4.1-9.66 0-5.57 4.1-9.75 4.08-4.18 9.66-4.18 5.75 0 9.84 4.18 4.09 4.18 4.09 9.75 0 5.29-3.68 9.24c-2.66 2.85-6.48 4.55-10.37 4.52zm-11.02 87.22v-66.48c0-5.68 4.61-10.29 10.3-10.29h1.86c5.69 0 10.3 4.61 10.3 10.29v66.48c0 5.68-4.61 10.29-10.3 10.29h-1.86c-5.69 0-10.3-4.61-10.3-10.29zm41-0.94v-104.66c0-6.2 5.03-11.23 11.23-11.23 6.2 0 11.23 5.03 11.23 11.23v104.66c0 6.21-5.03 11.23-11.23 11.23-6.2 0-11.23-5.02-11.23-11.23zm-148.45-36.54v-68.11c0-6.21 5.02-11.24 11.23-11.24 6.2 0 11.23 5.03 11.23 11.24v32.58c6.91-4.1 14.72-6.2 23.48-6.2q19.32 0 32.73 13.32 13.41 13.32 13.41 32.65 0 19.33-13.41 32.65-13.41 13.32-32.73 13.32-19.33 0-32.66-13.32-13.32-13.32-13.32-32.65zm69.62 4.24q0.01-10.45-6.79-17.24-6.79-6.79-16.89-6.79-10.1 0-16.8 6.79-6.71 6.79-6.71 17.24 0 10.45 6.71 17.24 6.7 6.79 16.8 6.79 10.1 0 16.89-6.79 6.8-6.79 6.79-17.24zm197.99 29.42c-16.36 17.57-50.46 17.18-67.34 3.32-9.83-8.08-15.57-19.64-16.35-32.3-0.78-12.49 3.66-24.9 12.18-34.06 13.91-14.94 35.43-18.77 53.67-9.65 5.78 2.89 10.96 8 11.79 15.22 0.82 7.22-4.24 12.88-10.18 15.93l-43.49 22.55c12.08 18.56 32.75 13.99 44.5 4.52 4.54-3.67 10.94-4.45 15.22-0.54 4.28 3.91 4.2 10.42 0.28 14.71q-0.14 0.15-0.28 0.3zm-30.36-55.44c-9.02-2.89-19.16-0.39-25.77 6.71-4.68 5.03-7.02 11.58-6.6 18.44 7.08-4.69 32.37-25.15 32.37-25.15zm-635.01-61.54c16.23-14.39 37.52-23.2 60.91-23.2 13.49 0 26.26 2.98 37.8 8.2-14.44-0.32-33.54 15.9-42.73 29.34-2.05 2.98-4.09 6.14-5.95 9.12-13.78 22.69-21.58 44.46-26.24 63.8-12.83-19.53-20.64-45.01-23.44-62.69-2.26-14.35-1.66-20.69-0.35-24.57zm152.86 68.76c0 50.78-41.17 91.95-91.95 91.95-50.78 0-91.95-41.17-91.95-91.95 0-15.96 4.07-30.97 11.23-44.05-0.95 8.61 1.72 29.77 7.52 49.72 4.83 17.11 23.81 69.02 53.01 59.9 3.72-1.12 6.89-2.98 9.31-5.58 2.97-2.97 5.01-7.25 6.5-12.84 5.03-20.46 9.87-42.22 16.75-58.97 6.7-16.74 17.11-38.88 35.72-51.53 3.45-2.2 9.6-4.59 13.91-4.42 18.36 16.82 29.95 40.91 29.95 67.77zm-169.05-50.01c0.92-1.42 1.92-2.8 2.92-4.17-2.97 20.6 17.47 93.67 39.48 104.49 2.42 1.12 6.52 1.49 8.94-0.18 2.41-1.68 4.96-5.79 6.06-8.96 2.24-7.06 3.05-12.43 5.1-19.5 1.3-4.47 2.41-8.93 3.72-13.03 6.69-21.02 13.39-35.9 22.69-51.34 10.08-17.2 28.53-32.24 41.85-31.87 1.54 1.11 3.09 2.21 4.57 3.42-4.84-0.62-12.59 1.85-18.14 6.13-18.04 13.76-29.21 34.04-38.32 58.6-5.21 13.57-8.75 28.09-12.65 42.04-0.56 2.42-1.31 4.84-2.05 7.25-2.05 7.26-5.96 12.28-10.24 13.77-24.18 9.3-41.66-39.44-45.76-53.2-3.36-10.75-10.28-40.84-8.17-53.45zm7.5-9.97c1.37-1.59 2.75-3.16 4.22-4.65-0.8 3.88-0.68 9.56-0.38 15.05 3.53 28.46 12.65 55.62 26.6 78.13 2.79 3.91 5.76 3.91 6.7 1.49 1.11-3.16 1.86-7.44 2.42-9.86 4.65-16.74 10.6-34.79 19.16-51.53 5.01-9.86 10.97-19.16 17.85-27.72 9.52-11.59 23.33-22.98 35.54-22.42 1.7 0.89 3.34 1.86 4.98 2.85-9.56-0.24-28.36 10.77-41.63 31.1-6.33 9.68-11.91 20.47-16.74 31.63-6.51 15.44-11.73 32-15.82 48.37-1.3 4.83-2.42 7.07-5.76 7.81-16.05 2.62-42.47-77.76-37.14-100.25zm688.66 16.47c-7.49 0-13.53-5.92-13.53-13.25 0-7.33 6.04-13.25 13.53-13.25 7.48 0 13.53 5.92 13.53 13.25 0 7.33-6.05 13.25-13.53 13.25zm10.16-13.33c0-5.82-4.54-10.52-10.16-10.52-5.62 0-10.16 4.7-10.16 10.52 0 5.82 4.54 10.52 10.16 10.52 5.62 0 10.16-4.7 10.16-10.52zm-12.21 6.91h-3.05v-13.17c1.21-0.25 2.89-0.41 5.06-0.41 2.49 0 3.61 0.41 4.58 0.97 0.72 0.56 1.28 1.6 1.28 2.89 0 1.44-1.12 2.57-2.73 3.05v0.16c1.28 0.48 2.01 1.45 2.41 3.21 0.4 2.01 0.64 2.82 0.96 3.3h-3.29c-0.4-0.48-0.64-1.69-1.04-3.21-0.24-1.45-1.05-2.09-2.73-2.09h-1.45zm0.08-7.47h1.45c1.68 0 3.05-0.56 3.05-1.93 0-1.2-0.89-2.01-2.81-2.01-0.81 0-1.37 0.08-1.69 0.16z"/>
</svg>