<svg width="176" height="56" viewBox="0 0 176 56" fill="none" xmlns="http://www.w3.org/2000/svg">
<path d="M4.76279 30.6793V35.272" stroke="#134C2C" stroke-linecap="round"/>
<path d="M23.4196 13.4041C24.0641 13.4041 24.6207 13.4919 25.0895 13.6677C25.5699 13.8318 25.8805 14.0896 26.0211 14.4412C26.7828 16.4451 27.5387 18.6423 28.2887 21.033C29.0504 23.4119 29.7887 25.8201 30.5035 28.2576C31.2067 30.5896 31.8864 32.7986 32.5426 34.8845C32.6129 35.0837 32.4371 35.3708 32.0153 35.7458C31.6051 36.1208 31.0602 36.49 30.3805 36.8533C29.7008 37.2166 28.9977 37.4861 28.2711 37.6619C27.5446 37.8259 26.9 37.8083 26.3375 37.6091C25.775 37.3982 25.4117 36.9119 25.2477 36.1501L24.4742 31.7556C24.4742 31.7556 24.4508 31.6208 24.4039 31.3513C24.3571 31.0818 24.275 30.7771 24.1578 30.4373C24.0524 30.0857 23.9117 29.781 23.736 29.5232C23.5602 29.2654 23.3492 29.1306 23.1031 29.1189C22.8453 29.1423 22.6285 29.2947 22.4528 29.5759C22.277 29.8572 22.1364 30.1853 22.0309 30.5603C21.9254 30.9236 21.8492 31.2517 21.8024 31.5447C21.7555 31.8376 21.7321 31.9841 21.7321 31.9841L21.152 35.9392C20.9879 36.8533 20.5309 37.4158 19.7809 37.6267C19.0309 37.8376 18.1989 37.8318 17.2848 37.6091C16.3824 37.3865 15.609 37.0876 14.9645 36.7126C14.3317 36.3259 14.0387 35.9919 14.0856 35.7107C14.8239 32.8748 15.527 29.9568 16.1949 26.9568C16.652 24.8826 17.1207 22.8494 17.6012 20.8572C18.0934 18.8533 18.6149 16.9548 19.1656 15.1619C19.3414 14.5994 19.8512 14.1658 20.6949 13.8611C21.5504 13.5447 22.4586 13.3923 23.4196 13.4041ZM23.2086 20.5935C23.1969 20.5935 23.1793 20.5935 23.1559 20.5935C22.8981 20.6287 22.693 20.7751 22.5406 21.033C22.4 21.2908 22.2946 21.6013 22.2242 21.9646C22.1539 22.3279 22.1071 22.697 22.0836 23.072C22.0602 23.4353 22.0485 23.74 22.0485 23.9861C22.0602 24.2322 22.066 24.3552 22.066 24.3552L24.3512 24.2673C24.3512 24.2673 24.3512 24.1443 24.3512 23.8982C24.3512 23.6521 24.3336 23.3474 24.2985 22.9841C24.275 22.6208 24.2223 22.2576 24.1403 21.8943C24.0699 21.531 23.9586 21.2263 23.8063 20.9802C23.6539 20.7341 23.4547 20.6052 23.2086 20.5935ZM40.9625 13.0701C42.2867 13.0701 43.3942 13.2048 44.2848 13.4744C45.1871 13.7439 45.9606 14.0896 46.6051 14.5115C47.484 15.1677 48.111 16.0056 48.486 17.0251C48.861 18.0447 48.9196 19.0232 48.6617 19.9607C48.4156 20.8865 47.7887 21.8005 46.7809 22.7029L45.234 24.0564C46.0192 24.2556 47.0153 24.613 48.2223 25.1287C48.5856 25.2458 48.9723 25.5095 49.3824 25.9197C49.7926 26.3298 50.109 26.9568 50.3317 27.8005C50.566 28.6443 50.5895 29.7693 50.402 31.1755C50.2145 32.5115 49.7106 33.6599 48.8903 34.6208C48.0699 35.5701 47.0504 36.3083 45.8317 36.8357C44.6246 37.363 43.3239 37.656 41.9293 37.7146C40.441 37.7029 39.0817 37.5037 37.8512 37.1169C36.6207 36.7185 35.8004 36.1794 35.3903 35.4998C34.9801 34.8083 34.5817 33.6072 34.1949 31.8962C33.9254 29.8572 33.7614 27.6541 33.7028 25.2869C33.6442 22.908 33.6559 20.3708 33.7379 17.6755C33.8199 15.2146 33.984 13.9255 34.2301 13.8083C34.4879 13.6794 34.8746 13.5564 35.3903 13.4392C35.9176 13.322 37.236 13.2224 39.3453 13.1404C39.9196 13.0935 40.4586 13.0701 40.9625 13.0701ZM41.3668 16.8318C41.3317 16.8318 41.2965 16.8318 41.2614 16.8318C40.8512 16.8552 40.4938 16.949 40.1891 17.113C39.8961 17.2654 39.7496 17.4646 39.7496 17.7107V20.9451C39.7496 21.2615 39.9254 21.4548 40.277 21.5251C40.6403 21.5837 41.0621 21.531 41.5426 21.3669C42.0348 21.1912 42.4684 20.8923 42.8434 20.4705C43.2184 20.0486 43.4176 19.5037 43.441 18.8357C43.4176 18.1208 43.1949 17.6111 42.7731 17.3064C42.3512 16.99 41.8824 16.8318 41.3668 16.8318ZM41.736 27.2205C41.15 27.2205 40.6578 27.3376 40.2594 27.572C39.861 27.7947 39.6617 28.1228 39.6617 28.5564L39.9606 32.4236C40.0778 32.8806 40.3883 33.1912 40.8922 33.3552C41.4078 33.5193 41.9762 33.5193 42.5973 33.3552C43.2301 33.1912 43.7809 32.8513 44.2496 32.3357C44.7301 31.8083 44.9996 31.0994 45.0582 30.2087C45.0699 29.5173 44.9059 28.9548 44.566 28.5212C44.2379 28.0759 43.816 27.7478 43.3004 27.5369C42.7848 27.3259 42.2633 27.2205 41.736 27.2205ZM62.2496 15.6716C62.7535 15.6833 63.2692 15.7302 63.7965 15.8123C65.4957 16.0349 66.902 16.574 68.0153 17.4294C69.1285 18.2849 69.9664 19.3279 70.5289 20.5583C71.0914 21.7888 71.3903 23.0779 71.4254 24.4255C71.4606 25.7732 71.2555 27.0447 70.8102 28.24C70.5992 28.7322 70.2125 29.365 69.65 30.1384C69.0875 30.9001 68.3551 31.6853 67.4528 32.4939C66.5504 33.3025 65.484 34.0115 64.2535 34.6208C63.0231 35.2302 61.6403 35.6287 60.1051 35.8162C58.6403 36.0857 57.2867 35.9802 56.0446 35.4998C54.8024 35.0076 53.7653 34.0642 52.9332 32.6697C52.1012 31.2751 51.5563 29.3474 51.2985 26.8865C51.2633 24.988 51.7321 23.1892 52.7047 21.49C53.6891 19.7791 55.0133 18.3845 56.6774 17.3064C58.3531 16.2283 60.2106 15.6833 62.2496 15.6716ZM64.2711 22.5798C63.6969 22.5564 62.8942 22.9138 61.8629 23.6521C60.2457 25.1287 59.1676 26.3708 58.6285 27.3787C58.0895 28.3748 58.0016 29.0603 58.3649 29.4353C58.7281 29.7986 59.443 29.7693 60.5094 29.3474C61.5758 28.9138 62.9059 28.0056 64.4996 26.6228C64.9332 26.0486 65.2203 25.4568 65.361 24.8474C65.5133 24.2263 65.5016 23.699 65.3258 23.2654C65.15 22.8318 64.7985 22.6033 64.2711 22.5798ZM72.1461 14.7224C72.1813 14.4763 72.5446 14.2478 73.236 14.0369C73.9274 13.8259 74.7242 13.6853 75.6266 13.615C76.5406 13.5447 77.3375 13.6091 78.0172 13.8083C78.7086 13.9958 79.0602 14.3708 79.0719 14.9333L78.861 28.2576C78.861 28.2576 78.861 28.3689 78.861 28.5916C78.861 28.8025 78.8844 29.0662 78.9313 29.3826C78.9781 29.699 79.066 30.0212 79.1949 30.3494C79.3356 30.6775 79.5348 30.9587 79.7926 31.1931C80.0504 31.4275 80.3961 31.5681 80.8297 31.615C81.3688 31.6501 81.7848 31.533 82.0778 31.2634C82.3824 30.9822 82.5992 30.6365 82.7281 30.2263C82.8688 29.8162 82.9508 29.4294 82.9742 29.0662C82.9977 28.7029 83.0094 28.4685 83.0094 28.363C83.0094 28.2576 83.0387 27.5427 83.0973 26.2185C83.1559 24.8943 83.2203 23.406 83.2906 21.7537C83.361 20.1013 83.4196 18.6423 83.4664 17.3767C83.525 16.0994 83.5543 15.4607 83.5543 15.4607C83.6012 14.781 83.9645 14.365 84.6442 14.2126C85.3356 14.0603 86.1266 14.072 87.0172 14.2478C87.9078 14.4236 88.6871 14.658 89.3551 14.9509C90.0231 15.2439 90.3629 15.4841 90.3746 15.6716C90.3395 16.949 90.316 18.2263 90.3043 19.5037C90.3043 21.4373 90.2574 23.3767 90.1637 25.322C90.0699 27.2556 89.859 29.2126 89.5309 31.1931C89.2145 32.4939 88.6051 33.6482 87.7028 34.656C86.8004 35.6638 85.7574 36.4431 84.5739 36.9939C83.402 37.533 82.2535 37.7732 81.1285 37.7146C78.6442 37.5154 76.6227 36.8884 75.0641 35.8337C73.5055 34.7673 72.6735 33.4138 72.568 31.7732C72.2516 28.8904 72.0699 26.031 72.0231 23.1951C71.9879 20.3591 72.0289 17.5349 72.1461 14.7224ZM91.5875 19.8728C91.3414 19.697 91.1891 19.3396 91.1305 18.8005C91.0719 18.2498 91.066 17.658 91.1129 17.0251C91.1715 16.3806 91.236 15.824 91.3063 15.3552C91.3883 14.8748 91.4293 14.6345 91.4293 14.6345L110.783 13.8962C111.216 14.0134 111.468 14.3591 111.539 14.9333C111.621 15.4958 111.609 16.1228 111.504 16.8142C111.41 17.4939 111.31 18.0798 111.205 18.572C111.158 18.7712 111.129 18.9353 111.117 19.0642L105.791 19.2224L104.824 35.7634C104.8 35.9509 104.519 36.1677 103.98 36.4138C103.441 36.6482 102.814 36.8474 102.099 37.0115C101.384 37.1638 100.752 37.2107 100.201 37.1521C99.65 37.0818 99.3571 36.8357 99.3219 36.4138L98.6891 19.7146L91.5875 19.8728ZM121.47 14.7224C121.505 14.4763 121.869 14.2478 122.56 14.0369C123.252 13.8259 124.048 13.6853 124.951 13.615C125.865 13.5447 126.662 13.6091 127.341 13.8083C128.033 13.9958 128.384 14.3708 128.396 14.9333L128.185 28.2576C128.185 28.2576 128.185 28.3689 128.185 28.5916C128.185 28.8025 128.209 29.0662 128.255 29.3826C128.302 29.699 128.39 30.0212 128.519 30.3494C128.66 30.6775 128.859 30.9587 129.117 31.1931C129.375 31.4275 129.72 31.5681 130.154 31.615C130.693 31.6501 131.109 31.533 131.402 31.2634C131.707 30.9822 131.923 30.6365 132.052 30.2263C132.193 29.8162 132.275 29.4294 132.298 29.0662C132.322 28.7029 132.334 28.4685 132.334 28.363C132.334 28.2576 132.363 27.5427 132.422 26.2185C132.48 24.8943 132.545 23.406 132.615 21.7537C132.685 20.1013 132.744 18.6423 132.791 17.3767C132.849 16.0994 132.879 15.4607 132.879 15.4607C132.925 14.781 133.289 14.365 133.968 14.2126C134.66 14.0603 135.451 14.072 136.341 14.2478C137.232 14.4236 138.011 14.658 138.679 14.9509C139.347 15.2439 139.687 15.4841 139.699 15.6716C139.664 16.949 139.64 18.2263 139.629 19.5037C139.629 21.4373 139.582 23.3767 139.488 25.322C139.394 27.2556 139.183 29.2126 138.855 31.1931C138.539 32.4939 137.929 33.6482 137.027 34.656C136.125 35.6638 135.082 36.4431 133.898 36.9939C132.726 37.533 131.578 37.7732 130.453 37.7146C127.968 37.5154 125.947 36.8884 124.388 35.8337C122.83 34.7673 121.998 33.4138 121.892 31.7732C121.576 28.8904 121.394 26.031 121.347 23.1951C121.312 20.3591 121.353 17.5349 121.47 14.7224ZM155.765 16.4802C156.035 16.9607 156.023 17.5232 155.73 18.1677C155.449 18.8005 155.062 19.3865 154.57 19.9255C154.089 20.4529 153.691 20.7927 153.375 20.9451C153.375 20.9451 153.181 20.863 152.795 20.699C152.42 20.5349 151.945 20.3474 151.371 20.1365C150.808 19.9255 150.234 19.7498 149.648 19.6091C149.297 19.5271 148.933 19.5212 148.558 19.5916C148.195 19.6501 147.972 19.7966 147.89 20.031C147.808 20.3826 147.849 20.6814 148.013 20.9275C148.177 21.1619 148.435 21.3845 148.787 21.5955C149.326 21.9119 149.947 22.24 150.65 22.5798C151.646 23.0486 152.619 23.5994 153.568 24.2322C154.529 24.8533 155.279 25.656 155.818 26.6404C156.357 27.613 156.486 28.8435 156.205 30.3318C155.853 32.2888 155.238 33.7947 154.359 34.8494C153.48 35.8923 152.455 36.5896 151.283 36.9412C150.123 37.281 148.922 37.3748 147.679 37.2224C146.437 37.0583 145.271 36.7478 144.181 36.2908C143.103 35.8337 142.207 35.324 141.492 34.7615C141.48 34.4568 141.509 34.0349 141.58 33.4958C141.65 32.9451 141.767 32.3884 141.931 31.8259C142.107 31.2517 142.341 30.7888 142.634 30.4373C142.927 30.074 143.291 29.9392 143.724 30.033C143.724 30.033 143.929 30.1794 144.339 30.4724C144.761 30.7537 145.289 31.0642 145.922 31.4041C146.554 31.7322 147.211 31.99 147.89 32.1775C148.582 32.3533 149.214 32.3533 149.789 32.1775C150.363 32.0017 150.791 31.5388 151.072 30.7888C151.318 30.0623 151.259 29.4587 150.896 28.9783C150.545 28.4978 150 28.0935 149.261 27.7654C148.535 27.4373 147.744 27.1267 146.888 26.8337C145.939 26.5173 145.054 26.1716 144.234 25.7966C143.425 25.4099 142.839 24.9177 142.476 24.3201C141.879 23.4529 141.574 22.3689 141.562 21.0681C141.55 19.7556 141.791 18.4841 142.283 17.2537C142.775 16.0232 143.472 15.0857 144.375 14.4412C145.582 13.6794 146.941 13.3337 148.453 13.4041C149.964 13.4626 151.388 13.7908 152.724 14.3884C154.06 14.9744 155.074 15.6716 155.765 16.4802Z" fill="#124B2C"/>
<path d="M14.5569 39.9754C13.7888 39.6467 12.0159 38.6872 11.3591 38.0143C10.221 36.8484 10.3891 35.5144 10.315 34.8127C10.2582 34.275 9.90883 35.9891 9.8629 36.5513C9.82631 36.9992 9.81698 37.3736 9.70686 37.567C9.59321 37.7666 9.28301 37.8351 8.99804 37.9457C8.6794 38.0695 8.34233 37.9103 8.11214 37.7266C7.63058 37.3423 7.69548 36.7859 7.67722 36.6468C7.6163 36.1825 7.4011 37.5385 7.25336 38.0918C7.17509 38.385 7.10562 38.6645 7.0229 38.913C6.92191 39.1431 6.64635 39.3839 6.25044 39.5958C6.07365 39.6799 5.94583 39.7164 5.81413 39.754" stroke="#134C2C" stroke-linecap="round"/>
<path d="M107.02 39.9201C107.295 39.6451 107.957 38.8366 108.658 37.3083C109.648 35.1505 109.694 34.5355 109.712 34.424C109.839 33.6636 109.822 36.7041 110.044 37.419C110.191 37.9994 110.522 38.7005 110.901 39.0981C111.002 39.1637 111.112 39.1819 111.502 39.2007" stroke="#134C2C" stroke-linecap="round"/>
<path d="M113.715 32.118C113.715 32.191 113.715 32.2641 113.706 32.9043C113.697 33.5445 113.678 34.7497 113.604 36.0467" stroke="#134C2C" stroke-linecap="round"/>
<path d="M121.351 41.6354C121.351 41.7449 121.351 42.3127 121.333 43.2425C121.278 43.9716 121.186 44.4557 121.103 44.8234C121.074 45.0268 121.074 45.2642 121.074 45.5087" stroke="#134C2C" stroke-linecap="round"/>
<path d="M161.8 31.5646C161.8 31.6012 161.8 31.8756 161.782 32.3816C161.763 32.632 161.727 32.8694 161.708 33.1652C161.689 33.4609 161.689 33.8079 161.579 34.276" stroke="#134C2C" stroke-linecap="round"/>
<path d="M164.456 29.6279V31.9519" stroke="#134C2C" stroke-linecap="round"/>
<path d="M166.282 32.8926V34.3867" stroke="#134C2C" stroke-linecap="round"/>
<path d="M4.76279 30.6793C4.57963 30.8442 4.06448 31.3953 3.60244 31.8859C3.4012 32.0995 3.14096 32.2281 2.89251 32.3111C2.77501 32.3504 2.66232 32.3393 2.54197 32.3028C1.83381 32.0879 1.33431 31.1054 1.07452 30.635C0.960019 30.4278 1.00009 30.1276 1.04574 29.8147C1.09027 29.5095 1.42284 29.2788 1.70809 29.076C1.93857 28.9121 2.34415 28.964 2.78599 29.0187C3.59772 29.1194 4.06005 29.774 4.59457 30.1888C5.15119 30.6206 5.59058 30.8807 6.04293 31.1671C6.48793 31.4488 7.15653 31.3986 7.758 31.2517C8.04006 31.1828 8.3213 31.1043 8.56062 30.9297C8.80796 30.7493 8.89401 30.4591 8.94934 30.1561C9.03337 29.6961 8.89511 29.3153 8.72967 29.1496C8.37357 28.7929 7.09566 28.9086 6.16688 29.0555C5.52141 29.276 4.9299 29.5909 4.71824 29.6551C4.61615 29.701 4.52485 29.774 4.20945 29.96" stroke="#134C2C" stroke-linecap="round"/>
<path d="M169.602 27.8572C169.602 27.3808 169.639 26.4949 169.73 25.1321C169.745 24.9115 169.95 25.033 170.107 25.1716C170.705 25.6986 171.586 26.3588 172.468 26.6764C172.874 26.8228 173.308 26.5857 173.593 26.3284C173.878 26.0718 173.863 25.5725 173.845 25.1581C173.832 24.8665 173.679 24.6673 173.504 24.4741C173.046 23.9673 172.114 23.9662 171.109 23.9468C170.356 23.9323 169.351 24.9367 168.498 25.7247C168.078 26.1122 167.723 26.3809 167.188 26.6023C166.964 26.695 166.653 26.5851 166.33 26.4473C166.054 26.3291 165.932 26.0141 165.803 25.7656C165.689 25.5455 165.673 25.2582 165.728 24.9818C165.834 24.45 166.759 24.3723 167.423 24.3707C167.863 24.535 168.236 24.7392 168.521 24.9232C168.678 25.0159 168.861 25.1072 169.159 25.4226" stroke="#134C2C" stroke-linecap="round"/>
<path d="M53.8734 43.854C53.5876 43.9634 52.7077 44.4919 51.4913 44.8698C50.7545 45.0987 50.1177 44.8493 49.7868 44.706C49.6271 44.6369 49.4997 44.5409 49.4102 44.3974C48.9664 43.6857 49.452 42.6856 49.7829 42.0988C49.9403 41.8195 50.3352 41.7984 50.6661 41.8203C51.2607 41.8596 51.8152 42.1074 52.3573 42.4048C52.9802 42.7466 53.3191 43.2771 53.6291 43.7966C53.9807 44.386 54.4463 44.7796 56.1959 45.3111C57.7245 45.7755 58.9765 45.3578 59.4838 45.1705C59.9608 44.9944 60.304 44.6954 60.5139 44.3758C60.6149 44.222 60.6144 44.0343 60.5928 43.8676C60.4964 43.1216 59.4685 42.6843 58.585 42.4622C57.6167 42.2187 56.8162 42.0199 55.0302 42.0739C53.7642 42.1122 53.3894 43.1219 52.9249 43.6859C52.3502 44.3836 51.5579 45.3937 50.8365 46.7888C50.5439 47.3547 50.4691 47.8524 50.623 48.2386C50.9222 48.9899 51.9465 49.2449 52.7104 49.5446C53.0032 49.6595 53.2972 49.6891 53.573 49.6344C54.1557 49.5189 54.38 48.5433 54.5803 47.5938C54.5809 46.2424 54.449 45.6695 54.2169 44.9948C54.1612 44.828 54.1174 44.6749 54.006 44.3181" stroke="#134C2C" stroke-linecap="round"/>
<path d="M54.5365 44.9812C54.5803 45.3101 55.1068 47.4625 55.4642 49.0887C55.6283 49.8355 55.7288 50.636 55.7636 52.8192C55.6651 53.4435 55.5756 53.7764 55.5424 54.1072C55.5312 54.2631 55.5312 54.3944 55.4648 54.5296" stroke="#134C2C" stroke-linecap="round"/>
<path d="M92.9727 10.0458C93.4193 9.15193 94.6551 7.01157 95.0846 6.07245C95.2735 5.65935 95.3225 5.25157 95.4176 5.29608C97.2623 6.15971 95.6074 8.76232 95.82 9.07002C95.9445 9.25021 96.1737 9.42473 96.4354 9.52159C96.9752 9.72134 97.5526 9.52444 97.991 9.32323C98.8694 8.92008 99.5697 7.51301 100.579 4.1821C100.846 3.30011 101.019 2.31348 101.351 1.10334C101.515 0.509192 101.496 2.52146 101.484 5.99766C101.478 7.712 101.685 8.31074 101.898 8.65441C102.515 9.16617 103.344 9.52231 104.384 9.71212C105.025 9.78442 105.895 9.80792 106.791 9.83214" stroke="#134C2C" stroke-linecap="round"/>
<path d="M120.822 9.33356C120.822 9.38057 120.822 9.42758 120.822 9.54581C120.822 9.66405 120.822 9.85209 120.811 10.0312C120.799 10.2104 120.775 10.3749 120.751 10.8293" stroke="#134C2C" stroke-linecap="round"/>
<path d="M162.419 20.6586C162.56 20.4705 163.055 19.8566 163.896 18.7675C164.775 17.6293 165.572 15.8031 166.331 13.7054C166.915 12.0894 167.001 10.7168 166.954 9.72032C166.936 9.32908 166.719 9.19396 166.564 9.0978C166.284 8.92455 165.84 8.90621 165.307 8.95321C164.415 9.03184 163.353 10.6755 162.161 13.0979C161.285 14.8797 161.184 16.6642 161.184 17.6012C161.278 18.1386 161.632 18.6137 162.142 19.1589C162.369 19.3986 162.534 19.5631 162.775 19.8751" stroke="#134C2C" stroke-linecap="round"/>
<path d="M160.211 22.0119C160.211 22.2476 160.328 22.8402 160.659 23.2437C160.822 23.4432 161.178 23.4122 161.441 23.3655C161.704 23.3189 161.916 23.2014 162.083 22.9998C162.251 22.7982 162.369 22.5162 162.406 22.2886C162.443 22.061 162.396 21.8965 162.266 21.7177C162.136 21.5389 161.924 21.3509 161.421 21.1572" stroke="#134C2C" stroke-linecap="round"/>
<path d="M67.1861 45.28C67.1861 45.3092 67.1861 45.3384 67.1861 45.4847C67.1861 45.631 67.1861 45.8936 67.2299 46.1164C67.2736 46.3391 67.3612 46.5142 67.7166 46.9598" stroke="#134C2C" stroke-linecap="round"/>
<path d="M70.0151 42.8931V44.9264" stroke="#134C2C" stroke-linecap="round"/>
<path d="M72.4905 44.838C72.4905 44.8672 72.4905 44.8964 72.4759 44.9989C72.4614 45.1015 72.4322 45.2765 72.3734 45.498C72.3146 45.7194 72.2271 45.982 72.0485 46.2525" stroke="#134C2C" stroke-linecap="round"/>
</svg>
