<svg width="2273" height="2273" viewBox="0 0 2273 2273" fill="none" xmlns="http://www.w3.org/2000/svg">
<path d="M2016.98 1601.88C2014.08 1599.26 2011.82 1596.93 2012.38 1595.44C2015.56 1586.46 2022.21 1578.69 2029.7 1567.16C2030.79 1568.34 2031.87 1569.5 2032.95 1570.63C2034.98 1566.34 2036.98 1562.03 2038.96 1557.69C2039.88 1546.17 2041.51 1535.35 2050.91 1531.32C2076.14 1473.21 2095.94 1412.2 2109.72 1348.92C2107.39 1349.7 2105.34 1350.41 2102.51 1351.33C2102.02 1341.36 2100.81 1332.95 2101.73 1332.87C2105.46 1332.87 2109.25 1333.16 2113.11 1333.72C2116.55 1316.52 2119.55 1299.18 2122.09 1281.69C2121.74 1281.05 2121.53 1280.7 2121.03 1279.92C2121.5 1279.55 2122 1279.17 2122.52 1278.79C2129.23 1232.13 2132.84 1184.48 2132.84 1135.98C2132.79 1105.16 2131.38 1074.67 2128.6 1044.5C2124.92 1040.4 2121.24 1036.23 2118.35 1031.64C2117.5 1030.29 2121.74 1025.91 2125.91 1019.4C2123.93 1002.06 2121.5 984.857 2118.63 967.796C2111.7 926.721 2101.59 886.848 2089.5 847.611C2088.37 846.621 2087.24 845.844 2086.18 844.571C2081.09 837.926 2076.64 828.947 2071.69 821.595C2060.81 805.405 2047.23 793.599 2040.09 771.895C2038.11 766.098 2039.46 755.281 2041.51 743.333C2039.1 739.021 2036.98 734.708 2035.99 730.184C2035.14 726.366 2037.19 721.983 2039.74 717.529C2035.71 708.833 2031.89 699.996 2027.58 691.442C2026.59 690.358 2025.63 689.274 2024.68 688.19C2021.57 684.443 2019.31 677.232 2016.7 671.576C1999.87 638.56 1980.5 606.888 1959.65 576.277C1954.23 574.297 1948.83 572.365 1943.46 570.479C1926.64 580.165 1893.98 532.869 1898.15 512.084C1898.64 509.256 1902.53 506.216 1905.93 504.095C1812.76 390.768 1695.13 298.508 1561.18 235.093C1560.61 235.235 1560.05 235.376 1559.48 235.518C1552.62 237.497 1545.2 239.477 1537.78 241.81C1545.2 252.697 1551.7 259.413 1550.86 261.675C1549.23 266.341 1547.11 270.654 1544.85 274.966C1614.19 307.982 1678.73 349.128 1737.62 397.131C1739.31 395.787 1741.08 394.586 1742.78 394.161C1746.88 393.03 1752.96 398.615 1761.08 402.716C1758.12 405.473 1755.85 407.665 1753.38 409.927C1759.69 415.3 1765.91 420.767 1772.04 426.328C1773.03 424.82 1774.02 423.312 1775.01 421.804C1776.28 419.824 1779.96 419.329 1782.57 418.128C1782.79 421.026 1783.99 424.349 1783.07 426.823C1782.13 429.227 1781.18 431.607 1780.24 433.964C1858.56 505.933 1925.08 590.557 1975.91 684.938C1972.3 675.818 1968.7 666.769 1965.38 657.224C1965.23 656.73 1970.04 648.246 1976.26 636.369C1981.77 654.962 1986.23 666.91 1988.7 680.413C1989.27 683.453 1984.81 690.311 1981.92 696.037C1996.05 723.255 2008.57 751.463 2020.16 780.096C2025.11 788.509 2029.91 797.275 2031.75 809.718C2033.31 813.96 2035.22 818.06 2036.7 822.302C2041.32 835.404 2045.63 848.625 2049.64 861.963C2050.91 859.182 2052.11 856.401 2053.24 853.62C2055.55 854.233 2057.86 854.87 2060.17 855.529C2061.16 858.711 2062.85 861.892 2063 865.144C2063.14 870.234 2063.21 875.961 2061.58 880.203C2060.31 883.407 2058.87 886.495 2057.27 889.464C2066.37 922.974 2073.58 957.168 2078.9 992.045C2082.08 993.388 2085.26 995.297 2088.44 996.852C2086.04 1001.42 2083.66 1006.02 2081.3 1010.64C2086.82 1051.57 2089.93 1093.35 2089.93 1135.98C2089.88 1151.21 2089.5 1166.36 2088.8 1181.44C2093.68 1184.91 2098.48 1188.72 2103.15 1193.6C2108.17 1198.83 2111.06 1213.89 2115.59 1222.87C2118.98 1229.59 2123.36 1233.69 2127.32 1238.92C2122.37 1240.54 2117.36 1242.24 2111.77 1244.08C2105.46 1236.07 2099.21 1228.2 2093.04 1220.47C2091.06 1217.92 2088.8 1215.87 2086.47 1213.89C2082.01 1269.18 2073.03 1323.12 2059.53 1375.36C2060.73 1375.08 2061.79 1374.37 2063.07 1374.52C2071.76 1375.51 2080.53 1390.21 2087.88 1400.46C2090.49 1404 2089.29 1412.27 2089.79 1418.42C2085.97 1415.24 2080.67 1413.19 2078.69 1408.73C2071.13 1391.84 2065.68 1389.43 2060.66 1409.72C2059.46 1414.74 2056.49 1418.91 2054.37 1423.51C2051.54 1417.5 2048.79 1411.49 2049.07 1412.06C2031.96 1468.47 2009.7 1522.63 1982.98 1574.09C1982.6 1575.37 1982.25 1576.66 1981.92 1577.98C1878.78 1773.1 1710.33 1929.2 1505.47 2015.59C1503.35 2017.9 1501.02 2019.98 1498.48 2021.82C1497.84 2022.31 1496.28 2021.67 1493.53 2020.26C1383.18 2065.08 1262.66 2089.97 1136.34 2089.97C610.411 2089.97 182.532 1661.97 182.532 1135.98C182.532 1083.67 186.985 1032.41 195.115 982.43C193.771 983.066 192.57 983.632 191.015 984.551C185.501 975.007 180.906 967.089 176.382 959.242C179.846 958.535 183.804 956.767 186.703 957.333C191.863 958.464 195.468 960.09 198.366 962.069C211.656 890.312 233.004 821.453 261.421 756.342C257.462 741.919 260.784 734.284 274.639 727.426C355.013 558.532 483.666 416.926 642.716 320.425C634.304 317.879 626.387 314.627 618.965 316.112C606.806 318.586 596.981 304.518 586.377 305.507C582.843 307.817 579.308 310.15 575.774 312.507C425.136 415.724 304.753 558.037 228.904 724.74C233.145 723.68 237.952 723.75 244.173 727.214C246.152 728.275 244.879 732.093 245.162 734.708C236.397 734.214 229.257 742.556 220.704 742.909C193.489 805.9 172.848 872.355 159.134 941.355C165.213 938.103 169.172 933.367 166.768 925.519C166.415 924.247 171.717 922.197 174.332 920.5C176.029 922.126 179.634 924.105 179.21 925.307C175.11 935.063 174.332 947.647 164.86 953.727C161.844 955.66 158.757 957.545 155.599 959.383C147.588 1004.11 142.64 1049.78 140.755 1096.39C143.017 1095.4 145.844 1094.48 147.824 1093.57C149.238 1096.82 151.712 1100.07 151.853 1103.32C151.924 1105.23 148.319 1107.21 144.713 1110.75C143.253 1108.81 141.862 1107.12 140.543 1105.65C140.26 1115.76 139.836 1125.8 139.836 1135.98C139.836 1141.71 140.189 1147.3 140.26 1152.95C142.169 1151.68 144.148 1150.48 145.774 1149.2C147.612 1153.3 151.641 1157.55 151.005 1161.51C148.601 1176.78 146.056 1191.98 142.663 1207.11C179.28 1723.62 610.765 2132.6 1136.34 2132.6C1517.7 2132.6 1849.45 1917.26 2016.98 1601.88ZM1213.39 2269.11C1230.92 2267.98 1248.31 2266.45 1265.56 2264.52C1268.9 2264.09 1272.25 2263.65 1275.59 2263.18C1294.4 2260.87 1313.06 2258.11 1331.58 2254.9C1333.13 2254.62 1334.69 2254.34 1336.24 2254.06C1356.79 2250.38 1377.13 2246.18 1397.25 2241.47C1397.25 2241.47 1395.55 2235.32 1394.21 2230.8C1396.82 2227.9 1399.72 2224.65 1402.62 2221.39C1403.4 2225.35 1405.38 2229.52 1404.6 2233.2C1404.11 2235.82 1402.55 2238.22 1400.92 2240.62C1421.05 2235.77 1440.96 2230.42 1460.66 2224.57C1461.18 2224.43 1461.69 2224.29 1462.21 2224.15C1482.1 2218.26 1501.75 2211.8 1521.17 2204.78C1521.03 2201.03 1521.1 2197.43 1522.86 2195.38C1528.02 2189.51 1536.93 2182.01 1543.15 2182.86C1550.78 2183.85 1551.35 2188.45 1550.5 2193.54C1792.19 2098.45 1993.58 1922.91 2121.53 1700C2130.06 1685.16 2138.26 1670.1 2146.13 1654.83C2146.13 1654.83 2143.09 1656.6 2141.53 1657.51C2139.51 1654.55 2137.46 1651.58 2135.38 1648.61C2126.47 1654.69 2117.5 1660.77 2108.73 1667.06C2086.04 1683.39 2075.51 1680.56 2065.68 1654.76C2065.07 1653.01 2064.55 1651.22 2064.13 1649.38C1934.2 1883.25 1718.6 2063.03 1459.95 2146.1C1461.86 2148.5 1463.77 2150.91 1463.2 2151.9C1459.81 2157.77 1454.79 2162.71 1450.34 2167.95C1448 2164.06 1445.67 2160.1 1441.64 2153.38C1443.2 2152.32 1444.47 2151.47 1445.88 2150.55C1347.91 2180.53 1244 2196.72 1136.34 2196.72C679.262 2196.72 288.848 1906.16 140.048 1499.93C107.39 1492.79 91.202 1508.41 71.3384 1516.55C69.8304 1517.2 68.3459 1517.89 66.885 1518.6C71.5976 1531.6 76.5458 1544.49 81.7297 1557.27C82.9078 1560.19 84.086 1563.13 85.2641 1566.1C90.4951 1578.83 95.9853 1591.46 101.735 1604C102.819 1606.4 103.902 1608.83 104.986 1611.28C111.113 1624.43 117.475 1637.46 124.072 1650.37C124.732 1651.65 125.392 1652.92 126.052 1654.19C133.12 1667.95 140.449 1681.53 148.036 1694.91C150.651 1693.64 152.913 1692.58 154.61 1692.79C157.437 1693.22 161.537 1696.54 161.255 1698.31C161.043 1700.07 156.165 1702.83 153.337 1702.83C253.362 1877.24 399.476 2022.73 574.784 2122.91C575.986 2122.91 576.481 2123.55 577.046 2124.18C637.839 2158.69 702.095 2187.74 769.179 2210.79C771.77 2211.68 774.386 2212.58 777.025 2213.48C797.431 2220.31 818.048 2226.58 838.878 2232.28C840.527 2232.75 842.177 2233.2 843.826 2233.62C866.588 2239.75 889.609 2245.15 912.889 2249.81C914.256 2250.1 915.622 2250.36 916.989 2250.59C937.347 2254.55 957.894 2257.97 978.63 2260.84C984.85 2261.69 991.094 2262.49 997.362 2263.25C1014.14 2265.27 1031.03 2266.95 1048.05 2268.27C1054.55 2268.83 1061.05 2269.33 1067.56 2269.75C1090.32 2271.21 1113.24 2271.97 1136.34 2272.01C1157.83 2272.01 1179.17 2271.38 1200.38 2270.1C1204.72 2269.82 1209.05 2269.49 1213.39 2269.11ZM3.05295 1209.65C3.75984 1220.54 4.60811 1231.38 5.59775 1242.17C6.39889 1250.51 7.29432 1258.86 8.28396 1267.2C9.27361 1275.78 10.3576 1284.33 11.5357 1292.86C12.8552 1302.48 14.2925 1312.07 15.8476 1321.63C16.9315 1327.9 18.0626 1334.17 19.2408 1340.44C21.2672 1351.75 23.4349 1363.01 25.7441 1374.23C25.9326 1374.99 26.1211 1375.74 26.3096 1376.49C36.2061 1421.98 48.7415 1466.37 63.916 1509.69C80.5279 1498.31 96.0795 1485.37 121.952 1483.6C125.91 1483.32 130.081 1482.68 134.11 1482.4C96.5037 1373.74 75.7211 1257.3 75.7211 1135.98C75.7211 1123.33 76.2159 1110.82 76.6401 1098.3C74.4251 1098.77 72.8229 1098.87 71.8333 1098.59C69.2885 1097.74 66.6022 1093.78 67.5919 1092.08C68.5108 1090.46 73.6004 1088.97 76.8521 1089.11C77.0406 1085.62 77.2291 1082.14 77.4176 1078.65C74.9671 1079.64 72.493 1080.58 69.9953 1081.48C61.2299 1084.66 51.8282 1087.06 43.699 1090.74C37.9732 1093.35 33.9441 1097.6 29.2079 1101.13C30.8338 1095.47 30.0561 1088.62 34.6509 1084.52C42.8508 1077.09 47.3041 1061.4 70.6315 1070.59C73.0349 1071.15 75.4383 1071.72 77.8418 1072.29C85.1227 950.263 113.115 833.755 158.356 726.225C153.832 728.958 149.285 731.621 144.713 734.213C141.532 736.052 137.291 736.9 132.908 738.385C131.283 734.426 128.596 730.749 128.596 727.144C128.667 716.822 150.651 706.005 166.061 707.773C277.396 456.304 483.666 256.02 739.277 152.378C737.863 149.338 737.086 146.298 737.651 144.107C739.984 135.128 745.851 127.563 750.234 119.433C753.91 124.594 759.636 129.189 760.767 135.057C761.261 137.885 761.332 140.925 761.615 143.894C767.977 141.491 774.197 138.946 780.559 136.613C781.549 133.643 782.515 130.674 783.458 127.705C783.976 130.156 784.518 132.606 785.084 135.057C848.491 112.717 914.656 96.3861 982.871 86.4178C990.011 83.0244 997.221 79.7016 1004.78 78.2169C1006.55 77.9342 1009.38 79.8431 1011.99 82.5296C1015.15 82.1054 1018.31 81.7047 1021.47 81.3276C1059.31 77.3215 1097.6 75.2947 1136.34 75.2476C1148.16 75.2947 1159.97 75.507 1171.75 75.884C1294.68 79.9138 1412.23 105.152 1521.24 147.712C1519.96 145.591 1518.83 143.258 1518.48 141.279C1517.14 134.633 1519.54 126.856 1521.38 109.818C1533.25 131.522 1538.7 137.178 1538.34 141.985C1538.06 145.238 1535.37 149.479 1532.55 152.095C1536.88 153.886 1541.19 155.677 1545.48 157.468C1544.99 155.913 1544.42 154.357 1544.42 152.802C1544.42 147.924 1546.33 143.046 1547.39 138.168C1549.09 141.797 1550.81 145.567 1552.55 149.479C1551.56 152.873 1550.6 156.148 1549.65 159.306C1563.6 165.245 1577.41 171.466 1591.08 177.97C1589.17 174.718 1586.2 171.466 1586.13 168.143C1585.99 165.103 1589.38 161.922 1593.69 154.64C1596.59 163.195 1599.35 167.012 1598.64 170.264C1598.08 173.233 1594.12 175.567 1591.57 178.182C1784.62 270.301 1945.65 418.976 2053.03 602.717C2052.32 601.515 2051.69 600.243 2051.69 597.98C2047.09 594.587 2045.61 586.033 2044.97 584.619C2044.83 577.125 2045.04 575.711 2044.76 574.438C2042.21 561.784 2048.58 552.946 2060.45 548.705C2063.99 547.432 2071.13 551.674 2074.94 554.997C2084.84 563.763 2082.51 572.53 2076.14 583.488C2075.86 584.006 2075.58 584.525 2075.3 585.043C2076.85 587.871 2078.08 590.746 2078.97 593.668C2081.16 601.303 2078.41 607.383 2067.8 606.252C2063.07 605.828 2056.99 607.383 2053.81 604.202C2079.54 648.458 2102.23 694.623 2121.46 742.485C2125.34 742.909 2129.16 745.666 2133.05 747.363C2130.65 749.578 2128.24 751.793 2125.84 754.009C2134.6 776.443 2142.59 799.207 2149.8 822.302C2156.16 843.016 2161.68 864.084 2166.84 885.293C2171.36 885.363 2176.24 884.727 2179.42 889.605C2179.42 889.605 2181.82 890.453 2183.1 890.948C2182.39 891.702 2181.68 892.457 2180.98 893.211C2183.73 899.856 2185.36 910.107 2187.41 919.086C2187.88 919.416 2188.33 919.793 2188.75 920.217C2188.89 920.853 2189.03 921.207 2189.18 921.843C2191.16 922.338 2193.13 922.621 2195.04 923.823C2205.29 930.327 2215.47 937.255 2225.65 944.042C2224.31 946.658 2222.68 952.172 2221.83 951.465C2210.67 943.264 2196.03 955.565 2189.18 921.843C2187.76 920.782 2187.62 919.863 2187.41 919.086C2182.6 914.844 2177.58 911.38 2173.2 905.512C2172.14 904.027 2171.22 901.906 2170.3 899.998C2174.5 918.19 2178.2 936.548 2181.4 955.07C2198.58 962.989 2219.93 962.07 2233.71 976.562C2215.61 984.975 2198.86 969.21 2184.16 972.108C2186.14 984.41 2187.9 996.782 2189.46 1009.22C2194.55 1050.75 2197.05 1093 2196.95 1135.98C2196.95 1194.24 2192.07 1251.36 2183.03 1307.07C2188.61 1311.95 2193.56 1315.77 2192.85 1317.32C2191.08 1321.35 2187.34 1326.58 2183.59 1327.36C2182.25 1327.64 2180.83 1327.15 2179.42 1327.01C2161.25 1426.41 2129.3 1521.07 2085.4 1608.8C2090.82 1611.54 2096.36 1613.94 2102.02 1616.02C2114.74 1620.47 2128.95 1621.32 2140.9 1627.04C2146.06 1629.52 2149.87 1634.89 2153.62 1640.19C2158.38 1630.58 2163.02 1620.87 2167.55 1611.07C2163.02 1606.26 2157.79 1601.81 2150.72 1597.99C2142.38 1593.6 2135.1 1584.98 2127.32 1578.26C2151.78 1583.64 2144.5 1557.27 2153.55 1547.37C2153.55 1547.37 2164.43 1555.29 2164.93 1558.89C2166.63 1570.13 2171.08 1580.74 2176.52 1591.2C2182.98 1576.54 2189.11 1561.7 2194.9 1546.66C2195.09 1546.14 2195.3 1545.63 2195.54 1545.11C2201.38 1529.93 2206.92 1514.61 2212.15 1499.15C2208.26 1495.05 2204.16 1491.17 2200.77 1486.71C2199.71 1485.23 2202.61 1480.84 2205.58 1472.43C2209.96 1477.59 2213.63 1481.69 2216.82 1485.44C2233.03 1435.39 2245.7 1383.97 2254.85 1331.18C2254.94 1330.61 2255.03 1330.07 2255.13 1329.55C2264.27 1276.62 2269.62 1222.61 2271.17 1167.51C2262.9 1165.25 2258.24 1177.48 2251.1 1179.67C2251.1 1179.67 2247.64 1171.61 2248.55 1169.28C2259.44 1143.27 2245.94 1108.98 2263.47 1085.01C2266.3 1081.12 2266.86 1074.05 2270.19 1071.72C2269.01 1050.79 2267.29 1029.96 2265.02 1009.22C2261.87 981.747 2257.74 954.599 2252.65 927.782C2252.47 926.65 2252.25 925.519 2252.02 924.388C2246.83 897.193 2240.68 870.329 2233.57 843.794C2232.67 842.05 2232.06 840.235 2231.73 838.35C2230.46 832.411 2229.26 827.321 2227.84 822.302C2220.16 795.673 2211.51 769.444 2201.9 743.616C2201.52 742.579 2201.15 741.519 2200.77 740.435C2191.2 714.748 2180.74 689.533 2169.38 664.789C2169.01 663.988 2168.63 663.187 2168.25 662.385C2156.66 637.217 2144.19 612.568 2130.86 588.437C2117 563.41 2102.58 539.514 2087.38 516.255C2080.39 520.921 2073.32 525.375 2065.75 529.263C2062.93 530.677 2057.34 528.91 2053.74 527.284C2052.11 526.506 2050.98 521.911 2051.83 519.931C2055.29 512.084 2066.04 503.954 2076.64 499.783C2063.49 480.459 2049.75 461.583 2035.43 443.154C2033.64 440.798 2031.85 438.441 2030.06 436.085C2016.06 418.316 2001.59 400.995 1986.65 384.122C1984.44 381.671 1982.25 379.221 1980.08 376.77C1964.62 359.567 1948.65 342.859 1932.15 326.646C1931.3 325.798 1930.43 324.949 1929.54 324.101C1912.15 307.039 1894.19 290.543 1875.67 274.613C1874.75 276.734 1870.09 280.551 1867.54 283.45C1862.45 274.259 1857.22 265.21 1852.56 255.808C1819.52 228.566 1784.95 203.374 1748.86 180.233C1733.37 181.929 1720.72 187.585 1714.01 203.916C1709.06 216.076 1701.85 212.894 1695.2 203.845C1692.23 199.886 1686.37 197.836 1683.89 193.736C1678.94 185.464 1677.04 177.334 1691.03 174.789C1703.33 172.597 1715.84 170.547 1727.58 166.659C1712.73 157.539 1698.03 149.126 1683.26 140.996C1679.58 138.969 1675.88 136.966 1672.16 134.987C1660.38 128.671 1648.48 122.567 1636.46 116.676C1632.45 114.649 1628.42 112.67 1624.37 110.738C1611.18 104.422 1597.84 98.3656 1584.36 92.5684C1581.96 91.4844 1579.56 90.4238 1577.15 89.387C1560.52 82.3644 1543.69 75.7191 1526.68 69.4506C1526.26 70.8174 1525.86 72.2078 1525.48 73.6217C1525.2 71.9721 1524.89 70.3224 1524.56 68.6728C1513.2 64.5253 1501.77 60.5663 1490.28 56.7958C1489.71 58.1626 1489.14 59.5293 1488.58 60.8961C1492.11 63.9361 1498.48 68.8143 1497.56 70.7231C1494.8 76.4495 1489.21 81.0448 1482.15 89.0336C1481.72 85.6401 1481.09 82.9536 1480.66 80.3378C1478.31 86.0406 1475.97 91.7436 1473.66 97.4465C1465.89 88.9629 1452.88 81.8225 1451.33 71.8543C1449.86 62.051 1448.19 52.5304 1446.31 43.2927C1422.98 36.7414 1399.37 30.9207 1375.48 25.8305C1375.05 26.3961 1374.65 26.9616 1374.28 27.5272C1373.92 27.8807 1372.08 26.4668 1370.1 24.6993C1354.18 21.353 1338.13 18.3366 1321.97 15.6502C1306.13 13.0344 1290.72 10.8429 1275.17 8.93408C1273.94 8.74555 1272.7 8.55691 1271.42 8.36838C1257.24 6.71879 1242.96 5.32844 1228.59 4.19729C1226.13 3.96163 1223.71 3.72593 1221.3 3.49028C1204.86 2.26487 1188.34 1.39297 1171.75 0.874527C1159.97 0.497477 1148.16 0.285413 1136.34 0.238281C1085.2 0.238281 1034.8 3.56106 985.133 10.2066C962.23 13.2465 939.609 17.2762 917.201 21.6594C911.782 22.7435 906.362 23.851 900.943 24.9822C878.888 29.6482 856.974 34.7384 835.414 40.6769C812.369 47.0396 790.173 54.1093 768.118 61.6739C764.301 62.9936 760.507 64.3369 756.737 65.7037C735.154 73.3389 713.853 81.5869 692.835 90.4476C688.593 98.5777 684.281 106.708 679.404 114.272C678.909 115.05 673.395 110.808 665.478 106.072C667.245 103.951 670.144 100.557 670.144 100.557C621.015 122.827 573.653 148.419 528.483 177.193C460.551 220.388 398.062 270.23 341.299 325.868C340.404 326.764 339.532 327.636 338.684 328.484C302.02 364.681 267.924 403.211 236.397 444.073C235.03 445.864 233.64 447.679 232.226 449.517C216.816 469.689 202.089 490.356 188.046 511.518C187.386 512.555 186.726 513.592 186.066 514.629C172.541 535.272 159.676 556.364 147.47 577.903C146.528 579.552 145.585 581.202 144.643 582.851C132.626 604.343 121.292 626.259 110.641 648.599C108.992 652.087 107.366 655.575 105.764 659.063C84.9813 703.79 67.1207 749.979 52.1818 797.629C50.768 802.059 49.4013 806.513 48.0818 810.99C41.1072 834.179 34.8629 857.65 29.3492 881.404C28.5481 884.986 27.7941 888.568 27.0872 892.15C22.2333 914.113 18.0626 936.289 14.5753 958.676C13.9155 962.541 13.2558 966.429 12.596 970.341C9.10867 994.472 6.37534 1018.84 4.39606 1043.44C3.97192 1048.77 3.59489 1054.09 3.26501 1059.42C1.56848 1084.8 0.4375 1110.25 0.4375 1135.98C0.484626 1153.99 0.932339 1171.9 1.78061 1189.71C2.15761 1196.36 2.58169 1203 3.05295 1209.65ZM475.396 1175.29L406.05 1164.33L374.24 1226.9L363.213 1157.55L293.938 1146.59L356.426 1114.7L345.47 1045.42L395.093 1095.05L457.653 1063.17L425.772 1125.73L475.396 1175.29ZM2194.69 1310.75C2195.61 1309.05 2196.6 1306.01 2197.52 1306.01C2198.41 1306.1 2199.33 1306.25 2200.27 1306.43C2197.07 1299.51 2193.89 1292.6 2190.73 1285.72C2193.21 1282.96 2195.68 1280.21 2199.78 1275.68C2202.89 1283.32 2206.35 1289.54 2208.12 1297.46C2208.47 1299.15 2206.49 1303.18 2204.66 1307.07C2206.92 1307.54 2209.58 1308.08 2212.64 1308.7C2209.46 1314.56 2207.2 1319.8 2206.71 1319.51C2202.47 1317.18 2198.65 1313.79 2194.69 1310.75ZM2216.67 1344.82C2211.8 1342.56 2206 1341.64 2203.6 1338.39C2200.77 1334.57 2211.94 1321.85 2216.11 1324.25C2221.41 1327.29 2224.59 1333.86 2228.69 1338.95C2224.87 1340.79 2221.06 1342.7 2216.67 1344.82ZM2251.45 1003.57C2254.56 1008.31 2260.71 1013.96 2260.15 1017.57C2258.59 1027.82 2254.35 1037.36 2251.17 1047.12C2248.06 1041.46 2244.95 1035.81 2240.07 1026.76C2244.1 1018.63 2247.78 1011.13 2251.45 1003.57ZM2158.57 659.558C2165.14 664.86 2171.43 668.89 2171.01 669.738C2167.9 676.171 2163.37 681.968 2159.35 687.907C2157.22 684.655 2153.27 681.403 2153.34 678.151C2153.34 672.99 2156.02 667.829 2158.57 659.558ZM2134.11 691.23C2138.28 692.926 2141.81 696.037 2145.42 698.37C2142.24 703.248 2140.75 705.44 2139.34 707.631C2135.15 703.013 2130.93 698.417 2126.69 693.845C2129.23 692.926 2132.34 690.523 2134.11 691.23ZM1586.69 137.178C1580.76 142.787 1574.82 148.395 1568.88 154.004C1567.68 150.611 1566.41 147.217 1563.44 139.087C1568.25 136.613 1573.05 133.078 1578.35 131.805C1580.62 131.24 1583.87 135.269 1586.69 137.178ZM1555.38 92.3563C1560.61 99.0725 1565.42 106.072 1572.13 115.545C1567.11 117.666 1563.79 119.15 1560.33 120.352C1559.69 120.564 1558 119.433 1557.71 118.585C1554.65 110.95 1551.85 103.244 1549.3 95.467C1549.23 95.0428 1555.1 92.0028 1555.38 92.3563ZM1406.01 61.5326C1409.27 65.9865 1412.45 70.4404 1417.89 77.8635C1414 85.7109 1411.32 94.0531 1406.58 99.2139C1405.02 100.84 1398.17 94.0531 1393.71 91.0838C1397.81 81.2334 1401.91 71.383 1406.01 61.5326ZM95.514 735.839C102.088 738.384 107.46 743.899 116.296 750.615C105.552 756.059 98.8364 759.452 92.1209 762.846C89.5761 757.685 84.6279 752.312 85.1227 747.363C85.6175 742.98 93.6761 735.132 95.514 735.839ZM85.5468 911.451C87.0313 911.946 90.4244 913.077 93.8881 914.208C91.5554 916.187 89.8589 918.662 86.9607 920.005C79.1142 923.54 71.3384 928.064 62.5729 929.478C50.9093 931.458 38.3974 930.822 26.2389 931.316C33.4491 925.849 40.6595 920.406 47.8698 914.985C47.8698 914.985 83.002 911.733 85.5468 911.451ZM785.932 741.283C794.344 749.413 794.061 762.916 785.649 771.046C781.408 775.006 776.247 777.127 770.804 777.127C765.079 777.127 759.636 775.006 755.394 770.481C747.194 761.997 747.548 748.424 755.96 740.223C763.806 732.658 775.894 732.658 784.094 739.374C785.013 740.505 785.932 741.283 785.932 741.283ZM989.162 650.72C984.85 650.72 980.821 649.306 977.357 647.044C977.428 635.308 977.64 623.573 977.074 611.837C978.983 610.565 980.892 609.292 983.154 608.656C994.605 605.333 1006.41 611.978 1009.73 623.148C1013.06 634.672 1006.41 646.479 995.242 649.801C993.074 650.414 991.047 650.72 989.162 650.72ZM756.737 423.359C759.07 421.875 761.827 420.885 764.301 419.542C763.877 423.925 763.948 428.52 762.746 432.621C762.416 433.516 762.063 434.412 761.686 435.307L798.232 523.89C799.575 522.052 801.13 520.002 802.544 518.164C802.897 521.133 804.24 524.668 803.392 527.001C802.779 528.556 802.12 530.112 801.413 531.667L816.54 568.217L851.46 553.795L824.811 489.178L861.993 473.837L933.954 519.79L973.681 503.388L897.408 454.961C920.736 435.519 930.208 406.675 919.958 378.537C917.884 385.843 915.858 393.03 913.879 400.1C910.698 411.482 913.172 428.167 897.125 427.46C898.327 415.229 898.681 402.716 901.155 390.909C902.356 385.112 907.941 380.87 910.768 375.356C912.182 372.599 913.03 369.347 913.879 366.095C895.641 336.19 858.176 326.222 820.852 341.563L771.37 361.994C773.279 367.085 775.328 372.316 777.873 378.82C774.197 384.829 771.017 390.202 767.765 395.505C765.786 388.788 762.18 382.001 762.392 375.497C762.534 371.609 764.442 367.792 766.492 363.974L737.227 376.063L756.737 423.359ZM830.183 375.356C854.005 365.529 875.424 370.761 883.483 390.344C891.612 409.927 880.019 428.732 856.267 438.559L811.521 457.011L785.437 393.808L830.183 375.356ZM929.289 650.084C934.096 660.972 929.854 673.697 919.039 678.858C915.929 680.06 912.96 680.908 909.92 680.908C901.791 680.908 894.227 676.383 890.551 668.536C885.462 657.931 889.986 645.277 900.518 640.116C911.475 634.955 924.128 639.48 929.289 650.084ZM1103.4 1301.91C1105.33 1300.92 1107.24 1299.93 1109.12 1298.94C1107.78 1303.46 1107.57 1309.05 1104.74 1312.44C1105.59 1318.48 1106.46 1324.32 1107.35 1329.98C1112.23 1325.52 1118.31 1321.56 1122.91 1322.2C1135.98 1323.9 1128.49 1336.06 1128.28 1343.34C1128.21 1346.45 1124.74 1349.35 1122.06 1352.46C1123.68 1354.86 1125.38 1357.41 1127.36 1360.45C1124.11 1362.92 1121.07 1365.75 1118.03 1368.36C1117.56 1370.16 1116.52 1371.52 1114.92 1372.46C1115.06 1372.98 1115.18 1373.48 1115.27 1373.95C1114.56 1374.52 1113.65 1375.29 1112.94 1375.86C1114.54 1382.65 1116.68 1389.24 1119.37 1395.65C1125.4 1395.18 1131.44 1394.69 1137.47 1394.17C1138.03 1400.74 1138.81 1407.39 1138.95 1413.96C1138.95 1415.66 1137.75 1417.36 1136.76 1419.13C1139.66 1421.32 1143.55 1422.17 1144.25 1424.07C1145.2 1426.95 1145.9 1429.87 1146.37 1432.84C1156.62 1435.95 1177.19 1442.1 1218.34 1454.54V1424.43C1201.72 1410.71 1188.72 1400.04 1178.18 1391.34C1175.29 1391.13 1171.89 1390.49 1167.23 1390.07C1169.07 1388.58 1170.34 1387.45 1171.82 1386.11C1166.24 1381.44 1161.15 1377.27 1157.19 1374.02C1158.09 1369.83 1158.96 1365.4 1159.81 1360.73C1157.54 1362.36 1155.14 1363.98 1153.02 1365.75C1151.04 1362.36 1146.94 1358.54 1147.65 1355.78C1148.92 1350.55 1152.95 1345.88 1157.47 1338.11C1159.22 1340.93 1160.91 1343.48 1162.56 1345.74C1167.23 1318.52 1171.4 1285.86 1174.93 1250.65C1172.18 1247.97 1169.56 1243.51 1168.92 1239.91C1167.86 1233.69 1170.9 1226.33 1173.59 1211.56C1175.22 1214.6 1176.56 1216.79 1177.9 1219.12C1178.84 1208.75 1179.72 1198.29 1180.52 1187.73C1241.52 1192.89 1322.25 1207.46 1422.13 1227.32C1425.15 1221.48 1428.14 1215.71 1431.11 1210C1426.58 1204.84 1421.71 1199.82 1418.17 1194.1C1417.25 1192.68 1421.64 1188.16 1425.95 1181.51C1426.51 1182.29 1426.94 1182.71 1427.5 1183.42C1426.3 1181.3 1425.24 1179.18 1425.24 1177.06C1425.24 1174.3 1427.93 1171.54 1429.41 1168.72C1432.57 1171.4 1435.7 1174.09 1438.81 1176.78C1435.21 1180.31 1432.31 1183.14 1429.48 1185.9C1432.45 1189.5 1435 1192.54 1435.35 1195.37C1435.7 1198.13 1435.07 1200.95 1434.29 1203.85C1438.74 1206.75 1446.45 1212.34 1445.95 1214.46C1444.59 1220.07 1443.13 1225.63 1441.57 1231.14C1453.4 1233.5 1465.49 1235.93 1477.83 1238.42V1222.94C1477.34 1224.36 1474.51 1226.12 1472.96 1225.91C1470.13 1225.56 1466.24 1224.43 1465.18 1222.45C1463.77 1219.97 1464.47 1216.15 1464.9 1212.97C1465.53 1208.38 1461.65 1201.31 1469.99 1200.32C1475.36 1199.61 1477.2 1201.38 1477.83 1203.85V1182.71C1456.98 1169.07 1429.84 1153.8 1400.43 1138.18C1401.7 1139.59 1402.76 1141.07 1403.05 1142.49C1403.96 1146.94 1399.72 1156.42 1396.12 1158.11C1392.72 1159.74 1387.28 1154.15 1379.79 1150.19C1384.74 1142.13 1387.42 1133.93 1391.03 1133.23C1337.23 1105.09 1276.8 1076.46 1227.95 1054.12C1227.17 1054.47 1226.82 1053.98 1226.46 1053.41C1212.47 1047.05 1199.18 1040.97 1187.66 1035.88C1187.8 1028.34 1187.87 1021.08 1187.87 1014.1C1187.87 920.995 1178.18 866.417 1163.69 839.269C1161.34 842.003 1158.98 844.736 1156.62 847.47C1155.21 845.137 1153.8 842.875 1150.76 837.855C1153.44 835.946 1156.2 833.755 1159.17 831.917C1152.24 822.16 1144.47 817.636 1136.2 817.636C1114.78 817.636 1096.47 847.046 1088.62 922.691C1088.69 926.933 1088.13 931.175 1087.49 935.417C1085.65 957.898 1084.59 983.844 1084.59 1014.1C1084.59 1021.13 1084.64 1028.38 1084.73 1035.88C1008.39 1070.09 866.305 1135.77 794.627 1182.71V1238.42C906.527 1215.31 1015.88 1194.52 1091.94 1187.88C1094.98 1227.89 1098.87 1267.2 1103.4 1301.91ZM494.764 598.546L583.055 784.408L611.189 753.089L593.729 716.327L660.883 641.53L699.267 654.892L726.483 624.563C726.341 623.502 514.487 549.553 514.487 549.553L486.423 580.872L488.968 586.315C498.11 586.504 507.253 586.575 516.395 586.528C508.808 590.251 501.598 594.257 494.764 598.546ZM627.447 629.794L578.531 684.372L537.885 598.687L627.447 629.794ZM544.954 618.483C545.731 618.412 547.216 622.088 548.417 623.997C541.136 625.694 533.785 627.461 524.312 629.653C523.181 625.623 522.121 621.876 522.121 621.876C529.614 620.368 537.225 619.237 544.954 618.483ZM2271.32 1110.82C2271.46 1119.16 2272.02 1127.43 2272.02 1135.84C2272.02 1142.21 2271.6 1148.43 2271.53 1154.79C2271.03 1153.73 2270.82 1152.46 2270.26 1151.54C2261.91 1137.96 2262.27 1126.09 2269.69 1112.94C2270.26 1111.95 2270.75 1111.59 2271.32 1110.82ZM634.87 443.932L665.69 422.581L713.264 491.299C709.871 497.025 706.407 502.61 703.65 508.761C702.519 511.306 704.71 516.114 705.347 519.931C707.184 516.679 709.659 513.71 710.648 510.104C712.133 504.448 713.193 498.581 714.324 492.784L742.034 532.869C742.175 534.283 742.27 535.626 742.317 536.898C743.024 536.663 743.707 536.451 744.367 536.262L753.698 549.695C751.082 565.036 746.558 579.317 737.369 592.113L717.929 563.975C719.484 561.76 721.04 559.545 722.595 557.33C719.696 554.643 715.314 549.058 714.041 549.907C712.84 550.826 711.709 552.169 710.507 553.3L634.87 443.932ZM599.172 297.094C621.321 282.861 644.059 269.499 667.387 257.009C670.12 262.147 672.853 267.284 675.587 272.421C677.778 265.14 682.443 249.445 682.585 248.95C705.535 237.167 729.004 226.28 752.991 216.288C753.627 216.359 754.263 215.935 754.829 215.51C762.699 212.211 770.592 209.006 778.51 205.896C779.641 207.451 780.677 209.006 781.62 210.562C783.74 207.734 787.275 205.047 788.547 202.219C797.219 198.92 805.937 195.739 814.702 192.675C815.763 193.524 816.752 194.584 817.813 195.22C819.368 196.21 822.761 192.675 828.486 189.352C833.011 186.737 838.312 185.04 843.685 183.343C845.735 186.383 847.926 189.565 849.764 192.251C850.895 188.504 852.945 184.545 853.086 181.01C854.783 180.728 855.419 180.091 856.055 179.525C898.044 167.13 941.094 157.539 985.204 150.752C1034.54 143.117 1084.95 139.276 1136.41 139.228C1148.19 139.276 1159.99 139.488 1171.82 139.865C1234.95 142.056 1296.38 150.823 1356.04 164.326C1354.62 178.889 1353.42 189.07 1356.6 195.15C1359.64 200.947 1363.39 206.108 1367.42 211.127C1304.36 195.362 1239.05 185.252 1171.82 182.778C1159.99 182.448 1148.19 182.259 1136.41 182.212C1085.02 182.212 1034.47 186.454 985.204 194.301C981.811 194.914 978.417 195.527 975.024 196.139C974.883 193.736 974.035 191.968 972.197 191.403C957.07 186.454 953.818 162.912 932.187 170.618C919.039 168.426 910.132 170.689 907.093 185.04C905.396 192.746 892.884 168.285 891.824 187.232C891.47 194.231 896.206 202.573 901.013 208.653C901.649 209.501 902.851 210.208 903.911 210.986C816.045 233.043 733.057 267.473 656.713 312.012C643.282 305.578 626.953 304.942 613.734 297.943C610.553 296.246 605.393 296.67 599.172 297.094ZM1978.52 1175.22L1909.25 1164.19L1877.37 1226.76L1866.41 1157.4L1797.06 1146.45L1859.62 1114.56L1856.87 1097.38C1862.52 1095.05 1860.12 1086.57 1861.96 1080.98C1863.58 1076.1 1870.72 1072.07 1870.86 1067.62L1898.22 1094.91L1960.78 1063.02L1928.9 1125.59L1978.52 1175.22ZM1470.2 196.917C1494.05 205.401 1517.44 214.756 1540.39 224.984C1534.67 228.377 1528.59 233.467 1522.44 234.952C1512.54 237.285 1501.51 234.598 1491.05 235.447C1487.38 235.73 1483.98 239.759 1480.45 242.234C1466.88 228.66 1459.95 214.309 1470.2 196.917ZM1410.26 1729.98L1376.47 1744.26C1377.36 1745.06 1378.26 1745.84 1379.15 1746.59C1377.24 1747.65 1374.98 1748.93 1371.59 1750.76L1372.86 1971.48L1411.6 1955.08L1411.39 1914.43L1503.78 1875.19L1532.9 1903.54L1571.28 1887.21L1410.26 1729.98ZM1411.17 1879.08L1410.68 1784.34L1478.47 1850.52L1411.17 1879.08ZM1247.18 1853.35L1201.44 1950.91C1200.17 1951.83 1199.18 1952.6 1197.69 1953.66C1198.35 1954.09 1198.99 1954.49 1199.6 1954.87L1186.03 1983.78L1110.46 1861.26L1118.52 1999.83L1080.77 2002.02L1068.76 1794.67L1106.51 1792.48L1182.07 1914.99L1243.22 1784.49L1279.41 1782.44C1279.79 1783.24 1280.24 1784.04 1280.75 1784.84L1292.7 1989.72L1255.24 1991.91L1247.18 1853.35ZM1136.27 1419.76C1136.62 1422.94 1135.98 1425.91 1136.62 1428.6C1136.81 1429.07 1137 1429.54 1137.18 1430.01C1133.01 1424.99 1130.68 1420.04 1128.28 1415.1C1130.89 1416.58 1134 1417.78 1136.83 1419.05C1136.64 1419.29 1136.45 1419.53 1136.27 1419.76ZM1119.51 1356.63C1118.31 1360.09 1118.88 1364.76 1118.1 1368.29C1116.97 1369.14 1115.81 1369.94 1114.63 1370.7C1113.17 1363.63 1111.74 1355.99 1110.32 1347.79C1112.21 1346.24 1114.09 1344.68 1115.98 1343.13C1117.91 1346.05 1119.96 1349.14 1122.13 1352.39C1120.9 1353.75 1120.03 1355.17 1119.51 1356.63ZM1284.92 1161.36C1289.17 1163.41 1292.91 1166.45 1296.73 1169.21C1302.95 1164.69 1306.41 1160.8 1310.58 1159.81C1312.85 1159.24 1316.52 1163.56 1319.63 1165.68C1316.52 1169.21 1314.12 1173.67 1310.16 1175.86C1308.61 1176.78 1304.15 1173.31 1297.37 1169.92C1294.75 1171.76 1292.13 1173.67 1287.68 1176.92C1283.93 1172.46 1281.25 1169.28 1278.63 1166.1C1280.75 1164.4 1283.86 1160.87 1284.92 1161.36ZM1217.7 1105.37C1219.47 1107.07 1222.93 1109.83 1222.65 1110.25C1218.12 1117.25 1213.1 1123.89 1208.23 1130.61C1206.67 1129.2 1205.12 1127.78 1201.51 1124.6C1207.07 1118 1212.47 1111.59 1217.7 1105.37ZM1175.99 1140.08C1177.76 1136.27 1173.94 1123.89 1186.88 1134.43C1189.49 1136.55 1197.91 1131.88 1203.7 1130.33C1201.86 1139.38 1203.49 1147.22 1211.34 1153.09C1205.47 1160.09 1200.95 1170.55 1193.38 1173.31C1182.99 1177.13 1174.65 1160.87 1175.99 1140.08ZM1136.97 1016.44C1141.78 1020.63 1146.56 1024.82 1151.32 1029.02C1148.99 1030.36 1146.59 1031.64 1141.36 1034.53C1138.88 1031.07 1135.7 1027.53 1134 1023.51C1133.3 1021.81 1135.91 1018.84 1136.97 1016.44ZM1129.06 977.269C1132.73 979.39 1134.36 980.38 1136.05 981.299C1129.69 984.645 1123.33 987.992 1116.97 991.338C1116.26 989.853 1114.71 987.238 1114.99 986.955C1119.8 983.349 1124.81 980.097 1129.06 977.269ZM1126.37 1056.03C1128.63 1055.6 1131.95 1060.34 1134.78 1062.74C1131.6 1066.21 1128.84 1070.66 1124.81 1072.71C1123.12 1073.56 1118.73 1069.25 1111.81 1065C1118.45 1060.62 1122.13 1056.8 1126.37 1056.03ZM1111.67 1264.79C1111.67 1265.36 1111.67 1265.9 1111.67 1266.42C1113.22 1266.35 1114.92 1266.14 1116.12 1266.99C1125.38 1273.63 1134.5 1280.77 1143.62 1287.7C1140.29 1289.68 1137.11 1292.58 1133.65 1293.57C1115.41 1298.94 1111.1 1285.72 1111.67 1266.42C1110.61 1266.49 1111.67 1264.79 1111.67 1264.79ZM997.079 1622.45C1008.6 1625.77 1015.25 1637.58 1011.92 1649.1C1009.17 1658.5 1000.76 1664.51 991.354 1664.51C989.233 1664.51 987.395 1664.23 985.274 1663.88C974.106 1660.55 967.461 1648.82 970.783 1637.3C973.823 1625.77 985.91 1619.48 997.079 1622.45ZM942.649 1837.72C958.059 1800.25 938.125 1761.3 897.055 1744.33L813.43 1709.83L734.188 1901.98L769.108 1916.41L795.758 1851.79L832.94 1867.13L851.602 1950.41L891.329 1966.81L871.395 1878.73C902.639 1881.48 930.632 1866.85 942.649 1837.72ZM907.093 1823.09C899.034 1842.67 877.545 1847.9 853.793 1838.07L809.047 1819.62L835.131 1756.42L879.877 1774.87C903.629 1784.7 915.151 1803.5 907.093 1823.09ZM669.295 1859.99L638.263 1838.99L754.899 1667.13L785.932 1688.2L669.295 1859.99ZM584.186 1805.48L675.516 1599.76L646.604 1569.21L436.163 1648.82L465.005 1679.36L503.035 1665.08L571.957 1737.97L555.557 1775.15L584.186 1805.48ZM1570.3 284.581C1566.27 279.138 1559.62 273.977 1558.91 268.038C1558.28 263.584 1565.21 258.211 1568.81 253.263C1571.99 257.929 1575.24 262.595 1579.13 268.321C1575.81 274.542 1573.05 279.562 1570.3 284.581ZM2078.27 922.691C2075.72 918.874 2070.63 914.137 2071.13 911.38C2072.33 904.946 2076.14 899.432 2080.67 889.817C2083.14 896.745 2085.19 899.715 2084.7 901.553C2083 908.764 2080.53 915.622 2078.27 922.691ZM2114.17 978.542C2116.22 981.653 2120.75 986.106 2119.9 987.591C2116.51 993.459 2111.49 998.337 2107.04 1003.57C2104.7 999.68 2102.37 995.792 2098.34 989.005C2104.77 984.763 2109.51 981.653 2114.17 978.542ZM2099.83 1129.41C2097 1127.15 2093.75 1123.89 2092.76 1120.22C2092.12 1117.89 2095.37 1114.07 2096.93 1110.96C2099.68 1114.21 2102.44 1117.53 2106.26 1121.99C2103.29 1125.52 2100.46 1129.9 2099.83 1129.41ZM2095.58 1051.08C2093.68 1051.85 2086.47 1041.04 2086.68 1040.61C2092.12 1031.42 2098.27 1022.87 2104.35 1014.24C2108.45 1020.54 2112.62 1026.83 2118.91 1036.37C2110.15 1042.17 2103.22 1047.97 2095.58 1051.08ZM2029.7 1476.46C2035.43 1491.24 2038.4 1495.55 2038.4 1499.79C2038.33 1506.08 2040.94 1516.19 2028.99 1514.35C2025.6 1513.86 2021.08 1507.28 2020.94 1503.4C2020.72 1497.95 2024.19 1492.44 2029.7 1476.46ZM279.658 646.62C282.981 642.166 290.898 639.338 296.836 635.874C298.462 640.752 301.925 645.772 301.077 650.438C300.582 653.619 294.15 656.376 287.151 661.82C283.193 654.397 277.75 649.236 279.658 646.62ZM1628.4 1991.13C1626.85 1989.72 1625.29 1988.38 1621.69 1985.12C1627.34 1978.48 1632.64 1972.26 1637.94 1965.97C1639.64 1967.66 1643.1 1970.42 1642.82 1970.84C1638.3 1977.77 1633.28 1984.42 1628.4 1991.13ZM787.204 1502.05C795.687 1510.25 795.97 1523.83 787.84 1532.31C783.528 1536.84 778.085 1538.96 772.36 1538.96C766.917 1538.96 761.756 1536.84 757.586 1532.88C749.103 1524.75 748.82 1511.17 756.949 1502.69C765.149 1494.21 778.722 1493.92 787.204 1502.05ZM1654.63 988.652C1650.53 995.651 1646.21 1002.44 1642.89 1009.86C1641.76 1012.41 1643.95 1017.21 1644.59 1021.03C1646.43 1017.78 1648.9 1014.81 1649.89 1011.2C1651.8 1003.85 1653.14 996.216 1654.63 988.652C1661.48 990.914 1667.28 996.075 1669.05 1003.57C1672.09 1015.09 1665.16 1026.62 1653.64 1029.3C1651.85 1029.91 1650.03 1030.22 1648.19 1030.22C1638.86 1030.22 1630.03 1023.58 1627.62 1013.89C1624.65 1002.37 1631.87 990.631 1643.03 987.874C1647.06 986.955 1650.95 987.52 1654.63 988.652ZM1495.15 360.085L1526.75 375.356L1523.85 429.156C1522.3 426.47 1521.02 424.208 1519.26 421.097C1518.6 424.49 1517.91 427.554 1517.21 430.287C1516.69 428.402 1516.41 426.517 1516.36 424.632C1516.36 418.693 1518.55 412.825 1519.4 406.887C1520.39 400.1 1520.95 393.172 1521.73 386.314C1518.34 391.051 1515.3 396.353 1511.41 400.383C1507.45 404.554 1501.94 411.411 1498.4 410.422C1486.03 406.745 1485.89 415.653 1485.89 425.622C1485.85 432.267 1485.35 438.418 1484.41 444.073L1486.1 411.482L1466.59 428.803C1463.13 423.359 1460.3 419.047 1457.62 414.663C1458.04 413.627 1458.49 412.566 1458.96 411.482C1456.65 409.267 1454.51 407.193 1452.53 405.261C1451.54 403.352 1450.34 401.514 1449.49 399.605C1448.43 397.201 1449.91 393.667 1451.47 390.273L1470.84 373.094C1471.02 373.565 1471.19 374.013 1471.33 374.437C1473.1 379.386 1471.4 385.607 1473.17 390.556C1475.78 398.05 1480.17 404.978 1483.77 412.118C1488.86 405.332 1495.65 399.181 1498.4 391.616C1500.31 386.314 1500.53 377.76 1498.05 373.235C1498.38 372.575 1498.69 371.915 1498.97 371.256C1499.61 369.559 1497.49 366.095 1495.15 360.085ZM1480.31 243.294C1480.45 244.001 1480.66 244.85 1480.38 245.486C1480.19 245.91 1480 246.334 1479.81 246.758C1477.88 245.957 1475.95 245.18 1474.02 244.425C1475.71 243.718 1477.62 243.153 1480.31 243.294ZM1069.68 591.052C1074.98 590.345 1079.86 591.9 1083.96 594.658C1084.66 599.112 1088.97 604.414 1093.5 609.716C1095.05 621.24 1086.57 632.198 1074.77 633.4C1073.92 633.682 1073.28 633.682 1072.36 633.682C1061.48 633.682 1052.22 625.552 1050.87 614.948C1049.46 603.141 1057.87 592.254 1069.68 591.052ZM1641.27 919.793C1645.79 930.68 1640.63 943.405 1629.74 947.93C1627.11 949.155 1624.28 949.768 1621.26 949.768C1613.13 949.768 1605.07 944.678 1601.61 936.76C1596.87 925.943 1601.96 913.147 1612.85 908.623C1623.74 903.815 1636.39 908.905 1641.27 919.793ZM1200.24 410.987L1203.28 406.392C1205.35 422.37 1207.85 438.441 1210.77 454.607L1201.79 468.322C1200.59 466.838 1199.53 465.636 1198.19 463.798C1195.57 467.969 1193.03 471.15 1191.54 473.413L1137.18 347.431L1125.1 485.784L1087.42 482.532L1105.52 275.461L1143.19 278.784L1200.24 410.987ZM1409.69 222.651C1405.52 221.449 1401.49 219.964 1397.25 218.762C1398.52 214.803 1399.86 210.844 1400.64 207.168C1401.54 207.781 1402.39 208.393 1403.19 209.006C1408.42 213.177 1411.6 216.783 1409.69 222.651ZM1205.4 403.069L1222.93 376.628C1221.87 378.396 1220.74 380.163 1219.96 382.143C1215.37 394.232 1210.49 400.453 1205.4 403.069ZM1520.04 458.566C1520.7 459.415 1521.38 460.263 1522.09 461.111L1514.52 600.172L1477.27 582.215C1476.92 581.72 1479.11 541.423 1479.11 541.423L1449.13 527.001C1444.04 513.144 1439.73 498.793 1435.63 484.229L1481.02 506.074L1482.08 486.704C1493.1 482.957 1503.49 474.614 1514.17 465.636C1517 463.232 1518.76 460.899 1520.04 458.566ZM1564.71 1405.27C1571 1395.3 1584.36 1392.26 1594.33 1398.62C1604.3 1404.99 1607.34 1418.28 1600.97 1428.24C1596.73 1434.61 1589.81 1438.21 1582.88 1438.21C1578.82 1438.21 1574.98 1437.11 1571.36 1434.89C1561.25 1428.74 1558.35 1415.24 1564.71 1405.27ZM1563.79 864.791C1557.43 854.752 1560.19 841.461 1570.15 835.098C1580.12 828.806 1593.41 831.775 1599.77 841.814C1606.13 851.782 1603.09 865.073 1593.13 871.436C1589.81 873.557 1585.85 874.759 1581.96 874.759C1574.68 874.759 1567.75 871.083 1563.79 864.791ZM1675.62 1193.74C1671.88 1196.71 1667.21 1198.69 1662.05 1198.69C1661.48 1198.69 1661.2 1198.69 1660.56 1198.69C1648.76 1197.49 1639.99 1187.17 1640.91 1175.36C1641.83 1163.63 1652.08 1154.79 1663.89 1155.71C1667.92 1156.06 1671.31 1157.69 1674.35 1159.88C1674 1165.32 1673.29 1170.91 1673.01 1175.86C1672.72 1180.88 1671.87 1185.9 1671.1 1190.92C1672.61 1191.86 1674.11 1192.8 1675.62 1193.74ZM1613.7 1361.44C1602.81 1356.56 1597.65 1344.19 1602.46 1333.3C1607.05 1322.41 1619.71 1317.25 1630.59 1321.78C1641.48 1326.3 1646.64 1339.03 1641.83 1349.91C1638.51 1358.11 1630.31 1362.92 1622.18 1362.92C1619.42 1362.92 1616.38 1362.28 1613.7 1361.44ZM698.843 1467.27C691.562 1457.58 693.4 1444.29 702.731 1437.01C712.133 1430.08 725.776 1431.85 732.986 1441.25C739.984 1450.66 738.146 1464.23 728.815 1471.23C724.857 1474.2 720.333 1475.75 715.738 1475.75C709.447 1475.75 703.085 1472.71 698.843 1467.27ZM1660.28 1071.01C1669.9 1070.31 1678.31 1076.25 1681.56 1084.87C1679.86 1088.05 1678.17 1091.23 1675.97 1094.27C1671.66 1100.07 1668.06 1106.29 1666.36 1113.01C1665.51 1113.15 1664.81 1113.64 1663.89 1113.71C1663.27 1113.71 1662.66 1113.71 1662.05 1113.71C1650.88 1113.71 1641.48 1105.23 1640.56 1094.06C1640.06 1087.42 1642.82 1081.55 1647.2 1077.23C1648.97 1076.95 1649.68 1075.75 1650.46 1074.62C1653.35 1072.78 1656.61 1071.3 1660.28 1071.01ZM1137.68 1663.88C1137.33 1651.79 1146.44 1641.82 1158.25 1641.47C1170.06 1640.9 1180.02 1649.95 1180.59 1662.04C1181.22 1673.85 1171.82 1683.81 1160.02 1684.17C1147.65 1684.17 1138.25 1675.33 1137.68 1663.88ZM1247.74 1673.56C1246.19 1673.8 1244.77 1673.89 1243.5 1673.85C1233.53 1673.85 1224.49 1666.92 1222.29 1656.95C1219.96 1645.14 1227.52 1633.9 1238.98 1631.5C1250.5 1629.09 1261.95 1636.66 1264.35 1648.11C1266.83 1659.64 1259.26 1671.16 1247.74 1673.56ZM1661.34 461.536L1690.4 485.219L1628.68 561.006C1624.02 560.511 1620.55 563.339 1614.05 566.096C1615.96 568.5 1617.52 570.55 1619.14 572.671L1559.2 646.267L1531.42 623.643C1532.08 622.748 1532.62 621.523 1533.04 619.967C1532.9 619.19 1589.1 550.119 1589.1 550.119C1590.42 551.438 1591.69 552.782 1592.92 554.148C1597.3 559.168 1601.26 564.682 1605.43 570.055C1609.6 562.42 1613.84 554.855 1618.29 546.725C1614.69 539.797 1611.51 533.293 1608.26 526.647L1631.65 497.944C1634.13 500.065 1637.03 502.398 1639 504.378C1642.26 498.369 1645.44 492.43 1649.25 485.29C1647.77 483.522 1646.78 482.32 1645.58 480.836L1661.34 461.536ZM1590.58 671.01L1750.41 538.171L1774.3 567.015L1697.68 630.713C1696.55 629.064 1695.27 627.437 1693.86 625.835C1695.41 622.371 1698.03 618.836 1697.82 615.443C1697.46 610.494 1694.92 605.616 1693.36 600.738C1691.53 604.131 1689.69 607.595 1687.36 611.978C1689.34 616.362 1691.29 620.721 1693.22 625.057C1691.86 623.549 1690.61 621.994 1689.48 620.391C1685.09 628.592 1679.23 636.157 1676.89 645.135C1676.71 645.984 1676.73 646.95 1676.96 648.034L1641.05 677.797L1692.37 739.516C1691.74 739.94 1691.17 740.223 1690.54 740.859C1684.25 746.585 1675.83 752.382 1685.73 761.078C1689.41 764.33 1693.01 767.512 1695.98 771.046L1682.83 781.934L1630.66 719.226C1631.13 717.718 1631.58 716.186 1632.01 714.63C1632.78 711.873 1631.51 708.268 1631.16 705.086C1629.08 704.002 1627.01 702.942 1624.94 701.905C1623.9 704.12 1622.84 706.335 1621.76 708.55L1608.18 692.22C1614.55 685.503 1620.98 678.928 1626.63 671.435C1627.98 669.667 1625.29 662.597 1623.74 658.497C1622.75 655.952 1620.34 654.326 1618.5 652.346C1612.38 661.537 1605.92 671.175 1599.14 681.261L1590.58 671.01ZM535.976 1652.57L624.62 1619.13L586.236 1705.73L535.976 1652.57ZM1939.29 1847.62C1942.61 1851.72 1946.22 1855.54 1948.98 1860.2C1949.47 1861.12 1945.86 1867.98 1945.09 1867.7C1940.63 1865.93 1936.53 1862.82 1930.74 1859.21C1934.27 1854.34 1936.82 1851.01 1939.29 1847.62ZM1912.43 1896.75C1925.29 1899.02 1932.01 1892.72 1938.87 1881.55C1940.49 1878.87 1947.35 1877.59 1948.62 1879.36C1950.95 1882.68 1952.79 1890.25 1951.45 1893.36C1948.83 1899.44 1944.52 1906.37 1939.71 1908.14C1927.84 1912.45 1913.21 1906.44 1904.58 1923.41C1904.02 1924.47 1898.22 1920.93 1890.59 1917.75C1899.92 1908.28 1906.7 1895.69 1912.43 1896.75ZM1610.02 2128.78C1610.87 2127.15 1613.84 2126.31 1616.03 2125.81C1616.67 2125.67 1618.36 2127.58 1618.79 2128.85C1621.47 2137.05 1613.49 2154.09 1605.36 2157.48C1604.51 2157.84 1603.38 2157.55 1602.32 2157.62C1601.4 2155.08 1599.14 2152.11 1599.84 2150.2C1602.72 2142.85 1606.11 2135.71 1610.02 2128.78ZM1469.49 2183.15C1474.02 2189.51 1478.4 2193.04 1478.89 2197.07C1479.46 2202.16 1476.92 2207.61 1475.71 2212.91C1470.91 2207.25 1465.53 2201.95 1461.65 2195.73C1460.8 2194.39 1465.18 2189.86 1469.49 2183.15ZM332.604 1835.53C330.696 1837.86 324.404 1838.57 320.092 1840.05C318.679 1837.58 317.265 1835.11 315.356 1831.64C321.082 1829.59 325.96 1827.89 330.837 1826.13C331.615 1829.31 334.442 1833.34 332.604 1835.53ZM1187.02 2240.13C1187.37 2234.4 1185.39 2226.77 1188.43 2223.3C1193.59 2217.43 1202.5 2209.94 1208.72 2210.79C1221.73 2212.49 1214.31 2224.65 1214.09 2231.93C1213.95 2236.38 1206.81 2240.34 1205.19 2245.22C1202.78 2252.43 1207.8 2264.59 1192.89 2261.97C1185.47 2260.63 1185.68 2259.36 1187.02 2240.13ZM1389.69 172.314C1411.32 178.065 1432.66 184.521 1453.73 191.685C1448.57 197.412 1441.22 196.846 1431.25 192.534C1420.72 187.939 1408.35 187.373 1397.81 182.919C1394.21 181.364 1392.02 176.627 1389.69 172.314ZM1854.11 1050.86C1852.7 1051.9 1851.31 1053.01 1849.94 1054.19L1848.53 1045.28L1854.11 1050.86ZM1385.66 171.325C1386.08 171.466 1386.53 171.584 1387 171.678C1386.43 172.244 1386.01 171.749 1385.66 171.325ZM1537.21 241.951C1533.96 253.616 1530.99 260.898 1530.21 267.685C1523.22 264.432 1515.94 261.605 1508.8 258.494C1516.5 250.081 1526.68 245.344 1537.21 241.951ZM1517.77 1500.92C1509.01 1493.07 1508.3 1479.57 1516.01 1470.66C1523.71 1461.76 1537.14 1460.69 1546.26 1468.54C1554.96 1476.39 1555.87 1490.03 1548.03 1498.8C1543.79 1503.61 1537.78 1506.08 1531.98 1506.08C1526.82 1506.08 1521.73 1504.53 1517.77 1500.92ZM1053.28 1657.3C1054.48 1645.5 1065.08 1637.01 1076.82 1638.5C1088.62 1640.05 1097.1 1650.59 1095.62 1662.39C1094.42 1673.28 1085.02 1681.2 1074.41 1681.2C1073.47 1681.2 1072.67 1681.2 1072.01 1681.2C1060.2 1679.64 1051.72 1669.04 1053.28 1657.3ZM1709.83 1782.08L1560.19 1637.79L1586.27 1610.78L1711.11 1731.11L1749.7 1691.02C1752.18 1690.11 1754.72 1689.33 1757.2 1687.84C1762.99 1684.38 1767.02 1684.38 1761.65 1678.65L1785.19 1654.19L1810 1678.16L1709.83 1782.08ZM1085.58 1398.41C1093.85 1411.91 1103.89 1424 1113.29 1436.66C1101.13 1440.33 1082.68 1445.92 1054.05 1454.54V1424.36C1066.5 1414.11 1076.68 1405.76 1085.58 1398.41ZM1621.83 1847.83L1501.02 1678.87L1531.49 1657.02L1600.76 1753.87C1600.27 1755.08 1599.7 1756.35 1600.13 1757.06C1605.07 1765.33 1611.37 1772.89 1618.43 1782.44C1618.86 1781.52 1619.14 1780.95 1619.49 1780.1L1652.29 1826.06L1621.83 1847.83ZM1324.86 1650.3C1316.1 1650.3 1308.11 1644.79 1304.93 1636.38C1300.62 1625.14 1306.13 1612.76 1317.02 1608.59C1328.19 1604.35 1340.56 1610.08 1344.87 1620.96C1349.04 1632.13 1343.6 1644.58 1332.43 1648.82C1330.02 1649.67 1327.27 1650.3 1324.86 1650.3ZM1643.95 1281.9C1632.15 1278.86 1625.15 1267.41 1627.91 1255.89C1630.95 1244.36 1642.4 1237.43 1653.92 1240.19C1665.37 1242.88 1672.37 1254.68 1669.61 1266.21C1667.21 1275.82 1658.44 1282.54 1648.76 1282.54C1647.28 1282.54 1645.44 1282.18 1643.95 1281.9ZM594.789 1225.91C592.951 1214.46 600.868 1203.29 612.32 1201.45C624.125 1199.61 635.365 1207.53 637.132 1218.98C638.97 1230.79 631.053 1241.68 619.601 1243.8C618.399 1243.8 617.198 1244.08 615.996 1244.08C605.675 1244.08 596.627 1236.51 594.789 1225.91ZM616.279 1311.81C612.32 1300.64 618.399 1288.26 629.568 1284.59C640.737 1280.7 653.178 1286.71 656.783 1297.95C660.742 1309.12 654.592 1321.28 643.494 1325.17C641.02 1326.02 638.97 1326.37 636.566 1326.37C627.801 1326.37 619.318 1320.64 616.279 1311.81ZM608.998 1114.35C620.803 1114.35 630.204 1124.04 630.204 1135.84C630.487 1136.41 630.487 1137 630.204 1137.61C630.487 1149.7 620.803 1159.38 608.998 1159.38C597.193 1159.38 587.579 1150.05 587.579 1138.25C587.579 1137.89 587.579 1136.41 587.579 1135.84C587.579 1124.04 597.193 1114.35 608.998 1114.35ZM619.035 1030.29C630.77 1032.06 638.616 1042.95 636.849 1054.75C635.011 1065.36 625.963 1072.92 615.642 1072.92C614.441 1072.92 613.522 1072.57 612.32 1072.57C600.515 1070.45 592.669 1059.56 594.506 1047.82C596.344 1036.3 607.16 1028.1 619.035 1030.29ZM902.71 1632.77C892.107 1627.61 887.229 1614.88 892.389 1604C897.549 1593.46 910.274 1588.87 920.806 1594.03C931.692 1598.91 936.216 1611.56 931.056 1622.45C927.451 1630.01 919.605 1634.61 911.758 1634.61C908.742 1634.61 905.726 1634 902.71 1632.77ZM838.242 1592.54C834 1592.54 829.759 1591.34 826.154 1588.59C816.187 1581.94 813.783 1568.65 820.428 1558.96C827.073 1549.28 840.716 1546.59 850.329 1553.52C860.014 1560.17 862.488 1573.46 855.843 1583.14C851.531 1589.22 844.886 1592.54 838.242 1592.54ZM1229.65 366.448L1279.62 290.661L1317.02 293.984L1309.74 376.911C1309.17 377.571 1308.61 378.255 1308.04 378.962C1308.68 379.527 1309.03 379.81 1309.45 380.234L1308.32 393.666C1295.1 376.487 1288.74 347.36 1275.52 328.201C1266.4 314.981 1253.96 319.011 1254.46 342.906C1254.79 357.564 1255.14 372.245 1255.52 386.95L1232.4 421.804C1233.25 410.068 1234.45 398.262 1234.88 386.455C1235.09 379.951 1231.55 373.164 1229.65 366.448ZM651.34 1392.9C645.615 1382.29 649.573 1369.28 660.106 1363.84C670.426 1358.4 683.433 1362.36 689.159 1372.68C694.602 1383.21 690.714 1396.22 680.111 1401.66C677.071 1403.5 673.466 1404.07 670.073 1404.07C662.509 1404.07 654.945 1400.18 651.34 1392.9ZM765.361 566.662L776.46 582.71C768.26 575.64 765.22 572.6 765.361 566.662ZM1298.43 460.404C1297.79 464.646 1290.72 468.04 1286.41 471.857C1284.85 466.131 1282.66 460.475 1282.03 454.678C1281.74 452.274 1284.85 449.446 1286.83 446.124C1291.99 452.062 1298.92 456.728 1298.43 460.404ZM783.953 593.456L780.842 595.648C780.913 592.961 780.63 590.062 779.994 587.8L783.953 593.456ZM642.646 948.567C653.814 952.243 659.894 964.615 656.218 975.785C653.249 984.551 645.049 990.348 636.001 990.348C633.527 990.348 631.477 989.995 629.003 989.429C617.834 985.47 611.754 973.381 615.713 962.211C619.318 950.97 631.477 944.961 642.646 948.567ZM650.209 880.839C655.652 870.234 668.659 866.275 679.192 871.79C689.512 877.516 693.754 890.171 688.311 900.775C684.352 908.057 676.788 912.299 669.225 912.299C665.902 912.299 662.297 911.38 659.257 909.895C648.654 904.452 644.766 891.443 650.209 880.839ZM818.943 714.206C812.299 704.521 814.702 690.876 824.387 684.231C834.071 677.585 847.36 679.989 854.005 689.674C861.003 699.36 858.6 712.651 848.845 719.65C844.886 722.054 840.763 723.255 836.474 723.255C829.83 723.255 823.185 720.215 818.943 714.206ZM714.607 840.612C710.083 840.612 705.559 839.057 701.6 836.37C692.198 829.089 690.219 815.656 697.359 806.112C704.498 796.639 718.071 794.73 727.614 801.87C737.086 808.94 738.994 822.585 731.855 832.129C727.684 837.643 721.252 840.612 714.607 840.612ZM1401.35 481.543C1389.97 491.511 1380.57 499.924 1370.95 507.913C1370.67 508.125 1367.84 504.802 1367.14 502.681C1363.67 491.299 1377.67 468.11 1387.64 469.666C1391.24 470.16 1394.35 475.251 1401.35 481.543ZM1382.69 1602.8C1376.75 1592.62 1380.28 1579.54 1390.53 1573.46C1400.78 1567.73 1413.79 1571.05 1419.87 1581.3C1425.95 1591.63 1422.41 1604.77 1412.02 1610.71C1408.7 1612.55 1405.02 1613.4 1401.42 1613.4C1393.86 1613.4 1386.79 1609.87 1382.69 1602.8ZM1338.44 656.8C1335.75 659.675 1332.57 661.655 1328.89 662.739C1326.82 658.403 1324.67 654.067 1322.46 649.731C1328.82 649.731 1336.46 647.115 1343.95 643.792C1341.69 649.519 1339.99 653.407 1338.44 656.8ZM1234.52 598.9C1238.06 597.698 1241.73 596.991 1245.69 597.698C1245.83 600.172 1245.41 602.364 1244.84 604.555C1247.6 615.301 1250.29 625.835 1253.04 636.51C1249.58 638.843 1245.48 640.399 1241.1 640.399C1239.87 640.304 1238.48 640.092 1236.93 639.762C1231.55 638.631 1227.17 635.521 1224.13 631.42C1227.74 629.511 1231.84 620.321 1230.92 615.937C1230.49 613.958 1228.73 611.766 1226.68 609.999C1228.59 605.969 1233.46 602.576 1234.52 598.9ZM1293.76 476.877C1296.73 470.726 1298.92 462.243 1302.67 458.496L1300.9 478.644C1298.5 477.984 1296.12 477.395 1293.76 476.877ZM1483.07 710.247C1492.18 717.812 1493.53 731.244 1486.1 740.505C1485.75 741 1485.12 741.142 1484.69 741.566C1482.08 738.738 1479.67 735.557 1478.26 730.891C1476.84 726.013 1468.72 730.254 1457.76 730.396C1459.81 736.476 1461.58 741.919 1463.34 747.363C1460.66 746.656 1458.16 745.384 1455.85 743.546C1446.8 735.981 1445.25 722.336 1452.81 713.287C1460.09 704.167 1473.73 702.683 1483.07 710.247ZM1516.36 769.491C1525.41 761.644 1538.77 762.563 1546.61 771.329C1547.11 771.895 1547.32 772.673 1547.75 773.309C1546.61 774.793 1545.41 776.631 1543.86 778.47C1547.32 780.803 1549.72 783.348 1551.63 783.56C1552.27 790.135 1550.36 796.851 1545.06 801.588C1540.82 805.193 1535.73 807.031 1530.85 807.031C1524.77 807.031 1518.76 804.628 1514.52 799.749C1506.68 790.983 1507.59 777.409 1516.36 769.491ZM1316.8 638.207C1318.85 642.237 1320.55 645.913 1322.46 649.731C1319.28 649.731 1316.31 649.236 1314.12 647.327C1312.85 646.196 1311.93 645.772 1310.73 644.782C1312.35 643.015 1314.61 640.681 1316.8 638.207ZM1491.97 365.529C1490.32 363.031 1489.07 360.415 1488.23 357.682C1488.93 357.116 1494.16 359.661 1494.16 359.661C1493.39 361.782 1492.68 363.62 1491.97 365.529ZM1135.63 608.019C1135.98 599.748 1141.14 592.89 1148.21 589.638C1152.03 595.789 1157.33 601.091 1162.14 606.676C1163.34 601.374 1165.96 595.93 1165.32 590.84C1165.25 590.204 1164.61 589.568 1164.33 588.931C1172.81 591.971 1178.75 600.031 1178.54 609.504C1177.9 621.028 1168.57 630.077 1157.05 630.077C1144.39 629.794 1135.28 619.826 1135.63 608.019ZM1302.17 638.773C1304.93 640.54 1307.47 642.095 1310.73 644.782C1309.1 646.549 1308.04 647.822 1308.04 647.822C1311.08 653.053 1314.4 657.861 1317.65 662.81C1316.8 662.668 1316.03 662.739 1315.25 662.456C1305.71 658.709 1300.55 648.741 1302.17 638.773ZM1454.37 1557.41C1446.8 1548.08 1448.29 1534.78 1457.4 1527.22C1466.45 1519.66 1480.03 1520.86 1487.59 1530.19C1495.15 1539.31 1493.67 1552.6 1484.62 1560.17C1480.66 1563.49 1475.85 1564.97 1470.98 1564.97C1464.9 1564.97 1458.61 1562.57 1454.37 1557.41ZM1418.53 419.471L1433.79 405.897C1435.82 413.815 1439.29 421.003 1444.19 427.46C1449.98 429.392 1455.78 431.324 1461.58 433.257L1429.55 461.606C1427.15 452.486 1419.66 424.066 1418.53 419.471ZM1410.18 660.052C1420.51 666.062 1424.11 679.07 1418.03 689.392C1414.14 696.32 1406.86 699.925 1399.58 699.925C1395.95 699.925 1392.32 699.03 1388.7 697.239C1378.45 691.159 1375.12 678.151 1380.85 667.9C1386.93 657.578 1399.86 654.255 1410.18 660.052Z" fill="#333333"/>
</svg>
