<svg width="188" height="1270" viewBox="0 0 188 1270" fill="none" xmlns="http://www.w3.org/2000/svg">
<path d="M127.658 1239.43C128.25 1246.63 137.085 1254.69 127.567 1259.88C103.888 1272.81 79.2976 1273.77 57.3941 1256.87C54.2975 1254.46 60.3084 1240.21 62.3576 1231.06C64.1791 1230.69 66.0916 1231.42 66.9568 1229.78C69.1881 1225.41 70.782 1220.76 71.6472 1215.94C72.057 1213.75 69.8257 1213.11 68.2319 1211.61C19.3246 1187.66 -7.08714 1150.1 1.65606 1115.99C7.98577 1108.71 8.35017 1099.65 11.7199 1091.77C23.2409 1064.77 43.2774 1047.01 71.6017 1040.86C102.157 1034.21 130.983 1039.86 154.844 1061.67C167.868 1073.6 176.247 1088.63 179.617 1106.16C179.935 1107.71 179.662 1109.8 180.983 1110.62C187.95 1114.81 185.855 1121.64 186.675 1128.06C182.121 1169.54 159.808 1196.72 120.372 1210.52C115.636 1212.61 114.999 1215.57 116.411 1219.99C118.687 1227.23 121.101 1234.24 127.658 1239.43Z" fill="#D5A843"/>
<path d="M187.313 1129.06C189.498 1097.69 145.6 1046.05 113.815 1042C60.263 1035.17 20.5543 1059.21 10.445 1104.11C9.48872 1108.25 5.57239 1111.71 2.65799 1115.54C2.38477 1080.11 34.2611 1041.73 68.3231 1036.45C73.6966 1035.63 73.5143 1032.53 73.5143 1028.75C74.4251 724.952 75.5636 421.154 75.0172 117.355C75.0172 109.478 55.2538 102.83 47.0571 93.4958C30.4359 74.6905 31.2101 52.6069 42.2757 31.6615C55.6182 6.39053 78.7056 -4.35536 105.983 1.60951C129.07 6.66371 145.145 22.737 150.199 47.1428C156.757 78.8796 144.143 98.9598 113.952 111.026C103.615 115.124 110.491 128.921 110.491 137.891C111.083 434.632 112.085 731.418 113.451 1028.16C113.496 1041.96 129.025 1037.54 136.857 1042.27C168.642 1061.49 186.903 1087.94 185.537 1126.1C185.491 1127.42 185.855 1128.74 185.992 1130.06C186.493 1130.06 186.994 1129.93 187.313 1129.06Z" fill="#673535"/>
<path d="M127.658 1239.39C117.64 1232.01 106.893 1224.36 119.735 1210.38C122.421 1220.04 124.926 1229.46 127.658 1239.39Z" fill="#673535"/>
<path d="M68.0051 1211.79C70.4186 1211.79 72.8777 1212.25 75.3367 1212.75C72.65 1220.13 70.0088 1227.5 67.3221 1234.88C65.9104 1233.74 64.4987 1232.6 62.8594 1231.1C63.6335 1226.77 64.6354 1222.86 65.7283 1218.4C66.3202 1216.8 66.7301 1215.76 67.7775 1214.62C68.0963 1213.62 68.0962 1212.93 68.0051 1211.79Z" fill="#673535"/>
<path d="M67.7763 1214.48C67.6396 1215.44 67.1387 1216.58 66.2734 1217.76C66.3645 1216.76 66.911 1215.71 67.7763 1214.48Z" fill="#D5A843"/>
<path d="M85.0818 1211.57C83.9889 1212.52 82.3951 1213.43 86.2658 1211.25C81.5754 1211.93 83.0781 1211.7 85.0818 1211.57Z" fill="#673535"/>
<path d="M103.615 296.119C104.389 539.632 105.163 782.461 106.074 1025.29C106.074 1031.03 105.163 1035.44 98.6511 1033.17C92.9589 1031.16 81.9844 1040.63 81.9844 1025.47C82.1665 774.401 82.0754 523.331 82.3942 272.26C82.4853 220.67 84.0791 169.081 84.6711 117.538C84.7621 110.343 88.9061 110.662 93.5509 110.753C98.3779 110.89 103.387 109.615 103.387 117.902C103.205 177.095 103.478 236.243 103.615 296.119Z" fill="#D5A843"/>
<path d="M144.233 72.2771C132.576 104.515 106.665 108.203 78.8415 104.242C59.2604 101.464 45.8724 89.6253 42.958 68.088C38.9507 38.6735 52.9307 18.8665 78.5227 10.033C108.395 -0.303028 129.935 14.4498 141.41 42.4072C145.007 51.1496 143.55 61.8955 144.233 72.2771Z" fill="#D5A843"/>
</svg>
