<svg width="4476" height="1938" viewBox="0 0 4476 1938" fill="none" xmlns="http://www.w3.org/2000/svg">
<path d="M390.794 1064.9C409.156 1101.36 411.277 1137.42 396.495 1175.41C382.774 1210.67 360.104 1238.52 331.733 1261.85C315.891 1274.85 296.601 1283.2 277.444 1291.09C241.053 1306 203.535 1305.07 165.354 1301.3C138.043 1298.58 112.722 1290.62 88.7262 1278.23C34.4374 1250.18 -6.39521 1189.59 0.830037 1122.11C3.61408 1095.86 11.1709 1070.73 25.8202 1047.8C37.553 1029.37 49.8159 1011.87 68.4425 998.342C70.2985 997.745 71.094 997.48 73.0163 997.878C76.4632 1002.65 75.3363 1006.76 73.6792 1010.61C59.759 1042.29 64.399 1073.05 78.5843 1104.54C87.0027 1127.15 102.713 1142 122.4 1151.81C149.511 1165.33 178.346 1169.71 208.573 1163.61C240.059 1157.18 272.34 1153.6 299.982 1134.97C302.633 1133.18 305.152 1131.39 308.599 1128.67C334.782 1109.91 353.475 1086.51 366.467 1058.47C368.655 1053.76 369.848 1048.52 373.891 1043.42C375.482 1042.36 376.211 1042.16 377.935 1042.49C382.509 1048.26 386.154 1053.43 388.541 1060.52C388.938 1062.51 389.402 1063.51 390.794 1064.9Z" fill="#A7D9DF"/>
<path d="M4468.35 1264.44C4462.98 1309.45 4446.08 1348.89 4421.62 1385.35C4391.52 1430.3 4352.94 1465.83 4307.07 1494.67C4264.19 1521.58 4218.18 1537.83 4168.54 1545.71C4148.85 1548.83 4130.09 1556.79 4109.87 1558.51C4087.4 1560.43 4065.13 1563.15 4042.39 1561.56C4019.19 1559.97 3996.19 1558.04 3973.19 1554.8C3956.82 1552.48 3941.57 1546.58 3926.06 1541.54C3919.5 1539.42 3916.71 1540.41 3913.66 1546.18C3899.68 1572.89 3883.57 1598.55 3864.54 1621.82C3845.19 1645.48 3827.89 1671.47 3803.49 1690.36C3767.24 1718.4 3730.31 1745.45 3687.23 1763.15C3641.69 1781.91 3595.29 1797.62 3547.03 1807.1C3526.95 1811.08 3506.46 1813.4 3485.98 1815.59C3437.92 1820.69 3389.8 1817.98 3341.68 1818.44C3309.33 1818.7 3277.58 1813.4 3245.83 1808.3C3218.25 1803.92 3190.87 1798.88 3163.5 1793.31C3137.58 1788.01 3111.79 1781.91 3087.86 1770.84C3063.54 1759.57 3037.49 1751.15 3016.47 1733.39C3009.91 1727.82 3002.88 1728.22 2995.79 1732.06C2958.34 1752.35 2917.64 1764.28 2877.4 1776.94C2854.34 1784.17 2830.21 1788.14 2805.95 1789.74C2797.99 1790.27 2790.3 1792.39 2782.42 1792.72C2757.03 1793.78 2731.91 1790.4 2706.72 1787.75C2661.51 1782.91 2620.01 1765.41 2577.39 1751.55C2561.42 1746.38 2545.04 1742.14 2528.94 1736.97C2521.31 1734.51 2513.42 1738.89 2505.67 1739.82C2492.08 1741.47 2478.82 1745.45 2465.03 1745.39C2457.61 1745.39 2453.63 1749.89 2450.39 1755.73C2433.02 1786.75 2407.37 1810.48 2380.32 1832.49C2351.22 1856.09 2320.13 1876.84 2286.06 1892.89C2256.36 1906.87 2226.34 1919.2 2193.46 1924.31C2176.89 1926.89 2160.85 1932.93 2143.88 1934.05C2120.34 1935.64 2097.21 1939.02 2073.15 1937.7C2047.89 1936.31 2022.9 1933.99 1998.18 1929.48C1977.96 1925.83 1957.88 1921.13 1938.65 1913.44C1928.31 1909.33 1917.11 1908.6 1906.31 1906.34C1875.28 1899.78 1847.84 1884.86 1820.8 1869.29C1805.28 1860.34 1789.84 1850.86 1778.17 1836.74C1773.33 1830.84 1767.96 1830.7 1761.2 1833.62C1719.97 1851.52 1675.63 1856.23 1631.88 1862.06C1599.46 1866.43 1566.52 1868.82 1533.77 1865.84C1498.58 1862.59 1464.17 1855.5 1431.16 1841.18C1398.81 1827.19 1368.65 1809.69 1341.08 1788.48C1317.28 1770.18 1296.34 1748.17 1278.64 1723.38C1263.19 1701.7 1251.86 1677.9 1242.11 1653.31C1238.2 1643.43 1236.74 1642.1 1227.2 1644.09C1181.53 1653.44 1135.39 1658.08 1088.73 1656.09C1042.19 1654.17 996.322 1648.67 951.711 1634.61C924.004 1625.86 895.832 1617.97 870.709 1602.99C848.039 1589.47 826.164 1574.82 804.82 1559.17C781.819 1542.33 757.823 1526.89 738.401 1505.61C734.954 1501.9 730.844 1500.3 725.674 1500.24C701.811 1500.04 678.279 1496.72 655.278 1490.96C608.877 1479.22 565.592 1461.46 526.947 1431.69C493.008 1405.57 467.289 1373.55 447.071 1336.83C432.289 1309.91 423.871 1280.68 419.695 1249.79C415.651 1219.36 417.11 1189.4 424.203 1160.23C435.405 1114.02 450.518 1068.88 483.198 1031.36C488.567 1041.9 481.275 1048.53 476.834 1056.08C439.979 1118.73 421.683 1185.82 433.151 1258.41C446.674 1344.05 497.051 1404.71 570.364 1446.87C614.047 1472 661.774 1486.32 712.615 1487.18C735.484 1487.58 750.465 1501.5 765.976 1515.15C845.852 1585.56 936.465 1632.29 1044.05 1642.37C1103.44 1647.94 1162.37 1645.68 1220.9 1634.15C1242.38 1629.91 1245.1 1631.83 1253.05 1651.85C1280.76 1721.65 1329.08 1772.76 1393.71 1810.09C1449.92 1842.5 1509.91 1859.08 1574.41 1855.5C1636.25 1852.05 1698.1 1846.75 1756.5 1823.08C1767.7 1818.51 1776.12 1820.23 1785.2 1828.45C1824.04 1863.52 1868.85 1887.25 1920.42 1898.25C1952.44 1905.08 1983.33 1916.49 2016.08 1921.32C2060.95 1927.95 2105.83 1928.48 2150.5 1922.05C2251.39 1907.54 2337.96 1864.25 2408.56 1790C2420.23 1777.67 2431.49 1765.01 2440.71 1750.76C2446.87 1741.21 2454.76 1735.18 2466.49 1734.78C2471.27 1734.58 2476.1 1733.92 2480.55 1732.46C2517.07 1720.33 2551.21 1730.93 2585.54 1742.6C2624.06 1755.73 2661.91 1770.97 2702.87 1776.41C2772.34 1785.69 2839.89 1779.72 2906.11 1756.46C2935.14 1746.25 2964.24 1736.63 2991.42 1721.92C3001.1 1716.68 3010.31 1716.02 3019.79 1722.51C3083.56 1766.2 3156.4 1782.97 3231.11 1795.37C3295.14 1805.98 3359.37 1809.56 3424 1808.23C3521.11 1806.24 3614.31 1786.88 3701.94 1744.46C3784.74 1704.42 3844.73 1639.92 3891.92 1562.42C3895.77 1556.06 3899.94 1549.89 3903.12 1543.2C3909.16 1530.27 3918.7 1526.82 3931.83 1531.73C3976.3 1548.37 4022.84 1553.27 4069.44 1550.16C4168.01 1543.59 4262.66 1522.58 4341.34 1457.61C4397.89 1410.94 4437.92 1352.67 4456.48 1280.81C4457.94 1275.18 4458.47 1269.28 4462.38 1263.24C4464.9 1261.59 4466.43 1261.85 4468.35 1264.44Z" fill="#B6C9CC"/>
<path d="M1710.82 448.782C1709.9 442.749 1712.81 439.169 1715.73 435.258C1733.3 411.261 1754.64 390.777 1775.12 369.364C1814.43 328.396 1858.84 293.526 1904.58 260.447C1925.33 245.398 1947 230.947 1971.13 221.003C1978.89 217.821 1985.98 212.915 1993.07 208.407C2038.94 179.504 2089.39 160.876 2140.49 143.839C2169.06 134.293 2198.69 129.255 2227.93 122.825C2238.33 120.571 2248.81 120.372 2259.21 118.847C2294.35 113.809 2329.94 112.881 2365.21 115.533C2391.32 117.521 2417.9 117.124 2443.62 123.62C2449.92 125.211 2455.16 122.825 2460 119.576C2513.89 83.4472 2573.61 62.9629 2636.91 50.5663C2687.76 40.6226 2738.86 39.7609 2789.9 42.4126C2835.64 44.7991 2880.78 53.3506 2924.33 68.5977C2938.78 73.6359 2953.43 78.0775 2968.08 82.4527C2974.71 84.4415 2980.94 87.2921 2987.44 91.8663C2988.3 93.5899 2988.5 94.4517 2987.84 96.2416C2979.88 100.749 2973.58 97.3684 2967.15 95.1145C2903.52 72.6416 2838.62 58.4551 2770.68 54.5439C2680.2 49.3068 2595.15 66.145 2513.16 102.804C2496.65 110.163 2481.47 119.842 2466.43 129.653C2459.07 134.492 2451.58 136.879 2442.5 135.619C2399.48 129.586 2356.19 127.995 2312.84 128.526C2226.8 129.454 2145.33 150.336 2066.98 184.476C2000.3 213.512 1937.59 249.84 1879.66 293.858C1823.51 336.55 1772.14 384.479 1727.86 439.7C1725.21 443.015 1722.69 446.462 1717.98 449.511C1715.2 450.439 1713.48 450.373 1710.82 448.782Z" fill="#DAD9D4"/>
<path d="M3289.24 4.36104C3291.23 2.43858 3292.56 0.980295 3293.88 0.980295C3319.73 0.980295 3345.65 -2.00283 3371.44 2.43872C3377.14 3.4331 3383.04 3.56572 3388.8 3.30055C3416.51 2.17359 3443.29 8.13987 3470.2 13.0455C3510.24 20.3376 3548.69 33.0656 3586.34 48.0476C3618.22 60.7756 3649.51 74.8958 3678.08 94.4519C3696.71 107.18 3716.99 117.455 3735.35 130.78C3756.3 146.027 3776.18 162.401 3795.27 179.836C3836.97 217.755 3871.37 261.706 3902.26 308.641C3916.05 329.589 3925.46 352.46 3936.27 374.8C3946.67 396.213 3955.29 418.354 3961.59 441.225C3974.05 486.37 3987.9 531.382 3985.98 579.178C3985.78 583.951 3986.58 588.592 3987.84 593.232C3989.89 600.988 3989.56 609.076 3988.37 616.898C3985.65 634.797 3985.52 634.399 4002.16 638.974C4065.53 656.541 4118.55 689.753 4160.25 741.395C4180.86 766.851 4195.05 795.422 4207.71 826.182C4205.39 829.032 4202.94 829.298 4199.16 828.038C4192 821.011 4190.54 812.327 4186.7 804.836C4145.8 725.02 4082.3 673.048 3995.73 649.647C3977.3 644.675 3975.24 643.283 3975.77 623.461C3977.3 563.666 3969.61 505.064 3951.84 448.119C3932.02 384.545 3903.39 325.28 3862.69 271.982C3788.18 174.4 3692.46 104.727 3579.91 58.2564C3511.5 29.9498 3439.71 14.1723 3365.14 13.9735C3345.65 13.9072 3326.23 10.3938 3306.68 13.6421C3301.11 14.5702 3294.94 14.2387 3289.37 9.06792C3288.78 7.14545 3288.71 6.3498 3289.24 4.36104Z" fill="#DAD9D4"/>
<path d="M3288.45 3.30054C3289.84 3.89716 3289.84 4.49375 3289.84 5.95217C3277.84 16.5589 3263.19 19.078 3248.74 21.7297C3205.85 29.6184 3164.75 42.4789 3125.31 61.3721C3091.04 77.7462 3061.28 100.617 3032.91 125.211C3011.83 143.508 3011.04 144.171 2997.51 120.637C2993.4 113.411 2986.51 107.511 2987.11 97.1697C2987.84 95.5124 2987.9 94.9821 2988.03 93.5237C3000.96 93.2586 3009.45 83.9114 3019.26 78.2103C3044.11 63.7587 3070.76 53.9475 3097.74 44.6666C3115.7 38.4352 3133.47 31.6071 3151.9 26.8341C3177.88 20.2049 3203.33 11.5869 3230.44 9.59815C3249.4 8.27231 3268.03 3.89716 3288.45 3.30054Z" fill="#A7D9DF"/>
<path d="M986.845 885.049C986.248 873.581 990.557 863.836 994.667 854.223C1008.79 821.077 1026.82 790.053 1045.71 759.426C1048.23 755.382 1050.81 751.272 1054.06 747.891C1077.13 723.893 1098.07 697.775 1123.13 675.699C1147.72 654.022 1174.17 634.864 1201.88 617.296C1258.75 581.3 1321.33 559.158 1386.16 542.784C1414.79 535.558 1444.29 533.304 1473.72 530.918C1509.91 528.001 1546.3 527.537 1582.1 519.781C1596.62 516.665 1611.66 519.052 1626.44 518.654C1630.69 518.521 1634.93 518.654 1639.17 518.72C1660.71 518.786 1660.71 518.786 1673.84 502.545C1680.6 513.019 1672.05 519.913 1666.81 528.796C1659.39 533.039 1652.43 532.509 1645.6 532.31C1603.18 531.05 1561.28 535.293 1519.26 540.464C1488.97 544.176 1458.14 543.115 1427.78 548.021C1326.7 564.263 1234.69 601.452 1154.35 665.954C1139.9 677.556 1126.91 690.748 1112.19 703.873C1110.54 705.133 1109.94 705.663 1107.35 707.586C1061.35 751.206 1029.53 801.654 1005.67 857.406C1001.96 866.09 999.373 875.304 993.473 884.254C991.021 885.646 989.43 885.845 986.845 885.049Z" fill="#DAD9D4"/>
<path d="M985.714 885.314C987.172 884.32 988.565 884.187 990.951 884.121C999.436 901.224 997.778 907.058 980.013 924.824C975.771 929.796 971.86 933.376 967.684 936.691C951.378 949.485 950.914 948.822 934.21 935.762C901.132 909.842 865.006 888.894 824.638 873.316C823.378 871.857 822.981 871.128 823.179 869.338C861.626 867.217 899.21 869.272 936.927 880.276C938.651 881.735 939.446 882.464 941.037 883.392C943.026 883.723 944.285 883.79 946.406 883.988C948.726 885.712 950.648 885.845 953.499 886.508C955.686 886.905 956.946 886.972 959.133 887.104C960.79 888.099 961.586 888.828 963.309 889.623C966.292 889.955 968.413 890.087 971.661 890.353C976.368 892.607 980.08 893.999 984.72 890.816C985.383 888.695 985.515 887.502 985.714 885.314Z" fill="#A7D9DF"/>
<path d="M1665.42 529.526C1666.48 519.449 1673.24 513.019 1674.9 503.407C1674.83 502.213 1675.03 502.28 1675.1 502.28C1676.16 501.816 1676.96 501.153 1677.69 499.429C1677.82 498.634 1678.02 497.44 1678.15 496.844C1679.28 495.65 1680.07 494.855 1680.87 493.131C1681.07 492.336 1681.2 491.143 1681.4 490.546C1682.39 489.419 1683.19 488.69 1684.18 487.231C1684.58 486.569 1684.78 486.568 1684.71 486.502C1687.83 483.453 1686.7 478.481 1690.35 474.636C1690.94 473.774 1691.07 473.973 1691.07 473.84C1691.67 473.31 1692.27 472.912 1693.46 471.586C1694.06 470.658 1694.12 470.526 1694.19 470.46C1695.32 470.062 1696.11 469.399 1696.71 467.609C1696.84 466.813 1697.04 465.686 1697.24 465.09C1698.3 463.963 1699.03 463.234 1700.09 461.775C1700.49 461.112 1700.69 461.112 1700.62 461.046C1703.27 458.991 1703.54 455.478 1706.25 452.296C1706.85 451.5 1706.92 451.633 1706.92 451.566C1707.51 451.102 1708.11 450.638 1709.3 449.312C1709.9 448.384 1709.83 448.185 1709.83 447.987C1711.36 448.053 1712.82 448.252 1715.47 448.451C1722.23 454.085 1720.97 461.311 1720.9 468.007C1720.64 497.308 1722.96 526.145 1733.37 553.921C1737.61 565.191 1734.63 575.93 1730.32 586.338C1727.13 594.028 1720.24 596.281 1715.73 589.387C1701.61 567.378 1681.66 550.673 1665.42 529.526Z" fill="#A7D9DF"/>
<path d="M4469.81 1264.77C4467.95 1265.23 4467.29 1264.57 4466.5 1263.05C4460.33 1256.22 4462.52 1248.86 4463.18 1241.7C4463.58 1237.39 4467.42 1232.75 4460.99 1228.44C4458.01 1225.92 4456.49 1223.2 4457.35 1220.82C4464.77 1199.94 4459.73 1179.39 4456.55 1157.44C4462.25 1135.7 4453.9 1117.4 4446.48 1099.5C4430.7 1061.58 4405.58 1030.49 4374.36 1004.11C4334.19 970.168 4287.92 949.353 4236.48 939.475C4217.99 935.895 4214.61 931.984 4214.21 912.958C4214.01 905.534 4213.94 898.109 4212.82 889.557C4213.21 884.651 4215 882.066 4219.71 880.807C4227.86 890.552 4223.69 902.285 4226.94 912.892C4230.58 924.758 4230.18 926.084 4242.25 928.603C4264.45 933.177 4285.86 940.536 4307.34 947.762C4332.4 956.181 4352.48 972.753 4373.16 987.868C4417.44 1020.15 4447.27 1063.44 4465.24 1115.15C4469.41 1127.28 4470.8 1140.01 4471.73 1152.34C4473.65 1179.12 4471.73 1206.1 4475.18 1232.88C4476.57 1243.36 4472.2 1253.57 4469.81 1264.77Z" fill="#DAD9D4"/>
<path d="M378.797 1041.83C378.333 1043.02 377.737 1043.09 376.278 1043.22C367.263 1043.82 365.341 1036.59 361.762 1031.82C345.124 1009.68 326.232 989.923 301.971 976.2C254.841 949.551 205.193 949.816 154.682 963.936C134.332 969.637 114.91 977.924 97.4768 990.453C91.1795 994.961 85.0811 1000.66 75.2707 999.535C73.3484 998.806 72.5529 998.674 70.498 998.276C70.6969 990.188 78.585 990.387 83.2913 986.675C115.705 961.219 152.826 948.756 193.526 943.983C240.391 938.48 283.808 947.364 322.188 974.477C341.411 988.001 357.784 1005.5 371.373 1025.12C374.886 1029.83 378.002 1034.67 378.797 1041.83Z" fill="#DAD9D4"/>
<path d="M822.784 867.349C823.712 868.211 823.712 869.802 823.712 870.597C817.812 877.956 809.792 878.354 801.903 878.619C751.327 880.276 701.744 889.226 655.94 910.174C611.528 930.459 567.116 952.269 532.515 988.663C527.543 993.9 522.837 1000.13 513.225 999.8C511.568 998.673 511.104 997.944 511.303 996.088C512.297 988.995 516.937 985.813 520.782 982.366C538.414 966.654 555.582 950.546 576.463 938.613C600.193 925.023 623.858 911.168 648.715 900.164C683.383 884.85 719.841 875.371 757.757 870.597C776.582 868.211 795.739 870.598 814.167 865.427C816.487 864.764 819.271 866.09 822.784 867.349Z" fill="#DAD9D4"/>
<path d="M4220.97 879.613C4219.31 882.132 4217.65 883.392 4215.47 885.248C4212.68 892.408 4206.45 891.082 4201.68 892.01C4186.23 894.993 4170.92 898.705 4155.74 902.815C4150.7 904.207 4144.87 904.539 4141.49 899.302C4138.77 895.059 4141.16 890.684 4144.41 888.032C4165.42 870.929 4178.81 847.197 4198.63 827.574C4201.81 827.11 4203.8 827.11 4206.78 827.176C4212.88 838.711 4216.2 850.644 4218.18 862.974C4218.91 868.145 4219.97 873.249 4220.97 879.613Z" fill="#A7D9DF"/>
<path d="M511.039 995.558C511.967 995.624 512.034 996.287 512.166 997.878C513.824 1000.73 514.553 1002.92 514.022 1006.5C508.388 1013.92 501.163 1018.69 497.384 1027.71C493.407 1031.22 489.894 1032.88 484.591 1031.22C483.597 1030.56 483.332 1030.29 483.133 1030.1C489.297 1016.44 499.24 1005.97 511.039 995.558Z" fill="#B6C9CC"/>
<path d="M1689.88 474.04C1691.21 478.282 1688.95 481.862 1685.57 485.84C1685.17 482.061 1683.72 477.089 1689.88 474.04Z" fill="#DAD9D4"/>
<path d="M984.057 890.154C983.659 901.755 978.157 893.402 973.385 891.214C976.103 890.419 979.483 890.419 984.057 890.154Z" fill="#DAD9D4"/>
<path d="M1705.79 451.765C1707.18 455.345 1705.66 458.196 1701.48 460.648C1700.82 457.466 1700.69 453.754 1705.79 451.765Z" fill="#DAD9D4"/>
<path d="M953.697 886.11C952.305 887.104 950.316 886.972 947.93 884.85C949.255 884.453 951.111 884.917 953.697 886.11Z" fill="#DAD9D4"/>
<path d="M1709.24 448.649C1709.83 449.445 1709.3 450.307 1707.71 451.169C1707.18 450.439 1707.65 449.578 1709.24 448.649Z" fill="#DAD9D4"/>
<path d="M941.305 882.928C940.775 883.127 939.781 882.729 938.322 881.602C938.853 881.337 939.78 881.867 941.305 882.928Z" fill="#DAD9D4"/>
<path d="M1699.82 461.444C1700.02 461.974 1699.42 462.903 1698.16 464.162C1697.96 463.632 1698.49 462.704 1699.82 461.444Z" fill="#DAD9D4"/>
<path d="M1696.24 467.277C1696.51 467.808 1696.11 468.736 1694.99 470.061C1694.39 469.332 1694.85 468.471 1696.24 467.277Z" fill="#DAD9D4"/>
<path d="M1693.33 470.924C1693.92 471.719 1693.39 472.581 1691.8 473.443C1691.27 472.713 1691.8 471.852 1693.33 470.924Z" fill="#DAD9D4"/>
<path d="M391.189 1064.63C390.592 1064.63 389.797 1063.9 388.803 1062.31C389.466 1062.25 390.195 1063.04 391.189 1064.63Z" fill="#DAD9D4"/>
<path d="M963.578 889.093C963.048 889.358 961.988 888.96 960.529 887.833C961.06 887.568 962.054 888.032 963.578 889.093Z" fill="#DAD9D4"/>
<path d="M1683.85 486.9C1684.05 487.43 1683.52 488.358 1682.26 489.618C1682.06 489.021 1682.59 488.159 1683.85 486.9Z" fill="#DAD9D4"/>
<path d="M1680.47 492.8C1680.67 493.33 1680.27 494.324 1679.08 495.783C1678.81 495.252 1679.28 494.325 1680.47 492.8Z" fill="#DAD9D4"/>
<path d="M1677.22 499.097C1677.42 499.628 1677.08 500.556 1675.96 501.882C1675.36 501.219 1675.83 500.291 1677.22 499.097Z" fill="#DAD9D4"/>
<path d="M73.8803 999.999C81.901 997.48 87.5353 992.442 93.5011 988.266C136.786 957.904 185.441 947.165 237.144 951.275C270.089 953.926 299.785 965.925 325.968 987.868C344.86 1003.71 359.907 1022.07 374.623 1042.56C369.585 1067.22 356.924 1087.57 340.286 1105.2C332.266 1113.69 325.902 1124.56 312.976 1129.07C275.657 1148.43 236.415 1155.19 196.113 1157.71C174.901 1159.03 163.765 1152.8 153.955 1134.11C141.824 1110.91 137.051 1085.71 133.737 1057.61C131.019 1085.91 104.969 1108.65 77.3935 1107.66C56.6458 1072.26 54.9887 1036.92 73.8803 999.999Z" fill="#FFFEEF"/>
<path d="M76.332 1108.25C102.847 1102.16 117.297 1093.14 135.195 1057.34C137.713 1063.37 139.503 1068.01 140.232 1073.52C143.083 1094.47 148.12 1114.82 158.262 1133.71C166.482 1149.16 177.684 1156.38 194.985 1154C219.909 1150.55 245.297 1150.15 269.491 1142C280.495 1138.28 291.233 1134.11 301.773 1129.27C304.491 1128.01 307.076 1125.42 311.119 1128.34C304.888 1140.34 292.957 1145.44 282.152 1149.35C247.484 1162.08 211.49 1171.5 174.237 1169.91C137.316 1168.38 105.83 1153.53 82.563 1123.7C79.3812 1119.46 76.8623 1114.88 76.332 1108.25Z" fill="#D0E9E6"/>
<path d="M483.464 1031.62C486.977 1029.37 490.424 1028.31 494.998 1027.18C501.229 1035.27 495.66 1042.43 493.539 1049.72C479.685 1097.58 478.227 1144.52 501.03 1190.52C518.331 1225.46 544.05 1252.37 578.386 1269.81C616.103 1288.97 656.472 1299.04 699.094 1299.7C740.987 1300.37 781.422 1294.34 819.537 1276.1C823.382 1274.25 827.558 1273.32 831.469 1271.8C842.406 1267.55 847.775 1271.53 851.222 1282.54C873.428 1353.14 920.094 1402.46 987.11 1431.36C1036.29 1452.57 1088.33 1459.47 1140.96 1445.15C1174.63 1436 1208.37 1426.92 1241.72 1416.58C1249.27 1414.26 1256.83 1411.47 1264.12 1405.71C1265.71 1404.31 1266.31 1403.78 1267.97 1402.46C1269.69 1401.26 1270.42 1400.8 1272.21 1399.87C1291.1 1395.3 1303.3 1381.77 1318.01 1372.63C1322.52 1369.84 1326.36 1366.13 1330.94 1363.41C1334.98 1361.02 1339.29 1357.58 1344.06 1360.76C1348.57 1363.74 1348.9 1369.05 1348.04 1373.75C1340.82 1414.32 1350.96 1452.64 1362.95 1490.69C1379.46 1542.8 1413.33 1581.45 1456.88 1613.13C1496.72 1642.1 1542.53 1653.64 1590.78 1662.79C1596.02 1664.71 1600 1664.38 1605.3 1662.79C1634.66 1660.47 1662.7 1661.99 1692.13 1661.66C1735.02 1662.06 1771.94 1646.08 1807.87 1627.72C1826.17 1618.37 1843.67 1607.3 1860.17 1594.7C1872.43 1585.36 1876.61 1585.75 1883.04 1599.87C1901.47 1640.51 1932.42 1667.69 1971.86 1686.65C1996.99 1698.72 2023.24 1705.15 2051.14 1707C2112.33 1710.98 2169.8 1697.32 2225.14 1672.4C2230.45 1670.01 2235.95 1667.89 2241.72 1666.96C2304.22 1656.89 2354.54 1624.14 2400.27 1582.51C2439.45 1546.84 2469.68 1504.41 2496.92 1459.47C2501.23 1452.31 2504.28 1441.57 2517.87 1447.67C2545.44 1476.37 2575.87 1498.65 2611.6 1513.7C2626.78 1520.06 2638.71 1532.32 2653.82 1538.95C2712.62 1564.74 2772.8 1570.04 2835.11 1552.54C2880.72 1539.75 2921.15 1517.94 2958.74 1489.5C2991.62 1464.64 3025.62 1441.24 3060.09 1416.78C3070.5 1420.42 3070.37 1429.11 3071.43 1436.73C3077.26 1477.37 3087.4 1516.68 3104.83 1553.93C3124.32 1595.57 3156.41 1624.8 3196.44 1645.48C3252.39 1674.45 3312.78 1685.86 3375.15 1691.29C3424.14 1695.53 3472.46 1693.68 3520.32 1684C3549.82 1678.03 3578.45 1668.16 3606.49 1656.89C3627.57 1648.4 3649.05 1641.24 3669.73 1631.3C3734.69 1600.01 3792.89 1559.3 3847.25 1512.17C3876.01 1487.18 3903.39 1460.66 3932.09 1435.54C3945.22 1424.07 3954.96 1409.22 3968.42 1396.16C3969.54 1394.44 3969.94 1393.71 3971.86 1390.92C3983.86 1377.66 3993.01 1365.33 4002.62 1353.34C4010.84 1343.06 4020.45 1340.41 4033.51 1344.05C4071.89 1354.73 4111.26 1359.1 4152.36 1359.9C4196.91 1360.69 4238.34 1349.89 4279.37 1337.96C4303.56 1330.93 4327.16 1321.85 4350.49 1311.57C4393.98 1292.41 4428.51 1262.05 4462.52 1228.57C4468.88 1224.86 4470.07 1227.84 4469.28 1232.29C4467.62 1241.37 4465.57 1250.38 4466.23 1261.12C4460.6 1266.69 4463.05 1273.32 4461.52 1278.76C4448 1325.89 4428.11 1369.24 4396.56 1407.69C4361.3 1450.65 4318.68 1483.27 4269.89 1508.46C4239.66 1524.04 4207.05 1532.72 4173.77 1539.02C4161.91 1541.27 4149.84 1542.8 4138.44 1547.24C4121.87 1553.74 4104.04 1553.14 4087 1554.33C4044.32 1557.25 4001.56 1554.93 3959.67 1545.25C3948.4 1542.66 3937.53 1538.16 3926.46 1534.71C3915.72 1531.46 3913.73 1532.06 3908.76 1541.8C3894.31 1570.18 3876.34 1596.43 3856.99 1621.35C3829.48 1656.75 3798.13 1688.44 3760.81 1714.36C3714.21 1746.65 3663.17 1768.19 3609.28 1784.5C3587 1791.26 3564.73 1797.42 3541.86 1801.07C3518 1804.85 3494.07 1807.96 3469.94 1809.95C3429.24 1813.33 3388.61 1812.8 3347.97 1812.27C3314.3 1811.88 3280.76 1808.16 3247.62 1802.13C3220.24 1797.09 3192.53 1794.04 3165.42 1787.28C3134.73 1779.66 3104.04 1772.43 3075.47 1757.98C3055.19 1747.77 3034.04 1739.29 3016.14 1724.97C3008.72 1719 3001.76 1721.19 2994.2 1725.3C2950.72 1748.9 2903.79 1763.28 2856.13 1775.15C2834.25 1780.59 2812.05 1785.69 2789.05 1784.03C2782.75 1783.57 2776.38 1783.64 2770.29 1786.09C2766.31 1787.68 2761.8 1787.61 2757.82 1785.96C2751.66 1783.44 2745.36 1784.1 2739 1783.9C2708.37 1782.64 2678.21 1778.66 2649.05 1768.65C2625.58 1760.63 2601.98 1752.81 2578.52 1744.86C2563.6 1739.82 2548.42 1735.57 2533.38 1730.67C2521.18 1726.69 2508.52 1732.99 2496.06 1734.51C2486.18 1735.77 2476.37 1738.89 2466.49 1738.95C2455.96 1739.09 2449.99 1744.06 2444.82 1752.08C2426.32 1780.72 2402.33 1804.39 2376.34 1826.2C2347.91 1850.06 2317.48 1870.61 2283.88 1886.72C2250.86 1902.56 2216.46 1913.57 2180.6 1920.79C2154.15 1926.1 2127.9 1929.74 2100.79 1930.47C2044.18 1932.06 1989.36 1924.37 1935.8 1906.21C1926.92 1903.16 1917.24 1902.43 1908.1 1899.98C1859.84 1886.92 1816.62 1864.51 1780.49 1829.64C1774 1823.41 1768.5 1822.09 1761.01 1825.66C1726.21 1842.3 1688.49 1847.94 1651.04 1853.11C1614.58 1858.15 1577.66 1862.72 1540.67 1859.87C1504.87 1857.15 1469.81 1850.39 1436.47 1836.07C1408.16 1823.94 1381.32 1809.36 1356.59 1791.19C1330.14 1771.77 1306.28 1749.63 1287.06 1722.58C1270.09 1698.72 1256.23 1673.46 1246.42 1645.88C1242.84 1635.87 1241.39 1635.47 1229.98 1637.2C1188.36 1643.63 1146.86 1651.12 1104.5 1650.19C1034.44 1648.6 965.964 1637.4 900.871 1610.61C869.517 1597.69 841.345 1578.73 815.029 1557.32C808.865 1552.28 802.369 1547.77 795.409 1543.99C785.134 1538.42 776.053 1531.33 767.701 1523.04C758.686 1514.16 749.339 1505.41 739.198 1498.05C730.978 1492.08 720.372 1491.82 710.496 1491.42C648.054 1488.97 591.445 1468.68 540.47 1433.61C503.416 1408.09 474.184 1374.48 453.237 1334.71C435.605 1301.23 424.933 1265.37 426.325 1226.92C426.987 1208.49 425.198 1190.12 428.777 1171.63C433.285 1148.69 439.98 1126.62 448 1104.94C455.69 1084.06 465.102 1063.97 478.492 1045.94C481.21 1042.16 483.464 1037.85 483.464 1031.62Z" fill="#A6DAE0"/>
<path d="M4155.28 1363.15C4125.85 1365.2 4097.74 1360.89 4069.7 1356.72C4055.18 1354.53 4040.6 1352.21 4026.88 1346.57C4019.92 1343.72 4014.62 1345.98 4010.11 1351.41C4003.41 1359.57 3996.39 1367.39 3990.29 1375.94C3985.98 1382.04 3981.14 1387.48 3974.51 1392.71C3964.7 1380.38 3976.04 1367.59 3973.12 1357.38C3949.39 1408.49 3919.5 1457.35 3867.2 1488.57C3830.27 1510.58 3791.03 1528.08 3752.59 1547.04C3744.3 1551.08 3732.7 1559.77 3725.21 1550.16C3718.18 1541.14 3728.72 1531.79 3733.43 1523.24C3734.22 1521.85 3735.28 1520.66 3737.47 1516.74C3691.14 1542.13 3643.35 1558.71 3598.73 1582.17C3593.76 1584.83 3588.46 1590.13 3582.83 1586.35C3576.73 1582.24 3578.78 1574.88 3579.71 1568.65C3584.81 1531.99 3595.09 1496.06 3594.62 1459.87C3582.63 1486.85 3567.05 1513.5 3558.1 1543.59C3550.74 1568.25 3516.67 1582.57 3484.26 1577.27C3457.61 1572.96 3431.29 1566.86 3405.57 1558.31C3336.7 1535.37 3276.05 1498.91 3222.16 1450.39C3183.51 1415.52 3163.83 1370.5 3149.77 1322.11C3140.03 1288.57 3130.95 1254.76 3117.82 1219.09C3110 1255.29 3105.16 1289.5 3100.39 1323.64C3096.15 1353.8 3084.62 1381.84 3076.33 1410.81C3074.54 1417.11 3070.36 1420.95 3062.01 1417.64C3037.62 1439.65 3011.3 1457.28 2985.38 1475.31C2961.59 1491.82 2939.31 1510.25 2913.93 1524.7C2883.24 1542.13 2850.89 1554 2816.68 1561.36C2800.78 1564.74 2784.4 1568.05 2768.3 1567.66C2717.65 1566.46 2668.8 1557.71 2626.31 1527.09C2616.43 1519.99 2605.03 1515.55 2594.23 1510.12C2575.4 1500.7 2556.84 1490.49 2541.33 1475.84C2533.31 1468.29 2525.75 1460.26 2517.73 1451.38C2513.62 1402.66 2520.38 1355.59 2524.23 1311.24C2511.17 1343.92 2504.34 1381.77 2488.57 1416.58C2477.43 1441.17 2460.46 1461.19 2440.57 1479.09C2414.99 1502.16 2390.99 1526.82 2367.39 1551.88C2365.6 1553.8 2364.21 1556.12 2362.36 1558.04C2359.11 1561.49 2355.46 1566.26 2350.56 1564.54C2344.53 1562.35 2345.25 1555.86 2345.92 1550.69C2349.56 1523.37 2352.08 1495.93 2359.31 1467.82C2352.02 1482.07 2346.25 1495.6 2338.56 1508.13C2330.27 1521.72 2320.79 1534.44 2311.91 1547.64C2303.23 1560.5 2293.15 1572.03 2282.28 1582.84C2263.66 1601.47 2238.47 1606.84 2214.01 1609.42C2157.8 1615.32 2103.24 1604.71 2050.01 1586.82C2012.36 1574.15 1984.65 1549.36 1962.25 1516.81C1924.33 1461.79 1906.3 1400.07 1896.49 1338.02C1884.16 1391.12 1864.41 1445.02 1841.94 1498.18C1816.82 1557.51 1776.91 1604.32 1726.73 1643.3C1717.59 1650.46 1709.63 1659.21 1698.36 1665.57C1666.74 1666.43 1635.92 1666.5 1603.71 1666.63C1599.66 1666.5 1597.14 1666.5 1593.63 1666.43C1566.39 1663.65 1541 1656.55 1515.74 1649.53C1504.74 1646.48 1494.6 1639.98 1484.32 1634.55C1432.29 1607.23 1391.79 1568.19 1367.39 1514.36C1355.46 1488.04 1348.04 1460 1344.33 1430.96C1341.87 1411.47 1340.15 1392.31 1344.26 1372.89C1344.92 1369.64 1345.85 1365.53 1341.34 1361.95C1327.56 1369.78 1315.23 1380.32 1301.97 1389.4C1293.35 1395.23 1285.73 1403.32 1272.87 1402.86C1267.04 1392.91 1274.99 1386.81 1278.83 1379.98C1298.26 1345.91 1314.89 1310.78 1325.1 1273.45C1274.66 1353.87 1196.97 1389 1106.56 1399.21C1073.74 1402.92 1043.32 1388.27 1018.06 1366C1005.4 1354.86 1004.94 1354.79 998.774 1371.1C998.243 1372.56 997.713 1374.08 997.183 1375.61C987.174 1402.86 974.115 1405.51 953.5 1384.23C929.04 1358.97 921.152 1326.62 914.722 1293.61C913.529 1287.57 914.457 1280.88 909.353 1275.97C904.846 1278.62 904.978 1283.26 903.652 1287.11C901.929 1292.15 900.736 1298.18 893.908 1297.72C887.942 1297.32 885.092 1292.21 883.501 1286.98C879.988 1275.31 876.674 1263.64 876.409 1251.25C875.945 1233.35 876.873 1215.58 879.856 1196.16C869.913 1198.87 864.543 1205.04 857.915 1208.75C829.411 1224.86 798.588 1233.81 766.638 1239.84C733.428 1246.14 700.152 1244.28 667.142 1240.04C635.788 1236 609.008 1222.01 586.67 1198.94C563.735 1175.28 541.33 1151.21 524.36 1122.9C503.149 1087.57 498.906 1049.59 510.639 1008.82C511.501 1005.57 511.7 1003.31 512.031 999.999C517.467 998.541 520.582 994.762 523.764 991.315C550.742 962.345 583.886 942.458 618.554 923.962C642.881 911.035 667.539 899.7 693.789 891.811C717.453 884.718 741.781 881.005 766.174 877.094C784.469 874.177 803.162 877.293 822.319 871.526C853.341 878.221 879.988 892.01 904.382 909.643C918.368 919.72 934.807 926.747 945.943 940.734C948.794 944.314 952.108 943.85 955.489 940.933C961.521 935.829 967.752 930.989 974.844 925.553C1024.43 921.443 1071.82 927.343 1117.63 944.712C1132.21 950.28 1144.94 958.567 1154.28 971.56C1175.3 1000.73 1199.29 1028.24 1212.75 1061.98C1234.03 1115.41 1226 1169.18 1211.42 1222.54C1207.58 1236.59 1202.34 1250.32 1196.9 1266.49C1324.97 1169.51 1454.96 1083.53 1620.61 1072.66C1596.55 1058.67 1572.42 1047.86 1544.58 1047.33C1480.88 1046.14 1420.49 1058.73 1364.08 1088.96C1347.57 1097.78 1332.66 1108.52 1318.81 1120.98C1314.96 1124.43 1310.65 1129.27 1305.02 1126.55C1298.32 1123.3 1300.31 1116.54 1301.37 1110.97C1308.8 1073.52 1318.01 1036.53 1327.69 999.668C1329.54 992.707 1333.39 987.536 1342.67 984.885C1324.71 978.985 1308.4 977.394 1292.42 974.477C1230.31 963.141 1175.76 935.696 1129.23 893.932C1087.2 856.278 1063.8 810.67 1083.49 752.134C1088.53 737.019 1094.43 722.302 1102.64 707.32C1103.37 706.326 1103.24 706.26 1103.31 706.26C1103.97 705.464 1104.63 704.735 1106.03 703.542C1121.07 691.543 1133.2 677.555 1147.45 665.689C1164.62 651.503 1182.79 638.973 1201.28 626.908C1243.11 599.596 1288.38 579.907 1336.11 565.124C1374.95 553.125 1413.99 543.911 1454.63 540.066C1472.59 538.342 1490.42 538.74 1508.25 537.282C1528.67 535.558 1548.95 532.774 1569.24 529.724C1574.47 528.929 1579.58 528.001 1584.88 528.001C1610.8 528.067 1636.72 528.133 1664.09 528.266C1669.26 534.497 1676.22 536.884 1681.13 541.591C1692.26 552.131 1703.2 562.738 1711.22 576.129C1714.27 581.233 1716.33 587.73 1723.75 591.111C1727.93 579.841 1734.22 569.632 1729.58 557.699C1716.06 523.427 1715.33 487.629 1716.59 450.108C1724.15 433.8 1737.34 423.458 1747.15 410.333C1769.16 381.032 1797.66 357.829 1824.57 333.434C1845.12 314.806 1866.66 297.04 1890 281.328C1910.94 267.142 1931.1 251.696 1953.04 239.167C2001.56 211.391 2050.34 184.211 2103.31 165.053C2143.08 150.601 2183.71 139.596 2225.01 131.641C2249.67 126.935 2274.99 124.482 2300.31 124.217C2313.04 124.084 2325.7 124.283 2338.43 124.15C2373.82 123.686 2408.96 126.67 2443.95 131.244C2450.91 132.172 2456.09 131.708 2461.52 127.73C2494 104.263 2530.66 89.4135 2568.11 76.2877C2599.99 65.1506 2632.67 57.5933 2666.41 53.881C2689.94 51.2956 2713.48 47.7159 2737.14 48.18C2818.87 49.5721 2898.48 62.8968 2974.71 93.5236C2978.23 94.9157 2981.74 95.645 2986.71 96.0427C2994.27 107.113 3000.56 118.118 3006.93 129.056C3012.1 138.006 3013.49 138.469 3020.71 130.979C3042.19 108.771 3067.58 91.6674 3092.9 74.4315C3113.12 60.7091 3135.39 50.8316 3158.13 42.2799C3190.81 30.0159 3224.28 20.8677 3258.82 15.4318C3268.63 13.907 3278.04 9.9296 3288.84 7.01275C3300.11 12.1172 3310.59 9.99591 3320.86 8.27232C3325.04 7.6094 3329.28 5.75307 3333.32 7.07891C3346.31 11.189 3359.57 9.53181 3372.76 9.66439C3399.21 9.86327 3425.06 14.2385 3451.18 17.8845C3490.69 23.453 3528.34 34.9879 3565.59 48.18C3602.05 61.1069 3636.85 77.6799 3669.59 98.363C3689.68 111.025 3710.63 122.228 3729.85 136.348C3751.92 152.59 3774.33 168.897 3793.62 188.122C3838.09 232.604 3879.46 279.87 3909.55 335.887C3928.11 370.425 3943.43 406.421 3955.03 443.678C3964.44 473.774 3972.99 504.6 3976.04 535.956C3979.02 566.317 3981.54 597.011 3980.01 627.77C3979.35 641.426 3981.08 642.885 3994.53 645.404C4022.37 650.641 4047.36 662.971 4072.22 676.031C4105.76 693.598 4131.81 720.048 4156.07 747.891C4175.43 770.165 4190.01 796.35 4199.62 826.049C4193.52 841.296 4183.25 852.765 4173.44 864.3C4165.68 873.448 4158.92 883.789 4148.18 890.22C4145.8 891.678 4142.75 893.866 4144.14 899.965C4167.21 897.777 4188.88 886.574 4213.74 886.242C4220.04 895.921 4217.98 906.726 4218.51 917.201C4219.24 930.857 4221.7 932.183 4235.09 935.232C4271.01 943.452 4306.87 951.938 4338.23 973.217C4361.43 988.995 4384.1 1005.1 4403.32 1025.79C4431.96 1056.61 4452.17 1091.81 4461.85 1132.91C4463.44 1139.61 4464.17 1146.44 4460.92 1154.13C4453.24 1155.19 4451.38 1149.49 4449.26 1144.91C4438.06 1120.65 4419.96 1100.96 4405.18 1075.77C4402.19 1093.8 4399.28 1109.38 4395.43 1124.76C4391.39 1140.94 4384.3 1155.59 4375.22 1169.31C4372.1 1174.02 4369.05 1181.04 4362.49 1179.25C4356.79 1177.66 4357.72 1170.5 4357.45 1165.33C4355.2 1122.9 4343.8 1083.06 4323.31 1045.81C4314.1 1029.1 4303.1 1013.85 4288.18 1001.13C4318.34 1050.05 4317.41 1104.28 4313.83 1157.97C4311.18 1196.89 4294.81 1232.29 4276.05 1266.56C4261.14 1293.74 4238.73 1312.04 4213.34 1327.75C4194.25 1339.48 4175.03 1350.62 4155.28 1363.15Z" fill="#FFFEEF"/>
<path d="M1102.38 706.591C1102.45 719.717 1094.89 731.053 1090.71 743.516C1082.3 768.839 1076.79 794.428 1084.15 821.077C1087.4 832.944 1093.17 843.749 1099.99 853.759C1118.95 881.668 1143.68 903.677 1172.05 921.51C1199.82 939.011 1229.05 953.529 1260.81 962.809C1283.08 969.306 1306.21 971.825 1328.82 976.664C1336.97 978.388 1346.71 977.725 1353.08 985.282C1351.95 986.741 1351.42 988.133 1350.76 988.199C1334.19 990.519 1333.92 990.453 1330.21 1005.9C1321.46 1042.29 1312.91 1078.69 1304.36 1115.08C1303.63 1118.13 1302.83 1121.31 1306.41 1124.89C1315.36 1121.84 1320.07 1112.83 1327.49 1107.39C1363.75 1080.61 1403.98 1062.98 1447.73 1052.83C1482.93 1044.75 1518.53 1040.77 1554.52 1043.35C1576.4 1044.95 1596.48 1053.63 1615.31 1064.63C1620.87 1067.88 1627.9 1069.74 1631.81 1075.64C1629.09 1079.42 1625.65 1078.02 1622.8 1077.96C1582.83 1077.3 1544.45 1086.38 1506.2 1096.79C1459.47 1109.51 1415.85 1129.67 1373.69 1152.93C1345.06 1168.71 1318.01 1187.27 1289.71 1203.85C1259.02 1221.81 1232.77 1245.54 1204.93 1267.22C1200.82 1270.4 1197.1 1274.12 1190.01 1273.72C1195.51 1257.34 1200.68 1241.57 1206.05 1225.79C1219.05 1187.8 1223.29 1148.43 1220.5 1108.72C1218.58 1081.07 1208.77 1055.22 1192.66 1032.28C1177.48 1010.74 1162.24 989.194 1146.59 967.98C1139.83 958.766 1129.62 953.661 1119.35 949.485C1097.74 940.734 1075 936.226 1052.27 931.586C1033.38 927.741 1014.42 928.802 995.46 928.47C989.693 928.338 983.728 929.465 977.165 925.553C976.37 921.709 977.43 918.526 980.413 917.201C991.483 912.494 993.008 903.412 992.08 893.004C991.881 890.949 992.08 888.894 992.08 885.447C999.968 854.687 1014.62 828.303 1028.87 801.919C1039.08 782.96 1050.41 764.597 1064.53 747.957C1076.33 733.97 1090.78 722.17 1102.38 706.591Z" fill="#D0E9E6"/>
<path d="M1105.83 703.277C1106.22 704.006 1105.63 704.801 1104.04 705.862C1103.97 705.332 1104.57 704.47 1105.83 703.277Z" fill="#D0E9E6"/>
<path d="M4155.81 1364.01C4154.75 1358.31 4158.92 1356.05 4163.1 1353.53C4177.15 1345.11 4191.27 1336.83 4204.99 1327.95C4218.71 1319.06 4232.37 1309.98 4245.43 1300.24C4259.81 1289.5 4266.84 1272.86 4275.78 1258.07C4293.35 1228.84 4304.29 1196.69 4309.66 1163.14C4312.04 1148.16 4309.86 1132.45 4310.65 1117.14C4312.71 1076.5 4303.76 1038.51 4284.14 1002.92C4282.21 999.402 4278.97 996.088 4280.82 989.26C4311.38 1011.07 4327.49 1042.09 4341.21 1074.18C4355.13 1106.8 4361.76 1141.4 4361.63 1180.45C4390.53 1145.97 4397.35 1107.33 4401.99 1066.95C4421.48 1095.66 4443.89 1121.98 4459.07 1154.39C4459.13 1161.09 4461.32 1166.46 4462.85 1171.89C4467.15 1187.27 4468.21 1202.59 4461.65 1217.64C4460.33 1220.62 4459.53 1223.54 4462.65 1227.18C4461.25 1236.4 4456.15 1242.36 4448.99 1247.73C4436.79 1256.88 4425.59 1267.42 4414.46 1277.89C4407.5 1284.52 4400.2 1290.56 4391.65 1294.8C4360.43 1310.18 4329.87 1326.62 4296.27 1337.16C4266.5 1346.51 4236.41 1353.73 4206.05 1359.83C4190.21 1362.95 4173.77 1365.8 4155.81 1364.01Z" fill="#D0E9E6"/>
<path d="M510.245 1007.89C512.101 1020.28 508.588 1032.62 508.389 1045.34C507.859 1080.68 518.465 1111.7 540.008 1139.35C557.839 1162.28 576.93 1184.16 598.141 1204.11C619.419 1224.13 645.536 1233.74 673.708 1236.6C687.761 1238.05 702.012 1240.04 716.131 1239.91C742.447 1239.71 768.432 1235.73 794.151 1229.57C817.55 1224 838.828 1213.79 860.04 1202.99C867.994 1198.94 872.303 1190.19 881.782 1186.74C885.03 1194.23 884.301 1201.2 883.174 1207.69C878.799 1233.02 878.733 1258.07 886.687 1282.73C887.482 1285.25 887.482 1288.04 888.742 1290.29C890.2 1292.94 892.056 1296.19 895.901 1295.2C898.818 1294.4 899.613 1291.48 899.547 1288.77C899.414 1282.67 901.601 1277.36 904.452 1272.26C905.976 1269.54 907.17 1266.03 911.014 1266.36C915.19 1266.69 915.058 1270.34 915.588 1273.45C918.902 1292.68 922.416 1311.77 927.984 1330.53C934.612 1352.81 945.682 1372.29 963.115 1387.74C976.505 1399.61 984.99 1397.29 991.42 1380.38C994.8 1371.5 998.048 1362.55 1001.36 1353.67C1003.95 1346.84 1007.2 1346.97 1011.44 1352.47C1026.55 1372.23 1047.43 1383.1 1070.7 1389.8C1086.94 1394.44 1102.85 1396.09 1120.35 1393.77C1176.29 1386.28 1225.54 1363.74 1270.22 1330.86C1289.71 1316.54 1306.28 1298.31 1317.28 1275.97C1320.27 1269.94 1323.25 1263.64 1330.54 1261.32C1332.73 1265.37 1331.27 1268.75 1330.21 1272.33C1317.35 1315.68 1298.39 1356.19 1274.53 1394.57C1273.4 1396.36 1272.67 1398.28 1271.68 1401.33C1271.61 1402.46 1271.55 1402.39 1271.61 1402.33C1270.75 1403.05 1269.89 1403.85 1268.83 1405.64C1267.57 1412.4 1262.33 1413.26 1258.02 1414.79C1231.78 1424.07 1205.46 1433.22 1177.82 1437.72C1172.71 1438.52 1168.07 1441.77 1163.04 1443.29C1127.97 1454.03 1092.64 1459.87 1055.59 1453.7C1026.22 1448.8 997.85 1442.17 971.202 1428.51C906.639 1395.43 864.216 1344.19 843.8 1273.45C835.116 1273.65 826.764 1277.03 819.008 1280.81C776.85 1301.3 732.04 1305.67 686.236 1303.55C647.26 1301.69 609.808 1291.62 575.803 1273.19C520.453 1243.22 487.443 1196.36 480.151 1132.85C476.041 1097.05 483.797 1062.91 495.927 1028.24C495.795 1017.5 501.76 1012.33 510.245 1007.89Z" fill="#CFE9E6"/>
<path d="M3061.88 1418.63C3061.29 1416.78 3061.35 1415.12 3061.95 1414.92C3071.96 1411.21 3071.83 1411.21 3075.01 1400.87C3079.65 1385.75 3084.02 1370.5 3089.39 1355.66C3095.75 1338.09 3096.15 1319.53 3099.4 1301.43C3104.11 1275.04 3108.08 1248.53 3112.66 1222.08C3113.32 1218.23 3114.18 1213.99 3117.3 1210.81C3122.2 1212.13 3121.47 1216.64 3122.67 1219.82C3137.52 1259.4 3146.99 1300.63 3160.05 1340.74C3168.74 1367.46 3179.61 1393.31 3196.71 1415.91C3211.43 1435.34 3228.59 1452.57 3248.08 1467.29C3262.4 1478.03 3276.92 1488.64 3291.76 1498.58C3347.31 1535.84 3408.56 1558.91 3474.19 1571.24C3490.09 1574.22 3505.67 1575.68 3520.98 1570.44C3539.88 1564.01 3554.86 1553.54 3557.64 1531.33C3558.37 1525.23 3561.35 1519.2 3564.07 1513.56C3574.34 1492.22 3585.02 1471 3598.27 1450.12C3598.27 1461.79 3599.6 1473.66 3598.01 1485.12C3594.16 1512.7 3589.06 1540.15 3584.02 1567.52C3582.96 1573.29 3582.43 1578.66 3583.36 1585.89C3636.39 1555.66 3693.73 1538.22 3744.77 1507.8C3748.41 1512.57 3745.03 1514.49 3743.24 1516.74C3736.61 1525.03 3730.71 1533.78 3726.8 1543.73C3724.62 1549.23 3726.94 1551.35 3732.97 1549.89C3747.49 1546.44 3760.28 1538.95 3773.47 1532.39C3805.22 1516.68 3837.63 1502.16 3867.86 1483.67C3901.54 1463.05 3926.39 1434.01 3946.21 1400.27C3954.5 1386.15 3962.05 1371.63 3969.41 1356.91C3970.94 1353.8 3972.79 1350.82 3975.11 1346.57C3979.82 1362.68 3973.72 1376.34 3973.66 1391.65C3973.72 1393.04 3973.66 1392.91 3973.72 1392.91C3973.39 1393.44 3972.99 1393.97 3973.12 1395.36C3973.52 1399.74 3971 1401.46 3968.48 1403.58C3960.53 1410.48 3952.58 1417.51 3946.81 1426.59C3944.29 1430.57 3940.78 1434.08 3937.13 1437.06C3908.36 1460.26 3883.11 1487.38 3854.74 1511.11C3831.27 1530.73 3808.6 1551.48 3783.28 1568.59C3748.41 1592.12 3713.55 1615.45 3675.1 1633.55C3649.78 1645.55 3623.66 1655.63 3597.68 1665.24C3563.27 1677.97 3528.08 1691.22 3491.22 1694.08C3460.26 1696.46 3429.04 1700.97 3397.89 1697.72C3354.54 1693.21 3311.25 1689.63 3268.7 1677.37C3232.17 1666.83 3198.37 1652.71 3166.81 1631.76C3132.01 1608.63 3108.48 1576.74 3093.63 1538.49C3080.58 1505.01 3071.1 1470.47 3067.45 1434.48C3066.85 1429.37 3064.4 1424.47 3061.88 1418.63Z" fill="#CFE9E6"/>
<path d="M1698.89 1666.23C1702.21 1654.1 1713.81 1648.8 1722.82 1641.31C1756.17 1613.47 1789.11 1585.22 1811.65 1547.37C1821.92 1530.14 1830.67 1511.91 1839.29 1493.81C1856.06 1458.41 1868.12 1421.22 1880.32 1384.03C1886.42 1365.4 1890.06 1346.31 1894.57 1327.35C1895.04 1325.49 1894.51 1323.11 1897.36 1322.51C1901 1324.03 1900.8 1327.42 1900.94 1330.53C1903.12 1371.1 1916.25 1408.95 1929.51 1446.87C1940.11 1477.17 1957.41 1503.95 1976.24 1529.34C1997.71 1558.24 2027.41 1576.67 2061.81 1586.62C2089.65 1594.64 2117.83 1602.73 2146.59 1605.11C2186.1 1608.36 2225.94 1609.16 2263.46 1591.79C2271.88 1587.88 2277.51 1581.64 2283.87 1575.21C2300.71 1558.11 2313.31 1537.96 2327.09 1518.67C2338.3 1503.09 2345.59 1485.39 2354.54 1468.62C2356.92 1464.18 2357.72 1458.54 2365.67 1454.17C2358.11 1491.29 2352.15 1526.42 2349.03 1561.89C2354.6 1562.69 2356.33 1559.44 2358.11 1557.18C2379.99 1529.01 2406.37 1505.14 2432.29 1481.08C2446.34 1468.02 2459 1454.3 2470.67 1439.38C2484.59 1421.62 2492.01 1400.6 2498.18 1379.26C2505.34 1354.4 2513.56 1329.93 2521.91 1305.47C2522.51 1303.68 2523.1 1301.3 2527.08 1300.83C2527.08 1309.12 2527.61 1317.34 2526.95 1325.43C2525.55 1342.2 2523.83 1358.97 2521.64 1375.61C2520.19 1386.75 2521.25 1397.82 2520.65 1408.89C2519.99 1422.08 2522.11 1435.34 2518.33 1449.33C2510.71 1445.88 2507.46 1449.06 2503.81 1455.09C2494.33 1470.87 2485.45 1487.05 2474.65 1502.09C2458.34 1524.77 2440.44 1546.25 2423.01 1567.99C2417.11 1575.35 2408.49 1580.12 2401.67 1586.68C2368.99 1618.04 2331.6 1642.5 2289.44 1659.07C2275.92 1664.38 2261.67 1668.69 2246.75 1670.08C2239.06 1670.81 2231.24 1673.72 2224.15 1676.97C2198.23 1688.91 2171.12 1697.13 2143.68 1704.48C2119.42 1711.05 2094.69 1710.78 2069.9 1711.18C2047.03 1711.58 2024.83 1709.32 2002.69 1703.16C1977.36 1696.06 1955.16 1683.34 1933.75 1668.75C1908.63 1651.58 1891.66 1627.85 1879.06 1600.47C1873.69 1588.87 1873.56 1589.53 1863.95 1596.83C1836.97 1617.38 1807.87 1634.15 1776.52 1647.14C1751.99 1657.15 1726.8 1664.24 1698.89 1666.23Z" fill="#CFE9E6"/>
<path d="M1593.3 1667.03C1595.09 1662.98 1597.87 1662.65 1601.72 1665.64C1599.93 1669.61 1597.08 1669.95 1593.3 1667.03Z" fill="#CFE9E6"/>
<path d="M1269.29 1406.04C1269.1 1405.44 1269.63 1404.38 1270.95 1402.86C1271.22 1403.45 1270.62 1404.45 1269.29 1406.04Z" fill="#FFFEEF"/>
<path d="M3973.59 1395.36C3972.53 1395.5 3971.13 1394.97 3972.99 1393.11C3973.65 1393.38 3973.65 1393.97 3973.59 1395.36Z" fill="#FFFEEF"/>
<path d="M2360.11 887.104C2343.27 888.231 2327.49 887.834 2311.65 889.292C2299.45 890.419 2286.46 884.32 2272.47 878.089C2288.12 870.598 2302.9 867.615 2317.62 865.427C2367.4 858.002 2415.45 844.678 2462.25 826.248C2468.88 823.663 2473.39 819.951 2477.23 813.454C2493.47 785.943 2506.86 757.504 2512.83 725.883C2516.01 709.044 2515.88 691.941 2513.56 675.368C2512.1 665.093 2513.16 654.42 2509.71 642.752C2486.45 652.961 2463.11 660.717 2438.99 666.087C2415.26 671.324 2391.46 672.65 2364.81 669.799C2369.92 663.833 2374.95 662.773 2379.66 661.845C2397.42 658.53 2413.93 651.569 2430.63 644.94C2455.69 634.996 2472.06 616.434 2483.47 592.901C2490.76 577.919 2494.2 562.871 2489.96 545.568C2486.38 530.918 2488.97 515.273 2486.32 499.96C2482.01 475.166 2479.95 449.909 2477.04 424.851C2476.9 423.923 2477.7 422.928 2478.1 422C2486.45 425.978 2494.53 436.982 2499.57 450.506C2514.95 491.739 2533.64 531.316 2559.5 567.113C2581.7 597.939 2604.77 628.301 2623.66 661.248C2635.73 682.196 2650.77 696.316 2673.71 705.531C2714.34 721.839 2753.05 742.919 2794.15 758.299C2816.82 766.851 2840.62 772.287 2863.22 781.369C2875.02 786.076 2879.86 781.965 2879.93 769.436C2879.99 748.753 2876.81 728.534 2870.71 708.713C2868.66 702.15 2866.73 695.587 2867.2 688.56C2867.53 683.853 2866.67 678.616 2871.71 675.832C2877.41 672.716 2881.98 676.561 2886.16 679.544C2895.44 686.306 2901.4 695.587 2904.92 706.459C2905.71 708.912 2906.11 711.497 2906.71 714.149C2916.32 709.243 2930.17 683.257 2949.13 638.245C2960.8 610.535 2959.93 580.836 2963.98 550.806C2972.4 553.126 2975.84 558.827 2979.29 564.661C2991.02 584.747 3003.09 604.568 3017.34 622.997C3034.31 644.94 3053.86 664.032 3076.33 680.141C3096.48 694.593 3117.7 707.586 3137.65 722.303C3172.32 747.958 3211.36 763.072 3252.99 772.618C3275.59 777.789 3298.46 780.573 3321.59 783.026C3346.98 785.744 3372.37 786.473 3397.56 785.081C3438.52 782.894 3479.89 781.501 3519.33 768.707C3544.45 760.553 3567.98 748.753 3588.4 730.921C3601.52 719.386 3614.12 707.453 3626.78 695.388C3633.94 688.56 3637.05 689.488 3639.57 698.902C3641.62 706.525 3643.08 714.215 3642.95 722.303C3642.55 741.395 3644.28 760.619 3642.42 779.513C3640.56 798.34 3641.16 817.431 3637.32 836.126C3634.53 849.583 3636.65 851.903 3649.78 856.212C3691.94 870.067 3734.03 884.055 3775.99 898.308C3798.99 906.13 3823.05 910.041 3845.59 919.322C3849.5 920.913 3853.34 922.637 3857.12 924.559C3860.3 926.15 3865.28 927.609 3863.75 931.984C3861.9 937.155 3857.59 933.641 3854.41 932.647C3841.81 928.736 3829.22 924.891 3816.29 922.173C3777.31 913.953 3737.94 911.898 3698.23 912.494C3655.74 913.157 3614.38 919.853 3573.95 932.912C3543.72 942.657 3514.42 954.59 3485.45 967.583C3483.6 968.445 3481.74 969.77 3479.69 967.981C3478.76 966.456 3478.76 964.732 3480.02 963.738C3500.63 947.894 3518.27 928.868 3535.9 909.975C3549.15 895.789 3562.68 881.337 3566.72 859.858C3538.68 865.493 3510.18 864.632 3481.68 865.294C3445.22 866.223 3408.76 870.664 3372.43 867.681C3339.82 865.029 3307.08 867.084 3274.6 862.311C3260.08 860.19 3245.23 860.654 3230.45 859.195C3199.43 856.146 3169 850.312 3138.51 844.678C3118.29 840.899 3098.34 835.861 3078.79 829.629C3053.53 821.542 3032.12 807.355 3016.74 785.214C3014.95 782.562 3013.29 779.91 3009.32 777.855C3003.15 787.203 3003.48 798.406 3001.1 808.681C2996.52 828.701 2992.35 848.788 2988.77 869.007C2987.31 877.161 2984.39 877.824 2977.04 875.636C2950.72 867.946 2924.73 859.262 2897.96 853.163C2877.87 848.589 2857.59 845.341 2837.24 843.087C2793.22 838.181 2749.74 830.756 2706.59 821.343C2702.48 820.481 2698.37 819.685 2693.46 817.962C2694.39 808.283 2687.23 810.007 2682.99 809.344C2661.11 805.897 2638.05 805.499 2617.89 796.616C2592.84 785.479 2575.01 793.567 2554.52 807.687C2508.52 839.308 2456.69 859.66 2404.32 878.288C2394.84 881.668 2386.22 886.905 2375.35 889.623C2369.72 889.226 2365.47 888.298 2360.11 887.104Z" fill="#D0E9E6"/>
<path d="M1819.54 831.087C1805.42 809.211 1786.66 792.506 1772.08 772.419C1754.84 748.687 1742.78 722.634 1738.74 693.134C1735.49 669.6 1732.64 646.133 1732.57 622.334C1732.57 621.273 1732.9 620.08 1732.5 619.152C1723.69 599.596 1736.48 587.133 1747.88 575.068C1763.06 559.025 1770.49 540.265 1774.46 518.919C1778.77 495.717 1776.19 472.515 1777.31 449.312C1777.58 444.34 1776.05 439.037 1779.63 433.601C1787.52 438.573 1786.99 445.6 1786.66 452.229C1785.33 477.685 1789.18 502.81 1790.77 531.514C1805.55 511.428 1815.16 491.275 1827.56 472.912C1839.96 454.549 1851.82 435.789 1863.95 417.227C1876.21 398.4 1888.48 379.64 1902 361.476C1903.72 372.082 1898.75 380.965 1896.5 390.246C1888.74 422 1879.53 453.422 1871.71 485.11C1867.13 503.473 1864.94 522.3 1862.23 541.06C1857.26 575.4 1863.49 608.347 1870.05 641.227C1874.49 663.568 1885.63 683.986 1897.03 703.674C1911.15 728.004 1922.61 753.592 1935.67 778.385C1946.08 798.074 1958.14 816.503 1974.32 832.148C1982.41 839.971 1991.88 844.81 2002.36 845.605C2023.77 847.196 2044.78 850.113 2066.85 846.997C2091.05 843.55 2114.51 839.042 2137.58 831.22C2165.75 821.674 2192.8 810.073 2216.99 792.373C2221.57 788.992 2225.94 785.015 2231.78 783.622C2232.11 783.556 2232.64 784.153 2234.16 785.147C2219.05 811.2 2192.67 827.839 2175.5 855.748C2217.92 842.224 2257.23 826.447 2297.13 807.554C2297.2 816.238 2291.9 819.089 2287.65 822.337C2253.38 848.92 2216.33 871.26 2178.15 891.612C2171.19 895.324 2164.1 898.904 2156.34 901.092C2138.51 906.13 2121.61 913.753 2104.44 920.515C2091.91 925.421 2079.12 927.343 2064.53 925.355C2056.51 930.989 2048.69 929.862 2041.13 928.073C2034.97 926.614 2028.87 926.415 2021.45 927.41C1997.52 926.548 1977.83 915.344 1956.82 908.583C1925.07 898.374 1894.77 884.585 1864.55 868.012C1850.89 853.361 1833.66 845.009 1819.54 831.087Z" fill="#D0E9E6"/>
<path d="M1862.03 864.101C1872.64 867.349 1881.58 871.128 1890.07 876.762C1909.16 889.292 1931.5 894.529 1952.45 902.749C1973.39 910.969 1994.87 917.797 2017.34 925.355C2032.98 924.692 2046.7 929.199 2061.82 931.917C2064.34 932.249 2065.66 932.249 2067.98 932.315C2071.23 934.238 2071.63 936.624 2070.3 940.403C2051.81 959.959 2035.9 979.979 2021.12 1000.93C2017.94 1005.37 2014.89 1009.55 2007.33 1007.76C2004.08 1006.3 2002.49 1004.57 1999.97 1002.52C1984.99 996.287 1972.79 986.277 1956.62 981.968C1953.57 980.642 1951.78 979.316 1949.13 977.394C1944.03 976.399 1939.85 976.002 1934.48 975.471C1928.58 972.223 1922.95 971.295 1917.31 967.848C1915.13 967.251 1913.8 967.118 1911.48 966.986C1905.78 966.389 1900.81 967.45 1895.31 964.599C1891.99 963.87 1889.67 963.804 1886.22 963.671C1882.25 963.472 1879.4 963.539 1876.02 961.417C1872.83 960.754 1870.58 960.688 1867.13 960.622C1837.11 959.362 1808.14 962.08 1777.98 958.368C1773.34 957.572 1770.09 957.44 1765.52 957.307C1760.35 957.042 1756.17 957.241 1754.05 951.739C1769.96 926.017 1785.07 901.092 1796.27 872.785C1801.71 864.631 1803.37 856.212 1805.75 846.997C1805.95 844.611 1806.02 843.285 1806.22 840.965C1812.65 831.087 1820.14 834.071 1826.7 838.976C1838.03 847.462 1850.43 854.157 1862.03 864.101Z" fill="#A6DAE0"/>
<path d="M2370.45 887.436C2421.75 866.156 2473.85 849.583 2521.78 822.735C2540.21 812.393 2558.1 801.455 2574.94 789.125C2584.02 782.429 2590.98 782.96 2599.2 786.937C2615.57 794.826 2633.47 797.477 2650.77 800.726C2666.62 803.643 2682.79 805.83 2698.9 808.084C2700.36 808.283 2701.75 809.012 2703.87 809.675C2702.68 815.641 2696.84 813.189 2693.4 816.304C2648.06 825.85 2605.17 839.971 2563.41 857.803C2527.35 873.183 2494.6 893.8 2462.78 916.604C2449 926.482 2437.53 938.812 2423.54 948.292C2413.27 955.252 2412.87 955.319 2402.99 948.955C2381.72 935.166 2364.88 915.941 2343.2 901.49C2346.78 895.722 2351.69 893.07 2358.12 890.949C2361.76 887.237 2365.54 887.436 2370.45 887.436Z" fill="#A6DAE0"/>
<path d="M1777.18 958.832C1805.88 957.771 1835.11 955.782 1865.14 959.694C1864.15 962.743 1861.69 963.472 1858.91 963.472C1834.58 963.472 1810.19 963.472 1785.86 963.406C1782.68 963.406 1779.5 963.34 1777.18 958.832Z" fill="#CFE9E6"/>
<path d="M1862.75 863.836C1849.43 860.057 1837.9 852.036 1826.76 843.352C1821.26 839.043 1815.76 834.999 1807.41 839.772C1805.28 831.088 1810.99 830.624 1818.14 830.69C1835.58 838.247 1850.29 848.92 1862.75 863.836Z" fill="#CFE9E6"/>
<path d="M2063.01 931.189C2059.63 935.962 2055.65 934.768 2051.54 933.906C2041.13 931.586 2030.66 929.465 2019.39 926.416C2024.17 919.786 2031.39 921.51 2037.42 923.101C2045.11 925.09 2052.6 925.421 2061.75 925.421C2063.14 927.012 2063.08 928.537 2063.01 931.189Z" fill="#CFE9E6"/>
<path d="M1805.02 846.666C1809 855.947 1804.02 863.571 1797.6 871.393C1797.46 863.04 1801.24 855.35 1805.02 846.666Z" fill="#CFE9E6"/>
<path d="M1753.25 950.877C1756.1 954.258 1760.34 953.661 1763.72 956.512C1761.27 961.152 1756.83 961.02 1753.05 959.76C1747.82 957.97 1747.42 954.589 1753.25 950.877Z" fill="#CFE9E6"/>
<path d="M1894.71 965.064C1899.28 963.87 1904.32 962.677 1909.82 966.058C1905.18 970.897 1899.94 971.759 1894.71 965.064Z" fill="#CFE9E6"/>
<path d="M1916.85 968.378C1922.48 967.583 1928.12 968.909 1932.96 974.345C1927.19 975.538 1921.55 974.079 1916.85 968.378Z" fill="#CFE9E6"/>
<path d="M2370.91 886.64C2368.99 891.015 2365.08 890.485 2360.3 890.75C2359.11 890.154 2359.04 889.491 2359.04 887.9C2362.42 883.127 2366.27 883.524 2370.91 886.64Z" fill="#CFE9E6"/>
<path d="M2070.83 941.397C2069.64 939.276 2069.51 937.022 2069.24 933.575C2072.42 932.183 2076.73 930.459 2077.59 935.365C2078.12 938.745 2074.81 940.27 2070.83 941.397Z" fill="#CFE9E6"/>
<path d="M1875.48 961.881C1878.13 960.489 1881.12 960.158 1884.43 962.876C1881.65 967.516 1878.46 967.582 1875.48 961.881Z" fill="#CFE9E6"/>
<path d="M4137.58 903.412C4135.86 906.064 4134 906.594 4132.02 905.003C4131.68 904.738 4131.95 903.014 4132.41 902.484C4134.07 900.893 4135.93 900.164 4137.58 903.412Z" fill="#D0E9E6"/>
<path d="M1948.6 977.791C1951.18 976.466 1953.64 976.996 1955.23 980.907C1952.57 982.498 1950.19 981.835 1948.6 977.791Z" fill="#CFE9E6"/>
<path d="M1999.57 1002.98C2002.23 1001.92 2004.68 1002.58 2006 1006.63C2003.29 1007.89 2000.83 1007.16 1999.57 1002.98Z" fill="#CFE9E6"/>
<path d="M3566.59 858.665C3566.99 858.93 3566.72 856.146 3567.12 858.599C3566.66 858.732 3566.59 858.665 3566.59 858.665Z" fill="#FFFEEF"/>
</svg>
