<svg width="4039" height="1985" viewBox="0 0 4039 1985" fill="none" xmlns="http://www.w3.org/2000/svg">
<path d="M3663.98 1801.96C3662.27 1802.12 3661.36 1802.18 3659.85 1802.23C3637.16 1809.66 3614.68 1806.64 3591.25 1805.35C3588.58 1804.81 3586.96 1804.76 3584.59 1804.71C3577.49 1804.06 3571.04 1804.17 3564.43 1800.13C3562.67 1799.6 3561.76 1799.49 3560.15 1799.33C3558.99 1798.47 3558.43 1797.82 3557.07 1797.23C3555.56 1797.07 3554.65 1797.07 3553.04 1797.01C3541.95 1793.51 3531.32 1790.82 3520.93 1784.58C3520.13 1784.15 3519.22 1784.04 3518.77 1783.94C3517.86 1783.02 3517.31 1782.38 3515.94 1781.73C3514.43 1781.41 3513.53 1781.25 3511.96 1780.92C3509.8 1779.63 3508.54 1778.23 3506.62 1776.51C3506.07 1776.08 3506.17 1776.03 3506.12 1776.03C3505.66 1775.27 3505.11 1774.63 3503.8 1773.98C3503.19 1773.87 3502.29 1773.82 3501.83 1773.66C3498.15 1770.32 3493.57 1769.73 3489.68 1766.18C3487.67 1764.46 3486.31 1763.27 3484.59 1761.44C3483.99 1759.99 3483.59 1759.29 3482.48 1758.38C3481.97 1758.05 3481.87 1758 3481.82 1757.95C3481.47 1757.41 3481.22 1756.98 3480.21 1756.01C3479.5 1755.58 3479.35 1755.52 3479.3 1755.47C3473.3 1750.57 3467.05 1746.05 3463.12 1737.93C3462.52 1737.39 3462.62 1737.28 3462.52 1737.23C3462.16 1736.75 3461.81 1736.26 3460.85 1735.24C3460.2 1734.7 3460.2 1734.59 3460.15 1734.59C3459.74 1733.79 3459.24 1733.14 3457.98 1732.44C3456.77 1731.79 3456.27 1731.31 3455.61 1730.13C3453.6 1727.6 3452.69 1725.07 3450.92 1722.16C3450.37 1721.62 3450.07 1720.66 3450.02 1720.17C3450.07 1718.72 3449.82 1717.97 3448.61 1717.1C3448.1 1716.78 3447.95 1716.73 3447.9 1716.67C3447.55 1716.08 3447.24 1715.6 3446.29 1714.58C3445.63 1714.04 3445.63 1713.98 3445.63 1714.04C3443.92 1712.15 3443.01 1709.73 3441.3 1706.99C3440.74 1706.5 3440.69 1706.4 3440.69 1706.34C3440.34 1705.8 3440.04 1705.32 3439.08 1704.3C3438.42 1703.76 3438.37 1703.65 3438.37 1703.71C3436.66 1701.77 3435.7 1699.29 3434.09 1696.33C3433.59 1695.74 3433.38 1694.83 3433.33 1694.34C3430.76 1689.18 3428.09 1684.55 3426.83 1678.36C3426.23 1677.72 3426.08 1676.69 3426.08 1676.21C3425.52 1674.22 3425.37 1672.6 3424.36 1670.56C3423.81 1670.02 3423.66 1669 3423.66 1668.46C3422.65 1665.72 3423.1 1663.24 3421.99 1660.34C3421.39 1659.74 3421.19 1658.72 3421.19 1658.24C3420.53 1655.17 3419.52 1652.75 3417.91 1649.79C3417.41 1648.07 3417.31 1647.04 3417.1 1645.21C3418.46 1642.36 3418.11 1640.05 3417.2 1637.09C3416.55 1631.33 3416.5 1626.22 3416.45 1619.98C3414.13 1610.83 3415.89 1602.65 3416.1 1593.34C3416.5 1589.58 3416.6 1586.94 3416.7 1583.33C3417.96 1581.24 3418.06 1579.62 3418.57 1577.36C3418.87 1574.83 3418.97 1573.06 3419.02 1570.42C3419.27 1567.41 3419.27 1565.31 3419.47 1562.4C3420.03 1559.55 3420.48 1557.56 3421.24 1554.76C3423.56 1552.23 3422.65 1549.65 3423.45 1546.58C3423.76 1545.77 3423.81 1544.7 3423.86 1544.16C3425.22 1542.6 3425.32 1540.99 3425.82 1538.67C3426.13 1536.9 3426.18 1535.93 3426.28 1534.15C3426.53 1531.78 3426.98 1530.28 3428.14 1528.12C3428.55 1526.4 3428.65 1525.43 3428.8 1523.71C3429.55 1522.42 3430.11 1521.78 3430.76 1520.38C3430.91 1519.73 3430.96 1518.71 3431.07 1518.22C3432.53 1516.72 3432.63 1515.1 3433.18 1512.84C3433.43 1512.09 3433.53 1511.07 3433.64 1510.58C3434.39 1509.51 3434.95 1508.86 3435.6 1507.46C3435.75 1506.82 3435.85 1505.85 3435.95 1505.36C3436.76 1504.34 3437.37 1503.75 3438.02 1502.35C3438.17 1501.7 3438.32 1500.74 3438.42 1500.25C3439.18 1499.28 3439.73 1498.74 3440.54 1497.56C3440.84 1497.02 3440.94 1496.97 3440.94 1496.92C3441.75 1496.54 3442.36 1496 3442.86 1494.55C3442.96 1493.9 3443.06 1492.93 3443.21 1492.45C3444.07 1491.48 3444.67 1490.83 3445.38 1489.49C3445.58 1488.84 3445.68 1487.87 3445.78 1487.39C3446.54 1486.37 3447.09 1485.72 3447.85 1484.38C3449.36 1481.63 3450.57 1479.48 3452.34 1476.79C3453.6 1475.93 3454.2 1475.44 3455.11 1474.31C3455.41 1473.78 3455.51 1473.72 3455.51 1473.67C3456.32 1473.29 3456.87 1472.7 3457.48 1471.36C3458.33 1467.32 3460.2 1464.84 3463.98 1463.23C3465.24 1463.45 3465.74 1463.82 3466.65 1465.17C3467.81 1470.17 3466.25 1473.67 3464.78 1477.22C3438.88 1539.69 3453.85 1594.2 3492.76 1644.41C3529.81 1692.19 3578.24 1713.55 3635.15 1712.69C3670.33 1712.15 3703.55 1701.77 3731.72 1677.5C3734.9 1674.81 3737.97 1672.01 3740.34 1668.51C3746.39 1659.47 3753.5 1657.86 3762.77 1665.12C3788.78 1687.83 3816.6 1702.63 3850.37 1700.26C3858.08 1699.72 3865.49 1702.31 3873.1 1702.68C3929.71 1705.8 3993.72 1662.27 4005.71 1598.88C4007.93 1587.15 4009.7 1575.32 4012.67 1562.72C4018.21 1559.55 4019.42 1563.91 4021.14 1567.14C4025.82 1576.18 4029.35 1585.75 4031.22 1597C4031.42 1598.94 4031.42 1599.85 4031.47 1601.52C4032.43 1604.43 4033.33 1606.63 4033.59 1610.02C4033.74 1611.85 4033.79 1612.82 4033.84 1614.44C4037.06 1627.67 4035.85 1640.32 4034.34 1654.15C4033.84 1656.25 4033.84 1657.16 4033.84 1658.83C4031.32 1679.44 4024.56 1697.73 4014.79 1715.92C4014.23 1716.73 4014.18 1716.62 4014.13 1716.67C4013.38 1717.16 4012.82 1717.7 4012.22 1719.1C4011.41 1720.87 4010.7 1722 4009.7 1723.72C4008.64 1724.8 4008.03 1725.39 4007.38 1726.79C4005.21 1730.45 4003.19 1733.52 4000.57 1737.01C3999.16 1737.71 3998.51 1738.14 3997.6 1739.33C3997.3 1739.87 3997.2 1739.87 3997.2 1739.92C3996.44 1740.35 3995.83 1740.89 3995.18 1742.23C3992.41 1747.18 3987.47 1748.53 3983.79 1752.78C3982.28 1753.21 3981.57 1753.59 3980.71 1754.83C3980.41 1755.36 3980.36 1755.52 3980.31 1755.52C3979.81 1755.85 3979.35 1756.17 3978.45 1757.25C3977.99 1757.95 3977.89 1758 3977.89 1758.05C3977.44 1758.43 3976.93 1758.75 3976.03 1759.83C3975.52 1760.53 3975.47 1760.64 3975.47 1760.64C3973.25 1762.47 3971.34 1764.73 3968.47 1767.09C3966.9 1767.85 3966.05 1768.12 3964.53 1768.49C3953.24 1774.47 3942.36 1779.58 3930.01 1783.13C3928.45 1783.88 3927.54 1784.04 3925.98 1784.21C3916.6 1790.02 3906.62 1790.77 3896.09 1792.87C3894.27 1793.46 3893.26 1793.46 3891.5 1793.46C3888.78 1793.73 3886.86 1793.84 3884.19 1793.51C3881.72 1793.41 3879.96 1793.46 3877.39 1793.35C3867.46 1788.73 3857.58 1793.25 3847.45 1789.8C3845.63 1789.32 3844.78 1789.26 3843.26 1789.21C3827.84 1786.14 3813.37 1782.11 3799.11 1774.2C3798.3 1773.71 3797.4 1773.61 3796.94 1773.5C3796.04 1772.64 3795.43 1771.99 3794.12 1771.35C3793.52 1771.18 3792.56 1771.13 3792.1 1771.02C3785.85 1768.06 3781.02 1762.04 3772.95 1765C3772.3 1765.59 3772.3 1765.48 3772.35 1765.53C3770.63 1767.58 3768.26 1768.49 3765.59 1770.38C3765.09 1770.97 3764.18 1771.24 3763.73 1771.29C3762.37 1771.24 3761.66 1771.56 3760.8 1772.85C3760.5 1773.39 3760.5 1773.5 3760.45 1773.55C3756.37 1776.83 3751.93 1779.09 3746.29 1780.6C3745.73 1781.25 3744.88 1781.52 3744.47 1781.57C3735.8 1785.87 3726.93 1788.24 3717.46 1791.58C3715.69 1791.79 3714.79 1791.85 3713.27 1791.95C3704.91 1794.48 3696.94 1795.67 3688.27 1797.87C3685.7 1798.47 3683.99 1798.63 3681.37 1798.68C3679.4 1798.79 3678.29 1799 3676.33 1799.27C3674.61 1799.49 3673.76 1799.54 3672.19 1799.65C3669.17 1800.73 3667.1 1801.75 3663.98 1801.96Z" fill="#A7D9DF"/>
<path d="M3326.33 1494.22C3337.01 1514.62 3340.44 1536.52 3343.97 1558.42C3345.73 1569.45 3346.39 1580.54 3346.39 1591.73C3346.44 1621.97 3342.35 1651.56 3333.74 1680.3C3328.19 1698.81 3326.33 1718.02 3323.2 1736.91C3319.98 1756.6 3314.38 1775.11 3307.42 1793.35C3296.54 1821.93 3280.66 1847.16 3260.1 1868.53C3238.62 1890.86 3213.37 1907.38 3184.79 1917.87C3155.56 1928.63 3127.03 1941.49 3096.79 1949.13C3069.27 1956.07 3041.5 1960 3013.27 1958.5C2993.21 1957.42 2972.95 1954.84 2954.3 1947.09C2938.02 1940.31 2922.29 1931.05 2909.89 1916.85C2902.38 1908.24 2901.98 1908.4 2892.4 1913.51C2843.71 1939.23 2791.85 1953.71 2738.77 1964.36C2702.48 1971.63 2665.79 1975.66 2629.4 1981.74C2628.59 1981.85 2627.79 1981.85 2626.98 1981.9C2575.52 1984.65 2524.01 1986.1 2472.54 1984C2453.84 1983.25 2435.09 1979.32 2416.44 1978.08C2397.44 1976.79 2379.45 1970.82 2360.75 1968.18C2343.11 1965.71 2325.52 1959.73 2308.68 1952.79C2287.36 1943.97 2265.94 1934.98 2246.43 1922.01C2228.04 1909.74 2210.85 1895.43 2195.63 1878.86C2186.1 1868.47 2177.38 1857.17 2169.77 1845.06C2166.65 1840.06 2163.72 1839.36 2158.78 1842.37C2119.52 1866.8 2076.73 1881.33 2033.33 1894.62C2010.9 1901.51 1988.12 1906.57 1965.28 1910.93C1950.01 1913.83 1934.59 1917.12 1918.86 1917.6C1910.9 1917.87 1902.78 1918.84 1895.02 1920.67C1887.81 1922.39 1880.66 1922.66 1873.45 1922.5C1852.89 1922.07 1832.62 1924.86 1812.26 1927.45C1785.04 1930.84 1757.57 1932.18 1730.35 1929.92C1692.85 1926.86 1655.1 1923.3 1618.76 1912.11C1585.65 1901.94 1552.98 1890.21 1523.4 1869.92C1504.75 1857.12 1485.7 1844.96 1470.78 1827.41C1455.45 1809.39 1439.73 1791.36 1429.6 1769.03C1427.03 1763.33 1424.31 1762.57 1419.32 1765.59C1408.08 1772.31 1397.04 1779.52 1385.29 1785.01C1346.63 1803.09 1307.17 1818.32 1265.53 1827.36C1215.48 1838.23 1164.93 1839.74 1114.38 1836.83C1090.99 1835.49 1067.3 1832.31 1044.26 1826.23C1033.02 1823.27 1032.52 1823.22 1026.52 1833.33C1017.7 1848.24 1006.76 1861.37 996.734 1875.31C995.978 1876.33 995.171 1877.3 994.214 1878.05C978.639 1890.75 964.072 1904.74 947.49 1916.25C926.219 1931 903.084 1940.36 879.193 1947.9C865.03 1952.36 850.665 1956.83 835.544 1956.5C829.092 1956.34 822.943 1958.6 816.441 1958.87C769.768 1960.76 725.866 1948.49 682.519 1931.48C661.552 1923.3 642.298 1911.9 622.943 1900.54C607.116 1891.23 592.852 1878.96 579.445 1866.27C561.451 1849.26 543.255 1832.04 530.906 1809.28C528.336 1804.49 524.505 1800.51 521.43 1796.04C506.158 1773.66 494.263 1749.44 486.904 1722.75C485.795 1718.67 484.132 1714.68 482.973 1710.59C481.813 1706.4 479.041 1705.32 475.563 1706.02C471.229 1706.83 466.844 1707.69 462.66 1709.25C427.781 1722.27 391.793 1726.41 355.049 1727.06C319.817 1727.65 285.19 1724.26 251.42 1713.77C222.841 1704.89 195.018 1693.75 169.968 1675.99C158.274 1667.71 144.968 1661.95 134.585 1651.67C113.667 1631.01 92.0442 1611.1 77.3768 1584.14C68.3546 1567.46 58.9796 1550.89 49.2518 1534.64C38.7175 1517.09 31.2578 1498.15 25.159 1478.73C17.7497 1455.21 10.1892 1431.59 5.70328 1407.11C3.58634 1395.32 -0.193863 1383.48 0.00775046 1371.75C0.662994 1334.95 1.51983 1297.93 14.3223 1262.9C16.792 1256.12 19.3122 1249.28 22.2356 1242.72C26.419 1233.41 30.1489 1224.05 33.0723 1214.14C40.7336 1188.15 53.7881 1165.02 67.5986 1142.25C87.4575 1109.48 112.861 1082.31 139.927 1056.37C156.964 1040.07 176.772 1028.99 196.228 1016.99C197.639 1016.12 199.101 1015.48 200.512 1014.62C210.492 1008.54 210.593 1008.48 207.065 996.538C202.78 982.117 202.629 966.996 200.21 952.252C196.077 926.693 197.841 900.81 197.891 875.089C197.891 861.798 200.613 848.722 204.595 835.055C205.401 833.494 205.905 832.902 206.561 831.665C206.863 827.629 206.964 824.131 207.065 819.611C208.224 817.566 209.484 817.19 211.803 817.997C214.424 821.064 214.575 823.97 214.272 828.006C200.21 885.636 204.948 941.921 216.54 998.045C219.565 1012.68 219.111 1014.51 206.611 1021.24C192.952 1028.55 179.796 1036.63 166.238 1045.99C165.028 1046.96 164.575 1047.33 163.466 1048.3C160.19 1050.72 156.913 1051.26 154.292 1054.54C153.486 1055.57 153.133 1055.94 152.276 1056.97C150.31 1059.06 148.95 1060.63 147.488 1063.26C140.784 1074.19 131.56 1081.23 123.042 1088.82C98.6974 1110.4 78.4354 1135.15 66.0865 1166.63C64.8264 1169.81 62.9615 1172.55 60.4413 1175.99C53.9393 1181.86 51.9231 1189.5 49.1006 1196.55C40.3808 1218.29 33.3244 1240.73 24.1005 1262.25C16.288 1280.55 15.6832 1300.51 11.7517 1320.63C11.6509 1322.95 7.21542 1321.76 10.2396 1325.26C13.0622 1332.85 9.88679 1339.36 9.83639 1347.05C9.58437 1415.29 29.2921 1476.36 59.2821 1534.47C70.3708 1555.94 82.2155 1577.04 96.0261 1596.57C130.099 1644.73 176.016 1676.26 228.284 1696.6C304.998 1726.47 382.871 1725.66 460.795 1700.96C462.358 1700.48 463.87 1699.99 465.432 1699.56C484.989 1693.54 486.602 1694.4 493.255 1715.17C519.565 1797.6 570.12 1857.93 640.483 1900.6C687.509 1929.12 738.165 1946.6 791.743 1949.78C853.286 1953.44 910.695 1936.86 960.595 1896.02C984.486 1876.49 1005.3 1853.84 1020.68 1826.12C1025.87 1816.76 1032.27 1814.61 1041.79 1816.71C1086.91 1826.72 1132.52 1831.72 1178.59 1829.24C1231.87 1826.39 1284.08 1817.62 1334.49 1797.5C1362.11 1786.47 1389.12 1774.57 1414.68 1758.75C1426.07 1751.7 1429.04 1752.89 1436.05 1765.1C1472.34 1828.92 1525.01 1869.82 1590.69 1893.92C1633.43 1909.64 1677.38 1915.29 1721.94 1920.18C1763.72 1924.76 1804.6 1917.65 1845.88 1915.18C1881.26 1913.03 1916.54 1910.66 1951.57 1904.58C2021.94 1892.42 2090.13 1872.88 2153.29 1836.35C2166.44 1828.71 2169.17 1829.46 2178.09 1842.75C2218.41 1902.64 2275.01 1935.47 2340.34 1953.76C2375.06 1963.45 2410.3 1970.66 2446.08 1972.81C2494.67 1975.71 2543.16 1977.65 2592 1974.96C2641.65 1972.22 2690.54 1965.01 2739.28 1955.64C2788.93 1946.12 2837.51 1932.18 2883.28 1908.72C2901.78 1899.25 2904.6 1899.95 2919.42 1914.8C2941.04 1936.49 2968.01 1944.13 2996.44 1948.06C3041.8 1954.3 3085.55 1946.44 3128.14 1930.35C3154.3 1920.51 3181.16 1912.54 3206.06 1898.93C3252.23 1873.69 3283.79 1834.73 3302.79 1783.45C3311.46 1760.04 3316.35 1735.72 3319.27 1710.97C3321.49 1692.08 3328.64 1674.54 3331.32 1654.74C3331.87 1641.61 3335.05 1629.99 3336.31 1618.04C3340.09 1581.93 3335.4 1547.07 3324.96 1512.79C3323.5 1507.89 3321.74 1503 3323.35 1496.7C3324.31 1494.92 3324.81 1494.44 3326.33 1494.22Z" fill="#BACBCC"/>
<path d="M212.258 818.105C210.494 818.481 209.536 818.427 207.822 818.374C209.082 800.347 214.828 783.343 220.877 766.609C232.167 735.291 247.187 705.803 263.064 676.961C271.129 662.325 282.47 649.788 292.147 636.174C306.26 616.372 321.734 597.646 339.224 581.395C350.312 571.117 360.192 559.226 373.196 550.831C381.865 545.235 389.123 536.679 398.045 530.814C414.123 520.267 429.95 509.398 445.928 498.69C465.635 485.506 484.99 471.677 506.16 461.13C518.508 454.996 530.303 447.516 543.257 442.835C561.099 436.378 578.287 427.983 596.583 423.033C605.505 420.612 614.628 419.374 623.751 418.029C635.696 416.253 636.956 414.262 637.41 401.563C637.914 387.841 639.779 374.443 643.307 361.152C647.692 344.686 650.968 327.951 655.656 311.539C660.696 293.836 666.896 276.67 674.154 259.989C687.36 229.641 702.38 200.26 721.684 173.732C748.701 136.603 779.749 104.533 817.955 80.1032C851.826 58.4179 887.108 40.1763 923.953 25.54C952.935 14.0247 983.177 7.13706 1013.47 0.626073C1015.79 0.141784 1018.31 0.357089 1020.68 0.357089C1042.4 0.24947 1064.18 0.46464 1085.9 0.0341615C1104.04 -0.342507 1121.84 2.45566 1139.68 5.469C1168.16 10.2581 1194.97 19.8362 1220.32 34.2572C1240.94 45.9877 1259.89 60.355 1277.63 76.5518C1282.02 80.5337 1284.59 85.9684 1288.42 90.3808C1306.41 110.828 1320.27 134.074 1332.93 158.665C1344.47 181.05 1352.99 204.242 1358.38 229.479C1347.79 228.995 1351.32 217.641 1345.78 211.776C1337.92 186.7 1326.73 164.369 1314.33 142.738C1276.42 76.6593 1222.29 34.6339 1151.17 18.2757C1119.97 11.119 1088.42 8.10564 1056.41 8.53612C1001.57 9.28946 949.659 23.6029 899.558 46.0416C869.467 59.494 840.283 75.045 813.166 94.7393C766.039 128.962 728.136 171.903 701.624 227.273C687.712 248.151 678.942 270.536 671.029 293.459C663.015 316.759 656.916 340.704 651.321 364.757C648.952 375.035 649.759 385.043 652.884 395.052C654.598 400.594 657.521 406.244 653.438 413.024C636.906 428.575 616.039 426.961 597.491 432.988C556.613 446.279 516.845 462.529 480.504 487.12C444.869 511.227 407.52 532.536 374.758 561.378C300.01 627.133 244.818 707.041 217.399 807.343C216.643 811.055 215.836 814.822 212.258 818.105Z" fill="#D9D9D4"/>
<path d="M1920.37 696.925C1924.31 697.732 1925.31 700.261 1925.31 703.597C1925.26 707.472 1925.26 711.346 1925.52 715.22C1926.07 722.915 1927.63 724.206 1934.69 721.893C1939.68 720.278 1944.52 718.126 1949.26 715.758C1967.2 706.933 1986.45 702.091 2005.3 696.494C2021.79 691.598 2039.12 689.93 2056.06 686.97C2075.57 683.58 2095.27 684.172 2114.98 684.387C2129.4 684.549 2143.51 685.786 2157.93 688.208C2176.68 691.329 2194.77 696.01 2212.81 701.768C2237.97 709.839 2261.45 721.624 2283.98 735.722C2302.83 747.506 2319.42 762.25 2334.39 779.092C2335.8 780.653 2337.66 781.944 2338.52 783.774C2345.38 798.733 2356.97 801.208 2371.48 800.778C2391.14 800.132 2410.65 796.527 2430.41 797.926C2470.73 800.724 2511.05 802.177 2550.87 811.54C2581.46 818.696 2611.91 826.499 2641.24 837.799C2663.02 846.193 2685.3 854.587 2705.56 866.587C2729.3 880.631 2753.49 894.084 2775.67 911.088C2798.25 928.361 2820.07 946.602 2838.22 969.095C2858.63 994.332 2878.95 1019.84 2892.86 1050.08C2905.61 1077.79 2914.93 1106.79 2919.47 1137.95C2917.81 1139.51 2916.6 1139.89 2914.28 1139.24C2909.44 1134.08 2908.73 1127.94 2907.47 1122.13C2894.87 1063.37 2865.74 1014.99 2827.33 971.731C2801.32 942.405 2771.74 917.976 2739.33 898.174C2715.08 883.322 2690.23 869.17 2663.97 857.87C2617.75 837.96 2570.12 823.97 2521.23 815.952C2473.55 808.15 2425.21 805.782 2376.98 811.002C2359.84 812.831 2346.33 810.517 2333.53 794.374C2290.59 740.242 2233.38 712.045 2168.91 700.369C2091.64 686.378 2016.75 696.71 1944.47 728.942C1941.85 730.125 1939.28 731.255 1936.6 732.278C1923 737.551 1919.37 735.291 1917.35 720.063C1916.8 715.812 1915.79 711.615 1915.84 706.234C1916.39 702.091 1917.5 699.561 1920.37 696.925Z" fill="#D9D9D4"/>
<path d="M2913.12 1138.11C2915.09 1138.27 2916.19 1138.33 2918.16 1138.43C2919.98 1148.66 2922.34 1158.61 2921.89 1170.07C2922.8 1173.36 2923.86 1175.51 2923.7 1178.9C2923.7 1190.09 2923.76 1200.42 2923.7 1211.94C2923.45 1219.63 2924.51 1226.2 2922.34 1233.62C2921.74 1239.65 2921.59 1244.65 2921.34 1250.79C2921.23 1253.48 2920.83 1255.04 2919.77 1257.14C2919.37 1259.61 2919.22 1261.34 2918.97 1263.92C2918.82 1266.39 2918.41 1267.9 2917.3 1270.05C2916.9 1272.53 2916.75 1274.25 2916.5 1276.83C2916.35 1279.31 2915.99 1280.81 2914.88 1282.97C2914.23 1291.74 2912.67 1299.49 2909.64 1307.83C2908.43 1309.6 2907.37 1310.25 2905.31 1310.68C2901.43 1310.3 2899.11 1308.58 2897.34 1306.16C2880.66 1283.29 2858.73 1266.18 2839.53 1246.11C2830.31 1236.48 2829.95 1233.84 2839.38 1224.69C2859.59 1205.1 2880.16 1185.89 2896.03 1161.73C2901.33 1153.66 2904.05 1143.65 2913.12 1138.11Z" fill="#A7D9DF"/>
<path d="M1368.2 292.114C1373.09 295.235 1371.73 299.862 1371.78 303.952C1371.93 320.31 1371.73 336.615 1371.93 352.973C1372.04 361.367 1373.09 362.174 1380.35 359.914C1404.6 352.381 1429.14 346.3 1453.99 341.888C1463.77 340.166 1473.7 338.175 1483.83 338.229C1492.2 338.283 1500.56 336.561 1508.88 335.485C1537.71 331.772 1566.49 332.686 1595.37 335.215C1620.83 337.475 1644.92 345.439 1669.16 352.865C1680.25 356.255 1690.89 361.851 1701.37 367.178C1719.47 376.38 1737.51 385.797 1754.6 397.043C1767.95 405.76 1781.01 414.961 1792.1 427.015C1797.74 433.149 1803.54 438.961 1810.09 444.126C1818.56 450.745 1824.25 460.485 1830.66 469.256C1852.73 499.497 1870.78 532.482 1885.14 567.566C1894.11 589.521 1903.09 611.583 1909.59 634.667C1910.65 638.487 1910.95 642.2 1911.1 647.151C1909.94 650.003 1908.63 651.509 1905.61 650.433C1893.91 615.134 1881.87 581.019 1866.79 548.195C1829.45 466.942 1771.43 409.419 1693.51 373.743C1651.47 354.479 1607.87 343.986 1562.56 342.318C1538.97 341.457 1515.28 344.794 1491.74 347.484C1453.69 351.896 1416.19 359.107 1379.34 370.192C1365.38 374.389 1362.11 371.16 1361.7 355.448C1361.55 349.852 1361.6 344.255 1362.21 337.637C1364.17 327.036 1363.62 317.351 1363.82 307.773C1363.87 302.338 1363.21 296.688 1368.2 292.114Z" fill="#D9D9D4"/>
<path d="M1369.36 290.984C1365.89 295.934 1367.7 300.885 1367.35 305.405C1366.59 315.521 1368.91 325.799 1365.33 336.668C1363.32 340.274 1361 342.318 1358.17 342.641C1344.06 344.202 1331.01 350.336 1317.1 352.704C1306.26 354.533 1303.79 351.412 1306.56 340.058C1307.87 334.624 1309.89 329.458 1311.9 324.346C1324.66 292.221 1334.94 259.29 1341.49 225.067C1342.45 220.062 1343.41 214.951 1347.14 209.946C1354.44 213.982 1351.47 223.56 1357.37 229.587C1358.12 231.04 1358.12 231.955 1358.22 233.569C1358.68 235.883 1359.69 237.174 1360.34 239.595C1360.59 241.317 1360.59 242.286 1360.69 243.9C1361.6 246.86 1362.56 249.066 1362.86 252.402C1363.06 254.232 1363.06 255.147 1363.11 256.761C1365.48 265.693 1366.49 274.249 1368.76 283.45C1369.26 286.302 1369.31 288.186 1369.36 290.984Z" fill="#A7D9DF"/>
<path d="M4031.72 1597.22C4026.08 1590.87 4026.78 1581.24 4022.09 1573.92C4019.67 1570.15 4019.02 1565.25 4014.53 1561.97C4008.48 1561.97 4007.48 1556.86 4005.41 1553.63C3990.44 1529.95 3968.92 1517.2 3943.87 1508.97C3904.3 1495.95 3866.04 1499.01 3828.65 1517.15C3819.77 1521.45 3813.37 1519.68 3807.78 1511.39C3769.57 1454.89 3714.73 1426.8 3653.44 1411.95C3606.47 1400.54 3560.7 1409.21 3516.2 1431C3502.38 1437.89 3490.84 1446.71 3479.7 1456.24C3476.63 1458.87 3474.01 1462.15 3468.92 1462.8C3467.45 1462.53 3466.9 1462.32 3465.64 1461.51C3466.95 1450.8 3476.02 1447.46 3482.37 1442.35C3499.31 1428.63 3517.71 1416.95 3538.37 1410.55C3559.54 1403.99 3580.96 1398.12 3603.29 1398.93C3620.13 1399.52 3637.06 1397.15 3653.75 1401.51C3675.87 1407.27 3697.95 1412.33 3718.16 1425.19C3734.34 1435.46 3751.23 1444.61 3767.51 1454.78C3781.22 1463.34 3792.25 1475.18 3802.49 1487.93C3807.98 1494.71 3811.91 1504.77 3818.77 1507.89C3825.67 1511.07 3834.85 1504.88 3842.3 1501.54C3864.94 1491.37 3888.68 1489.11 3912.16 1492.4C3942.86 1496.7 3973.2 1504.72 3997.14 1527.8C4011.61 1541.79 4021.44 1559.66 4028.19 1579.19C4030.16 1584.84 4033.43 1590.11 4031.72 1597.22Z" fill="#D9D9D4"/>
<path d="M2903.84 1309.33C2905.61 1308.63 2906.67 1308.63 2908.53 1308.63C2911.25 1319.93 2904.75 1329.08 2901.83 1338.82C2904.6 1342.16 2906.67 1339.63 2908.63 1338.77C2933.58 1327.74 2959.99 1321.71 2986.36 1317.24C3007.17 1313.75 3028.64 1313.8 3049.96 1313.42C3077.08 1312.94 3103.64 1316.92 3129.85 1322.41C3147.34 1326.07 3164.43 1333.17 3181.11 1340.54C3201.53 1349.53 3221.64 1359.43 3239.28 1373.69C3262.97 1392.85 3285.05 1413.89 3302.18 1440.31C3312.77 1456.61 3322.8 1472.97 3327.28 1493.47C3326.88 1494.44 3326.48 1494.44 3325.47 1494.44C3324.26 1494.71 3323.6 1494.92 3322.14 1494.71C3310.65 1475.55 3301.83 1455.8 3289.48 1438.1C3269.37 1409.31 3244.52 1386.44 3215.44 1369.12C3167.56 1340.65 3116.29 1326.55 3061 1324.13C3008.89 1321.87 2959.44 1330.86 2910.65 1348.29C2908.73 1348.99 2906.82 1349.69 2904.9 1350.23C2894.47 1352.97 2890.54 1349.58 2893.21 1338.82C2895.63 1329.03 2897.8 1318.86 2903.84 1309.33Z" fill="#D9D9D4"/>
<path d="M1905.96 651.563C1907.82 650.11 1908.83 649.357 1910.45 648.388C1917.55 662.756 1920.63 678.199 1921.18 695.311C1920.53 698.432 1919.77 700.476 1918.61 703.167C1915.69 708.117 1911.81 710.216 1907.47 711.346C1900.47 713.122 1895.48 710.108 1897.24 702.36C1901.07 685.84 1901.57 668.782 1905.96 651.563Z" fill="#A7D9DF"/>
<path d="M3590.64 1805.73C3598.56 1804.65 3606.92 1804.38 3615.29 1804.33C3629.2 1804.22 3643.16 1804.81 3658.03 1802.07C3655.91 1808.8 3649.31 1808.37 3644.37 1808.64C3627.99 1809.55 3611.56 1809.01 3595.13 1808.96C3593.47 1809.07 3592.15 1807.99 3590.64 1805.73Z" fill="#D9D9D4"/>
<path d="M4014.84 1716.46C4014.99 1707.58 4021.04 1700.69 4023.51 1692.19C4026.58 1681.75 4030.06 1671.47 4032.88 1660.07C4035.9 1662.43 4035.45 1665.66 4034.54 1669.05C4030.76 1682.83 4026.43 1696.39 4020.53 1709.3C4019.32 1711.94 4018.52 1714.95 4014.84 1716.46Z" fill="#D9D9D4"/>
<path d="M3798.4 1774.57C3812.41 1778.39 3826.78 1783.02 3841.75 1788.46C3841.65 1789.69 3840.94 1790.56 3840.34 1790.45C3825.72 1787.86 3811.36 1784.42 3798.4 1774.57Z" fill="#D9D9D4"/>
<path d="M4034.49 1654.74C4033.53 1642.74 4033.43 1630.15 4033.48 1616.32C4034.59 1615.78 4036.26 1616.43 4036.41 1617.34C4038.07 1629.72 4039.73 1642.09 4034.49 1654.74Z" fill="#D9D9D4"/>
<path d="M3846.79 1790.29C3856.07 1789.59 3866.1 1786.25 3875.92 1792.38C3866.55 1793.08 3856.62 1796.42 3846.79 1790.29Z" fill="#D9D9D4"/>
<path d="M3930.11 1783.72C3938.88 1775.92 3950.92 1773.6 3962.72 1768.55C3961.61 1774.14 3956.57 1774.63 3952.28 1776.46C3945.38 1779.52 3938.67 1783.18 3930.11 1783.72Z" fill="#D9D9D4"/>
<path d="M3896.14 1793.57C3895.78 1790.77 3897.35 1788.73 3900.07 1788.99C3908.23 1789.8 3915.49 1786.04 3924.06 1784.15C3917.66 1793.89 3907.22 1793.19 3896.14 1793.57Z" fill="#D9D9D4"/>
<path d="M3520.43 1784.96C3530.81 1786.73 3540.89 1791.47 3551.78 1796.21C3540.59 1797.12 3530.36 1792.6 3520.43 1784.96Z" fill="#D9D9D4"/>
<path d="M3688.22 1798.57C3693.66 1791.58 3702.13 1792.33 3711.31 1791.79C3705.71 1798.41 3697.44 1798.47 3688.22 1798.57Z" fill="#D9D9D4"/>
<path d="M1369.32 283.343C1363.27 282.751 1365.84 276.993 1364.38 273.173C1362.71 268.868 1362.31 264.456 1362.91 258.752C1369.01 264.617 1369.01 273.496 1369.32 283.343Z" fill="#D9D9D4"/>
<path d="M3716.95 1792.28C3724.01 1786.09 3733.18 1784.37 3742.81 1781.52C3736.51 1789.26 3726.83 1790.5 3716.95 1792.28Z" fill="#D9D9D4"/>
<path d="M3462.52 1738.31C3469.17 1741.43 3473.71 1747.88 3479 1754.61C3470.33 1753.96 3465.24 1748.05 3462.52 1738.31Z" fill="#D9D9D4"/>
<path d="M2922.69 1234.11C2921.28 1227.92 2920.63 1221.25 2922.95 1213.88C2926.98 1220.01 2927.23 1226.84 2922.69 1234.11Z" fill="#D9D9D4"/>
<path d="M3563.88 1800.56C3569.82 1800.89 3576.18 1802.02 3583.13 1803.95C3576.48 1808.85 3570.33 1805.46 3563.88 1800.56Z" fill="#D9D9D4"/>
<path d="M3773 1765.53C3773.6 1762.09 3775.72 1759.67 3779.55 1761.87C3783.38 1764.08 3787.87 1765.26 3791.04 1770.11C3784.94 1771.51 3780.36 1765.16 3773 1765.53Z" fill="#D9D9D4"/>
<path d="M3415.79 1592.91C3416.45 1600.23 3416.55 1608.36 3416.5 1617.61C3410.85 1610.72 3414.18 1602.11 3415.79 1592.91Z" fill="#D9D9D4"/>
<path d="M3426.22 1678.74C3430.21 1681.59 3431.87 1686.7 3433.33 1692.94C3427.38 1691.17 3426.68 1685.52 3426.22 1678.74Z" fill="#D9D9D4"/>
<path d="M3746.39 1781.25C3748.86 1776.94 3753.75 1775.43 3759.29 1773.6C3758.13 1780.49 3752.59 1780.55 3746.39 1781.25Z" fill="#D9D9D4"/>
<path d="M3489.28 1766.5C3493.71 1766.07 3497.6 1768.12 3501.02 1772.74C3496.64 1773.12 3492.15 1772.21 3489.28 1766.5Z" fill="#D9D9D4"/>
<path d="M3968.36 1767.63C3968.26 1763.97 3969.93 1761.28 3974.46 1760.64C3974.71 1764.4 3972.95 1767.04 3968.36 1767.63Z" fill="#D9D9D4"/>
<path d="M3418.92 1562.02C3421.79 1563.64 3421.99 1566.01 3419.57 1569.02C3416.9 1567.41 3416.5 1565.09 3418.92 1562.02Z" fill="#D9D9D4"/>
<path d="M2924.26 1179.22C2921.44 1178.09 2921.34 1175.62 2921.74 1172.12C2925.07 1172.71 2926.88 1174.86 2924.26 1179.22Z" fill="#D9D9D4"/>
<path d="M4034.04 1610.24C4031.06 1609.32 4030.71 1606.9 4031.11 1603.14C4034.44 1603.62 4036.1 1605.83 4034.04 1610.24Z" fill="#D9D9D4"/>
<path d="M3883.69 1794.16C3885.05 1791.2 3887.22 1791.04 3890.04 1792.92C3888.83 1796.26 3886.66 1796.8 3883.69 1794.16Z" fill="#D9D9D4"/>
<path d="M1363.42 252.725C1360.44 251.864 1359.99 249.389 1360.49 245.622C1363.77 246.106 1365.38 248.366 1363.42 252.725Z" fill="#D9D9D4"/>
<path d="M3663.73 1802.61C3664.58 1799.43 3666.9 1799.06 3670.38 1799.54C3669.88 1803.15 3667.81 1804.87 3663.73 1802.61Z" fill="#D9D9D4"/>
<path d="M3765.69 1770.86C3765.84 1768.06 3767.71 1766.23 3771.34 1765.59C3771.79 1769.19 3769.67 1770.59 3765.69 1770.86Z" fill="#D9D9D4"/>
<path d="M3450.42 1722.59C3453.09 1722.81 3454.8 1724.8 3455.31 1728.84C3452.13 1729.05 3450.67 1726.79 3450.42 1722.59Z" fill="#D9D9D4"/>
<path d="M3440.74 1707.36C3443.51 1707.36 3445.13 1709.3 3445.58 1713.23C3442.4 1713.61 3440.99 1711.51 3440.74 1707.36Z" fill="#D9D9D4"/>
<path d="M3417.36 1649.9C3420.83 1650 3421.74 1652.53 3421.24 1656.78C3419.07 1655.82 3417.31 1653.77 3417.36 1649.9Z" fill="#D9D9D4"/>
<path d="M3433.59 1696.66C3436.16 1696.98 3437.87 1698.97 3438.32 1702.9C3434.95 1703.28 3433.74 1700.85 3433.59 1696.66Z" fill="#D9D9D4"/>
<path d="M3506.21 1776.83C3508.28 1775.97 3510.15 1776.62 3511.1 1779.95C3509.04 1780.76 3507.17 1780.12 3506.21 1776.83Z" fill="#D9D9D4"/>
<path d="M2915.24 1283.34C2914.28 1281.94 2914.28 1280.28 2915.84 1278.18C2918.77 1279.74 2918.31 1281.51 2915.24 1283.34Z" fill="#D9D9D4"/>
<path d="M2920.12 1257.52C2919.12 1256.12 2919.07 1254.45 2920.68 1252.35C2923.6 1253.91 2923.15 1255.69 2920.12 1257.52Z" fill="#D9D9D4"/>
<path d="M3675.67 1799.97C3676.12 1797.66 3677.28 1796.53 3679.75 1798.2C3679.35 1800.46 3678.14 1801.48 3675.67 1799.97Z" fill="#D9D9D4"/>
<path d="M3427.69 1527.69C3428.65 1529.15 3428.6 1530.87 3426.83 1532.86C3424.11 1531.14 3424.66 1529.36 3427.69 1527.69Z" fill="#D9D9D4"/>
<path d="M1360.9 239.918C1358.88 239.542 1357.98 238.143 1358.08 235.237C1360.09 235.398 1362.36 236.205 1360.9 239.918Z" fill="#D9D9D4"/>
<path d="M2917.65 1270.43C2916.7 1269.03 2916.65 1267.31 2918.31 1265.26C2921.23 1266.88 2920.68 1268.6 2917.65 1270.43Z" fill="#D9D9D4"/>
<path d="M3423.15 1546.37C3423.96 1548.14 3424.26 1550.62 3422.14 1553.36C3421.84 1551.64 3422.19 1549.33 3423.15 1546.37Z" fill="#D9D9D4"/>
<path d="M3421.33 1660.6C3423.7 1661.14 3423.96 1663.51 3423.7 1667.01C3421.79 1666.2 3421.49 1663.89 3421.33 1660.6Z" fill="#D9D9D4"/>
<path d="M3416.55 1637.41C3419.17 1638.17 3419.57 1640.48 3417.56 1643.82C3416.85 1642.42 3416.7 1640.43 3416.55 1637.41Z" fill="#D9D9D4"/>
<path d="M3418.21 1577.2C3419.02 1578.33 3418.97 1579.94 3417.3 1581.88C3417 1580.8 3417.35 1579.3 3418.21 1577.2Z" fill="#D9D9D4"/>
<path d="M3425.42 1538.46C3426.23 1539.59 3426.18 1541.2 3424.46 1543.14C3424.21 1542.12 3424.56 1540.55 3425.42 1538.46Z" fill="#D9D9D4"/>
<path d="M3423.86 1670.77C3425.27 1670.83 3426.12 1672.17 3426.12 1674.81C3425.32 1674.33 3424.61 1672.93 3423.86 1670.77Z" fill="#D9D9D4"/>
<path d="M3432.78 1512.68C3433.53 1513.81 3433.38 1515.43 3431.67 1517.31C3431.47 1516.23 3431.87 1514.73 3432.78 1512.68Z" fill="#D9D9D4"/>
<path d="M3464.84 1461.51C3465.39 1461.02 3465.84 1461.02 3467 1461.08C3467.96 1462.26 3467.66 1463.18 3466 1463.77C3465.24 1463.66 3464.89 1463.34 3464.69 1463.18C3464.48 1463.01 3464.74 1461.99 3464.84 1461.51Z" fill="#A7D9DF"/>
<path d="M3556.77 1797.66C3557.17 1797.44 3557.93 1797.77 3559.04 1798.68C3558.63 1798.9 3557.93 1798.52 3556.77 1797.66Z" fill="#D9D9D4"/>
<path d="M3515.69 1782.11C3516.09 1781.95 3516.85 1782.27 3517.96 1783.18C3517.56 1783.4 3516.8 1783.02 3515.69 1782.11Z" fill="#D9D9D4"/>
<path d="M3456.97 1471.09C3457.12 1471.52 3456.77 1472.27 3455.91 1473.35C3455.46 1472.75 3455.86 1472 3456.97 1471.09Z" fill="#D9D9D4"/>
<path d="M3503.6 1774.3C3504 1774.14 3504.75 1774.41 3505.81 1775.33C3505.26 1775.81 3504.55 1775.43 3503.6 1774.3Z" fill="#D9D9D4"/>
<path d="M3793.66 1771.72C3794.07 1771.56 3794.82 1771.88 3795.93 1772.85C3795.53 1773.01 3794.77 1772.64 3793.66 1771.72Z" fill="#D9D9D4"/>
<path d="M3760.8 1773.23C3760.75 1772.74 3761.26 1772.1 3762.42 1771.4C3762.57 1772.04 3762.01 1772.58 3760.8 1773.23Z" fill="#D9D9D4"/>
<path d="M3454.65 1473.99C3454.75 1474.48 3454.3 1475.18 3453.29 1476.09C3452.99 1475.5 3453.44 1474.8 3454.65 1473.99Z" fill="#D9D9D4"/>
<path d="M3440.14 1497.24C3440.59 1497.88 3440.19 1498.58 3438.93 1499.44C3438.78 1499.01 3439.18 1498.26 3440.14 1497.24Z" fill="#D9D9D4"/>
<path d="M206.258 831.288C206.762 831.826 206.459 832.579 205.351 833.548C204.947 833.01 205.25 832.256 206.258 831.288Z" fill="#D9D9D4"/>
<path d="M3437.57 1502.08C3437.72 1502.51 3437.42 1503.32 3436.51 1504.5C3436.31 1504.07 3436.71 1503.32 3437.57 1502.08Z" fill="#D9D9D4"/>
<path d="M3435.15 1507.25C3435.3 1507.68 3435 1508.48 3434.14 1509.72C3433.94 1509.29 3434.29 1508.48 3435.15 1507.25Z" fill="#D9D9D4"/>
<path d="M3430.31 1520.16C3430.46 1520.59 3430.16 1521.4 3429.3 1522.64C3429.1 1522.21 3429.5 1521.4 3430.31 1520.16Z" fill="#D9D9D4"/>
<path d="M3442.3 1494.28C3442.5 1494.71 3442.2 1495.46 3441.35 1496.59C3440.94 1496 3441.24 1495.25 3442.3 1494.28Z" fill="#D9D9D4"/>
<path d="M3444.87 1489.22C3445.03 1489.65 3444.67 1490.46 3443.77 1491.64C3443.56 1491.16 3443.97 1490.4 3444.87 1489.22Z" fill="#D9D9D4"/>
<path d="M3438.62 1704.3C3439.23 1703.87 3439.88 1704.35 3440.49 1705.7C3439.83 1706.07 3439.23 1705.64 3438.62 1704.3Z" fill="#D9D9D4"/>
<path d="M3445.83 1714.63C3446.44 1714.25 3447.04 1714.68 3447.7 1716.03C3447.04 1716.41 3446.44 1715.97 3445.83 1714.63Z" fill="#D9D9D4"/>
<path d="M3448.2 1717.43C3448.65 1717.37 3449.26 1717.91 3449.92 1719.1C3449.31 1719.31 3448.76 1718.72 3448.2 1717.43Z" fill="#D9D9D4"/>
<path d="M4012.31 1719.26C4012.16 1718.83 4012.47 1718.02 4013.32 1716.94C4013.73 1717.54 4013.37 1718.29 4012.31 1719.26Z" fill="#D9D9D4"/>
<path d="M4007.48 1727.01C4007.33 1726.58 4007.63 1725.77 4008.54 1724.58C4008.74 1725.01 4008.39 1725.82 4007.48 1727.01Z" fill="#D9D9D4"/>
<path d="M3457.73 1732.76C3458.13 1732.6 3458.84 1733.03 3459.79 1734.05C3459.24 1734.49 3458.59 1734.05 3457.73 1732.76Z" fill="#D9D9D4"/>
<path d="M3460.35 1735.35C3460.95 1734.92 3461.61 1735.35 3462.26 1736.69C3461.66 1737.07 3461.05 1736.64 3460.35 1735.35Z" fill="#D9D9D4"/>
<path d="M3447.45 1484.16C3447.6 1484.59 3447.19 1485.4 3446.24 1486.53C3446.08 1486.1 3446.54 1485.35 3447.45 1484.16Z" fill="#D9D9D4"/>
<path d="M3997.65 1739.6C3997.55 1739.11 3998.05 1738.41 3999.11 1737.55C3999.36 1738.2 3998.86 1738.84 3997.65 1739.6Z" fill="#D9D9D4"/>
<path d="M3995.18 1742.45C3995.03 1742.02 3995.43 1741.27 3996.39 1740.24C3996.79 1740.83 3996.39 1741.53 3995.18 1742.45Z" fill="#D9D9D4"/>
<path d="M3980.76 1755.15C3980.71 1754.66 3981.17 1754.02 3982.27 1753.27C3982.53 1753.86 3981.97 1754.45 3980.76 1755.15Z" fill="#D9D9D4"/>
<path d="M3479.7 1756.17C3480.31 1755.69 3480.96 1756.06 3481.57 1757.35C3480.96 1757.79 3480.36 1757.41 3479.7 1756.17Z" fill="#D9D9D4"/>
<path d="M3978.29 1757.68C3977.89 1757.03 3978.29 1756.39 3979.5 1755.69C3979.9 1756.39 3979.5 1757.03 3978.29 1757.68Z" fill="#D9D9D4"/>
<path d="M3482.12 1758.65C3482.57 1758.54 3483.23 1759.08 3484.04 1760.21C3483.43 1760.48 3482.83 1759.94 3482.12 1758.65Z" fill="#D9D9D4"/>
<path d="M3975.82 1760.26C3975.42 1759.61 3975.82 1758.91 3977.08 1758.22C3977.44 1758.91 3977.03 1759.56 3975.82 1760.26Z" fill="#D9D9D4"/>
<path d="M3512.92 1430.73C3521.34 1422.6 3531.17 1419.86 3540.64 1416.63C3568.72 1407.16 3597.6 1401.4 3627.08 1404.36C3656.27 1407.27 3684.75 1413.67 3711.31 1428.2C3734.54 1440.9 3757.53 1453.92 3778.55 1470.71C3791.65 1481.15 3800.17 1495.78 3810.25 1509.02C3817.56 1518.6 3816.95 1518.22 3827.84 1513.87C3850.67 1504.61 3873.66 1494.65 3898.76 1497.24C3928.8 1500.36 3958.44 1505.85 3983.94 1524.95C3996.24 1534.15 4006.07 1545.88 4013.22 1561.06C4012.52 1600.55 4002.24 1635.74 3975.27 1663.46C3961.91 1677.23 3946.94 1689.28 3929.3 1695.53C3918.41 1699.4 3907.83 1705.27 3896.14 1705.86C3884.19 1706.5 3872.2 1707.37 3860.25 1704.14C3855.31 1702.79 3849.87 1703.44 3844.67 1703.76C3830.36 1704.73 3816.65 1702.2 3803.8 1695.63C3789.38 1688.26 3773.96 1682.61 3762.72 1668.3C3759.04 1657.27 3766.15 1647.37 3763.22 1636.61C3721.99 1658.08 3678.39 1654.2 3634.85 1650.49C3588.02 1646.51 3554 1619.82 3527.23 1580.59C3509.09 1554.01 3500.37 1523.6 3499.56 1491.37C3498.86 1470.82 3505.51 1450.91 3512.92 1430.73Z" fill="#FFFEEF"/>
<path d="M3512.67 1430.03C3513.58 1440.36 3509.49 1449.94 3507.68 1459.95C3506.12 1468.72 3503.24 1477.33 3502.13 1486.15C3501.03 1494.6 3503.09 1503.21 3504.35 1511.5C3509.95 1548.09 3525.42 1579.51 3550.72 1605.07C3571.49 1626.06 3595.28 1641.66 3624.06 1645.86C3635.1 1647.47 3646.14 1649.68 3657.43 1649.47C3679.86 1649.09 3702.39 1650.43 3724.67 1646.67C3739.74 1644.14 3754.3 1640 3766.3 1626.6C3768.67 1641.13 3766.3 1653.39 3762.67 1666.58C3760.7 1666.95 3759.09 1666.69 3757.73 1665.88C3750.02 1661.47 3749.11 1661.73 3743.92 1668.41C3730.81 1685.3 3713.93 1696.12 3694.83 1703.6C3679.35 1709.68 3663.37 1713.18 3647.2 1715.71C3637.22 1717.27 3627.03 1717.21 3617.1 1716.14C3590.29 1713.18 3564.58 1705.37 3540.14 1693C3531.97 1688.85 3525.57 1682.29 3518.92 1676.32C3494.42 1654.58 3473.71 1629.83 3460.96 1597.65C3452.49 1576.23 3447.65 1554.44 3448.56 1531.73C3449.41 1511.28 3452.44 1490.89 3463.02 1472.81C3464.23 1470.71 3464.48 1467.97 3465.19 1464.58C3466 1463.34 3466.6 1462.85 3467.41 1461.62C3472.19 1460.92 3474.36 1456.99 3477.39 1454.35C3488.02 1444.93 3499.21 1436.43 3512.67 1430.03Z" fill="#CFE9E6"/>
<path d="M1906.62 649.841C1907.17 668.459 1905.46 685.625 1900.47 702.467C1898.65 708.602 1900.62 710.27 1906.26 708.117C1909.64 706.826 1912.66 704.62 1917.3 704.135C1918.61 711.184 1920.88 718.126 1920.98 725.552C1921.08 732.063 1923.45 733.193 1929.9 730.933C1936 728.78 1942 726.251 1947.9 723.615C1981.77 708.548 2017 699.669 2053.29 693.858C2067.65 691.544 2082.32 694.557 2096.28 689.553C2119.52 694.665 2143.31 690.468 2166.85 695.687C2183.78 699.454 2200.37 704.028 2216.8 709.409C2240.69 717.211 2263.07 728.942 2284.24 743.201C2306.87 758.483 2326.17 777.64 2342.6 800.078C2346.99 806.105 2352.18 808.795 2359.24 807.988C2387.67 804.706 2416.19 805.136 2444.72 805.459C2463.93 805.674 2483.03 808.903 2502.18 809.818C2524.06 810.894 2544.67 818.051 2566.04 821.333C2581.82 823.755 2597.14 829.458 2612.51 834.301C2639.88 842.857 2665.74 855.771 2692.35 866.587C2698.3 869.008 2704 872.345 2709.29 876.38C2713.82 879.878 2718.66 883.214 2723.8 885.528C2751.58 897.797 2775.12 917.545 2798.15 937.078C2818.76 954.566 2837.26 975.337 2853.39 998.044C2865.29 1014.78 2877.23 1031.35 2886.2 1050.24C2899.16 1077.58 2908.53 1106.15 2913.98 1137.25C2903.59 1155.01 2893.76 1172.07 2880.96 1187.02C2875.27 1193.64 2870.02 1200.64 2863.12 1205.91C2853.59 1213.18 2846.84 1223.62 2837.11 1230.72C2832.58 1234.05 2834.74 1237.61 2838.42 1241.05C2853.44 1255.2 2868.36 1269.46 2882.93 1284.15C2890.19 1291.47 2896.49 1299.86 2903.95 1308.15C2904.2 1317.35 2900.32 1325.05 2897.95 1333.23C2896.99 1336.51 2895.63 1339.68 2895.08 1343.02C2894.42 1347.05 2895.33 1350.01 2900.27 1348.24C2906.37 1346.03 2912.46 1343.99 2918.61 1341.89C2950.32 1330.91 2982.68 1324.45 3015.94 1320.69C3039.93 1317.94 3063.27 1321.06 3086.66 1322.36C3124.01 1324.35 3160 1335.75 3193.82 1353.46C3207.12 1360.45 3220.53 1367.29 3232.88 1376.27C3273.4 1405.76 3303.8 1443.97 3322.5 1493.58C3322.95 1495.79 3323.1 1497.02 3322.75 1498.31C3305.31 1560.09 3281.42 1616.16 3218.26 1639.83C3188.02 1651.13 3157.27 1660.23 3125.42 1661.95C3100.92 1663.29 3076.68 1657.27 3053.04 1649.57C3032.68 1642.95 3012.62 1635.31 2991.9 1629.56C3019.62 1649.47 3051.38 1660.23 3080.61 1676.48C3084.19 1678.47 3087.87 1680.19 3091.25 1682.61C3097.85 1687.4 3099.06 1693.54 3093.92 1700.1C3061.15 1742.34 3021.79 1772.53 2968.61 1776.35C2960.15 1776.94 2951.93 1779.58 2942.5 1778.99C2930.11 1776.78 2920.98 1769.89 2911.96 1762.63C2900.77 1753.59 2889.58 1744.55 2878.54 1733.79C2871.13 1728.14 2870.93 1721.73 2873.1 1713.82C2879.95 1688.64 2884.59 1662.97 2885.25 1636.07C2870.83 1665.82 2852.33 1691.55 2828.74 1712.96C2821.34 1719.74 2813.22 1725.23 2804.45 1729.64C2774.46 1744.66 2743.21 1755.96 2710.95 1763.92C2704.95 1765.37 2697.54 1768.87 2693.26 1761.39C2689.13 1754.13 2695.13 1748.64 2698.65 1743.04C2699.96 1740.94 2701.73 1739.11 2702.94 1735.4C2671.54 1740.3 2641.5 1747.18 2611.96 1756.55C2593.76 1762.3 2576.22 1769.84 2559.09 1778.39C2555.26 1780.28 2550.72 1784.91 2547.04 1780.55C2542.96 1775.7 2547.8 1770.91 2550.22 1766.77C2570.33 1732.01 2591.4 1697.89 2611.25 1662.97C2611.86 1661.9 2612.67 1660.87 2612.92 1658.18C2604.75 1657.38 2596.49 1657.64 2588.32 1657.86C2533.33 1659.21 2479.05 1654.2 2425.62 1639.3C2391.39 1629.77 2359.39 1615.08 2328.69 1596.73C2318.51 1590.65 2308.13 1584.89 2297.75 1579.19C2257.57 1557.13 2229.9 1522.42 2207.17 1481.69C2187.87 1447.09 2168.21 1412.76 2153.79 1375.2C2157.62 1410.66 2163.62 1445.69 2166.65 1481.15C2168.01 1497.18 2173.7 1513.27 2167.3 1530.44C2151.17 1566.01 2132.62 1598.94 2107.17 1626.22C2058.73 1678.15 2000.72 1709.46 1931.56 1717.32C1895.88 1721.41 1860.95 1718.61 1825.01 1712.75C1819.57 1705.59 1823.9 1701.07 1827.58 1696.5C1832.02 1690.95 1837.56 1686.43 1841.39 1680.35C1842.7 1678.25 1844.37 1675.78 1842.35 1673.41C1840.79 1671.58 1838.57 1672.71 1836.71 1673.36C1833.63 1674.43 1830.71 1675.94 1827.63 1676.96C1823.9 1678.15 1819.57 1681.21 1816.59 1676.69C1813.87 1672.6 1816.54 1668.3 1819.06 1664.96C1828.24 1652.75 1835.09 1639.24 1839.38 1624.23C1840.13 1621.48 1841.9 1618.74 1839.18 1614.06C1825.31 1625.2 1809.14 1631.28 1793.46 1638.65C1743.91 1662.06 1700.52 1652.59 1661.3 1613.47C1635.75 1587.91 1610.19 1562.35 1584.69 1536.79C1558.23 1510.31 1546.33 1477.11 1540.89 1440.15C1537.91 1419.81 1538.72 1399.2 1535.75 1378.1C1533.53 1415.88 1525.21 1451.5 1514.38 1486.58C1511.96 1494.44 1508.23 1500.36 1500.47 1504.29C1471.03 1542.65 1437.21 1574.08 1397.64 1598.24C1352.99 1625.47 1305.05 1641.99 1253.89 1647.58C1207.02 1652.69 1160.6 1651.78 1115.94 1633.32C1097.54 1625.74 1079.09 1617.93 1062.66 1606.15C1053.49 1599.58 1046.13 1598.56 1038.67 1608.25C1036.15 1611.53 1032.47 1613.74 1027.38 1614.44C1019.52 1610.83 1022.69 1604.59 1023.7 1599.75C1028.09 1578.28 1030 1556.43 1032.47 1534.69C1033.38 1526.78 1033.78 1518.71 1031.51 1508.97C1006.71 1533.94 979.849 1553.68 955.504 1576.66C942.954 1588.5 929.496 1598.35 914.375 1605.61C869.113 1627.13 823.296 1647.26 774.808 1659.15C768.508 1660.71 760.494 1666.31 755.907 1658.67C751.875 1651.94 759.435 1646.29 762.913 1640.96C776.724 1620.19 785.897 1596.62 799.506 1572.89C775.816 1591.89 749.808 1596.19 723.901 1600.71C696.633 1605.4 669.365 1604.05 642.096 1600.82C637.207 1600.23 631.663 1599.75 629.848 1594.26C627.731 1587.91 633.578 1585.43 637.207 1582.53C656.512 1567.08 669.516 1546.8 677.782 1522.85C680.302 1515.59 682.772 1508.38 685.947 1499.55C666.895 1531.68 638.266 1539.91 606.663 1544.54C557.671 1551.75 511.249 1540.12 465.281 1525.49C422.489 1511.82 380.201 1496.27 339.374 1476.52C297.186 1456.13 258.729 1429.76 227.378 1392.85C202.378 1363.36 188.869 1328.76 189.222 1285.28C174.908 1307.72 163.164 1328.28 155.805 1351.14C145.472 1383.27 139.021 1416.63 131.057 1449.45C129.998 1453.81 130.956 1460.16 125.613 1461.29C119.615 1462.58 118.002 1455.91 115.633 1451.82C81.3088 1392.85 60.6434 1328.38 52.5788 1259.83C49.3026 1231.96 49.0506 1203.17 58.8793 1174.92C71.9841 1138.49 93.2543 1109.97 120.775 1086.02C129.343 1078.54 138.365 1071.28 145.976 1061.32C147.942 1059.39 149.303 1058.04 151.168 1056.16C151.722 1055.67 151.571 1055.62 151.571 1055.67C153.839 1052.61 157.569 1051.59 160.744 1048.46C161.299 1047.93 161.198 1047.82 161.198 1047.93C200.412 1020.16 242.952 1000.9 288.87 989.919C292.499 989.058 298.245 989.65 299.051 984.807C299.958 979.641 294.515 977.328 291.339 974.26C257.216 941.167 230.553 902.801 216.037 854.534C215.785 851.09 214.525 849.099 212.811 846.247C211.097 840.489 210.442 835.485 211.198 829.458C211.601 825.853 211.601 823.109 211.501 819.342C218.759 787.056 229.999 757.299 243.003 728.296C257.116 696.925 275.21 668.298 295.876 641.339C310.896 621.753 326.471 602.758 343.809 585.539C367.852 561.593 393.406 539.531 421.733 521.505C446.884 505.577 471.431 488.466 496.834 472.915C510.846 464.305 525.513 457.31 540.231 450.799C561.3 441.49 582.822 433.095 605.05 427.123C609.032 426.046 613.064 426.423 616.895 425.347C626.622 422.549 637.963 424.055 645.02 413.562C645.625 412.648 648.094 413.186 650.614 413.078C666.038 413.401 677.026 422.764 688.619 430.19C709.99 443.857 729.093 461.346 751.522 473.399C768.407 482.493 786.099 489.865 802.53 499.766C840.383 522.527 877.581 546.527 910.192 577.467C925.766 592.211 924.96 593.126 938.115 575.853C964.375 541.414 993.055 509.667 1027.28 484C1031.61 480.771 1039.33 477.435 1036.7 470.978C1034.39 465.274 1027.18 469.794 1022.24 470.332C1001.22 472.699 981.563 480.556 961.956 488.304C957.823 489.919 953.74 491.91 949.506 493.255C946.835 494.116 943.659 495.3 941.744 492.286C939.325 488.466 942.299 485.775 944.617 483.569C958.781 470.117 974.557 458.924 989.023 445.848C1007.82 428.898 1026.67 412.163 1040.03 389.617C1041.29 387.519 1043.41 385.851 1042.6 381.761C1023.4 386.227 1005 393.491 987.309 401.886C965.585 412.163 944.063 414.208 920.424 411.841C890.887 408.881 860.998 409.688 831.714 403.231C790.03 394.083 753.034 376.111 725.312 339.951C710.242 320.31 699.254 297.979 693.861 273.872C690.635 259.505 693.709 243.201 699.455 227.704C702.328 214.951 708.478 204.781 714.627 194.933C727.732 173.894 742.853 154.307 759.637 136.55C782.47 112.335 808.226 92.1028 836.401 75.1527C864.476 58.2565 893.458 43.5125 923.649 31.8896C951.119 21.2891 979.395 12.4105 1008.33 8.26714C1036.96 4.17759 1066.14 2.50949 1094.87 5.57665C1128.99 9.1819 1163.32 13.2177 1195.32 28.4459C1228.29 44.1045 1259.03 63.4222 1283.18 92.4795C1300.72 113.627 1316.39 136.227 1328.49 161.733C1335.6 176.692 1343.01 191.274 1347.14 208.386C1342 245.515 1332.37 280.76 1319.11 314.929C1314.83 325.96 1310.44 336.991 1307.32 350.228C1326.83 347.861 1344.21 339.466 1363.72 337.529C1364.73 344.632 1364.68 351.95 1364.78 359.268C1364.93 368.846 1365.94 369.761 1374.61 367.555C1393.66 362.605 1412.56 356.686 1431.77 352.757C1447.04 349.69 1462.31 346.085 1477.99 345.601C1485.95 345.332 1493.96 344.202 1501.83 342.749C1520.02 339.305 1538.62 338.552 1556.82 338.605C1590.03 338.713 1622.79 344.363 1654.95 354.587C1691.9 366.317 1725.16 385.797 1757.98 406.46C1767.96 412.755 1777.48 420.127 1785.14 429.652C1790.99 436.916 1798.8 441.597 1805.05 448.216C1825.97 470.439 1842.5 496.161 1857.47 523.119C1877.08 558.365 1890.59 596.408 1903.24 634.882C1904.9 639.456 1906.57 643.922 1906.62 649.841Z" fill="#FFFEEF"/>
<path d="M1025.81 1614.22C1032.82 1610.35 1038.01 1605.56 1042.5 1600.07C1046.78 1594.8 1051.12 1594.74 1056.21 1598.35C1067.95 1606.63 1080.5 1613.2 1093.2 1619.71C1109.64 1628.1 1126.67 1634.24 1143.96 1639.83C1150.82 1642.04 1158.02 1643.71 1165.13 1644.03C1181.56 1644.84 1197.84 1647.1 1214.37 1647.31C1234.59 1647.53 1254.29 1644.3 1274.15 1641.5C1312.81 1636.07 1348.75 1621.65 1383.38 1603.3C1407.92 1590.28 1429.55 1572.63 1450.87 1554.33C1468.31 1539.42 1482.12 1521.13 1497.54 1503.21C1505.91 1497.51 1508.68 1504.23 1511.75 1509.67C1525.01 1533.24 1538.87 1556.43 1555.71 1577.36C1592.6 1623.21 1637.81 1656.3 1690.84 1677.72C1727.28 1692.41 1765.08 1699.72 1803.69 1703.28C1810.44 1703.87 1817.3 1705 1823.75 1710.22C1840.48 1712.15 1856.36 1714.95 1872.29 1716.19C1893.46 1717.8 1914.78 1716.94 1935.95 1713.61C1951.42 1711.19 1966.64 1707.9 1981.82 1703.76C2015.48 1694.61 2044.87 1676.53 2072.14 1654.2C2080.1 1647.69 2088.42 1641.77 2095.73 1634.29C2120.93 1608.46 2140.23 1578.11 2156.87 1545.56C2159.18 1541.04 2161.35 1536.47 2164.22 1531.3C2172.09 1526.4 2174.05 1532.11 2175.82 1537.54C2182.62 1558.26 2190.99 1578.17 2199.61 1598.13C2211.71 1626.22 2228.54 1650.87 2247.19 1673.84C2298.4 1736.96 2363.02 1777.59 2437.61 1801.53C2477.38 1814.29 2517.75 1819.56 2559.03 1818.91C2583.13 1818.54 2607.27 1821.33 2631.26 1820.47C2656.82 1819.5 2682.42 1817.89 2707.77 1811.33C2744.37 1801.8 2779.7 1789.53 2812.97 1770.65C2829.7 1761.12 2845.27 1749.66 2860.04 1737.01C2865.34 1732.49 2870.88 1727.6 2879.4 1731.58C2892.15 1742.13 2904.3 1751.76 2915.94 1762.04C2922.85 1768.12 2930.66 1772.21 2939.48 1776.35C2966.09 1788.94 2992.45 1798.9 3020.53 1803.85C3051.48 1809.28 3081.97 1805.51 3111.25 1796.58C3173.6 1777.53 3230.76 1746.16 3282.83 1704.67C3296.38 1693.86 3307.78 1680.46 3318.76 1666.63C3322.8 1661.57 3325.52 1654.69 3333.63 1653.82C3334.59 1657.7 3334.89 1661.14 3333.63 1664.43C3326.02 1684.44 3323.1 1705.64 3320.38 1726.79C3316.5 1757.35 3307.47 1786.36 3293.61 1812.83C3282.42 1834.2 3268.76 1854.1 3250.52 1870.79C3223.85 1895.11 3193.56 1910.34 3160.85 1921.69C3139.13 1929.22 3118.16 1939.29 3095.58 1944.07C3080.31 1947.3 3065.24 1951.23 3049.41 1951.88C3039.48 1952.25 3029.5 1954.84 3019.52 1953.87C2991.65 1951.07 2963.62 1948.81 2938.32 1933.58C2928.34 1927.61 2919.27 1920.72 2911.91 1911.52C2906.62 1904.9 2901.02 1903.82 2893.76 1907.38C2881.01 1913.62 2868.16 1919.75 2855.15 1925.46C2829.1 1936.86 2801.78 1943.86 2774.61 1951.34C2748.25 1958.55 2721.23 1962.15 2694.47 1967.11C2672.79 1971.09 2650.72 1971.95 2629.25 1977.06C2628.49 1977.22 2627.63 1977.11 2626.83 1977.17C2583.88 1979.86 2540.79 1981.69 2497.9 1979.21C2470.02 1977.6 2441.95 1977.81 2414.12 1972.49C2390.13 1967.91 2366.24 1963.02 2342.35 1957.9C2317.2 1952.47 2294.32 1941.33 2271.43 1930.41C2250.67 1920.45 2231.97 1906.25 2214.38 1890.21C2198.3 1875.52 2184.84 1859 2172.94 1840.6C2167.75 1832.58 2166.49 1832.9 2157.47 1837.8C2129.19 1853.14 2100.67 1867.56 2070.07 1877.62C2047.84 1884.94 2025.67 1892.26 2002.93 1897.42C1980.71 1902.48 1958.43 1907.59 1935.75 1910.44C1906.71 1914.1 1877.63 1916.31 1848.45 1918.41C1826.22 1920.02 1803.84 1922.28 1781.61 1924.86C1764.63 1926.86 1747.19 1927.07 1729.95 1923.79C1719.36 1921.8 1708.38 1921.42 1697.69 1920.99C1682.32 1920.34 1667.5 1917.06 1652.48 1914.86C1628.49 1911.41 1605.81 1902.86 1583.07 1894.52C1547.79 1881.55 1515.94 1862.28 1487.66 1836.24C1465.03 1815.36 1446.58 1790.82 1431.41 1763.38C1427.23 1755.74 1427.13 1755.53 1419.57 1759.72C1407.42 1766.39 1395.73 1774.09 1383.33 1780.17C1344.57 1799.06 1304.55 1813.75 1262.61 1822.52C1243.31 1826.55 1223.75 1827.58 1204.39 1830.48C1177.08 1834.57 1149.76 1832.42 1122.49 1832.37C1107.01 1832.31 1091.49 1829.08 1076.07 1826.72C1062.26 1824.56 1048.45 1821.98 1034.79 1818.86C1030.2 1817.84 1028.13 1819.18 1026.17 1823.06C1015.23 1844.31 1000.81 1862.71 984.232 1879.07C960.492 1902.48 934.182 1921.42 903.637 1934.01C885.492 1941.49 866.742 1945.42 848.194 1950.85C847.79 1950.96 847.438 1951.18 847.034 1951.18C828.133 1950.42 809.383 1956.34 790.583 1953.87C754.796 1949.13 719.564 1941.76 685.744 1927.34C657.971 1915.5 631.61 1901.19 607.316 1882.68C578.737 1860.88 553.082 1835.86 533.324 1804.44C523.042 1788.08 511.247 1772.8 503.888 1754.45C497.84 1739.49 492.8 1724.1 487.709 1708.76C483.979 1697.57 483.525 1697.14 473.092 1700.85C446.428 1710.43 419.11 1715.87 391.186 1719.69C367.447 1722.97 343.656 1722.97 320.168 1721.25C280.904 1718.29 242.749 1708.98 206.609 1690.9C179.896 1677.55 154.442 1662.06 132.013 1642.04C113.968 1625.9 97.5366 1607.66 84.7846 1585.7C71.0244 1562.03 56.5083 1538.89 44.7643 1514.03C29.4921 1481.74 19.9658 1447.09 12.0021 1412.11C7.365 1391.82 4.69362 1370.84 6.55854 1348.45C15.5303 1345.28 13.9679 1353.19 14.7239 1357.82C18.5546 1381.76 25.611 1404.47 35.7925 1426.16C51.5183 1459.73 74.5023 1487.12 99.956 1512.47C125.309 1537.76 154.442 1556.91 185.994 1571.33C222.033 1587.8 260.138 1597.38 299.1 1602.06C313.868 1603.84 328.686 1604.75 343.606 1605.13C381.811 1606.1 419.211 1599.85 456.005 1590.81C473.394 1586.56 490.834 1580.32 507.517 1572.84C516.59 1568.8 521.882 1570.8 527.981 1578.92C566.338 1630.15 610.643 1674.06 666.691 1702.68C722.336 1731.1 781.258 1742.5 841.792 1730.5C897.438 1719.47 946.077 1691.11 987.559 1649.14C999.504 1636.98 1010.74 1623.91 1025.81 1614.22Z" fill="#A6DAE0"/>
<path d="M1026.02 1613.14C1020.73 1622.51 1013.22 1629.66 1005.61 1636.34C989.527 1650.49 975.616 1667.22 958.176 1679.81C935.545 1696.23 911.755 1710.22 886.1 1720.23C869.92 1726.52 853.69 1732.82 836.503 1735.62C832.118 1736.31 827.833 1737.12 823.398 1737.12C811.704 1737.18 800.061 1736.85 788.368 1737.23C762.813 1738.09 738.216 1732.82 713.871 1725.23C668.811 1711.24 628.69 1687.83 593.105 1655.28C567.45 1631.76 543.105 1606.9 523.196 1577.58C520.171 1573.11 517.55 1570.8 512.409 1574.02C502.934 1579.94 492.046 1581.67 481.714 1584.95C479.798 1585.54 477.833 1586.08 475.968 1586.88C448.246 1599.15 418.609 1601.04 389.425 1605.83C367.348 1609.43 345.221 1608.62 323.296 1607.6C304.647 1606.74 285.846 1605.23 267.399 1600.5C242.096 1593.93 216.441 1588.61 192.348 1578.01C175.765 1570.69 159.737 1561.65 144.112 1552.07C120.675 1537.7 100.211 1519.03 81.4607 1498.37C64.4244 1479.59 48.0434 1459.79 36.7026 1436.65C24.1018 1410.87 13.8699 1383.75 11.1481 1354.21C10.8961 1351.63 10.8961 1348.99 7.31745 1347.43C5.50293 1340.01 9.73683 1333.55 8.67836 1325.37C8.37594 1323.86 8.12392 1323.38 8.27513 1322.25C10.4425 1318.11 11.2489 1314.45 11.0977 1310.52C10.4425 1291.31 15.5836 1273.28 22.7409 1256.22C31.8639 1234.43 38.7187 1211.72 47.7913 1189.93C50.1603 1184.28 51.118 1177.34 58.4264 1174.49C60.2914 1182.61 57.62 1190.52 56.6119 1198.43C51.4204 1238.63 55.3518 1277.86 65.6845 1316.54C72.2874 1341.3 79.2934 1365.89 88.4668 1389.73C97.8418 1413.99 110.241 1436.59 123.094 1458.87C123.396 1459.36 124.505 1459.3 126.118 1459.73C129.999 1433.2 138.719 1407.97 143.91 1381.76C148.9 1356.74 158.124 1333.6 169.767 1311.43C173.9 1303.58 178.386 1295.99 182.771 1288.29C184.788 1284.8 186.552 1281.03 190.886 1278.39C193.205 1283.56 192.298 1288.29 192.348 1292.81C192.6 1331.13 206.259 1363.74 230.151 1391.5C265.937 1433.04 310.191 1460.97 358.78 1482.06C392.651 1496.75 427.177 1509.51 462.056 1521.13C489.929 1530.44 518.357 1537.38 547.49 1541.58C576.724 1545.83 604.899 1541.74 633.276 1536.09C654.295 1531.89 669.416 1518.6 681.664 1500.68C683.881 1497.45 684.839 1492.77 689.275 1491.21C683.428 1523.98 670.272 1563.26 630.605 1592.37C632.621 1596.95 636.553 1597.7 640.535 1597.75C657.369 1598.02 674.002 1601.47 690.988 1600.55C717.5 1599.15 743.559 1595.17 768.912 1586.72C780.202 1582.96 790.384 1577.15 798.952 1568.32C800.011 1567.19 801.069 1565.74 802.884 1566.54C800.565 1580.59 783.327 1614.01 756.311 1656.95C757.773 1660.93 760.847 1659.85 763.418 1659.1C804.194 1647.69 844.668 1635.42 883.025 1616.27C895.021 1610.29 907.42 1605.29 919.416 1599.21C932.168 1592.75 943.559 1584.09 953.791 1573.54C960.948 1566.17 969.416 1560.2 977.128 1553.36C994.366 1538.03 1012.86 1524.25 1028.29 1506.65C1029.65 1505.09 1031.11 1503.59 1033.33 1503.32C1036.91 1504.83 1035.85 1508.27 1035.85 1511.01C1036.2 1539.37 1032.22 1567.24 1027.43 1595.01C1026.67 1600.77 1024.86 1606.42 1026.02 1613.14Z" fill="#CFE9E6"/>
<path d="M3334.49 1653.18C3328.74 1655.71 3326.43 1661.41 3323.45 1665.56C3300.92 1697.3 3271.33 1719.96 3239.73 1739.87C3210.3 1758.43 3179.25 1773.61 3147.8 1787.54C3123.75 1798.14 3098.55 1805.14 3072.29 1807.24C3063.12 1807.99 3054 1809.6 3044.77 1809.28C3015.64 1808.26 2987.61 1801.59 2960.9 1789.05C2954.05 1785.82 2945.98 1784.96 2940.59 1777.26C2961.35 1773.77 2982.42 1771.88 3003.04 1765.75C3025.57 1759.02 3045.48 1747.88 3062.01 1730.18C3071.69 1719.85 3081.47 1709.63 3090.99 1699.13C3097.29 1692.19 3096.79 1689.18 3088.77 1684.6C3070.68 1674.27 3052.03 1665.23 3033.08 1656.95C3017.76 1650.22 3003.89 1640.69 2989.38 1632.41C2986.66 1630.85 2984.34 1628.32 2982.67 1623.26C2993.36 1626.49 3002.94 1629.07 3012.31 1632.35C3033.28 1639.67 3054.3 1646.61 3075.67 1652.53C3090.49 1656.62 3105.71 1657.86 3120.73 1659.1C3132.02 1660.07 3143.66 1656.57 3155.1 1654.47C3185.7 1648.82 3215.39 1639.94 3242.6 1623.58C3263.62 1610.94 3280.66 1593.83 3291.85 1570.58C3303.44 1546.53 3312.51 1521.34 3322.24 1495.41C3322.59 1494.55 3323.75 1494.55 3324.31 1494.55C3324.71 1498.91 3325.42 1503.05 3326.93 1507.14C3332.73 1522.74 3337.26 1539.05 3338.27 1555.51C3339.43 1574.08 3343.66 1592.43 3340.34 1611.69C3338.02 1624.93 3336.51 1638.65 3334.49 1653.18Z" fill="#CFE9E6"/>
<path d="M218.103 851.52C218.557 860.345 222.035 867.448 225.21 874.121C237.357 899.734 250.513 924.594 268.96 946.118C279.293 958.171 290.18 969.364 301.571 980.234C303.587 982.117 306.561 984.054 305.049 987.605C303.991 990.135 301.269 990.35 298.9 990.942C262.862 999.928 227.428 1010.69 194.716 1029.85C184.182 1035.98 174.404 1043.57 162.156 1048.14C161.097 1044.54 163.517 1043.14 165.986 1041.52C179.394 1032.97 192.7 1024.25 206.813 1017.04C216.894 1011.93 216.44 1011.77 213.869 1000.84C209.132 980.61 205.049 960.162 204.696 939.23C204.545 931.051 202.126 923.357 202.025 915.124C201.672 886.389 203.94 858.085 210.997 829.458C211.551 834.194 213.617 839.144 214.726 845.332C215.684 847.915 216.692 849.314 218.103 851.52Z" fill="#A6DAE0"/>
<path d="M160.441 1048.09C160.643 1053.04 157.82 1055.41 152.477 1055.89C151.671 1050.4 154.544 1048.03 160.441 1048.09Z" fill="#A6DAE0"/>
<path d="M150.864 1055.94C151.418 1058.31 150.46 1060.09 147.335 1060.84C146.831 1058.58 147.436 1056.48 150.864 1055.94Z" fill="#A6DAE0"/>
<path d="M8.4749 1321.82C8.87813 1322.03 8.87814 1322.46 8.87814 1323.59C8.42451 1323.81 7.97088 1323.38 7.61806 1322.89C7.56765 1322.79 7.92047 1322.3 8.4749 1321.82Z" fill="#A6DAE0"/>
<path d="M699.253 227.434C698.951 239.165 698.346 251.164 696.431 262.895C695.372 269.191 695.876 274.464 698.145 280.276C702.782 292.168 707.267 304.113 713.316 315.198C733.326 351.789 761.602 377.51 799.858 390.64C824.052 398.926 848.447 404.038 873.901 405.975C898.246 407.805 922.742 407.751 947.036 410.603C955.252 411.572 962.863 409.096 970.423 405.76C993.054 395.752 1016.04 386.711 1039.43 378.963C1042.8 377.833 1046.03 375.519 1050.41 379.662C1042.95 391.501 1035.8 403.715 1026.42 414.208C1005.3 437.885 981.159 457.74 956.714 477.22C951.572 481.309 947.943 486.852 942.55 490.726C949.153 491.963 954.244 488.466 959.435 486.206C982.974 475.982 1007.22 468.933 1032.32 465.112C1036.3 464.52 1040.79 464.144 1042.7 469.202C1044.42 473.722 1041.09 476.466 1038.42 478.941C1033.28 483.677 1027.93 488.251 1022.44 492.555C999.758 510.42 978.941 530.276 960.796 553.522C951.068 566.006 940.433 577.682 931.159 590.651C929.042 593.61 926.673 596.785 922.137 598.238C918.004 594.202 916.24 587.745 911.905 583.279C902.933 574.023 893.861 565.091 883.225 557.88C859.889 542.006 837.258 524.949 813.568 509.721C799.203 500.465 783.578 493.255 768.205 485.883C749.455 476.897 731.713 466.135 715.03 453.436C695.423 438.476 675.816 423.41 652.227 413.993C654.495 409.365 653.185 405.222 651.673 401.24C645.775 385.904 646.884 371.107 650.614 354.964C657.822 323.7 667.348 293.405 678.84 263.756C683.78 250.949 689.828 238.412 699.253 227.434Z" fill="#CFE9E6"/>
<path d="M2879.8 1731.26C2868.87 1730.02 2862.21 1738.95 2855 1745.14C2829.95 1766.56 2802.03 1782 2772.19 1794.05C2765.44 1796.8 2758.78 1799.92 2751.83 1802.02C2727.23 1809.39 2702.79 1817.14 2677.13 1820.47C2663.22 1822.3 2649.16 1822.63 2635.3 1823.92C2625.27 1824.89 2614.03 1826.77 2603.54 1822.79C2601.02 1821.82 2597.95 1822.41 2595.13 1822.41C2581.01 1822.41 2566.95 1822.3 2552.84 1822.41C2510.45 1822.84 2469.22 1815.9 2428.64 1802.45C2384.09 1787.65 2343.26 1765.43 2305.76 1736.1C2289.93 1723.72 2273.8 1711.56 2260.5 1696.07C2248 1681.59 2236.66 1666.09 2225.52 1650.38C2204 1620.03 2188.97 1586.13 2176.98 1550.56C2175.11 1544.97 2171.99 1539.8 2171.33 1533.61C2171.08 1531.14 2168.56 1530.87 2165.59 1530.71C2167.6 1521.08 2166.7 1511.66 2165.49 1501.65C2163.57 1485.56 2161.61 1469.47 2160.04 1453.33C2158.48 1437.62 2155.81 1422.07 2153.84 1406.46C2152.13 1392.85 2148.4 1379.23 2151.42 1362.18C2155.96 1372.24 2159.79 1379.56 2162.61 1387.25C2173.75 1417.33 2189.38 1444.83 2205.41 1472.05C2211.15 1481.85 2217.4 1491.37 2222.85 1501.33C2241.7 1535.87 2269.77 1559.5 2302.08 1578.11C2321.54 1589.31 2341.19 1600.07 2360.9 1610.88C2388.27 1625.9 2417.76 1634.13 2447.44 1641.66C2469.67 1647.31 2492.4 1649.3 2515.03 1652.21C2548.35 1656.51 2581.67 1653.56 2614.98 1654.63C2616.45 1654.69 2618.16 1654.09 2619.57 1656.3C2606.16 1675.67 2595.58 1697.2 2583.08 1717.48C2570.68 1737.66 2558.78 1758.22 2547.49 1779.63C2598.8 1751.97 2653.9 1740.51 2710.25 1730.34C2708.73 1738.36 2701.63 1741.32 2699.41 1747.67C2698.75 1749.55 2696.84 1750.9 2695.63 1752.62C2693.76 1755.26 2693.31 1758.32 2694.97 1761.07C2696.44 1763.49 2699.31 1763.33 2701.63 1762.84C2708.68 1761.39 2715.84 1760.1 2722.7 1757.84C2749.16 1749.12 2775.72 1740.78 2800.87 1727.97C2822.39 1717 2838.62 1699.99 2853.8 1680.68C2866.8 1664.16 2876.78 1645.86 2885.85 1627.3C2889.53 1628 2889.78 1630.26 2889.53 1632.35C2886.41 1660.77 2884.04 1689.34 2875.32 1716.67C2873.45 1722.97 2874.71 1726.95 2879.8 1731.26Z" fill="#CFE9E6"/>
<path d="M1116.54 984.054C1116.49 978.673 1114.02 975.552 1111.45 972.054C1107.97 967.319 1109.13 964.198 1114.73 963.23C1130.71 960.431 1145.37 953.597 1160.39 947.625C1186.5 937.239 1205.05 918.191 1217.85 892.201C1223.65 880.416 1229.09 868.524 1232.17 855.502C1237.81 831.288 1236.2 807.558 1230.45 783.505C1225.67 763.487 1215.94 745.407 1212.11 725.121C1211.5 721.839 1209.69 718.772 1210.59 715.274C1214.32 713.821 1214.48 717.373 1215.58 719.095C1236.91 751.865 1256.56 785.711 1274.3 820.903C1284.79 841.619 1295.88 862.121 1307.87 881.869C1326.62 912.756 1353.24 933.15 1385.8 945.096C1407.62 953.113 1429.6 958.44 1452.88 958.01C1470.83 957.741 1488.67 958.225 1506.61 955.642C1523.4 953.221 1537.41 947.033 1547.39 932.02C1549 929.598 1551.02 927.554 1552.88 925.24C1557.47 927.876 1555.66 932.235 1555.66 935.625C1555.81 963.983 1555.76 992.394 1555.76 1020.75C1555.76 1035.12 1555.81 1035.12 1568.71 1035.17C1588.37 1035.28 1607.87 1033.07 1627.33 1030.33C1636.45 1029.04 1645.73 1028.66 1654.85 1028.02C1677.23 1026.51 1699.46 1023.23 1721.84 1021.61C1739.88 1020.32 1757.92 1020.05 1775.92 1019.68C1778.19 1019.62 1780.61 1018.98 1782.92 1020.59C1780.51 1023.28 1777.23 1024.41 1774.31 1024.36C1764.17 1024.09 1754.4 1026.89 1744.42 1027.16C1727.53 1027.69 1711 1030.81 1694.37 1033.51C1671.38 1037.22 1648.75 1042.92 1626.57 1050.51C1605.56 1057.72 1584.59 1064.93 1566.29 1079.03C1552.18 1089.9 1541.49 1103.19 1535.85 1120.89C1535.24 1122.83 1534.08 1124.6 1532.62 1127.56C1525.01 1115.46 1518.11 1104.1 1508.88 1094.53C1500.82 1086.08 1492 1078.76 1482.82 1071.82C1463.17 1056.97 1442.55 1043.73 1423.4 1027.96C1398.7 1007.62 1370.12 994.654 1340.99 983.247C1337.96 982.063 1334.99 980.825 1331.46 978.888C1328.44 975.068 1325.11 973.83 1321.48 973.077C1289.38 966.512 1258.63 955.373 1229.14 940.307C1221.23 936.271 1215.23 937.616 1208.02 942.62C1182.72 960.27 1155.66 974.261 1126.62 983.57C1123.6 984.538 1120.52 985.722 1116.54 984.054Z" fill="#D0E9E6"/>
<path d="M737.056 886.066C752.177 869.062 756.058 849.906 754.042 827.683C751.723 802.446 747.036 777.909 741.794 753.317C740.332 746.484 740.382 739.327 739.777 732.17C744.465 732.009 744.868 735.614 745.675 738.197C757.318 776.348 778.487 808.473 801.068 839.79C828.79 878.156 865.534 905.061 903.185 930.621C925.917 946.064 951.371 956.288 974.405 971.247C977.732 973.4 982.066 974.099 984.99 979.588C971.129 981.202 958.175 984.807 944.667 983.031C943.205 982.816 941.794 981.579 940.534 980.556C929.042 971.247 916.492 966.566 901.824 964.844C886.955 963.068 872.137 962.315 857.369 963.176C823.397 965.113 789.475 968.557 756.612 978.727C734.536 985.561 713.215 994.924 695.523 1011.01C678.235 1026.73 667.348 1047.39 662.156 1070.85C657.368 1092.48 654.394 1114.38 658.427 1136.93C660.342 1147.69 659.636 1159.1 661.35 1170.07C661.753 1172.71 662.56 1176.1 658.679 1178.74C653.386 1172.28 650.816 1164.21 647.489 1156.73C633.83 1125.52 617.852 1096.41 594.112 1072.14C571.43 1048.95 544.213 1035.07 516.037 1022.47C476.218 1004.66 434.232 1001.86 391.894 1004.61C378.083 1005.52 363.97 1007.51 350.714 1012.79C348.446 1013.65 346.279 1015.05 342.801 1012.03C357.418 998.206 372.892 986.529 391.742 981.417C421.329 973.346 451.37 973.776 481.259 979.48C491.138 981.363 501.118 981.041 510.997 983.354C529.142 987.605 547.741 986.152 566.188 986.26C574.656 986.314 583.073 986.206 591.541 986.26C616.188 986.422 640.13 981.901 663.517 973.776C665.029 973.238 666.693 972.969 668.104 972.216C671.632 970.332 676.169 969.202 675.614 963.552C675.16 958.656 671.027 958.279 667.65 957.041C656.612 952.898 645.372 950.423 633.578 949.885C627.126 949.616 620.725 947.571 614.324 946.387C614.374 945.526 614.374 944.719 614.424 943.858C619.616 942.567 624.807 940.737 630.049 940.038C656.864 936.486 681.108 925.778 704.142 911.249C715.584 903.931 727.227 897.205 737.056 886.066Z" fill="#D0E9E6"/>
<path d="M2143.01 1200.91C2139.33 1186 2141.59 1171.58 2138.37 1157.75C2131.77 1129.56 2123.2 1102.81 2101.93 1082.53C2088.82 1070.04 2074.15 1060.63 2058.08 1053.63C2050.47 1050.29 2043.51 1045.67 2035.65 1043.89C2035.9 1041.15 2037.06 1040.77 2038.22 1040.55C2053.59 1037.92 2069.01 1035.66 2084.34 1032.54C2104.85 1028.34 2125.77 1028.82 2146.33 1025.27C2147.54 1025.06 2148.75 1024.9 2149.96 1025C2167.4 1026.99 2184.19 1021.45 2201.27 1019.41C2210.5 1018.28 2218.46 1012.3 2226.22 1006.92C2245.73 993.363 2265.03 979.48 2283.68 964.521C2286.76 962.046 2290.03 956.557 2294.97 959.57C2299.05 962.099 2297.59 967.319 2297.64 971.463C2297.74 988.251 2297.69 1004.99 2297.64 1021.77C2297.64 1024.79 2297.84 1027.96 2296.99 1030.71C2291.95 1046.96 2298.05 1059.93 2307.07 1072.25C2324.16 1095.55 2346.79 1108.84 2373.45 1115.3C2380.81 1117.07 2388.07 1119.39 2395.12 1121.38C2395.73 1125.25 2393.36 1125.36 2391.54 1125.3C2383.93 1125.04 2376.37 1124.77 2368.76 1123.96C2346.74 1121.65 2324.41 1121.32 2302.48 1123.85C2289.78 1125.3 2276.98 1124.98 2264.23 1127.56C2238.42 1132.73 2212.71 1137.79 2190.94 1154.36C2172.84 1168.08 2160.19 1186.86 2152.68 1209.36C2150.67 1215.33 2149.56 1221.73 2145.68 1228.51C2140.89 1219.36 2144.11 1210.43 2143.01 1200.91Z" fill="#D0E9E6"/>
<path d="M1824.35 1709.79C1795.57 1704.19 1765.84 1703.71 1737.06 1696.01C1723.85 1692.51 1710.85 1688.37 1697.84 1684.01C1685.95 1680.03 1674.86 1674.11 1663.37 1669.11C1646.53 1661.84 1631.56 1650.81 1616.59 1640.1C1597.59 1626.49 1580.25 1610.67 1564.32 1592.91C1546.13 1572.68 1532.07 1549.33 1517.5 1526.24C1514.17 1520.91 1511.35 1515.21 1508.48 1509.56C1506.51 1505.69 1504.7 1501.81 1498.8 1502.3C1498.55 1501.22 1499.15 1499.18 1499.71 1499.23C1509.23 1499.66 1509.74 1491.37 1511.7 1484.92C1521.28 1452.74 1529.95 1420.29 1531.86 1386.28C1532.22 1379.77 1534.18 1373.37 1535.29 1367.45C1537.26 1366.91 1538.06 1367.29 1538.11 1368.31C1538.47 1381.98 1541.09 1395.38 1541.39 1409.1C1541.99 1437.08 1546.53 1464.52 1556.71 1490.35C1561.45 1502.46 1568.15 1513.81 1576.87 1523.66C1600.87 1550.89 1627.58 1575.05 1652.58 1601.09C1663.37 1612.34 1674.61 1623.58 1687.96 1631.76C1704.6 1641.93 1722.49 1648.5 1741.49 1648.93C1757.97 1649.3 1773.8 1643.39 1789.12 1636.93C1806.31 1629.72 1823.75 1623.1 1838.57 1610.78C1840.03 1609.54 1842 1608.41 1845.57 1609.86C1842.9 1634.83 1830.3 1655.17 1815.68 1676.1C1823.85 1677.07 1828.54 1672.34 1834.03 1670.94C1836.75 1670.29 1839.17 1668.35 1841.89 1667.76C1846.43 1666.79 1848.9 1669.54 1847.89 1674.38C1847.04 1678.63 1844.97 1682.34 1842.05 1685.41C1837.76 1689.98 1833.53 1694.5 1829.29 1699.13C1826.77 1701.98 1823.55 1704.3 1824.35 1709.79Z" fill="#CFE9E6"/>
<path d="M1114.78 983.516C1146.18 975.66 1173.5 960.216 1200.76 944.665C1211.4 931.536 1222.94 932.128 1236.7 939.822C1264.98 955.642 1295.57 964.467 1326.82 970.817C1329.75 971.409 1330.81 973.346 1330.96 977.22C1307.97 974.799 1284.79 974.045 1261.65 972.377C1227.98 969.956 1195.62 977.166 1163.21 983.893C1145.67 987.498 1128.44 994.116 1112.05 1002.35C1102.38 1007.25 1093.66 1006.76 1084.99 1000.41C1081.16 997.614 1075.71 997.184 1072.99 990.942C1086.3 985.776 1100.31 986.368 1114.78 983.516Z" fill="#A7D9DF"/>
<path d="M218.658 851.467C216.491 851.682 214.777 850.66 214.777 847.162C216.945 847 218.658 847.969 218.658 851.467Z" fill="#D0E9E6"/>
<path d="M875.109 947.302C822.941 945.203 774.353 958.871 725.008 976.574C729.343 965.92 737.306 962.53 743.355 957.364C748.395 953.06 753.486 948.862 757.77 943.75C768.304 931.267 781.611 921.957 792.195 909.635C798.445 902.371 804.191 894.676 810.643 887.627C816.389 881.331 818.254 881.116 823.546 887.089C841.288 907.213 862.357 922.926 882.921 939.338C883.829 940.038 884.434 941.114 885.29 942.136C883.224 946.172 879.796 946.925 875.109 947.302Z" fill="#A6DAE0"/>
</svg>
