<svg width="5166" height="2250" viewBox="0 0 5166 2250" fill="none" xmlns="http://www.w3.org/2000/svg">
<path d="M249.888 952.283C249.35 951.96 249.028 950.993 248.974 950.509C248.867 949.112 248.544 948.36 247.416 947.339C246.879 947.017 246.771 946.909 246.771 946.909C245.912 945.566 245.804 944.007 244.729 942.127C244.192 941.643 243.977 940.676 243.923 940.192C241.559 935.947 240.377 931.863 239.732 926.759C239.034 925.039 238.927 924.018 238.819 922.245C238.228 919.988 238.067 918.43 237.046 916.334C236.455 914.722 236.347 913.701 236.24 911.928C235.595 909.724 235.434 908.112 234.467 906.017C233.822 903.652 233.768 901.825 233.661 899.139C232.586 896.022 233.07 893.55 231.941 890.648C231.297 890.004 231.136 888.983 231.136 888.499C230.491 886.511 230.33 884.899 229.309 882.857C228.718 882.319 228.61 881.245 228.61 880.761C227.912 878.773 227.804 877.215 226.783 875.119C226.139 873.561 226.031 872.54 225.87 870.766C225.225 867.703 224.151 865.554 223.506 862.384C223.291 860.557 223.291 859.589 223.237 857.977C222.162 855.129 221.088 852.926 220.98 849.595C220.873 846.908 220.873 845.081 220.873 842.394C219.906 834.065 218.777 826.596 221.088 818.321C227.75 818.589 227.321 823.963 229.309 828.799C242.634 881.084 268.317 924.394 307.971 960.021C363.367 1009.83 429.295 1035.68 501.617 1045.41C564.213 1053.84 626.541 1048.58 687.687 1031.92C693.006 1030.47 698.541 1028.16 703.806 1034.39C714.875 1050.94 721.591 1068.73 731.532 1084.79C751.681 1117.25 776.934 1144.82 808.474 1166.47C819.167 1173.78 827.011 1184.26 836.79 1192.64C862.796 1214.99 894.229 1226.39 926.037 1236.86C955.804 1246.64 985.894 1254.87 1017.49 1256.37C1022.75 1256.64 1031.94 1255.89 1032.1 1262.98C1032.21 1268.46 1023.51 1268.46 1018.19 1269.7C1001.21 1273.62 986.162 1282 971.762 1291.3C937.16 1313.65 905.512 1340.04 872.951 1365.13C869.244 1368.03 865.859 1371.36 860.539 1373.57C857.584 1374.32 855.596 1374.16 852.856 1372.71C851.996 1372.17 850.975 1372.12 850.492 1372.06C849.525 1371.69 849.095 1371.31 847.913 1371.36C844.42 1371.09 841.626 1370.45 838.026 1369.7C835.555 1369.38 834.05 1368.89 831.901 1367.71C826.689 1367.39 822.498 1366.1 817.394 1364.49C815.943 1363.63 815.298 1362.98 813.901 1362.34C811.483 1362.07 809.764 1361.96 807.131 1361.74C804.606 1361.58 803.101 1361.15 801.006 1359.92C799.34 1359.6 798.373 1359.54 796.707 1359.43C794.397 1359.11 792.839 1358.57 790.689 1357.34C782.092 1357.07 775.806 1352.34 768.015 1349.65C764.952 1346.16 760.708 1347.18 757.322 1344.33C719.335 1330.15 686.935 1308.92 659.64 1280.28C637.825 1257.39 621.491 1230.63 612.571 1200.16C608.488 1186.35 607.574 1171.58 605.318 1157.23C604.942 1154.7 605.264 1152.07 604.941 1149.54C603.222 1134.5 603.061 1134.39 587.586 1134.34C563.461 1134.23 539.658 1130.74 517.091 1122.52C485.336 1110.91 453.635 1099.52 420.967 1090.7C380.508 1079.74 345.636 1057.82 313.827 1031.49C298.514 1018.81 282.878 1005.53 272.508 986.781C272.24 985.007 271.864 984.255 270.628 983.342C270.09 983.019 270.037 982.912 269.983 982.912C269.607 982.052 269.07 981.407 267.726 980.709C264.932 978.989 263.159 977.162 262.138 973.83C261.816 972.165 261.386 971.359 260.258 970.284C259.72 969.908 259.398 968.941 259.344 968.403C259.183 967.006 258.861 966.2 257.679 965.125C257.141 964.749 256.765 963.782 256.711 963.298C256.604 961.901 256.335 961.149 255.153 960.128C254.616 959.806 254.508 959.698 254.508 959.698C253.703 958.409 253.541 956.958 252.52 955.184C251.929 954.754 251.822 954.647 251.822 954.593C251.5 953.841 251.016 953.196 249.888 952.283Z" fill="#A7D9DF"/>
<path d="M407.801 241.312C407.157 236.208 409.682 232.715 411.992 229.061C429.562 201.011 450.088 175.379 473.461 151.951C481.843 143.568 489.15 134.003 497.64 125.728C521.926 102.192 546.427 79.0857 576.678 62.7503C609.024 45.2863 643.626 35.0228 679.089 26.7476C694.08 23.2548 708.695 18.6874 724.384 18.4725C730.187 18.4188 735.882 15.302 741.739 14.0124C758.503 10.2509 775.697 10.9496 792.676 8.74644C825.291 4.50136 858.335 5.19993 891.111 1.70715C912.174 -0.549732 933.881 -0.925976 955.212 2.78175C959.833 3.58778 964.615 3.48039 969.343 3.37292C999.164 2.62063 1026.46 12.078 1053.7 22.825C1086.75 35.8827 1115.65 55.9259 1143.27 77.5274C1160.73 91.1762 1176.05 107.727 1189.26 125.835C1194.64 133.197 1195.12 133.358 1202.43 128.63C1233.54 108.479 1266.85 92.8957 1302.69 83.5995C1318.65 79.4619 1335.14 76.399 1351.85 75.6467C1357.01 75.4317 1362.12 75.8078 1367.11 73.9271C1369.05 73.2285 1371.36 73.0137 1373.45 73.2287C1403.54 76.1841 1434.17 75.5391 1463.45 84.8353C1476.08 88.8655 1489.08 91.1224 1501.44 96.3347C1533.95 109.93 1564.68 126.211 1591.98 148.834C1623.19 174.734 1646.19 206.761 1664.78 242.28C1675.58 262.914 1681.6 285.429 1686.44 307.998C1688.8 319.067 1689.02 330.781 1690.84 341.851C1694.98 343.57 1698.1 341.367 1701.16 340.4C1726.52 332.34 1752.42 328.041 1778.85 324.924C1797.23 322.775 1815.61 323.043 1833.87 322.13C1847.58 321.431 1862.24 321.915 1875.78 326.321C1883.36 328.793 1891.15 327.074 1898.62 329.492C1917.69 335.671 1937.09 341.314 1955.14 350.126C1994.74 369.525 2033.48 390.374 2071.26 413.319C2087.64 423.26 2102.31 435.834 2119.78 444.002C2125.74 446.796 2128.96 453.029 2134.55 456.307C2161.69 472.374 2183.39 494.996 2206.44 516.007C2238.52 545.239 2265.17 579.146 2289.62 614.772C2308.59 642.499 2323.74 672.161 2333.89 704.295C2336.47 712.409 2339.8 720.308 2343.14 729.228C2351.84 727.831 2360.54 726.649 2369.19 725.037C2393.43 720.523 2417.93 722.726 2442.32 722.457C2464.19 722.242 2485.74 725.144 2506.85 731.431C2513.35 733.366 2520.29 733.903 2526.95 735.354C2564.83 743.629 2600.78 757.708 2634.84 775.763C2661.22 789.734 2686.31 806.392 2706.95 828.692C2736.02 860.127 2758.37 895.216 2771.42 936.592C2780.4 964.964 2786.04 993.766 2789.42 1022.94C2791.41 1040.14 2790.55 1057.87 2788.51 1075.5C2786.58 1092.53 2784.37 1109.35 2780.56 1126.01C2776.48 1143.96 2770.62 1161.31 2764.39 1178.62C2763.69 1180.6 2762.24 1182.38 2763.79 1185.76C2800.28 1189.2 2833.43 1202.63 2862.5 1228.43C2867.23 1216.98 2867.71 1205.97 2870.24 1195.49C2881.3 1149.76 2890.38 1103.33 2913.54 1061.58C2924.29 1042.18 2935.79 1023.48 2952.01 1007.52C2967.65 992.154 2983.82 977.431 3001.34 964.534C3022.67 948.79 3045.99 935.84 3070.44 925.415C3094.4 915.152 3118.42 904.834 3144.21 899.622C3155.92 897.258 3167.74 894.464 3179.73 895.216C3189.61 895.807 3193.91 891.186 3197.89 882.857C3204.12 869.638 3208.69 855.882 3212.98 842.018C3222.93 809.938 3240.71 783.017 3263.01 757.815C3283.48 734.709 3307.71 717.084 3331.89 698.706C3380.73 661.683 3435.11 635.084 3490.72 610.097C3532.36 591.397 3575.67 578.769 3619.67 567.807C3643.69 561.789 3667.44 554.481 3691.57 549.054C3717.36 543.25 3743.31 538.038 3769.53 534.223C3786.83 531.697 3804.24 529.87 3821.54 527.506C3835.83 525.571 3850.5 524.819 3865.01 524.336C3885.16 523.637 3905.42 523.315 3925.51 524.389C3941.25 525.195 3957.05 526.001 3972.69 528.581C3984.08 530.461 3995.68 530.031 4007.18 531.214C4032.7 533.9 4057.8 538.898 4083.05 543.25C4095.25 545.346 4107.44 547.334 4119.53 550.129C4127.43 551.956 4134.9 555.448 4142.74 557.436C4174.12 565.497 4203.57 577.265 4229.31 597.845C4244.35 609.882 4257.3 624.176 4265.09 640.887C4286.64 687.422 4309.26 733.688 4324.84 782.748C4329.57 797.74 4335.48 812.625 4336.01 829.766C4328.33 832.99 4328.92 826.274 4326.45 821.491C4311.89 761.684 4285.56 707.519 4260.2 653.139C4240.48 610.795 4204.43 586.883 4161.12 572.751C4110.72 556.308 4058.76 546.851 4006.27 541.101C3974.35 537.608 3942.17 532.503 3910.25 533.524C3871.4 534.76 3832.5 535.512 3793.6 540.779C3711.18 552.009 3631.39 573.772 3551.87 596.824C3517.16 606.873 3484.7 622.94 3452.03 638.039C3407.54 658.62 3365.96 684.09 3326.73 713.86C3292.56 739.814 3262.09 768.831 3239.1 805.263C3229.59 820.309 3224.81 837.343 3219.65 854.162C3218.52 857.87 3217.55 861.578 3216.48 865.285C3208.9 891.132 3194.77 906.07 3164.84 906.823C3129.22 907.736 3096.5 923.319 3064.85 938.58C3028.42 956.098 2995.75 979.204 2966.41 1007.84C2930.68 1042.77 2909.78 1084.95 2896.56 1131.87C2887.97 1162.44 2879.32 1192.96 2874.86 1224.56C2872.55 1240.73 2865.61 1243.58 2853.63 1233.1C2829.13 1211.66 2800.71 1200.22 2768.74 1196.35C2763.74 1195.76 2758.42 1195.17 2753.69 1190.81C2751.81 1183.51 2755.36 1178.02 2756.92 1171.15C2788.13 1087.91 2787.92 1005.48 2756.92 923.481C2739.99 878.719 2711.19 842.072 2673.53 812.732C2625.81 775.548 2570.79 755.021 2512.17 742.393C2479.77 735.408 2447.21 730.786 2414.01 730.947C2395.52 731.055 2377.25 733.849 2359.04 736.751C2339.21 739.867 2335.83 738.847 2329.7 719.394C2318.1 682.586 2301.71 648.195 2279.41 616.921C2248.46 573.557 2214.77 532.772 2173.08 498.543C2146.16 476.458 2119.4 454.211 2089.85 436.102C2033.22 401.389 1977.44 364.581 1913.13 344.699C1876.32 333.307 1838.66 330.19 1800.02 333.038C1764.67 335.617 1730.12 340.561 1696.59 352.114C1687.62 355.231 1681.76 352.114 1681.33 342.711C1680.47 323.688 1673.38 306.063 1670.42 287.471C1665.96 259.421 1651.62 235.133 1635.93 211.919C1590.26 144.428 1524.54 107.834 1446.69 91.0686C1380.65 76.8825 1316.07 82.4711 1254.22 110.951C1236.71 119.011 1219.68 128.253 1203.99 139.645C1196.57 145.019 1190.61 145.771 1184.7 136.905C1157.35 95.7436 1118.66 67.6401 1076.16 44.2115C1035.11 21.589 991.427 11.1644 944.09 11.4868C879.666 11.863 815.404 14.7109 751.626 23.0399C699.721 29.8105 648.409 40.7188 599.943 61.8367C574.475 72.9599 551.585 88.1132 531.651 107.189C492.267 144.911 453.312 183.063 423.652 229.383C420.697 234.004 418.601 239.485 411.992 242.065C410.004 242.172 409.306 242.065 407.801 241.312Z" fill="#DADAD4"/>
<path d="M4482.7 1603.88C4476.9 1615.37 4465.67 1620.37 4456 1627.2C4424.89 1649.01 4389.91 1663.52 4355.36 1678.35C4321.13 1693.08 4285.62 1704.79 4249.08 1712.58C4239.57 1714.62 4234.19 1719.73 4230.06 1727.57C4221.08 1744.66 4210.55 1760.89 4199 1776.26C4187.18 1791.95 4175.74 1808.39 4161.71 1821.93C4136.46 1846.22 4110.24 1869.49 4081.28 1889.69C4040.55 1918.12 3996.11 1938.81 3950.6 1957.99C3917.67 1971.91 3883.6 1981.63 3849.37 1991.04C3827.18 1997.11 3804.29 2000.6 3781.3 2003.18C3759.64 2005.6 3737.99 2009.31 3716.18 2007.91C3685.55 2005.92 3654.98 2003.99 3624.67 1997.06C3587.06 1988.4 3552.56 1973.47 3518.5 1954.28C3513.29 1965.03 3507.86 1975.08 3503.4 1985.56C3493.89 2007.86 3479.49 2026.83 3464.77 2045.79C3448.33 2067.02 3427.05 2082.82 3406.52 2099.58C3398.25 2106.35 3390.89 2114.52 3381.91 2120.11C3357.25 2135.59 3332.21 2150.31 3305.29 2161.86C3270.69 2176.75 3234.15 2183.84 3197.51 2189.8C3181.93 2192.33 3165.43 2195.18 3149.21 2191.47C3147.16 2190.99 3144.91 2191.2 3142.81 2191.25C3116.22 2191.95 3089.89 2188.03 3063.45 2186.47C3041.96 2185.24 3021 2180.99 3000.05 2177.39C2983.72 2174.6 2968.08 2167.88 2952.12 2162.99C2918.27 2152.67 2886.35 2137.52 2857.18 2118.12C2824.67 2096.52 2795.01 2071.05 2774 2037.14C2769.65 2030.16 2768.15 2029.89 2760.41 2033.17C2748.91 2038.06 2739.4 2046.55 2728.17 2051.81C2700.61 2064.65 2673.31 2077.93 2644.57 2088.24C2617.54 2097.97 2590.46 2107.16 2562.68 2114.36C2533.72 2121.94 2504.54 2129.08 2475.04 2133.22C2457.42 2135.69 2439.8 2139.24 2421.69 2140.15C2393.1 2141.55 2364.47 2145.31 2335.88 2144.08C2288.97 2141.98 2242.01 2139.51 2195.64 2130.27C2180.17 2127.2 2164.64 2123.87 2149.27 2120.54C2141.54 2118.87 2137.02 2120.54 2132.67 2125.97C2113.7 2149.77 2089.42 2167.29 2063.9 2183.03C2024.89 2207.11 1982.39 2223.01 1938.27 2234.57C1911.41 2241.6 1884.22 2246.44 1856.28 2248.48C1828.77 2250.52 1801.42 2249.93 1774.02 2249.88C1761.18 2249.83 1748.33 2246.98 1736.14 2243.86C1714.16 2238.22 1691.65 2235.48 1669.67 2229.68C1630.82 2219.47 1593.7 2205.06 1560.65 2182.33C1534.22 2164.12 1510.31 2143 1492.9 2114.79C1483.12 2098.94 1473.34 2083.57 1469.04 2065.46C1467.16 2057.62 1461.95 2059.01 1457.11 2060.36C1444.27 2063.96 1431.16 2065.57 1418.05 2067.66C1400.69 2070.4 1383.29 2071.69 1365.77 2072.5C1347.39 2073.36 1328.91 2073.2 1310.53 2073.63C1297.69 2073.9 1283.99 2074.43 1271.04 2070.73C1268.62 2070.03 1265.94 2069.87 1263.41 2070.03C1242.24 2071.21 1221.82 2065.41 1201.08 2063.26C1175.4 2060.57 1150.69 2053.85 1125.54 2049.02C1100.34 2044.13 1075.95 2035.85 1051.39 2028.38C1003.19 2013.66 957.899 1992.27 915.397 1965.41C897.666 1954.23 881.923 1940.04 867.093 1925.27C858.98 1917.21 851.78 1914.04 840.013 1917.64C808.097 1927.42 775.16 1933.27 742.223 1938.11C703.16 1943.86 663.668 1945.42 624.283 1943.32C584.093 1941.22 544.063 1936.82 505.807 1923.44C469.592 1910.76 436.494 1892.49 406.834 1867.61C373.306 1839.45 351.169 1804.2 336.554 1763.58C327.742 1739.13 322.907 1713.76 325.754 1688.02C328.334 1664.7 332.471 1641.38 339.402 1618.81C348.859 1588.02 360.733 1558.47 379.539 1531.71C390.178 1516.56 403.02 1503.44 413.927 1488.61C421.557 1478.24 433.055 1471.63 444.768 1464.49C446.058 1464.76 446.434 1465.24 447.079 1466.69C447.186 1468.3 447.133 1468.95 446.649 1470.45C426.285 1488.34 408.554 1507.53 392.811 1528.43C369.545 1559.38 354.393 1594.15 344.829 1632.57C336.554 1666.32 332.471 1699.36 338.005 1733.06C344.238 1770.88 360.465 1804.36 385.235 1833.16C436.279 1892.54 502.905 1921.45 579.579 1930.59C668.235 1941.17 755.118 1932.57 840.658 1908.29C852.532 1904.9 860.753 1907.1 869.458 1915.59C923.941 1968.68 990.083 2000.98 1062.19 2022.58C1099.64 2033.81 1137.31 2043.91 1175.83 2050.79C1239.45 2062.18 1303.6 2066.75 1368.08 2063.85C1398.01 2062.51 1427.99 2059.33 1457.17 2051.54C1466.52 2049.02 1474.04 2049.5 1477.37 2060.79C1494.89 2119.57 1534.91 2158.8 1587.09 2187.82C1645.82 2220.43 1710.08 2232.95 1775.63 2239.56C1878.58 2249.99 1974.17 2225.27 2062.93 2173.41C2085.87 2159.98 2106.83 2143.27 2123.97 2122.64C2132.4 2112.48 2141.86 2110.06 2154.75 2113.18C2207.46 2125.81 2261.03 2131.72 2315.25 2134.35C2367.37 2136.87 2419 2133.7 2470.16 2125.38C2544.95 2113.18 2617.75 2093.62 2686.96 2061.7C2710.39 2050.9 2733.22 2039.13 2755.52 2026.18C2767.88 2019.03 2772.55 2020 2780.34 2031.45C2820.21 2089.86 2876.84 2125.11 2941.38 2150.36C2991.24 2169.87 3043.14 2176.85 3096.07 2180.62C3118.79 2182.23 3141.47 2183.41 3164.2 2182.66C3246.3 2179.97 3320.93 2155.04 3386.48 2104.96C3409.32 2087.49 3431.67 2069.44 3451.23 2048.21C3475.46 2021.94 3492.12 1991.14 3506.52 1958.85C3513.82 1942.46 3515.33 1942.03 3531.18 1950.95C3582.55 1979.91 3637.46 1994.8 3696.67 1997.75C3784.84 2002.11 3867.7 1981.8 3948.56 1949.66C4004.28 1927.52 4056.78 1899.58 4103.9 1862.02C4150.37 1824.94 4189.6 1781.58 4218.83 1729.72C4227.26 1714.78 4237.53 1706.35 4254.83 1702.53C4300.66 1692.38 4343.7 1673.95 4386.63 1655.09C4419.08 1640.85 4448.47 1621.72 4479.1 1602.59C4480.66 1602.69 4481.3 1602.91 4482.7 1603.88Z" fill="#B7CACC"/>
<path d="M6.64803 1851.81C7.02414 1849.93 7.07791 1848.91 7.18537 1847.13C8.47491 1839.5 10.8391 1832.95 14.1167 1825.75C14.4928 1824.89 14.6003 1823.92 14.7614 1823.49C17.7166 1818.44 18.1465 1812.8 21.9077 1807.69C22.2838 1806.89 22.3912 1805.92 22.4987 1805.44C23.842 1803.99 25.2927 1803.66 27.818 1804.47C34.5344 1815.97 29.8598 1828.11 33.0299 1840.42C36.5224 1891.95 65.4834 1925.53 107.393 1948.48C139.525 1966.1 174.181 1964.38 208.515 1953.15C260.688 1936.07 294.108 1900.01 313.452 1849.61C316.138 1842.67 315.869 1834.02 324.842 1829.89C332.848 1837.78 333.063 1847.89 334.944 1857.29C342.52 1894.8 335.051 1929.3 312.592 1961.59C311.947 1962.45 311.786 1962.45 311.786 1962.5C309.422 1964.06 309.261 1967.02 307.111 1969.54C306.628 1970.19 306.574 1970.08 306.574 1970.13C306.09 1970.56 305.607 1970.89 304.64 1971.96C304.156 1972.71 304.049 1972.77 303.995 1972.77C303.511 1973.14 303.028 1973.47 302.061 1974.49C301.577 1975.24 301.523 1975.35 301.469 1975.4C300.932 1975.72 300.449 1976.05 299.481 1977.07C299.052 1977.76 298.944 1977.98 298.891 1977.98C298.353 1978.3 297.87 1978.62 296.956 1979.65C296.526 1980.34 296.473 1980.56 296.419 1980.61C292.819 1984.86 290.294 1990.12 284.061 1992.76C283.523 1993.4 283.416 1993.46 283.362 1993.46C282.825 1993.78 282.341 1994.1 281.374 1995.18C280.891 1995.87 280.891 1996.03 280.837 1996.09C278.741 1997.75 276.377 1998.72 273.637 2000.55C273.153 2001.14 272.992 2001.19 273.046 2001.25C242.097 2024.14 207.011 2038.11 169.13 2041.55C131.196 2045.04 96.9697 2031.02 64.7312 2009.63C63.9252 2008.99 63.9252 2008.88 63.8715 2008.82C63.5491 2008.29 63.173 2007.8 62.1521 2006.89C61.4536 2006.41 61.2924 2006.35 61.2386 2006.3C60.9163 2005.76 60.5939 2005.28 59.573 2004.31C58.8745 2003.83 58.7133 2003.77 58.6596 2003.72C58.3372 2003.18 58.0148 2002.7 56.9939 2001.73C56.2954 2001.25 56.1343 2001.25 56.0805 2001.19C50.6537 1997 44.7433 1993.46 41.3582 1986.26C40.7135 1985.66 40.8209 1985.56 40.7672 1985.56C39.9075 1984.32 39.7463 1982.87 38.7254 1981.15C38.1343 1980.77 37.9195 1980.67 37.9195 1980.51C37.6508 1979.91 37.3822 1979.43 36.3613 1978.52C35.6628 1978.09 35.5016 1977.98 35.5016 1977.93C35.1255 1977.07 34.6418 1976.42 33.5135 1975.51C33.0299 1975.13 32.7613 1974.22 32.7075 1973.68C32.5464 1972.28 32.224 1971.53 31.0419 1970.56C30.5046 1970.24 30.4509 1970.13 30.3972 1970.19C28.6778 1968.2 27.7106 1965.78 25.8837 1962.99C25.2927 1962.45 25.4539 1962.34 25.3464 1962.4C24.433 1961.16 24.2718 1959.71 23.2509 1957.88C22.6599 1957.45 22.6598 1957.35 22.6061 1957.29C22.23 1956.49 21.7464 1955.84 20.6181 1954.87C20.1345 1954.5 19.8659 1953.53 19.8122 1953.05C19.5972 1951.65 19.2211 1950.84 18.0927 1949.77C17.5554 1949.39 17.233 1948.43 17.1793 1947.94C17.0719 1946.54 16.6958 1945.74 15.5137 1944.66C14.9226 1944.29 14.654 1943.32 14.6003 1942.78C14.4928 1941.33 14.1704 1940.53 12.9883 1939.45C12.451 1939.08 12.1286 1938.16 12.0749 1937.68C3.2093 1915.06 0.630239 1892.22 4.12275 1867.55C4.49886 1865.46 4.49879 1864.44 4.55252 1862.66C4.82118 1858.74 6.16445 1855.84 6.64803 1851.81Z" fill="#A7D9DF"/>
<path d="M4337.04 930.627C4338.38 936.592 4338.27 941.965 4336.87 947.554C4334.56 956.689 4336.66 959.376 4346.22 959.483C4377.01 959.913 4406.13 968.403 4435.26 977.001C4444.34 979.688 4453.15 983.019 4461.32 987.855C4466.21 990.757 4469.48 989.682 4473.73 985.975C4504.19 959.537 4538.37 939.87 4577.86 930.251C4588.28 927.726 4598.71 925.576 4609.56 926.221C4623.31 927.027 4636.64 922.943 4650.5 923.427C4663.83 923.911 4676.94 924.77 4689.78 928.478C4712.83 935.141 4735.4 942.718 4755.49 956.689C4772.69 968.672 4790.85 979.58 4804.98 995.11C4820.78 1012.47 4835.77 1030.68 4846.03 1052.23C4851.56 1063.84 4857.96 1075.01 4864.3 1086.19C4868.65 1093.87 4870.8 1094.79 4878.64 1090.27C4900.94 1077.54 4925.5 1072.17 4950.05 1066.36C4954.78 1065.23 4959.45 1065.13 4964.13 1065.61C4993.95 1068.83 5023.39 1073.4 5051.12 1085.87C5064.5 1091.89 5076.86 1099.41 5089.16 1107.2C5121.13 1127.41 5141.55 1157.17 5155.84 1191.19C5164.12 1210.91 5169.06 1231.92 5163.52 1253.84C5162.29 1258.73 5162.77 1264.11 5162.88 1269.27C5163.95 1306.67 5153.69 1341.11 5134.99 1373.14C5126.99 1386.84 5115.87 1398.28 5105.28 1410.05C5103.45 1412.04 5101.14 1413.06 5096.95 1412.95C5097.01 1402.8 5105.07 1397.42 5110.81 1390.98C5141.93 1355.94 5154.39 1314.62 5154.5 1268.68C5154.5 1264.86 5154.5 1260.99 5154.77 1256.16C5154.93 1254.54 5155.04 1253.9 5155.36 1252.29C5156.22 1248.85 5157.13 1246.43 5157.02 1242.88C5156.59 1209.35 5144.99 1181.09 5123.76 1155.46C5090.4 1110.43 5045.05 1088.29 4991.8 1079.15C4956.5 1073.13 4923.67 1079.37 4891.92 1094.95C4866.39 1107.47 4866.12 1107.25 4851.72 1082.48C4840.76 1063.57 4831.31 1043.85 4817.98 1026.22C4783.11 980.332 4737.81 950.402 4682.15 936.592C4662.43 931.702 4641.91 934.496 4621.81 934.872C4573.77 935.786 4530.2 951.477 4494.15 982.75C4476.25 998.28 4462.98 1000.81 4441.27 990.381C4409.9 975.281 4374.92 970.338 4339.99 968.027C4333.6 967.597 4326.4 968.081 4326.13 957.602C4327.58 950.993 4329.3 945.458 4330.05 939.709C4330.53 935.84 4330.7 931.326 4337.04 930.627Z" fill="#DADAD4"/>
<path d="M4338.11 930.036C4333.92 932.024 4333.22 935.141 4333.44 938.688C4333.81 945.028 4332.1 950.885 4328.5 957.119C4312.54 964.373 4296.53 959.537 4279.87 960.934C4272.35 960.611 4265.9 960.289 4258.54 961.417C4252.84 962.438 4247.68 963.513 4244.89 958.462C4242.36 953.948 4245.48 950.456 4248.6 947.231C4281.53 913.808 4304.75 874.152 4322.42 831.056C4323.71 827.886 4324.63 824.554 4327.64 821.276C4332.2 822.942 4329.19 828.853 4334.67 830.841C4335.53 832.184 4335.53 833.259 4335.59 835.14C4338.6 863.512 4338.92 891.132 4338.27 919.934C4338.27 923.695 4338.22 926.382 4338.11 930.036Z" fill="#A7D9DF"/>
<path d="M312.698 1962.24C311.624 1960.19 312.376 1958.31 313.612 1956.43C339.134 1916.94 341.229 1875.13 325.003 1831.01C312.322 1816.61 307.594 1798.67 297.6 1783.73C287.069 1768.04 276.537 1752.51 261.708 1739.07C206.365 1680.13 120.825 1683.89 69.9958 1746.38C55.1123 1764.71 41.2497 1783.51 28.9991 1804.52C26.9036 1804.9 25.6678 1804.9 23.5723 1804.9C25.614 1787.33 36.199 1773.57 46.6228 1760.19C55.0048 1749.44 64.2465 1739.29 73.7569 1729.35C85.524 1717.15 99.0105 1707.58 113.572 1699.31C121.47 1694.8 130.121 1692.49 138.933 1690.39C179.07 1680.99 215.284 1690.12 247.791 1714.41C276 1735.47 297.277 1762.61 313.558 1793.72C324.465 1814.63 334.406 1835.8 338.059 1859.6C342.25 1887.01 340.8 1913.44 328.28 1938.43C323.982 1946.65 322.262 1956.59 312.698 1962.24Z" fill="#DADAD4"/>
<path d="M446.49 1468.09C445.576 1467.07 445.523 1466.53 445.361 1465.18C445.63 1462.12 447.027 1460.73 448.8 1459.33C466.263 1446.16 484.854 1435.15 504.465 1425.31C526.602 1414.19 549.761 1407.37 573.51 1402.37C591.402 1398.61 609.885 1395.49 627.993 1395.97C648.733 1396.51 669.634 1399.31 690.16 1403.5C709.879 1407.53 729.007 1413.71 748.243 1419.35C757.699 1422.14 766.457 1426.71 774.839 1432.03C785.962 1439.12 789.347 1437.99 798.266 1427.95C814.117 1410.11 828.893 1391.14 849.579 1378.19C850.815 1377.44 851.298 1375.39 851.997 1373.08C854.039 1372.17 856.188 1372.12 859.358 1372.06C863.442 1379.58 857.639 1383.45 853.34 1387C834.481 1402.69 817.233 1419.89 802.296 1439.34C794.612 1449.28 785.424 1448.2 775.968 1443.05C749.747 1428.7 721.538 1420.26 692.47 1414.08C610.745 1396.83 535.199 1410.59 466.37 1458.84C460.675 1462.98 455.409 1468.57 446.49 1468.09Z" fill="#DADAD4"/>
<path d="M406.298 241.259C407.426 240.667 407.91 240.667 409.038 240.667C412.799 244.697 412.477 248.943 410.059 254.263C401.892 264.257 397.916 275.165 394.692 286.235C375.618 352.06 383.892 415.79 410.113 479.091C418.495 498.435 418.387 498.274 403.128 510.794C374.382 534.384 346.495 558.78 322.746 587.636C318.717 592.472 314.687 597.684 307.111 599.404C305.821 598.705 305.499 598.168 305.552 596.717C316.997 582.423 325.379 566.786 339.779 556.2C342.519 554.212 344.83 551.579 347.248 549.161C363.904 531.912 381.582 515.792 401.086 501.767C406.567 497.844 406.781 494.889 404.256 489.139C393.295 464.421 385.88 438.574 379.916 412.244C376.155 395.532 374.382 378.391 374.328 361.518C374.274 344.161 376.101 326.644 379.486 309.395C384.161 285.321 392.435 262.645 406.298 241.259Z" fill="#B7CACC"/>
<path d="M4796.81 1396.4C4792.35 1397.53 4788.22 1397.43 4783.97 1398.98C4767.37 1405 4749.85 1405.86 4732.61 1408.39C4709.93 1411.66 4687.36 1410.05 4664.74 1410.59C4656.25 1410.81 4647.82 1409.89 4639.28 1408.76C4620.79 1406.29 4619.99 1408.23 4613.97 1421.39C4595.16 1462.71 4571.68 1501.46 4546.7 1539.23C4540.03 1549.33 4533.91 1560.46 4522.09 1567.44C4519.13 1561.59 4522.68 1557.99 4525.42 1554.28C4557.39 1510.54 4584.47 1463.84 4608.22 1415.21C4615.79 1399.68 4619.45 1398.45 4636.53 1400C4685 1404.36 4733.2 1403.66 4780.75 1391.51C4786.61 1390.01 4792.57 1388.24 4796.81 1396.4Z" fill="#DADAD4"/>
<path d="M305.068 596.072C305.981 596.341 306.089 596.824 306.25 598.114C308.507 601.284 308.345 603.917 306.519 607.571C264.608 662.704 236.4 722.457 229.361 791.184C228.501 799.621 228.179 808.326 224.579 817.192C218.561 824.447 222.483 832.131 221.086 840.299C218.292 832.131 215.875 822.996 218.024 812.947C220.066 803.382 219.958 793.334 220.388 783.715C221.355 763.672 227.857 745.241 232.531 726.272C235.218 715.418 240 705.531 244.406 695.375C256.119 668.722 268.907 642.768 286.638 619.447C292.549 611.709 295.02 601.499 305.068 596.072Z" fill="#DADAD4"/>
<path d="M5096.52 1413.71C5095.18 1418.6 5091.63 1421.87 5087.82 1424.51C5068.53 1437.99 5048.65 1450.14 5025.71 1456.91C5001.1 1464.16 4976.38 1470.4 4950.54 1469.65C4930.44 1469.05 4910.83 1465.08 4891.43 1460.24C4877.84 1456.86 4864.35 1453.04 4851.67 1446.65C4845.92 1443.74 4840.39 1440.74 4835.39 1435.47C4835.44 1434.13 4835.87 1433.59 4837.32 1432.68C4855.65 1438.21 4871.98 1446.43 4889.71 1451.48C4959.89 1471.42 5024.09 1460.03 5082.93 1417.2C5086.37 1414.73 5089.38 1411.45 5095.07 1412.63C5095.99 1413.22 5096.36 1413.55 5096.52 1413.71Z" fill="#DADAD4"/>
<path d="M64.0312 2009.79C72.2521 2010.97 79.0759 2016.4 86.5982 2020.16C98.0966 2025.97 109.81 2031.29 122.276 2034.4C146.992 2040.58 171.815 2042.19 196.693 2034.51C222.86 2026.4 248.275 2016.56 272.131 2001.19C272.615 2005.06 269.874 2006.84 266.919 2008.82C253.003 2018.28 237.69 2024.89 222.108 2030.8C205.397 2037.2 188.311 2042.84 170.257 2044.18C151.29 2045.63 132.807 2042.41 114.807 2036.77C98.8489 2031.77 84.1804 2023.66 69.3506 2016.08C66.9865 2014.9 65.1059 2013.23 64.0312 2009.79Z" fill="#DADAD4"/>
<path d="M4339.02 920.256C4334.78 917.462 4336.12 912.948 4336.07 908.811C4335.91 894.302 4336.17 879.74 4335.91 865.231C4335.74 855.989 4331.34 846.908 4334.94 836.644C4341.17 843.254 4339.24 852.496 4340.04 860.503C4341.92 880.062 4342.25 899.837 4339.02 920.256Z" fill="#DADAD4"/>
<path d="M3.79961 1867.18C4.55185 1870.62 5.0355 1874.81 4.71311 1879C3.31611 1898.18 6.59362 1916.72 12.0204 1936.07C4.06826 1929.94 5.03542 1919.52 2.61753 1910.49C-1.19737 1896.46 -0.874975 1882.12 3.79961 1867.18Z" fill="#DADAD4"/>
<path d="M4835.28 1434.45C4821.42 1427.89 4809.28 1419.35 4802.45 1403.82C4816.21 1409.84 4828.08 1419.03 4836.09 1433C4835.77 1433.86 4835.44 1434.23 4835.28 1434.45Z" fill="#DADAD4"/>
<path d="M4513.71 1575.56C4512.36 1585.28 4506.56 1590.82 4496.51 1593.45C4496.67 1584.53 4503.6 1580.45 4510.37 1575.23C4511.82 1574.91 4512.47 1574.91 4513.71 1575.56Z" fill="#DADAD4"/>
<path d="M40.7656 1986.52C46.8372 1988.94 51.0283 1994.37 55.7566 2000.28C47.3208 2000.55 42.9686 1995.23 40.7656 1986.52Z" fill="#DADAD4"/>
<path d="M13.74 1825.26C14.3848 1832.14 10.946 1838.48 7.99076 1845.74C4.76691 1838.27 9.17288 1832.04 13.74 1825.26Z" fill="#DADAD4"/>
<path d="M284.383 1993.29C285.78 1987.97 290.401 1984.7 295.451 1980.88C295.989 1987.81 292.228 1991.95 284.383 1993.29Z" fill="#DADAD4"/>
<path d="M21.4774 1807.26C22.767 1812.85 19.0596 1817.26 15.6208 1822.52C15.1909 1817.26 15.3521 1811.51 21.4774 1807.26Z" fill="#DADAD4"/>
<path d="M4493.18 1596.03C4492.75 1600.28 4490.71 1602.75 4486.35 1603.98C4485.12 1603.71 4484.69 1603.28 4484.1 1602.05C4484.31 1597.91 4486.25 1595.92 4490.17 1594.79C4491.57 1594.96 4492.16 1595.12 4493.18 1596.03Z" fill="#DADAD4"/>
<path d="M239.141 927.081C242.633 929.177 242.741 933.744 243.976 938.741C238.12 937.559 239.624 932.401 239.141 927.081Z" fill="#DADAD4"/>
<path d="M756.945 1344.93C760.492 1343.53 763.554 1345.46 766.886 1348.42C763.877 1348.47 759.686 1349.71 756.945 1344.93Z" fill="#DADAD4"/>
<path d="M6.4328 1851.49C7.2925 1854.23 7.93726 1857.51 5.25072 1861.21C1.0597 1858.04 4.76714 1855.25 6.4328 1851.49Z" fill="#DADAD4"/>
<path d="M220.387 849.272C223.45 850.24 223.772 852.658 223.396 856.258C219.796 855.882 218.023 853.679 220.387 849.272Z" fill="#DADAD4"/>
<path d="M307.379 1969.92C306.304 1967.07 307.486 1964.71 310.871 1962.77C311.516 1965.41 311.516 1968.36 307.379 1969.92Z" fill="#DADAD4"/>
<path d="M25.293 1963.26C28.1407 1963.36 29.9138 1965.35 30.3437 1969.27C26.8512 1969.65 25.5079 1967.34 25.293 1963.26Z" fill="#DADAD4"/>
<path d="M222.913 862.061C225.976 862.975 226.352 865.393 226.029 869.047C223.773 867.972 221.086 866.252 222.913 862.061Z" fill="#DADAD4"/>
<path d="M273.959 2001.03C273.959 1998.08 275.947 1996.36 279.869 1996.04C280.353 1999.58 278.043 2000.82 273.959 2001.03Z" fill="#DADAD4"/>
<path d="M790.26 1357.82C791.764 1356.8 793.484 1356.86 795.525 1358.79C793.699 1361.64 791.925 1361.05 790.26 1357.82Z" fill="#DADAD4"/>
<path d="M800.576 1360.35C802.027 1359.33 803.693 1359.33 805.734 1361.05C804.122 1364.11 802.349 1363.63 800.576 1360.35Z" fill="#DADAD4"/>
<path d="M831.471 1368.14C832.921 1367.06 834.641 1367.12 836.683 1369C834.963 1371.95 833.244 1371.31 831.471 1368.14Z" fill="#DADAD4"/>
<path d="M231.35 890.917C233.821 891.508 234.09 893.872 233.821 897.311C231.726 896.559 231.403 894.195 231.35 890.917Z" fill="#DADAD4"/>
<path d="M228.824 883.125C230.329 883.233 231.188 884.523 231.242 887.156C230.382 886.618 229.63 885.275 228.824 883.125Z" fill="#DADAD4"/>
<path d="M38.0801 1981.42C39.6383 1981.2 40.4442 1982.33 40.6591 1984.7C39.7994 1984.37 38.9935 1983.25 38.0801 1981.42Z" fill="#DADAD4"/>
<path d="M234.037 906.232C235.488 906.339 236.348 907.683 236.401 910.262C235.542 909.778 234.789 908.435 234.037 906.232Z" fill="#DADAD4"/>
<path d="M236.615 916.549C238.12 916.656 238.979 918 238.926 920.633C238.066 920.095 237.367 918.752 236.615 916.549Z" fill="#DADAD4"/>
<path d="M226.299 875.334C227.803 875.441 228.663 876.731 228.717 879.364C227.857 878.827 227.105 877.483 226.299 875.334Z" fill="#DADAD4"/>
<path d="M244.244 942.395C245.695 942.395 246.608 943.577 246.77 946.049C245.319 946.049 244.567 944.76 244.244 942.395Z" fill="#DADAD4"/>
<path d="M22.6582 1958.1C24.1627 1957.99 25.0224 1959.12 25.1836 1961.54C24.3776 1961.16 23.5716 1959.98 22.6582 1958.1Z" fill="#DADAD4"/>
<path d="M251.982 955.614C253.487 955.453 254.347 956.635 254.508 958.999C253.648 958.623 252.842 957.495 251.982 955.614Z" fill="#DADAD4"/>
<path d="M249.619 952.551C250.264 952.175 250.962 952.659 251.661 954.002C250.909 954.432 250.264 953.948 249.619 952.551Z" fill="#DADAD4"/>
<path d="M61.6133 2006.89C62.2581 2006.41 62.9565 2006.84 63.655 2008.13C63.0102 2008.61 62.3118 2008.18 61.6133 2006.89Z" fill="#DADAD4"/>
<path d="M59.0352 2004.31C59.6799 2003.83 60.3785 2004.26 61.0233 2005.55C60.3248 2006.03 59.6799 2005.6 59.0352 2004.31Z" fill="#DADAD4"/>
<path d="M30.666 1970.73C31.1496 1970.67 31.7944 1971.21 32.5466 1972.45C31.8481 1972.66 31.3108 1972.07 30.666 1970.73Z" fill="#DADAD4"/>
<path d="M304.532 1972.39C304.102 1971.75 304.532 1971.05 305.822 1970.35C306.252 1970.94 305.822 1971.64 304.532 1972.39Z" fill="#DADAD4"/>
<path d="M302.06 1974.97C301.577 1974.33 302.007 1973.63 303.296 1972.98C303.726 1973.63 303.296 1974.27 302.06 1974.97Z" fill="#DADAD4"/>
<path d="M33.1914 1975.67C33.8362 1975.29 34.5347 1975.78 35.2332 1977.17C34.5347 1977.55 33.8899 1977.07 33.1914 1975.67Z" fill="#DADAD4"/>
<path d="M299.482 1977.6C298.998 1976.96 299.428 1976.31 300.718 1975.62C301.148 1976.26 300.772 1976.9 299.482 1977.6Z" fill="#DADAD4"/>
<path d="M35.7695 1978.57C36.4143 1978.14 37.059 1978.52 37.6501 1979.81C37.0053 1980.24 36.4143 1979.81 35.7695 1978.57Z" fill="#DADAD4"/>
<path d="M296.957 1980.18C296.473 1979.54 296.849 1978.89 298.139 1978.25C298.569 1978.84 298.193 1979.48 296.957 1980.18Z" fill="#DADAD4"/>
<path d="M56.457 2001.78C57.1018 2001.3 57.8004 2001.73 58.4451 2003.02C57.7466 2003.45 57.1018 2003.02 56.457 2001.78Z" fill="#DADAD4"/>
<path d="M281.374 1995.61C280.944 1994.96 281.374 1994.26 282.664 1993.62C283.093 1994.26 282.664 1994.91 281.374 1995.61Z" fill="#DADAD4"/>
<path d="M254.777 960.504C255.261 960.45 255.906 960.988 256.604 962.224C255.96 962.439 255.368 961.848 254.777 960.504Z" fill="#DADAD4"/>
<path d="M4801.76 1403.39C4800.9 1403.12 4800.25 1402.58 4799.98 1400.81C4801.33 1399.84 4802.19 1400.38 4802.51 1402.15C4802.29 1402.91 4801.92 1403.23 4801.76 1403.39Z" fill="#DADAD4"/>
<path d="M4521.82 1568.3C4521.55 1569.16 4521.06 1569.81 4519.34 1570.18C4518.38 1568.84 4518.91 1567.98 4520.63 1567.6C4521.44 1567.87 4521.71 1568.14 4521.82 1568.3Z" fill="#DADAD4"/>
<path d="M4519.29 1570.94C4519.02 1571.8 4518.49 1572.44 4516.77 1572.76C4515.8 1571.42 4516.28 1570.56 4518.06 1570.18C4518.86 1570.45 4519.13 1570.77 4519.29 1570.94Z" fill="#DADAD4"/>
<path d="M4516.71 1573.52C4516.44 1574.38 4515.91 1574.97 4514.83 1575.83C4514.35 1576.2 4514.03 1575.88 4513.87 1575.72C4513.27 1574.38 4513.54 1573.41 4515.42 1572.82C4516.28 1573.03 4516.55 1573.35 4516.71 1573.52Z" fill="#DADAD4"/>
<path d="M4799.23 1400.76C4798.43 1400.43 4797.83 1399.9 4796.92 1398.82C4796.54 1398.34 4796.81 1398.07 4796.92 1397.91C4798.26 1397.32 4799.23 1397.64 4799.82 1399.52C4799.71 1400.38 4799.39 1400.6 4799.23 1400.76Z" fill="#DADAD4"/>
<path d="M4496.14 1594.1C4495.87 1594.96 4495.33 1595.55 4494.2 1596.41C4493.72 1596.78 4493.39 1596.46 4493.29 1596.35C4492.7 1595.01 4492.97 1594.04 4494.85 1593.45C4495.65 1593.61 4495.97 1593.93 4496.14 1594.1Z" fill="#DADAD4"/>
<path d="M4484.64 1601.14C4485.5 1601.83 4485.5 1602.26 4485.5 1603.45C4485.5 1604.14 4484.42 1604.41 4483.88 1604.52C4483.35 1604.63 4483.02 1604.31 4482.86 1604.09C4482.38 1602.69 4482.7 1601.67 4484.64 1601.14Z" fill="#B7CACC"/>
<path d="M847.914 1371.95C847.806 1370.93 848.451 1370.18 849.794 1371.63C849.58 1372.06 849.096 1372.06 847.914 1371.95Z" fill="#DADAD4"/>
<path d="M813.686 1362.77C814.115 1362.55 814.921 1362.87 816.157 1363.79C815.727 1364 814.921 1363.63 813.686 1362.77Z" fill="#DADAD4"/>
<path d="M270.305 983.718C270.788 983.664 271.433 984.201 272.185 985.383C271.541 985.598 270.949 985.007 270.305 983.718Z" fill="#DADAD4"/>
<path d="M267.51 981.084C267.94 980.923 268.692 981.353 269.713 982.374C269.068 982.804 268.369 982.374 267.51 981.084Z" fill="#DADAD4"/>
<path d="M247.039 947.608C247.523 947.554 248.167 948.091 248.866 949.327C248.221 949.542 247.63 948.951 247.039 947.608Z" fill="#DADAD4"/>
<path d="M12.5586 1939.67C13.0422 1939.61 13.7407 1940.2 14.4392 1941.49C13.9019 1941.55 13.3108 1940.96 12.5586 1939.67Z" fill="#DADAD4"/>
<path d="M15.084 1944.88C15.5676 1944.83 16.2661 1945.42 16.9646 1946.71C16.481 1946.76 15.8899 1946.12 15.084 1944.88Z" fill="#DADAD4"/>
<path d="M259.936 970.607C260.419 970.553 261.118 971.144 261.87 972.434C261.332 972.487 260.742 971.896 259.936 970.607Z" fill="#DADAD4"/>
<path d="M17.7148 1949.93C18.1984 1949.88 18.8969 1950.47 19.6492 1951.76C19.1656 1951.86 18.5208 1951.22 17.7148 1949.93Z" fill="#DADAD4"/>
<path d="M20.3496 1955.03C20.9944 1954.66 21.6929 1955.14 22.3914 1956.54C21.6392 1956.97 20.9944 1956.49 20.3496 1955.03Z" fill="#DADAD4"/>
<path d="M257.303 965.501C257.786 965.448 258.485 966.039 259.237 967.328C258.7 967.382 258.109 966.737 257.303 965.501Z" fill="#DADAD4"/>
<path d="M223.881 818.858C224.15 780.867 231.511 745.133 244.567 710.635C258.645 673.289 277.934 638.738 303.242 606.712C308.937 612.354 306.035 618.694 304.531 624.767C300.609 640.618 294.161 655.664 289.809 671.301C290.722 672.215 291.367 672.107 292.119 671.301C331.02 629.28 380.883 602.789 429.617 574.954C450.464 563.025 472.225 552.654 494.147 542.82C547.287 519.016 602.738 516.866 659.531 524.389C687.579 528.097 715.895 529.333 744.05 525.303C752.701 524.067 761.566 521.971 767.477 512.89C754.85 506.979 741.847 506.657 729.328 505.152C702.408 501.874 675.919 496.93 650.021 488.709C627.508 481.562 604.726 475.114 581.675 470.063C530.899 458.94 494.846 426.967 462.715 388.923C450.679 374.683 442.351 358.24 433.969 341.743C425.049 324.118 417.581 305.794 405.975 288.438C404.148 285.16 403.88 282.527 404.148 278.819C405.491 273.553 406.297 269.201 404.686 263.827C404.256 260.227 405.491 257.755 406.19 254.37C410.112 250.555 408.823 246.417 409.521 241.742C413.282 240.56 414.303 237.551 415.808 234.971C429.993 211.435 447.133 190.264 465.348 169.63C483.831 148.673 503.765 129.221 523.592 109.661C545.407 88.167 570.177 70.5419 598.493 58.6126C622.134 48.6716 646.475 40.8799 671.459 34.6466C696.767 28.3059 722.396 23.6309 748.026 19.8695C771.077 16.4304 794.449 13.3675 818.145 13.3675C833.727 13.3675 849.685 12.4003 865.213 9.28361C868.974 8.53132 872.897 8.74639 876.765 8.74639C904.652 8.69266 932.592 8.96123 960.478 8.63882C994.543 8.26267 1026.3 17.4514 1057.03 31.1539C1089.75 45.7161 1119.25 65.5444 1146.55 88.3818C1162.56 101.816 1176.1 118.097 1187.65 135.723C1192.38 142.923 1193.46 143.46 1200.33 138.248C1226.28 118.742 1255.57 105.953 1285.76 94.6151C1302.74 88.2206 1320.64 86.7698 1338.21 83.3307C1359.91 79.0856 1382 79.1932 1403.54 81.2889C1443.95 85.319 1483.39 94.024 1520.68 111.757C1550.82 126.05 1577.31 145.234 1603.15 165.707C1608.63 170.059 1612.18 175.97 1616.37 181.344C1633.83 203.59 1651.19 225.89 1662.2 252.274C1668.33 266.89 1675.26 281.237 1674.45 297.68C1674.4 298.97 1674.13 300.582 1674.78 301.496C1684.23 314.553 1680.85 330.459 1684.29 344.806C1685.68 350.717 1687.73 351.738 1692.99 349.804C1711.85 342.711 1731.36 337.928 1751.24 334.811C1762.57 333.038 1773.91 330.083 1785.52 330.835C1798.04 331.641 1810.02 327.88 1822.59 328.041C1883.47 328.686 1939.19 345.935 1992.27 375.489C2021.07 391.556 2049.17 408.751 2078.03 424.657C2092.91 432.878 2107.2 442.443 2120.42 453.351C2126.71 458.51 2133.53 462.916 2139.98 467.86C2167.27 488.548 2193.44 510.526 2217.35 535.19C2229.87 548.086 2241.1 562.004 2252.17 576.244C2264.26 591.773 2277.21 606.604 2287.52 623.423C2303.27 649.001 2318.31 674.848 2327.23 703.811C2329.76 711.979 2333.68 719.717 2335.94 727.992C2337.98 735.246 2342.87 736.428 2348.72 735.354C2362.59 732.721 2376.5 731.055 2390.53 729.604C2410.62 727.455 2430.5 726.756 2450.54 729.819C2458.12 731.001 2465.75 731.753 2473.38 732.613C2520.5 737.879 2565.37 750.722 2608.35 770.765C2620.39 776.354 2632.32 782.049 2643.87 788.605C2670.3 803.543 2692.71 823.211 2712.86 845.618C2727.2 861.578 2738.92 879.525 2748.91 898.494C2764.98 929.123 2773.57 962.17 2779.48 996.077C2784.37 1024.23 2783.14 1052.61 2781.58 1080.76C2779.86 1111.55 2771.91 1141.43 2759.71 1170.88C2757.13 1172.76 2754.88 1173.35 2752.89 1172.38C2724.41 1157.77 2695.02 1165.4 2665.79 1168.78C2647.84 1170.88 2630.49 1176.04 2612.86 1179.96C2565.64 1190.44 2519.8 1183.08 2474.72 1168.67C2460.43 1164.11 2446.62 1158.14 2432.6 1152.61C2389.88 1135.73 2356.57 1108.33 2335.08 1066.9C2337.76 1081.95 2336.37 1097.1 2337.23 1112.14C2338.68 1137.56 2326.32 1153.52 2304.4 1163.73C2298.16 1166.63 2291.5 1168.3 2283.28 1171.79C2306.01 1175.34 2327.07 1177.22 2347.97 1180.82C2380.05 1186.35 2409.12 1200.11 2433.99 1219.67C2450.81 1232.89 2455.92 1255.13 2454.25 1277.06C2451.62 1311.39 2436.3 1341.27 2420.13 1370.72C2417.5 1375.55 2414.33 1380.12 2412.93 1385.93C2435.07 1364.7 2459.09 1345.79 2482.03 1325.63C2496.7 1312.79 2512.5 1301.78 2530.07 1293.55C2569.07 1275.34 2605.77 1253.36 2640.75 1228.21C2673.9 1204.35 2712.21 1193.82 2752.89 1188.66C2764.6 1194.57 2776.74 1194.14 2788.3 1196.78C2810.38 1201.78 2830.58 1210.27 2847.83 1225.31C2852.02 1228.97 2856.48 1232.3 2860.83 1235.68C2865.4 1239.23 2868.25 1236.92 2869.16 1232.4C2871.26 1221.98 2872.28 1211.29 2874.75 1200.97C2885.93 1153.95 2895.65 1106.45 2919.4 1063.51C2928.96 1046.27 2939.17 1029.66 2953.68 1015.8C2971.03 999.247 2987.32 981.568 3007.25 967.92C3011.49 965.018 3016.06 962.6 3020.31 959.805C3054.1 937.344 3091.23 921.868 3129.76 909.885C3147.65 904.351 3166.4 901.664 3185.15 900.858C3191.92 900.536 3196.65 898.547 3199.55 892.314C3205.3 879.901 3211.91 868.08 3215.4 854.538C3221.85 829.551 3230.93 804.994 3247.53 785.112C3265.59 763.511 3283.64 741.479 3306.85 724.768C3326.25 710.797 3344.3 694.784 3364.78 682.371C3389.65 667.325 3414.64 652.494 3440.91 639.759C3469.44 625.895 3498.67 613.751 3527.85 601.607C3548.27 593.117 3569.97 587.367 3591.41 581.617C3626.87 572.052 3662.39 562.38 3698.28 554.75C3726.98 548.624 3755.67 542.229 3785.11 539.328C3801.93 537.662 3818.91 535.136 3835.78 532.879C3845.51 531.536 3855.5 532.503 3865.33 532.181C3877.69 531.805 3890.21 533.578 3902.41 529.924C3904.39 529.333 3906.81 529.279 3908.8 529.817C3923.85 533.9 3939.43 531.16 3954.69 534.008C3965.06 535.942 3975.91 536.748 3986.5 537.071C4016.48 538.038 4045.76 543.734 4075.21 548.731C4103.04 553.514 4130.28 560.284 4157.2 568.613C4209.37 584.734 4249.4 614.396 4269.66 667.325C4277.61 688.067 4288.3 707.68 4296.95 728.153C4309.47 757.707 4321.78 787.369 4328.12 820.148C4324.52 840.728 4314.95 857.977 4305.76 875.173C4297.11 891.239 4287.5 906.93 4276 921.277C4267.78 931.541 4260.79 942.879 4249.83 950.724C4247.74 952.229 4245.48 954.056 4246.28 956.904C4247.36 960.773 4251.17 959.429 4254.83 960.074C4262.3 959.752 4268.85 961.31 4276 958.516C4292.92 957.979 4309.04 957.978 4326.34 958.086C4327.74 963.728 4330.86 965.179 4336.02 965.34C4370.89 966.2 4404.47 973.723 4437.41 984.953C4446 987.855 4453.95 992.1 4461.85 996.292C4467.28 999.14 4471.2 998.763 4475.5 994.196C4494.04 974.475 4516.98 961.31 4541.16 950.026C4560.66 940.944 4580.92 935.678 4602.68 933.744C4623.26 931.917 4643.68 932.239 4664.2 931.648C4671.99 931.433 4679.57 932.293 4687.04 934.442C4720.73 944.007 4751.19 959.376 4778.76 981.461C4808.85 1005.59 4830.82 1035.46 4847.86 1069.59C4852.42 1078.78 4857.85 1087.53 4862.52 1096.67C4865.05 1101.61 4868.06 1102.31 4872.89 1099.95C4880.58 1096.19 4888.53 1093.01 4896.27 1089.36C4920.28 1078.02 4945.65 1071.79 4972.03 1073.78C5017.32 1077.16 5058.64 1091.73 5094.86 1120.1C5106.79 1129.45 5117.1 1139.98 5126.34 1152.93C5123.93 1156.69 5125.64 1159.38 5127.42 1161.8C5137.09 1175.12 5138.97 1190.28 5137.73 1206.02C5133.76 1255.73 5100.93 1303.17 5057.62 1316.34C5048.97 1318.97 5040.05 1320.8 5031.08 1321.34C4982.67 1324.4 4935.11 1321.28 4889.17 1303.55C4856.08 1290.81 4832.11 1267.6 4812.29 1239.39C4801.43 1223.97 4791.01 1208.12 4787.14 1189.04C4785.47 1180.87 4781.82 1181.36 4775.53 1185.6C4744.05 1206.56 4709.02 1216.77 4671.4 1218.81C4632.66 1220.96 4595.32 1214.94 4559.27 1200.38C4549.7 1196.51 4541.37 1190.6 4531.92 1184.85C4531.27 1234.61 4538.15 1283.78 4519.94 1331.81C4518.65 1344.01 4511.93 1352.61 4506.13 1361.53C4468.73 1418.76 4417.96 1461.48 4359.44 1495.65C4352.03 1500.01 4345.31 1505.43 4337.47 1508.98C4332.95 1511.07 4328.6 1514.68 4322.42 1511.29C4320.43 1504.41 4325 1501.13 4328.33 1497.37C4337.73 1486.84 4346.06 1475.61 4351.38 1460.4C4315.87 1488.51 4273.85 1493.13 4233.44 1501.67C4210.5 1506.51 4186.97 1510.21 4163.22 1505.16C4157.36 1503.93 4152.47 1506.45 4148.39 1511.02C4142.42 1517.79 4136.78 1524.83 4131.19 1531.87C4129.04 1534.56 4126.63 1538.05 4123.03 1537.35C4118.78 1536.55 4117.81 1532.03 4116.95 1528.27C4115.34 1521.18 4114.86 1513.82 4114.11 1506.61C4108.52 1452.4 4092.72 1401.62 4063.71 1354.6C4068.01 1365.56 4068.54 1376.74 4070.15 1387.65C4071.87 1399.09 4072.68 1410.8 4072.9 1422.2C4073.59 1463.73 4075.64 1505.33 4069.72 1546.86C4063.12 1593.29 4040.39 1633.59 4022.82 1675.83C4012.02 1701.73 3993.7 1721.07 3970.81 1736.49C3959.42 1744.18 3948.24 1752.13 3936.31 1758.96C3932.55 1761.1 3929.11 1763.63 3925.24 1767.23C3907.67 1775.88 3889.67 1780.07 3871.4 1782.49C3769.53 1796.03 3678.67 1769.38 3597.59 1707.05C3590.55 1701.62 3583.62 1691.73 3575.51 1693.02C3567.66 1694.26 3566.96 1706.62 3563.1 1713.98C3534.89 1767.88 3500.02 1817.04 3459.56 1862.4C3454.99 1867.5 3450.58 1872.87 3442.63 1875.18C3427.43 1874.75 3425.97 1873.36 3425.28 1860.14C3424.69 1848.69 3425.87 1837.25 3427.37 1824.19C3421.19 1828.65 3419.74 1834.13 3416.79 1838.59C3414.64 1841.81 3412.49 1845.47 3407.97 1845.09C3403.25 1844.72 3402.01 1840.42 3400.88 1836.87C3393.74 1813.93 3386.8 1790.87 3381.65 1767.34C3380.14 1760.41 3378.75 1753.47 3377.67 1749.07C3372.51 1786.15 3363.97 1824.35 3344.25 1859.44C3329.15 1886.36 3311.9 1911.62 3284.72 1927.47C3249.52 1948 3211.37 1960.73 3170.86 1966.05C3127.18 1971.8 3085.54 1964.92 3045.02 1948.05C3016.76 1936.23 2993.6 1917.21 2970.98 1897.38C2954.86 1883.24 2938.64 1869.33 2925.26 1852.19C2914.73 1838.7 2907.15 1824.14 2902.58 1807.85C2897.16 1788.4 2891.35 1769.06 2886.57 1749.44C2885.39 1744.61 2884.96 1739.29 2881.14 1735.26C2876.84 1737.41 2875.72 1741.92 2872.98 1745.04C2867.12 1751.59 2861.37 1751.32 2855.3 1745.41C2847.78 1738.11 2848.37 1732.2 2857.77 1727.36C2865.4 1723.44 2873.35 1720.16 2881.14 1716.61C2909.67 1703.55 2937.99 1690.17 2962.01 1669.32C2968.89 1663.36 2975.23 1657.18 2980.98 1649.17C2944.12 1668.84 2905.64 1670.4 2866.15 1663.63C2862.34 1662.98 2858.58 1662.12 2854.92 1660.73C2843.91 1656.43 2841.81 1650.73 2848.96 1641.01C2858.9 1627.52 2869.59 1614.62 2877.54 1598.07C2866.1 1607.31 2857.77 1618.01 2847.35 1626.39C2814.09 1653.15 2775.94 1666.26 2733.65 1669.54C2702.43 1671.96 2671.7 1678.35 2640.48 1681.31C2577.19 1687.38 2513.95 1691.57 2450.54 1683.3C2439.1 1681.79 2427.49 1681.09 2416.05 1679.32C2400.95 1677.01 2386.39 1672.76 2373.98 1664.06C2339.8 1640.2 2302.73 1620.91 2268.29 1597.53C2262.27 1593.45 2256.52 1588.94 2250.88 1584.26C2242.39 1577.22 2236.48 1579.43 2234.33 1590.39C2233.47 1594.69 2234.38 1598.93 2234.98 1603.18C2237.72 1622.41 2236.1 1641.76 2236.1 1661.05C2236.1 1666.96 2233.26 1671.8 2229.66 1676.15C2213.11 1695.98 2195.16 1714.41 2174.47 1729.94C2165.61 1736.6 2154.59 1737.94 2144.17 1740.04C2107.47 1747.46 2070.34 1750.79 2032.09 1749.12C2052.24 1758.47 2073.57 1760.51 2094.15 1765.51C2098.34 1766.53 2102.64 1767.02 2106.67 1768.47C2116.98 1772.17 2119.08 1777.71 2111.45 1785.55C2099.57 1797.75 2091.57 1812.42 2082.76 1826.61C2074.75 1839.56 2064.65 1850.57 2050.89 1857.72C2045.9 1860.35 2041.71 1863.9 2038.11 1868.31C1994.1 1922.2 1935.32 1949.77 1868.64 1963.15C1853.92 1966.1 1839.03 1968.36 1823.4 1971.69C1821.19 1972.23 1819.9 1972.34 1817.65 1972.28C1814.32 1971.8 1811.95 1971.05 1808.62 1970.73C1806.52 1970.51 1805.4 1970.3 1803.35 1969.87C1799.22 1968.58 1795.78 1968.15 1791.48 1968.09C1789.49 1967.99 1788.31 1967.82 1786.38 1967.39C1783.9 1966.7 1782.29 1966.16 1779.82 1965.62C1777.89 1965.24 1776.76 1965.03 1774.82 1964.55C1772.3 1963.9 1770.63 1963.36 1768.05 1962.88C1760.75 1961.05 1754.46 1958.8 1747.26 1956.75C1741.19 1952.51 1735.33 1949.82 1728.19 1947.83C1723.89 1946.81 1720.5 1945.69 1716.47 1943.97C1712.5 1941.39 1709.97 1938.22 1705.03 1937.36C1703.09 1936.87 1702.07 1936.55 1700.25 1935.74C1696.59 1932.79 1693.64 1930.26 1689.02 1928.92C1681.17 1924.73 1674.24 1920.7 1666.88 1915.7C1664.46 1913.82 1662.96 1912.15 1660.22 1910.76C1653.61 1906.94 1648.61 1902.37 1643.02 1897.22C1639.64 1893.24 1637.43 1889.32 1632.11 1887.54C1621.37 1880.61 1613.52 1871.85 1605.63 1861.97C1603.74 1857.02 1601.43 1853.53 1596.76 1850.84C1594.83 1849.34 1593.86 1848.05 1592.51 1846.01C1591.12 1843.43 1589.94 1841.65 1587.68 1839.67C1582.74 1833.43 1577.85 1828.17 1574.41 1820.86C1573.17 1818.06 1572.2 1816.08 1570.16 1813.82C1569.36 1812.69 1569.09 1812.21 1568.44 1810.97C1565.49 1803.34 1562.86 1796.46 1556.89 1790.44C1551.73 1779.97 1545.72 1770.88 1542.71 1759.44C1541.79 1755.78 1540.93 1753.21 1536.37 1755.57C1533.09 1756.43 1530.67 1756.38 1527.5 1754.87C1523.09 1748.8 1526.32 1743.59 1527.5 1738.27C1537.98 1691.36 1547.76 1644.34 1549.58 1595.82C1540.23 1641.28 1509.66 1672.12 1477.26 1701.67C1471.89 1706.62 1467 1712.04 1461.52 1716.88C1458.62 1719.41 1455.23 1722.85 1451.36 1720.7C1446.21 1717.9 1449.38 1713.17 1450.4 1709.2C1450.72 1707.96 1451.42 1706.83 1451.42 1704.52C1419.39 1736.17 1383.88 1762.45 1346.96 1786.84C1338.31 1792.54 1329.45 1797.86 1319.72 1801.3C1303.76 1806.94 1297.05 1801.78 1297.21 1785.07C1297.32 1776.26 1300.27 1768.25 1303.07 1760.14C1310.05 1739.66 1314.89 1718.87 1312.15 1697C1286.25 1735.15 1248.96 1760.84 1209.9 1782.92C1175.78 1802.21 1139.56 1805.76 1104.32 1781.04C1076.59 1761.64 1046.61 1745.52 1019.85 1724.51C996.693 1706.35 982.615 1682.76 986 1653.31C989.708 1621.23 966.872 1603.55 952.58 1580.98C950.323 1577.44 947.529 1578.3 946.024 1582.11C927.326 1629.18 915.881 1676.2 944.144 1724.13C962.09 1754.6 982.132 1783.24 1007.33 1808.28C1026.67 1827.52 1050.21 1839.5 1074.6 1850.3C1083.25 1854.12 1091.9 1857.94 1100.07 1862.61C1104.32 1865.03 1109.96 1867.39 1105.82 1875.02C1100.34 1878.52 1095.24 1877.76 1090.13 1876.96C1066.01 1873.09 1042.1 1868.52 1018.4 1862.45C978.478 1852.13 944.197 1832.36 914.323 1803.93C898.204 1788.62 880.795 1774.59 866.986 1756.91C862.634 1751.32 857.261 1750.41 851.136 1754.12C847.106 1756.54 842.915 1758.74 837.595 1760.57C834.533 1761.75 832.33 1762.56 829.804 1764.65C827.548 1765.94 825.882 1766.37 823.357 1766.96C820.187 1767.5 818.36 1768.9 815.888 1770.83C798.533 1779.32 781.017 1784.86 762.426 1790.01C759.632 1790.44 757.698 1790.66 754.957 1791.36C752.701 1791.79 751.411 1791.79 749.208 1791.3C747.059 1790.34 746.253 1789.32 745.984 1787.06C759.202 1772.71 774.999 1762.66 791.978 1755.95C828.676 1741.54 843.076 1712.53 848.503 1676.53C848.718 1675.24 848.718 1674 846.998 1672.33C840.712 1673.68 835.285 1678.03 829.428 1681.09C810.784 1690.87 791.226 1698.66 772.366 1708.01C767.53 1710.43 761.62 1714.57 757.107 1709.2C753.077 1704.36 758.02 1699.47 760.814 1695.44C775.751 1673.95 787.572 1650.84 798.372 1623.7C789.184 1630.9 785.154 1638.75 778.545 1644.18C762.318 1657.5 743.566 1665.29 723.847 1671.96C674.952 1688.45 627.83 1687.11 579.526 1667.18C545.031 1652.94 510.159 1639.88 485.497 1611.13C451.431 1571.26 435.527 1524.78 444.446 1470.77C444.93 1469.97 445.091 1468.79 445.199 1468.19C452.882 1465.4 458.739 1460.13 464.864 1455.67C489.688 1437.56 516.983 1424.61 546.052 1415.32C561.902 1410.27 578.451 1408.44 594.732 1405.43C619.932 1400.86 644.648 1404.09 669.74 1407.2C694.08 1410.21 717.346 1416.66 740.611 1423.54C753.883 1427.46 765.65 1434.61 778.008 1440.47C790.42 1446.32 791.494 1446.06 800.36 1435.42C814.921 1418.01 829.804 1400.97 848.019 1387.16C852.64 1383.67 857.53 1379.75 859.947 1372.98C873.595 1357.61 890.52 1347.34 905.78 1334.98C920.717 1322.89 936.407 1311.77 951.989 1300.43C967.409 1289.26 983.744 1280.23 1000.62 1271.74C1009.86 1267.12 1020.33 1266.74 1030.38 1262.76C1017.86 1257.39 1004.97 1258.41 992.663 1257.01C978.908 1255.4 965.744 1252.23 952.633 1248.42C918.084 1238.31 883.697 1228 852.586 1209.03C846.622 1205.38 841.034 1201.24 836.413 1196.46C816.372 1175.77 791.602 1160.72 771.238 1140.52C749.208 1118.65 730.51 1094.25 717.023 1066.09C712.617 1056.85 707.62 1047.82 702.785 1037.83C706.277 1032.46 711.596 1032.29 716.54 1031.11C734.163 1027.03 750.874 1020.31 767.154 1012.47C771.077 1010.59 774.784 1008.17 777.148 1004.51C792.515 980.708 812.557 960.343 827.172 935.893C835.07 922.674 840.121 908.864 841.034 893.55C841.572 884.469 845.225 875.979 845.816 866.951C846.031 863.62 847.536 859.428 844.473 857.225C840.98 854.753 838.186 858.622 835.5 860.288C811.267 875.011 787.948 891.132 763.608 905.587C708.104 938.473 649.537 948.091 586.887 929.338C553.359 919.289 523.699 904.405 498.876 878.558C479.64 858.515 454.87 844.382 433.593 826.273C413.068 808.81 395.927 788.713 386.524 762.973C381.044 748.035 373.414 734.064 366.322 718.857C364.656 738.148 366.268 756.794 364.28 775.494C361.325 803.436 347.301 821.491 322.961 834.656C290.024 852.443 258.699 853.302 226.729 831.271C225.6 827.079 224.794 823.426 223.881 818.858Z" fill="#FFFEEF"/>
<path d="M226.461 831.754C240.377 834.925 253.38 841.588 267.565 845.027C273.583 846.478 279.332 846.424 285.296 845.135C305.768 840.782 324.144 831.754 340.908 819.61C353.427 810.529 357.887 796.504 360.466 781.834C364.281 760.125 362.508 738.255 362.991 716.439C363.045 714.074 361.863 711.334 365.355 708.378C372.394 723.156 380.561 737.073 385.773 752.065C395.069 778.718 410.221 801.179 430.961 819.664C446.543 833.581 463.737 845.726 480.34 858.461C489.85 865.769 499.629 872.754 507.742 881.621C524.99 900.428 545.999 913.002 570.339 920.31C583.879 924.34 597.043 929.714 611.067 931.863C628.261 934.442 645.132 937.559 663.078 934.765C678.66 932.347 694.296 930.305 709.609 926.328C727.556 921.653 744.32 914.345 760.009 904.404C787.466 886.994 815.029 869.638 842.486 852.228C844.259 851.099 845.871 849.702 848.88 849.917C850.922 856.311 851.137 863.082 849.686 868.885C845.978 883.448 845.334 898.44 841.841 912.948C838.725 926.113 831.417 937.398 823.734 948.199C813.041 963.137 801.543 977.484 790.367 992.1C790.098 992.423 789.668 992.691 789.507 993.068C780.642 1014.08 760.922 1019.77 742.117 1027.03C730.135 1031.65 717.884 1035.14 704.129 1037.02C700.26 1034.82 698.38 1032.29 693.329 1033.75C669.15 1040.46 644.595 1046.7 619.718 1049.17C591.455 1052.02 562.817 1056.31 534.285 1050.24C533.479 1050.08 532.566 1050.03 531.706 1050.03C496.136 1051.8 462.662 1041.11 428.704 1032.94C419.355 1030.68 411.08 1026.38 402.43 1022.94C369.654 1009.94 339.887 991.885 313.236 968.51C303.565 960.02 293.84 951.638 285.135 942.288C264.234 919.88 248.115 894.249 237.637 865.446C233.715 854.646 228.18 844.328 226.461 831.754Z" fill="#CFE9E6"/>
<path d="M2754.34 1188.18C2733.17 1194.04 2712.59 1199.73 2692.07 1205.64C2673.64 1210.96 2657.14 1220.31 2641.99 1231.28C2609.91 1254.44 2576.76 1275.55 2540.65 1291.78C2512.93 1304.25 2489.66 1322.79 2467.2 1342.88C2449.31 1358.84 2430.45 1373.67 2413.9 1391.14C2412.23 1392.86 2410.25 1395.71 2407.56 1393.56C2405.09 1391.57 2406.86 1388.77 2408.04 1386.52C2415.62 1372.12 2423.14 1357.66 2430.88 1343.31C2439.1 1328.11 2443.94 1311.77 2448.66 1295.22C2455.97 1269.91 2449.36 1247.24 2437.17 1225.31C2433.4 1218.54 2425.72 1216.34 2419.76 1213.11C2399.18 1201.83 2378.71 1189.74 2355.06 1185.33C2339.97 1182.54 2324.81 1180.01 2309.56 1178.72C2301.07 1178.02 2292.79 1175.39 2284.09 1175.77C2280.86 1175.93 2277.58 1174.37 2275.33 1170.23C2281.56 1168.24 2287.04 1166.36 2292.63 1164.7C2301.39 1162.12 2309.18 1157.77 2316.65 1152.66C2328.09 1144.82 2334.16 1133.85 2333.95 1120.04C2333.68 1103.39 2335.78 1086.62 2331.75 1070.07C2330.78 1066.09 2330.83 1061.58 2332.44 1056.53C2338.19 1059.54 2338.95 1065.5 2341.42 1070.02C2355.44 1095.81 2374.84 1116.28 2399.72 1131.97C2416.16 1142.34 2434.21 1149.06 2451.94 1156.53C2476.5 1166.79 2501.91 1174.21 2528.19 1178.35C2562.36 1183.77 2596.21 1181.84 2629.79 1172.7C2658.27 1164.97 2687.39 1161.37 2717.05 1160.35C2732.09 1159.86 2744.67 1164.64 2758.32 1171.15C2759.12 1177.06 2756.7 1182.11 2754.34 1188.18Z" fill="#D0E9E6"/>
<path d="M1643.02 1894.48C1650.01 1897.91 1654.52 1903.18 1660.59 1907.86C1662.85 1909.47 1664.19 1910.86 1666.23 1912.58C1674.4 1916.35 1681.39 1920.7 1688.85 1925.91C1692.51 1928.81 1695.89 1930.48 1699.76 1933C1701.48 1933.59 1702.5 1933.76 1704.28 1934.08C1707.98 1936.55 1711.37 1938.27 1715.24 1940.69C1719.43 1942.14 1722.87 1943.21 1727.27 1944.45C1733.24 1948.85 1739.74 1950.09 1746.13 1953.53C1754.19 1954.23 1760.75 1957.35 1768.48 1959.87C1770.69 1960.84 1771.87 1961.81 1774.13 1962.34C1775.95 1962.5 1777.03 1962.56 1778.91 1962.72C1781 1963.52 1782.24 1964.44 1784.44 1964.87C1786.27 1964.98 1787.4 1965.03 1789.28 1965.08C1793.42 1968.15 1797.61 1967.07 1802.33 1967.55C1804.27 1967.66 1805.34 1967.66 1807.28 1967.77C1809.96 1969.27 1812.06 1969.92 1815.23 1970.08C1817.22 1970.13 1818.4 1970.13 1820.39 1970.08C1837.1 1970.24 1852.95 1971.26 1868.8 1971.91C1920.7 1973.95 1970.19 1962.02 2019.14 1947.03C2066.64 1932.47 2110.96 1910.76 2152.45 1883.57C2196.56 1854.6 2230.25 1815.27 2259.37 1771.69C2269.85 1756 2272.32 1755.3 2288.28 1765.78C2320.03 1786.52 2354.8 1800.44 2391.55 1807.42C2439.37 1816.51 2487.99 1818.76 2536.19 1810C2611.04 1796.41 2684.6 1777.6 2756.06 1751.27C2766.97 1747.24 2777.39 1742.19 2788.14 1737.89C2799.96 1733.11 2805.38 1735.42 2808.28 1747.29C2825.21 1815.43 2864.86 1869.06 2916.44 1914.3C2964.91 1956.75 3020.2 1987.33 3083.98 2000.76C3183.76 2021.77 3274.45 2000.6 3357.58 1942.68C3387.24 1921.99 3414.58 1898.67 3441.18 1872.82C3449.83 1870.56 3453.92 1864.01 3458.48 1858.63C3473.37 1841.01 3488.36 1823.38 3502.17 1804.95C3519.84 1781.31 3536.61 1756.97 3549.99 1730.53C3557.67 1715.38 3568.25 1701.67 3571.75 1683.3C3587.54 1694.74 3601.57 1705 3615.7 1715.16C3658.36 1745.68 3705 1767.12 3756.85 1776.79C3783.93 1781.85 3811.23 1783.35 3838.57 1781.79C3866.73 1780.18 3894.72 1776.69 3922.34 1766.26C3952.16 1751.97 3982.2 1740.47 4009.76 1723.65C4061.72 1691.89 4100.84 1648.69 4126.95 1593.93C4133.88 1579.48 4143.12 1571.69 4158.81 1567.87C4212.17 1554.76 4263.69 1536.06 4314.79 1513.33C4316.78 1512.31 4317.96 1511.83 4321.08 1511.45C4329.89 1510.27 4335.75 1506.45 4341.6 1503.07C4375.35 1483.72 4407.48 1461.8 4436.98 1436.44C4455.73 1420.32 4473.3 1402.64 4487.27 1381.9C4495.11 1370.23 4504.46 1359.59 4511.45 1347.29C4513.54 1343.58 4516.01 1340.04 4516.87 1334.77C4525.36 1317.79 4536.86 1303.82 4546.16 1288.4C4550.51 1281.2 4555.83 1278.13 4564.26 1279.96C4585.27 1284.53 4606.66 1287.16 4628.04 1287.7C4657.76 1288.45 4686.93 1283.13 4715.52 1274.85C4740.29 1267.65 4764.36 1258.73 4787.3 1246.64C4797.24 1241.38 4800.47 1243.15 4803.48 1254.65C4808.79 1275.02 4814.44 1295.22 4826.15 1313.17C4847.21 1345.46 4878.27 1361.37 4915.07 1365.77C4978.69 1373.35 5034.89 1351.48 5087.6 1318.38C5111.46 1303.39 5132.31 1285.17 5146.33 1260.08C5148.37 1256.37 5150.68 1252.5 5156.7 1252.55C5158.48 1278.99 5157.13 1304.73 5149.34 1329.93C5139.4 1362.23 5119.9 1388.13 5096.25 1412.58C5093.19 1413.6 5091.04 1414.73 5089.05 1416.55C5065.9 1437.08 5038.44 1449.28 5008.89 1457.23C4989.49 1462.44 4969.83 1465.72 4949.62 1465.02C4929.58 1464.27 4910.02 1460.56 4890.63 1455.51C4871.98 1450.68 4854.2 1443.91 4836.57 1434.18C4826.69 1422.2 4813.25 1415.1 4802.88 1403.55C4801.81 1402.37 4801.33 1401.67 4800.09 1400.86C4799.28 1399.74 4798.75 1399.09 4797.51 1398.28C4794.29 1392.75 4790.1 1392.27 4784.99 1393.88C4753.77 1403.82 4721.54 1406.24 4689.03 1405.75C4670.71 1405.48 4652.38 1407.04 4634.06 1403.6C4618.91 1400.76 4618.59 1401.67 4611.6 1416.07C4591.45 1457.66 4568.89 1497.86 4542.67 1535.95C4535.68 1546.11 4528.53 1556.16 4521.39 1567.17C4520.47 1568.36 4519.83 1568.84 4518.97 1570.08C4517.9 1570.94 4517.2 1571.42 4516.39 1572.65C4515.32 1573.51 4514.62 1574 4513.81 1575.23C4506.88 1580.34 4501.72 1586.52 4495.87 1593.07C4494.68 1594.15 4493.98 1594.63 4493.18 1595.87C4490.01 1596.57 4487.64 1597.64 4485.66 1600.81C4484.58 1601.99 4483.83 1602.48 4482.81 1603.55C4473.08 1607.48 4465.78 1614.25 4457.98 1619.94C4430.37 1640.09 4398.93 1652.67 4368.2 1666.8C4346.39 1676.85 4324.14 1685.82 4301.36 1693.18C4281.48 1699.63 4261.65 1706.62 4240.86 1709.73C4234.95 1710.65 4232.15 1714.25 4229.41 1718.81C4218.29 1737.57 4207.65 1756.64 4194.27 1774C4183.31 1788.19 4172.94 1803.39 4160.37 1815.65C4143.61 1831.98 4127.59 1849.45 4108.41 1863.36C4082.08 1882.44 4056.4 1902.43 4027.17 1917.1C4004.98 1928.22 3982.84 1939.34 3960.01 1949.23C3926.16 1963.9 3891.02 1974.49 3855.72 1984.75C3839.27 1989.53 3822.35 1991.68 3805.64 1995.01C3779.31 2000.28 3752.28 2003.61 3725.58 2003.07C3689.9 2002.32 3654.28 1999.8 3619.03 1990.82C3584.91 1982.12 3553.8 1967.98 3523.6 1950.74C3515.92 1946.33 3514.85 1946.6 3511.51 1954.82C3499.8 1983.41 3485.67 2010.7 3466.92 2035.37C3452.36 2054.5 3434.41 2070.4 3416.2 2085.93C3408.08 2092.87 3399.59 2099.37 3391.32 2106.14C3366.17 2126.56 3337.91 2141.82 3308.57 2154.98C3286.01 2165.14 3262.58 2173.09 3237.7 2176.8C3222.6 2179 3207.77 2183.3 3192.46 2185.34C3187.79 2185.99 3183.17 2186.63 3178.49 2186.63C3162.16 2186.69 3145.88 2186.69 3129.54 2186.69C3110.31 2186.69 3091.29 2184.22 3072.21 2181.96C3060.77 2180.61 3049.27 2180.88 3037.77 2179.33C2993.71 2173.41 2952.18 2159.93 2911.61 2142.25C2885.07 2130.69 2860.73 2115.81 2837.94 2098.4C2815.16 2080.94 2794.48 2061.05 2779.05 2036.39C2777.44 2033.86 2775.62 2031.5 2774.06 2028.92C2771.26 2024.35 2767.72 2023.65 2763.15 2026.18C2754.55 2030.96 2745.74 2035.42 2737.31 2040.47C2710.01 2056.86 2680.67 2068.79 2651.28 2080.61C2623.88 2091.68 2596.05 2101.52 2567.3 2108.39C2542.05 2114.47 2516.79 2120.54 2491.22 2125.43C2473.22 2128.92 2454.84 2129.51 2437 2134.4C2427.66 2136.98 2417.39 2136.66 2407.77 2137.09C2385.15 2138.06 2362.26 2141.17 2339.91 2139.45C2319.12 2137.84 2298.11 2137.47 2277.32 2136.01C2252.12 2134.24 2227.35 2130 2202.42 2126.99C2185.54 2124.95 2168.67 2121.45 2152.39 2116.56C2140.95 2113.12 2133.37 2115.7 2126.71 2124.52C2111.82 2144.34 2091.68 2158.31 2071.69 2171.96C2033.11 2198.29 1989.75 2214.47 1945.31 2227.9C1922.37 2234.83 1898.78 2238.54 1875.35 2242.89C1874.12 2243.11 1872.78 2243.27 1871.54 2243.27C1845.43 2243.16 1819.42 2248.11 1793.31 2245.8C1770.85 2243.75 1748.23 2242.46 1726.14 2237.14C1699.6 2230.75 1672.52 2226.72 1646.57 2217.75C1628.41 2211.51 1610.25 2205.66 1593.38 2195.77C1576.4 2185.77 1558.93 2176.75 1543.73 2164.01C1526.59 2149.66 1510.95 2134.19 1498.86 2115C1492.04 2104.15 1484.62 2093.83 1479.79 2081.8C1476.89 2074.6 1474.84 2067.23 1473.18 2059.76C1471.84 2053.91 1468.77 2051.92 1462.97 2053.91C1444.22 2060.14 1424.55 2062.29 1405.21 2064.71C1391.35 2066.43 1377.22 2068.09 1363.08 2068.09C1342.02 2068.15 1321.01 2068.2 1299.95 2068.09C1279.86 2067.99 1259.97 2065.08 1240.04 2063.47C1208.93 2060.95 1178.41 2055.04 1147.78 2049.72C1129.73 2046.55 1111.73 2042.25 1094.32 2036.55C1061.82 2025.97 1028.72 2017.69 997.231 2003.45C969.828 1991.04 943.876 1976.42 917.87 1961.64C906.264 1955.03 897.506 1944.77 887.136 1936.5C877.787 1929.08 868.223 1921.72 860.324 1912.58C857.208 1908.98 853.823 1908.23 848.933 1909.79C813.471 1921.02 776.988 1928.17 740.289 1933.49C726.91 1935.42 713.316 1937.84 699.454 1936.76C685.323 1935.69 671.46 1939.34 657.275 1939.56C635.783 1939.94 614.452 1937.79 593.228 1936.01C555.348 1932.95 517.79 1925.7 482.811 1909.9C453.527 1896.62 426.286 1880.13 402.859 1857.34C380.722 1835.85 362.293 1812.15 349.612 1784C338.758 1759.98 332.203 1735.1 331.666 1708.5C331.182 1683.03 334.621 1658.31 341.552 1633.11C352.03 1634.45 352.137 1643.42 354.555 1650.19C363.421 1674.97 373.683 1698.88 389.749 1720C409.629 1746.06 434.507 1766.05 464.166 1779.91C514.136 1803.23 566.201 1813.6 621.598 1807.8C654.051 1804.36 685.86 1797.05 718.206 1793.08C723.74 1792.38 729.221 1791.41 735.776 1791.46C740.451 1791.46 744.158 1791.57 748.671 1790.71C750.606 1790.28 751.68 1790.18 753.615 1790.12C755.925 1789.91 757.376 1789.42 759.256 1788.19C778.546 1783.4 796.331 1776.26 814.975 1769C817.447 1767.82 818.79 1766.64 820.94 1765.03C823.411 1764.27 825.184 1764.01 827.817 1763.63C830.289 1762.61 831.686 1761.48 833.781 1759.81C841.303 1755.73 848.181 1752.29 854.897 1748.53C858.873 1746.27 862.097 1746.49 865.053 1750.03C868.599 1754.33 871.93 1758.79 875.799 1762.77C900.354 1787.86 925.5 1812.31 954.891 1831.93C975.523 1845.68 998.359 1853.64 1022.05 1859.98C1048.49 1867.02 1075.25 1872.34 1103.62 1874.81C1126.61 1871.58 1148.27 1875.88 1169.98 1877.44C1243.86 1882.81 1315.69 1879.16 1384.2 1845.25C1426.16 1824.51 1468.13 1804.58 1504.29 1774.32C1511.54 1768.25 1518.31 1761.75 1526.43 1755.25C1530.08 1754.44 1532.77 1754.07 1536.47 1753.53C1539.81 1753.21 1541.95 1753.63 1544.21 1755.95C1547.49 1767.71 1554.58 1776.9 1558.4 1788.51C1562.96 1795.66 1565.33 1803.02 1570.22 1809.9C1570.75 1810.59 1570.97 1811.72 1571.08 1812.26C1572.47 1814.3 1573.76 1815.7 1575.43 1817.74C1580.05 1824.57 1584.24 1830.8 1588.86 1837.78C1590.47 1840.04 1591.82 1841.44 1593.64 1843.43C1594.83 1845.2 1595.58 1846.44 1596.65 1848.26C1599.82 1852.13 1602.99 1855.09 1606.49 1858.79C1614.22 1868.57 1622.93 1876.31 1632.01 1884.86C1636.36 1887.81 1639.15 1891.14 1643.02 1894.48Z" fill="#A6DAE0"/>
<path d="M739.807 1793.88C712.296 1796.09 685.968 1801.51 659.533 1806.19C630.84 1811.29 601.879 1814.57 572.811 1812.37C528.375 1808.98 486.089 1797 447.349 1774.75C418.012 1757.93 393.887 1735.26 376.371 1705.81C365.786 1688.02 357.726 1669.22 351.225 1649.71C349.29 1643.96 347.141 1638.43 343.219 1632.73C342.037 1620.64 347.356 1610.54 351.01 1600.17C361.111 1571.37 375.027 1544.28 394.532 1520.75C409.469 1502.69 423.761 1483.78 444.609 1470.24C445.415 1478.89 445.576 1487.86 445.415 1496.89C444.985 1521.82 451.486 1545.04 461.856 1567.5C470.024 1585.12 478.997 1601.94 493.88 1615C513.653 1632.3 534.662 1647.51 560.13 1655.62C573.563 1659.92 586.62 1665.4 599.784 1670.56C632.882 1683.51 666.464 1684.05 700.422 1674.81C715.681 1670.67 731.102 1667.12 745.663 1660.67C761.89 1653.47 776.559 1644.45 787.358 1629.78C791.012 1624.78 795.472 1620.1 800.845 1617.15C804.713 1620.8 802.511 1623.38 801.436 1626.07C790.797 1652.88 777.311 1678.14 760.869 1701.83C759.526 1703.77 756.517 1705.7 758.989 1708.34C761.138 1710.59 763.824 1708.82 766.027 1707.69C791.549 1694.53 818.737 1684.8 843.185 1669.43C845.012 1668.3 846.946 1667.18 848.934 1666.64C852.695 1665.62 854.468 1666.58 853.716 1671.15C850.492 1691.14 844.797 1710.22 834.48 1727.9C828.409 1738.37 819.973 1745.79 809.173 1750.63C787.627 1760.35 767.8 1773.03 747.49 1786.58C745.126 1789.53 742.869 1791.52 739.807 1793.88Z" fill="#CFE9E6"/>
<path d="M261.869 1738.54C267.618 1738.05 270.305 1741.65 272.992 1744.88C294.376 1770.13 311.087 1798.29 324.143 1829.56C321.081 1834.18 320.328 1838.91 318.985 1843.37C310.764 1871.48 295.773 1895.93 275.517 1916.45C253.541 1938.7 226.89 1953.85 195.619 1959.76C186.001 1961.59 176.598 1964.76 166.712 1964.76C134.473 1964.81 105.405 1956.49 80.796 1934.35C72.5215 1926.93 64.0858 1919.78 56.6709 1911.46C39.9606 1892.7 33.674 1869.97 30.5039 1844.82C35.0173 1841.49 38.9934 1843.91 42.5934 1845.9C68.7603 1860.62 97.1303 1858.85 125.5 1857.29C160.748 1855.41 191.643 1840.15 222.914 1825.91C237.207 1819.41 245.105 1808.45 248.49 1792.75C252.413 1774.86 253.111 1756.11 261.869 1738.54Z" fill="#CFE9E6"/>
<path d="M262.568 1737.03C258.484 1758.85 254.669 1779.8 250.156 1800.65C247.631 1812.37 240.86 1820.59 231.404 1825.37C204.323 1839.02 177.028 1853.37 146.831 1858.31C120.718 1862.56 94.175 1864.33 67.6856 1859.28C54.7365 1856.81 43.8291 1849.93 31.4173 1844.13C25.7755 1831.93 28.9457 1819.51 28.1397 1806.13C34.9098 1784.59 47.9664 1768.25 61.3991 1752.08C73.4886 1737.57 85.9005 1723.7 102.127 1713.39C121.793 1700.87 142.64 1694.58 166.121 1693.77C203.464 1692.54 232.801 1709.09 260.042 1731.77C261.117 1732.73 261.601 1734.61 262.568 1737.03Z" fill="#FFFEEF"/>
<path d="M5157.78 1252.5C5152.24 1254.6 5149.88 1259.43 5148 1264.05C5145.85 1269.32 5142.89 1274 5139.35 1278.19C5113.13 1308.65 5080.3 1329.77 5043.97 1346.22C5021.62 1356.32 4998.3 1362.5 4974.45 1367.49C4926.68 1377.44 4882.41 1369.43 4843.83 1339.23C4827.6 1326.55 4816.96 1308.39 4810.14 1288.61C4805.95 1276.52 4801.59 1264.43 4799.61 1251.7C4798.59 1245.35 4797.03 1244.87 4791.01 1248.2C4755.49 1267.76 4717.34 1279.58 4677.69 1287.21C4662.97 1290.06 4647.82 1291.73 4633.26 1291.41C4615.15 1291.03 4596.56 1290.6 4578.72 1285.82C4572.49 1284.15 4565.98 1284.96 4559.86 1282.43C4555.51 1280.6 4553.09 1283.77 4550.78 1287.38C4541.64 1301.78 4532.19 1316.07 4522.73 1330.26C4521.87 1331.6 4520.1 1332.35 4517.95 1333.59C4518.38 1318 4526.22 1303.66 4527.62 1287.81C4527.73 1286.57 4528.75 1285.33 4528.75 1284.15C4528.59 1251.64 4531.65 1219.08 4527.14 1186.62C4526.81 1184.1 4526.81 1181.57 4526.6 1178.51C4531.44 1177.92 4534.18 1181.09 4536.86 1183.13C4560.24 1200.65 4587.96 1206.29 4615.58 1212.25C4637.18 1216.87 4659.15 1215.69 4680.86 1214.56C4704.93 1213.33 4727.71 1205.27 4749.85 1196.03C4760.49 1191.57 4770.86 1186.78 4778.97 1177.86C4784.24 1172.06 4787.84 1173.08 4789.18 1180.82C4792.46 1199.89 4801.59 1216.07 4811.91 1231.97C4837.76 1271.74 4872.68 1297.16 4919.37 1309.14C4956.66 1318.7 4994.06 1319.89 5031.46 1317.36C5080.4 1314.03 5110.28 1284.2 5126.77 1239.66C5130.91 1228.48 5134.46 1217.09 5134.89 1204.84C5135.42 1189.9 5133.38 1175.93 5125.7 1162.82C5124.3 1160.45 5119.14 1156.69 5126.18 1153.36C5127.1 1156.05 5128.39 1158.14 5130.21 1160.08C5151.17 1182.91 5158.85 1210.75 5160.41 1242.02C5158.53 1245.09 5159.44 1247.72 5158.37 1250.73C5157.83 1251.37 5157.78 1252.12 5157.78 1252.5Z" fill="#CFE9E6"/>
<path d="M5158.47 1250.73C5157.78 1248.9 5157.51 1246.43 5159.66 1243.63C5160.35 1245.46 5160.68 1247.93 5158.47 1250.73Z" fill="#A6DAE0"/>
<path d="M4275.89 957.387C4271.81 965.931 4264.23 961.256 4256.76 960.343C4261.76 954.916 4268.48 957.871 4275.89 957.387Z" fill="#D0E9E6"/>
<path d="M406.405 287.31C412.423 287.578 413.175 292.307 415.056 296.015C424.727 315.198 434.399 334.328 443.855 353.619C452.399 371.136 463.843 386.558 477.598 400.153C489.742 412.19 501.133 424.979 514.834 435.619C532.834 449.59 553.144 458.295 574.636 464.313C606.714 473.341 638.952 481.777 670.976 491.127C688.546 496.232 706.707 499.026 724.975 501.014C741.417 502.788 757.913 504.776 774.354 510.042C773.548 516.06 769.196 518.908 764.844 521.38C756.193 526.324 747.059 530.085 736.796 529.225C729.005 528.527 721.483 531.751 713.907 531.428C695.155 530.676 676.456 529.172 657.758 527.291C628.797 524.336 599.997 523.046 570.768 525.84C534.123 529.387 501.455 543.035 468.733 558.457C418.87 581.94 372.931 611.763 327.421 642.392C314.901 650.828 305.767 663.133 294.752 673.289C291.851 675.976 290.024 680.597 283.898 680.006C286.424 667.54 291.367 656.255 294.967 644.541C298.567 632.719 303.618 621.22 303.94 607.464C306.143 604.992 306.251 602.789 306.304 599.726C313.558 593.493 319.2 586.615 325.056 579.79C338.704 563.831 353.587 549 369.492 535.244C382.387 524.12 394.584 512.084 408.877 502.626C417.796 496.769 410.918 490.697 409.414 483.765C413.068 477.317 419.354 476.726 424.996 474.953C445.736 468.451 467.175 464.313 488.13 457.596C486.84 450.45 481.306 447.279 477.169 443.303C435.635 403.485 411.241 355.231 404.9 297.949C404.417 294.51 403.826 291.179 406.405 287.31Z" fill="#D0E9E6"/>
<path d="M407.052 285.697C411.511 321.109 417.476 354.694 435.905 385.376C449.553 408.053 466.048 427.827 484.693 446.151C487.433 448.838 490.335 451.471 492.86 454.372C496.675 458.671 495.923 461.197 490.388 462.056C466.693 465.657 444.072 473.502 420.968 479.574C417.637 480.434 414.413 481.616 410.168 482.744C400.282 472.374 398.132 458.94 394.371 446.473C388.461 426.967 382.819 407.139 381.583 386.773C380.025 362.163 378.843 337.229 384.861 312.887C388.73 297.251 390.395 281.023 398.347 266.46C400.604 262.376 403.076 258.454 406.138 253.94C406.837 256.251 406.783 259.099 406.622 262.914C406.783 267.535 406.729 271.082 406.568 275.542C406.676 279.196 406.837 281.936 407.052 285.697Z" fill="#A6DAE0"/>
<path d="M3440.86 1872.07C3441.83 1874.32 3441.23 1876.37 3439.62 1877.93C3426.35 1890.66 3415.01 1905.6 3398.95 1915.22C3391.86 1919.46 3386.59 1925.64 3380.09 1930.59C3356.93 1948.26 3332.97 1964.6 3306.58 1976.96C3282.51 1988.19 3257.96 1998.61 3231.9 2003.93C3213.58 2007.7 3195.15 2011.83 3176.18 2011.19C3171.45 2011.03 3166.83 2011.13 3162.21 2012.75C3159.47 2013.71 3156.19 2013.88 3153.34 2013.45C3129.33 2009.95 3104.99 2008.93 3081.18 2003.61C3048.78 1996.3 3017.89 1985.18 2989.09 1968.68C2974.26 1960.19 2959.59 1951.49 2945.57 1941.6C2916.34 1920.91 2891.35 1895.98 2867.76 1869.22C2852.61 1852.02 2841.44 1832.25 2829.61 1813.12C2817.85 1793.99 2810.81 1771.91 2805.54 1749.77C2802.64 1737.41 2800.44 1735.69 2789.32 1740.85C2753.53 1757.56 2715.87 1769.11 2678.26 1780.61C2655.42 1787.6 2632.26 1793.94 2608.89 1798.5C2579.23 1804.31 2550.05 1812.31 2519.86 1815.86C2493.69 1818.92 2467.52 1818.82 2441.62 1817.26C2417.61 1815.81 2393.59 1812.31 2369.89 1805.54C2342.01 1797.59 2316.16 1786.25 2291.45 1771.58C2285.27 1767.93 2279.57 1761.21 2272.48 1762.07C2265.39 1762.93 2263.67 1771.8 2259.91 1777.28C2243.09 1801.57 2225.2 1825.05 2204.08 1845.79C2182.96 1866.48 2159.27 1883.78 2133.8 1899.04C2095.38 1922.1 2054.65 1939.4 2012.21 1952.94C1991.9 1959.44 1970.73 1962.72 1950.09 1967.93C1917.96 1976.1 1885.62 1974.54 1853.16 1975.13C1842.74 1975.35 1832.8 1973.47 1822.05 1970.78C1826.19 1966.1 1832.32 1965.84 1838.06 1964.98C1881.37 1958.37 1923.44 1947.94 1962.34 1926.66C1991.31 1910.81 2016.5 1890.88 2036.6 1864.55C2038.64 1861.86 2041.06 1858.8 2044.02 1857.56C2065.72 1848.64 2077.76 1830.42 2088.5 1811.19C2094.2 1800.98 2100.86 1791.73 2109.24 1783.62C2116.82 1776.26 2116.18 1773.62 2106.29 1771.42C2093.82 1768.63 2081.41 1765.56 2068.73 1763.42C2053.2 1760.78 2038.21 1755.95 2023.81 1748.91C2025.91 1744.02 2029.35 1745.9 2031.93 1745.84C2041.38 1745.63 2050.84 1745.9 2060.24 1745.74C2094.52 1745.04 2128.21 1740.31 2161.58 1732.63C2171.52 1730.31 2178.34 1723.6 2184.95 1717.47C2200.32 1703.23 2215.9 1689.05 2228.8 1672.28C2232.23 1667.82 2233.79 1663.63 2233.52 1658.26C2232.5 1638.16 2235.08 1618.01 2231.32 1597.96C2230.14 1591.57 2227.99 1583.3 2237.34 1579.16C2239.81 1578.08 2237.5 1573.09 2241.64 1571.47C2249.32 1574.91 2254.21 1582.33 2260.93 1587.43C2285.27 1605.86 2312.08 1620.21 2338.19 1635.69C2347.43 1641.17 2355.92 1647.67 2364.57 1653.96C2388.32 1671.26 2415.46 1677.28 2444.1 1679C2456.83 1679.75 2469.51 1681.79 2482.19 1683.19C2485.58 1683.56 2489.01 1683.94 2492.4 1683.94C2518.14 1683.99 2543.98 1685.07 2569.66 1683.56C2584.87 1682.65 2600.29 1682.06 2615.5 1679.53C2626.35 1677.76 2637.58 1677.49 2648.65 1676.53C2672.02 1674.48 2695.23 1671.26 2718.28 1667.07C2728.39 1665.24 2738.65 1664.38 2748.75 1663.68C2782.44 1661.43 2811.29 1647.62 2838.43 1629.02C2851.27 1620.21 2861.26 1608.34 2872.38 1597.7C2875.66 1594.58 2877.87 1589.85 2883.18 1589.42C2885.82 1592.16 2883.56 1594.42 2882.54 1596.51C2875.34 1611.18 2866.47 1624.67 2856.1 1637.35C2845.95 1649.77 2840.47 1653.85 2862.87 1658.9C2884.8 1663.84 2906.61 1664.06 2929.02 1661.75C2950.89 1659.49 2970.18 1651.7 2991.08 1639.13C2986.72 1650.09 2980.65 1656.54 2974.69 1662.34C2959.7 1677.06 2942.88 1689.58 2924.13 1699.31C2902.8 1710.38 2880.98 1720.37 2859.06 1730.15C2850.84 1733.81 2850.52 1735.1 2856.64 1741.65C2864.49 1750.04 2866.04 1749.87 2872.71 1739.93C2873.19 1739.23 2873.51 1738.21 2874.16 1737.84C2878.51 1735.15 2876.04 1725.64 2882.81 1727.04C2887.05 1727.9 2886.3 1735.1 2887.59 1739.4C2893.88 1760.25 2899.84 1781.31 2904.89 1802.43C2910.64 1826.34 2922.73 1846.11 2939.44 1862.77C2965.5 1888.67 2992.37 1913.82 3024.17 1933C3046.04 1946.22 3069.68 1954.66 3094.56 1959.71C3110.04 1962.83 3125.89 1964.81 3141.58 1964.65C3175.16 1964.33 3207.67 1957.29 3239.04 1945.09C3248.61 1941.39 3258.28 1937.79 3267.58 1933.43C3297.77 1919.3 3318.78 1895.71 3335.92 1867.72C3355.96 1834.99 3366.39 1799.2 3372.51 1761.7C3373.96 1752.88 3374.98 1744.12 3376.22 1734.99C3383.2 1752.72 3385.3 1771.58 3390.83 1789.48C3396.37 1807.26 3399.7 1825.8 3407.22 1842.78C3413.03 1842.35 3413.46 1837.78 3415.39 1834.72C3417.22 1831.82 3418.08 1828.11 3420.39 1825.8C3423.4 1822.79 3423.77 1814.68 3429.63 1817.53C3433.77 1819.51 3432.05 1826.39 3430.81 1830.64C3427.69 1841.22 3429.09 1851.97 3428.93 1862.61C3428.82 1871.05 3429.25 1871.05 3440.86 1872.07Z" fill="#CFE9E6"/>
<path d="M3497.01 1370.88C3474.76 1385.66 3450.26 1394.25 3429.04 1408.92C3406.1 1424.83 3380.41 1433.11 3352.74 1436.97C3340.92 1438.64 3328.83 1437.67 3317.12 1441C3311.64 1442.56 3305.4 1441.27 3299.82 1441.27C3297.99 1436.6 3301.43 1436.11 3303.31 1434.99C3326.09 1421.34 3348.71 1407.63 3373.1 1396.78C3397.55 1385.93 3415.77 1366.8 3429.95 1344.33C3442.1 1325.15 3455.42 1306.83 3467.89 1287.86C3483.04 1264.7 3492.39 1239.01 3498.46 1212.09C3500.02 1205.11 3501.31 1198.07 3503.19 1188.99C3481.37 1198.23 3460.52 1205.7 3438.5 1209.19C3437.42 1204.46 3440.7 1203.87 3442.53 1202.47C3462.14 1187.64 3478.31 1169.21 3495.56 1151.91C3506.25 1141.22 3510.87 1127.67 3511.57 1112.47C3512.97 1082.75 3506.84 1054.7 3495.34 1027.51C3492.33 1020.42 3490.29 1012.95 3487.87 1005.64C3487.12 1003.38 3484.97 1000.81 3488.3 998.979C3490.45 997.796 3492.55 999.086 3494.11 1000.59C3501.84 1008.01 3510.92 1013.81 3518.23 1021.76C3526.94 1031.22 3537.04 1039.17 3547.78 1046.27C3563.53 1056.53 3581.69 1060.18 3599.26 1065.29C3616.45 1070.29 3633.91 1074.58 3651.65 1077.38C3664 1079.31 3676.47 1077.92 3688.88 1078.29C3705.59 1078.78 3722.14 1078.08 3738.64 1074.32C3761.69 1069.1 3781.24 1056.69 3801.07 1044.87C3826.7 1029.55 3844.7 1006.61 3861.63 982.858C3873.55 966.2 3885.54 949.435 3892.47 929.66C3897.14 916.28 3901.12 902.846 3903.05 888.821C3903.32 886.78 3902.89 884.146 3905.69 883.717C3908.1 883.34 3909.34 885.382 3910.47 887.263C3924.65 911.498 3943.03 932.454 3963.45 951.369C3983.33 969.8 4006.54 982.966 4032.92 991.08C4053.88 997.528 4074.94 1000 4096.27 997.958C4120.45 995.593 4144.3 990.811 4167.89 984.577C4180.25 981.353 4191.75 975.55 4205.5 972.218C4204.48 977.914 4200.99 980.117 4197.71 982.213C4181.81 992.369 4165.74 1002.2 4147.96 1008.87C4135.49 1013.54 4124.91 1021.76 4112.39 1026.54C4073.59 1041.38 4034.53 1055.83 3993.8 1064C3974.08 1067.92 3953.29 1071.25 3932.71 1065.66C3927.02 1064.11 3920.89 1065.4 3914.93 1063.78C3909.23 1062.28 3905.85 1057.6 3899.94 1055.24C3897.52 1059.59 3895.1 1063.78 3895.53 1068.4C3896.87 1082.59 3887.74 1090.27 3878.39 1098.12C3862.38 1111.55 3843.63 1119.94 3824.5 1127.57C3804.24 1135.63 3783.98 1143.63 3762.65 1148.68C3753.41 1150.89 3743.85 1151.86 3734.82 1152.18C3718.54 1152.77 3702.53 1156.26 3686.19 1155.46C3677.28 1155.03 3668.73 1160.56 3658.95 1156.05C3659.71 1147.18 3657.39 1144.06 3648.15 1142.67C3622.63 1138.69 3596.84 1142.08 3571.37 1138.69C3562.51 1137.51 3559.17 1142.08 3560.52 1151.16C3564.49 1177.97 3565.35 1204.78 3560.36 1231.76C3552.35 1275.23 3533.22 1313.71 3509.74 1350.41C3505.66 1356.96 3501.31 1363.3 3497.01 1370.88Z" fill="#D0E9E6"/>
<path d="M1606.43 1319.99C1598.8 1343.85 1592.84 1366.96 1594.45 1391.35C1594.88 1397.32 1593.91 1403.07 1590.42 1409.68C1584.99 1398.61 1582.25 1387.91 1579.14 1377.38C1572.8 1356.05 1566.62 1334.66 1553.72 1315.96C1533.63 1286.84 1505.74 1267.76 1474.2 1253.25C1445.78 1240.2 1416.06 1241.97 1386.03 1244.92C1371.57 1246.38 1357.23 1248.26 1342.94 1250.73C1340.57 1251.16 1337.78 1251.53 1335.04 1248.52C1338.58 1240.63 1346.21 1235.41 1351.05 1228.16C1354.17 1223.48 1357.28 1218.86 1359.11 1213.6C1362.39 1204.03 1357.87 1196.94 1347.88 1196.94C1335.52 1196.89 1323.22 1196.13 1310.75 1198.5C1300.97 1200.38 1290.55 1198.87 1280.29 1198.23C1318.76 1189.2 1353.52 1170.18 1390.92 1158.46C1416.28 1150.51 1438.47 1137.51 1456.42 1117.3C1480.22 1090.54 1497.09 1060.4 1504.4 1025.04C1507.51 1009.99 1511.33 995.11 1514.82 980.118C1515.2 978.505 1515.2 976.517 1517.45 976.302C1519.39 976.087 1520.89 977.269 1521.48 978.882C1524.98 988.07 1528.25 997.313 1531.64 1006.5C1539.05 1026.65 1548.46 1045.78 1560.55 1063.57C1573.6 1082.86 1591.66 1096.35 1611.75 1107.36C1630.88 1117.84 1650.22 1128.1 1670.8 1135.47C1691.38 1142.83 1712.17 1147.45 1734.74 1143.58C1748.6 1141.16 1762.63 1140.3 1775.85 1134.71C1787.02 1129.98 1797.07 1123.75 1805.93 1115.58C1807.49 1114.13 1808.89 1112.41 1812.54 1112.95C1810.18 1120.69 1806.74 1127.62 1801.1 1133.1C1789.98 1143.79 1780.47 1156.1 1767.46 1164.81C1766.76 1165.29 1766.12 1165.88 1765.53 1166.52C1764.13 1168.08 1762.25 1169.64 1763.7 1172.01C1764.67 1173.56 1766.66 1173.73 1768.32 1173.46C1772.94 1172.81 1777.56 1171.31 1782.19 1171.25C1805.34 1171.04 1828.5 1171.15 1852.41 1171.15C1845.37 1178.94 1835.59 1174.48 1827.96 1178.4C1849.62 1186.84 1873.64 1183.77 1896.31 1192.8C1891.47 1198.28 1885.94 1198.39 1881.43 1198.98C1843.28 1203.76 1805.83 1211.98 1768.11 1218.97C1752.69 1221.87 1737.8 1226.49 1720.13 1228.97C1730.39 1237.13 1741.24 1234.07 1751.08 1236.92C1749.14 1241.43 1745.92 1242.24 1742.69 1243.1C1712.01 1251.21 1682.14 1261.37 1654.41 1277.27C1653.28 1277.92 1652.16 1278.83 1650.97 1278.94C1629.05 1280.71 1618.9 1296.46 1609.76 1313.44C1608.69 1315.21 1607.83 1317.14 1606.43 1319.99Z" fill="#D0E9E6"/>
<path d="M1527.66 1753.47C1526.16 1764.33 1517.24 1768.04 1511.06 1773.3C1486.99 1793.83 1461.25 1812.53 1432.72 1826.23C1392.37 1845.63 1352.07 1865.94 1307.96 1875.83C1292.27 1879.32 1276.2 1882.22 1259.98 1882.28C1236.39 1882.33 1212.85 1882.65 1189.27 1882.17C1173.09 1881.85 1157.03 1880.24 1141.01 1877.66C1137.25 1877.07 1133.33 1877.33 1129.46 1877.12C1121.83 1876.64 1114.04 1878.14 1105.71 1875.29C1107.27 1870.62 1105.87 1868.36 1101.95 1866.59C1092.98 1862.5 1084.33 1857.61 1075.19 1854.01C1036.83 1838.91 1005.34 1815.11 979.876 1782.54C966.658 1765.62 954.354 1748.15 943.984 1729.51C932.27 1708.44 924.909 1685.66 922.061 1661.59C920.933 1651.97 924.479 1642.99 926.951 1633.97C932.7 1612.96 938.772 1592.05 946.294 1571.8C951.076 1570.94 952.742 1574.32 954.676 1576.95C964.939 1591.19 974.879 1605.59 985.41 1619.62C988.634 1623.86 988.742 1628.11 988.956 1632.84C989.601 1646.92 988.151 1660.94 990.998 1675.07C994.598 1692.91 1004.43 1706.56 1017.27 1718.01C1033.23 1732.25 1051.82 1743.16 1069.66 1754.92C1084.65 1764.81 1100.07 1774.11 1115.39 1783.51C1130.86 1792.97 1147.19 1796.19 1165.62 1793.29C1184.05 1790.39 1201.35 1785.82 1217.37 1776.04C1225.8 1770.88 1233.32 1764.54 1241.22 1758.74C1253.64 1749.66 1266.53 1741.11 1277.92 1730.85C1291.52 1718.65 1305.97 1706.72 1311.13 1687.81C1316.82 1689.85 1315.96 1693.56 1316.23 1696.73C1317.84 1718.01 1314.35 1738.48 1307.26 1758.53C1303.71 1768.57 1299.68 1778.51 1300.6 1789.69C1301.4 1799.26 1302.48 1800.87 1312.26 1799.79C1322.79 1798.67 1331.6 1792.81 1340.14 1787.27C1379.96 1761.32 1418.54 1733.75 1451.69 1699.26C1453.08 1697.8 1454.37 1695.87 1457.54 1696.3C1457.65 1704.09 1452.71 1710.54 1450.72 1718.17C1454.75 1720.16 1456.63 1717.42 1458.56 1715.48C1477.53 1697 1497.25 1679.16 1514.66 1659.17C1527.93 1643.91 1537.98 1626.44 1543.08 1606.51C1544.96 1599.15 1547.38 1591.95 1549.53 1584.64C1554.53 1585.98 1553.08 1589.58 1553.18 1592.27C1553.83 1610.7 1550.71 1628.81 1548.46 1647.02C1544.91 1675.88 1537.93 1704.04 1532.77 1732.57C1531.58 1739.29 1527.77 1745.31 1527.66 1753.47Z" fill="#D0E9E6"/>
<path d="M1769.02 839.439C1789.98 849.863 1811.36 855.398 1833.34 859.428C1850.1 862.491 1867.03 864.802 1883.79 867.65C1918.61 873.614 1949.72 865.285 1978.3 845.188C1990.5 836.644 2000.39 826.327 2006.78 812.786C2009.2 807.627 2012.69 806.499 2016.61 811.12C2031.01 828.047 2052.02 829.229 2071.42 832.936C2086.84 835.838 2102.74 836.913 2118.7 835.999C2141.32 834.71 2163.84 832.722 2185.81 827.241C2201.82 823.264 2215.31 813.699 2229.23 805.317C2241.69 797.794 2253.89 789.895 2266.3 782.264C2268.07 781.19 2269.95 780.007 2273.34 780.706C2275.76 791.131 2275.22 802.093 2273.82 812.893C2273.18 817.998 2267.91 820.9 2263.35 823.533C2232.93 841.05 2202.15 858.085 2174.64 879.901C2161.04 890.648 2147.13 901.449 2136.38 915.635C2130.25 923.749 2122.41 930.573 2115.32 937.989C2090.44 926.919 2062.61 923.373 2038.75 907.091C2036.82 912.089 2037.89 917.086 2037.73 921.922C2037.3 932.293 2036.17 935.356 2025.8 937.022C2009.52 939.655 1993.24 944.33 1976.42 939.708C1969.49 937.828 1961.97 939.44 1954.82 936.968C1950.36 935.463 1945.63 934.765 1941.87 931.756C1936.12 927.134 1933.87 930.036 1931.88 935.625C1930 940.837 1926.83 945.619 1925.22 950.939C1923.6 956.205 1920.38 956.85 1915.65 957.226C1906.89 957.978 1898.51 955.668 1890.29 954.056C1862.46 948.628 1836.08 939.601 1811.9 923.749C1793.84 911.874 1778.42 897.204 1762.25 883.286C1752.1 874.528 1741.19 866.951 1729.9 860.234C1712.87 850.132 1701.8 835.408 1692.94 818.589C1684.72 803.06 1678.11 786.778 1671.23 770.657C1667.68 762.382 1663.82 754.268 1658.87 746.692C1655.92 742.232 1652.75 737.718 1652.26 732.183C1656.45 730.517 1657.53 733.204 1658.87 735.246C1664.57 743.79 1669.67 752.817 1675.96 760.878C1698.79 790.217 1725.23 815.526 1758.44 833.044C1761.71 834.764 1764.88 836.967 1769.02 839.439Z" fill="#D0E9E6"/>
<path d="M1035.81 547.388C1025.6 519.016 1005.56 502.412 978.8 492.686C968.86 489.085 958.221 487.258 949.248 481.724C949.678 477.049 952.794 477.855 955.105 477.855C988.902 477.855 1022.38 472.481 1056.23 472.159C1072.78 471.998 1089.22 467.914 1104.96 462.057C1110.33 460.068 1114.42 456.522 1118.61 452.707C1137.15 435.888 1151.06 415.199 1166.54 395.855C1168.15 393.867 1169.38 391.502 1171.26 389.89C1174.97 386.72 1178.09 386.72 1179.91 392.147C1181.26 396.177 1182.98 400.154 1184.8 404.023C1188.08 410.847 1187.49 416.596 1182.76 423.045C1174.49 434.275 1173.36 447.011 1175.94 460.874C1178.03 472.212 1178.79 483.873 1183.19 494.62C1192.17 516.598 1208.82 531.912 1228.86 543.412C1245.25 552.762 1262.5 560.446 1280.61 566.034C1283.51 566.894 1287.48 566.84 1289.69 572.536C1273.84 573.611 1258.68 572.858 1243.59 573.073C1228.76 573.288 1213.93 572.697 1196.63 573.557C1215 599.35 1240.09 612.193 1263.95 626.432C1261.64 631.054 1258.52 629.657 1255.78 629.066C1235.15 624.444 1214.63 623.692 1193.51 626.594C1177.5 628.851 1161.22 629.388 1145.26 632.451C1130 635.352 1116.03 641.156 1103.19 650.506C1083.2 665.176 1061.55 677.535 1042.26 693.225C1030.33 702.951 1018.4 712.677 1007.44 723.532C1004.16 726.756 1001.31 730.625 996.101 732.882C994.436 727.401 997.606 724.445 999.701 721.006C1007.81 707.949 1016.04 695.052 1022.16 680.705C1029.04 664.746 1033.01 648.356 1035.54 631.43C1036.08 627.668 1036.78 623.799 1038.07 620.199C1046.88 595.911 1043.06 572.106 1035.81 547.388Z" fill="#D0E9E6"/>
<path d="M4318.34 1513.65C4316.73 1516.18 4315.28 1517.68 4313.13 1518.44C4282.61 1529.4 4253.16 1543.15 4222 1552.56C4198.3 1559.71 4174.98 1568.09 4150.7 1573.25C4142.48 1575.02 4137.1 1579.32 4134.1 1587.33C4127.27 1605.49 4116.31 1621.45 4106.1 1637.68C4098.85 1649.17 4089.61 1659.49 4080.58 1669.7C4053.61 1700.33 4020.56 1723.28 3984.51 1741.6C3965.6 1751.22 3946.57 1761.48 3924.44 1766.1C3925.14 1759.82 3930.89 1758.15 3935.51 1755.36C3952.38 1745.15 3968.77 1734.29 3984.29 1722.15C4004.17 1706.62 4015.83 1685.12 4025.67 1662.55C4032.81 1646.06 4039.48 1629.35 4046.89 1613.01C4058.82 1586.63 4065.1 1559.06 4068.38 1530.31C4072.47 1494.74 4071.28 1459.11 4069.89 1423.7C4068.87 1397.64 4068.7 1370.77 4057.96 1346.27C4062.42 1343.31 4063.76 1346.16 4064.94 1348.15C4089.87 1390.12 4108.04 1434.61 4114.59 1483.4C4116.36 1496.51 4118.89 1509.46 4119.48 1522.74C4119.7 1527.14 4121.47 1530.96 4123.24 1535.95C4131.46 1526.12 4139.74 1517.15 4146.88 1507.26C4150.43 1502.37 4154.14 1501.03 4159.73 1500.76C4166.76 1500.38 4173.16 1503.18 4180.04 1503.61C4193.41 1504.41 4206.58 1502.32 4219.58 1500.27C4248.22 1495.81 4276.48 1489.2 4304.37 1481.04C4321.99 1475.88 4337.31 1467.01 4351.44 1455.73C4353.1 1454.44 4354.39 1452.56 4356.92 1452.93C4356.54 1460.24 4349.13 1475.72 4343.16 1484.69C4337.25 1493.61 4328.06 1499.84 4323.07 1510.38C4323.07 1511.29 4323.01 1511.18 4323.07 1511.18C4321.94 1512.26 4320.27 1512.36 4318.34 1513.65Z" fill="#D0E9E6"/>
<path d="M3497.01 1372.01C3494.37 1363.73 3499.69 1358.68 3503.46 1353.15C3530.64 1313.17 3551.17 1270.61 3558.26 1222.03C3561.97 1196.67 3560.03 1171.9 3556.17 1146.97C3554.98 1139.44 3556.54 1136.38 3563.9 1135.3C3569.38 1134.5 3575.08 1134.12 3580.45 1136.06C3583.78 1137.24 3587.22 1137.88 3590.55 1137.35C3613.17 1133.8 3635.36 1139.23 3657.77 1140.09C3660.67 1140.19 3664.16 1139.39 3665.4 1143.15C3666.31 1145.94 3664.22 1147.93 3662.5 1149.87C3661.37 1151.16 3660.24 1152.45 3658.68 1154.54C3651.48 1157.12 3648.9 1163.68 3644.28 1167.87C3617.36 1192.48 3594.64 1220.85 3574.7 1251.21C3551.76 1286.14 3530.16 1321.98 3515.97 1361.69C3514.95 1364.49 3513.56 1367.17 3512.16 1369.8C3507.65 1378.46 3507.27 1378.46 3497.01 1372.01Z" fill="#A7D9DF"/>
<path d="M1571.02 1809.41C1563.02 1806.4 1561.94 1798.07 1558.82 1790.12C1566.56 1793.29 1567.8 1801.51 1571.02 1809.41Z" fill="#CFE9E6"/>
<path d="M1746.61 1953.15C1740.33 1952.67 1733.4 1952.19 1728.45 1945.47C1735.06 1945.31 1740.86 1948.37 1746.61 1953.15Z" fill="#CFE9E6"/>
<path d="M1607.24 1858.31C1602.03 1858.53 1598.91 1855.36 1597.3 1849.55C1602.46 1849.45 1605.63 1852.51 1607.24 1858.31Z" fill="#CFE9E6"/>
<path d="M407.211 275.864C403.074 273.016 403.987 269.093 405.921 264.58C410.112 267.428 409.199 271.35 407.211 275.864Z" fill="#B7CACC"/>
<path d="M740.074 1794.53C739.322 1790.61 741.041 1787.97 745.823 1787C747.274 1787.7 747.865 1788.46 749.101 1789.69C748.617 1795.07 744.695 1794.58 740.074 1794.53Z" fill="#D0E9E6"/>
<path d="M1643.5 1894.1C1638.13 1894.91 1635.23 1891.47 1633.13 1885.93C1638.51 1885.18 1641.41 1888.62 1643.5 1894.1Z" fill="#CFE9E6"/>
<path d="M1802.6 1966.91C1798.79 1970.67 1794.54 1971.42 1790.41 1966C1794.11 1964.92 1798.14 1964.06 1802.6 1966.91Z" fill="#CFE9E6"/>
<path d="M1545.07 1755.52C1542.87 1755.73 1540.83 1755.14 1538.25 1753.8C1538.25 1751.22 1538.57 1748.85 1541.26 1749.44C1543.89 1749.98 1544.91 1752.13 1545.07 1755.52Z" fill="#CFE9E6"/>
<path d="M1700.25 1932.63C1696.05 1933.54 1692.4 1932.09 1689.88 1927.2C1694.01 1926.5 1697.61 1927.95 1700.25 1932.63Z" fill="#CFE9E6"/>
<path d="M1715.72 1940.31C1711.53 1941.33 1707.87 1939.88 1705.29 1935.05C1709.43 1934.19 1713.03 1935.69 1715.72 1940.31Z" fill="#CFE9E6"/>
<path d="M1815.55 1969.49C1813.19 1973.14 1810.66 1973.2 1808.3 1968.63C1810.5 1967.45 1812.87 1967.13 1815.55 1969.49Z" fill="#CFE9E6"/>
<path d="M759.255 1787.38C759.363 1789.69 758.879 1792.22 755.064 1790.34C755.441 1788.29 756.676 1787.38 759.255 1787.38Z" fill="#D0E9E6"/>
<path d="M821.046 1764.17C821.315 1766.48 820.402 1768.36 816.909 1768.52C816.641 1766.26 817.554 1764.38 821.046 1764.17Z" fill="#D0E9E6"/>
<path d="M833.89 1758.96C834.213 1761.27 833.299 1763.2 829.753 1763.31C829.538 1761 830.505 1759.17 833.89 1758.96Z" fill="#D0E9E6"/>
<path d="M1576.13 1817.26C1573.87 1817.69 1571.99 1816.83 1571.51 1813.39C1573.76 1812.96 1575.75 1813.71 1576.13 1817.26Z" fill="#CFE9E6"/>
<path d="M1594.29 1842.94C1592.03 1843.43 1590.04 1842.68 1589.56 1839.18C1591.82 1838.7 1593.75 1839.5 1594.29 1842.94Z" fill="#CFE9E6"/>
<path d="M1666.67 1912.26C1664.46 1913.07 1662.47 1912.48 1661.51 1909.09C1663.76 1908.23 1665.7 1908.88 1666.67 1912.26Z" fill="#CFE9E6"/>
<path d="M1774.45 1961.75C1772.62 1964.92 1771.01 1964.22 1769.61 1960.73C1771.12 1959.82 1772.68 1959.92 1774.45 1961.75Z" fill="#CFE9E6"/>
<path d="M1784.71 1964.28C1782.99 1967.45 1781.32 1966.91 1779.87 1963.47C1781.32 1962.4 1782.88 1962.5 1784.71 1964.28Z" fill="#CFE9E6"/>
<path d="M4318.61 1514.08C4318.45 1512.58 4319.68 1511.56 4322.32 1511.24C4321.89 1512.1 4320.65 1513.01 4318.61 1514.08Z" fill="#FFFEEF"/>
</svg>
