<svg width="11228" height="1606" viewBox="0 0 11228 1606" fill="none" xmlns="http://www.w3.org/2000/svg">
<path d="M6370.78 359.3C6376.84 357.226 6380.12 357.102 6385.88 357.019C6482.89 358.761 6576.37 345.199 6670.27 337.236C6769.02 328.9 6867.27 315.919 6965.69 304.929C7075.05 292.694 7183.8 275.441 7292.46 257.815C7497.88 224.512 7701.27 179.804 7907.23 149.072C8083.82 122.737 8260.58 98.0604 8437.72 75.8308C8566.46 59.6563 8695.36 46.7581 8824.88 38.1317C8864.94 35.4774 8905.67 35.975 8948.18 26.8924C8954.07 24.8187 8957.26 24.6528 8962.82 24.4455C9052.49 28.178 9139.17 17.0218 9228.83 12.0865C9234.72 10.0543 9237.96 9.88834 9243.6 9.76392C9336.96 9.59802 9427.83 10.3032 9518.78 6.90238C9645.4 2.17444 9772.19 6.98528 9898.68 11.257C10063 16.8144 10227.5 21.6253 10391.6 33.3622C10521.2 42.6107 10651.1 48.7488 10780.3 62.6837C10890.9 74.628 11001.6 87.9409 11111.8 104.115C11139.6 108.221 11167.7 110.046 11195.2 116.889C11214.5 121.7 11222.4 130.783 11222.4 152.722C11221.5 467.794 11221.4 782.866 11222.3 1097.94C11222.4 1126.01 11214.1 1130.08 11188.3 1125.02C11078.8 1103.58 10967.6 1094.41 10857 1080.77C10762 1069.03 10666.7 1061.52 10571.3 1055.14C10451.4 1047.13 10331.5 1037.26 10211.4 1033.07C10099.7 1029.22 9987.85 1026.4 9876.37 1020.34C9738.59 1012.88 9600.98 1013.75 9463.41 1015.32C9311.29 1017.06 9159.28 1025.73 9007.32 1035.02C8917.95 1040.5 8828.49 1045.47 8739.19 1052.07C8637.75 1059.53 8536.34 1069.16 8435.56 1083.13C8298.37 1102.17 8160.84 1118.63 8023.89 1139.45C7856.67 1164.83 7689.78 1191.92 7523.76 1224.39C7344.59 1259.48 7164.6 1288.88 6983.23 1310.65C6859.06 1325.54 6734.84 1339.81 6610.46 1352.5C6510.47 1362.7 6409.98 1368.63 6309.44 1372.82C6148.32 1379.54 5988.6 1360.71 5828.51 1347.94C5673.28 1335.58 5518.62 1317.62 5363.76 1301.57C5288.36 1293.77 5213.5 1280.25 5138.3 1269.93C5059.38 1259.06 4979.83 1253.79 4900.74 1244.17C4864.04 1239.69 4827.79 1234.84 4789.18 1223.27C4786.11 1221.69 4786.15 1221.49 4786.07 1221.53C4772.25 1206.8 4771.34 1188.43 4771.3 1169.77C4771.13 871.287 4771.18 572.762 4771.3 274.28C4771.3 260.76 4771.67 247.239 4778.14 231.148C4786.52 217.918 4795.94 219.369 4806.06 221.236C4919.32 241.931 5034.41 247.24 5148.3 262.087C5224.57 272.04 5300.63 284.358 5376.86 294.934C5433.64 302.814 5491.12 305.965 5548.15 312.601C5637.9 323.052 5727.94 330.393 5817.77 340.471C5882.14 347.688 5947.04 350.632 6011.66 356.397C6121.69 366.226 6232.18 365.77 6342.58 364.484C6351.21 364.401 6359.88 364.982 6370.78 359.3Z" fill="#E7E5DF"/>
<path d="M1989.44 385.387C2152.43 429.763 2308.04 488.655 2470.66 522.372C2814.56 593.623 3159.38 659.607 3507.84 705.518C3565.9 713.149 3605.18 697.763 3644.87 654.879C3727.53 565.67 3816.28 482.143 3904.66 395.008C3920.34 383.686 3936.14 383.188 3952.02 383.188C4009.13 383.313 4066.2 382.566 4126.42 383.935C4162.09 396.377 4150.6 417.694 4139.45 437.187C4107.93 492.263 4077.53 547.961 4044.72 602.291C4039.04 611.706 4034.56 621.784 4029.04 634.309C4027.47 638.497 4026.8 640.115 4024.85 644.013C4018.72 652.972 4012.29 658.404 4007.31 667.985C4005.53 671.51 4004.86 672.962 4003.16 676.487C3999.93 682.749 3998.14 687.063 3995.37 693.532C3993.58 697.016 3992.84 698.385 3990.64 701.578C3985 707.924 3981.6 712.983 3977.32 720.158C3975.67 723.559 3975.04 724.886 3973.43 728.287C3970.4 734.301 3968.66 738.406 3966 744.586C3964.34 747.945 3963.6 749.231 3961.56 752.341C3955.18 759.558 3950.74 765.447 3946.43 774.198C3944.85 777.764 3944.23 779.216 3942.61 782.866C3939.38 789.626 3937.51 794.395 3933.36 801.155C3930.38 804.805 3929.01 806.132 3925.19 809.16C3917.39 814.178 3911.55 816.168 3902.09 817.537C3727.57 819.196 3556.32 818.076 3381.72 818.491C3373.96 818.491 3369.57 818.615 3362.02 819.113C3346.55 818.284 3334.23 817.081 3319.51 812.436C3310.63 812.187 3304.7 812.519 3295.87 811.855C3279.24 810.901 3265.8 808.786 3249.71 804.805C3238.88 805.842 3230.96 805.634 3220.05 804.722C3162.86 797.92 3108.65 789.833 3051.88 807.459C3041.18 810.113 3033.25 810.902 3022.39 812.27C3013.55 813.348 3007.62 814.095 2998.83 816.169C2991.74 817.745 2987.59 818.242 2980.13 818.367C2972.41 818.367 2967.97 818.408 2960.05 818.45C2579.32 818.491 2202.03 818.491 1824.79 818.367C1805.21 818.367 1785.43 820.274 1762.82 813.97C1742.96 797.671 1744.58 777.433 1744.2 758.272C1743.12 698.799 1743.7 639.368 1745.7 576.661C1738.06 542.114 1754.07 515.529 1763.53 484.425C1775.35 457.343 1785.22 432.873 1794.22 408.031C1798.78 395.423 1805.29 383.935 1821.84 377.507C1879.08 373.815 1932.99 375.018 1989.44 385.387Z" fill="#E08941"/>
<path d="M523.045 647.415C572.44 646.295 618.849 646.336 668.66 646.046C687.779 652.142 704.037 647.871 721.954 646.419C727.179 644.263 730.497 644.055 736.345 643.558C744.391 642.811 749.99 642.396 758.326 643.599C832.399 666.616 903.029 691.169 973.991 714.642C1016.05 728.536 1025.75 723.601 1037.07 680.759C1050.55 629.788 1065.61 579.274 1077.59 527.889C1081.2 512.461 1084.19 496.577 1097.33 482.019C1107.74 476.379 1115.25 477.955 1124.62 485.047C1127.94 488.987 1129.06 490.812 1131.22 495.54C1133.83 506.737 1133.71 515.115 1133.54 526.562C1105.59 661.806 1068.39 791.658 1039.02 923.419C1036.33 935.529 1032.76 947.141 1025.83 961.118C1022.27 965.265 1020.57 966.717 1015.75 969.62C910.66 976.919 808.634 972.232 706.608 973.643C667.25 974.182 627.891 973.228 585.131 974.638C541.003 978.163 500.068 975.716 456.023 979.739C409.406 966.8 364.656 978.619 318.039 970.242C300.413 957.219 306.426 945.233 315.343 933.911C373.158 860.504 398.664 776.769 396.425 683.911C396.176 672.879 396.342 661.64 407.125 650.981C446.525 648.12 483.313 649.613 523.045 647.415Z" fill="#E08941"/>
<path d="M4787.35 1224.18C4971.7 1245.25 5157.17 1269.55 5342.85 1292.12C5461.84 1306.55 5580.91 1320.9 5700.32 1330.93C5893.13 1347.11 6085.69 1373.15 6279.5 1367.8C6449.46 1363.12 6618.72 1344.45 6787.93 1326.16C6988.75 1304.47 7189.19 1280.63 7387.52 1242.89C7644.86 1193.91 7902.58 1147.25 8162.17 1112.7C8339.1 1089.15 8515.9 1063.76 8694.24 1050.41C8915.46 1033.86 9136.68 1021.05 9358.44 1012.5C9491.24 1007.36 9623.96 1005.25 9756.43 1008.4C9981.92 1013.79 10207.4 1024.2 10432.5 1037.72C10659.6 1051.36 10886.1 1074.3 11111.8 1103.41C11128.8 1105.61 11147.1 1105.32 11162.4 1111.83C11218.1 1135.64 11219 1106.32 11218.8 1062.44C11217.3 764.576 11217.6 466.716 11218.8 168.897C11218.9 137.958 11209.2 124.023 11179.1 120.249C11067.5 106.189 10956.2 89.3099 10844.4 76.9509C10607 50.7398 10368.3 41.6156 10130.1 25.4411C10061.6 20.7961 9992.87 23.2845 9924.06 19.2616C9788.07 11.2573 9651.37 8.14682 9515.21 11.755C9427 14.0775 9338.95 19.6764 9248.37 11.9209C9286.9 -3.54859 9329.12 3.37746 9370.55 3.12862C9544.04 2.05031 9717.69 -1.84818 9890.92 4.41428C10171.4 14.5752 10451.9 27.3075 10731.6 53.2697C10879.3 66.9973 11026.1 86.5312 11173.1 105.484C11211.4 110.42 11228.4 119.751 11227.8 168.482C11223.7 478.536 11225.1 788.631 11226.5 1098.73C11226.7 1134.43 11217.7 1136.01 11185.3 1131.45C11032.6 1109.96 10879.7 1087.4 10726.2 1074.67C10496.7 1055.59 10266.6 1039.83 10036.5 1031.17C9792.34 1022 9547.85 1011.8 9303.36 1028.26C9199.39 1035.27 9095.21 1039.21 8991.07 1043.53C8777.93 1052.4 8566.17 1074.3 8354.57 1101.3C8093.24 1134.64 7832.28 1170.43 7574.03 1222.07C7276.95 1281.46 6977.22 1321.35 6676.32 1352.62C6532.62 1367.56 6387.87 1381.78 6243.71 1381.08C6060.19 1380.16 5876.95 1361.42 5694.14 1341.68C5535.87 1324.59 5377.36 1310.11 5219.59 1288.26C5093.51 1270.8 4966.68 1258.44 4840.36 1242.72C4822.73 1240.56 4805.81 1232.19 4787.35 1224.18Z" fill="#D7D6D2"/>
<path d="M1937.64 357.06C1936.02 360.171 1936.35 362.12 1936.1 363.074C1931.62 368.673 1926.31 371.286 1917.15 372.364C1877.75 369.71 1842.41 355.153 1802.39 363.903C1792.52 367.843 1784.97 369.544 1774.77 372.447C1760.42 375.599 1748.76 375.806 1734.16 374.023C1725.54 372.654 1719.81 371.369 1711.1 370.166C1700.32 367.802 1692.32 368.051 1681.24 368.797C1644.25 372.364 1610.24 370.124 1573.08 370.498C1556.99 367.18 1544.63 369.834 1529.16 374.189C1467.82 374.23 1409.42 380.451 1348.42 369.585C1333.94 366.102 1322.95 359.507 1307.73 365.977C1275.75 371.991 1246.18 368.092 1214.12 371.659C1207.49 372.323 1203.71 372.364 1197.28 371.493C1189.78 369.627 1185.13 366.848 1177.21 369.917C1157.34 373.235 1140.51 367.636 1120.35 368.424C1102.64 371.41 1088.04 369.793 1070.17 367.636C1046.32 364.443 1025.33 363.821 1006.17 354.033C988.753 345.116 979.961 332.508 985.892 312.352C993.772 285.602 1031.14 255.161 1059.76 254.082C1201.76 248.649 1343.52 251.428 1485.53 259.723C1622.39 267.727 1757.02 288.008 1891.52 311.979C1905.08 314.385 1917.44 318.864 1932.78 325.79C1935.77 327.407 1935.48 327.656 1935.6 327.532C1940.66 335.702 1943.28 344.37 1937.64 357.06Z" fill="#E9E7E1"/>
<path d="M4123.23 731.605C4110.33 754.747 4099.3 776.106 4086.94 799.663C4062.84 823.717 4034.14 818.326 4006.89 818.367C3984.08 818.367 3961.1 820.897 3935.43 813.93C3930.83 810.529 3929.34 808.787 3928.59 803.644C3929.38 800.243 3929.38 800.285 3929.38 800.285C3934.81 795.142 3932.32 788.05 3935.31 780.005C3936.76 778.055 3936.76 778.097 3936.72 778.097C3944.93 770.715 3948.75 760.139 3957.29 750.144C3958.91 748.485 3958.91 748.526 3958.87 748.526C3964.3 743.425 3961.81 736.292 3964.84 728.246C3966.29 726.297 3966.29 726.338 3966.25 726.338C3974.46 718.956 3978.28 708.38 3986.82 698.385C3988.44 696.726 3988.44 696.768 3988.39 696.768C3993.83 691.667 3991.34 684.533 3994.37 676.488C3995.82 674.538 3995.82 674.58 3995.78 674.58C4003.99 667.197 4007.8 656.622 4016.35 646.627C4017.97 644.968 4017.97 645.009 4017.92 645.051C4052.76 573.924 4095.56 507.194 4133.76 437.934C4142.01 423.003 4149.27 407.741 4158.69 390.488C4162.67 387.668 4164.41 386.756 4169.1 385.055C4205.14 382.567 4238.28 381.986 4274.4 385.636C4283.48 389.783 4287.38 394.387 4287.26 404.797C4236.49 507.609 4185.77 607.227 4134.01 709.376C4134.51 719.827 4130.28 725.053 4123.23 731.605Z" fill="#E08941"/>
<path d="M1123.88 498.194C1122.26 496.328 1121.76 494.71 1121.97 493.922C1115.5 470.241 1125.83 462.112 1150.38 464.849C1167.3 472.398 1170.16 487.826 1180.53 500.89C1210.52 588.73 1244.61 672.132 1270.7 761.051C1266.3 784.939 1273.72 803.81 1283.3 824.795C1287.24 833.173 1288.2 839.974 1291.93 848.435C1295.21 857.02 1295.87 863.78 1299.89 872.116C1305.78 892.065 1311.71 909.318 1320.22 928.312C1324.11 936.648 1325.07 943.367 1328.88 951.786C1332.24 960.371 1333.53 967.131 1339.42 974.638C1357.96 1002.42 1371.35 1029.51 1374.55 1063.39C1369.53 1092.3 1385.08 1113.41 1393 1136.09C1409.01 1181.84 1420.46 1229.45 1445.92 1276.31C1469.98 1237.29 1478.27 1196.19 1492.25 1157.83C1535.05 1040.46 1576.98 922.755 1618.29 804.847C1622.73 792.239 1628.24 779.631 1625.09 762.876C1638.49 685.238 1673.08 617.18 1696.13 542.363C1710.15 518.018 1712.97 491.102 1734.91 471.278C1750.63 465.928 1761.91 468.706 1772.57 481.688C1766.39 509.018 1758.76 533.612 1750.8 560.943C1752.08 605.609 1730.31 642.106 1721.93 684.492C1707 705.104 1703.39 728.328 1689.75 749.355C1679.38 761.009 1672.41 771.585 1670.79 787.552C1669.72 791.534 1669.22 793.11 1667.85 797.008C1657.9 819.238 1649.77 839.518 1642.05 862.826C1640.81 867.098 1640.23 868.84 1638.61 873.07C1597.14 984.757 1557.61 1094.21 1518.71 1203.9C1504.4 1244.26 1481.47 1281.17 1471.47 1326.12C1470.77 1328.9 1473.05 1329.44 1472.92 1330.6C1437.25 1348.89 1431.03 1345.2 1416.31 1310.28C1353.27 1160.77 1305.91 1005.45 1245.35 852.043C1233.91 822.099 1229.93 792.446 1212.13 765.157C1179.58 717.131 1166.8 663.838 1148.26 610.006C1146.48 604.241 1145.82 600.882 1145.36 595.034C1145.4 584.831 1145.44 577.076 1142 567.454C1140.59 563.887 1139.93 562.477 1138.35 558.952C1136.2 553.934 1134.99 551.031 1132.96 545.847C1131.72 542.031 1131.38 540.455 1130.85 536.432C1129.64 522.539 1126.78 511.424 1123.88 498.194Z" fill="#99918B"/>
<path d="M171.719 677.482C201.415 669.188 221.82 645.382 254.128 652.267C268.436 662.137 279.634 673.128 295.229 654.133C316.754 652.267 336.454 651.935 359.43 651.728C377.223 664.46 379.047 682.252 378.218 698.966C373.697 791.451 344.831 873.858 274.74 938.058C261.261 950.417 247.534 963.316 223.852 959.459C211.493 946.768 201.954 935.072 192.539 920.847C190.424 910.023 188.309 901.603 178.023 899.53C151.646 894.263 148.328 874.356 147.996 849.845C154.217 804.639 175.369 763.747 161.89 716.467C158.489 705.518 159.236 697.224 164.13 686.98C166.12 683.413 167.033 682.003 171.719 677.482Z" fill="#DD8842"/>
<path d="M153.511 849.845C163.257 869.669 149.28 904.673 192.289 895.507C197.846 894.304 196.519 907.202 193.492 916.202C185.943 912.138 179.225 905.917 164.128 891.94C180.303 983.969 186.648 1066.33 190.34 1148.91C194.031 1231.32 194.985 1313.68 176.695 1394.68C173.335 1409.61 175.077 1432.58 150.608 1433.41C123.276 1434.37 124.977 1409.36 121.617 1393.52C96.111 1274.12 106.521 1153.68 115.77 1033.74C120.29 975.177 131.903 917.156 140.239 855.983C143.018 849.845 146.543 848.352 153.511 849.845Z" fill="#2C302A"/>
<path d="M177.069 684.243C164.336 682.542 168.4 694.818 164.668 702.325C160.603 708.338 156.124 708.961 149.405 705.684C118.549 546.386 105.816 387.709 119.503 227.623C121.576 203.361 128.668 179.514 133.438 155.501C136.009 142.478 140.945 132.027 156.829 132.234C172.838 132.442 176.363 143.888 179.93 156.247C202.782 235.42 201.497 316.707 198.594 397.663C195.359 488.406 189.594 579.149 173.751 671.469C175.451 674.372 176.446 674.786 176.861 674.455C175.824 675.782 175.202 677.524 175.493 679.349C175.741 681.174 176.073 682.086 177.069 684.243Z" fill="#2C302A"/>
<path d="M4008.56 945.731C3967.25 1047.05 3932.41 1154.09 3802.89 1173.42C3776.26 1177.4 3749.59 1182.79 3722.8 1183.62C3541.31 1189.47 3359.78 1193.62 3178.33 1199.63C2979.8 1206.22 2781.34 1214.27 2582.85 1221.57C2379.46 1229.03 2175.99 1235.79 1972.64 1243.96C1817.16 1250.23 1661.71 1258.15 1502.95 1265.41C1497.73 1257.49 1501.13 1251.47 1509.75 1244.42C1534.89 1234.14 1558.03 1229.16 1581.38 1229.82C1679.84 1232.77 1777.96 1224.22 1876.13 1220.45C2043.02 1214.02 2210.08 1212.03 2376.77 1200.75C2446.61 1196.02 2516.78 1196.48 2586.71 1194.32C2687.36 1191.21 2788.14 1187.06 2888.76 1183.46C3053.16 1177.52 3217.65 1171.8 3382.05 1164.83C3485.07 1160.48 3588.22 1153.59 3694.85 1154.8C3700.36 1154.63 3702.52 1154.55 3710.94 1154.34C3719.19 1154.18 3721.14 1154.09 3726.04 1154.22C3840.84 1158.99 3927.77 1098.68 3960.28 995.001C3965.47 978.412 3957.92 975.509 3945.06 974.845C3926.77 973.933 3908.4 974.97 3890.11 974.223C3874.51 973.56 3857.88 975.923 3845.15 959.21C3844.86 949.464 3848.72 944.86 3857.38 940.008C3909.27 932.667 3958.04 926.322 4008.56 945.731Z" fill="#D7D6D2"/>
<path d="M3977.95 328.859C4018.22 268.806 4078.07 234.341 4147.45 225.051C4212.81 216.301 4279.88 220.448 4346.19 218.333C4377.3 217.337 4383.81 228.618 4368.01 255.41C4354.9 277.598 4343.66 300.906 4329.94 325.582C4292.65 337.278 4256.36 328.071 4217.5 331.223C4212.03 335.163 4209.62 325.624 4210.16 331.264C4242.3 331.555 4271.5 330.808 4303.77 332.757C4309.24 337.651 4310.11 341.757 4308.12 349.222C4271.29 370.374 4232.43 354.033 4192.91 364.07C4185.23 365.77 4180.75 366.102 4172.87 365.604C4123.31 355.568 4076.53 362.825 4030.08 360.627C4009.3 359.632 3988.36 362.784 3964.8 355.899C3960.36 352.498 3958.91 350.757 3958.16 345.697C3959.45 339.891 3960.78 337.941 3964.47 335.702C4034.72 327.241 4103.45 333.131 4159.77 331.555C4108.42 330.103 4044.55 332.301 3977.95 328.859Z" fill="#DF8A44"/>
<path d="M4788.02 221.402C4787.31 554.597 4786.94 884.599 4786.32 1218.09C4786.07 1221.57 4782.79 1223.06 4781.05 1222.65C4745.92 1219.33 4737.42 1200.83 4737.5 1168.44C4738.58 868.632 4738.12 568.781 4738.25 268.971C4738.25 254.373 4736.55 239.277 4746.87 222.687C4748.04 219.204 4748.49 219.66 4748.2 219.826C4755.67 208.835 4767.32 214.766 4780.43 213.605C4785.15 215.347 4786.73 216.798 4788.02 221.402Z" fill="#99918B"/>
<path d="M8947.39 24.9019C8948.14 40.0396 8936.53 39.0856 8925.29 39.5833C8582.76 54.6795 8244.54 106.231 7905.94 156.247C7683.23 189.136 7463.91 240.48 7241.28 272.829C7078.12 296.551 6914.26 315.878 6750.44 334.707C6643.64 346.983 6536.35 354.987 6429.22 364.277C6417.32 365.314 6405.04 362.369 6390.61 359.134C6463.77 349.886 6539.17 342.503 6614.65 335.66C6841.56 315.131 7068.17 290.828 7292.5 251.138C7638.68 189.882 7984 124.52 8333.33 82.3007C8536.51 57.7486 8739.4 33.155 8947.39 24.9019Z" fill="#D7D6D2"/>
<path d="M1473.5 1398.45C1534.72 1429.89 1559.77 1472.65 1546 1526.02C1532.69 1577.66 1498.84 1606.11 1444.76 1604.7C1395.7 1603.41 1364.92 1575.63 1352.07 1529.26C1337.63 1477.21 1359.95 1435.36 1418.67 1401.89C1422.57 1396.88 1425.19 1394.1 1431.12 1390.82C1441.4 1387.88 1449.07 1387.42 1459.65 1389.2C1466.2 1391.07 1469.44 1393.1 1473.5 1398.45Z" fill="#2C302A"/>
<path d="M4124.8 733.056C4124.14 727.167 4126.96 720.904 4131.4 713.356C4204.81 725.093 4261.21 709.748 4314.46 650.773C4438.51 513.414 4571.02 383.727 4700.3 251.138C4710.46 240.686 4722.24 231.811 4735.76 222.065C4745.34 226.668 4745.75 233.719 4744.09 243.714C4736.88 258.603 4725.76 266.815 4716.1 276.063C4574.26 412.634 4443.36 559.988 4302.52 697.514C4274.69 724.678 4275.1 728.079 4303.64 756.654C4432.29 885.553 4561.19 1014.24 4689.8 1143.18C4705.52 1158.94 4724.68 1170.47 4741.56 1188.64C4746.37 1199.67 4745.63 1208.75 4743.14 1219.95C4728.21 1211.45 4714.02 1201.91 4702.08 1190.09C4573.14 1062.44 4441.25 937.477 4317.33 805.137C4262.54 746.618 4206.01 718.623 4124.8 733.056Z" fill="#A5A2A0"/>
<path d="M647.505 1413.34C697.564 1446.85 713.034 1491.52 690.555 1544.81C671.145 1590.8 632.533 1611.67 583.552 1603.95C534.364 1596.24 506.991 1563.35 499.692 1514.37C491.355 1458.3 530.092 1411.31 596.036 1399.95C600.308 1400.9 601.801 1402.14 604.745 1405.83C610.386 1419.52 609.93 1430.8 606.072 1444.82C602.547 1452.53 598.69 1456.51 592.262 1461.74C588.695 1464.39 587.202 1465.35 583.469 1467.59C572.893 1474.85 567.543 1483.31 566.631 1493.05C565.013 1510.43 567.958 1527.27 584.547 1537.06C597.778 1544.85 613.04 1547.05 625.233 1536.39C640.371 1523.16 643.731 1505.83 633.445 1484.55C630.376 1476.84 628.219 1471.65 626.27 1463.27C624.611 1441.79 622.538 1422.84 647.505 1413.34Z" fill="#2C302A"/>
<path d="M4790.63 224.637C4787.19 223.144 4786.65 221.692 4785.11 218.167C4783.33 215.056 4782.54 214.02 4783.24 211.697C4970.25 234.756 5155.39 262.377 5341.36 282.699C5594.31 310.32 5847.67 334.416 6101.24 355.609C6189.13 362.95 6278.13 357.102 6370.08 357.351C6367.96 378.917 6350.21 371.41 6336.94 371.742C6132.02 376.47 5928.8 353.743 5724.99 336.988C5478.76 316.749 5235.06 276.437 4989.29 253.129C4923.72 246.825 4858.77 234.3 4790.63 224.637Z" fill="#D7D6D2"/>
<path d="M221.613 960.869C304.644 925.16 378.716 787.594 367.021 687.104C365.901 677.4 364.864 667.695 363.205 654.921C414.26 637.585 466.89 647.249 522.548 645.631C488.539 648.368 451.006 650.4 410.071 652.972C390.785 682.086 402.357 713.398 398.002 743.3C385.518 829.44 353.334 905.17 288.386 968.334C278.972 993.674 292.824 1007.69 307.921 1020.96C392.859 1095.45 483.355 1161.52 587.869 1206.6C602.054 1212.69 619.058 1215.8 622.542 1238.57C514.709 1213.94 426.826 1152.47 342.385 1085.5C297.428 1049.87 253.548 1012.54 221.613 960.869Z" fill="#D7D6D2"/>
<path d="M1075.48 382.069C1053.16 385.594 1032.47 386.341 1008.29 386.838C1005.01 380.078 1014.63 371.659 1004.93 367.263C976.811 354.572 969.511 332.094 980.419 306.878C993.939 275.607 1016.67 249.355 1053.66 247.157C1339.79 230.153 1623.35 251.802 1904.42 307.293C1914.62 309.283 1923.58 317.371 1934.44 325.002C1656.44 268.515 1373.72 253.709 1089.2 261.092C1087.96 261.133 1086.76 261.216 1085.51 261.092C1038.69 256.654 998.336 276.851 994.644 321.145C991.119 362.867 1040.89 341.467 1066.89 355.319C1077.8 362.203 1079.21 370.125 1075.48 382.069Z" fill="#D7D6D2"/>
<path d="M4744.51 1222.65C4740.94 1213.36 4740.48 1204.73 4738.62 1193.91C4721.57 1176.82 4719.71 1157.45 4719.66 1137.54C4719.5 858.596 4719.54 579.689 4719.54 300.74C4719.54 283.073 4722.98 266.649 4734.3 248.774C4737.95 239.858 4738.82 233.388 4738.99 224.388C4739.7 220.655 4741.15 219.411 4745.29 218.665C4748.32 536.515 4748.65 853.868 4748.86 1171.22C4748.86 1191.96 4744.47 1214.77 4777.27 1220.08C4768.73 1222.56 4758.15 1222.94 4744.51 1222.65Z" fill="#8C7368"/>
<path d="M77.1575 838.606C62.8905 832.26 49.7018 828.901 38.0891 822.639C19.7576 812.768 0.223352 801.612 1.01136 777.142C1.79936 752.922 21.1676 742.471 40.2457 733.347C68.0332 720.075 97.5212 712.734 130.908 710.246C155.875 756.53 137.751 798.086 117.263 841.882C111.788 846.9 107.973 848.062 101.212 845.739C97.065 843.707 95.323 843.541 91.1756 842.421C85.4522 841.177 82.2174 840.804 77.1575 838.606Z" fill="#DF8A44"/>
<path d="M4012 945.98C3961.48 948.759 3911.96 949.173 3859 949.256C3841.66 915.87 3870.4 897.705 3884.55 871.826C3889.32 869.711 3891.39 869.254 3896.7 869.047C3945.43 875.185 3991.88 863.324 4039.2 879.042C4031.95 902.226 4022.49 922.962 4012 945.98Z" fill="#DF8A44"/>
<path d="M1390.97 1261.88C1155.64 1274.95 921.773 1297.71 684.127 1273C677.491 1269.89 675.749 1265.74 676.413 1257.53C686.947 1240.9 701.007 1242.93 714.154 1244.71C866.737 1265.74 1019.32 1251.93 1171.94 1245.87C1241.45 1243.09 1311.09 1240.61 1383.79 1244.63C1390.63 1249.56 1392.42 1253.63 1390.97 1261.88Z" fill="#D7D6D2"/>
<path d="M1391.68 1266.94C1389.27 1261.84 1388.86 1258.52 1387.78 1252.84C1374.59 1240.02 1365.3 1227.71 1360.28 1211.78C1334.53 1129.71 1302.09 1049.99 1271.48 966.592C1263.69 926.404 1241.29 892.811 1245.98 848.684C1289.69 910.479 1304.54 986.914 1332.74 1058.12C1364.72 1138.91 1394.41 1220.74 1421.08 1303.4C1429.79 1330.44 1443.77 1334.17 1469.52 1331.72C1472.76 1335.08 1472.72 1338.48 1472.34 1344.37C1455.3 1361.29 1439 1361.04 1421.54 1342.46C1411.21 1315.92 1402.46 1292.32 1391.68 1266.94Z" fill="#918780"/>
<path d="M650.825 1410.27C635.272 1424.79 637.221 1443.24 631.664 1461.74C630.917 1483.31 629.134 1501.6 614.12 1518.48C609.641 1520.18 607.651 1520.34 602.757 1519.6C581.978 1498.44 586.416 1476.5 596.66 1451.62C598.982 1436.69 599.563 1424.37 600.351 1408.99C609.226 1373.4 610.388 1339.68 618.143 1304.1C641.078 1290.21 655.76 1296.06 664.76 1321.89C660.903 1352.33 655.967 1379.83 650.825 1410.27Z" fill="#99918B"/>
<path d="M3896.2 875.848C3893.01 874.314 3889.32 874.231 3887.49 874.19C3883.76 875.558 3881.9 877.01 3876.88 880.245C3779.08 886.88 3684.44 887.544 3586.77 879.706C3580.3 874.314 3578.6 870.084 3579.63 861.831C3593.65 845.573 3610.37 848.766 3625.96 848.684C3704.55 848.186 3783.15 848.684 3864.85 848.227C3869.91 847.937 3871.86 847.73 3876.67 847.066C3887.12 844.744 3891.23 853.246 3899.94 851.006C3903.25 848.393 3904.87 847.771 3914.95 847.647C3965.63 852.25 4008.72 841.177 4052.48 857.269C4053.14 863.489 4051.86 867.346 4049.2 872.779C3998.48 881.945 3948.88 876.222 3896.2 875.848Z" fill="#E1995D"/>
<path d="M112.664 845.449C122.203 801.611 133.608 759.931 133.567 713.398C135.806 709.251 138.088 707.965 143.977 705.352C151.815 704.357 156.046 704.647 162.35 704.771C192.252 734.508 176.824 767.894 171.308 800.035C168.612 815.588 161.852 830.477 156.585 848.393C152.603 851.338 149.037 851.504 142.816 852.375C137.051 852.499 133.899 851.96 128.466 850.757C122.162 848.31 117.765 848.352 112.664 845.449Z" fill="#C97939"/>
<path d="M1509.21 1248.82C1505.02 1254.37 1502.87 1257.9 1500.17 1263.5C1491.55 1285.56 1483.42 1305.59 1473.05 1327.28C1468.11 1287.89 1489.55 1253.55 1502.58 1217.09C1544.05 1101.01 1586.89 985.421 1631.31 867.969C1652.71 897.249 1629.78 922.962 1622.31 953.487C1595.44 1035.4 1561.76 1111.83 1538.74 1195.03C1530.16 1214.73 1526.51 1233.93 1509.21 1248.82Z" fill="#918780"/>
<path d="M9228.01 10.1372C9229.83 18.0586 9225.68 24.5699 9217.14 23.9893C9134.56 18.5563 9052.53 40.9518 8967.51 26.5606C9051.37 14.9896 9137.8 9.39072 9228.01 10.1372Z" fill="#D7D6D2"/>
<path d="M667.044 1322.43C654.519 1314.05 643.943 1301.99 623.621 1302.44C620.013 1303.44 619.059 1304.52 616.57 1304.06C616.861 1284.77 618.686 1267.02 620.593 1246.25C620.676 1243.22 620.718 1243.92 621.05 1243.96C642.616 1230.61 660.035 1239.44 678.284 1255.99C679.984 1261.84 680.026 1265.16 680.482 1270.88C676.666 1288.88 672.436 1304.47 667.044 1322.43Z" fill="#8C7368"/>
<path d="M1910.22 361.249C1919.18 362.286 1924.74 363.032 1933.08 363.903C1953.36 370.788 1970.82 377.548 1990.31 385.76C1935.98 387.046 1879.66 386.88 1819.81 386.672C1811.52 380.534 1811.27 373.857 1815.95 364.153C1847.6 350.466 1877.25 365.645 1910.22 361.249Z" fill="#C97939"/>
<path d="M1419.42 1342.8C1433.85 1350.47 1450.44 1345.37 1468.94 1346.98C1473.09 1362.87 1474.17 1378.79 1475 1397.87C1472.18 1400.78 1469.56 1400.53 1465.13 1399.32C1454.92 1389.49 1446.13 1384.72 1434.19 1397.42C1429.87 1399.9 1427.22 1400.73 1422.57 1400.9C1420.04 1382.24 1419.5 1364.2 1419.42 1342.8Z" fill="#DAB6A3"/>
<path d="M4073.3 819.652C4073.46 826.122 4070.73 830.684 4066.29 836.366C4018.68 857.849 3971.11 846.61 3920.84 843.334C3907.4 830.85 3916.36 824.878 3926.81 817.288C3976.91 815.339 4023.69 812.478 4073.3 819.652Z" fill="#E6CAB1"/>
<path d="M3913.58 836.822C3963.1 836.491 4010.17 836.864 4060.94 837.361C4064.05 840.472 4063.51 843.458 4062.14 848.601C4012.49 861.748 3963.06 853.163 3910.76 853.743C3907.57 852.25 3906.82 851.421 3906.45 851.006C3904.87 845.075 3907.11 840.928 3913.58 836.822Z" fill="#E1995D"/>
<path d="M4147.25 396.584C4067.24 396.709 3990.52 395.796 3910.26 394.345C3909.85 388.829 3912.88 383.935 3921.42 378.585C3992.55 373.318 4058.24 376.594 4123.94 376.262C4132.52 376.221 4140.94 377.673 4149.94 386.133C4151.43 391.151 4150.98 393.349 4147.25 396.584Z" fill="#E2DCD4"/>
<path d="M3927.06 373.857C3928.55 368.175 3929.88 366.226 3936.47 363.821C4004.24 358.927 4067.24 361.705 4130.2 361.457C4138.74 361.415 4147.12 362.701 4156.53 370.581C4158.69 375.516 4158.73 377.755 4155.62 381.529C4081.09 382.898 4009.68 383.147 3934.81 382.442C3929.71 380.41 3928.05 378.834 3927.06 373.857Z" fill="#E6D0BB"/>
<path d="M3957.59 346.775C4029.42 348.766 4099.38 350.383 4171.3 354.572C4165.04 367.221 4153.47 364.443 4142.85 364.443C4082.26 364.443 4021.62 364.982 3957.54 363.779C3951.94 362.577 3949.79 361.747 3945.23 358.388C3944.94 354.075 3947.05 352.333 3951.12 349.886C3954.02 348.351 3954.85 347.397 3957.59 346.775Z" fill="#E6D0BB"/>
<path d="M3973.18 327.739C4043.48 326.951 4111.87 326.951 4180.22 326.951C4180.22 329.979 4180.26 333.006 4180.26 336.034C4111.16 336.034 4042.03 336.034 3969.45 335.412C3967.75 332.716 3969.49 330.601 3973.18 327.739Z" fill="#E2DCD4"/>
<path d="M884.243 496.867C874.538 530.875 846.004 550.575 815.438 570.938C826.511 537.925 854.506 518.101 884.243 496.867Z" fill="#E7E5DF"/>
<path d="M613.748 1305.14C614.992 1302.52 617.978 1302.36 619.472 1302.36C620.301 1336.95 617.978 1371.25 603.131 1405.01C600.476 1405.92 598.278 1403.18 598.569 1401.44C603.421 1369.05 607.942 1338.4 613.748 1305.14Z" fill="#918780"/>
<path d="M3928.96 811.4C3979.65 806.298 4029.46 804.473 4082.42 802.275C4083.91 805.635 4082.25 809.367 4078.77 814.22C4031.74 823.095 3986.16 816.625 3937.38 818.45C3932.03 817.04 3930.08 815.879 3928.96 811.4Z" fill="#E6D0BB"/>
<path d="M3894.83 876.885C3942.24 874.272 3991.51 874.231 4044.3 874.273C4047.33 876.678 4046.25 878.627 4042.98 880.908C3993.17 880.825 3944.93 880.12 3894.83 876.885Z" fill="#E6D0BB"/>
<path d="M3909.72 854.407C3956.55 851.877 4005.53 851.587 4057.95 851.006C4060.19 852.997 4059.03 855.319 4056.13 858.637C4006.9 858.637 3959.37 857.642 3909.72 854.407Z" fill="#E6D0BB"/>
<path d="M3928.6 816.003C3976.75 814.551 4023.41 814.8 4073.55 815.173C4077.03 815.298 4077.07 818.491 4076.66 820.026C4029.46 821.933 3982.72 822.307 3932.45 822.265C3928.35 820.482 3927.73 819.113 3928.6 816.003Z" fill="#E1995D"/>
<path d="M4189.63 359.425C4223.56 339.6 4261.88 354.075 4302.15 348.476C4308.54 346.278 4311.81 345.614 4317.46 347.231C4316.71 355.692 4313.72 362.867 4306.05 371.161C4265.57 360.71 4227.13 376.387 4189.63 359.425Z" fill="#E6D0BB"/>
<path d="M4306.71 372.613C4305.8 377.341 4304.14 381.405 4297.55 386.506C4252.59 384.184 4211.57 391.068 4172.05 375.848C4213.69 360.71 4256.2 364.235 4301.57 368.715C4304.51 370.498 4305.97 371.908 4306.71 372.613Z" fill="#E6D0BB"/>
<path d="M4285.76 397.539C4246.45 396.17 4209.7 395.34 4169.47 394.262C4165.45 391.857 4164.87 389.658 4166.94 385.428C4210.07 382.774 4250.51 382.898 4294.18 384.391C4297.38 385.47 4298.41 387.004 4298.91 387.834C4298.21 390.488 4296.67 392.022 4293.27 393.764C4290.57 395.506 4289.41 396.792 4285.76 397.539Z" fill="#E2DCD4"/>
<path d="M293.777 651.976C295.519 664.46 296.017 678.519 280.132 680.717C264.082 682.957 259.934 671.096 257.57 655.377C268.229 652.142 279.386 651.769 293.777 651.976Z" fill="#918780"/>
<path d="M4307.21 339.227C4272.7 337.651 4240.19 336.904 4204.11 335.702C4200.5 333.835 4200.37 332.508 4201.29 329.439C4241.97 327.49 4281.62 327.241 4324.75 327.283C4327.12 331.72 4326 335.909 4323.26 341.549C4317.33 342.628 4313.14 341.881 4307.21 339.227Z" fill="#E6D0BB"/>
<path d="M1002.32 386.921C1000.37 407.948 987.678 420.556 963.25 423.583C971.213 408.777 982.286 394.469 1002.32 386.921Z" fill="#E7E5DF"/>
<path d="M759.242 615.853C759.159 625.143 757.044 635.76 754.638 649.032C749.993 650.235 745.68 648.783 740.122 645.341C739.79 630.991 748.707 624.231 759.242 615.853Z" fill="#E7E5DF"/>
<path d="M1938.22 358.927C1935.85 351.379 1935.65 342.587 1935.61 330.601C1947.84 335.826 1956.76 344.826 1938.22 358.927Z" fill="#D7D6D2"/>
<path d="M720.627 644.138C708.226 645.672 692.549 646.875 674.508 646.875C687.199 645.092 702.295 644.428 720.627 644.138Z" fill="#D7D6D2"/>
<path d="M4781.59 209.872C4784.74 210.411 4784.57 213.232 4784.36 214.642C4774 216.674 4763.84 217.254 4750.81 218.913C4752.18 199.421 4767.9 211.946 4781.59 209.872Z" fill="#8C7368"/>
<path d="M4305.34 340.015C4309.61 338.813 4314.01 339.269 4320.02 341.343C4321.64 343.001 4320.81 345.863 4320.23 347.19C4316.5 348.642 4313.34 348.766 4307.87 348.476C4305.63 345.946 4305.59 343.789 4305.34 340.015Z" fill="#E1995D"/>
<path d="M109.591 843.624C115.605 844.702 119.462 845.946 124.729 848.642C118.301 848.974 110.421 847.854 100.633 845.283C101.628 843.79 104.531 843.79 109.591 843.624Z" fill="#E1995D"/>
<path d="M76.7031 838.233C78.9427 837.611 82.4681 838.274 87.4035 840.182C85.1639 840.762 81.597 840.14 76.7031 838.233Z" fill="#E1995D"/>
<path d="M4283.36 398.534C4284.6 396.46 4285.97 395.921 4289.54 394.801C4291.2 397.538 4290.74 400.815 4288.75 406.123C4286.01 405.46 4284.77 402.764 4283.36 398.534Z" fill="#E1995D"/>
<path d="M810.708 571.352C809.256 573.592 805.524 576.039 799.469 578.527C800.92 576.246 804.694 573.882 810.708 571.352Z" fill="#E7E5DF"/>
<path d="M3959.41 345.904C3959.49 347.107 3956.34 348.226 3954.76 348.724C3952.56 346.692 3953.35 344.701 3957.25 342.793C3958.87 342.379 3959.32 344.743 3959.41 345.904Z" fill="#E1995D"/>
<path d="M3935.48 363.323C3936.18 360.835 3937.92 359.217 3941.37 356.853C3942.9 355.9 3944.44 357.724 3945.18 358.637C3945.14 361.208 3944.35 362.867 3940.83 364.899C3938.13 365.231 3936.35 363.945 3935.48 363.323Z" fill="#E6D0BB"/>
<path d="M3926.44 371.493C3928.1 371.783 3928.39 373.152 3928.97 376.594C3928.26 379.954 3927.31 381.281 3924.41 381.073C3922.5 379.58 3921.34 378.502 3920.8 377.963C3921.75 375.682 3923.37 374.064 3926.44 371.493Z" fill="#E2DCD4"/>
<path d="M900.001 482.808C900.084 483.886 898.508 486.125 895.066 489.194C894.9 488.033 896.6 486.001 900.001 482.808Z" fill="#E7E5DF"/>
<path d="M959.019 424.372C959.102 425.491 957.485 427.523 953.959 430.261C953.835 429.017 955.577 427.15 959.019 424.372Z" fill="#E7E5DF"/>
<path d="M9919.29 724.928C9869.85 583.421 9844.1 439.302 9818.43 295.141C9817.6 290.372 9815.77 284.234 9817.85 280.708C9842.77 237.95 9886.94 243.673 9925.8 242.304C9952.35 241.35 9988.01 233.719 9995.44 277.432C10006.3 341.716 10017.8 405.875 10030.2 469.909C10032.5 481.771 10027.9 501.76 10045.5 502.839C10064.8 504 10075.6 488.116 10079.9 469.909C10089.7 427.98 10100.9 386.258 10107.7 343.872C10112.8 312.809 10130 299.454 10158.4 294.561C10202.1 287.012 10244.2 292.736 10285.3 307.998C10307.7 316.292 10320.2 331.845 10325.4 356.314C10336.1 405.584 10349.1 454.315 10362.4 502.963C10367.2 520.258 10379.1 537.262 10397.8 535.271C10413.7 533.57 10408.6 513 10410.9 500.89C10422.4 440.463 10433.7 379.954 10442.5 319.113C10446.8 289.459 10461.4 278.427 10489.6 281.787C10505.5 283.695 10521.6 284.234 10537.1 287.759C10623.6 307.583 10632.1 321.56 10616.2 408.446C10589.9 552.441 10563.1 696.353 10539.2 840.763C10533.1 877.632 10516.9 887.254 10482.5 884.392C10396.7 877.217 10340.3 822.971 10285.4 765.364C10229.2 706.431 10229.2 706.597 10170.6 765.281C10135.2 800.741 10103.5 840.68 10046.3 843.624C9978.06 847.108 9962.01 833.919 9919.29 724.928Z" fill="#312A28"/>
<path d="M9231.03 808.496C9181.81 862.453 9096.24 858.264 9047.64 801.86C9027.56 778.594 9009.11 753.917 8990.24 729.614C8972.49 706.762 8955.23 683.579 8928.98 648.99C8936.74 714.518 8941.3 765.364 8949.34 815.671C8954.07 845.158 8943.16 861.333 8916 866.434C8893.23 870.706 8869.71 873.733 8846.61 873.277C8800.54 872.406 8772.5 853.909 8767.52 801.487C8752.8 647.207 8734.43 493.258 8716.38 339.31C8713.44 314.177 8721.03 298.998 8744.63 291.242C8752.8 288.547 8760.72 285.104 8768.89 282.533C8864.32 252.797 8879.83 259.806 8920.44 348.89C8940.34 392.52 8960.42 436.067 8981.69 479.033C8990.24 496.327 9005.29 511.341 9025.74 504.539C9045.31 498.028 9033 478.66 9032.17 465.803C9028.52 409.358 9023.83 352.913 9017.53 296.675C9014.67 271.169 9023.91 256.82 9047.51 249.811C9054.56 247.695 9061.41 244.709 9068.46 242.719C9176.04 212.111 9194.25 224.761 9203 334.084C9215.56 490.977 9230.7 647.787 9231.03 808.496Z" fill="#312A28"/>
<path d="M9779.98 630.867C9702.01 753.461 9586.17 799.248 9450.72 795.142C9316.14 791.078 9223.23 641.566 9257.95 495.622C9298.76 323.965 9475.77 223.351 9643.82 276.312C9775.83 317.91 9845.05 495.125 9779.98 630.867Z" fill="#312A28"/>
<path d="M8267.8 846.485C8253.99 838.398 8242.58 831.762 8222.51 820.108C8232.84 863.116 8240.35 897.29 8249.47 931.008C8254.45 949.463 8251.58 962.195 8231.97 968.126C8229.65 968.831 8227.41 969.91 8225.17 970.947C8104.6 1026.4 8097.01 1023.16 8076.27 894.511C8049.81 730.319 8043.72 564.302 8034.26 398.617C8033.39 383.188 8037.58 373.525 8051.97 366.516C8129.82 328.651 8210.61 306.463 8297.91 320.315C8378.58 333.089 8416.82 385.718 8406.78 466.467C8398.32 534.4 8367.01 592.918 8330.1 648.244C8313.71 672.754 8319.19 682.459 8342.25 695.233C8381.98 717.255 8419.47 743.342 8459.08 765.654C8483.05 779.133 8486 796.013 8473.26 817.247C8450.49 855.278 8414.83 879.747 8378.74 903.345C8366.76 911.184 8357.84 901.811 8348.76 896.295C8322.46 880.411 8296.38 864.112 8267.8 846.485Z" fill="#312A28"/>
<path d="M5386.4 915.663C5418.38 942.911 5448.36 968.334 5478.27 993.84C5486.64 1000.97 5497.47 1007.65 5493.9 1020.71C5481.17 1067 5438.91 1079.69 5403.11 1100.38C5377.65 1115.15 5365.04 1097.11 5349.78 1083.67C5315.98 1053.98 5282.14 1024.32 5240.25 987.536C5248.09 1031.7 5254.27 1065.01 5259.74 1098.44C5261.36 1108.26 5269.32 1122.24 5251.86 1125.27C5208.02 1132.82 5163.89 1136.63 5120.93 1120.42C5104.25 1114.11 5104.05 1098.27 5101.85 1083.5C5072.86 888.249 5076.05 691.376 5072.32 494.876C5072.03 478.909 5076.09 470.324 5093.72 467.628C5190.81 452.863 5282.88 465.14 5365.5 520.672C5434.8 567.288 5456.04 641.857 5427.25 725.965C5415.18 761.134 5399.18 795.598 5373.71 821.975C5337.17 859.84 5337.17 888.291 5386.4 915.663Z" fill="#312A28"/>
<path d="M6081.3 850.176C6069.23 914.584 6086.03 965.97 6137.58 1002.34C6172.38 1026.85 6203.52 1017.44 6225.09 982.02C6244.79 949.712 6260.26 915.953 6210.57 894.553C6188.84 885.221 6186.93 867.388 6191.04 848.435C6195.73 826.869 6201.03 803.976 6228.12 799.082C6242.59 796.469 6257.36 795.183 6272.08 794.229C6426.49 784.276 6456.6 820.897 6417.03 970.159C6378 1117.35 6294.1 1173.34 6145.04 1151.69C5996.77 1130.16 5904.41 1027.97 5907.36 890.032C5912.46 651.23 6045.84 574.172 6279.83 581.264C6316.17 582.384 6350.13 598.725 6361.75 639.078C6369.34 665.455 6372.36 692.495 6351.54 715.679C6330.39 739.277 6303.93 737.618 6276.52 731.439C6275.31 731.19 6274.19 730.609 6272.99 730.319C6158.03 700.251 6105.73 732.185 6081.3 850.176Z" fill="#322B29"/>
<path d="M6943.04 531.331C6960.38 535.935 6974.9 538.921 6988.75 543.773C7071.49 572.638 7079.83 610.379 7018.57 673.003C7005.13 686.731 6992.44 690.92 6972.86 686.067C6943.25 678.768 6912.56 675.201 6882.12 672.257C6870.71 671.179 6855.87 672.796 6852.34 688.141C6848.48 704.979 6860.93 713.149 6873.7 718.085C6910.36 732.227 6947.94 744.006 6984.27 758.894C7074.56 795.888 7097.7 840.638 7075.26 935.695C7026.12 1144.01 6826.3 1147 6706.64 1068.33C6667.91 1042.86 6700.05 994.006 6714.4 958.256C6727.34 925.99 6750.81 934.824 6775.12 947.846C6808.83 965.929 6844.46 979.78 6883.86 978.536C6920.07 977.375 6941.14 957.178 6946.82 922.838C6952.25 890.033 6927.95 876.346 6902.69 868.342C6868.81 857.6 6834.05 849.264 6799.21 841.965C6739.2 829.357 6690.76 803.561 6685.53 735.296C6679.93 661.64 6696.9 594.785 6764.5 552.814C6818.91 519.013 6879.38 521.626 6943.04 531.331Z" fill="#322B29"/>
<path d="M7914.44 407.989C7952.06 399.819 7982.59 400.151 7990.22 444.735C7998.88 495.415 7976.7 539.833 7938.42 547.547C7919.17 551.404 7899.39 556.215 7880.1 555.385C7846.18 553.892 7835.73 565.505 7839.79 600.176C7842.9 626.843 7848.29 637.792 7876.87 631.198C7916.64 622.032 7948.66 628.627 7962.6 675.16C7978.23 727.25 7961.31 752.341 7903.91 762.917C7884.21 766.525 7851.36 750.309 7848.54 792.114C7845.76 833.421 7854.18 854.365 7902.04 839.145C7928.59 830.726 7957.87 831.182 7985.74 826.703C8026.05 820.233 8040.77 840.679 8037.58 877.093C8033.23 926.778 8019.33 966.592 7956.96 970.2C7895.82 973.725 7835.06 984.384 7774.26 992.969C7747.72 996.701 7732.54 986.665 7724.74 961.491C7680.12 816.956 7657.35 669.602 7667.72 518.142C7670.95 470.987 7691.56 442.412 7744.44 437.601C7800.56 432.417 7855.8 418.44 7914.44 407.989Z" fill="#322B29"/>
<path d="M5774.1 806.92C5822.5 825.417 5827.19 864.816 5822.42 904.382C5817.48 945.274 5782.6 938.846 5755.52 934.865C5714.96 928.934 5696.54 938.971 5702.76 984.01C5705.67 1004.83 5711.64 1011.05 5731.67 1010.76C5767.26 1010.3 5802.92 1012.59 5838.55 1012.92C5869.82 1013.21 5890.1 1027.06 5886.04 1059.37C5881.64 1094.12 5884.29 1142.6 5837.51 1146.34C5763.11 1152.27 5687.83 1147.71 5613.47 1134.93C5591.03 1131.07 5581.7 1118.01 5576.64 1099.51C5535.42 948.717 5520.44 795.432 5535.21 639.659C5539.85 590.845 5559.93 565.131 5617.08 574.38C5671.24 583.13 5727.4 578.942 5782.6 581.969C5840.42 585.163 5859.99 606.646 5856.01 658.902C5852.24 708.836 5834.07 742.097 5775.55 730.194C5770.78 729.241 5764.89 727.457 5761.03 729.241C5742.41 737.826 5711.27 700.292 5702.81 744.503C5694.59 787.386 5711.47 808.62 5756.56 804.39C5761.28 803.975 5766.22 805.8 5774.1 806.92Z" fill="#322B29"/>
<path d="M7215.61 637.336C7186.83 641.442 7161.07 644.014 7135.86 649.239C7108.61 654.88 7081.86 655.294 7085.84 619.171C7089.45 586.407 7054.94 536.432 7119.85 525.234C7271.14 499.189 7422.56 473.974 7573.65 446.809C7609.94 440.297 7622.18 452.49 7624.25 487.784C7627.4 541.533 7615.75 579.647 7551.42 576.122C7485.73 572.555 7470.38 604.365 7473.08 666.99C7477.56 771.129 7471.34 875.807 7468.6 980.195C7467.56 1019.97 7364.88 1073.14 7331.65 1052.11C7317.59 1043.19 7320.83 1028.51 7319.83 1015.49C7311.46 908.944 7300.42 802.441 7296.15 695.73C7293.87 638.207 7276.45 614.899 7215.61 637.336Z" fill="#322B29"/>
<path d="M10657.3 445.108C10657.6 387.419 10659.5 333.255 10657.8 279.215C10656 221.526 10689.6 204.024 10738.8 202.407C10805.1 200.209 10855 230.94 10855 278.552C10855 427.233 10843.4 575.956 10856 724.637C10857.6 743.964 10844.4 752.424 10827.8 758.148C10762 780.833 10689.3 740.978 10679.8 672.422C10669.5 598.227 10664.6 523.326 10657.3 445.108Z" fill="#322B29"/>
<path d="M6575.09 589.393C6618.88 596.444 6635.68 621.991 6638.04 661.681C6645.26 782.036 6652.93 902.35 6661.56 1022.62C6665.62 1079.56 6625.02 1093.21 6583.84 1103.37C6540.21 1114.15 6496.58 1105.32 6485.84 1056.55C6456.93 925.409 6440.96 792.073 6441.87 657.575C6442.16 612.867 6499.89 585.163 6575.09 589.393Z" fill="#322B29"/>
<path d="M10886.1 902.516C10899.8 943.409 10883.8 948.676 10849.4 943.201C10767 930.096 10737.3 908.903 10726.9 849.057C10725.1 838.813 10719.8 827.698 10735 821.145C10783.7 800.16 10873.5 846.652 10886.1 902.516Z" fill="#322B29"/>
<path d="M3582.45 857.144C3583.03 862.702 3583.07 865.812 3583.49 871.287C3582.78 878.088 3580.67 882.028 3574.69 887.295C3569.8 890.074 3567.69 890.904 3562.38 892.853C3546.62 900.318 3533.05 899.986 3519.53 899.945C3347.75 899.613 3175.92 899.986 3004.14 899.696C2990.66 899.696 2977.1 900.152 2960.92 894.47C2953.46 892.811 2949.18 892.106 2941.84 890.572C2936.99 888.706 2935.17 887.669 2931.1 884.517C2927.87 880.66 2926.83 878.918 2924.8 874.356C2923.06 867.72 2922.64 863.863 2922.56 857.144C2922.77 850.675 2923.26 847.066 2924.72 840.887C2927.16 833.38 2929.69 828.818 2934.38 822.68C2937.32 819.819 2938.65 818.823 2942.18 816.915C2950.55 814.842 2956.86 815.256 2965.19 813.473C2971.62 811.358 2976.14 811.441 2982.36 809.45C2986.72 807.252 2989.29 806.257 2993.89 805.22C3000.74 805.344 3005.3 803.934 3011.85 801.902C3020.98 799.621 3028.23 798.75 3038.19 798.252C3098.37 791.285 3155.93 792.28 3216.9 795.474C3228.06 795.059 3235.89 795.557 3246.55 796.718C3262.19 802.607 3275.38 805.427 3291.68 802.897C3299.56 802.524 3305.03 802.939 3313.2 804.059C3326.51 808.413 3336.97 812.851 3350.94 810.238C3356.46 809.658 3359.65 809.865 3365.29 810.57C3388.89 819.072 3411.87 811.897 3435.72 818.989C3441.48 819.404 3444.72 819.736 3450.31 820.607C3458.77 822.266 3464.91 823.302 3473.54 822.307C3480.67 821.851 3485.36 822.307 3492.24 824.173C3503.44 831.929 3513.85 834.5 3527.25 835.288C3531.11 835.952 3532.64 836.283 3536.41 837.154C3543.17 838.938 3547.49 840.887 3554.54 841.675C3561.71 842.463 3566.4 843.624 3573.2 846.278C3578.1 849.389 3580.25 851.877 3582.45 857.144Z" fill="#E7E5DF"/>
<path d="M1614.48 960.412C1618.87 929.763 1626.17 901.064 1633.47 869.337C1633.43 866.31 1633.84 864.236 1633.76 863.199C1635.3 857.02 1639.03 853.411 1644.67 848.144C1655.91 840.886 1667.4 843.416 1677.14 838.108C1674.41 829.357 1663.79 830.103 1658.48 821.021C1655.54 811.316 1658.73 804.432 1661.01 795.183C1662.67 793.027 1662.25 792.985 1662.42 793.109C1667.52 786.101 1666.61 776.603 1673.45 767.603C1701.74 750.351 1703.81 723.393 1708.41 694.859C1721.77 650.856 1734.29 609.217 1748.64 565.629C1767.64 621.244 1754.29 680.136 1758.06 738.323C1759.43 759.101 1758.35 780.045 1758.43 804.432C1759.59 809.077 1760.67 810.238 1763.16 813.307C1765.15 816.708 1765.73 818.201 1766.85 822.016C1767.81 827.532 1768.05 830.726 1768.34 836.324C1768.72 845.283 1769.01 851.794 1770.96 860.752C1771.29 872.406 1773.28 881.157 1776.18 892.769C1778.46 916.907 1781.24 938.266 1765.28 959.458C1714.35 974.389 1665.9 974.057 1614.48 960.412Z" fill="#DD8842"/>
<path d="M1761.66 816.625C1758.93 814.178 1758.51 811.068 1758.51 809.492C2159.81 807.542 2561.11 807.211 2965.9 807.335C2970.79 809.077 2972.25 810.321 2971.46 813.349C2964.03 817.703 2958.81 820.275 2951.3 822.888C2564.81 829.648 2180.55 824.298 1796.34 825.791C1785.3 825.874 1774.11 825.874 1761.66 816.625Z" fill="#E6CAB1"/>
<path d="M1816.54 361.415C1817.82 369.005 1817.28 374.853 1816.45 383.686C1803.35 417.902 1790.49 449.172 1775.85 482.392C1763.28 481.604 1752.54 478.867 1738.98 476.213C1728.4 469.038 1730.93 460.412 1733.79 449.38C1735.7 443.657 1736.91 440.422 1738.9 434.74C1740.76 429.017 1741.84 425.74 1743.87 420.017C1752.71 400.193 1753.87 379.498 1771.08 363.779C1778.13 360.254 1784.23 359.217 1792.65 358.014C1801.69 357.434 1808.36 356.77 1816.54 361.415Z" fill="#8C7368"/>
<path d="M3447.04 825.957C3419.42 823.634 3394.78 819.736 3368.86 813.473C3435.89 809.699 3504.11 807.335 3572.38 807.086C3683.65 806.672 3794.92 807.584 3909.52 808.579C3913.42 814.22 3911.63 818.077 3904.29 822.183C3766.68 827.533 3632.14 827.533 3497.6 823.468C3481.63 823.012 3465.87 823.012 3447.04 825.957Z" fill="#E6D0BB"/>
<path d="M4143.76 400.068C4145.17 396.958 4146.41 396.335 4153.09 395.008C4122.65 482.226 4069.11 560.445 4019.92 643.682C4041.9 568.574 4092.95 506.198 4128.08 435.445C4133.52 424.62 4138.45 413.547 4143.76 400.068Z" fill="#C97939"/>
<path d="M3217.07 793.773C3163.15 806.588 3105.46 797.423 3044.5 799.164C3098.04 780.792 3156.02 786.971 3217.07 793.773Z" fill="#E6D0BB"/>
<path d="M3905.2 816.791C3908.81 814.261 3910.18 813.017 3912.17 810.446C3916.77 806.464 3920.67 803.685 3927.02 800.575C3929.51 801.57 3929.55 802.897 3929.75 806.132C3929.92 808.081 3929.75 811.192 3929.92 812.727C3929.88 815.547 3929.67 816.791 3929.21 819.943C3924.98 825.293 3920.92 828.735 3916.44 834.127C3913.58 839.726 3911.13 843.375 3907.4 848.767C3906.11 850.509 3903 851.338 3901.43 851.587C3897.36 849.513 3895.29 846.859 3892.92 841.426C3892.01 835.537 3892.26 832.178 3894.09 826.496C3897.24 821.519 3899.89 819.487 3905.2 816.791Z" fill="#C97939"/>
<path d="M4015.56 645.589C4016.1 657.077 4013.32 668.441 3998.31 674.372C3997.73 662.884 4000.51 651.52 4015.56 645.589Z" fill="#C97939"/>
<path d="M3985.99 697.265C3986.53 708.753 3983.75 720.117 3968.74 726.047C3968.2 714.559 3970.98 703.196 3985.99 697.265Z" fill="#C97939"/>
<path d="M3956.46 748.982C3957.04 760.47 3954.18 771.793 3939.21 777.765C3938.67 766.277 3941.45 754.913 3956.46 748.982Z" fill="#C97939"/>
<path d="M3291.31 801.238C3279.86 809.906 3265.76 810.902 3250.58 799.496C3262.44 798.418 3275.5 799.372 3291.31 801.238Z" fill="#E6D0BB"/>
<path d="M3350.53 808.538C3341.28 816.957 3329.59 818.035 3316.89 806.796C3326.52 805.759 3337.22 806.713 3350.53 808.538Z" fill="#E6D0BB"/>
<path d="M3934.94 779.714C3935.56 784.442 3934.32 790.746 3931.21 798.708C3930.58 793.98 3931.83 787.676 3934.94 779.714Z" fill="#C97939"/>
<path d="M3964.47 727.997C3965.09 732.725 3963.84 739.029 3960.73 746.992C3960.11 742.305 3961.36 735.96 3964.47 727.997Z" fill="#C97939"/>
<path d="M3994 676.321C3994.62 681.049 3993.37 687.353 3990.26 695.316C3989.68 690.588 3990.93 684.284 3994 676.321Z" fill="#C97939"/>
<path d="M2971.41 815.007C2969.26 815.173 2969.26 811.524 2969.3 809.699C2972.66 807.75 2975.93 807.667 2981.7 807.916C2980.62 810.445 2977.1 812.643 2971.41 815.007Z" fill="#D7D6D2"/>
<path d="M3011.27 800.243C3009.37 802.441 3005.09 804.39 2998.38 805.759C3000.24 803.478 3004.55 801.736 3011.27 800.243Z" fill="#E6D0BB"/>
<path d="M681.85 1256.7C662.274 1253.54 644.565 1248.53 624.118 1243.8C619.265 1226.84 604.542 1225.47 592.307 1220.37C476.969 1172.05 377.514 1099.93 286.271 1015.57C275.82 1005.91 261.885 996.66 273.414 976.587C275.53 966.136 282.207 964.643 292.285 963.316C345.496 976.463 396.011 969.205 449.388 967.131C491.733 965.182 530.968 964.394 573.644 964.145C709.554 968.997 842.063 965.431 974.573 966.509C1022.81 966.882 1023.06 966.965 1011.77 1014.12C1011.19 1016.48 1010.61 1018.89 1009.95 1021.25C1002.15 1050.7 994.853 1080.31 987.347 1109.84C985.522 1114.44 981.582 1108.02 985.978 1110.3C987.264 1110.96 988.176 1110.42 988.549 1108.64C995.434 1076.25 1004.31 1044.35 1012.23 1012.21C1025.17 959.541 1025.21 959.873 1081.24 959.251C1141.38 958.588 1201.52 961.532 1264.72 957.551C1269.87 958.007 1271.9 958.505 1276.75 960.371C1316.77 1036.18 1339.63 1116.02 1366.75 1194.24C1372.72 1211.49 1380.31 1228.2 1387.11 1247.82C1232.96 1257.9 1078.84 1267.02 924.638 1272.13C844.096 1274.74 763.678 1265.78 681.85 1256.7Z" fill="#E9E7E1"/>
<path d="M1269 961.201C1203.22 977.956 1134.5 968.417 1066.15 969.33C1036.95 969.703 1024.67 979.076 1019.28 1007.03C1009.25 1059.45 989.587 1109.8 984.112 1163.67C966.444 1130.33 984.693 1099.18 991.785 1068.33C1014.39 970.035 1015.3 970.574 913.773 970.2C803.245 969.786 692.717 968.79 579.617 966.343C722.329 963.814 867.612 962.984 1016.34 961.74C1023.64 958.381 1027.78 955.975 1035.71 953.113C1107.08 944.57 1175.06 948.593 1243.03 949.962C1251.62 950.086 1259.71 953.196 1269 961.201Z" fill="#D7D6D2"/>
<path d="M1075.68 386.838C1072.53 377.382 1071.25 369.917 1069.63 359.59C1085.14 357.434 1100.98 358.18 1120.02 359.798C1124.54 361.664 1125.83 362.659 1128.85 365.355C1133.5 371.12 1135.61 375.599 1138.48 382.484C1139.89 386.507 1140.34 388.165 1141.42 392.313C1147.39 420.39 1167.18 442.952 1156.27 473.517C1139.64 468.167 1127.11 466.757 1122.67 490.272C1117.37 489.609 1112.51 486.208 1105.5 482.102C1107.58 447.016 1087.5 419.353 1075.68 386.838Z" fill="#8C7368"/>
<path d="M297.51 968.5C289.713 969.329 284.197 970.49 276.234 972.979C363.537 887.212 395.638 778.345 394.269 656.663C394.269 655.584 398.209 654.506 403.518 653.469C414.177 766.815 386.97 869.254 311.072 958.961C308.791 966.426 304.81 968.334 297.51 968.5Z" fill="#C97939"/>
<path d="M1022.47 957.012C1054.12 814.385 1088.33 673.335 1123.09 529.423C1131.63 525.774 1133.71 530.875 1134.78 540.372C1140.3 585.827 1123.3 624.853 1115.13 665.165C1110.27 689.012 1103.02 712.486 1096.88 739.195C1077.01 811.814 1070.46 884.849 1039.02 954.026C1033.17 958.256 1029.27 959.085 1022.47 957.012Z" fill="#C97939"/>
<path d="M297.426 970.532C299.002 966.343 302.776 964.56 308.582 962.072C355.945 962.196 401.277 962.984 449.511 964.85C402.438 988.697 350.844 976.338 297.426 970.532Z" fill="#D7D6D2"/>
<path d="M1132.46 543.358C1129.43 537.842 1128.11 533.695 1125.25 528.013C1123.17 518.474 1122.72 510.47 1122.3 499.438C1133.04 507.65 1135.95 521.999 1137.9 539.418C1136.57 542.985 1135.37 543.856 1132.46 543.358Z" fill="#8C7368"/>
<path d="M1019.82 956.846C1023.09 955.353 1026.29 955.353 1031.97 955.27C1034.37 955.187 1036.78 957.966 1035.66 959.459C1031.26 961.408 1027.99 961.906 1022.22 961.823C1019.77 961.242 1019.82 958.298 1019.82 956.846Z" fill="#DD8842"/>
<path d="M1334.98 357.226C1398.97 365.272 1460.77 364.65 1526.09 363.033C1540.15 359.051 1551.18 361.996 1564.08 358.719C1604.19 357.475 1642.13 357.89 1683.61 359.258C1698.83 368.631 1711.4 376.802 1692.48 394.179C1672.87 402.142 1655.57 401.229 1638.48 401.229C1514.64 401.354 1390.8 401.395 1266.96 401.229C1247.43 401.188 1227.56 402.639 1206.58 390.363C1199.07 381.529 1198.36 374.479 1202.68 363.737C1236.6 359.258 1268.87 358.056 1304.49 356.812C1316.02 357.226 1324.28 357.143 1334.98 357.226Z" fill="#DAB6A3"/>
<path d="M1701.32 386.341C1696.18 377.341 1691.45 370.788 1686.93 362.245C1693.86 360.088 1700.62 359.922 1709.91 359.632C1716.58 360.047 1720.69 360.959 1726.95 360.71C1741.3 360.503 1753.62 360.71 1769.01 361.125C1766.14 380.949 1760.21 400.607 1752.29 422.008C1731.22 421.842 1729.81 395.382 1707.67 393.516C1704.22 391.11 1702.98 389.949 1701.32 386.341Z" fill="#C97939"/>
<path d="M1201.93 360.42C1204.63 367.18 1205 373.899 1202.97 386.341C1179.2 402.018 1157.85 402.391 1134.08 389.534C1131.09 385.76 1130.64 384.143 1129.56 380.078C1126.82 373.608 1126.95 368.839 1124 362.701C1123.17 360.586 1123.26 360.503 1123.26 360.586C1140.84 360.461 1158.47 360.213 1178.91 359.756C1183.14 360.254 1184.55 360.918 1188.04 360.586C1193.26 359.881 1196.42 360.13 1201.93 360.42Z" fill="#C97939"/>
<path d="M1821.76 363.074C1811.93 362.369 1805.42 361.581 1797 359.342C1833.04 339.186 1870.78 359.756 1911.18 360.13C1884.14 362.037 1854.61 362.535 1821.76 363.074Z" fill="#DAB6A3"/>
<path d="M1335.81 355.484C1329.51 365.479 1320.63 365.562 1309.52 358.512C1315.78 348.517 1324.61 348.309 1335.81 355.484Z" fill="#D7D6D2"/>
<path d="M1563.46 357.019C1557.41 366.558 1545.96 363.737 1532.36 363.281C1539.95 360.876 1550.31 358.885 1563.46 357.019Z" fill="#D7D6D2"/>
<path d="M1727.07 359.217C1724.75 360.752 1720.48 361.249 1714.34 360.586C1716.7 359.051 1720.93 358.637 1727.07 359.217Z" fill="#DAB6A3"/>
<path d="M1189.2 358.968C1188.74 360.088 1187.38 360.544 1183.89 360.337C1183.69 358.014 1185.84 357.6 1189.2 358.968Z" fill="#DAB6A3"/>
<path d="M4167.44 385.221C4166.86 387.792 4166.37 390.902 4166.2 392.478C4164.79 394.054 4163.55 394.096 4160.44 394.262C4158.57 394.386 4158.44 394.22 4158.4 394.179C4155.83 391.317 4154.8 387.999 4156.95 382.152C4158.69 380.078 4158.69 379.497 4158.9 379.663C4162.72 378.626 4165.7 379.539 4167.44 385.221Z" fill="#C97939"/>
<path d="M1366.21 1069.16C1356.38 1038.55 1346.01 1010.84 1333.32 982.103C1328.14 977.334 1326.69 973.062 1327.76 964.975C1343.36 947.307 1362.19 949.09 1380.1 948.883C1434.56 948.22 1489.06 949.298 1546.66 947.431C1563.21 952.45 1566.16 961.947 1561.88 974.223C1527.13 1073.84 1492.62 1173.58 1454.88 1272.13C1453.14 1276.6 1449.7 1280.3 1441.07 1280.67C1412.79 1213.07 1389.85 1142.31 1366.21 1069.16Z" fill="#E7E5DF"/>
<path d="M1364.93 1068.04C1392.59 1135.35 1418.39 1204.48 1447.25 1281.87C1485.62 1171.14 1521.49 1067.66 1557.49 961.574C1569.31 894.47 1587.64 832.26 1622.77 773.037C1626.38 769.138 1628.16 767.479 1631.31 764.618C1642.84 771.461 1638.07 780.668 1634.76 789.958C1577.19 951.454 1519.87 1113.08 1461.64 1274.32C1458.53 1282.95 1459.69 1300.37 1444.35 1297.42C1438.29 1296.26 1433.19 1282.7 1430.25 1273.95C1407.48 1206.06 1376.29 1140.9 1364.93 1068.04Z" fill="#918780"/>
<path d="M1152.12 599.845C1140.93 650.898 1115.34 696.726 1123.76 751.844C1109.16 766.94 1099.2 757.153 1087.92 743.715C1101.03 676.777 1115.75 612.328 1130.6 544.934C1130.72 541.99 1134.25 542.073 1135.99 542.114C1137.73 542.156 1137.94 541.907 1137.81 541.865C1141.05 544.934 1141.51 549.289 1143.83 555.137C1144.99 556.92 1145.32 556.588 1145.07 556.63C1152.08 563.97 1147.11 574.339 1151.5 585.08C1151.79 591.011 1151.92 594.246 1152.12 599.845Z" fill="#DD8842"/>
<path d="M1200.32 386.797C1193.68 423.791 1183.77 460.743 1172.9 500.433C1167.01 494.959 1162.08 486.789 1155.77 477.125C1146.77 448.053 1139.1 420.473 1131.47 390.156C1153.41 387.17 1175.22 387.004 1200.32 386.797Z" fill="#DD8842"/>
<path d="M1710.24 536.971C1708.87 490.438 1708.66 441.998 1708.37 390.115C1735.37 380.949 1744.58 396.128 1748.44 421.676C1749.97 426.984 1749.68 430.219 1749.02 435.86C1747.98 439.758 1747.36 441.21 1745.16 444.527C1741.26 454.605 1738.9 462.859 1736.41 473.683C1727.99 495.871 1719.69 515.447 1710.24 536.971Z" fill="#DD8842"/>
<path d="M1707.21 692.993C1711.48 721.817 1716.04 751.927 1680.75 769.843C1671.62 765.323 1673.57 758.604 1677.51 750.434C1688.71 730.361 1696.96 711.905 1707.21 692.993Z" fill="#E7E5DF"/>
<path d="M1210.89 772.456C1211.85 766.567 1212.55 763.291 1213.59 758.355C1243.24 776.272 1241.13 809.409 1249.13 841.177C1249.3 844.08 1248.47 844.744 1248.01 845.076C1220.26 839.726 1224.29 813.1 1213.5 793.276C1211.06 785.645 1210.23 780.419 1210.89 772.456Z" fill="#918780"/>
<path d="M1660.59 794.52C1662.5 801.114 1662.29 809.284 1662.13 820.482C1663.62 832.675 1660.3 840.016 1651.68 847.647C1646.04 852.831 1642.26 856.356 1636.08 860.96C1641.97 840.14 1650.22 818.118 1660.59 794.52Z" fill="#8C7368"/>
<path d="M1262.65 771.378C1264.6 769.594 1267.63 770.009 1269.08 770.507C1284.67 784.815 1289.03 801.487 1281.52 825.334C1265.26 813.224 1255.06 795.598 1262.65 771.378Z" fill="#8C7368"/>
<path d="M1318.35 929.059C1300.72 918.359 1297.45 898.825 1295.79 876.181C1322.04 882.858 1324.28 902.682 1318.35 929.059Z" fill="#8C7368"/>
<path d="M1677.93 750.061C1679.46 754.166 1678.43 759.558 1677.85 767.645C1674.32 777.101 1670.34 783.82 1664.49 791.907C1661.55 777.64 1662.75 762.751 1677.93 750.061Z" fill="#8C7368"/>
<path d="M1153.12 586.117C1149.3 579.274 1146.98 570.689 1144.74 559.408C1153.95 563.887 1155.85 573.592 1153.12 586.117Z" fill="#8C7368"/>
<path d="M1293.51 873.816C1290.48 868.466 1288.04 862.743 1288.04 853.951C1297.95 854.49 1299.19 860.794 1296.5 870.416C1295.17 872.614 1294.09 873.402 1293.51 873.816Z" fill="#8C7368"/>
<path d="M1286 851.753C1283.05 846.361 1280.61 840.638 1278.12 832.468C1278.04 830.021 1278.95 829.399 1279.4 829.067C1290.02 830.27 1291.14 837.361 1288.9 848.186C1287.53 850.716 1286.5 851.421 1286 851.753Z" fill="#8C7368"/>
<path d="M1333.53 961.491C1333.28 967.67 1333.12 971.569 1332 978.288C1328.26 974.431 1325.44 967.753 1324.61 957.427C1329.59 954.814 1331.91 956.597 1333.53 961.491Z" fill="#8C7368"/>
<path d="M1322.91 955.145C1319.97 949.795 1317.52 944.072 1315.03 935.902C1314.95 933.455 1315.86 932.791 1316.36 932.501C1326.94 933.662 1328.06 940.713 1325.86 951.496C1324.45 953.984 1323.41 954.731 1322.91 955.145Z" fill="#8C7368"/>
<path d="M1144.94 554.68C1142.62 553.353 1140.26 549.828 1137.77 544.022C1140.05 545.349 1142.46 548.874 1144.94 554.68Z" fill="#8C7368"/>
<path d="M260.971 737.577C273.206 725.177 281.998 728.37 286.768 740.978C290.086 749.812 285.897 759.143 276.524 760.304C262.754 762.005 257.985 752.839 260.971 737.577Z" fill="#8C7368"/>
<path d="M237.372 823.551C251.058 824.422 259.311 829.233 253.712 841.799C252.136 845.366 242.639 849.099 239.238 847.481C228.828 842.546 225.8 834.002 237.372 823.551Z" fill="#8C7368"/>
<path d="M1510.5 1250.73C1512.37 1234.38 1517.47 1217.96 1524.1 1199.51C1542.77 1185.74 1562.18 1184.33 1582.08 1184.41C1614.06 1184.53 1646.08 1185.78 1677.97 1183.95C1730.02 1181.01 1755.74 1161.64 1751.42 1110.05C1748.97 1080.77 1750.47 1051.03 1751.26 1021.54C1752.62 968.251 1761.42 959.335 1814.13 959.293C2044.06 959.044 2273.99 959.21 2503.92 959.21C2701.88 959.21 2899.96 963.233 3097.79 958.173C3332.45 952.201 3567.07 951.869 3805.09 952.325C3812.8 952.989 3816.99 954.026 3823.54 957.385C3827.23 960.62 3828.35 962.238 3830.34 966.551C3831.38 972.979 3831.13 976.587 3829.51 982.601C3828.1 986.541 3827.44 988.034 3825.7 991.725C3823.17 996.619 3821.63 999.356 3818.98 1004C3817.15 1007.24 3816.37 1008.48 3814.42 1011.55C3812.39 1014.54 3811.56 1015.7 3808.2 1020.3C3803.1 1027.06 3800.61 1030.42 3798.57 1036.52C3797.33 1039.88 3796.79 1041.2 3795.34 1044.48C3793.18 1049.08 3791.81 1051.7 3789.37 1056.22C3787.54 1059.49 3786.75 1060.78 3784.72 1063.97C3782.57 1067.12 3781.69 1068.33 3777.96 1073.22C3769.46 1084.38 3765.19 1092.63 3761.37 1103.83C3759.96 1107.6 3759.3 1109.09 3757.43 1112.7C3755.36 1116.23 3754.49 1117.6 3750.63 1122.86C3738.19 1136.01 3735.49 1149.82 3724.09 1160.6C3722.35 1162.3 3722.76 1162.35 3722.76 1162.14C3721.18 1163.67 3719.44 1165.33 3716.33 1168.07C3538.45 1174.33 3361.77 1177.11 3185.34 1185.24C3051.84 1191.38 2918.37 1196.56 2784.74 1199.84C2583.8 1204.77 2382.95 1214.02 2182.05 1221.4C1981.15 1228.79 1780.25 1236 1579.35 1243.76C1557.45 1244.59 1535.63 1248.32 1510.5 1250.73Z" fill="#E9E7E1"/>
<path d="M3843.86 961.076C3885.5 962.113 3924.78 962.196 3964.05 962.984C3974.17 963.191 3992.34 961.947 3982.51 979.2C3945.02 1045.1 3922.75 1123.9 3836.9 1149.95C3802.72 1160.31 3768.88 1166.2 3731.59 1163.34C3726.99 1146.09 3737.98 1135.06 3743.25 1119.71C3744.82 1117.6 3744.7 1117.89 3744.57 1118.01C3746.23 1116.39 3747.98 1114.69 3751 1111.62C3752.29 1110.3 3752.16 1110.59 3752.04 1110.71C3760.17 1098.02 3765.06 1083.67 3772.82 1067.91C3774.35 1065.92 3774.23 1066.21 3774.1 1066.29C3775.76 1064.68 3777.5 1062.93 3780.53 1059.91C3781.82 1058.58 3781.69 1058.87 3781.57 1058.99C3784.72 1055.84 3785.26 1051.4 3787.83 1045.52C3789.16 1043.77 3789.03 1044.11 3788.95 1044.23C3795.46 1036.81 3796.5 1026.65 3802.43 1016.15C3803.92 1014.24 3803.8 1014.54 3803.67 1014.62C3805.33 1013 3807.08 1011.26 3810.1 1008.23C3811.39 1006.9 3811.26 1007.19 3811.14 1007.32C3814.29 1004.17 3814.83 999.729 3817.4 993.84C3818.73 992.098 3818.61 992.43 3818.52 992.513C3821.72 989.361 3822.26 984.923 3824.78 979.034C3826.11 977.292 3825.99 977.583 3825.86 977.707C3829.06 974.182 3830.96 969.661 3835.15 963.814C3838.51 961.532 3840.01 960.952 3843.86 961.076Z" fill="#E7E5DF"/>
<path d="M3846.89 959.873C3846.22 961.781 3842.86 962.237 3841.16 962.486C3837.93 963.564 3836.35 964.353 3832.74 963.44C3828.85 958.671 3827.73 955.353 3827.73 949.132C3834.86 924.704 3848.5 906.58 3861.9 885.429C3866.13 881.157 3868.95 879.208 3874.01 875.973C3877.62 874.273 3879.24 874.19 3883.22 874.107C3875.79 897.249 3865.92 920.349 3855.8 946.187C3852.86 951.91 3850.21 954.938 3846.89 959.873Z" fill="#C97939"/>
<path d="M3742.62 1118.8C3748.1 1133.23 3736.15 1143.52 3730.39 1158.7C3728.48 1161.47 3727.28 1161.72 3724.17 1162.14C3720.56 1144.89 3732.09 1133.15 3742.62 1118.8Z" fill="#DF8A44"/>
<path d="M3716.79 1168.61C3716.25 1166.87 3717.49 1164.54 3720.77 1162.06C3721.39 1163.96 3719.98 1166 3716.79 1168.61Z" fill="#DF8A44"/>
<path d="M4170.26 387.543C4165.32 385.843 4163.79 383.894 4160.68 380.866C4108.25 362.742 4055.91 376.138 4004.36 372.115C3983.83 370.539 3963.18 370.166 3940.37 367.222C3940.16 364.36 3941.98 363.198 3944.76 360.586C4019.42 358.844 4092.87 358.263 4169.84 357.351C4176.52 357.061 4179.67 357.061 4185.23 357.061C4226.04 363.199 4265.81 348.807 4304.05 367.678C4264.2 370.498 4223.8 370.498 4183.45 370.498C4183.4 374.189 4183.36 377.921 4183.32 381.613C4219.82 381.613 4256.32 381.613 4295.09 383.562C4256.15 386.092 4214.88 386.672 4170.26 387.543Z" fill="#E1995D"/>
<path d="M4201.16 328.237C4202.03 328.942 4201.74 330.186 4201.04 333.297C4199.92 333.711 4199.04 332.301 4198.59 330.767C4198.46 330.269 4199.5 329.44 4201.16 328.237Z" fill="#E1995D"/>
<path d="M1447.95 1451.12C1487.56 1457.26 1503.53 1480.32 1499.17 1515.78C1496.19 1540.25 1479.72 1555.39 1454.38 1555.43C1426.26 1555.47 1408.22 1539.25 1403.66 1512.17C1398.27 1480.11 1410.3 1457.26 1447.95 1451.12Z" fill="#E6D0BB"/>
<path d="M1435.64 1399.66C1432.9 1389.62 1432.07 1379.04 1444.93 1377.05C1456.46 1375.27 1462.97 1380.7 1463.26 1395.63C1455.13 1398.99 1446.92 1399.61 1435.64 1399.66Z" fill="#E7E5DF"/>
<path d="M641.334 1478.58C657.26 1507.19 654.274 1532.41 627.233 1549.21C604.463 1563.39 581.114 1556.84 565.727 1536.27C547.147 1511.38 545.446 1484.84 573.69 1461.16C589.118 1469.37 578.833 1485.05 587.75 1497.49C590.031 1502.55 590.901 1505.58 591.648 1510.97C593.846 1519.39 597.745 1523 606.247 1522.62C609.191 1521.21 610.228 1520.38 613.049 1518.77C614.832 1517.94 614.749 1517.19 614.376 1517.19C616.284 1513.58 618.191 1509.72 621.634 1504.25C626.735 1497.82 628.145 1492.14 630.592 1484.47C633.785 1480.2 636.315 1478.62 641.334 1478.58Z" fill="#E6D0BB"/>
<path d="M585.588 1520.63C582.602 1515.12 581.897 1511.59 580.528 1505.49C572.316 1488.41 585.754 1475.97 583.763 1459.38C587.122 1454.4 590.606 1452.08 596.205 1449.34C604.085 1470.86 588.657 1496.16 611.965 1516.82C615.366 1519.18 615.822 1520.42 616.403 1523.7C606.532 1528.55 596.786 1529.42 585.588 1520.63Z" fill="#918780"/>
<path d="M642.903 1476.96C641.327 1480.69 639.211 1481.94 636.308 1484.92C630.751 1492.02 632.659 1498.82 630.751 1507.24C626.106 1512.01 622.373 1514.54 616.359 1517.15C618.35 1500.52 622.581 1483.8 628.843 1465.8C634.608 1467.84 638.465 1471.15 642.903 1476.96Z" fill="#8C7368"/>
<path d="M581.649 1457.39C596.663 1470.91 582.852 1484.09 581.069 1500.31C559.626 1492.43 577.792 1477.91 576.175 1463.03C577.419 1459.71 578.497 1458.84 581.649 1457.39Z" fill="#DAB6A3"/>
<path d="M1217.32 783.488C1227.94 804.017 1236.02 822.804 1245.85 843.5C1258.13 882.236 1268.71 919.064 1279.41 958.836C1278.12 962.071 1276.71 962.403 1273.27 963.399C1194.63 963.399 1118.03 962.694 1038.03 961.491C1034.59 960.91 1034.54 958.09 1034.46 956.639C1050.93 885.595 1067.43 816.003 1085.14 743.84C1097.29 745.789 1108.24 750.351 1121.76 754.706C1124.33 754.54 1124.29 754.871 1124.17 754.996C1126.12 760.678 1129.15 765.447 1136.57 769.263C1138.44 770.341 1137.86 770.507 1138.15 770.382C1161.83 787.635 1190.4 771.005 1217.32 783.488Z" fill="#E08941"/>
<path d="M3896.37 834.293C3899.4 839.975 3899.52 843.375 3899.77 849.306C3899.85 851.836 3899.85 852.002 3899.77 852.043C3898.65 853.453 3897.61 854.863 3894.96 854.2C3893.34 852.126 3890.64 851.711 3889.28 851.628C3853.19 860.836 3817.82 854.822 3782.77 855.32C3715.75 856.274 3648.69 856.19 3578.26 853.826C3570.01 851.67 3565.12 850.923 3557.77 850.094C3550.68 849.555 3546.24 848.311 3539.98 845.905C3538.24 844.371 3538.2 844.578 3538.28 844.495C3538.86 828.735 3551.26 827.408 3561.76 827.367C3670.17 826.744 3778.58 823.468 3886.91 828.984C3889.15 829.108 3891.31 830.975 3896.37 834.293Z" fill="#DF8A44"/>
<path d="M3575.86 853.951C3676.72 851.919 3778.54 851.504 3884.13 851.296C3841.71 867.844 3794.05 856.563 3747.15 858.513C3694.77 860.711 3642.26 859.259 3586.39 859.467C3580.92 858.223 3578.89 856.895 3575.86 853.951Z" fill="#E6D0BB"/>
<path d="M3872.64 874.356C3876.29 877.093 3875.42 879.291 3871.94 882.153C3859.29 891.36 3846.85 895.673 3833.04 895.798C3760 896.503 3686.96 896.586 3613.93 895.715C3601.69 895.59 3589.62 893.558 3576.98 883.19C3576.52 878.545 3578.34 876.761 3582.03 874.315C3678.96 873.858 3774.14 874.066 3872.64 874.356Z" fill="#E6D0BB"/>
<path d="M3893.3 853.826C3893.34 852.126 3896.49 851.96 3898.07 852.001C3898.53 855.029 3897.41 858.015 3896.29 861.001C3895.29 859.176 3894.3 857.351 3893.3 853.826Z" fill="#C97939"/>
<path d="M3828.02 946.809C3830.34 952.533 3830.47 955.311 3830.92 960.122C3830.38 963.647 3829.51 965.141 3826.9 964.684C3646.82 962.818 3468.32 958.629 3290.1 963.648C2794.66 977.583 2299.21 966.053 1803.76 969.495C1771.83 969.703 1763.41 980.486 1765.15 1010.14C1767.3 1046.93 1762.58 1084.25 1766.39 1120.75C1772.74 1181.55 1733.05 1194.98 1688.09 1198.14C1636.7 1201.79 1584.86 1198.59 1529.41 1197.89C1547.87 1117.22 1575.9 1039.09 1610.57 960.703C1660.59 958.007 1709.7 957.634 1762.24 956.721C1784.43 937.105 1808.78 940.713 1831.8 940.713C2151.6 940.505 2471.45 940.588 2791.25 940.588C3066.81 940.588 3342.36 939.966 3617.87 941.128C3669.71 941.335 3720.73 932.045 3772.4 933.248C3790.86 933.787 3809.61 932.252 3828.02 946.809Z" fill="#E2DCD4"/>
<path d="M4155.16 379.788C4158.65 383.147 4158.61 386.258 4158.48 391.732C4158.36 394.096 4154.92 394.345 4153.22 394.262C4098.01 376.885 4043.1 391.027 3988.98 386.714C3968.37 385.055 3947.67 384.723 3924.78 381.654C3922.5 379.539 3925.94 379.456 3927.6 379.042C4003.37 379 4077.53 379.29 4155.16 379.788Z" fill="#E1995D"/>
<path d="M9507.63 634.599C9486.43 640.613 9465.4 652.889 9450.31 634.018C9434.92 614.733 9447.45 593.748 9457.98 575.997C9485.1 530.335 9517.99 489.318 9564.15 461.241C9582.07 450.334 9602.52 440.007 9622.3 455.476C9642.58 471.319 9640.63 494.544 9634.45 516.4C9616.45 579.937 9561.17 604.531 9507.63 634.599Z" fill="#E2DCD4"/>
<path d="M8264.36 520.424C8247.73 545.473 8228.57 584.085 8203.4 568.242C8179.01 552.897 8181.66 507.608 8185.11 475.798C8187.14 456.887 8212.31 465.264 8226.25 468.955C8249.97 475.218 8275.73 483.015 8264.36 520.424Z" fill="#E2DCD4"/>
<path d="M5294.5 668.317C5306.61 710.205 5279.61 726.131 5251.11 739.651C5237.55 746.079 5227.1 739.361 5224.36 724.098C5222.62 714.477 5220.88 704.523 5221.42 694.86C5222.7 671.552 5201.22 637.212 5223.7 627.756C5249.08 617.056 5274.09 644.594 5294.5 668.317Z" fill="#D7D6D2"/>
<path d="M3832.5 948.261C3144.32 952.201 2458.47 954.648 1769.17 956.68C1765.65 934.119 1765.6 912.013 1767.68 883.645C1784.39 868.176 1800.77 870.706 1816.58 870.706C2172.13 870.498 2527.69 870.54 2883.24 870.664C2897.88 870.664 2912.9 868.715 2929.74 878.047C2936.04 880.742 2939.32 881.406 2944.96 882.941C2964.74 894.512 2983.78 896.544 3003.89 896.461C3144.16 896.046 3284.42 896.544 3424.69 895.963C3453.05 895.839 3481.09 898.908 3509.33 899.986C3530.61 900.774 3551.1 898.576 3572.54 885.263C3575.4 883.48 3574.49 881.987 3574.53 881.116C3670.87 880.991 3767.18 881.696 3867 882.857C3858.63 904.465 3846.72 925.616 3832.5 948.261Z" fill="#DF8A44"/>
<path d="M1761.99 838.357C1759.38 833.297 1759.42 830.808 1759.67 826.412C1767.34 814.841 1778 818.947 1787.25 818.947C2166.61 818.781 2546.02 818.698 2925.38 818.823C2929.07 818.823 2932.72 819.362 2938.4 822.804C2939.36 828.942 2938.32 832.011 2936.04 836.076C2921.48 848.559 2905.31 848.103 2889.26 848.103C2527.48 848.186 2165.7 848.227 1803.92 848.02C1790.49 848.02 1776.63 849.471 1761.99 838.357Z" fill="#E6CAB1"/>
<path d="M1759.09 838.44C2148.66 836.283 2538.02 836.698 2931.06 837.154C2934.26 840.348 2933.76 843.5 2932.6 849.016C2919.45 864.693 2902.86 862.826 2887.1 862.826C2517.57 862.743 2148.08 863.49 1771.33 861.458C1762.37 853.951 1760.63 847.481 1759.09 838.44Z" fill="#E1995D"/>
<path d="M1765.48 882.941C1758.35 877.757 1759.59 871.245 1763.66 862.412C1764.15 860.379 1765.03 859.799 1765.44 859.508C1777.43 852.873 1789.95 855.859 1802.02 855.859C2164.25 855.693 2526.53 855.651 2888.76 855.9C2901.87 855.9 2915.89 851.712 2930.03 864.029C2932.1 867.057 2931.81 870.043 2931.73 871.536C2919.49 882.07 2905.48 877.508 2892.41 877.508C2518.86 878.13 2145.3 877.093 1768.59 879.996C1765.36 881.78 1765.65 882.568 1765.48 882.941Z" fill="#E1995D"/>
<path d="M3572.25 883.231C3561.38 915.414 3531.89 912.635 3506.22 910.437C3337.38 895.963 3168.29 907.866 2999.41 903.76C2981.37 903.304 2962 907.161 2948.23 886.424C3144.98 894.636 3342.77 887.378 3540.52 889.452C3550.02 889.618 3559.56 885.263 3572.25 883.231Z" fill="#C97939"/>
<path d="M2942.55 825.169C2931.89 824.961 2923.43 823.219 2914.93 823.219C2532.12 823.261 2149.32 823.468 1763.16 824.132C1759.59 822.888 1759.34 821.146 1759.01 816.832C2138.2 814.551 2517.52 814.842 2896.8 815.381C2912.61 815.423 2928.41 817.413 2946.61 820.773C2947.61 823.468 2946.16 823.966 2942.55 825.169Z" fill="#E1995D"/>
<path d="M2932.31 864.485C2918.25 855.817 2901.7 859.135 2886.02 859.135C2514.95 859.011 2143.89 859.094 1769.34 859.177C1777.8 845.947 1793.6 851.96 1807.53 851.96C2180.05 851.546 2552.53 851.546 2928.49 851.421C2932.14 854.822 2932.35 858.347 2932.31 864.485Z" fill="#E6D0BB"/>
<path d="M1768.88 881.945C1778.5 867.678 1795.55 874.355 1810.64 874.355C2182.04 873.775 2553.44 873.692 2928.24 873.277C2931.64 873.07 2932.47 876.554 2932.64 878.337C2655.3 880.784 2377.8 881.489 2100.3 882.028C1991.01 882.277 1881.69 882.111 1768.88 881.945Z" fill="#E6D0BB"/>
<path d="M3899.56 834.251C3780.45 837.818 3661.71 839.062 3540.65 842.338C3523.56 842.587 3506.52 851.379 3494.36 832.053C3497.02 812.229 3510.87 819.155 3519.91 819.155C3644.37 818.947 3768.8 818.201 3896.45 820.938C3899.77 825.707 3899.85 828.818 3899.56 834.251Z" fill="#E6D0BB"/>
<path d="M3901.34 821.851C3766.01 823.593 3632.34 824.629 3496.18 827.449C3488.14 829.357 3482.58 829.44 3474.24 829.813C3468.48 832.717 3465.04 833.67 3459.02 831.141C3454.05 828.901 3451.18 828.445 3446.17 827.781C3443.89 804.681 3461.55 815.588 3470.26 815.547C3613.6 814.8 3756.93 815.049 3903.75 815.215C3906.36 817.662 3904.95 819.57 3901.34 821.851Z" fill="#E1995D"/>
<path d="M3539.73 846.278C3542.72 845.2 3547.24 846.029 3553.5 848.435C3550.6 849.389 3545.96 848.767 3539.73 846.278Z" fill="#E6D0BB"/>
<path d="M3457.91 830.975C3460.15 829.274 3463.42 829.191 3469.06 829.606C3467.32 830.933 3463.13 831.763 3457.91 830.975Z" fill="#E6D0BB"/>
<path d="M1652.75 849.845C1652.71 841.551 1655.61 833.712 1660.34 824.712C1676.97 826.537 1704.72 814.8 1701.86 839.518C1699.24 862.453 1671.7 846.361 1652.75 849.845Z" fill="#DAB6A3"/>
<path d="M1744.95 445.315C1743.95 444.113 1744.82 442.163 1747.44 439.343C1748.89 440.67 1748.1 442.703 1744.95 445.315Z" fill="#C97939"/>
<path d="M1042.92 1184.49C1144.45 1201 1243.94 1185.65 1355.51 1194.4C1230.96 1194.4 1119.44 1194.4 1007.92 1194.4C1007.83 1191.09 1007.75 1187.77 1007.67 1184.45C1018.33 1184.41 1029.03 1184.41 1042.92 1184.49Z" fill="#D7D6D2"/>
<path d="M1122.96 362.991C1125.16 364.691 1127.2 368.756 1129.1 375.226C1126.95 373.567 1124.87 369.461 1122.96 362.991Z" fill="#DAB6A3"/>
<path d="M1326.06 955.477C1322.91 947.929 1321.34 941.874 1318.31 933.994C1314.74 912.304 1310.05 893.268 1296.99 874.48C1293.59 866.559 1292.01 860.504 1288.99 852.582C1285.96 844.619 1284.42 838.523 1281.35 830.601C1276.71 811.482 1273.56 794.188 1270.49 773.949C1386.32 770.756 1502.08 770.548 1621.27 770.59C1603.65 832.095 1582.62 893.35 1559.6 956.763C1484.99 960.247 1412.37 961.615 1336.56 963.357C1331.5 961.532 1329.59 959.251 1326.06 955.477Z" fill="#DD8842"/>
<path d="M1219.48 782.907C1193.26 780.916 1164.48 795.805 1139.06 773.037C1160.46 770.009 1182.48 769.885 1207.78 769.76C1213.79 773.41 1216.45 777.018 1219.48 782.907Z" fill="#DD8842"/>
<path d="M1137.48 768.392C1133.75 766.857 1129.02 763.415 1124.21 757.526C1128.23 758.853 1132.34 762.668 1137.48 768.392Z" fill="#DD8842"/>
<path d="M3772.15 1067.08C3776.72 1083.5 3764.81 1095.2 3754.28 1109.59C3749.76 1093.17 3761.66 1081.51 3772.15 1067.08Z" fill="#DF8A44"/>
<path d="M3801.68 1015.32C3806.62 1025.77 3800.4 1034.19 3791.32 1043.36C3786.63 1032.82 3793.1 1024.65 3801.68 1015.32Z" fill="#DF8A44"/>
<path d="M3825.28 965.348C3825.16 962.859 3828.14 962.154 3829.68 962.196C3832.58 962.32 3833.99 962.403 3837.43 962.61C3836.35 967.546 3833.24 972.356 3827.94 977.458C3825.65 974.472 3825.53 971.154 3825.28 965.348Z" fill="#DF8A44"/>
<path d="M3823.83 978.08C3825.03 981.771 3823.95 986.292 3820.63 991.725C3819.47 988.034 3820.51 983.43 3823.83 978.08Z" fill="#DF8A44"/>
<path d="M3816.36 992.761C3817.57 996.453 3816.36 1000.81 3813.13 1006.28C3812.05 1002.72 3813.01 998.07 3816.36 992.761Z" fill="#DF8A44"/>
<path d="M3786.84 1044.48C3788.04 1048.17 3786.88 1052.57 3783.6 1058.04C3782.52 1054.43 3783.48 1049.79 3786.84 1044.48Z" fill="#DF8A44"/>
<path d="M3809.27 1006.95C3810.27 1009.39 3809.11 1011.88 3805.75 1014.53C3804.75 1012.13 3805.91 1009.6 3809.27 1006.95Z" fill="#DF8A44"/>
<path d="M3779.7 1058.66C3780.74 1061.11 3779.53 1063.64 3776.22 1066.25C3775.22 1063.85 3776.38 1061.28 3779.7 1058.66Z" fill="#DF8A44"/>
<path d="M3750.17 1110.38C3751.17 1112.83 3750.01 1115.36 3746.69 1118.01C3745.69 1115.52 3746.85 1112.99 3750.17 1110.38Z" fill="#DF8A44"/>
<path d="M1464.59 1490.61C1484.58 1497.49 1477.03 1508.94 1471.01 1517.77C1463.67 1528.47 1452.39 1529.18 1441.57 1523.12C1431.86 1517.69 1427.96 1508.11 1431.99 1497.91C1438 1482.6 1448.87 1477.54 1464.59 1490.61Z" fill="#8C7368"/>
<path d="M584.055 1520.8C592.515 1520.76 601.64 1522.91 613.667 1525.4C604.875 1536.6 594.465 1533.9 584.055 1520.8Z" fill="#DAB6A3"/>
<path d="M631.419 1507.65C630.506 1503.01 631.294 1496.62 633.741 1488.41C634.695 1493.01 633.866 1499.44 631.419 1507.65Z" fill="#DAB6A3"/>
<path d="M1465 1493.63C1461.85 1497.61 1458.37 1501.51 1454.88 1505.41C1454.1 1503.63 1452.23 1500.81 1452.77 1500.23C1454.88 1497.99 1457.79 1496.41 1462.43 1493.76C1464.46 1492.93 1464.67 1493.55 1465 1493.63Z" fill="#918780"/>
</svg>
