<svg width="11219" height="1568" viewBox="0 0 11219 1568" fill="none" xmlns="http://www.w3.org/2000/svg">
<path d="M1988.63 347.239C2151.63 391.615 2307.24 450.507 2469.86 484.224C2813.76 555.475 3158.57 621.459 3507.03 667.37C3565.1 675.043 3604.37 659.615 3644.06 616.731C3726.72 527.522 3815.48 443.995 3903.86 356.86C3919.53 345.538 3935.34 345.04 3951.22 345.04C4008.33 345.165 4065.4 344.418 4125.62 345.787C4161.29 358.229 4149.8 379.546 4138.64 399.039C4107.12 454.115 4076.72 509.813 4043.92 564.143C4038.23 573.558 4033.75 583.636 4028.24 596.16C4026.66 600.349 4026 601.967 4024.05 605.865C4017.91 614.823 4011.48 620.256 4006.51 629.837C4004.72 633.362 4004.06 634.814 4002.36 638.339C3999.12 644.601 3997.34 648.914 3994.56 655.384C3992.78 658.868 3992.03 660.237 3989.83 663.43C3984.19 669.776 3980.79 674.835 3976.52 682.01C3974.86 685.411 3974.24 686.738 3972.62 690.139C3969.59 696.152 3967.85 700.258 3965.2 706.438C3963.54 709.797 3962.79 711.083 3960.76 714.193C3954.37 721.41 3949.93 727.299 3945.62 736.05C3944.05 739.616 3943.42 741.068 3941.81 744.717C3938.57 751.478 3936.7 756.247 3932.56 763.007C3929.57 766.657 3928.2 767.984 3924.39 771.012C3916.59 776.03 3910.74 778.02 3901.29 779.389C3726.76 781.048 3555.52 779.928 3380.91 780.343C3373.16 780.343 3368.76 780.467 3361.21 780.965C3345.74 780.136 3333.42 778.933 3318.7 774.288C3309.83 774.039 3303.9 774.371 3295.06 773.707C3278.43 772.753 3264.99 770.638 3248.9 766.657C3238.08 767.694 3230.15 767.445 3219.25 766.574C3162.05 759.772 3107.85 751.685 3051.07 769.311C3040.37 771.965 3032.45 772.753 3021.58 774.122C3012.75 775.2 3006.82 775.947 2998.03 778.021C2990.93 779.597 2986.79 780.094 2979.32 780.219C2971.61 780.219 2967.17 780.26 2959.25 780.302C2578.52 780.343 2201.23 780.343 1823.98 780.219C1804.41 780.219 1784.62 782.126 1762.02 775.822C1742.15 759.523 1743.77 739.285 1743.4 720.124C1742.32 660.651 1742.9 601.22 1744.89 538.513C1737.26 503.966 1753.27 477.381 1762.72 446.277C1774.54 419.195 1784.42 394.725 1793.42 369.883C1797.98 357.275 1804.49 345.787 1821.04 339.359C1878.27 335.667 1932.19 336.87 1988.63 347.239Z" fill="#E08941"/>
<path d="M721.15 608.312C726.375 606.155 729.693 605.948 735.5 605.45C743.545 604.704 749.145 604.331 757.439 605.492C831.512 628.51 902.142 653.062 973.104 676.535C1015.16 690.429 1024.86 685.494 1036.19 642.652C1049.66 591.681 1064.72 541.167 1076.71 489.782C1080.31 474.354 1083.3 458.47 1096.45 443.912C1106.86 438.272 1114.36 439.848 1123.74 446.94C1127.05 450.88 1128.17 452.705 1130.33 457.433C1132.94 468.63 1132.82 477.008 1132.65 488.455C1104.7 623.699 1067.5 753.593 1038.09 885.394C1035.4 897.505 1031.83 909.117 1024.86 923.094C1021.3 927.241 1019.55 928.692 1014.7 931.554C908.861 938.77 806.005 934.043 703.233 935.536C664.082 936.116 624.889 934.748 582.254 936.904C553.014 939.849 527.259 939.683 498.103 936.863C437.509 933.752 380.234 937.817 319.931 933.089C300.728 922.513 303.549 909.698 312.797 898.085C373.432 822.023 398.524 734.847 395.704 638.588C395.455 629.92 397.238 621.501 406.031 612.999C445.555 609.93 482.384 611.547 522.199 609.308C571.636 608.188 618.004 608.229 667.814 607.939C686.975 614.035 703.233 609.764 721.15 608.312Z" fill="#E08941"/>
<path d="M4783.65 174.212C4890.03 196.815 4994.58 223.151 5099.47 247.952C5317.87 299.627 5536.52 351.054 5759.94 376.021C5900 391.656 6040.51 402.647 6181.48 409.407C6324.07 416.25 6466.45 418.738 6608.5 406.877C6794.01 391.366 6979.82 376.228 7164.21 351.137C7466.47 310.037 7767.36 258.983 8069.38 215.976C8313.08 181.263 8557.32 150.033 8801.85 121.417C8967.33 102.09 9133.72 90.8097 9299.54 74.5107C9535.02 51.3687 9771.05 35.4844 10007.3 23.8719C10365.8 6.20429 10724.5 -3.99812 11083.5 2.22286C11119 2.84495 11154.3 7.86331 11189.8 9.19045C11216.6 10.1858 11217.7 26.858 11217.7 46.9725C11217.5 364.491 11217.2 682.051 11218.1 999.57C11218.2 1029.89 11207.8 1037.68 11179.5 1035.53C10958.4 1018.9 10736.8 1025.08 10515.7 1029.85C10239.8 1035.82 9964.03 1050.08 9688.52 1066.59C9489.28 1078.49 9290.33 1097.2 9091.75 1117.64C8863.98 1141.12 8636.82 1170.27 8409.3 1196.19C8065.94 1235.3 7725.23 1292.91 7384.06 1346.7C7147.87 1383.9 6910.1 1405.39 6672.29 1427.32C6360.24 1456.15 6049.81 1435.91 5740.16 1397.26C5421.97 1357.53 5111 1282.67 4802.39 1197.4C4795.34 1195.45 4788.62 1192.13 4779.54 1188.15C4778.21 1184.75 4779.09 1182.63 4782.78 1178.53C4803.02 1169.44 4819.23 1176.12 4835.9 1180.43C5139.66 1258.98 5444.45 1333.6 5756.17 1373.2C5895.07 1390.83 6034.83 1401.82 6175.1 1406.96C6259.91 1410.07 6344.68 1412.89 6429.5 1412.68C6550.1 1412.35 6670.13 1401.07 6790.03 1389.92C6967.58 1373.41 7145.17 1357.07 7321.44 1329.53C7543.82 1294.78 7765.79 1256.95 7988.59 1224.85C8274.63 1183.67 8561.3 1147.13 8848.67 1115.7C9101.71 1088.03 9355.32 1067.05 9608.89 1045.85C9705.56 1037.77 9802.61 1032.46 9899.62 1028.19C10092.4 1019.68 10285.2 1012.43 10478.1 1004.51C10682.3 996.086 10886.5 1002.1 11090.6 999.985C11115.2 999.736 11139.2 1006.79 11164.1 1006.12C11185.6 1005.54 11195.8 996.211 11195.4 974.645C11195.3 963.571 11195.8 952.498 11195.8 941.425C11195.8 662.02 11195.8 382.615 11195.8 103.21C11195.8 90.8926 11195.5 78.6165 11195.2 66.299C11194.7 48.4655 11185.9 39.8805 11168.2 37.8898C11135.2 34.1572 11102.3 29.9685 11069 30.0515C10884.4 30.4247 10699.7 26.2774 10515.2 31.4615C10363 35.7333 10210.6 41.498 10058.5 50.3733C9956.65 56.304 9854.75 61.2808 9752.85 66.2161C9639.79 71.6906 9527.27 82.8054 9414.5 91.4733C9266.19 102.878 9118.09 116.399 8970.11 132.283C8730.43 158.038 8491.17 186.613 8252.07 217.552C7904.31 262.55 7559.33 325.631 7212.15 373.906C7031.87 398.956 6850.42 414.3 6669.05 429.521C6562.46 438.479 6455.71 446.65 6348.62 443.664C5980.29 433.378 5614.49 401.61 5255.95 310.825C5136.63 280.632 5014.95 261.14 4895.92 229.703C4860.29 220.289 4824.58 210.667 4788.54 192.17C4782.82 186.281 4781.53 182.009 4783.65 174.212Z" fill="#D7D5D1"/>
<path d="M1123.07 460.045C1121.46 458.179 1120.96 456.562 1121.17 455.774C1114.7 432.134 1124.98 423.964 1149.53 426.701C1166.45 434.208 1169.32 449.594 1179.64 462.658C1209.67 550.001 1243.06 633.154 1269.68 721.368C1266.61 742.561 1269.64 760.146 1279.22 779.016C1280.88 782.665 1281.54 784.117 1283.04 787.767C1285.4 794.402 1286.65 798.881 1288.76 805.476C1290.09 809.042 1290.59 810.494 1291.83 814.061C1293.95 820.531 1294.94 824.968 1297.6 831.313C1299.01 834.88 1299.54 836.332 1300.87 839.981C1305.68 855.575 1309.42 869.054 1316.63 883.819C1318.25 887.385 1318.87 888.837 1320.36 892.445C1322.77 899.039 1324.01 903.56 1326.25 910.196C1327.75 913.845 1328.33 915.297 1329.74 918.988C1332.18 927.531 1335.46 933.006 1340.73 940.264C1364.24 971.41 1372.21 1006.79 1384.57 1040.05C1405.51 1096.45 1425.67 1153.19 1445.24 1208.68C1479.38 1113.62 1513.72 1016.66 1549.34 917.246C1574.77 856.405 1589.78 794.693 1614.29 733.437C1641.21 655.965 1668.29 581.52 1695.29 503.966C1709.27 479.621 1712.13 452.746 1734.03 432.963C1749.74 427.613 1761.02 430.392 1771.64 443.415C1765.46 470.746 1757.83 495.339 1749.87 522.67C1751.15 567.378 1729.38 603.874 1721 646.219C1705.99 666.872 1702.46 690.18 1688.74 711.207C1678.16 722.902 1671.48 733.727 1669.82 749.777C1668.75 753.8 1668.25 755.376 1666.88 759.316C1657.34 781.836 1647.51 801.619 1643.28 826.005C1642.66 858.852 1631.38 886.348 1620.88 916.914C1593.89 997.455 1561.37 1073.14 1538.19 1155.01C1530.47 1174.38 1524.21 1191.38 1515.96 1210.5C1512.22 1217.97 1508.08 1221.37 1501.11 1225.76C1490.08 1252.72 1481.2 1278.06 1471.87 1306.02C1456.98 1322.9 1441.18 1322.15 1422.06 1310.33C1410.49 1282 1401.45 1256.37 1390.37 1228.88C1385.69 1224.4 1383.2 1221.62 1379.51 1216.18C1343.26 1133.53 1317.79 1049.79 1285.78 968.507C1280.88 956.065 1276.57 943.374 1270.55 928.361C1254.67 868.308 1232.98 813.231 1211.37 755.169C1208.43 747.455 1207.18 742.105 1203.37 734.764C1186.61 678.692 1163.26 627.804 1147.25 571.608C1145.47 565.885 1144.85 562.526 1144.39 556.719C1144.43 546.517 1144.43 538.803 1141.03 529.181C1139.62 525.615 1138.96 524.204 1137.38 520.679C1135.23 515.661 1134.02 512.758 1131.99 507.574C1130.75 503.758 1130.41 502.182 1129.87 498.159C1128.84 484.39 1125.98 473.275 1123.07 460.045Z" fill="#99918B"/>
<path d="M1936.79 318.912C1935.17 322.023 1935.55 323.972 1935.3 324.926C1930.82 330.525 1925.51 333.138 1916.34 334.216C1876.94 331.562 1841.61 317.004 1801.59 325.755C1791.72 329.695 1784.17 331.396 1773.96 334.299C1759.61 337.451 1747.96 337.658 1733.36 335.875C1724.73 334.506 1719.01 333.22 1710.3 332.018C1699.52 329.654 1691.51 329.903 1680.44 330.649C1643.45 334.216 1609.44 331.976 1572.28 332.35C1556.18 329.032 1543.83 331.686 1528.36 336.041C1469.05 335.999 1412.77 342.22 1353.83 331.769C1337.66 326.46 1324.72 319.7 1307.51 327.622C1275.45 333.967 1245.71 329.944 1213.49 333.469C1206.85 334.133 1203.08 334.174 1196.61 333.303C1189.1 331.437 1184.41 328.617 1176.49 331.727C1156.62 335.087 1139.75 329.446 1119.59 330.234C1101.88 333.22 1087.28 331.603 1069.41 329.446C1045.56 326.253 1024.57 325.631 1005.41 315.843C987.992 306.927 979.199 294.319 985.13 274.163C993.01 247.413 1030.38 216.971 1059 215.893C1201 210.418 1342.76 213.239 1484.81 221.533C1621.67 229.537 1756.3 249.818 1890.8 273.789C1904.36 276.195 1916.72 280.674 1932.06 287.6C1935.05 289.259 1934.76 289.466 1934.88 289.3C1939.86 297.554 1942.47 306.263 1936.79 318.912Z" fill="#E9E7E1"/>
<path d="M4286.54 366.814C4235.77 469.626 4185.05 569.244 4133.29 671.393C4133.75 681.678 4129.52 686.904 4122.43 693.457C4109.53 716.557 4098.5 737.874 4086.14 761.39C4064.49 783.951 4038.4 780.633 4013.35 780.26C3988.13 779.887 3962.75 782.956 3934.63 775.781C3930.03 772.38 3928.54 770.638 3927.79 765.495C3928.58 762.095 3928.58 762.136 3928.58 762.136C3934.01 756.993 3931.52 749.901 3934.51 741.856C3935.96 739.906 3935.96 739.948 3935.92 739.948C3944.13 732.566 3947.95 721.99 3956.49 711.995C3958.11 710.336 3958.11 710.378 3958.06 710.378C3963.5 705.276 3961.01 698.143 3964.04 690.097C3965.49 688.148 3965.49 688.189 3965.45 688.189C3973.66 680.807 3977.47 670.231 3986.02 660.236C3987.64 658.578 3987.64 658.619 3987.59 658.619C3993.03 653.518 3990.54 646.385 3993.57 638.339C3995.02 636.389 3995.02 636.431 3994.98 636.431C4003.19 629.049 4007 618.473 4015.55 608.478C4017.16 606.819 4017.17 606.861 4017.12 606.902C4051.96 535.775 4094.76 469.045 4133 399.785C4141.26 384.855 4148.51 369.592 4157.93 352.34C4161.91 349.519 4163.65 348.607 4168.34 346.907C4204.38 344.418 4237.52 343.838 4273.64 347.487C4282.76 351.8 4286.66 356.404 4286.54 366.814Z" fill="#E08941"/>
<path d="M294.468 616.317C316.034 614.409 335.693 613.952 358.628 613.621C376.42 626.353 378.245 644.145 377.416 660.9C372.895 753.344 344.029 835.792 273.897 899.993C260.418 912.352 246.69 925.25 223.008 921.393C210.649 908.702 201.11 897.007 191.695 882.782C189.58 871.957 187.465 863.538 177.18 861.464C150.802 856.197 147.484 836.29 147.152 811.779C153.373 766.574 174.525 725.681 161.046 678.402C157.645 667.453 158.392 659.158 163.286 648.914C165.318 645.306 166.23 643.938 170.875 639.376C200.571 631.371 220.686 606.695 253.16 614.409C267.634 623.616 278.915 635.104 294.468 616.317Z" fill="#DD8842"/>
<path d="M152.71 811.697C162.456 831.521 148.48 866.524 191.488 857.359C197.046 856.156 195.719 869.054 192.691 878.054C185.101 873.948 178.341 867.685 163.327 853.792C179.502 945.821 185.848 1028.19 189.539 1110.76C193.23 1193.17 194.184 1275.53 175.894 1356.53C172.535 1371.46 174.277 1394.44 149.807 1395.27C122.476 1396.22 124.176 1371.21 120.817 1355.37C95.3102 1235.97 105.72 1115.53 114.969 995.589C119.49 937.029 131.102 879.008 139.438 817.835C142.217 811.697 145.742 810.204 152.71 811.697Z" fill="#2C302A"/>
<path d="M176.268 646.094C163.535 644.394 167.6 656.67 163.867 664.177C159.803 670.19 155.323 670.812 148.605 667.536C117.748 508.237 105.016 349.561 118.702 189.474C120.776 165.213 127.868 141.366 132.637 117.353C135.208 104.33 140.144 93.8788 156.028 94.0447C172.037 94.252 175.563 105.699 179.129 118.058C201.982 197.23 200.696 278.517 197.793 359.473C194.558 450.216 188.793 540.96 172.95 633.279C174.65 636.182 175.646 636.597 176.06 636.265C175.023 637.592 174.401 639.334 174.692 641.159C174.941 643.025 175.272 643.938 176.268 646.094Z" fill="#2C302A"/>
<path d="M1502.35 1227.42C1500.98 1223.77 1502.89 1220 1505.79 1214.4C1530.18 1192.63 1559.17 1190.84 1587.12 1191.55C1694.21 1194.2 1801.05 1186.16 1907.76 1181.64C2064.82 1174.96 2222.17 1174.38 2379.07 1162.64C2450.11 1157.33 2521.57 1157.83 2592.74 1155.92C2700.86 1153.02 2809.07 1149.16 2917.03 1144.73C3071.64 1138.42 3226.38 1134.03 3380.99 1126.85C3484.02 1122.08 3587.24 1115.53 3693.87 1116.69C3699.39 1116.52 3701.55 1116.44 3710.01 1116.23C3718.26 1116.07 3720.25 1115.99 3725.15 1116.11C3839.78 1121.05 3926.87 1060.66 3959.47 956.936C3964.66 940.388 3957.19 937.402 3944.29 936.78C3926 935.867 3907.63 936.904 3889.34 936.158C3873.75 935.494 3857.12 937.858 3844.34 921.186C3844.05 911.44 3847.91 906.836 3856.58 901.984C3908.46 894.518 3957.27 888.215 4007.79 907.624C3966.48 1008.94 3931.64 1115.94 3802.16 1135.31C3775.54 1139.29 3748.87 1144.68 3722.12 1145.56C3540.67 1151.4 3359.14 1155.55 3177.69 1161.56C2979.2 1168.16 2780.74 1176.2 2582.25 1183.5C2378.86 1190.97 2175.43 1197.73 1972.08 1205.94C1816.52 1212.12 1661.07 1220.12 1502.35 1227.42Z" fill="#D7D5D1"/>
<path d="M3957.32 307.59C3958.61 301.784 3959.93 299.835 3963.62 297.595C4033.88 289.135 4102.6 295.024 4158.92 293.448C4107.62 291.996 4043.75 294.194 3977.14 290.711C4017.46 230.616 4077.3 196.152 4146.73 186.903C4212.14 178.194 4279.2 182.3 4345.52 180.184C4376.87 179.189 4382.84 190.76 4367.17 217.386C4354.1 239.616 4342.86 262.924 4329.3 287.766C4292.01 298.134 4255.72 290.545 4216.78 293.116C4211.31 297.056 4208.86 287.476 4209.4 293.157C4241.54 293.406 4270.74 292.701 4302.96 294.65C4308.4 299.544 4309.31 303.65 4307.32 311.115C4270.49 332.267 4231.63 315.926 4192.1 325.963C4184.43 327.663 4179.95 327.995 4172.07 327.497C4122.51 317.461 4075.73 324.719 4029.28 322.521C4008.5 321.525 3987.55 324.677 3964 317.793C3959.48 314.392 3958.03 312.65 3957.32 307.59Z" fill="#DF8A44"/>
<path d="M4788.33 1180.35C4784.56 1183.71 4783.02 1184.17 4779.37 1185.74C4777.26 1186.9 4776.26 1185.16 4777.01 1184.46C4745.53 1181.8 4736.74 1164.18 4736.82 1133.03C4737.69 829.737 4737.19 526.402 4737.61 223.109C4737.65 200.589 4733.38 173.009 4773.86 173.341C4778.59 171.682 4779.91 171.35 4783.27 171.143C4785.47 174.627 4785.59 177.986 4786.17 183.917C4799.32 200.34 4799.78 217.676 4799.78 235.012C4799.94 534.987 4799.99 834.963 4799.74 1134.94C4799.74 1149.62 4799.49 1164.51 4788.33 1180.35Z" fill="#99918B"/>
<path d="M1472.66 1360.3C1533.87 1391.74 1558.92 1434.46 1545.2 1487.83C1531.88 1539.51 1498.04 1567.92 1444 1566.55C1394.94 1565.26 1364.16 1537.48 1351.3 1491.11C1336.87 1439.06 1359.19 1397.17 1417.91 1363.75C1421.81 1358.73 1424.42 1355.95 1430.31 1352.67C1440.6 1349.73 1448.23 1349.27 1458.85 1351.06C1465.36 1352.92 1468.59 1354.95 1472.66 1360.3Z" fill="#2C302A"/>
<path d="M4124 694.908C4123.34 689.019 4126.16 682.756 4130.6 675.208C4204.25 687.069 4260.37 671.019 4313.95 612.376C4447.33 466.474 4589.05 328.16 4729.81 186.198C4748.18 183.46 4743.25 195.28 4743.17 205.856C4736.66 219.749 4726.45 227.132 4717.66 235.551C4574.87 372.868 4443.23 521.135 4301.51 659.49C4273.77 686.572 4274.22 689.931 4302.84 718.63C4431.45 847.529 4560.35 976.179 4688.92 1105.08C4704.64 1120.84 4723.8 1132.37 4740.68 1150.49C4745.49 1161.52 4744.74 1170.61 4742.25 1181.76C4727.32 1173.26 4713.14 1163.72 4701.2 1151.9C4572.25 1024.25 4440.37 899.288 4316.44 766.947C4261.74 708.469 4205.21 680.475 4124 694.908Z" fill="#A5A2A0"/>
<path d="M646.706 1375.19C696.765 1408.7 712.235 1453.37 689.756 1506.66C670.347 1552.66 631.734 1573.52 582.754 1565.8C533.524 1558.05 506.193 1525.16 498.935 1476.18C490.599 1420.11 529.294 1373.2 595.279 1361.59C614.066 1377.35 610.168 1395.27 600.919 1415.96C596.73 1421.48 593.869 1424.09 588.228 1427.61C571.763 1434.87 564.795 1446.49 565.335 1460.67C565.957 1476.43 568.777 1492.6 586.072 1500.23C598.97 1505.92 612.947 1508.24 624.062 1498.53C639.365 1485.18 643.057 1467.84 632.647 1446.32C629.619 1438.61 627.421 1433.42 625.472 1425.08C623.771 1403.68 621.698 1384.73 646.706 1375.19Z" fill="#2C302A"/>
<path d="M220.809 922.679C303.839 886.971 377.912 749.404 366.216 648.956C365.096 639.251 364.06 629.546 362.401 616.773C413.455 599.437 466.085 609.059 521.743 607.483C487.735 610.22 450.201 612.252 409.266 614.823C389.981 643.937 401.552 675.25 397.197 705.152C384.714 791.292 352.53 867.022 287.582 930.186C278.167 955.526 292.019 969.544 307.116 982.815C392.054 1057.3 482.551 1123.37 587.065 1168.45C601.249 1174.55 618.253 1177.66 621.737 1200.42C513.905 1175.75 425.98 1114.33 341.581 1047.35C296.664 1011.68 252.785 974.396 220.809 922.679Z" fill="#D7D5D1"/>
<path d="M1074.67 343.879C1052.36 347.405 1031.67 348.151 1007.49 348.69C1004.21 341.93 1013.87 333.511 1004.17 329.115C976.049 316.424 968.749 293.945 979.657 268.73C993.178 237.459 1015.91 211.207 1052.9 209.008C1339.03 192.004 1622.59 213.653 1903.61 269.145C1913.82 271.177 1922.77 279.223 1933.68 286.854C1655.68 230.326 1372.91 215.561 1088.4 222.943C1087.16 222.985 1085.95 223.068 1084.71 222.943C1037.89 218.506 997.533 238.745 993.841 283.038C990.358 324.719 1040.08 303.36 1066.09 317.171C1076.96 324.097 1078.41 331.977 1074.67 343.879Z" fill="#D7D5D1"/>
<path d="M4733.46 210.626C4742 201.377 4740.63 194.783 4734 186.903C4741.26 169.733 4756.02 169.153 4774.44 171.392C4754.57 178.774 4747.23 192.378 4747.31 217.344C4748.43 523.624 4748.1 829.862 4747.85 1136.14C4747.85 1156.55 4746.03 1176.45 4775.76 1181.6C4767.34 1184.21 4756.97 1184.67 4743.58 1184.46C4740.05 1175.17 4739.6 1166.54 4737.73 1155.72C4720.69 1138.63 4718.82 1119.26 4718.78 1099.35C4718.61 820.406 4718.65 541.499 4718.65 262.55C4718.74 244.924 4722.18 228.459 4733.46 210.626Z" fill="#8C7368"/>
<path d="M76.3529 800.457C62.0858 794.112 48.8971 790.753 37.2844 784.49C18.9529 774.62 -0.581335 763.463 0.20667 738.994C0.994674 714.774 20.363 704.323 39.441 695.198C67.2285 681.927 96.7165 674.586 130.103 672.098C155.07 718.382 136.946 759.938 116.458 803.734C110.984 808.752 107.168 809.913 100.408 807.591C96.2188 805.559 94.5183 805.393 90.3709 804.273C84.6475 803.029 81.4127 802.656 76.3529 800.457Z" fill="#DF8A44"/>
<path d="M4011.19 907.832C3960.68 910.61 3911.16 911.025 3858.19 911.108C3840.9 877.722 3869.6 859.557 3883.74 833.719C3888.51 831.604 3890.58 831.148 3895.89 830.899C3944.58 837.037 3990.99 825.134 4038.27 840.935C4031.01 864.119 4021.6 884.814 4011.19 907.832Z" fill="#DF8A44"/>
<path d="M1383.49 1209.88C1386.72 1215.52 1387.35 1218.84 1388.3 1224.69C1154.64 1236.51 920.847 1259.77 683.326 1234.89C676.69 1231.78 674.948 1227.59 675.612 1219.38C686.229 1202.75 700.289 1204.82 713.478 1206.6C866.392 1227.59 1019.35 1215.06 1172.26 1207.1C1234.76 1203.87 1297.51 1209.13 1359.89 1201.83C1367.27 1200.96 1374.53 1203.45 1383.49 1209.88Z" fill="#D7D5D1"/>
<path d="M588.723 1421.02C598.719 1402.32 600.212 1385.06 597.972 1364.24C602.451 1330.69 606.847 1300.13 612.612 1266.99C636.833 1250.28 653.132 1255.58 663.833 1283.79C660.059 1314.19 655.123 1341.68 649.98 1372.12C634.428 1386.64 636.377 1405.09 630.819 1423.59C631.068 1444.41 626.133 1461.42 619.787 1480.91C617.34 1484.89 616.179 1486.38 612.488 1489.37C599.631 1494.34 590.548 1491.82 580.594 1482.4C576.613 1476.51 575.161 1472.74 573.876 1465.73C572.383 1447.73 577.36 1434.79 588.723 1421.02Z" fill="#99918B"/>
<path d="M3895.23 837.7C3892.04 836.166 3888.43 836.083 3886.65 836.042C3882.96 837.452 3881.05 838.903 3876.07 842.097C3778.28 848.732 3683.63 849.396 3585.96 841.558C3579.49 836.166 3577.79 831.936 3578.83 823.683C3592.85 807.425 3609.56 810.618 3625.15 810.536C3703.75 810.038 3782.34 810.536 3864 810.079C3869.06 809.789 3871.01 809.582 3875.82 808.918C3886.28 806.596 3890.38 815.056 3899.09 812.9C3902.41 810.287 3904.03 809.665 3914.1 809.54C3964.74 814.144 4007.79 803.07 4051.51 819.162C4052.21 825.383 4050.97 829.198 4048.36 834.59C3997.59 843.921 3947.95 838.032 3895.23 837.7Z" fill="#E1995D"/>
<path d="M111.859 807.3C121.398 763.463 132.804 721.783 132.762 675.25C135.002 671.102 137.283 669.817 143.172 667.204C151.011 666.209 155.241 666.499 161.545 666.623C191.448 696.359 176.019 729.746 170.503 761.887C167.808 777.44 161.047 792.328 155.78 810.245C151.799 813.189 148.232 813.355 142.011 814.226C136.246 814.351 133.094 813.812 127.661 812.609C121.357 810.162 116.961 810.204 111.859 807.3Z" fill="#C97939"/>
<path d="M666.242 1284.28C652.556 1273.71 639.367 1262.1 616.722 1264.38C615.893 1246.67 617.801 1228.87 619.791 1208.1C619.874 1205.07 619.916 1205.77 620.248 1205.82C641.814 1192.46 659.233 1201.3 677.482 1217.84C679.182 1223.69 679.224 1227.01 679.68 1232.73C675.864 1250.73 671.634 1266.33 666.242 1284.28Z" fill="#8C7368"/>
<path d="M1909.42 323.101C1918.38 324.138 1923.93 324.884 1932.27 325.755C1952.55 332.64 1970.01 339.4 1989.51 347.612C1935.17 348.897 1878.85 348.731 1819.01 348.524C1810.71 342.386 1810.46 335.709 1815.15 326.004C1846.79 312.318 1876.45 327.497 1909.42 323.101Z" fill="#C97939"/>
<path d="M1474.23 1359.72C1471.41 1362.63 1468.8 1362.38 1464.36 1361.22C1454.16 1351.39 1445.37 1346.62 1433.42 1359.31C1429.11 1361.8 1426.46 1362.63 1421.81 1362.79C1419.36 1346.24 1418.91 1330.4 1419.07 1311.2C1434.79 1308.21 1449.89 1308.63 1468.26 1308.92C1472.53 1324.72 1473.49 1340.69 1474.23 1359.72Z" fill="#DAB6A3"/>
<path d="M4072.58 781.504C4072.78 787.974 4070.05 792.495 4065.65 798.135C4018 819.618 3970.34 808.42 3920.04 805.144C3906.56 792.661 3915.52 786.689 3926.01 779.058C3976.15 777.233 4022.97 774.288 4072.58 781.504Z" fill="#E5CDB7"/>
<path d="M3912.86 798.549C3962.42 798.259 4009.54 798.591 4060.3 799.13C4063.37 802.282 4062.75 805.268 4061.26 810.411C4011.57 823.599 3962.13 815.014 3909.79 815.512C3906.6 813.978 3905.94 813.19 3905.6 812.816C3904.11 806.886 3906.35 802.655 3912.86 798.549Z" fill="#E1995D"/>
<path d="M4146.44 358.436C4066.44 358.56 3989.71 357.648 3909.46 356.196C3909 350.68 3912.07 345.787 3920.61 340.437C3991.74 335.169 4057.44 338.446 4123.13 338.114C4131.72 338.073 4140.14 339.524 4149.14 347.985C4150.63 353.003 4150.17 355.201 4146.44 358.436Z" fill="#E2DCD4"/>
<path d="M3926.29 335.833C3927.74 330.11 3929.07 328.16 3935.71 325.755C4003.48 320.695 4066.48 323.599 4129.43 323.308C4137.98 323.267 4146.35 324.552 4155.77 332.432C4157.93 337.326 4157.97 339.607 4154.9 343.381C4080.45 344.75 4009.08 344.999 3934.26 344.335C3929.07 342.344 3927.37 340.81 3926.29 335.833Z" fill="#E5CDB7"/>
<path d="M3956.86 308.544C4028.69 310.534 4098.7 312.193 4170.66 316.423C4164.35 329.073 4152.83 326.294 4142.21 326.294C4081.61 326.294 4021.06 326.792 3957.03 325.672C3951.43 324.469 3949.23 323.681 3944.67 320.405C3944.38 316.092 3946.45 314.267 3950.56 311.778C3953.38 310.161 3954.16 309.207 3956.86 308.544Z" fill="#E5CDB7"/>
<path d="M3972.38 289.59C4042.67 288.802 4111.06 288.802 4179.41 288.802C4179.41 291.83 4179.45 294.857 4179.45 297.885C4110.36 297.885 4041.22 297.885 3968.64 297.263C3966.94 294.567 3968.68 292.452 3972.38 289.59Z" fill="#E2DCD4"/>
<path d="M883.442 458.718C873.737 492.726 845.244 512.426 814.637 532.789C825.71 499.777 853.705 479.953 883.442 458.718Z" fill="#E7E5DF"/>
<path d="M3928.12 773.127C3978.8 767.984 4028.61 766.159 4081.62 763.961C4083.07 767.362 4081.37 771.136 4077.84 776.071C4030.81 784.946 3985.23 778.518 3936.5 780.302C3931.15 778.85 3929.2 777.647 3928.12 773.127Z" fill="#E5CDB7"/>
<path d="M3893.87 838.696C3941.31 836.041 3990.63 835.958 4043.42 836C4046.45 838.447 4045.33 840.437 4041.97 842.76C3992.2 842.718 3943.97 842.014 3893.87 838.696Z" fill="#E5CDB7"/>
<path d="M3908.79 816.259C3955.62 813.687 4004.64 813.397 4057.02 812.816C4059.26 814.849 4058.06 817.171 4055.15 820.489C4005.97 820.531 3958.44 819.535 3908.79 816.259Z" fill="#E5CDB7"/>
<path d="M3927.71 777.979C3975.82 776.486 4022.43 776.735 4072.58 777.066C4076.06 777.149 4076.27 780.343 4075.89 781.877C4028.74 783.868 3981.95 784.283 3931.69 784.283C3927.58 782.5 3926.92 781.131 3927.71 777.979Z" fill="#E1995D"/>
<path d="M4188.66 321.318C4222.59 301.203 4260.99 315.926 4301.3 310.244C4307.69 308.129 4310.93 307.383 4316.57 309.083C4315.78 317.544 4312.83 324.677 4305.12 332.972C4264.6 322.687 4226.19 338.198 4188.66 321.318Z" fill="#E5CDB7"/>
<path d="M4305.78 334.34C4304.87 339.151 4303.21 343.215 4296.62 348.358C4251.7 346.077 4210.73 352.754 4171.24 337.824C4212.84 322.52 4255.27 326.17 4300.6 330.441C4303.54 332.225 4305.04 333.635 4305.78 334.34Z" fill="#E5CDB7"/>
<path d="M4200.81 291.333C4241.66 289.591 4281.19 289.466 4324.24 289.549C4326.69 293.821 4325.61 297.886 4322.95 303.401C4316.94 304.521 4312.58 303.733 4306.57 300.747C4272.19 299.088 4239.84 298.383 4203.92 297.388C4200.15 295.687 4199.82 294.319 4200.81 291.333Z" fill="#E2DCD4"/>
<path d="M293.096 614.284C295.004 626.809 295.128 640.62 279.327 642.776C263.442 644.933 259.005 633.362 256.641 617.602C267.341 614.45 278.58 614.077 293.096 614.284Z" fill="#8C7368"/>
<path d="M4284.96 359.39C4245.65 358.022 4208.9 357.192 4168.67 356.114C4164.65 353.708 4164.07 351.51 4166.14 347.28C4209.23 344.584 4249.67 344.792 4293.34 346.202C4296.53 347.239 4297.53 348.856 4298.03 349.685C4297.36 352.381 4295.87 353.916 4292.47 355.616C4289.77 357.358 4288.61 358.644 4284.96 359.39Z" fill="#E2DCD4"/>
<path d="M1001.51 348.773C999.564 369.8 986.873 382.408 962.445 385.435C970.408 370.629 981.482 356.321 1001.51 348.773Z" fill="#E7E5DF"/>
<path d="M758.437 577.705C758.354 586.995 756.239 597.612 753.833 610.883C749.188 612.086 744.875 610.635 739.318 607.192C738.986 592.843 747.903 586.082 758.437 577.705Z" fill="#E7E5DF"/>
<path d="M1937.37 320.779C1935.01 313.231 1934.8 304.438 1934.8 292.411C1947.04 297.719 1955.91 306.719 1937.37 320.779Z" fill="#D7D5D1"/>
<path d="M719.822 605.99C707.38 607.524 691.744 608.727 673.703 608.727C686.394 606.944 701.491 606.28 719.822 605.99Z" fill="#D7D5D1"/>
<path d="M4304.66 301.41C4309.14 300.249 4313.66 300.747 4319.8 303.069C4321.42 304.853 4320.18 307.673 4319.47 309.041C4315.65 310.493 4312.5 310.576 4307.07 310.286C4304.83 307.631 4304.79 305.35 4304.66 301.41Z" fill="#E1995D"/>
<path d="M108.787 805.476C114.8 806.554 118.657 807.798 123.925 810.494C117.496 810.825 109.616 809.706 99.8281 807.134C100.823 805.641 103.727 805.641 108.787 805.476Z" fill="#E1995D"/>
<path d="M4282.56 360.386C4283.8 358.312 4285.17 357.773 4288.74 356.653C4290.4 359.39 4289.94 362.667 4287.95 367.975C4285.21 367.312 4283.97 364.616 4282.56 360.386Z" fill="#E1995D"/>
<path d="M75.8984 800.084C78.138 799.462 81.6634 800.126 86.5988 802.033C84.3592 802.614 80.7924 801.992 75.8984 800.084Z" fill="#E1995D"/>
<path d="M809.903 533.204C808.452 535.444 804.719 537.89 798.664 540.379C800.116 538.098 803.89 535.734 809.903 533.204Z" fill="#E7E5DF"/>
<path d="M3925.59 333.428C3927.25 333.76 3927.58 335.128 3928.12 338.57C3927.37 341.888 3926.38 343.132 3923.52 342.925C3921.65 341.474 3920.49 340.395 3919.95 339.815C3920.9 337.575 3922.52 335.958 3925.59 333.428Z" fill="#E2DCD4"/>
<path d="M3958.61 307.673C3958.69 308.834 3955.62 309.995 3954.09 310.535C3951.8 308.544 3952.55 306.553 3956.41 304.687C3958.07 304.231 3958.52 306.512 3958.61 307.673Z" fill="#E1995D"/>
<path d="M899.2 444.659C899.283 445.737 897.707 447.977 894.265 451.046C894.099 449.884 895.8 447.852 899.2 444.659Z" fill="#E7E5DF"/>
<path d="M3934.8 325.299C3935.42 322.769 3937.17 321.11 3940.73 318.788C3942.31 317.875 3943.8 319.7 3944.55 320.613C3944.51 323.142 3943.72 324.719 3940.28 326.751C3937.62 327.207 3935.71 325.963 3934.8 325.299Z" fill="#E5CDB7"/>
<path d="M958.217 386.223C958.299 387.343 956.682 389.375 953.198 392.112C953.032 390.868 954.774 389.002 958.217 386.223Z" fill="#E7E5DF"/>
<path d="M3581.82 819.037C3582.4 824.595 3582.44 827.705 3582.85 833.138C3582.19 839.94 3580.03 843.838 3574.1 849.105C3569.21 851.884 3567.09 852.714 3561.74 854.663C3547.14 861.506 3534.91 861.838 3522.59 861.796C3347.12 861.423 3171.64 861.879 2996.2 861.506C2985.13 861.465 2974.1 861.174 2960.33 856.446C2952.91 854.787 2948.63 854.165 2941.25 853.045C2934.28 851.055 2930.68 849.147 2925.24 844.626C2920.76 839.484 2918.98 836.083 2917.28 829.613C2916.74 825.093 2916.7 823.309 2917.07 818.83C2918.69 811.157 2920.85 806.43 2924.04 799.504C2927.36 792.951 2930.05 788.886 2934.74 783.37C2937.69 780.841 2939.01 779.97 2942.5 778.394C2950.67 776.776 2956.72 777.108 2964.77 775.242C2971.07 773.209 2975.51 773.334 2981.57 771.302C2985.92 769.062 2988.49 768.067 2993.14 766.906C2999.98 767.113 3004.54 765.827 3011.01 763.671C3020.09 761.348 3027.35 760.56 3037.35 759.98C3097.57 753.344 3155.17 754.007 3216.14 757.242C3227.21 756.828 3234.93 757.325 3245.51 758.445C3261.18 764.542 3274.45 767.279 3290.88 764.708C3298.72 764.293 3304.11 764.749 3312.15 765.786C3325.47 770.306 3336.04 774.744 3350.14 772.007C3355.58 771.385 3358.77 771.634 3364.29 772.297C3387.84 781.007 3410.9 773.666 3434.75 780.799C3440.52 781.214 3443.79 781.546 3449.39 782.417C3457.85 784.076 3463.99 785.112 3472.66 784.158C3479.79 783.702 3484.48 784.159 3491.4 786.025C3502.6 793.78 3513.01 796.352 3526.45 797.14C3530.31 797.803 3531.84 798.135 3535.66 799.006C3542.46 800.789 3546.77 802.738 3553.82 803.526C3561.04 804.314 3565.73 805.476 3572.53 808.171C3577.42 811.282 3579.62 813.729 3581.82 819.037Z" fill="#E7E5DF"/>
<path d="M1707.61 656.711C1720.96 612.708 1733.49 571.069 1747.84 527.439C1766.83 583.096 1753.48 642.03 1757.25 700.217C1758.62 721.036 1757.54 741.98 1757.67 766.366C1758.83 771.011 1759.91 772.173 1762.39 775.242C1764.38 778.642 1764.92 780.135 1766.04 783.951C1767 789.426 1767.25 792.619 1767.54 798.218C1767.91 807.135 1768.24 813.646 1770.19 822.604C1770.52 834.217 1772.56 842.967 1775.42 854.58C1777.7 878.676 1780.48 900.034 1764.55 921.227C1713.62 936.323 1665.26 935.577 1613.79 922.554C1618.15 890.371 1625.53 860.054 1632.87 826.834C1634.49 818.788 1638.22 815.222 1643.86 809.913C1655.1 802.655 1666.59 805.185 1676.34 799.877C1673.6 791.126 1662.98 791.872 1657.67 782.79C1654.73 773.085 1657.92 766.2 1660.2 756.952C1661.86 754.795 1661.45 754.754 1661.61 754.878C1666.71 747.869 1665.8 738.372 1672.64 729.372C1700.93 712.202 1703.04 685.245 1707.61 656.711Z" fill="#DD8842"/>
<path d="M1760.94 778.352C1758.21 775.905 1757.87 772.919 1757.83 771.426C2159.09 769.56 2560.39 769.187 2965.18 769.311C2970.07 771.053 2971.48 772.256 2970.78 775.283C2963.44 779.638 2958.25 782.168 2950.83 784.781C2565.5 791.582 2182.36 786.108 1799.26 787.725C1787.03 787.767 1774.46 788.472 1760.94 778.352Z" fill="#E5CDB7"/>
<path d="M1815.73 323.267C1817.02 330.857 1816.48 336.704 1815.65 345.538C1802.54 379.754 1789.68 411.024 1775.04 444.244C1762.48 443.456 1751.74 440.719 1738.17 438.065C1727.6 430.89 1730.13 422.264 1732.99 411.232C1734.9 405.508 1736.1 402.273 1738.09 396.592C1739.96 390.868 1741.04 387.592 1743.07 381.869C1751.9 362.044 1753.06 341.349 1770.27 325.631C1777.33 322.106 1783.42 321.069 1791.84 319.866C1800.88 319.286 1807.56 318.622 1815.73 323.267Z" fill="#8C7368"/>
<path d="M3446.19 787.642C3418.53 785.278 3393.85 781.421 3367.93 775.159C3437.4 771.385 3508.16 769.104 3578.87 768.813C3687.74 768.357 3796.61 769.311 3908.84 770.306C3912.78 775.947 3910.99 779.804 3903.69 783.951C3768.45 790.338 3636.23 787.85 3504.05 786.398C3485.76 786.232 3467.51 784.739 3446.19 787.642Z" fill="#E5CDB7"/>
<path d="M4142.95 361.92C4144.36 358.809 4145.61 358.187 4152.29 356.86C4121.8 444.078 4068.3 522.297 4019.11 605.533C4041.09 530.425 4092.15 468.049 4127.28 397.296C4132.71 386.472 4137.65 375.399 4142.95 361.92Z" fill="#C97939"/>
<path d="M3216.39 755.5C3162.47 768.399 3104.74 759.15 3043.77 760.892C3097.32 742.436 3155.3 748.657 3216.39 755.5Z" fill="#E5CDB7"/>
<path d="M3904.4 778.684C3908.09 776.196 3909.54 774.91 3911.49 772.214C3916.05 768.191 3919.91 765.454 3926.17 762.427C3928.62 763.422 3928.66 764.708 3928.83 767.901C3928.95 769.809 3928.74 773.044 3928.95 774.661C3928.95 777.523 3928.74 778.808 3928.37 782.002C3924.18 787.269 3920.2 790.67 3915.72 795.978C3912.82 801.577 3910.33 805.227 3906.56 810.66C3905.27 812.443 3902.16 813.231 3900.58 813.48C3896.52 811.406 3894.4 808.752 3892.08 803.361C3891.17 797.471 3891.42 794.112 3893.24 788.43C3896.44 783.371 3899.09 781.338 3904.4 778.684Z" fill="#C97939"/>
<path d="M4014.76 607.441C4015.3 618.929 4012.52 630.293 3997.51 636.224C3996.93 624.735 3999.71 613.372 4014.76 607.441Z" fill="#C97939"/>
<path d="M3290.62 763.007C3279.09 771.717 3264.91 772.712 3249.65 761.183C3261.55 760.104 3274.7 761.1 3290.62 763.007Z" fill="#E5CDB7"/>
<path d="M3985.19 659.117C3985.73 670.605 3982.95 681.968 3967.94 687.899C3967.4 676.453 3970.18 665.047 3985.19 659.117Z" fill="#C97939"/>
<path d="M3955.66 710.834C3956.24 722.322 3953.38 733.644 3938.41 739.616C3937.87 728.128 3940.65 716.765 3955.66 710.834Z" fill="#C97939"/>
<path d="M3349.85 770.306C3340.56 778.767 3328.74 779.845 3316.01 768.481C3325.63 767.445 3336.41 768.398 3349.85 770.306Z" fill="#E5CDB7"/>
<path d="M3993.19 638.173C3993.81 642.901 3992.57 649.205 3989.46 657.168C3988.88 652.44 3990.12 646.136 3993.19 638.173Z" fill="#C97939"/>
<path d="M3934.14 741.565C3934.76 746.293 3933.52 752.597 3930.41 760.56C3929.78 755.832 3931.03 749.528 3934.14 741.565Z" fill="#C97939"/>
<path d="M3963.67 689.848C3964.29 694.576 3963.04 700.88 3959.93 708.843C3959.31 704.157 3960.55 697.811 3963.67 689.848Z" fill="#C97939"/>
<path d="M2970.7 776.859C2968.58 777.067 2968.54 773.417 2968.54 771.634C2971.86 769.684 2975.13 769.519 2980.9 769.767C2979.86 772.297 2976.34 774.495 2970.7 776.859Z" fill="#D7D5D1"/>
<path d="M3010.51 761.97C3008.61 764.168 3004.38 766.117 2997.66 767.445C2999.52 765.122 3003.84 763.422 3010.51 761.97Z" fill="#E5CDB7"/>
<path d="M681.045 1218.55C661.469 1215.4 643.76 1210.38 623.313 1205.65C618.461 1188.69 603.738 1187.32 591.503 1182.22C476.164 1133.9 376.668 1061.78 285.467 977.423C275.015 967.76 261.08 958.512 272.61 938.439C274.725 928.112 281.278 926.536 291.232 925.126C359.166 938.439 424.239 931.347 492.131 928.112C519.877 926.246 544.679 925.872 572.881 925.955C707.713 930.849 839.227 927.282 970.74 928.319C1022.83 928.734 1023.37 928.568 1009.81 980.202C1001.51 1011.85 995.168 1044.11 988.284 1065.22C996.744 1036.19 1006.91 996.625 1015.16 956.77C1020.84 929.314 1035.48 921.061 1061.4 920.937C1127.76 920.688 1194.16 923.135 1263.67 919.568C1268.81 920.025 1270.85 920.481 1275.66 922.471C1315.39 995.754 1335.54 1073.97 1364.33 1148.92C1371.75 1168.2 1378.8 1187.61 1386.06 1209.59C1231.98 1219.67 1077.95 1228.79 923.75 1233.98C843.208 1236.63 762.831 1227.59 681.045 1218.55Z" fill="#E9E7E1"/>
<path d="M1268.19 923.052C1202.41 939.807 1133.69 930.269 1065.34 931.181C1036.15 931.554 1023.83 940.927 1018.48 968.88C1008.44 1021.3 988.741 1071.65 983.307 1125.52C965.64 1092.18 983.888 1061.03 990.98 1030.18C1013.58 931.886 1014.5 932.425 912.968 932.052C802.44 931.637 691.912 930.642 578.812 928.153C721.524 925.623 866.807 924.794 1015.53 923.55C1022.83 920.191 1026.98 917.785 1034.9 914.924C1106.28 906.38 1174.25 910.403 1242.23 911.772C1250.77 911.937 1258.86 915.048 1268.19 923.052Z" fill="#D7D5D1"/>
<path d="M1074.88 348.69C1071.77 339.234 1070.44 331.769 1068.86 321.442C1084.37 319.327 1100.22 320.032 1119.25 321.649C1123.77 323.515 1125.06 324.511 1128.09 327.207C1132.73 332.971 1134.85 337.451 1137.71 344.335C1139.12 348.358 1139.58 350.017 1140.65 354.164C1146.63 382.242 1166.41 404.803 1155.5 435.369C1138.87 430.019 1126.35 428.609 1121.87 452.124C1116.56 451.46 1111.71 448.059 1104.7 443.954C1106.77 408.867 1086.7 381.163 1074.88 348.69Z" fill="#8C7368"/>
<path d="M296.706 930.351C288.909 931.181 283.393 932.342 275.43 934.831C362.774 849.106 394.833 740.197 393.464 618.515C393.464 617.436 397.404 616.358 402.672 615.321C413.33 728.667 386.124 831.106 310.226 920.813C307.987 928.278 304.005 930.186 296.706 930.351Z" fill="#C97939"/>
<path d="M1021.67 918.863C1053.32 776.237 1087.53 635.187 1122.29 491.275C1130.83 487.625 1132.9 492.726 1133.98 502.224C1139.5 547.678 1122.5 586.705 1114.32 627.017C1109.47 650.864 1102.21 674.338 1096.08 701.046C1076.21 773.666 1069.66 846.7 1038.22 915.877C1032.37 920.108 1028.47 920.937 1021.67 918.863Z" fill="#C97939"/>
<path d="M296.625 932.384C298.201 928.195 301.975 926.411 307.781 923.923C369.287 923.882 428.719 924.504 491.635 925.914C484.668 948.434 464.677 939.061 449.29 938.688C399.107 937.568 348.716 944.867 296.625 932.384Z" fill="#D7D5D1"/>
<path d="M1131.66 505.21C1128.63 499.694 1127.3 495.546 1124.44 489.865C1122.37 480.326 1121.91 472.322 1121.5 461.29C1132.24 469.501 1135.14 483.851 1137.09 501.27C1135.76 504.836 1134.56 505.707 1131.66 505.21Z" fill="#8C7368"/>
<path d="M1019.02 918.697C1022.29 917.204 1025.49 917.204 1031.17 917.121C1033.57 917.038 1035.98 919.817 1034.86 921.269C1030.46 923.218 1027.19 923.716 1021.42 923.633C1018.97 923.094 1019.02 920.149 1019.02 918.697Z" fill="#DD8842"/>
<path d="M4788.95 1183.17C4786.01 853.253 4785.97 523.251 4786.26 189.806C4873.39 207.598 4959.87 230.242 5047.05 249.776C5287.26 303.65 5526.32 364.035 5771.55 391.49C5911.49 407.167 6052.04 416.374 6192.8 423.425C6327.88 430.226 6462.72 432.798 6597.38 421.849C6744.9 409.821 6892.01 392.942 7039.45 379.504C7266.4 358.809 7490.02 315.594 7715.1 282.25C7930.48 250.315 8145.65 216.639 8361.52 188.023C8539.77 164.383 8718.69 145.803 8897.57 127.264C9099.59 106.32 9301.69 86.1231 9504.08 69.1605C9635.93 58.0872 9768.35 54.5205 9900.36 45.4379C10294 18.3973 10688.1 12.757 11082.5 16.531C11117.9 16.8628 11153.3 21.881 11188.8 23.5814C11208 24.4938 11209.9 36.1478 11209.9 50.9953C11209.8 364.864 11209.6 678.775 11210.2 992.644C11210.3 1024.21 11190.7 1021.97 11170.9 1020.47C10969.5 1005.29 10767.7 1011.39 10566.2 1014.71C10322.2 1018.73 10078.2 1029.85 9834.67 1043.95C9614.78 1056.68 9394.92 1073.77 9175.77 1095.66C8884.96 1124.74 8594.52 1157.71 8304.57 1195.61C7940.47 1243.18 7579.15 1308.26 7215.63 1358.6C7036.42 1383.4 6855.18 1393.28 6675.19 1412.77C6544.17 1426.95 6412.91 1430.48 6281.68 1426.12C6012.27 1417.16 5743.39 1397.84 5478.83 1343.3C5267.64 1299.75 5056.21 1256.46 4848.26 1198.56C4829.47 1193.29 4810.64 1188.23 4788.95 1183.17Z" fill="#E7E5DF"/>
<path d="M3715.53 1129.88C3537.65 1136.14 3361.01 1138.96 3184.62 1147.09C3051.12 1153.23 2917.69 1158.37 2784.11 1161.69C2583.17 1166.67 2382.35 1175.87 2181.49 1183.25C1980.63 1190.64 1779.73 1197.85 1578.87 1205.57C1556.93 1206.4 1535.12 1210.13 1510.03 1212.49C1511.98 1196.19 1517.12 1179.85 1523.84 1161.52C1544.58 1145.14 1567.01 1146.43 1589.12 1146.34C1619.85 1146.22 1650.75 1148.29 1681.27 1145.64C1734.61 1141.04 1753.85 1119.76 1750.58 1075.22C1748.34 1044.65 1749.62 1013.75 1750.45 983.022C1751.82 929.978 1760.65 921.186 1813.66 921.145C2074.28 920.896 2334.9 921.062 2595.57 921.062C2756.61 921.062 2917.74 924.421 3078.7 920.274C3319.45 914.053 3560.17 913.016 3804.32 914.177C3812.04 914.84 3816.23 915.877 3822.78 919.237C3826.47 922.472 3827.59 924.089 3829.58 928.402C3830.62 934.831 3830.37 938.439 3828.75 944.452C3827.34 948.392 3826.68 949.885 3824.94 953.576C3822.41 958.47 3820.87 961.208 3818.22 965.853C3816.39 969.087 3815.6 970.332 3813.66 973.401C3811.62 976.387 3810.79 977.548 3807.43 982.151C3802.33 988.912 3799.84 992.271 3797.81 998.368C3796.57 1001.73 3796.03 1003.05 3794.58 1006.33C3792.38 1010.93 3791.05 1013.55 3788.6 1018.07C3786.78 1021.34 3785.99 1022.63 3783.96 1025.82C3781.8 1028.97 3780.93 1030.18 3777.2 1035.07C3768.7 1046.23 3764.43 1054.48 3760.61 1065.68C3759.16 1069.45 3758.54 1070.95 3756.67 1074.55C3754.6 1078.08 3753.73 1079.45 3749.87 1084.71C3737.43 1097.86 3734.73 1111.67 3723.33 1122.46C3721.58 1124.16 3722 1124.2 3722 1123.99C3720.38 1125.52 3718.68 1127.14 3715.53 1129.88Z" fill="#E9E7E1"/>
<path d="M3827.88 925.416C3646.02 924.711 3467.6 920.522 3289.42 925.541C2794.1 939.476 2298.74 927.904 1803.37 931.388C1772.06 931.596 1762.44 941.3 1764.3 971.576C1766.58 1008.32 1761.73 1045.69 1765.59 1082.14C1771.98 1142.57 1732.91 1156.8 1687.78 1160.03C1636.4 1163.72 1584.56 1160.57 1529.19 1159.95C1547.02 1079.24 1575.6 1001.44 1609.94 923.052C1659.91 920.232 1708.98 919.693 1761.48 918.656C1783.71 899.039 1808.02 902.689 1831.03 902.647C2123.8 902.44 2416.56 902.523 2709.33 902.523C2997.16 902.523 3284.99 902.647 3572.86 902.44C3624.45 902.399 3675.96 903.933 3727.51 896.882C3757.71 892.735 3788.85 892.237 3822.65 900.739C3830.41 904.679 3833.56 908.246 3835.51 916.541C3834.1 922.14 3832.77 924.13 3827.88 925.416Z" fill="#E2DCD4"/>
<path d="M1267.99 735.427C1385.48 732.607 1501.23 732.4 1620.39 732.275C1606.87 795.522 1586.96 857.607 1557.89 919.237C1544.58 931.679 1530.93 936.697 1516.04 936.987C1457.94 938.273 1399.75 942.005 1338.62 933.337C1331.36 929.771 1327.96 926.785 1323.81 919.859C1322.27 916.79 1321.78 917.038 1322.07 917.038C1316.3 912.103 1319 904.887 1316.14 896.758C1314.77 894.726 1314.44 895.058 1314.69 895.016C1306.72 877.307 1303.78 857.815 1294.16 837.908C1292.79 835.627 1292.25 835.876 1292.54 835.834C1286.77 830.94 1289.47 823.724 1286.65 815.554C1285.32 813.48 1284.91 813.853 1285.16 813.77C1279.39 808.752 1282.05 801.536 1279.23 793.407C1277.9 791.375 1277.52 791.707 1277.77 791.665C1271.93 774.163 1261.97 757.657 1267.99 735.427Z" fill="#DD8842"/>
<path d="M1037.23 923.301C1033.78 922.721 1033.74 919.9 1033.66 918.449C1050.13 847.447 1066.63 777.813 1084.34 705.65C1097.2 692.752 1106.28 702.083 1118.06 708.304C1121.46 710.419 1122.75 711.373 1125.9 713.862C1131.29 718.589 1134.52 722.115 1140.37 726.345C1143.65 728.75 1144.93 729.746 1148.25 732.068C1171.15 741.441 1195.08 730.575 1217.18 745.34C1242.94 802.531 1265.67 858.561 1278.4 920.979C1277.07 924.172 1275.7 924.421 1272.38 925.292C1193.83 925.209 1117.27 924.545 1037.23 923.301Z" fill="#E08941"/>
<path d="M1329.41 927.241C1404.89 923.674 1477.38 922.14 1552.78 920.937C1527.98 1028.89 1482.69 1130.34 1446.24 1239.99C1407.75 1138.05 1371.25 1041.5 1332.52 943.955C1327 938.978 1325.71 934.416 1329.41 927.241Z" fill="#E7E5DF"/>
<path d="M1151.32 561.696C1140 612.874 1114.32 658.826 1122.99 714.152C1112.58 712.493 1101.59 708.097 1088.07 703.41C1100.22 638.629 1114.99 574.18 1129.79 506.827C1129.92 503.883 1133.44 503.966 1135.18 504.007C1136.93 504.049 1137.13 503.8 1137.01 503.758C1140.24 506.827 1140.7 511.182 1143.02 517.03C1144.18 518.813 1144.52 518.481 1144.27 518.523C1151.28 525.864 1146.3 536.232 1150.7 546.973C1150.99 552.862 1151.11 556.097 1151.32 561.696Z" fill="#DD8842"/>
<path d="M1202.95 346.284C1194.33 385.684 1183.71 422.637 1172.14 462.243C1166.25 456.769 1161.31 448.599 1155.01 438.936C1146.01 409.863 1138.38 382.325 1130.75 352.008C1147.79 331.313 1169.19 337.865 1192.58 339.649C1197.39 341.722 1199.18 342.801 1202.95 346.284Z" fill="#DD8842"/>
<path d="M1709.43 498.823C1708.06 452.331 1707.9 403.891 1707.57 352.008C1741.82 335.626 1747.51 339.732 1749.66 382.366C1749.16 388.919 1748.87 392.112 1748.21 397.711C1747.22 401.568 1746.55 403.061 1744.35 406.338C1740.46 416.416 1738.09 424.669 1735.6 435.493C1727.14 457.723 1718.89 477.298 1709.43 498.823Z" fill="#DD8842"/>
<path d="M1706.4 654.845C1710.67 683.669 1715.24 713.778 1679.94 731.695C1670.82 727.174 1672.77 720.456 1676.71 712.285C1687.91 692.212 1696.16 673.757 1706.4 654.845Z" fill="#E7E5DF"/>
<path d="M1138.25 734.888C1159.57 731.819 1181.51 731.695 1206.77 731.487C1212.87 735.054 1215.64 738.662 1218.88 744.551C1192.58 742.975 1163.8 757.574 1138.25 734.888Z" fill="#DD8842"/>
<path d="M1650.87 809.54C1645.23 814.724 1641.46 818.249 1635.28 822.853C1641.17 801.95 1649.42 779.969 1659.79 756.371C1661.7 762.965 1661.49 771.136 1661.32 782.333C1662.82 794.568 1659.5 801.867 1650.87 809.54Z" fill="#8C7368"/>
<path d="M1268.28 732.317C1272.55 750.399 1275.33 767.984 1278.06 788.555C1263.63 775.366 1254.71 757.45 1261.81 733.229C1263.75 731.446 1266.82 731.819 1268.28 732.317Z" fill="#8C7368"/>
<path d="M1292.66 838.406C1310.54 849.189 1311.49 869.801 1315.01 892.113C1299.17 880.46 1296.64 860.511 1292.66 838.406Z" fill="#8C7368"/>
<path d="M1677.12 711.912C1678.66 716.018 1677.62 721.409 1677.04 729.497C1673.52 738.953 1669.53 745.671 1663.69 753.758C1660.74 739.492 1661.95 724.603 1677.12 711.912Z" fill="#8C7368"/>
<path d="M1152.32 547.969C1148.5 541.125 1146.18 532.54 1143.94 521.26C1153.14 525.739 1155.05 535.444 1152.32 547.969Z" fill="#8C7368"/>
<path d="M1285.2 816.01C1287.93 819.245 1290.59 825.01 1293.03 833.263C1290.21 830.028 1287.64 824.263 1285.2 816.01Z" fill="#8C7368"/>
<path d="M1330.9 923.55C1332.27 929.19 1332.14 933.172 1331.11 940.098C1327.5 936.158 1324.76 929.315 1322.15 919.651C1324.64 918.532 1327 920.232 1330.9 923.55Z" fill="#8C7368"/>
<path d="M1277.73 793.822C1280.47 797.098 1283.08 802.863 1285.53 811.157C1282.79 807.881 1280.22 802.116 1277.73 793.822Z" fill="#8C7368"/>
<path d="M1314.64 897.256C1317.38 900.532 1319.99 906.297 1322.44 914.592C1319.7 911.315 1317.13 905.509 1314.64 897.256Z" fill="#8C7368"/>
<path d="M1144.14 516.532C1141.82 515.205 1139.46 511.68 1136.97 505.873C1139.25 507.201 1141.66 510.726 1144.14 516.532Z" fill="#8C7368"/>
<path d="M1701.18 343.174C1537.48 346.616 1374.61 347.57 1208.34 348.648C1204.94 348.731 1202.91 349.229 1201.87 349.105C1196.86 342.303 1196.9 335.501 1201.83 325.423C1235.76 321.069 1267.98 319.908 1303.61 318.663C1317.79 319.202 1328.62 318.871 1341.72 319.161C1403.02 328.575 1462.46 325.589 1525.25 324.884C1539.31 320.861 1550.38 323.806 1563.24 320.571C1603.34 319.327 1641.29 319.741 1682.76 321.11C1693.17 326.875 1701.93 330.151 1701.18 343.174Z" fill="#DAB6A3"/>
<path d="M1702.09 346.45C1695.54 339.151 1690.77 332.64 1686.12 324.096C1693.05 321.898 1699.81 321.774 1709.1 321.483C1715.78 321.898 1719.88 322.811 1726.15 322.562C1740.5 322.354 1752.81 322.562 1768.2 322.976C1765.38 342.842 1759.45 362.459 1751.53 383.901C1739.25 371.541 1745.68 341.017 1710.35 348.565C1706.28 348.068 1705.04 347.653 1702.09 346.45Z" fill="#C97939"/>
<path d="M1201.13 322.272C1203.45 329.073 1203.41 335.875 1202.12 345.828C1179.6 348.98 1158.37 348.939 1133.94 349.063C1130.25 347.612 1129.75 346.036 1128.71 341.971C1126.02 335.502 1126.14 330.732 1123.2 324.594C1122.37 322.479 1122.45 322.396 1122.45 322.479C1140.04 322.355 1157.66 322.106 1178.11 321.649C1182.34 322.147 1183.75 322.811 1187.23 322.479C1192.46 321.732 1195.61 321.981 1201.13 322.272Z" fill="#C97939"/>
<path d="M1820.96 324.926C1811.13 324.221 1804.61 323.433 1796.2 321.193C1832.24 301.037 1869.98 321.608 1910.37 321.981C1883.33 323.889 1853.8 324.387 1820.96 324.926Z" fill="#DAB6A3"/>
<path d="M1342.22 317.378C1333.64 328.534 1322.32 327.414 1308.8 320.447C1317.38 309.166 1328.7 310.203 1342.22 317.378Z" fill="#D7D5D1"/>
<path d="M1562.66 318.871C1556.6 328.41 1545.12 325.589 1531.51 325.133C1539.14 322.728 1549.51 320.778 1562.66 318.871Z" fill="#D7D5D1"/>
<path d="M1726.27 321.069C1723.95 322.603 1719.68 323.101 1713.54 322.437C1715.9 320.903 1720.13 320.488 1726.27 321.069Z" fill="#DAB6A3"/>
<path d="M1188.4 320.82C1187.94 321.94 1186.57 322.396 1183.09 322.188C1182.88 319.866 1185.04 319.451 1188.4 320.82Z" fill="#DAB6A3"/>
<path d="M4166.64 347.114C4166.06 349.685 4165.56 352.754 4165.39 354.33C4163.98 355.906 4162.74 355.948 4159.63 356.113C4157.76 356.238 4157.64 356.072 4157.55 356.031C4154.98 353.169 4153.95 349.893 4156.14 344.086C4157.93 342.013 4157.93 341.473 4158.18 341.639C4162.03 340.561 4164.94 341.474 4166.64 347.114Z" fill="#C97939"/>
<path d="M277.796 721.741C259.672 721.119 254.447 712.368 261.29 698.516C263.115 694.825 272.322 690.968 275.723 692.503C290.073 699.014 290.529 709.382 277.796 721.741Z" fill="#8C7368"/>
<path d="M236.571 785.402C250.257 786.273 258.511 791.084 252.912 803.651C251.336 807.217 241.838 810.95 238.437 809.333C228.027 804.397 225 795.854 236.571 785.402Z" fill="#8C7368"/>
<path d="M3843.14 922.969C3884.7 923.965 3924.01 924.048 3963.29 924.794C3973.41 925.001 3991.58 923.757 3981.75 941.01C3944.25 1006.91 3921.98 1085.71 3836.13 1111.76C3801.96 1122.12 3768.11 1128.01 3730.83 1125.15C3726.27 1107.9 3737.22 1096.87 3742.48 1081.52C3744.06 1079.41 3743.93 1079.7 3743.81 1079.82C3745.47 1078.2 3747.21 1076.5 3750.24 1073.43C3751.52 1072.11 3751.4 1072.4 3751.28 1072.52C3759.4 1059.83 3764.3 1045.48 3772.05 1029.72C3773.59 1027.73 3773.46 1028.02 3773.34 1028.1C3775 1026.49 3776.74 1024.79 3779.77 1021.72C3781.05 1020.39 3780.93 1020.68 3780.81 1020.8C3783.96 1017.65 3784.5 1013.22 3787.07 1007.33C3788.39 1005.58 3788.27 1005.92 3788.19 1006C3794.7 998.575 3795.74 988.414 3801.67 977.921C3803.16 976.013 3803.03 976.304 3802.91 976.387C3804.57 974.769 3806.31 973.027 3809.34 970C3810.62 968.673 3810.5 968.963 3810.38 969.088C3813.53 965.936 3814.07 961.498 3816.64 955.609C3817.97 953.867 3817.84 954.199 3817.76 954.282C3820.95 951.13 3821.49 946.692 3824.02 940.803C3825.35 939.061 3825.22 939.351 3825.1 939.476C3828.04 935.951 3830.28 931.762 3835.22 926.578C3838.16 924.048 3839.49 923.177 3843.14 922.969Z" fill="#E7E5DF"/>
<path d="M3846.09 921.684C3845.42 923.591 3842.06 924.048 3840.41 924.338C3837.29 925.541 3835.84 926.495 3832.4 925.748C3830.16 921.31 3829.87 918.532 3829.54 913.721C3830.91 886.514 3848.33 869.054 3861.39 846.824C3865.62 842.76 3868.44 840.894 3873.42 837.783C3876.99 836.124 3878.56 836.041 3882.5 835.958C3875.04 859.101 3865.21 882.201 3855.05 908.039C3852.06 913.762 3849.41 916.79 3846.09 921.684Z" fill="#C97939"/>
<path d="M3741.82 1080.65C3747.34 1095.08 3735.35 1105.33 3729.59 1120.55C3727.68 1123.33 3726.48 1123.57 3723.36 1123.99C3719.76 1106.74 3731.24 1095 3741.82 1080.65Z" fill="#DF8A44"/>
<path d="M3715.98 1130.46C3715.44 1128.72 3716.69 1126.39 3719.96 1123.91C3720.58 1125.81 3719.17 1127.85 3715.98 1130.46Z" fill="#DF8A44"/>
<path d="M4169.46 349.395C4164.57 347.694 4163.03 345.787 4159.96 342.801C4107.66 324.304 4055.32 337.948 4003.85 333.884C3983.32 332.266 3962.67 332.018 3939.86 329.197C3939.57 326.294 3941.31 325.092 3944.09 322.603C4018.74 320.903 4092.19 320.239 4169.17 319.285C4175.76 318.953 4178.87 318.954 4184.31 318.995C4225.03 325.133 4264.81 310.991 4303.05 329.488C4263.19 332.266 4222.84 332.266 4182.52 332.266C4182.48 336.04 4182.44 339.815 4182.4 343.547C4218.9 343.547 4255.39 343.547 4294.21 345.414C4255.31 347.861 4214.09 348.482 4169.46 349.395Z" fill="#E1995D"/>
<path d="M4200.86 290.13C4201.81 290.876 4201.52 292.12 4200.86 295.189C4199.61 295.563 4198.62 294.153 4198.04 292.618C4197.87 292.203 4199.03 291.291 4200.86 290.13Z" fill="#E1995D"/>
<path d="M1474.44 1420.94C1501.03 1443.75 1508.2 1469.3 1490.66 1497.21C1477.18 1518.61 1455.53 1523.5 1432.84 1513.13C1407.46 1501.52 1396.8 1479.12 1402.78 1452.75C1411.32 1414.63 1436.58 1404.97 1474.44 1420.94Z" fill="#E5CDB7"/>
<path d="M1434.83 1361.47C1432.09 1351.43 1431.27 1340.85 1444.12 1338.86C1455.65 1337.08 1462.16 1342.51 1462.45 1357.4C1454.33 1360.84 1446.11 1361.42 1434.83 1361.47Z" fill="#E7E5DF"/>
<path d="M578.479 1462.29C580.055 1468.18 580.801 1471.7 582.17 1477.84C590.175 1490.2 600.543 1490.57 613.441 1488.5C615.474 1487.54 614.934 1484.81 614.022 1483.73C614.105 1478.09 616.262 1474.02 619.58 1467.97C625.096 1461.25 627.211 1455.44 629.492 1447.15C632.561 1442.5 635.132 1440.76 640.441 1440.47C656.574 1469.05 653.588 1494.3 626.506 1511.18C603.695 1525.41 580.262 1518.81 564.875 1498.2C546.254 1473.23 544.595 1446.65 572.963 1422.97C590.174 1434.08 571.179 1447.69 578.479 1462.29Z" fill="#E5CDB7"/>
<path d="M629.823 1469.05C625.054 1474.27 621.238 1477.26 615.266 1481.45C617.381 1464.77 621.611 1446.9 627.915 1427.7C633.846 1429.65 637.662 1432.96 642.099 1438.73C640.523 1442.42 638.367 1443.66 635.422 1446.61C629.989 1453.83 631.814 1460.63 629.823 1469.05Z" fill="#8C7368"/>
<path d="M580.389 1461.87C558.657 1454.28 577.196 1439.68 575.412 1424.84C578.813 1420.98 582.048 1419.57 587.979 1418.45C587.606 1432.14 584.537 1445.61 580.389 1461.87Z" fill="#DAB6A3"/>
<path d="M612.653 1487.25C603.985 1498.29 593.7 1495.71 583.414 1482.65C591.792 1482.61 600.792 1484.77 612.653 1487.25Z" fill="#DAB6A3"/>
<path d="M3895.65 796.227C3898.64 801.867 3898.76 805.268 3898.97 811.157C3899.05 813.687 3899.05 813.853 3898.97 813.853C3897.85 815.263 3896.81 816.673 3894.16 816.01C3892.54 813.936 3889.93 813.521 3888.6 813.438C3852.52 822.563 3817.1 816.632 3782.05 817.13C3714.99 818.042 3647.88 818 3577.46 815.554C3569.21 813.356 3564.31 812.609 3556.93 811.738C3549.84 811.282 3545.4 810.079 3539.22 807.632C3537.52 806.056 3537.61 806.43 3537.69 806.264C3538.23 790.379 3550.71 789.218 3561.16 789.135C3668.33 788.098 3775.54 786.232 3882.71 789.965C3886.36 790.172 3889.47 792.494 3895.65 796.227Z" fill="#DF8A44"/>
<path d="M3575.05 815.719C3675.92 813.687 3777.82 813.272 3883.45 813.106C3841.07 829.945 3793.37 818.457 3746.51 820.447C3694.13 822.687 3641.62 821.152 3585.75 821.36C3580.24 820.074 3578.17 818.705 3575.05 815.719Z" fill="#E5CDB7"/>
<path d="M3871.97 836.125C3874.46 838.447 3873.54 840.687 3871.18 844.087C3858.45 853.17 3846.01 857.525 3832.19 857.649C3759.2 858.354 3686.16 858.396 3613.17 857.566C3600.94 857.442 3588.87 855.451 3576.18 845.124C3575.72 840.438 3577.63 838.654 3581.4 836.125C3678.37 835.668 3773.47 835.876 3871.97 836.125Z" fill="#E5CDB7"/>
<path d="M3892.5 815.678C3892.54 813.978 3895.69 813.812 3897.27 813.853C3897.72 816.881 3896.6 819.867 3895.48 822.853C3894.49 821.028 3893.49 819.203 3892.5 815.678Z" fill="#C97939"/>
<path d="M4154.45 341.764C4157.93 345.082 4157.89 348.192 4157.68 353.625C4157.52 355.948 4154.11 356.197 4152.41 356.155C4097.21 338.778 4042.3 352.92 3988.18 348.607C3967.57 346.948 3946.87 346.616 3923.98 343.547C3921.7 341.432 3925.14 341.391 3926.8 341.018C4002.57 340.976 4076.77 341.266 4154.45 341.764Z" fill="#E1995D"/>
<path d="M3573.77 843.133C3670.15 843.009 3766.45 843.714 3866.28 844.875C3857.86 866.4 3845.96 887.51 3831.77 910.154C3143.6 914.094 2457.74 916.541 1768.41 918.573C1764.88 896.012 1764.84 873.907 1766.91 845.539C1783.63 830.069 1800.01 832.599 1815.77 832.599C2169.91 832.392 2524.02 832.433 2878.16 832.516C2894.09 832.516 2910.31 831.106 2928.39 840.894C2935.15 842.76 2938.47 843.382 2944.15 844.875C2963.93 856.446 2982.97 858.479 3003.13 858.396C3143.39 857.981 3283.65 858.479 3423.92 857.898C3452.29 857.774 3480.32 860.843 3508.57 861.921C3529.84 862.709 3550.33 860.511 3571.77 847.198C3574.64 845.373 3573.72 843.963 3573.77 843.133Z" fill="#DF8A44"/>
<path d="M1761.24 800.126C1758.46 795.107 1758.54 792.702 1759 788.472C1766.42 776.569 1777.2 780.882 1786.37 780.882C2165.77 780.675 2545.22 780.592 2924.62 780.716C2928.31 780.716 2931.96 781.256 2937.56 784.781C2938.56 790.919 2937.6 793.905 2935.45 797.928C2919.48 810.411 2902.14 809.996 2884.85 809.996C2525.48 810.038 2166.15 810.079 1806.77 809.872C1792.18 809.872 1777 811.987 1761.24 800.126Z" fill="#E5CDB7"/>
<path d="M1758.37 800.126C2148.02 797.969 2537.42 798.425 2930.51 798.882C2932.37 803.278 2930.51 807.674 2926.73 813.48C2912.51 825.549 2897.49 824.678 2882.77 824.678C2514.44 824.554 2146.11 825.3 1770.56 823.309C1761.61 815.761 1759.86 809.25 1758.37 800.126Z" fill="#E1995D"/>
<path d="M1764.68 844.792C1757.54 839.608 1758.79 833.097 1762.85 824.263C1763.35 822.231 1764.14 821.692 1764.55 821.443C1772.72 815.927 1781.6 817.669 1790.02 817.669C2165.94 817.793 2541.86 817.213 2921.3 819.037C2925.45 823.765 2926.11 827.374 2926.44 833.761C2911.97 842.636 2897.04 839.525 2882.52 839.525C2512 840.064 2141.43 839.028 1767.7 841.931C1764.55 843.673 1764.84 844.419 1764.68 844.792Z" fill="#E1995D"/>
<path d="M3571.45 845.083C3560.58 877.266 3531.09 874.487 3505.42 872.289C3336.58 857.815 3167.49 869.718 2998.61 865.612C2980.57 865.156 2961.2 869.013 2947.43 848.276C3144.18 856.488 3341.97 849.23 3539.72 851.303C3549.22 851.428 3558.76 847.115 3571.45 845.083Z" fill="#C97939"/>
<path d="M2941.7 787.103C2932.16 786.979 2924.86 785.237 2917.56 785.237C2533.64 785.278 2149.67 785.486 1762.43 786.149C1758.87 784.822 1758.62 783.039 1758.29 778.56C2137.56 776.196 2516.93 776.528 2896.29 777.025C2912.09 777.067 2927.89 779.099 2946.1 782.5C2947.01 785.361 2945.48 785.818 2941.7 787.103Z" fill="#E1995D"/>
<path d="M1768.08 843.839C1773.72 831.438 1787.07 835.959 1798.69 835.959C2172.12 835.793 2545.51 835.876 2922.55 836.207C2928.06 836.954 2929.47 838.074 2931.17 840.894C2740.35 842.719 2548.82 843.631 2357.3 843.963C2162.04 844.295 1966.82 844.046 1768.08 843.839Z" fill="#E5CDB7"/>
<path d="M2924.83 818.83C2540.53 820.406 2156.23 820.697 1768.45 821.07C1772.97 809.997 1784.96 813.522 1795.53 813.522C2169.63 813.48 2543.72 813.688 2921.3 814.393C2924.78 814.932 2924.78 817.545 2924.83 818.83Z" fill="#E5CDB7"/>
<path d="M3898.88 796.186C3779.81 799.752 3661.07 800.955 3540.05 804.149C3522.88 804.439 3505.75 813.148 3493.6 793.739C3496.5 774.122 3510.27 781.006 3519.36 781.006C3643.82 780.758 3768.24 780.052 3895.94 782.748C3899.18 787.518 3899.22 790.67 3898.88 796.186Z" fill="#E5CDB7"/>
<path d="M3900.75 783.661C3765.42 785.403 3631.67 786.356 3495.42 789.177C3487.38 791.126 3481.82 791.25 3473.48 791.623C3467.76 794.568 3464.32 795.563 3458.26 792.992C3453.29 790.711 3450.38 790.296 3445.32 789.55C3443.62 766.657 3461.04 777.606 3469.83 777.523C3613.04 776.776 3756.29 777.025 3902.99 777.191C3905.6 779.555 3904.23 781.421 3900.75 783.661Z" fill="#E1995D"/>
<path d="M3538.97 808.005C3541.96 806.927 3546.44 807.715 3552.66 810.079C3549.76 811.074 3545.11 810.494 3538.97 808.005Z" fill="#E5CDB7"/>
<path d="M3457.14 792.702C3459.38 791.002 3462.66 790.919 3468.3 791.333C3466.52 792.66 3462.33 793.49 3457.14 792.702Z" fill="#E5CDB7"/>
<path d="M1651.95 811.697C1651.91 803.402 1654.81 795.564 1659.54 786.564C1676.17 788.389 1703.92 776.652 1701.05 801.37C1698.44 824.305 1670.9 808.213 1651.95 811.697Z" fill="#DAB6A3"/>
<path d="M1744.15 407.167C1743.15 405.964 1744.02 404.015 1746.64 401.195C1748.09 402.522 1747.3 404.554 1744.15 407.167Z" fill="#C97939"/>
<path d="M1290.71 1161.07C1193.66 1158.45 1099.72 1166.83 1006.61 1150.37C1117.76 1159.16 1229.12 1151.24 1340.48 1161.07C1325.05 1161.07 1309.62 1161.07 1290.71 1161.07Z" fill="#D7D5D1"/>
<path d="M1122.16 324.843C1124.36 326.543 1126.39 330.608 1128.3 337.077C1126.14 335.418 1124.07 331.313 1122.16 324.843Z" fill="#DAB6A3"/>
<path d="M9943.88 275.987C9976.81 337.16 9975.77 405.218 9995.55 467.925C9999.95 481.86 9993.77 505.956 10013.7 507.076C10035.2 508.279 10046.9 489.574 10051.8 468.465C10060.6 430.143 10071.7 392.278 10078.5 353.584C10083.6 324.76 10099.9 310.203 10126.1 304.646C10145.2 300.581 10164.8 297.346 10184.3 296.6C10283.4 292.826 10295.9 302.406 10323.9 395.804C10332.7 425.167 10342.8 454.281 10354.2 482.731C10359.4 495.754 10372.1 504.463 10386.4 504.007C10405.1 503.427 10399.2 485.51 10401.3 475.391C10413.4 416.416 10424.4 357.192 10434.7 297.844C10438.3 276.941 10447.7 264.126 10469.6 261.845C10516.8 256.91 10562.9 261.223 10607.2 278.766C10623.1 285.029 10635.2 294.982 10630.7 315.055C10596.7 468.506 10577.5 625.233 10526.3 774.91C10514.6 808.794 10494.7 820.116 10461.3 821.816C10378.4 826.005 10316.1 785.029 10264.8 728.419C10223.2 682.508 10195 678.775 10151.8 727.838C10103.9 782.251 10047.4 828.742 9965.4 824.678C9930.48 822.936 9909.16 812.485 9895.89 778.021C9840.82 635.187 9804.9 487.376 9775.04 337.741C9769.65 310.659 9781.59 298.383 9803.41 290.379C9847.95 273.997 9893.74 267.237 9943.88 275.987Z" fill="#312A28"/>
<path d="M8845.06 794.319C8845.69 808.752 8848.05 820.157 8846.18 830.816C8841.21 859.059 8866.01 896.094 8829.34 914.467C8782.94 937.692 8732.59 941.632 8682.61 923.923C8666.77 918.324 8663.7 903.435 8662.99 887.551C8656.44 738.911 8650.43 590.271 8641.88 441.756C8639.77 405.259 8653.45 386.223 8686.84 377.68C8691.57 376.477 8696.01 374.113 8700.69 372.661C8801.47 341.432 8809.81 345.579 8850.46 441.465C8866.75 479.911 8884.26 517.859 8902.46 555.434C8911.26 573.599 8928.09 585.253 8947.71 578.866C8966.96 572.645 8955.88 553.153 8955.63 540.047C8954.51 487.21 8952.81 434.332 8948.79 381.62C8946.55 352.713 8958.62 337.782 8984.67 330.649C8988.19 329.695 8991.59 328.119 8995.08 326.958C9111.53 287.849 9129.45 299.751 9135.96 418.614C9142.68 541.374 9152.55 664.01 9149.48 787.144C9148.53 824.636 9156.12 865.778 9105.4 880.376C9050.11 896.302 8995.57 905.177 8951.61 856.446C8915.69 816.673 8882.64 774.329 8840.59 723.898C8842.49 753.551 8843.65 772.214 8845.06 794.319Z" fill="#312A28"/>
<path d="M9194.4 535.651C9267.31 371.998 9427.94 288.098 9591.97 325.589C9747.66 361.215 9814.72 559.001 9709.58 679.273C9613.9 788.762 9486.21 830.111 9345.69 825.009C9236.49 821.028 9162.96 708.47 9181.29 588.446C9183.9 571.567 9189.42 555.102 9194.4 535.651Z" fill="#312A28"/>
<path d="M8215.53 973.857C8178.29 952.374 8143.45 932.301 8102.72 908.827C8105.29 932.632 8108.98 950.093 8108.61 967.47C8108.07 991.649 8132.87 1023.25 8105.13 1038.55C8061.62 1062.61 8014.13 1083.06 7961.96 1080.07C7945.58 1079.12 7947.52 1062.61 7946.99 1050.75C7938.86 868.722 7945.82 687.111 7963.41 505.873C7964.82 491.275 7966.23 477.63 7983.4 470.04C8063.07 434.83 8144.61 409.49 8233.11 421.849C8304.24 431.802 8335.6 475.432 8323.98 546.102C8312.25 617.477 8275.62 677.531 8232.28 732.731C8208.35 763.214 8214.99 775.822 8245.76 791.375C8281.89 809.623 8315.56 832.516 8350.86 852.465C8364.67 860.262 8370.85 868.888 8365.25 885.021C8356.46 910.444 8267.04 984.101 8241.37 984.35C8233.65 984.391 8225.77 978.46 8215.53 973.857Z" fill="#312A28"/>
<path d="M6076.51 804.356C6012.72 872.372 5993.02 959.093 6027.41 1018.77C6042.63 1045.19 6062.45 1070.82 6097.5 1059.25C6135.86 1046.6 6154.77 1014.33 6160.58 975.64C6161.7 968.258 6154.11 955.816 6147.06 951.71C6124.37 938.439 6115.91 922.389 6126.36 896.924C6137.35 870.215 6151.12 849.811 6184.63 850.06C6223.95 850.35 6263.31 847.115 6302.38 854.829C6340.99 862.46 6357.58 885.726 6350.32 923.84C6334.6 1006.29 6301.63 1082.06 6247.63 1145.93C6190.98 1212.91 6072.53 1226.06 5976.48 1181.76C5894.03 1143.77 5836.58 1047.06 5847.33 959.383C5876.98 717.221 6010.4 633.486 6261.82 651.693C6315.19 655.55 6335.64 690.471 6323.45 739.368C6312.04 785.071 6275.01 804.439 6225.65 788.057C6173.93 770.887 6124.54 766.864 6076.51 804.356Z" fill="#332B29"/>
<path d="M5384.64 937.983C5398.33 952.332 5411.23 963.986 5421.72 977.506C5436.2 996.086 5469.58 1008.49 5448.93 1040.88C5425.29 1077.95 5387.55 1096.41 5346.82 1107.77C5341.88 1109.14 5332.05 1096.87 5325.96 1089.69C5297.47 1056.1 5269.51 1022.09 5230.28 974.977C5234.42 1024.45 5235.63 1058.84 5240.65 1092.59C5244.38 1117.52 5235.71 1126.73 5211.99 1125.86C5189.96 1125.03 5167.74 1126.35 5145.96 1123.66C5119.87 1120.42 5105.73 1105.82 5103.78 1077.04C5091.34 894.228 5091.17 711.124 5086.9 528.103C5086.32 503.551 5098.68 499.321 5117.34 497.496C5200.29 489.533 5279.22 502.182 5351.34 545.646C5439.35 598.649 5460.58 680.019 5410.19 769.518C5400.61 786.564 5390.99 805.807 5376.14 817.254C5318.87 861.506 5329.23 899.413 5384.64 937.983Z" fill="#332B29"/>
<path d="M6825.57 1012.47C6842.45 973.193 6823.04 953.286 6791.77 941.964C6753.66 928.153 6714.59 916.997 6676.02 904.514C6632.31 890.371 6614.64 858.727 6615.18 814.351C6616.88 680.31 6737.94 591.847 6886.21 616.69C6894.71 618.1 6903.34 619.468 6911.43 622.164C6943.61 632.947 6987.28 636.638 6995.08 673.342C7002.75 709.507 6965.09 731.737 6941.04 755.749C6928.47 768.274 6915.16 769.933 6897.49 764.873C6870.53 757.118 6842.45 752.515 6814.54 748.948C6801.06 747.206 6785.88 751.561 6781.49 766.864C6776.64 783.661 6790.61 791.167 6802.85 796.849C6836.32 812.319 6871.03 825.217 6903.79 841.972C6965.38 873.45 6982.47 915.587 6963.68 982.525C6912.01 1166.38 6743.79 1244.84 6593.28 1154.6C6531.65 1117.64 6581.83 1077.58 6594.44 1041.42C6606.92 1005.5 6631.1 1000.19 6666.48 1023.13C6741.38 1071.57 6787.17 1067.09 6825.57 1012.47Z" fill="#332B29"/>
<path d="M7780.05 930.476C7808.83 926.121 7834.3 921.476 7859.93 918.656C7904.35 913.721 7919.32 931.513 7906.38 975.018C7893.44 1018.44 7873.49 1051.58 7819.16 1054.9C7754.34 1058.84 7689.93 1070.86 7625.44 1080.07C7601.55 1083.47 7587.65 1075.09 7583.76 1050.87C7559.82 902.523 7556.63 754.629 7594.25 607.856C7605.07 565.678 7630.46 542.702 7677.24 537.766C7739.45 531.214 7800.79 516.615 7862.58 505.873C7904.39 498.574 7920.19 517.818 7913.68 558.046C7902.28 628.136 7880.92 647.214 7788.39 649.619C7739.74 650.905 7746.21 680.973 7747.12 708.428C7748.41 745.298 7777.89 724.478 7791.04 722.612C7836.66 716.225 7854.99 738.082 7858.23 778.518C7861.46 818.498 7850.72 847.529 7803.07 853.833C7779.26 856.985 7747.04 846.617 7732.9 873.326C7724.56 889.086 7722.28 915.048 7729.74 930.31C7738.16 947.48 7760.47 928.776 7780.05 930.476Z" fill="#322B29"/>
<path d="M5762.93 856.073C5793.7 938.065 5772.3 969.626 5690.68 959.009C5649.95 953.701 5655.55 978.916 5650.37 1001.73C5643.4 1032.38 5662.56 1032.75 5683.55 1033.91C5709.3 1035.32 5734.93 1038.6 5760.65 1040.13C5789.35 1041.87 5816.6 1049.92 5808.72 1084.47C5800.05 1122.5 5800.96 1177.37 5746.42 1178.69C5683.09 1180.23 5619.1 1171.56 5556.8 1155.22C5535.94 1149.74 5524.79 1139.75 5521.92 1118.76C5501.73 970.497 5499.24 822.604 5531.05 675.457C5540.05 633.859 5560.41 612.832 5608.94 620.754C5668.12 630.417 5728.71 631.703 5788.72 635.975C5822.48 638.38 5844.96 654.637 5839.03 689.268C5832.98 724.478 5833.6 769.85 5779.19 771.094C5760.85 771.509 5742.44 768.15 5724.03 768.191C5707.19 768.233 5682.3 745.091 5678.28 785.485C5675.29 815.512 5672.68 838.903 5714.78 837.078C5730.5 836.415 5749.62 837.493 5762.93 856.073Z" fill="#332B29"/>
<path d="M7555.93 559.001C7551.87 651.444 7546.06 659.781 7444.45 671.186C7404.92 675.623 7391.57 690.802 7385.89 728.626C7368.88 841.682 7348.02 954.199 7327.95 1066.8C7321.15 1104.79 7221.77 1154.76 7186.23 1139.25C7168.44 1131.5 7175.49 1116.52 7176.53 1104C7186.36 985.096 7195.89 866.151 7207.26 747.372C7209.87 719.917 7202.24 713.074 7175.78 717.387C7133.35 724.354 7090.3 727.589 7047.75 734.142C7021.66 738.165 7014.61 727.423 7017.1 703.659C7022.53 651.859 7034.27 615.943 7101.17 609.059C7240.4 594.792 7378.38 568.208 7516.94 547.015C7530.46 544.941 7546.47 536.149 7555.93 559.001Z" fill="#322B29"/>
<path d="M10837.4 664.633C10733.7 685.038 10698.9 660.651 10683.5 560.742C10667.5 457.267 10661.5 353.418 10664.6 248.615C10665.9 202.829 10688 181.594 10728.9 173.051C10759.4 166.706 10790.1 166.581 10820.5 172.18C10860.7 179.562 10882.6 200.009 10879.8 245.463C10872.6 365.652 10869.5 486.049 10878.4 606.321C10880.6 637.177 10870 655.799 10837.4 664.633Z" fill="#322B29"/>
<path d="M6585.32 700.714C6570.1 837.908 6555.04 972.156 6537.87 1106.11C6532.81 1145.47 6471.93 1179.36 6423.65 1172.89C6377.16 1166.67 6364.68 1134.98 6365.46 1093.47C6367.75 975.391 6374.67 857.815 6394.54 741.151C6402.71 693.166 6437.34 675.996 6476.7 668.78C6515.31 661.646 6558.73 651.154 6585.32 700.714Z" fill="#332B29"/>
<path d="M10779.6 833.138C10734.4 820.282 10731.8 785.237 10729.4 750.234C10729.1 746.708 10729.8 742.478 10731.6 739.616C10741.4 724.188 10847.8 722.778 10874.6 740.819C10906.2 762.095 10893.3 796.02 10890.4 825.134C10888.7 841.433 10871 837.701 10859.7 837.618C10833.9 837.493 10808.2 835.295 10779.6 833.138Z" fill="#332B29"/>
<path d="M3771.35 1028.93C3775.92 1045.36 3764.01 1057.05 3753.48 1071.44C3748.96 1055.02 3760.86 1043.37 3771.35 1028.93Z" fill="#DF8A44"/>
<path d="M3800.88 977.175C3805.81 987.626 3799.59 996.045 3790.51 1005.21C3785.82 994.676 3792.29 986.506 3800.88 977.175Z" fill="#DF8A44"/>
<path d="M3828.88 924.006C3831.78 924.13 3833.19 924.213 3836.63 924.421C3835.55 929.356 3832.44 934.167 3827.13 939.268C3824.85 936.282 3824.73 932.964 3824.48 927.158C3824.36 924.669 3827.34 923.964 3828.88 924.006Z" fill="#DF8A44"/>
<path d="M3786.03 1006.33C3787.24 1010.02 3786.07 1014.42 3782.8 1019.89C3781.72 1016.28 3782.67 1011.64 3786.03 1006.33Z" fill="#DF8A44"/>
<path d="M3815.56 954.613C3816.76 958.304 3815.56 962.659 3812.32 968.134C3811.25 964.567 3812.2 959.922 3815.56 954.613Z" fill="#DF8A44"/>
<path d="M3823.02 939.932C3824.23 943.623 3823.15 948.143 3819.83 953.576C3818.67 949.885 3819.71 945.282 3823.02 939.932Z" fill="#DF8A44"/>
<path d="M3808.47 968.797C3809.46 971.244 3808.3 973.732 3804.94 976.387C3803.95 973.981 3805.11 971.451 3808.47 968.797Z" fill="#DF8A44"/>
<path d="M3749.37 1072.23C3750.37 1074.68 3749.21 1077.21 3745.89 1079.86C3744.89 1077.37 3746.05 1074.84 3749.37 1072.23Z" fill="#DF8A44"/>
<path d="M3778.9 1020.51C3779.94 1022.96 3778.73 1025.49 3775.41 1028.1C3774.42 1025.7 3775.58 1023.13 3778.9 1020.51Z" fill="#DF8A44"/>
<path d="M1123.41 719.336C1127.43 720.704 1131.58 724.52 1136.68 730.202C1130.75 731.695 1124.94 729.704 1123.41 719.336Z" fill="#DD8842"/>
<path d="M1474.65 1471.04C1463.37 1491.61 1449.27 1494.05 1435.41 1479.79C1425.63 1469.71 1427.04 1455.19 1439.73 1448.68C1458.76 1438.98 1472.49 1445.61 1474.65 1471.04Z" fill="#8C7368"/>
<path d="M630.488 1469.46C629.617 1464.82 630.446 1458.39 632.934 1450.18C633.805 1454.78 632.976 1461.21 630.488 1469.46Z" fill="#DAB6A3"/>
<path d="M9512.17 503.468C9533.82 493.431 9554.39 482.897 9572.77 500.565C9591.35 518.481 9585.46 541.25 9577.7 562.65C9561.07 608.478 9454.48 684.042 9406.54 683.835C9372.78 683.71 9373.98 662.932 9384.77 641.449C9413.47 584.382 9456.27 539.508 9512.17 503.468Z" fill="#E2DCD4"/>
<path d="M8102.93 660.527C8100.77 640.661 8098.2 623.491 8099.4 606.612C8100.48 591.474 8086.71 569.078 8111.31 562.982C8134.49 557.259 8158.84 562.484 8174.68 582.018C8189.86 600.723 8174.89 617.519 8163.02 630.334C8147.47 647.172 8134.49 671.766 8102.93 660.527Z" fill="#E2DCD4"/>
<path d="M5278.72 674.545C5301.49 693.581 5310.99 712.866 5287.68 734.556C5273.54 747.703 5250.39 767.154 5237.62 751.146C5217.3 725.64 5216.51 686.116 5227.87 657.872C5234.76 640.703 5260.39 664.342 5278.72 674.545Z" fill="#D7D5D1"/>
</svg>
