<svg width="11196" height="1722" viewBox="0 0 11196 1722" fill="none" xmlns="http://www.w3.org/2000/svg">
<path d="M10225 9.12403C10231.2 7.42362 10234.5 7.42373 10240.1 7.54815C10249.6 13.6447 10258 15.2621 10266.7 14.7229C10343.1 10.1609 10419 19.1192 10494.9 23.5983C10597.5 29.6119 10700.4 35.501 10803 42.3441C10896.1 48.5236 10988.9 55.1179 11081.4 66.6474C11108 69.9653 11134.4 75.647 11161.6 74.9835C11179.2 74.5687 11188.5 84.8127 11187.6 103.185C11187.3 110.526 11187.7 117.95 11187.7 125.332C11187.7 430.409 11187.7 735.486 11187.7 1040.52C11187.7 1047.9 11187.5 1055.29 11187.6 1062.67C11187.8 1082.57 11180.8 1092.07 11158.6 1088.42C11133.2 1084.28 11107.2 1084.65 11078.7 1077.64C11059.5 1073.33 11043.1 1075.11 11023.9 1071.17C10867.9 1055.33 10714.5 1050.39 10561.5 1040.6C10354.2 1027.33 10146.9 1021.69 9939.27 1018C9776.9 1015.14 9614.94 1020.74 9453.11 1027.95C9319.65 1033.93 9186.23 1043.26 9052.93 1054.58C8920.96 1065.78 8789.03 1076.89 8657.68 1093.69C8499.71 1113.89 8342.27 1138.23 8184.92 1163.07C8028.77 1187.75 7872.96 1214.21 7717.26 1241.25C7601.3 1261.37 7485.88 1284.38 7369.59 1302.67C7264.24 1319.22 7158.57 1332.66 7052.73 1345.31C6944.19 1358.29 6835.28 1365.75 6726.41 1371.89C6622.27 1377.78 6518.08 1384.62 6413.82 1388.31C6248.01 1394.2 6082.11 1395.99 5916.26 1399.84C5803.28 1402.5 5690.68 1393.83 5577.95 1390.55C5423.26 1386.08 5270.05 1364.34 5115.52 1357.09C5005.57 1351.9 4894.8 1350.41 4782.86 1330.54C4769.42 1311.63 4770.54 1292.89 4770.54 1274.47C4770.37 979.14 4770.42 683.81 4770.5 388.479C4770.5 372.512 4769.96 356.421 4778.21 338.089C4794.35 321.085 4812.14 324.984 4828.98 325.938C4945.14 332.656 5061.19 341.573 5177.4 348.25C5252.92 352.605 5328.65 357.333 5404.1 367.121C5468.26 375.457 5533.41 379.646 5601.93 377.033C5608.52 376.411 5611.76 376.494 5617.35 376.742C5630.13 385.949 5642.86 384.29 5654.97 383.959C5710.26 382.383 5765.46 386.364 5823.52 385.742C5829.66 384.083 5832.98 384.042 5838.78 384.125C5861.51 396.484 5882.66 392.461 5905.68 385.908C5910.82 384.125 5914.14 384 5919.91 384C5950.27 394.327 5978.14 383.378 6006.05 383.378C6084.56 383.337 6163.19 388.396 6244.4 378.816C6250.5 376.784 6253.81 376.659 6259.58 376.618C6326.72 376.037 6391.47 379.853 6458.69 371.392C6464.58 369.36 6467.82 369.236 6473.5 369.111C6611.98 368.282 6747.48 357.872 6883.14 348.582C6988.32 341.407 7093.04 330.707 7197.43 317.104C7308.99 302.505 7420.1 284.091 7530.8 263.811C7696.86 233.411 7863.13 204.38 8029.64 176.51C8163.56 154.114 8297.9 134.622 8431.9 112.641C8513.85 99.2039 8596.76 91.2825 8681.49 75.9789C8687.34 73.9053 8690.53 73.7393 8696.09 73.5319C8761.49 73.0342 8823.5 61.7536 8888.44 53.7907C8894.08 51.8 8897.28 51.5927 8902.84 51.3438C8997.23 51.5097 9088.18 36.8282 9179.8 32.2661C9234.83 29.5289 9289.66 23.6811 9344.78 21.9807C9415.7 19.7827 9486.5 14.4326 9560.2 9.49727C9566.25 7.46508 9569.49 7.34075 9575.21 7.25781C9647.25 6.3454 9716.97 11.0733 9789.17 2.11505C9797.47 0.124334 9803.07 0 9811.45 0C9834.42 7.71401 9855.33 2.23948 9878.22 1.7418C9886.14 0.0414023 9891.7 -4.5562e-05 9900.08 0.0829008C9916.96 11.2392 9933.54 6.92594 9949.22 7.2992C10040.1 9.66317 10131.2 3.60809 10225 9.12403Z" fill="#E7E5DF"/>
<path d="M1988.63 501.121C2151.63 545.497 2307.24 604.389 2469.86 638.107C2813.76 709.357 3158.57 775.341 3507.03 821.252C3565.1 828.883 3604.37 813.497 3644.06 770.613C3726.72 681.405 3815.48 597.877 3903.86 510.742C3919.53 499.42 3935.34 498.923 3951.22 498.923C4008.33 499.047 4065.4 498.3 4125.62 499.669C4161.29 512.111 4149.8 533.428 4138.64 552.921C4107.12 607.997 4076.72 663.696 4043.92 718.025C4038.23 727.44 4033.75 737.518 4028.24 750.043C4026.66 754.231 4026 755.849 4024.05 759.747C4017.91 768.706 4011.48 774.139 4006.51 783.719C4004.72 787.244 4004.06 788.696 4002.36 792.221C3999.12 798.484 3997.34 802.797 3994.56 809.267C3992.78 812.75 3992.03 814.119 3989.83 817.312C3984.19 823.658 3980.79 828.717 3976.52 835.892C3974.86 839.293 3974.24 840.62 3972.62 844.021C3969.59 850.035 3967.85 854.14 3965.2 860.32C3963.54 863.679 3962.79 864.965 3960.76 868.075C3954.37 875.292 3949.93 881.181 3945.62 889.932C3944.05 893.499 3943.42 894.95 3941.81 898.6C3938.57 905.36 3936.7 910.129 3932.56 916.889C3929.57 920.539 3928.2 921.866 3924.39 924.894C3916.59 929.912 3910.74 931.903 3901.29 933.271C3726.76 934.93 3555.52 933.811 3380.91 934.225C3373.16 934.225 3368.76 934.35 3361.21 934.847C3345.74 934.018 3333.42 932.815 3318.7 928.17C3309.83 927.921 3303.9 928.253 3295.06 927.589C3278.43 926.635 3264.99 924.521 3248.9 920.539C3238.08 921.576 3230.15 921.327 3219.25 920.456C3162.05 913.655 3107.85 905.567 3051.07 923.193C3040.37 925.848 3032.45 926.636 3021.58 928.004C3012.75 929.083 3006.82 929.829 2998.03 931.903C2990.93 933.479 2986.79 933.976 2979.32 934.101C2971.61 934.101 2967.17 934.142 2959.25 934.184C2578.52 934.225 2201.23 934.225 1823.98 934.101C1804.41 934.101 1784.62 936.008 1762.02 929.705C1742.15 913.406 1743.77 893.167 1743.4 874.006C1742.32 814.534 1742.9 755.103 1744.89 692.395C1737.26 657.848 1753.27 631.264 1762.72 600.159C1774.54 573.077 1784.42 548.607 1793.42 523.765C1797.98 511.157 1804.49 499.669 1821.04 493.241C1878.27 489.55 1932.19 490.752 1988.63 501.121Z" fill="#E08941"/>
<path d="M721.401 762.236C726.626 760.121 729.903 759.831 735.585 759.333C743.589 758.586 749.147 758.213 757.483 759.374C831.555 782.392 902.185 806.944 973.147 830.418C1015.2 844.312 1024.91 839.376 1036.23 796.535C1049.71 745.564 1064.76 695.05 1076.75 643.664C1080.36 628.236 1083.34 612.352 1096.49 597.795C1106.9 592.155 1114.41 593.731 1123.78 600.823C1127.1 604.762 1128.22 606.587 1130.37 611.315C1132.99 622.513 1132.86 630.891 1132.7 642.337C1104.74 777.581 1067.54 907.434 1038.18 1039.19C1035.48 1051.3 1031.92 1062.92 1024.99 1076.89C1021.42 1081.04 1019.72 1082.49 1014.91 1085.4C909.816 1092.69 807.791 1088.01 705.765 1089.42C666.406 1089.96 627.048 1089 584.288 1090.41C540.16 1093.94 499.225 1091.49 455.18 1095.51C408.563 1082.58 363.812 1094.39 317.196 1086.02C299.569 1072.99 305.583 1061.01 314.458 1049.69C372.232 976.321 397.78 892.545 395.54 799.687C395.291 788.655 395.457 777.415 406.24 766.757C445.723 763.854 482.469 765.347 522.284 763.273C571.68 762.195 618.048 762.195 667.816 761.905C687.019 767.711 703.318 763.771 721.401 762.236Z" fill="#E08941"/>
<path d="M4782.4 1329.59C4951.9 1339.58 5118.63 1344.52 5284.28 1360.69C5501.64 1381.93 5719.17 1396.78 5937.41 1395.28C6114.09 1394.08 6290.85 1388.81 6467.36 1380.64C6884.63 1361.32 7298.83 1317.85 7709.63 1237.02C8013.14 1177.3 8319.46 1131.39 8626.62 1092.07C8802.72 1069.55 8979.35 1055.41 9156.12 1040.64C9481.98 1013.44 9808.38 1005.6 10134.9 1013.4C10352.7 1018.58 10570.3 1036.08 10787.9 1048.57C10865 1052.96 10941.9 1058.77 11022.2 1063.99C11028 1066.73 11029 1069.92 11027 1075.65C10772.4 1057.44 10519.2 1042.55 10265.5 1032.31C10186.9 1029.16 10108.3 1030.77 10029.8 1026.21C9886.22 1017.88 9742.47 1022.23 9599.18 1028.29C9359.3 1038.41 9119.62 1053.38 8880.4 1076.48C8530.02 1110.32 8183.59 1170.37 7836.66 1226.98C7646.8 1257.96 7457.76 1294.29 7267.81 1324.61C7104.44 1350.7 6939.75 1365.42 6774.48 1374.79C6490.05 1390.89 6205.66 1403.45 5920.69 1404.95C5715.77 1406.02 5511.93 1396.57 5308.08 1376.08C5187.39 1363.97 5065.96 1359.45 4944.85 1351.82C4891.02 1348.42 4837.15 1345.85 4780.53 1341.57C4774.48 1336.18 4774.93 1332.62 4782.4 1329.59Z" fill="#D8D7D3"/>
<path d="M1936.67 472.96C1935.01 476.071 1935.47 477.896 1935.26 478.85C1930.78 484.407 1925.51 487.02 1916.35 488.098C1876.95 485.444 1841.61 470.886 1801.59 479.637C1791.72 483.577 1784.17 485.278 1773.97 488.14C1759.62 491.291 1747.96 491.499 1733.36 489.716C1724.74 488.347 1719.01 487.061 1710.3 485.858C1699.52 483.494 1691.52 483.743 1680.44 484.49C1643.45 488.057 1609.44 485.817 1572.28 486.19C1556.19 482.872 1543.83 485.527 1528.36 489.881C1467.02 489.923 1408.62 496.144 1347.61 485.278C1333.14 481.794 1322.15 475.2 1306.93 481.67C1274.95 487.683 1245.38 483.785 1213.32 487.352C1206.69 488.015 1202.91 488.056 1196.48 487.185C1188.98 485.319 1184.33 482.54 1176.41 485.609C1156.54 488.927 1139.71 483.328 1119.55 484.116C1101.84 487.103 1087.24 485.485 1069.37 483.328C1045.52 480.135 1024.49 479.513 1005.37 469.725C987.953 460.809 979.16 448.201 985.091 428.045C992.971 401.295 1030.34 370.853 1058.96 369.775C1201 364.383 1342.76 367.079 1484.77 375.415C1621.63 383.461 1756.3 403.742 1890.8 427.672C1904.36 430.077 1916.72 434.598 1932.06 441.524C1935.01 443.183 1934.68 443.348 1934.76 443.182C1939.86 451.477 1942.47 460.228 1936.67 472.96Z" fill="#E9E7E1"/>
<path d="M4286.54 520.696C4235.77 623.508 4185.05 723.126 4133.29 825.275C4133.75 835.56 4129.52 840.786 4122.43 847.339C4109.53 870.439 4098.5 891.757 4086.14 915.272C4064.49 937.833 4038.4 934.515 4013.35 934.142C3988.13 933.769 3962.75 936.838 3934.63 929.663C3930.03 926.262 3928.54 924.52 3927.79 919.378C3928.58 915.977 3928.58 916.018 3928.58 916.018C3934.01 910.876 3931.52 903.784 3934.51 895.738C3935.96 893.789 3935.96 893.83 3935.92 893.83C3944.13 886.448 3947.95 875.872 3956.49 865.877C3958.11 864.218 3958.11 864.26 3958.06 864.26C3963.5 859.159 3961.01 852.025 3964.04 843.979C3965.49 842.03 3965.49 842.072 3965.45 842.072C3973.66 834.689 3977.47 824.114 3986.02 814.119C3987.64 812.46 3987.64 812.501 3987.59 812.501C3993.03 807.4 3990.54 800.267 3993.57 792.221C3995.02 790.272 3995.02 790.313 3994.98 790.313C4003.19 782.931 4007 772.355 4015.55 762.36C4017.16 760.701 4017.17 760.743 4017.12 760.784C4051.96 689.658 4094.76 622.927 4133 553.667C4141.26 538.737 4148.51 523.475 4157.93 506.222C4161.91 503.402 4163.65 502.489 4168.34 500.789C4204.38 498.3 4237.52 497.72 4273.64 501.369C4282.76 505.683 4286.66 510.286 4286.54 520.696Z" fill="#E08941"/>
<path d="M1123.07 613.928C1121.46 612.061 1120.96 610.444 1121.17 609.656C1114.7 585.975 1125.02 577.846 1149.57 580.583C1166.5 588.131 1169.36 603.559 1179.73 616.624C1209.71 704.464 1243.8 787.866 1269.89 876.785C1265.49 900.673 1272.92 919.544 1282.5 940.529C1286.44 948.948 1287.39 955.708 1291.13 964.21C1294.4 972.795 1295.07 979.597 1299.13 987.892C1305.02 1007.8 1310.91 1025.05 1319.45 1044C1323.35 1052.26 1324.26 1058.94 1328.24 1067.19C1331.69 1077.6 1335.96 1084.69 1342.93 1093.23C1357.98 1120.73 1370.42 1146.49 1373.74 1178.29C1368.89 1205.87 1383.28 1225.95 1390.87 1247.6C1407.38 1294.63 1419.53 1343.36 1444.66 1391.96C1469.67 1353.52 1477.26 1312.17 1491.24 1273.93C1534.2 1156.48 1576.05 1038.61 1617.48 920.58C1621.92 907.931 1627.48 895.323 1624.33 878.568C1637.72 800.93 1672.31 732.873 1695.37 658.014C1709.39 633.669 1712.25 606.753 1734.15 586.929C1749.91 581.579 1761.15 584.357 1771.81 597.338C1765.63 624.669 1758 649.263 1750.03 676.594C1751.32 721.261 1729.55 757.757 1721.17 800.142C1706.24 820.755 1702.63 843.98 1689.03 864.965C1678.7 876.619 1671.69 887.153 1670.07 903.12C1668.99 907.06 1668.54 908.636 1667.17 912.535C1657.22 934.598 1649.29 954.796 1641.5 977.855C1640.34 982.085 1639.8 983.786 1638.18 987.974C1596.33 1100.57 1555.77 1210.81 1517.49 1321.79C1505.17 1357.58 1481.32 1388.77 1476.97 1430.2C1476.18 1437.05 1475.44 1441.07 1473.44 1446.83C1436.12 1463.8 1429.94 1460.11 1415.51 1425.72C1353.05 1276.79 1304.94 1122.6 1245.96 969.519C1231.07 939.368 1233.19 905.111 1207.14 879.895C1181.34 829.796 1164.34 779.033 1147.46 725.408C1145.68 719.684 1145.05 716.367 1144.64 710.56C1144.68 700.4 1144.68 692.644 1141.28 683.064C1139.87 679.497 1139.21 678.087 1137.63 674.561C1135.47 669.543 1134.27 666.64 1132.24 661.456C1130.99 657.641 1130.66 656.064 1130.12 652.042C1128.84 638.272 1125.98 627.158 1123.07 613.928Z" fill="#99918B"/>
<path d="M294.423 769.867C315.948 768.001 335.607 767.71 358.542 767.586C376.417 780.318 378.242 798.11 377.412 814.865C372.85 907.35 343.984 989.758 273.81 1053.92C260.331 1066.23 246.604 1079.17 222.922 1075.03C210.604 1062.38 201.107 1050.76 191.775 1036.62C189.66 1025.8 187.545 1017.38 177.301 1015.31C150.923 1010.04 147.605 990.131 147.273 965.62C153.495 920.415 174.646 879.522 161.167 832.242C157.766 821.294 158.513 812.999 163.407 802.755C165.439 799.147 166.351 797.778 170.997 793.216C200.692 784.922 221.097 761.116 253.405 768.001C267.631 777.83 278.829 788.862 294.423 769.867Z" fill="#DD8842"/>
<path d="M152.71 965.579C162.456 985.403 148.48 1020.41 191.488 1011.24C197.046 1010.04 195.719 1022.94 192.691 1031.94C185.101 1027.83 178.341 1021.57 163.327 1007.67C179.502 1099.7 185.848 1182.07 189.539 1264.64C193.23 1347.05 194.184 1429.41 175.894 1510.41C172.535 1525.34 174.277 1548.32 149.807 1549.15C122.476 1550.1 124.176 1525.09 120.817 1509.25C95.3102 1389.85 105.72 1269.41 114.969 1149.47C119.49 1090.91 131.102 1032.89 139.438 971.717C142.217 965.579 145.742 964.086 152.71 965.579Z" fill="#2C302A"/>
<path d="M176.268 799.976C163.535 798.276 167.6 810.552 163.867 818.058C159.803 824.072 155.323 824.694 148.605 821.418C117.748 662.119 105.016 503.443 118.702 343.356C120.776 319.094 127.868 295.247 132.637 271.234C135.208 258.212 140.144 247.761 156.028 247.968C172.037 248.175 175.563 259.622 179.129 271.981C201.982 351.153 200.696 432.441 197.793 513.396C194.558 604.14 188.793 694.883 172.95 787.202C174.65 790.106 175.646 790.52 176.06 790.188C175.023 791.516 174.401 793.258 174.692 795.082C174.941 796.907 175.272 797.82 176.268 799.976Z" fill="#2C302A"/>
<path d="M4007.75 1061.51C3966.45 1162.83 3931.61 1269.87 3802.13 1289.19C3775.5 1293.18 3748.83 1298.57 3722.04 1299.44C3540.55 1305.29 3359.02 1309.43 3177.57 1315.45C2979.03 1322.04 2780.58 1330.09 2582.09 1337.39C2378.7 1344.85 2175.23 1351.61 1971.88 1359.78C1816.4 1366.04 1660.95 1374.01 1502.23 1381.22C1497.01 1373.3 1500.36 1367.29 1508.99 1360.2C1534.12 1349.91 1557.27 1344.89 1580.62 1345.6C1679.08 1348.5 1777.2 1340 1875.37 1336.22C2042.26 1329.8 2209.32 1327.81 2376 1316.52C2445.85 1311.8 2516.02 1312.25 2585.94 1310.1C2686.6 1306.99 2787.38 1302.84 2888 1299.23C3052.4 1293.3 3216.89 1287.58 3381.29 1280.61C3484.31 1276.25 3587.46 1269.37 3694.09 1270.57C3699.6 1270.41 3701.76 1270.32 3710.18 1270.12C3718.43 1269.95 3720.38 1269.87 3725.27 1269.99C3840.07 1274.76 3927.05 1214.46 3959.52 1110.78C3964.7 1094.19 3957.16 1091.28 3944.3 1090.66C3926.01 1089.75 3907.64 1090.79 3889.35 1090.04C3873.75 1089.38 3857.12 1091.74 3844.39 1075.03C3844.1 1065.28 3847.95 1060.68 3856.62 1055.82C3908.47 1048.4 3957.24 1042.06 4007.75 1061.51Z" fill="#D8D7D3"/>
<path d="M3977.15 444.592C4017.46 384.498 4077.31 350.033 4146.73 340.785C4212.14 332.076 4279.2 336.181 4345.52 334.066C4376.87 333.071 4382.84 344.642 4367.17 371.268C4354.1 393.497 4342.86 416.805 4329.3 441.648C4292.02 452.016 4255.73 444.426 4216.78 446.998C4211.31 450.938 4208.86 441.357 4209.4 447.039C4241.54 447.288 4270.74 446.583 4302.97 448.532C4308.4 453.426 4309.31 457.532 4307.32 464.997C4270.49 486.149 4231.63 469.808 4192.11 479.845C4184.43 481.545 4179.95 481.877 4172.07 481.379C4122.51 471.343 4075.73 478.6 4029.28 476.402C4008.5 475.407 3987.56 478.559 3964 471.674C3959.56 468.274 3958.11 466.532 3957.36 461.472C3958.65 455.666 3959.98 453.716 3963.67 451.477C4033.97 443.016 4102.65 448.906 4159.09 447.33C4107.62 445.837 4043.75 448.035 3977.15 444.592Z" fill="#DF8A44"/>
<path d="M4785.59 1326.19C4783.48 1331.75 4781.36 1333.86 4778.46 1338.09C4777.71 1340.25 4774.19 1339.58 4772.61 1338.8C4744.49 1333.57 4736.94 1317.44 4736.98 1291.52C4737.44 986.771 4737.23 682.068 4737.4 377.323C4737.4 365.047 4737.15 352.605 4746.03 338.38C4747.19 334.896 4747.64 335.394 4747.35 335.559C4753.28 325.73 4763.61 330.085 4774.73 327.223C4778.5 325.564 4779.83 325.191 4783.19 324.818C4786.21 326.062 4787.21 327.265 4787.33 330.665C4786.21 662.783 4785.88 992.744 4785.59 1326.19Z" fill="#99918B"/>
<path d="M8680.99 74.1538C8667.68 101.692 8637.82 91.8214 8615.3 94.7245C8408.01 121.267 8202.13 156.727 7995.72 188.952C7701.17 234.945 7409.86 300.805 7113.07 333.403C6948.87 351.443 6784.68 366.581 6619.36 370.728C6573.12 371.89 6527.08 381.18 6478.27 371.434C6531.98 364.673 6587.97 357.333 6644.08 355.84C6973.43 347.255 7298.08 300.805 7621.5 241.083C7937.16 182.772 8253.73 129.686 8572.16 88.5035C8607.46 83.9414 8642.59 78.9232 8680.99 74.1538Z" fill="#D8D7D3"/>
<path d="M11067.3 1073.33C11093.7 1073.78 11119.2 1072.58 11142.1 1079.67C11181.6 1091.91 11180.7 1070.63 11180.6 1042.72C11180.1 736.605 11179.8 430.533 11181 124.42C11181.1 90.6604 11170.5 84.8956 11138 80.0017C10979.3 56.0302 10819.2 50.39 10659.5 38.9019C10535 29.9437 10409.9 27.8286 10285.1 22.1467C10271.3 21.5246 10255.2 28.6166 10243.4 10.6172C10535 17.875 10827.1 31.5196 11118.4 63.3296C11188.3 70.9606 11196.6 94.7247 11196 154.405C11193.2 448.159 11193.5 741.955 11195.9 1035.71C11196.3 1084.48 11187.4 1106.79 11135.2 1093.48C11115.2 1088.38 11094.3 1086.56 11071.5 1081.5C11067.8 1078.3 11066.5 1076.85 11067.3 1073.33Z" fill="#D8D7D3"/>
<path d="M1472.7 1514.19C1533.91 1545.62 1558.96 1588.38 1545.19 1641.76C1531.88 1693.39 1498.04 1721.84 1443.96 1720.43C1394.89 1719.15 1364.12 1691.36 1351.26 1644.99C1336.83 1592.94 1359.14 1551.1 1417.87 1517.63C1421.77 1512.61 1424.38 1509.83 1430.31 1506.56C1440.6 1503.61 1448.27 1503.15 1458.85 1504.94C1465.4 1506.8 1468.63 1508.84 1472.7 1514.19Z" fill="#2C302A"/>
<path d="M4124 848.79C4123.34 842.901 4126.16 836.638 4130.6 829.09C4204.01 840.827 4260.41 825.482 4313.66 766.507C4437.71 629.148 4570.22 499.461 4699.49 366.872C4709.66 356.42 4721.43 347.545 4734.96 337.799C4744.54 342.402 4744.95 349.453 4743.29 359.448C4736.07 374.337 4724.96 382.548 4715.3 391.797C4573.46 528.368 4442.56 675.722 4301.72 813.247C4273.89 840.412 4274.3 843.813 4302.84 872.388C4431.49 1001.29 4560.39 1129.98 4689 1258.92C4704.72 1274.68 4723.88 1286.21 4740.76 1304.37C4745.57 1315.41 4744.83 1324.49 4742.34 1335.69C4727.41 1327.22 4713.22 1317.64 4701.28 1305.82C4572.34 1178.17 4440.45 1053.21 4316.52 920.87C4261.74 862.352 4205.21 834.357 4124 848.79Z" fill="#A5A2A0"/>
<path d="M646.704 1529.08C696.763 1562.59 712.233 1607.25 689.754 1660.55C670.344 1706.54 631.732 1727.4 582.751 1719.69C533.563 1711.97 506.19 1679.08 498.891 1630.1C490.555 1574.03 529.291 1527.04 595.235 1515.68C599.507 1516.63 601 1517.88 603.944 1521.57C609.585 1535.25 609.129 1546.54 605.272 1560.55C601.746 1568.27 597.889 1572.25 591.461 1577.47C587.894 1580.13 586.401 1581.08 582.668 1583.32C572.092 1590.58 566.742 1599.04 565.83 1608.79C564.212 1626.16 567.157 1643 583.747 1652.79C596.977 1660.59 612.239 1662.78 624.433 1652.13C639.571 1638.9 642.93 1621.56 632.644 1600.28C629.575 1592.57 627.419 1587.39 625.469 1579.01C623.81 1557.53 621.737 1538.57 646.704 1529.08Z" fill="#2C302A"/>
<path d="M220.727 1076.31C303.508 1040.73 377.788 902.747 365.927 802.962C364.765 793.258 363.77 783.553 362.277 770.821C413.456 753.443 466.128 762.858 521.786 761.448C487.777 764.226 450.243 766.342 409.267 768.872C389.94 797.944 401.553 829.215 397.198 859.117C384.673 945.215 352.531 1020.9 287.582 1084.07C278.168 1109.41 292.062 1123.43 307.158 1136.66C392.097 1211.14 482.634 1277.21 587.107 1322.29C601.291 1328.39 618.254 1331.5 621.904 1354.35C514.279 1329.26 426.105 1268.13 341.665 1201.02C296.707 1165.31 252.91 1127.91 220.727 1076.31Z" fill="#D7CFC9"/>
<path d="M1074.76 497.637C1052.45 501.162 1031.67 501.95 1007.45 502.614C1004.17 495.854 1014 487.393 1004.42 483.08C976.299 470.389 969.041 447.952 979.866 422.695C993.304 391.341 1016.07 365.255 1053.11 363.098C1339.15 346.177 1622.63 367.66 1903.57 423.276C1913.78 425.308 1922.78 433.312 1933.72 440.86C1655.56 384.001 1372.54 369.444 1087.82 376.743C1086.58 376.784 1085.33 376.867 1084.13 376.743C1038.68 372.015 999.068 392.129 994.257 433.976C988.949 480.26 1040.5 456.827 1066.84 471.094C1076.67 478.394 1078.62 485.983 1074.76 497.637Z" fill="#D7CFC9"/>
<path d="M4733.46 364.507C4737.11 355.591 4737.99 349.121 4738.15 340.121C4738.86 336.389 4740.31 335.144 4744.46 334.398C4747.48 652.539 4747.73 970.182 4748.15 1287.87C4748.19 1305.45 4742.51 1325.94 4769.09 1335.77C4762.91 1338.3 4754.74 1338.67 4743.58 1338.38C4740.14 1329.09 4739.69 1320.46 4737.78 1309.64C4720.73 1292.55 4718.87 1273.19 4718.82 1253.28C4718.66 974.329 4718.7 695.422 4718.7 416.473C4718.74 398.806 4722.18 382.341 4733.46 364.507Z" fill="#8C7368"/>
<path d="M100.366 961.473C96.1773 959.441 94.4769 959.275 90.3296 958.155C84.6476 956.911 81.3712 956.538 76.3529 954.34C62.0858 947.994 48.8971 944.635 37.2844 938.372C18.9529 928.502 -0.581335 917.345 0.20667 892.876C0.994674 868.656 20.363 858.205 39.441 849.081C67.2285 835.809 96.7165 828.468 130.103 825.98C155.07 872.264 136.946 913.82 116.458 957.616C110.942 962.634 107.126 963.796 100.366 961.473Z" fill="#DF8A44"/>
<path d="M4789.82 332.822C4786.17 331.578 4785.8 330.251 4785.34 326.933C4848.3 325.523 4911.42 323.947 4974.26 327.306C5065.79 332.158 5157.12 340.37 5248.52 347.379C5365.48 356.296 5482.44 365.42 5602.38 375.539C5542.66 398.516 5479.78 378.028 5417.24 375.747C5346.78 373.134 5276.73 360.443 5206.26 355.84C5068.61 346.716 4930.83 340.287 4789.82 332.822Z" fill="#D8D7D3"/>
<path d="M4011.19 1061.76C3960.67 1064.53 3911.15 1064.99 3858.19 1065.03C3840.82 1031.65 3869.56 1013.48 3883.7 987.601C3888.47 985.486 3890.54 985.03 3895.85 984.781C3944.54 990.961 3990.95 979.016 4038.23 994.818C4031.01 1018 4021.6 1038.7 4011.19 1061.76Z" fill="#DF8A44"/>
<path d="M1390.17 1377.61C1154.84 1390.68 920.973 1413.41 683.369 1388.73C674.369 1383.55 673.705 1376.91 677.853 1366.83C722.728 1352.65 764.948 1367.29 807.293 1369.07C864.983 1371.52 922.176 1369.4 979.658 1368.91C1084.01 1368.03 1187.94 1356.42 1292.25 1359.91C1321.61 1360.9 1350.6 1349.29 1382.99 1360.28C1389.84 1365.3 1391.66 1369.4 1390.17 1377.61Z" fill="#D8D7D3"/>
<path d="M9559.53 7.71387C9560.32 22.7272 9548.75 21.8148 9537.55 22.3954C9390.07 29.7362 9242.55 36.7866 9095.11 44.9153C9033.35 48.3161 8972.26 63.3294 8907.56 53.6247C8969.44 44.5836 9033.39 35.2106 9097.72 31.3121C9250.39 22.0221 9403.26 15.3449 9559.53 7.71387Z" fill="#D8D7D3"/>
<path d="M1390.87 1382.67C1388.42 1377.57 1388.01 1374.3 1386.93 1368.57C1373.78 1355.72 1364.45 1343.44 1359.43 1327.47C1333.68 1245.4 1301.24 1165.69 1270.64 1082.28C1262.84 1042.1 1240.44 1008.5 1245.13 964.376C1288.84 1026.21 1303.73 1102.69 1331.94 1173.9C1363.95 1254.73 1393.73 1336.56 1420.28 1419.3C1429.03 1446.58 1443.67 1449.32 1468.88 1448.29C1472.03 1451.69 1471.95 1454.84 1471.5 1460.31C1457.85 1475.86 1442.75 1476.03 1423.55 1466.16C1411.32 1437.21 1402.11 1410.88 1390.87 1382.67Z" fill="#918780"/>
<path d="M650.02 1526.01C634.467 1540.52 636.417 1558.98 630.859 1577.47C630.113 1599.04 628.329 1617.33 613.316 1634.21C608.837 1635.91 606.846 1636.08 601.952 1635.33C581.173 1614.18 585.611 1592.24 595.855 1567.35C598.178 1552.42 598.758 1540.11 599.546 1524.72C608.38 1489.1 609.956 1455.38 616.758 1419.63C618.044 1416.93 617.38 1416.89 617.297 1416.56C638.449 1407.31 654.872 1410.42 663.997 1437.54C660.098 1468.07 655.163 1495.56 650.02 1526.01Z" fill="#99918B"/>
<path d="M3895.23 991.582C3892.04 990.048 3888.43 989.965 3886.64 989.924C3882.95 991.334 3881.05 992.785 3876.07 995.979C3778.27 1002.61 3683.63 1003.28 3585.96 995.44C3579.49 990.048 3577.79 985.818 3578.83 977.565C3592.84 961.307 3609.56 964.5 3625.15 964.418C3703.74 963.92 3782.34 964.418 3864 963.961C3869.06 963.671 3871.01 963.464 3875.82 962.8C3886.27 960.477 3890.38 968.938 3899.09 966.782C3902.4 964.169 3904.02 963.547 3914.1 963.422C3964.74 968.026 4007.79 956.952 4051.5 973.044C4052.21 979.265 4050.96 983.08 4048.35 988.472C3997.59 997.803 3947.94 991.914 3895.23 991.582Z" fill="#E1995D"/>
<path d="M111.859 961.182C121.398 917.345 132.804 875.665 132.762 829.132C135.002 824.984 137.283 823.699 143.172 821.086C151.011 820.091 155.241 820.381 161.545 820.505C191.448 850.242 176.019 883.628 170.503 915.769C167.808 931.322 161.047 946.211 155.78 964.127C151.799 967.072 148.232 967.238 142.011 968.108C136.246 968.233 133.094 967.694 127.661 966.491C121.357 964.044 116.961 964.086 111.859 961.182Z" fill="#C97939"/>
<path d="M1508.45 1364.51C1504.26 1370.07 1502.1 1373.63 1499.41 1379.19C1492.48 1397.07 1486.05 1412.91 1478.26 1430.87C1465.61 1393.87 1491.32 1363.64 1502.93 1330.58C1543.49 1215.08 1586.42 1100.37 1630.51 983.661C1651.91 1012.94 1628.97 1038.65 1621.51 1069.18C1594.63 1151.05 1560.95 1227.52 1537.94 1310.72C1529.35 1330.42 1525.7 1349.62 1508.45 1364.51Z" fill="#918780"/>
<path d="M10224.9 6.92551C10198.2 24.0125 10166 13.6442 10135.2 14.4737C10070.6 16.2155 10006 15.2617 9941.47 14.6396C9928.9 14.5152 9914.18 20.2385 9903.73 3.23446C10009.2 2.8612 10115.6 -5.80676 10224.9 6.92551Z" fill="#D8D7D3"/>
<path d="M6243.77 376.991C6245.43 387.194 6238.92 391.507 6229.05 391.424C6128.39 390.429 6027.74 389.433 5924.76 386.364C6028.15 371.932 6134.33 379.148 6243.77 376.991Z" fill="#D8D7D3"/>
<path d="M666.239 1438.17C653.382 1428.63 641.23 1417.55 620.078 1416.89C618.005 1399.35 618.834 1382.47 619.871 1362.35C620.078 1359.08 619.995 1359.7 620.286 1359.78C639.032 1346.88 655.953 1352.77 673.248 1367.16C675.736 1374.84 677.437 1379.52 679.635 1386.61C675.902 1404.61 671.672 1420.21 666.239 1438.17Z" fill="#8C7368"/>
<path d="M1909.42 476.983C1918.38 478.02 1923.93 478.766 1932.27 479.637C1952.55 486.522 1970.01 493.282 1989.51 501.494C1935.17 502.779 1878.85 502.613 1819.01 502.406C1810.71 496.268 1810.46 489.591 1815.15 479.886C1846.79 466.2 1876.45 481.379 1909.42 476.983Z" fill="#C97939"/>
<path d="M9788.38 0.331501C9790.04 10.5754 9783.49 14.8886 9773.66 14.7227C9709.88 13.7273 9646.13 12.732 9580.02 9.58007C9646.38 -6.05533 9715.85 2.90284 9788.38 0.331501Z" fill="#D8D7D3"/>
<path d="M6457.94 369.609C6459.6 379.853 6453.13 384.207 6443.26 384.042C6384.45 383.088 6325.64 382.051 6264.47 378.982C6325.85 364.757 6390.3 371.517 6457.94 369.609Z" fill="#D8D7D3"/>
<path d="M5823.1 384.249C5757.99 395.612 5689.64 398.391 5620.63 379.977C5686.45 379.438 5753.14 381.802 5823.1 384.249Z" fill="#D8D7D3"/>
<path d="M8887.61 52.0488C8873.97 82.656 8844.57 63.3296 8821.59 67.8087C8782.81 75.3568 8743.33 85.4762 8700.69 75.73C8759.67 59.5554 8822.09 56.7353 8887.61 52.0488Z" fill="#D8D7D3"/>
<path d="M1419.62 1466.28C1435.04 1463.34 1449.52 1463.05 1467.6 1462.72C1472.29 1478.6 1473.37 1494.57 1474.24 1513.65C1471.42 1516.55 1468.8 1516.3 1464.37 1515.1C1454.16 1505.27 1445.37 1500.5 1433.43 1513.19C1429.11 1515.68 1426.46 1516.51 1421.81 1516.67C1419.45 1500.33 1419.08 1484.62 1419.62 1466.28Z" fill="#DAB6A3"/>
<path d="M4072.58 935.386C4072.78 941.856 4070.05 946.376 4065.65 952.017C4018 973.5 3970.34 962.302 3920.04 959.026C3906.56 946.542 3915.52 940.57 3926.01 932.939C3976.15 931.114 4022.97 928.17 4072.58 935.386Z" fill="#E5CDB7"/>
<path d="M3912.86 952.432C3962.42 952.142 4009.54 952.473 4060.3 953.013C4063.37 956.164 4062.75 959.151 4061.26 964.293C4011.57 977.482 3962.13 968.897 3909.79 969.394C3906.6 967.86 3905.94 967.072 3905.6 966.699C3904.11 960.768 3906.35 956.538 3912.86 952.432Z" fill="#E1995D"/>
<path d="M4146.44 512.318C4066.44 512.442 3989.71 511.53 3909.46 510.078C3909 504.562 3912.07 499.669 3920.61 494.319C3991.74 489.052 4057.44 492.328 4123.13 491.996C4131.72 491.955 4140.14 493.406 4149.14 501.867C4150.63 506.885 4150.17 509.083 4146.44 512.318Z" fill="#E2DCD4"/>
<path d="M3926.29 489.716C3927.74 483.992 3929.07 482.043 3935.71 479.637C4003.48 474.578 4066.48 477.481 4129.43 477.191C4137.98 477.149 4146.35 478.435 4155.77 486.315C4157.93 491.209 4157.97 493.49 4154.9 497.264C4080.45 498.632 4009.08 498.881 3934.26 498.218C3929.07 496.227 3927.37 494.692 3926.29 489.716Z" fill="#E5CDB7"/>
<path d="M3956.86 462.426C4028.69 464.416 4098.7 466.075 4170.66 470.306C4164.35 482.955 4152.83 480.176 4142.21 480.176C4081.61 480.176 4021.06 480.674 3957.03 479.554C3951.43 478.352 3949.23 477.563 3944.67 474.287C3944.38 469.974 3946.45 468.149 3950.56 465.661C3953.38 464.043 3954.16 463.089 3956.86 462.426Z" fill="#E5CDB7"/>
<path d="M3972.38 443.473C4042.67 442.685 4111.06 442.685 4179.41 442.685C4179.41 445.712 4179.45 448.74 4179.45 451.767C4110.36 451.767 4041.22 451.767 3968.64 451.145C3966.94 448.449 3968.68 446.334 3972.38 443.473Z" fill="#E2DCD4"/>
<path d="M883.442 612.601C873.737 646.609 845.203 666.308 814.637 686.672C825.71 653.659 853.705 633.835 883.442 612.601Z" fill="#E7E5DF"/>
<path d="M615.598 1418.18C622.109 1452.27 615.556 1486.27 602.326 1520.7C599.672 1521.61 597.474 1518.87 597.764 1517.13C603.114 1483.45 608.174 1451.44 615.598 1418.18Z" fill="#918780"/>
<path d="M3928.12 927.008C3978.8 921.866 4028.61 920.041 4081.61 917.843C4083.06 921.244 4081.36 925.018 4077.84 929.953C4030.81 938.828 3985.23 932.4 3936.49 934.183C3931.14 932.732 3929.2 931.529 3928.12 927.008Z" fill="#E5CDB7"/>
<path d="M3893.87 992.578C3941.31 989.924 3990.63 989.841 4043.42 989.882C4046.45 992.329 4045.33 994.32 4041.97 996.643C3992.2 996.601 3943.97 995.896 3893.87 992.578Z" fill="#E5CDB7"/>
<path d="M3908.79 970.141C3955.62 967.57 4004.64 967.279 4057.02 966.699C4059.26 968.731 4058.06 971.054 4055.15 974.371C4005.97 974.413 3958.44 973.417 3908.79 970.141Z" fill="#E5CDB7"/>
<path d="M4188.66 475.2C4222.58 455.085 4260.99 469.808 4301.3 464.126C4307.69 462.011 4310.92 461.265 4316.56 462.965C4315.77 471.426 4312.83 478.559 4305.12 486.854C4264.6 476.568 4226.19 492.079 4188.66 475.2Z" fill="#E5CDB7"/>
<path d="M3927.7 931.861C3975.81 930.368 4022.43 930.617 4072.57 930.949C4076.06 931.032 4076.26 934.225 4075.89 935.76C4028.73 937.751 3981.95 938.165 3931.68 938.165C3927.58 936.382 3926.92 935.013 3927.7 931.861Z" fill="#E1995D"/>
<path d="M4305.78 488.222C4304.87 493.033 4303.21 497.098 4296.61 502.24C4251.7 499.959 4210.72 506.637 4171.24 491.706C4212.84 476.403 4255.26 480.052 4300.6 484.324C4303.54 486.107 4305.03 487.517 4305.78 488.222Z" fill="#E5CDB7"/>
<path d="M4284.96 513.273C4245.65 511.904 4208.9 511.074 4168.67 509.996C4164.65 507.591 4164.07 505.392 4166.14 501.162C4209.23 498.466 4249.67 498.674 4293.34 500.084C4296.53 501.121 4297.53 502.738 4298.03 503.568C4297.36 506.263 4295.87 507.798 4292.47 509.498C4289.77 511.24 4288.61 512.526 4284.96 513.273Z" fill="#E2DCD4"/>
<path d="M5904.27 384.373C5888.06 410.086 5865.54 401.045 5842.06 387.193C5861.18 384.414 5881.09 384.373 5904.27 384.373Z" fill="#D8D7D3"/>
<path d="M292.972 767.711C294.714 780.194 295.212 794.254 279.327 796.452C263.277 798.691 259.13 786.83 256.766 771.112C267.424 767.877 278.581 767.503 292.972 767.711Z" fill="#918780"/>
<path d="M4306.57 454.629C4272.19 452.97 4239.84 452.265 4203.92 451.269C4200.11 449.569 4199.82 448.242 4200.77 445.214C4241.62 443.472 4281.15 443.348 4324.2 443.431C4326.64 447.703 4325.56 451.767 4322.91 457.283C4316.94 458.403 4312.62 457.615 4306.57 454.629Z" fill="#E2DCD4"/>
<path d="M1001.51 502.655C999.564 523.682 986.873 536.29 962.445 539.317C970.408 524.512 981.482 510.203 1001.51 502.655Z" fill="#E7E5DF"/>
<path d="M758.437 731.587C758.354 740.877 756.239 751.494 753.834 764.765C749.189 765.968 744.875 764.517 739.276 761.075C738.986 746.725 747.903 739.964 758.437 731.587Z" fill="#E7E5DF"/>
<path d="M9877.23 0.207031C9860.59 13.2711 9839.53 8.16984 9816.38 2.23918C9834.13 0.248464 9854.04 0.207031 9877.23 0.207031Z" fill="#D8D7D3"/>
<path d="M11066.6 1071.21C11069.4 1072.7 11069.4 1074.11 11069.3 1077.64C11056.7 1079.3 11044.1 1078.84 11028.5 1078.05C11025.3 1074.7 11025.3 1071.63 11025.3 1066.32C11038.2 1066.44 11051 1068.81 11066.6 1071.21Z" fill="#D7CFC9"/>
<path d="M1937.17 474.785C1934.88 467.237 1934.76 458.403 1934.72 446.293C1946.83 451.643 1955.66 460.726 1937.17 474.785Z" fill="#D7CFC9"/>
<path d="M720.113 759.955C708.127 768.333 692.036 765.72 673.621 762.858C686.437 760.95 701.658 760.245 720.113 759.955Z" fill="#D7CFC9"/>
<path d="M4774.06 325.316C4768.88 328.551 4760.5 331.122 4749.64 334.73C4747.69 316.316 4762.82 328.095 4774.06 325.316Z" fill="#8C7368"/>
<path d="M4304.66 455.293C4309.14 454.131 4313.66 454.629 4319.8 456.952C4321.42 458.735 4320.18 461.555 4319.47 462.924C4315.65 464.375 4312.5 464.458 4307.07 464.168C4304.83 461.514 4304.79 459.233 4304.66 455.293Z" fill="#E1995D"/>
<path d="M108.787 959.358C114.8 960.436 118.657 961.68 123.925 964.376C117.496 964.708 109.616 963.588 99.8281 961.017C100.823 959.524 103.727 959.524 108.787 959.358Z" fill="#E1995D"/>
<path d="M809.903 687.086C808.452 689.367 804.719 691.773 798.664 694.261C800.116 691.98 803.89 689.616 809.903 687.086Z" fill="#E7E5DF"/>
<path d="M75.8984 953.967C78.138 953.345 81.6634 954.008 86.5988 955.916C84.3592 956.496 80.7924 955.874 75.8984 953.967Z" fill="#E1995D"/>
<path d="M4282.56 514.267C4283.8 512.194 4285.17 511.654 4288.74 510.535C4290.4 513.272 4289.94 516.548 4287.95 521.857C4285.21 521.193 4283.97 518.498 4282.56 514.267Z" fill="#E1995D"/>
<path d="M958.214 540.105C958.297 541.225 956.68 543.257 953.155 545.995C953.03 544.75 954.772 542.884 958.214 540.105Z" fill="#E7E5DF"/>
<path d="M3958.61 461.555C3958.69 462.716 3955.62 463.878 3954.09 464.417C3951.8 462.426 3952.55 460.436 3956.41 458.569C3958.07 458.113 3958.52 460.394 3958.61 461.555Z" fill="#E1995D"/>
<path d="M899.194 598.541C899.277 599.619 897.701 601.859 894.259 604.928C894.051 603.767 895.793 601.734 899.194 598.541Z" fill="#E7E5DF"/>
<path d="M3934.8 479.181C3935.42 476.652 3937.16 474.993 3940.73 472.67C3942.3 471.758 3943.8 473.582 3944.54 474.495C3944.5 477.025 3943.71 478.601 3940.27 480.633C3937.62 481.089 3935.71 479.845 3934.8 479.181Z" fill="#E5CDB7"/>
<path d="M3925.59 487.31C3927.25 487.641 3927.58 489.01 3928.12 492.452C3927.37 495.77 3926.38 497.014 3923.52 496.807C3921.65 495.355 3920.49 494.277 3919.95 493.696C3920.9 491.457 3922.52 489.839 3925.59 487.31Z" fill="#E2DCD4"/>
<path d="M9910.9 841.118C9854.29 671.243 9836.99 497.222 9816.71 323.698C9814.55 305.159 9822.64 292.22 9838.69 285.128C9853.21 278.741 9868.51 273.391 9883.98 269.907C9977.09 249.129 9992.89 260.203 10004.5 353.02C10010.2 398.184 10015.2 443.431 10021.7 488.471C10023.4 500.415 10017.2 520.032 10035.3 521.816C10052 523.474 10065.5 510.327 10070.6 493.987C10083.8 451.726 10098.2 409.589 10107 366.374C10114.8 328.343 10136.6 311.339 10172.3 308.353C10195.5 306.445 10218.9 305.325 10242.1 306.445C10296.4 309.058 10331.5 331.37 10336.9 391.963C10340.1 428.293 10352.8 463.877 10362.4 499.503C10367.2 517.212 10378.8 533.013 10397.9 531.645C10415.3 530.4 10410.3 510.576 10412.9 498.632C10425.9 438.537 10438.7 378.36 10449.9 317.892C10454.7 291.266 10468 278.99 10494.8 280.524C10507 281.229 10519.4 280.607 10531.6 281.976C10629.3 292.883 10641.5 310.012 10622.8 405.359C10595.1 546.533 10570.5 688.33 10523.6 825.109C10512 858.744 10492 871.061 10458.5 872.554C10373.7 876.287 10320 825.067 10267.9 768.996C10212.2 709.025 10212.2 710.021 10151.2 765.678C10100 812.377 10055.3 871.061 9974.73 867.121C9951.29 866.043 9927.45 866.499 9910.9 841.118Z" fill="#312A28"/>
<path d="M9191.08 287.119C9194.36 474.826 9180.8 658.802 9170.26 842.86C9168.27 877.49 9144.05 891.757 9115.76 899.512C9066.16 913.157 9018.88 908.719 8986.16 864.011C8950.74 815.653 8918.89 764.724 8880.23 707.076C8880.23 767.337 8877.37 819.178 8881.19 870.522C8884.01 908.387 8868.04 924.064 8834.57 932.317C8740.51 955.542 8700.74 928.087 8700.65 833.818C8700.53 681.363 8703.18 528.949 8703.85 376.494C8703.93 355.052 8712.1 341.324 8731.14 333.362C8743.58 328.177 8756.02 322.62 8768.92 318.804C8860.78 291.474 8874.68 298.897 8903.34 387.65C8918.43 434.39 8934.07 481.006 8950.24 527.373C8956.71 545.912 8969.32 561.505 8990.64 558.727C9015.4 555.533 9004.16 533.179 9004.78 519.825C9007.64 460.891 9010.17 401.792 9008.76 342.9C9007.97 309.929 9020.46 290.893 9050.73 283.677C9096.98 272.603 9143.76 246.475 9191.08 287.119Z" fill="#312A28"/>
<path d="M9618.93 303.874C9776.82 349.743 9840.89 541.93 9742.19 670.663C9655.17 784.133 9536.48 840.163 9395.05 843.647C9270.75 846.716 9190.17 722.504 9218.79 581.163C9246.7 443.431 9409.77 259.995 9618.93 303.874Z" fill="#312A28"/>
<path d="M8012.76 996.062C7985.14 806.114 8009.98 619.775 8017.03 433.312C8017.49 421.699 8019.56 412.202 8031.22 405.815C8106.08 364.881 8184.42 337.55 8271.06 351.651C8363.38 366.664 8402.16 428.874 8379.14 520.489C8361.68 590.122 8322.24 648.184 8278.9 703.427C8262.39 724.495 8264.67 734.573 8286.9 747.969C8323.65 770.199 8357.74 796.866 8394.53 819.054C8418.58 833.57 8419.5 850.242 8406.72 870.979C8382.25 910.751 8344.68 936.838 8307.72 963.422C8293.54 973.625 8284.95 960.851 8275.58 954.423C8238.5 928.917 8201.84 902.789 8155.85 870.481C8164.39 919.295 8169.61 957.616 8178.32 995.149C8182.89 1014.85 8177.95 1025.26 8160.08 1032.35C8144.11 1038.7 8128.85 1046.78 8112.88 1053.17C8035.28 1084.15 8026.36 1079.26 8012.76 996.062Z" fill="#322B29"/>
<path d="M5401.94 993.491C5422.1 1009.96 5439.06 1026.5 5458.55 1039.15C5497.62 1064.49 5488.54 1089.71 5461.45 1116.5C5458.84 1119.11 5456.27 1121.77 5453.53 1124.26C5391.45 1180.83 5379.96 1180.91 5318.7 1126.33C5295.27 1105.43 5271.34 1085.06 5240.27 1058.06C5246.58 1099.41 5249.23 1131.1 5256.7 1161.66C5264.54 1193.93 5252.8 1207.66 5221.78 1209.57C5219.33 1209.73 5216.93 1210.35 5214.52 1210.77C5117.64 1227.32 5105.03 1220.35 5099.06 1123.76C5088.15 946.916 5081.51 769.867 5072.39 592.901C5071.43 574.404 5077.86 566.234 5095.24 562.418C5180.88 543.548 5264.29 546.866 5342.84 589.085C5424.96 633.254 5452 712.095 5416.66 803.295C5407.41 827.183 5394.68 850.118 5381.04 871.891C5337.45 941.359 5336.99 941.068 5401.94 993.491Z" fill="#322B29"/>
<path d="M6379.32 1002.7C6352.19 1083.24 6327.18 1160.79 6232.91 1184.56C6082.82 1222.38 5936.79 1147.11 5892.45 1006.8C5843.6 852.15 5940.94 678.75 6097.75 640.678C6148.1 628.443 6198.74 617.287 6250.83 621.766C6293.63 625.457 6330.75 639.641 6339.29 689.533C6349.54 749.379 6312.38 785.212 6253.03 772.687C6122.22 745.024 6066.27 785.17 6051.26 916.848C6047.07 953.676 6059.76 984.822 6082.28 1012.24C6100.65 1034.63 6122.72 1054.91 6154.65 1045.87C6189.61 1035.96 6201.93 1005.31 6210.35 973.625C6215.74 953.469 6205.17 939.782 6187.46 932.856C6163.4 923.442 6156.23 907.101 6162.74 883.254C6169.17 859.822 6177.71 837.51 6206.7 835.934C6244.65 833.901 6282.93 830.21 6320.67 832.865C6385.49 837.427 6401.67 858.37 6394.99 923.94C6392.42 949.446 6385.12 974.496 6379.32 1002.7Z" fill="#322B29"/>
<path d="M6915.11 718.232C6890.27 715.039 6868.41 711.431 6846.43 710.311C6833.99 709.689 6820.68 714.126 6817.73 728.393C6814.71 743.158 6826.19 750.996 6837.85 755.641C6875.51 770.571 6914.12 783.138 6951.28 799.188C7023.24 830.293 7044.39 873.093 7028.21 949.404C6988.4 1137.11 6840 1206.91 6676.68 1114.38C6616.46 1080.29 6655.57 1034.59 6667.02 995.688C6679.54 952.97 6709.57 967.776 6737.48 983.412C6764.4 998.508 6793.55 1009.13 6824.62 1011.2C6863.11 1013.77 6888.94 996.02 6897.07 957.864C6904.99 920.621 6878.08 907.516 6849.96 899.055C6808.82 886.696 6766.89 876.95 6725.41 865.794C6675.69 852.398 6653.37 818.1 6651.71 768.249C6648.98 686.339 6693.39 608.204 6760.21 577.431C6834.65 543.132 6962.06 558.851 7016.35 607.996C7033.19 623.258 7034.81 640.304 7023.94 657.433C6999.56 695.878 6980.64 745.646 6915.11 718.232Z" fill="#322B29"/>
<path d="M7758.49 471.093C7812.36 461.43 7863.04 451.891 7913.93 443.431C7952.58 437.044 7968.26 456.951 7968.22 493.531C7968.14 570.671 7938.61 600.614 7842.76 603.103C7793.16 604.388 7802.53 634.913 7802.08 661.455C7801.41 699.818 7831.98 679.496 7844.84 677.506C7892.16 670.248 7910.94 693.805 7915.05 735.029C7919.36 778.327 7903.23 804.289 7855 809.308C7833.76 811.506 7801.62 798.317 7791.13 829.92C7775.37 877.365 7789.38 892.71 7837.66 886.406C7863.25 883.047 7889.05 881.18 7914.39 876.535C7964.24 867.37 7975.93 892.13 7969.51 935.303C7961.63 988.43 7942.47 1026.21 7878.39 1027.66C7820.95 1028.95 7763.67 1039.15 7706.44 1046.29C7681.05 1049.44 7666.79 1038.65 7660.36 1015.06C7617.35 857.002 7611.05 698.118 7646.51 537.575C7660.28 475.448 7710.21 478.932 7758.49 471.093Z" fill="#322B29"/>
<path d="M5554.73 640.761C5631.29 638.936 5704.99 638.397 5778.73 637.941C5821.07 637.692 5841.15 662.203 5837.62 700.98C5834.26 737.933 5837.91 785.337 5777.52 782.848C5761.56 782.185 5745.3 780.691 5729.62 782.724C5714.32 784.756 5686.49 763.231 5687.69 801.843C5688.52 827.556 5680.06 857.998 5725.93 853.311C5757.16 850.118 5785.2 857.666 5798.3 894.784C5818.21 951.146 5800.5 978.477 5741.53 981.173C5721.53 982.085 5687.78 961.224 5686.49 1009.96C5685.45 1047.9 5695.86 1060.8 5733.6 1054.79C5756.46 1051.14 5780.26 1053.54 5803.61 1052.67C5837.79 1051.39 5870.22 1056.86 5863.33 1100.57C5857.24 1139.48 5865.37 1193.14 5800.75 1194.51C5735.59 1195.92 5670.44 1197.83 5605.41 1189.53C5584.09 1186.8 5571.44 1178.05 5566.13 1157.52C5526.86 1006.31 5509.06 853.145 5525.9 697.164C5528.1 677.008 5532.66 655.401 5554.73 640.761Z" fill="#322B29"/>
<path d="M7592.51 575.939C7591.01 605.758 7574.51 611.481 7550.79 614.965C7442.75 630.849 7441.83 631.471 7431.22 739.426C7421.84 834.773 7414.79 930.368 7407.29 1025.92C7404.17 1065.53 7307.62 1118.66 7273.66 1098.42C7258.31 1089.25 7260.76 1072.95 7260.43 1058.56C7257.86 939.41 7254.83 820.216 7254.04 701.022C7253.87 674.023 7246.03 667.387 7220.36 671.866C7176.81 679.456 7132.56 683.022 7089.14 690.944C7064.05 695.506 7055.92 686.174 7053.6 663.198C7045.59 583.404 7059.4 566.234 7137.25 553.543C7269.38 532.018 7401.23 508.959 7533.2 486.522C7600.01 475.159 7607.48 482.541 7597.61 551.262C7596.65 558.478 7594.66 565.653 7592.51 575.939Z" fill="#322B29"/>
<path d="M10864.2 370.065C10860.9 467.112 10865.8 560.303 10874.9 653.161C10878.2 687.128 10865.1 702.805 10834.3 711.556C10752.2 734.946 10696.6 698.948 10685.3 615.255C10669.6 498.217 10660.8 381.056 10668.5 262.774C10672.4 201.477 10715.7 197.371 10759.5 196.376C10825.4 194.883 10864.6 221.965 10865.8 267.004C10866.7 300.142 10864.8 333.32 10864.2 370.065Z" fill="#322B29"/>
<path d="M6609.16 732.375C6608.66 842.694 6608.08 949.487 6616.84 1056.03C6621.52 1113.35 6580.01 1129.07 6536.71 1138.65C6492.7 1148.39 6454.96 1133.05 6445.51 1086.72C6419.46 958.902 6408.47 829.257 6415.48 698.823C6417.88 654.447 6477.77 622.554 6540.61 626.618C6595.19 630.144 6608.33 649.719 6609.16 732.375Z" fill="#322B29"/>
<path d="M10886.7 797.073C10909.8 891.093 10878.4 914.898 10775.2 883.296C10732.3 870.149 10727.4 831.288 10730.5 796.036C10733.5 763.687 10765.3 777.083 10784.7 776.295C10818.9 774.968 10853.6 776.959 10886.7 797.073Z" fill="#322B29"/>
<path d="M3581.81 972.919C3582.39 978.477 3582.44 981.587 3582.85 987.02C3582.19 993.822 3580.03 997.72 3574.06 1002.99C3569.16 1005.77 3567.05 1006.6 3561.7 1008.54C3547.1 1015.39 3534.87 1015.72 3522.55 1015.68C3347.07 1015.3 3171.6 1015.76 2996.12 1015.39C2985.05 1015.35 2974.01 1015.06 2960.24 1010.33C2952.82 1008.67 2948.55 1008.05 2941.17 1006.93C2934.2 1004.94 2930.59 1003.03 2925.16 998.509C2920.68 993.366 2918.89 989.965 2917.19 983.495C2916.66 978.975 2916.61 977.15 2916.99 972.712C2918.6 965.04 2920.76 960.312 2923.95 953.386C2927.31 946.833 2930.01 942.768 2934.7 937.253C2937.68 934.723 2938.97 933.852 2942.49 932.276C2950.66 930.658 2956.76 931.031 2964.81 929.124C2971.11 927.091 2975.59 927.299 2981.6 925.059C2985.92 922.82 2988.49 921.907 2993.09 920.829C2999.89 921.078 3004.5 919.751 3010.97 917.594C3020.05 915.272 3027.31 914.484 3037.3 913.903C3097.52 907.267 3155.13 907.931 3216.1 911.166C3227.17 910.751 3234.93 911.249 3245.46 912.369C3261.14 918.465 3274.41 921.202 3290.83 918.631C3298.67 918.216 3304.06 918.673 3312.11 919.709C3325.42 924.23 3336 928.668 3350.1 925.93C3355.53 925.308 3358.73 925.557 3364.24 926.221C3387.8 934.93 3410.86 927.589 3434.71 934.723C3440.47 935.137 3443.75 935.469 3449.35 936.34C3457.81 937.999 3463.95 939.036 3472.61 938.082C3479.75 937.626 3484.43 938.082 3491.36 939.948C3502.56 947.704 3512.97 950.275 3526.41 951.063C3530.26 951.727 3531.8 952.059 3535.61 952.93C3542.41 954.713 3546.73 956.662 3553.78 957.45C3560.99 958.238 3565.68 959.399 3572.48 962.095C3577.42 965.164 3579.62 967.611 3581.81 972.919Z" fill="#E7E5DF"/>
<path d="M1613.67 1076.15C1618.06 1045.5 1625.36 1016.8 1632.66 985.071C1632.62 982.044 1633.04 979.97 1632.95 978.933C1634.49 972.753 1638.22 969.145 1643.86 963.878C1655.1 956.62 1666.59 959.15 1676.33 953.842C1673.6 945.091 1663.02 945.837 1657.67 936.755C1654.69 927.05 1657.92 920.166 1660.2 910.917C1661.86 908.76 1661.45 908.719 1661.61 908.843C1666.71 901.834 1665.8 892.337 1672.64 883.337C1700.93 866.084 1703 839.127 1707.61 810.593C1720.96 766.59 1733.49 724.951 1747.84 681.363C1766.83 737.02 1753.48 795.953 1757.25 854.14C1758.62 874.96 1757.54 895.904 1757.67 920.29C1758.83 924.935 1759.9 926.096 1762.39 929.165C1764.34 932.566 1764.92 934.059 1766.04 937.875C1767 943.391 1767.25 946.543 1767.54 952.141C1767.91 961.058 1768.24 967.569 1770.19 976.528C1770.52 988.14 1772.55 996.891 1775.42 1008.5C1777.7 1032.64 1780.48 1054 1764.51 1075.15C1713.54 1090.12 1665.1 1089.79 1613.67 1076.15Z" fill="#DD8842"/>
<path d="M1760.94 932.234C1758.21 929.787 1757.87 926.801 1757.83 925.308C2159.09 923.401 2560.35 923.027 2965.1 923.069C2969.99 924.728 2971.44 925.972 2970.7 929C2963.35 933.396 2958.21 935.967 2950.83 938.663C2565.5 945.506 2182.36 939.99 1799.31 941.607C1787.03 941.649 1774.46 942.354 1760.94 932.234Z" fill="#E5CDB7"/>
<path d="M1815.73 477.149C1817.02 484.738 1816.48 490.586 1815.65 499.42C1802.54 533.635 1789.68 564.906 1775.04 598.126C1762.48 597.338 1751.74 594.601 1738.17 591.947C1727.6 584.772 1730.13 576.145 1732.99 565.114C1734.9 559.39 1736.1 556.155 1738.09 550.473C1739.96 544.75 1741.04 541.474 1743.07 535.751C1751.9 515.926 1753.06 495.231 1770.27 479.513C1777.33 475.988 1783.42 474.951 1791.84 473.748C1800.88 473.167 1807.56 472.504 1815.73 477.149Z" fill="#8C7368"/>
<path d="M3446.19 941.524C3418.53 939.16 3393.85 935.303 3367.93 929.041C3437.4 925.267 3508.16 922.986 3578.91 922.695C3687.78 922.239 3796.65 923.193 3908.84 924.188C3912.78 929.829 3910.99 933.686 3903.69 937.833C3768.45 944.22 3636.23 941.732 3504.05 940.28C3485.8 940.114 3467.51 938.621 3446.19 941.524Z" fill="#E5CDB7"/>
<path d="M4142.95 515.802C4144.36 512.692 4145.61 512.069 4152.29 510.742C4121.8 597.96 4068.3 676.179 4019.11 759.416C4041.09 684.308 4092.15 621.932 4127.28 551.179C4132.71 540.354 4137.65 529.281 4142.95 515.802Z" fill="#C97939"/>
<path d="M3216.39 909.383C3162.47 922.281 3104.74 913.032 3043.77 914.774C3097.32 896.319 3155.3 902.54 3216.39 909.383Z" fill="#E5CDB7"/>
<path d="M3904.4 932.566C3908.09 930.078 3909.54 928.792 3911.49 926.096C3916.05 922.073 3919.91 919.336 3926.17 916.309C3928.62 917.304 3928.66 918.59 3928.83 921.783C3928.95 923.691 3928.74 926.926 3928.95 928.543C3928.95 931.405 3928.74 932.69 3928.37 935.884C3924.18 941.151 3920.2 944.552 3915.72 949.86C3912.82 955.459 3910.33 959.109 3906.56 964.542C3905.27 966.325 3902.16 967.113 3900.58 967.362C3896.52 965.288 3894.4 962.634 3892.08 957.243C3891.17 951.353 3891.42 947.994 3893.24 942.312C3896.44 937.253 3899.09 935.22 3904.4 932.566Z" fill="#C97939"/>
<path d="M3290.62 916.889C3279.09 925.599 3264.91 926.594 3249.65 915.065C3261.55 913.986 3274.7 914.982 3290.62 916.889Z" fill="#E5CDB7"/>
<path d="M3955.66 864.716C3956.24 876.204 3953.38 887.526 3938.41 893.498C3937.87 882.01 3940.65 870.646 3955.66 864.716Z" fill="#C97939"/>
<path d="M3985.19 812.999C3985.73 824.487 3982.95 835.851 3967.94 841.781C3967.4 830.335 3970.18 818.93 3985.19 812.999Z" fill="#C97939"/>
<path d="M4014.76 761.323C4015.3 772.811 4012.52 784.175 3997.51 790.106C3996.93 778.618 3999.71 767.254 4014.76 761.323Z" fill="#C97939"/>
<path d="M3349.85 924.188C3340.56 932.649 3328.74 933.727 3316.01 922.363C3325.63 921.327 3336.41 922.281 3349.85 924.188Z" fill="#E5CDB7"/>
<path d="M3934.14 895.448C3934.76 900.176 3933.52 906.48 3930.41 914.443C3929.78 909.715 3931.03 903.411 3934.14 895.448Z" fill="#C97939"/>
<path d="M3993.19 792.055C3993.81 796.783 3992.57 803.087 3989.46 811.049C3988.88 806.322 3990.12 800.018 3993.19 792.055Z" fill="#C97939"/>
<path d="M3963.67 843.73C3964.29 848.458 3963.04 854.762 3959.93 862.725C3959.31 858.039 3960.55 851.693 3963.67 843.73Z" fill="#C97939"/>
<path d="M2970.66 930.658C2968.5 930.824 2968.5 927.174 2968.54 925.349C2971.9 923.359 2975.22 923.234 2980.98 923.4C2979.9 925.971 2976.38 928.252 2970.66 930.658Z" fill="#D7CFC9"/>
<path d="M3010.51 915.853C3008.61 918.051 3004.33 920 2997.66 921.327C2999.52 919.004 3003.84 917.304 3010.51 915.853Z" fill="#E5CDB7"/>
<path d="M677.357 1369.4C658.113 1366.54 642.145 1362.97 623.399 1359.62C618.464 1342.65 603.74 1341.33 591.505 1336.18C476.084 1287.87 376.546 1215.7 285.303 1131.26C274.852 1121.56 260.917 1112.31 272.654 1092.24C274.769 1081.79 281.405 1080.29 291.483 1079.01C344.694 1092.15 395.209 1084.86 448.586 1082.86C490.931 1080.92 530.166 1080.13 572.842 1079.84C708.628 1084.65 841.054 1081.12 973.48 1082.16C1022.05 1082.53 1022.54 1082.57 1010.89 1129.4C1002.93 1161.33 995.088 1193.31 986.586 1225.12C985.01 1229.8 980.904 1223.46 985.3 1225.66C986.545 1226.28 987.457 1225.74 987.83 1224C994.798 1190.4 1004.21 1157.39 1012.22 1124.05C1023.83 1075.81 1024.62 1075.65 1073.23 1074.94C1135.77 1074.03 1198.31 1077.18 1263.92 1073.2C1269.06 1073.66 1271.1 1074.16 1275.95 1076.02C1315.97 1151.83 1338.82 1231.67 1365.95 1309.89C1371.92 1327.14 1379.51 1343.86 1386.31 1363.47C1232.53 1373.55 1078.78 1382.92 924.914 1387.61C843.252 1390.14 761.383 1383.79 677.357 1369.4Z" fill="#E9E7E1"/>
<path d="M1268.19 1076.98C1202.41 1093.69 1133.69 1084.19 1065.34 1085.06C1036.1 1085.44 1023.87 1094.85 1018.52 1122.76C1008.48 1175.18 988.821 1225.53 983.305 1279.41C965.596 1246.06 983.844 1214.92 990.936 1184.06C1013.54 1085.77 1014.45 1086.27 912.965 1085.89C802.437 1085.52 691.909 1084.48 578.852 1082.04C721.563 1079.51 866.805 1078.68 1015.53 1077.43C1022.83 1074.07 1026.98 1071.63 1034.86 1068.81C1106.23 1060.26 1174.25 1064.29 1242.23 1065.65C1250.81 1065.82 1258.9 1068.97 1268.19 1076.98Z" fill="#D8D7D3"/>
<path d="M1074.97 502.448C1072.02 492.992 1070.82 485.568 1069.45 475.324C1084.88 473.209 1100.47 473.914 1119.26 475.573C1123.74 477.439 1125.07 478.435 1128.05 481.131C1132.7 486.895 1134.81 491.374 1137.67 498.259C1139.08 502.282 1139.54 503.941 1140.62 508.088C1146.59 536.166 1166.37 558.727 1155.47 589.292C1138.84 583.942 1126.31 582.533 1121.83 606.048C1116.52 605.384 1111.67 601.983 1104.66 597.877C1106.82 562.708 1086.66 535.046 1074.97 502.448Z" fill="#8C7368"/>
<path d="M296.706 1084.28C288.909 1085.06 283.393 1086.22 275.43 1088.63C276.093 1083.57 277.669 1075.28 282.688 1071.09C366.258 1001.62 388.322 907.641 390.686 805.202C390.976 793.133 383.054 777.83 402.713 769.328C413.413 882.632 386.082 984.947 310.268 1074.65C307.987 1082.16 304.005 1084.11 296.706 1084.28Z" fill="#C97939"/>
<path d="M1021.67 1072.75C1053.32 930.119 1087.53 789.069 1122.29 645.157C1130.83 641.508 1132.9 646.609 1133.98 656.106C1139.5 701.561 1122.5 740.587 1114.32 780.899C1109.47 804.746 1102.21 828.22 1096.08 854.929C1076.21 927.548 1069.66 1000.58 1038.22 1069.76C1032.37 1073.99 1028.47 1074.82 1021.67 1072.75Z" fill="#C97939"/>
<path d="M296.625 1086.31C298.201 1082.12 301.975 1080.34 307.823 1077.85C355.186 1077.97 400.517 1078.76 448.793 1080.63C401.678 1104.39 350.043 1092.11 296.625 1086.31Z" fill="#D8D7D3"/>
<path d="M1131.66 659.092C1128.63 653.576 1127.3 649.429 1124.44 643.747C1122.37 634.208 1121.91 626.204 1121.5 615.172C1132.24 623.384 1135.14 637.733 1137.09 655.152C1135.76 658.719 1134.56 659.59 1131.66 659.092Z" fill="#8C7368"/>
<path d="M1019.02 1072.58C1022.29 1071.09 1025.49 1071.09 1031.17 1070.96C1033.57 1070.88 1035.98 1073.7 1034.86 1075.15C1030.46 1077.1 1027.19 1077.6 1021.42 1077.56C1018.97 1077.02 1019.02 1074.07 1019.02 1072.58Z" fill="#DD8842"/>
<path d="M1563.32 474.536C1603.47 473.292 1641.37 473.665 1682.76 474.992C1697.99 484.365 1710.55 492.536 1691.64 509.913C1672.02 517.876 1654.73 516.963 1637.64 516.963C1513.8 517.088 1389.96 517.129 1266.12 516.963C1246.58 516.922 1226.72 518.373 1205.73 506.097C1198.22 497.263 1197.52 490.213 1201.83 479.472C1235.76 475.034 1267.98 473.873 1303.57 472.753C1315.22 472.96 1323.48 472.836 1334.18 473.209C1398.21 475.283 1459.8 477.232 1524.87 479.057C1538.93 474.453 1550.21 477.854 1563.32 474.536Z" fill="#DAB6A3"/>
<path d="M1700.52 502.074C1695.37 493.075 1690.65 486.522 1686.12 477.979C1693.05 475.822 1699.81 475.656 1709.1 475.366C1715.78 475.78 1719.88 476.693 1726.15 476.444C1740.5 476.237 1752.81 476.444 1768.2 476.859C1765.34 496.683 1759.41 516.341 1751.49 537.741C1730.42 537.575 1729.01 511.116 1706.86 509.249C1703.42 506.844 1702.18 505.683 1700.52 502.074Z" fill="#C97939"/>
<path d="M1201.13 476.153C1203.82 482.914 1204.2 489.632 1202.16 502.074C1178.4 517.751 1157.04 518.124 1133.28 505.268C1130.29 501.494 1129.83 499.876 1128.76 495.812C1126.02 489.342 1126.14 484.572 1123.2 478.434C1122.37 476.319 1122.45 476.236 1122.45 476.319C1140.04 476.195 1157.66 475.946 1178.11 475.49C1182.34 475.987 1183.75 476.651 1187.23 476.319C1192.46 475.614 1195.61 475.863 1201.13 476.153Z" fill="#C97939"/>
<path d="M1820.96 478.808C1811.13 478.103 1804.61 477.315 1796.2 475.076C1832.24 454.92 1869.98 475.49 1910.37 475.864C1883.33 477.771 1853.8 478.269 1820.96 478.808Z" fill="#DAB6A3"/>
<path d="M1335.01 471.467C1328.66 481.421 1319.79 481.503 1308.63 474.494C1314.89 464.375 1323.77 464.085 1335.01 471.467Z" fill="#D7CFC9"/>
<path d="M1562.74 472.836C1556.56 482.499 1544.95 479.638 1531.14 479.306C1538.85 476.859 1549.39 474.785 1562.74 472.836Z" fill="#D7CFC9"/>
<path d="M1726.27 474.951C1723.95 476.485 1719.68 476.983 1713.54 476.319C1715.9 474.785 1720.13 474.37 1726.27 474.951Z" fill="#DAB6A3"/>
<path d="M1188.4 474.702C1187.94 475.822 1186.57 476.278 1183.09 476.071C1182.88 473.748 1185.04 473.334 1188.4 474.702Z" fill="#DAB6A3"/>
<path d="M4166.64 500.996C4166.06 503.567 4165.56 506.636 4165.39 508.212C4163.98 509.788 4162.74 509.83 4159.63 509.995C4157.76 510.12 4157.64 509.954 4157.55 509.913C4154.98 507.051 4153.95 503.775 4156.14 497.968C4157.93 495.895 4157.93 495.355 4158.18 495.521C4162.03 494.443 4164.94 495.355 4166.64 500.996Z" fill="#C97939"/>
<path d="M1365.41 1184.89C1356.2 1153.83 1346.45 1125.71 1335.46 1095.02C1332.48 1088.05 1332.39 1083.61 1336.17 1076.6C1355.91 1062.79 1375.73 1064.91 1394.93 1064.82C1444.62 1064.62 1494.31 1064.74 1547.1 1063.54C1566.14 1070.38 1564.02 1082.28 1559.71 1094.68C1526.28 1190.7 1491.65 1286.25 1457.23 1381.93C1454.91 1388.44 1451.63 1395.61 1440.27 1397.02C1412.15 1328.55 1388.88 1258.01 1365.41 1184.89Z" fill="#E7E5DF"/>
<path d="M1364.12 1183.77C1391.78 1251.08 1417.58 1320.22 1446.45 1397.61C1484.81 1286.87 1520.69 1183.4 1556.68 1077.27C1568.5 1010.16 1586.84 947.953 1621.96 888.729C1625.57 884.831 1627.36 883.172 1630.51 880.31C1642.04 887.153 1637.27 896.36 1633.95 905.65C1576.38 1067.15 1519.07 1228.77 1460.84 1390.02C1457.73 1398.64 1458.89 1416.06 1443.54 1413.12C1437.49 1411.95 1432.39 1398.39 1429.44 1389.64C1406.67 1321.79 1375.48 1256.64 1364.12 1183.77Z" fill="#918780"/>
<path d="M1151.32 715.578C1140.12 766.632 1114.53 812.46 1122.95 867.577C1108.35 882.674 1098.4 872.886 1087.12 859.449C1100.22 792.511 1114.95 728.062 1129.79 660.668C1129.92 657.723 1133.44 657.806 1135.19 657.847C1136.93 657.889 1137.13 657.64 1137.01 657.599C1140.25 660.668 1140.7 665.022 1143.02 670.87C1144.19 672.653 1144.52 672.322 1144.27 672.363C1151.28 679.704 1146.3 690.072 1150.7 700.814C1150.99 706.744 1151.11 709.979 1151.32 715.578Z" fill="#DD8842"/>
<path d="M1199.51 502.53C1192.87 539.524 1182.96 576.477 1172.1 616.167C1166.21 610.692 1161.27 602.522 1154.97 592.859C1145.93 563.786 1138.3 536.206 1130.66 505.89C1152.6 502.904 1174.42 502.738 1199.51 502.53Z" fill="#DD8842"/>
<path d="M1709.43 652.705C1708.06 606.172 1707.86 557.731 1707.57 505.848C1734.57 496.683 1743.77 511.862 1747.63 537.41C1749.16 542.718 1748.87 545.953 1748.21 551.594C1747.17 555.492 1746.55 556.943 1744.35 560.261C1740.46 570.339 1738.09 578.593 1735.6 589.417C1727.14 611.605 1718.89 631.181 1709.43 652.705Z" fill="#DD8842"/>
<path d="M1706.4 808.727C1710.67 837.551 1715.24 867.66 1679.94 885.618C1670.82 881.098 1672.77 874.379 1676.71 866.209C1687.91 846.094 1696.16 827.639 1706.4 808.727Z" fill="#E7E5DF"/>
<path d="M1210.09 888.19C1210.29 885.577 1211.66 882.176 1212.45 880.517C1247.12 893.581 1238.66 928.004 1248.37 956.952C1248.53 959.814 1247.7 960.519 1247.25 960.809C1219.5 955.459 1223.52 928.833 1212.74 909.009C1210.25 901.378 1209.42 896.152 1210.09 888.19Z" fill="#918780"/>
<path d="M1659.79 910.254C1661.7 916.848 1661.49 925.018 1661.32 936.216C1662.82 948.409 1659.5 955.75 1650.87 963.381C1645.23 968.565 1641.46 972.091 1635.28 976.694C1641.17 955.874 1649.42 933.852 1659.79 910.254Z" fill="#8C7368"/>
<path d="M1261.85 887.111C1263.79 885.328 1266.82 885.743 1268.27 886.24C1283.87 900.549 1288.22 917.221 1280.72 941.068C1264.46 928.958 1254.26 911.331 1261.85 887.111Z" fill="#8C7368"/>
<path d="M1317.55 1044.79C1299.92 1034.09 1296.64 1014.56 1294.98 991.915C1321.24 998.592 1323.48 1018.42 1317.55 1044.79Z" fill="#8C7368"/>
<path d="M1677.08 865.794C1678.62 869.9 1677.58 875.292 1677 883.379C1673.47 892.835 1669.49 899.553 1663.64 907.641C1660.74 893.374 1661.94 878.485 1677.08 865.794Z" fill="#8C7368"/>
<path d="M1152.32 701.851C1148.5 695.008 1146.18 686.423 1143.94 675.142C1153.14 679.621 1155.05 689.326 1152.32 701.851Z" fill="#8C7368"/>
<path d="M1334.01 1075.81C1334.72 1081.16 1334.63 1084.4 1334.43 1090.04C1324.39 1091.33 1321.82 1084.61 1323.68 1072.7C1328.66 1070.01 1331.19 1071.46 1334.01 1075.81Z" fill="#8C7368"/>
<path d="M1287.35 963.547C1282.25 962.178 1279.85 956.413 1277.32 948.243C1277.23 945.796 1278.15 945.133 1278.6 944.842C1288.31 945.216 1290.01 951.561 1287.35 963.547Z" fill="#8C7368"/>
<path d="M1292.7 989.55C1289.72 984.241 1287.27 978.518 1284.74 970.348C1284.66 967.901 1285.69 967.196 1286.23 966.823C1296.48 968.274 1297.84 975.159 1295.69 985.859C1294.36 988.347 1293.28 989.135 1292.7 989.55Z" fill="#8C7368"/>
<path d="M1322.11 1070.84C1319.16 1065.53 1316.71 1059.76 1314.18 1051.59C1314.1 1049.15 1315.01 1048.48 1315.51 1048.19C1326.05 1049.35 1327.21 1056.36 1325.01 1067.15C1323.64 1069.64 1322.65 1070.46 1322.11 1070.84Z" fill="#8C7368"/>
<path d="M1144.14 670.414C1141.82 669.087 1139.46 665.562 1136.97 659.755C1139.25 661.083 1141.66 664.608 1144.14 670.414Z" fill="#8C7368"/>
<path d="M285.092 868.449C273.023 881.554 264.314 877.656 259.296 865.504C255.646 856.712 259.876 847.588 269.291 846.136C283.392 844.021 287.788 853.269 285.092 868.449Z" fill="#8C7368"/>
<path d="M247.063 963.836C232.381 963.961 226.658 956.911 230.598 945.423C231.676 942.188 241.339 938.704 245.155 940.197C256.768 944.717 258.717 953.219 247.063 963.836Z" fill="#8C7368"/>
<path d="M1509.73 1366.46C1511.56 1350.12 1516.66 1333.7 1523.3 1315.24C1541.96 1301.47 1561.37 1300.06 1581.28 1300.14C1613.25 1300.27 1645.27 1301.51 1677.16 1299.69C1729.26 1296.74 1754.93 1277.37 1750.61 1225.78C1748.17 1196.5 1749.7 1166.77 1750.45 1137.28C1751.82 1083.99 1760.61 1075.07 1813.32 1075.03C2043.25 1074.78 2273.19 1074.94 2503.12 1074.94C2699.87 1074.94 2896.7 1078.84 3093.29 1073.95C3329.19 1068.06 3565.02 1067.44 3804.28 1068.06C3811.99 1068.72 3816.18 1069.76 3822.73 1073.12C3826.43 1076.35 3827.55 1077.97 3829.54 1082.28C3830.57 1088.71 3830.32 1092.32 3828.71 1098.34C3827.3 1102.28 3826.63 1103.77 3824.89 1107.46C3822.36 1112.35 3820.83 1115.09 3818.17 1119.74C3816.35 1122.97 3815.56 1124.21 3813.61 1127.28C3811.58 1130.27 3810.75 1131.43 3807.39 1136.03C3802.29 1142.79 3799.8 1146.15 3797.77 1152.25C3796.52 1155.61 3795.98 1156.94 3794.53 1160.21C3792.33 1164.82 3791.01 1167.43 3788.56 1171.95C3786.74 1175.23 3785.95 1176.51 3783.92 1179.71C3781.76 1182.86 3780.89 1184.06 3777.15 1188.95C3768.65 1200.11 3764.38 1208.36 3760.57 1219.56C3759.16 1223.34 3758.49 1224.83 3756.63 1228.44C3754.55 1231.96 3753.68 1233.33 3749.82 1238.6C3737.38 1251.74 3734.69 1265.55 3723.28 1276.34C3721.54 1278.04 3721.95 1278.08 3721.95 1277.87C3720.34 1279.41 3718.64 1281.07 3715.48 1283.8C3537.6 1290.07 3360.92 1292.84 3184.49 1300.97C3050.99 1307.11 2917.52 1312.3 2783.94 1315.57C2583 1320.51 2382.14 1329.76 2181.24 1337.14C1980.34 1344.52 1779.44 1351.74 1578.58 1359.45C1556.68 1360.28 1534.87 1364.01 1509.73 1366.46Z" fill="#E9E7E1"/>
<path d="M3843.1 1076.81C3884.7 1077.85 3924.01 1077.93 3963.29 1078.68C3973.41 1078.88 3991.58 1077.68 3981.75 1094.89C3944.21 1160.75 3921.98 1239.55 3836.17 1265.6C3802 1275.96 3768.16 1281.81 3730.91 1279.03C3726.27 1261.74 3737.3 1250.75 3742.57 1235.4C3744.14 1233.29 3744.02 1233.58 3743.89 1233.7C3745.55 1232.09 3747.29 1230.38 3750.32 1227.32C3751.61 1225.99 3751.48 1226.28 3751.36 1226.4C3759.49 1213.71 3764.38 1199.36 3772.14 1183.6C3773.67 1181.61 3773.55 1181.9 3773.42 1181.99C3775.08 1180.37 3776.82 1178.63 3779.85 1175.6C3781.14 1174.27 3781.01 1174.56 3780.89 1174.69C3784.04 1171.53 3784.58 1167.1 3787.15 1161.21C3788.48 1159.47 3788.35 1159.8 3788.27 1159.92C3794.78 1152.46 3795.82 1142.34 3801.75 1131.84C3803.24 1129.94 3803.12 1130.23 3802.99 1130.35C3804.65 1128.73 3806.4 1126.99 3809.42 1123.96C3810.71 1122.64 3810.58 1122.93 3810.46 1123.05C3813.61 1119.9 3814.15 1115.42 3816.72 1109.57C3818.05 1107.83 3817.92 1108.16 3817.84 1108.25C3821.04 1105.09 3821.53 1100.66 3824.1 1094.77C3825.43 1093.03 3825.31 1093.32 3825.18 1093.44C3828.38 1089.92 3830.28 1085.39 3834.47 1079.55C3837.71 1077.27 3839.24 1076.69 3843.1 1076.81Z" fill="#E7E5DF"/>
<path d="M3846.09 1075.61C3845.42 1077.51 3842.02 1077.97 3840.36 1078.22C3837.13 1079.3 3835.55 1080.09 3831.9 1079.17C3828 1074.4 3826.88 1071.09 3826.88 1064.87C3834.02 1040.4 3847.66 1022.23 3861.1 1001.08C3865.37 996.808 3868.19 994.9 3873.25 991.665C3876.86 989.965 3878.43 989.882 3882.37 989.799C3874.91 1012.94 3865.08 1036.08 3854.92 1061.92C3852.1 1067.69 3849.44 1070.71 3846.09 1075.61Z" fill="#C97939"/>
<path d="M3741.82 1234.53C3747.29 1249.01 3735.35 1259.25 3729.58 1274.47C3727.68 1277.25 3726.47 1277.5 3723.4 1277.91C3719.75 1260.62 3731.28 1248.88 3741.82 1234.53Z" fill="#DF8A44"/>
<path d="M3715.98 1284.38C3715.44 1282.64 3716.69 1280.28 3719.96 1277.79C3720.58 1279.7 3719.17 1281.77 3715.98 1284.38Z" fill="#DF8A44"/>
<path d="M4169.46 503.277C4164.57 501.577 4163.03 499.669 4159.96 496.683C4107.66 478.186 4055.32 491.83 4003.85 487.766C3983.32 486.149 3962.67 485.9 3939.86 483.08C3939.57 480.176 3941.31 478.974 3944.09 476.485C4018.74 474.785 4092.19 474.121 4169.17 473.167C4175.76 472.836 4178.87 472.836 4184.31 472.877C4225.03 479.015 4264.81 464.873 4303.05 483.37C4263.19 486.149 4222.84 486.148 4182.52 486.148C4182.48 489.923 4182.44 493.697 4182.4 497.429C4218.9 497.429 4255.39 497.429 4294.21 499.296C4255.31 501.743 4214.09 502.365 4169.46 503.277Z" fill="#E1995D"/>
<path d="M4200.86 444.012C4201.81 444.759 4201.52 446.003 4200.86 449.072C4199.61 449.445 4198.62 448.035 4198.04 446.5C4197.87 446.086 4199.03 445.173 4200.86 444.012Z" fill="#E1995D"/>
<path d="M1490.61 1591.16C1505.96 1623.01 1503.26 1649.93 1473.53 1666.19C1448.64 1679.79 1425.04 1670.83 1410.45 1647.11C1395.6 1622.97 1395.43 1596.59 1418.74 1577.81C1444.12 1557.32 1468.72 1564.99 1490.61 1591.16Z" fill="#D7CFC9"/>
<path d="M1434.83 1515.39C1432.09 1505.35 1431.27 1494.78 1444.12 1492.79C1455.65 1491 1462.16 1496.44 1462.45 1511.37C1454.33 1514.73 1446.11 1515.35 1434.83 1515.39Z" fill="#E7E5DF"/>
<path d="M640.649 1594.35C656.575 1623.01 653.464 1648.23 626.506 1665.02C603.737 1679.21 580.387 1672.66 565 1652.17C546.379 1627.33 544.637 1600.82 572.756 1576.98C588.516 1584.94 578.106 1600.78 587.023 1613.22C589.304 1618.28 590.175 1621.31 590.922 1626.7C593.078 1635.12 596.977 1638.73 605.479 1638.4C608.424 1636.99 609.461 1636.16 612.322 1634.54C614.106 1633.71 614.023 1632.97 613.649 1632.97C615.599 1629.36 617.465 1625.5 620.949 1620.03C626.05 1613.56 627.46 1607.87 629.949 1600.16C633.059 1595.85 635.589 1594.31 640.649 1594.35Z" fill="#D7CFC9"/>
<path d="M611.16 1632.59C614.561 1634.91 615.059 1636.12 615.64 1639.31C605.644 1644.41 595.856 1645.2 584.658 1636.12C581.714 1630.68 581.009 1627.32 579.723 1621.48C571.387 1604.39 584.783 1591.82 582.917 1575.15C586.276 1570.17 589.76 1567.81 595.359 1565.12C603.322 1586.64 587.852 1611.94 611.16 1632.59Z" fill="#918780"/>
<path d="M642.143 1592.78C640.235 1595.8 638.12 1596.97 635.59 1600.45C630.032 1607.58 631.816 1614.47 629.783 1623.01C625.097 1627.78 621.406 1630.31 615.434 1632.88C617.424 1616.21 621.654 1599.5 627.917 1581.54C633.848 1583.57 637.705 1586.93 642.143 1592.78Z" fill="#8C7368"/>
<path d="M580.801 1573.12C595.898 1586.72 581.962 1599.95 580.303 1616.33C558.861 1608.5 576.654 1593.81 575.161 1578.8C576.405 1575.44 577.566 1574.57 580.801 1573.12Z" fill="#DAB6A3"/>
<path d="M1216.52 899.222C1227.13 919.751 1235.22 938.538 1245.05 959.233C1257.33 997.969 1267.9 1034.8 1278.6 1074.57C1277.32 1077.81 1275.91 1078.14 1272.42 1079.17C1193.79 1079.17 1117.19 1078.51 1037.18 1077.27C1033.74 1076.69 1033.7 1073.82 1033.62 1072.41C1050.08 1001.37 1066.59 931.778 1084.3 859.615C1096.45 861.564 1107.4 866.126 1120.92 870.481C1123.49 870.315 1123.45 870.647 1123.33 870.771C1125.27 876.453 1128.3 881.222 1135.73 885.038C1137.59 886.116 1137.01 886.282 1137.3 886.157C1161.03 903.369 1189.6 886.738 1216.52 899.222Z" fill="#E08941"/>
<path d="M3895.65 950.109C3898.63 955.749 3898.76 959.15 3898.97 965.039C3899.05 967.569 3899.05 967.735 3898.97 967.735C3897.85 969.145 3896.81 970.555 3894.15 969.892C3892.54 967.818 3889.92 967.403 3888.6 967.32C3852.52 976.444 3817.1 970.514 3782.05 971.011C3714.99 971.924 3647.88 971.924 3577.46 969.435C3569.21 967.237 3564.31 966.491 3556.93 965.62C3549.84 965.164 3545.4 963.961 3539.18 961.514C3537.48 959.938 3537.56 960.311 3537.65 960.145C3538.18 944.261 3550.67 943.1 3561.12 943.017C3668.29 941.98 3775.5 940.114 3882.67 943.847C3886.36 944.054 3889.47 946.376 3895.65 950.109Z" fill="#DF8A44"/>
<path d="M3575.05 969.602C3675.92 967.569 3777.82 967.155 3883.45 966.989C3841.07 983.827 3793.37 972.339 3746.51 974.33C3694.13 976.569 3641.62 975.035 3585.75 975.242C3580.24 973.956 3578.17 972.588 3575.05 969.602Z" fill="#E5CDB7"/>
<path d="M3871.97 990.007C3874.45 992.329 3873.54 994.569 3871.18 997.97C3858.45 1007.05 3846 1011.41 3832.19 1011.53C3759.2 1012.24 3686.16 1012.32 3613.17 1011.45C3600.93 1011.32 3588.87 1009.33 3576.13 999.007C3575.68 994.32 3577.58 992.537 3581.36 990.007C3678.37 989.551 3773.47 989.717 3871.97 990.007Z" fill="#E5CDB7"/>
<path d="M3892.49 969.561C3892.53 967.86 3895.69 967.694 3897.26 967.736C3897.72 970.763 3896.6 973.75 3895.48 976.736C3894.48 974.911 3893.49 973.086 3892.49 969.561Z" fill="#C97939"/>
<path d="M3827.21 1062.54C3829.54 1068.27 3829.66 1071.04 3830.12 1075.86C3829.58 1079.38 3828.71 1080.87 3826.09 1080.42C3646.02 1078.55 3467.51 1074.36 3289.3 1079.38C2793.85 1093.32 2298.4 1081.79 1802.96 1085.23C1771.02 1085.44 1762.6 1096.22 1764.34 1125.87C1766.5 1162.66 1761.77 1199.99 1765.59 1236.48C1771.93 1297.28 1732.24 1310.72 1687.28 1313.87C1635.9 1317.52 1584.06 1314.33 1528.61 1313.62C1547.06 1232.96 1575.1 1154.82 1609.77 1076.44C1659.79 1073.74 1708.89 1073.37 1761.44 1072.45C1783.63 1052.84 1807.97 1056.45 1830.99 1056.45C2150.8 1056.24 2470.64 1056.32 2790.45 1056.32C3066 1056.32 3341.56 1055.7 3617.07 1056.86C3668.91 1057.07 3719.92 1047.78 3771.6 1048.98C3790.05 1049.52 3808.8 1047.99 3827.21 1062.54Z" fill="#E2DCD4"/>
<path d="M4154.45 495.646C4157.93 498.964 4157.89 502.075 4157.68 507.508C4157.52 509.83 4154.11 510.079 4152.41 510.037C4097.21 492.66 4042.3 506.803 3988.18 502.489C3967.57 500.83 3946.87 500.499 3923.98 497.43C3921.7 495.315 3925.14 495.273 3926.8 494.9C4002.57 494.858 4076.77 495.149 4154.45 495.646Z" fill="#E1995D"/>
<path d="M9444.78 591.117C9480.82 552.547 9513.17 513.438 9561.4 493.946C9598.81 478.808 9619.84 494.277 9616.19 533.138C9610.84 590.205 9484.39 692.478 9427.19 686.091C9405.5 683.686 9399.32 669.709 9407.41 652.415C9417.07 631.637 9430.97 612.808 9444.78 591.117Z" fill="#E2DCD4"/>
<path d="M8218.93 590.951C8210.06 599.619 8203.42 606.96 8195.62 612.724C8186.08 619.775 8175.09 632.051 8163.77 624.047C8157.22 619.443 8157.38 604.388 8155.93 593.854C8154.56 584.232 8153.69 574.113 8155.06 564.574C8157.43 548.068 8142.25 524.221 8167.21 516.755C8190.44 509.746 8214.66 517.502 8230.63 536.414C8246.88 555.699 8231.7 572.786 8218.93 590.951Z" fill="#D8D7D3"/>
<path d="M5270.34 725.822C5306.25 759.457 5298.62 795.871 5255.16 814.782C5236.83 822.745 5227.2 817.893 5224.59 798.483C5222.64 783.967 5219.99 769.452 5219.62 754.895C5219.24 739.965 5204.98 720.887 5221.11 711.016C5236.83 701.353 5252.96 716.657 5270.34 725.822Z" fill="#E2DCD4"/>
<path d="M3831.69 1063.99C3143.52 1067.93 2457.66 1070.38 1768.37 1072.41C1764.84 1049.85 1764.8 1027.75 1766.87 999.379C1783.59 983.909 1799.97 986.439 1815.73 986.439C2169.88 986.232 2523.98 986.274 2878.13 986.357C2894.05 986.357 2910.27 984.946 2928.35 994.734C2935.11 996.6 2938.43 997.222 2944.11 998.715C2963.89 1010.29 2982.93 1012.28 3003.09 1012.24C3143.35 1011.82 3283.62 1012.32 3423.88 1011.74C3452.25 1011.61 3480.29 1014.68 3508.53 1015.76C3529.81 1016.55 3550.29 1014.35 3571.74 1001.04C3574.6 999.255 3573.68 997.845 3573.73 996.974C3670.11 996.849 3766.41 997.554 3866.24 998.715C3857.82 1020.28 3845.92 1041.39 3831.69 1063.99Z" fill="#DF8A44"/>
<path d="M1761.24 954.008C1758.46 948.99 1758.54 946.584 1759 942.354C1766.42 930.451 1777.2 934.765 1786.37 934.765C2165.77 934.557 2545.22 934.474 2924.62 934.599C2928.31 934.599 2931.96 935.138 2937.56 938.663C2938.56 944.801 2937.6 947.787 2935.45 951.81C2919.48 964.293 2902.14 963.879 2884.85 963.92C2525.52 963.962 2166.15 964.003 1806.82 963.796C1792.18 963.754 1777 965.869 1761.24 954.008Z" fill="#E5CDB7"/>
<path d="M1758.37 954.008C2148.02 951.851 2537.42 952.307 2930.51 952.764C2932.37 957.16 2930.51 961.515 2926.73 967.362C2912.51 979.431 2897.49 978.56 2882.77 978.56C2514.44 978.436 2146.11 979.182 1770.56 977.15C1761.61 969.643 1759.86 963.132 1758.37 954.008Z" fill="#E1995D"/>
<path d="M1764.68 998.674C1757.54 993.49 1758.79 986.979 1762.85 978.145C1763.35 976.113 1764.14 975.574 1764.55 975.325C1772.72 969.809 1781.6 971.551 1790.02 971.551C2165.94 971.676 2541.86 971.095 2921.3 972.92C2925.45 977.647 2926.11 981.256 2926.44 987.601C2911.97 996.476 2897.04 993.366 2882.52 993.366C2512 993.905 2141.47 992.868 1767.7 995.771C1764.55 997.555 1764.84 998.301 1764.68 998.674Z" fill="#E1995D"/>
<path d="M3571.45 998.964C3560.58 1031.15 3531.05 1028.37 3505.42 1026.17C3336.58 1011.7 3167.49 1023.6 2998.61 1019.49C2980.57 1019.04 2961.2 1022.89 2947.43 1002.2C3144.18 1010.41 3341.97 1003.15 3539.72 1005.23C3549.22 1005.35 3558.76 1001 3571.45 998.964Z" fill="#C97939"/>
<path d="M2941.7 940.985C2932.16 940.861 2924.86 939.119 2917.56 939.119C2533.64 939.161 2149.67 939.368 1762.43 940.031C1758.87 938.704 1758.62 936.921 1758.29 932.442C2137.56 930.078 2516.93 930.41 2896.29 930.907C2912.09 930.949 2927.89 932.981 2946.1 936.382C2947.01 939.243 2945.48 939.7 2941.7 940.985Z" fill="#E1995D"/>
<path d="M1768.08 997.721C1773.72 985.32 1787.07 989.841 1798.69 989.841C2172.08 989.675 2545.51 989.758 2922.55 990.09C2928.06 990.836 2929.47 991.956 2931.17 994.776C2740.35 996.601 2548.82 997.513 2357.3 997.845C2162.04 998.177 1966.82 997.928 1768.08 997.721Z" fill="#E5CDB7"/>
<path d="M2924.83 972.712C2540.53 974.288 2156.23 974.578 1768.45 974.952C1772.97 963.878 1784.96 967.404 1795.53 967.404C2169.63 967.362 2543.72 967.569 2921.3 968.274C2924.78 968.814 2924.78 971.426 2924.83 972.712Z" fill="#E5CDB7"/>
<path d="M3898.88 950.068C3779.81 953.635 3661.11 954.837 3540.05 958.031C3522.88 958.321 3505.75 967.03 3493.6 947.621C3496.55 928.004 3510.27 934.93 3519.36 934.889C3643.82 934.64 3768.24 933.935 3895.94 936.63C3899.18 941.4 3899.22 944.552 3898.88 950.068Z" fill="#E5CDB7"/>
<path d="M3900.75 937.542C3765.42 939.243 3631.67 940.238 3495.42 943.058C3487.38 945.008 3481.82 945.132 3473.48 945.505C3467.76 948.45 3464.32 949.487 3458.26 946.874C3453.29 944.593 3450.38 944.178 3445.32 943.432C3443.62 920.58 3461 931.487 3469.83 931.405C3613.04 930.658 3756.29 930.907 3902.99 931.073C3905.6 933.437 3904.23 935.303 3900.75 937.542Z" fill="#E1995D"/>
<path d="M3457.14 946.584C3459.38 944.884 3462.66 944.801 3468.3 945.216C3466.52 946.543 3462.33 947.372 3457.14 946.584Z" fill="#E5CDB7"/>
<path d="M3538.97 961.888C3541.96 960.809 3546.44 961.597 3552.66 963.961C3549.76 964.957 3545.11 964.376 3538.97 961.888Z" fill="#E5CDB7"/>
<path d="M1651.95 965.579C1651.91 957.284 1654.81 949.446 1659.54 940.446C1676.17 942.271 1703.92 930.534 1701.05 955.252C1698.44 978.187 1670.9 962.095 1651.95 965.579Z" fill="#DAB6A3"/>
<path d="M1744.15 561.049C1743.15 559.847 1744.02 557.897 1746.64 555.077C1748.09 556.404 1747.3 558.436 1744.15 561.049Z" fill="#C97939"/>
<path d="M1051.78 1314.82C1034.36 1312.63 1020.26 1310.43 1006.2 1308.23C1117.85 1312.83 1229.08 1305.24 1340.19 1314.87C1245.17 1314.82 1150.11 1314.82 1051.78 1314.82Z" fill="#D8D7D3"/>
<path d="M1122.16 478.725C1124.36 480.425 1126.39 484.49 1128.3 490.96C1126.14 489.301 1124.07 485.195 1122.16 478.725Z" fill="#DAB6A3"/>
<path d="M1325.05 1070.71C1322.11 1063.62 1320.53 1057.61 1317.5 1049.73C1313.94 1028.04 1309.25 1009 1296.19 990.214C1292.78 982.292 1291.21 976.237 1288.18 968.316C1285.15 960.353 1283.62 954.257 1280.55 946.335C1275.9 927.216 1272.75 909.922 1269.68 889.683C1385.52 886.489 1501.27 886.282 1620.47 886.324C1602.84 947.828 1581.82 1009.08 1558.8 1072.5C1485.22 1075.73 1413.6 1076.85 1338.36 1077.97C1331.98 1075.86 1329.2 1073.82 1325.05 1070.71Z" fill="#DD8842"/>
<path d="M1218.67 898.641C1192.46 896.65 1163.68 911.539 1138.25 888.77C1159.65 885.743 1181.68 885.619 1206.98 885.494C1212.99 889.144 1215.64 892.752 1218.67 898.641Z" fill="#DD8842"/>
<path d="M1136.68 884.125C1132.95 882.591 1128.22 879.148 1123.41 873.259C1127.43 874.586 1131.54 878.402 1136.68 884.125Z" fill="#DD8842"/>
<path d="M3771.35 1182.82C3775.92 1199.24 3764.01 1210.93 3753.48 1225.33C3748.96 1208.9 3760.86 1197.25 3771.35 1182.82Z" fill="#DF8A44"/>
<path d="M3800.88 1131.06C3805.81 1141.51 3799.59 1149.93 3790.51 1159.09C3785.82 1148.56 3792.29 1140.39 3800.88 1131.06Z" fill="#DF8A44"/>
<path d="M3824.48 1081.08C3824.36 1078.59 3827.34 1077.89 3828.88 1077.93C3831.78 1078.05 3833.19 1078.14 3836.63 1078.34C3835.55 1083.28 3832.44 1088.09 3827.13 1093.19C3824.85 1090.21 3824.73 1086.89 3824.48 1081.08Z" fill="#DF8A44"/>
<path d="M3823.02 1093.81C3824.23 1097.51 3823.15 1102.03 3819.83 1107.46C3818.67 1103.77 3819.71 1099.16 3823.02 1093.81Z" fill="#DF8A44"/>
<path d="M3815.56 1108.5C3816.76 1112.19 3815.56 1116.54 3812.32 1122.02C3811.25 1118.45 3812.2 1113.8 3815.56 1108.5Z" fill="#DF8A44"/>
<path d="M3786.03 1160.21C3787.24 1163.9 3786.07 1168.3 3782.8 1173.77C3781.72 1170.17 3782.67 1165.52 3786.03 1160.21Z" fill="#DF8A44"/>
<path d="M3808.47 1122.68C3809.46 1125.13 3808.3 1127.61 3804.94 1130.27C3803.95 1127.86 3805.11 1125.33 3808.47 1122.68Z" fill="#DF8A44"/>
<path d="M3778.9 1174.4C3779.94 1176.84 3778.73 1179.37 3775.41 1181.99C3774.42 1179.58 3775.58 1177.01 3778.9 1174.4Z" fill="#DF8A44"/>
<path d="M3749.37 1226.11C3750.37 1228.56 3749.21 1231.09 3745.89 1233.74C3744.89 1231.26 3746.05 1228.73 3749.37 1226.11Z" fill="#DF8A44"/>
<path d="M1463.74 1606.34C1485.06 1615.01 1475.23 1626.41 1468.47 1635.45C1461.88 1644.25 1451.59 1644.2 1442.34 1639.72C1430.98 1634.25 1426.71 1623.8 1431.48 1612.64C1437.57 1598.21 1448.6 1593.19 1463.74 1606.34Z" fill="#8C7368"/>
<path d="M583.125 1636.28C591.669 1636.24 600.834 1638.48 612.903 1641.01C604.028 1652.54 593.535 1649.85 583.125 1636.28Z" fill="#DAB6A3"/>
<path d="M630.53 1623.47C629.618 1618.74 630.448 1612.23 633.019 1603.93C633.931 1608.62 633.102 1615.13 630.53 1623.47Z" fill="#DAB6A3"/>
<path d="M1464.16 1609.37C1461 1613.35 1457.52 1617.25 1454.08 1621.15C1453.29 1619.36 1451.42 1616.54 1451.96 1616C1454.08 1613.76 1456.94 1612.19 1461.63 1609.53C1463.62 1608.66 1463.82 1609.28 1464.16 1609.37Z" fill="#918780"/>
</svg>
