<svg width="2191" height="577" viewBox="0 0 2191 577" fill="none" xmlns="http://www.w3.org/2000/svg">
<path d="M626.607 360.564C580.779 392.143 527.147 418.321 438.092 418.321C213.906 418.321 213.534 252.115 0 252.115V236.948C224.186 236.948 224.558 403.155 438.092 403.155C515.257 403.155 564.553 381.444 606.666 353.708C613.271 355.994 619.919 358.279 626.607 360.564ZM2179.81 327.115C2180.88 326.077 2181.71 325.038 2182.29 323.999C1985.97 320.051 1974.08 172.335 1780.61 159.039C1783.91 161.463 1787.83 164.267 1792.38 167.453C1788.16 167.972 1784.94 168.7 1781.85 169.323C1788.87 171.47 1795.93 173.617 1803.03 175.763C1802.7 176.04 1802.37 176.317 1802.04 176.594C1871.89 186.671 1915.49 217.211 1957.85 249.31C1965.16 251.076 1972.59 252.945 1979.28 254.088C1976.8 256.027 1974.37 257.966 1971.97 259.906C2020.77 296.783 2071.93 332.621 2163.46 338.438C2169.98 335.114 2175.43 331.34 2179.81 327.115ZM1799.19 239.753C1802.74 241.069 1805.88 242.627 1808.6 244.427C1810.34 245.57 1805.01 250.972 1801.29 255.439C1831.64 259.802 1857.15 267.904 1879.7 278.396C1884.4 274.172 1888.82 270.259 1892.95 266.658C1866.69 253.984 1836.47 244.22 1799.19 239.753ZM1659.23 265.099C1670.13 258.867 1676.07 255.231 1677.06 255.646C1679.13 256.685 1681.19 257.759 1683.26 258.867C1703.69 254.608 1726.36 252.115 1752.12 252.115C1764.01 252.115 1775.24 252.634 1785.81 253.673C1778.13 251.249 1770.41 248.86 1762.65 246.505C1766.61 243.908 1770.58 241.207 1776.03 237.675C1768.35 237.191 1760.38 236.948 1752.12 236.948C1714.96 236.948 1684 241.519 1657.12 249.206C1656.63 249.829 1656.13 250.487 1655.63 251.18C1655.26 251.907 1651.92 252.218 1647.09 252.115C1538.34 287.433 1498.83 373.341 1379.92 396.922C1381.33 398.376 1382.77 399.692 1384.26 400.869C1376.58 403.57 1368.9 408.453 1361.34 408.66C1328.03 409.387 1294.46 410.011 1261.64 407.933C1244.67 406.894 1228.94 399.934 1212.71 395.675C1217.01 394.36 1221.42 393.009 1225.96 391.624C1094.8 353.916 1064.2 236.948 876.184 236.948C741.425 236.948 687.546 296.886 619.671 344.775C626.112 347.129 632.47 349.519 638.745 351.942C661.164 335.633 682.22 318.493 705.382 303.015L705.753 302.08C706.249 302.011 706.744 301.907 707.24 301.769C749.352 273.929 798.772 252.115 876.184 252.115C897.365 252.115 916.439 253.777 933.903 256.789C936.215 254.435 938.403 252.115 940.468 249.829C954.959 251.491 963.506 252.53 972.176 253.465C968.378 256.512 964.62 259.594 960.905 262.71C1025.56 280.266 1065.81 317.143 1111.52 350.488C1112.76 348.203 1114.99 344.671 1117.09 340.516C1125.51 350.073 1137.16 357.448 1135.79 362.85C1135.46 364.304 1135.22 365.654 1135.05 366.901C1145.46 373.757 1156.52 380.197 1168.25 386.222C1169.07 385.184 1169.9 384.11 1170.72 383.002C1175.06 386.742 1178.15 389.339 1181.25 392.04C1215.81 407.933 1257.92 418.321 1314.15 418.321C1499.94 418.321 1532.02 304.158 1659.23 265.099ZM1626.65 110.424C1623.18 109.108 1619.22 108 1614.76 107.099C1557.41 133.796 1519.26 174.413 1468.36 204.746C1472.4 208.139 1476.57 212.121 1480.87 216.692C1535.49 183.762 1575 140.237 1637.43 114.89C1633.88 113.367 1630.28 111.878 1626.65 110.424ZM0 0.934874C6.44071 3.94737 12.5097 7.47929 19.1981 10.3879C25.1434 12.9849 31.8318 14.7509 38.1487 16.9323C37.8184 17.0016 37.4882 17.0362 37.158 17.0362C208.952 34.5917 226.663 172.439 418.894 181.061C433.757 175.244 446.391 170.258 459.025 165.687C452.254 166.103 445.276 166.31 438.092 166.31C224.558 166.31 224.186 0 0 0V0.934874ZM187.028 135.874C185.212 134.627 183.354 133.346 181.455 132.03C182.941 133.485 184.51 135.008 186.161 136.601C186.492 136.324 186.781 136.082 187.028 135.874ZM0 158V173.27C213.534 173.27 213.906 339.477 438.092 339.477C662.279 339.477 662.65 173.27 876.184 173.27C1012.06 173.27 1061.6 240.584 1137.53 289.511C1142.98 283.902 1142.11 277.669 1140.38 271.332C1068.66 222.613 1015.9 158 876.184 158C847.449 158 822.429 160.805 800.135 165.479C792.579 169.738 788.863 171.712 785.395 171.608C783.909 171.539 782.257 171.158 780.441 170.466C645.929 209.005 615.955 324.311 438.092 324.311C394.989 324.311 360.556 317.351 331.201 306.547C319.723 305.439 308.246 304.366 296.768 303.327C301.557 301.665 306.305 299.968 311.012 298.237C210.438 251.491 168.202 158 0 158ZM118.905 99.2046C111.969 96.573 104.744 94.1837 97.2299 92.0369C96.9822 92.3139 96.6932 92.5909 96.363 92.8679C103.795 94.7378 111.474 97.7503 118.905 99.2046ZM876.184 410.115C1019.12 410.115 1066.56 484.596 1149.54 533.835C1160.69 534.042 1172.09 534.977 1182.74 533.004C1120.56 502.671 1080.18 454.886 1016.15 424.242C1015.4 424.104 1014.78 423.792 1014.29 423.307C978.369 406.375 935.018 394.844 876.184 394.844C659.058 394.844 651.874 550.663 457.91 560.635C453.533 562.436 449.075 564.167 444.533 565.829C441.808 566.764 435.739 563.648 429.794 560.947C329.591 558.87 277.446 519.188 224.558 479.09C223.815 479.852 223.154 480.614 222.576 481.376C219.727 478.883 215.268 476.701 214.649 473.896C214.484 473.273 214.525 472.546 214.773 471.715C162.504 432.345 106.519 394.844 0 394.844V410.115C213.534 410.115 213.906 576.321 438.092 576.321C662.402 576.321 662.526 410.115 876.184 410.115ZM2082.46 557.311C2077.63 551.286 2074.4 544.43 2070.07 538.198C1964.42 492.595 1924.04 394.844 1752.12 394.844C1527.94 394.844 1527.69 561.155 1314.15 561.155C1274.52 561.155 1242.19 555.338 1214.45 546.092C1211.8 550.801 1208.83 555.372 1205.53 559.804C1235.38 569.985 1270.43 576.321 1314.15 576.321C1538.34 576.321 1538.59 410.115 1752.12 410.115C1927.26 410.115 1959.09 521.889 2088.52 562.09C2086.05 560.705 2084.02 559.112 2082.46 557.311ZM875.318 331.167C874.946 326.492 874.203 320.675 877.423 317.766C878.166 317.143 878.786 316.554 879.281 316C878.208 316 877.175 315.966 876.184 315.896C847.944 315.896 823.296 318.597 801.373 323.168C804.511 324.622 808.433 326.284 813.14 328.154C791.217 331.582 781.679 334.283 772.39 333.971C770.821 333.902 769.252 333.348 767.683 332.309C708.602 352.358 670.082 387.261 627.226 418.425C638.002 420.191 650.14 415.516 662.774 413.023C709.841 377.289 756.288 341.97 836.921 333.244C832.586 331.582 829.242 327.115 825.278 324.103C831.223 321.921 837.292 317.974 843.238 317.974C848.316 317.974 853.518 322.441 865.78 328.362C859.835 329.747 855.005 330.959 851.289 331.997C858.968 331.443 866.978 331.167 875.318 331.167ZM1615.88 361.707C1613.52 359.525 1611.29 356.305 1611.66 355.682C1614.51 351.631 1618.85 347.787 1623.68 345.917C1625.04 345.398 1628.39 348.826 1633.71 353.397C1665.54 339.892 1703.2 331.167 1752.12 331.167C1965.66 331.167 1965.9 497.373 2190.09 497.373V482.207C1981.01 482.207 1976.18 322.752 1765.37 316.208C1763.97 316.554 1762.61 316.797 1761.29 316.935C1753.48 317.454 1742.46 319.74 1736.64 316.312C1527.81 323.791 1522.61 482.207 1314.15 482.207C1298.96 482.137 1284.8 481.306 1271.67 479.714C1271.34 479.644 1271.01 479.575 1270.68 479.506C1157.59 465.794 1112.26 398.792 1034.73 354.851C1032.66 356.028 1030.72 357.171 1028.9 358.279C1025.31 360.564 1017.38 358.694 1011.44 358.798C1014.78 355.37 1017.14 350.488 1021.47 348.93C1021.97 348.791 1022.42 348.653 1022.83 348.514C991.498 332.517 954.588 320.675 906.53 317.143C906.695 318.251 906.737 319.497 906.654 320.883C901.204 324.414 895.878 328.258 890.181 331.478C904.301 331.963 917.512 333.175 929.816 335.114C930.064 334.837 930.353 334.56 930.683 334.283C931.013 334.629 931.343 335.01 931.674 335.426C1091.7 361.291 1111.15 497.373 1314.15 497.373C1477.03 497.373 1521.74 409.699 1615.88 361.707ZM600.596 443.668C598.449 443.044 596.096 442.109 593.536 440.863C554.273 464.547 507.454 482.207 438.092 482.207C344.206 482.207 291.566 450.004 243.013 414.062C241.196 413.162 239.958 412.227 239.297 411.257C178.73 366.07 123.241 315.896 0 315.896V331.167C99.2117 331.167 152.348 367.005 203.378 405.44C204.038 405.925 204.74 406.34 205.483 406.687C256.514 445.537 306.181 486.466 398.705 495.503C396.475 493.495 394.246 491.487 392.016 489.478C395.732 487.089 400.686 482.103 402.792 482.726C409.728 484.804 415.674 488.959 424.468 493.529C422.651 494.638 420.876 495.78 419.142 496.958C425.252 497.235 431.569 497.373 438.092 497.373C519.344 497.373 571.118 475.558 614.345 447.719C609.721 446.334 605.138 444.983 600.596 443.668ZM228.274 169.842C219.108 167.557 211.924 168.18 205.731 170.362C263.697 214.095 319.682 260.529 438.092 260.529C662.279 260.529 662.65 94.2183 876.184 94.2183C971.557 94.2183 1024.32 127.46 1073.62 164.129C1075.19 163.644 1076.71 163.436 1078.2 163.506C1088.36 163.817 1098.14 167.349 1108.05 169.531C1104.09 172.855 1100 177.945 1096.16 181.165C1131.83 208.174 1168.87 234.663 1222.25 249.102C1226.13 247.163 1229.89 245.916 1233.52 245.362C1238.72 244.635 1246.03 251.595 1252.35 255.127C1252.1 255.266 1251.85 255.404 1251.6 255.542C1270.43 258.659 1290.99 260.529 1314.15 260.529C1370.51 260.529 1412.62 250.037 1447.67 234.247C1444.7 229.677 1438.26 226.56 1430.33 223.963C1399 236.948 1361.96 245.362 1314.15 245.362C1267.09 245.362 1230.42 237.26 1199.46 224.691C1193.68 225.729 1187.94 226.837 1182.24 228.015C1185.46 225.798 1188.72 223.617 1192.03 221.47C1087.86 175.452 1046.86 79.052 876.184 79.052C853.27 79.052 832.834 80.9218 814.131 83.9343C814.213 84.2806 814.296 84.6268 814.379 84.973C817.97 106.995 795.428 93.5951 785.271 97.7503C782.423 98.8929 777.964 99.3084 775.363 98.0619C773.298 97.0923 771.317 96.0535 769.417 94.9455C682.592 123.616 640.108 184.697 564.677 219.497C564.429 220.12 564.14 220.708 563.81 221.262C558.732 229.053 535.446 237.675 522.317 236.74C520.666 236.533 519.138 236.29 517.734 236.013C494.572 241.831 468.562 245.362 438.092 245.362C333.926 245.362 280.542 205.785 227.035 165.272C227.448 166.795 227.861 168.319 228.274 169.842ZM2190.09 561.155C2169.03 561.086 2149.88 559.527 2132.62 556.48C2128.41 562.713 2119.61 566.972 2110.7 568.011C2133.86 573.205 2159.87 576.321 2190.09 576.321V561.155ZM2012.47 110.839C2012.23 110.908 2011.94 110.943 2011.61 110.943C2002.07 111.254 1992.53 107.826 1975.44 104.502C1981.47 100.693 1986.42 97.4385 1990.3 94.7377C1955.87 68.9757 1922.92 41.8633 1878.21 23.269C1874.25 24.931 1871.15 25.9698 1869.17 25.1387C1864.09 23.2689 1860.37 19.3215 1856.66 15.2702C1827.68 5.92112 1793.74 0.103822 1752.12 0.103822C1701.59 0.103822 1662.45 8.62193 1629.62 21.7107C1631.48 23.6844 1632.6 24.7232 1632.35 24.5155C1632.35 29.8479 1632.31 34.4185 1632.23 38.2274C1664.43 24.4115 1702.45 15.3741 1752.12 15.3741C1927.14 15.3741 1958.97 127.044 2088.15 167.245C2087.74 163.436 2086.13 158.97 2083.32 153.845C2087.29 153.776 2091.54 153.499 2096.08 153.014C2063.38 142.834 2036.88 127.771 2012.47 110.839ZM1408.53 159.87C1409.9 162.571 1410.02 165.687 1409.77 169.115C1422.74 165.375 1434.83 161.013 1446.06 156.026C1433.76 156.857 1421.46 157.688 1409.15 158.519C1409.57 158.866 1409.94 159.212 1410.27 159.558C1409.69 159.697 1409.11 159.801 1408.53 159.87ZM0 94.3222C26.506 94.3222 49.5439 96.8153 70.3523 101.282C56.7277 94.1145 43.7224 86.0119 28.8592 80.1947C19.6936 79.5021 10.0739 79.1212 0 79.052V94.3222ZM475.746 169.219C470.378 173.166 464.97 177.114 459.52 181.061C484.911 179.815 507.206 176.283 527.271 171.089C527.767 169.912 528.304 168.734 528.882 167.557C531.854 161.844 537.428 156.65 542.63 150.209C553.117 152.217 562.613 154.018 571.118 155.611C675.779 108.865 716.034 15.3741 876.184 15.3741C1045.38 15.3741 1080.68 119.773 1199.58 163.09C1201.89 162.467 1204.25 161.982 1206.64 161.636C1226.34 159.039 1247.76 162.986 1268.45 163.921C1269.03 163.99 1269.6 164.025 1270.18 164.025C1099.5 142.938 1084.02 0.207803 876.184 0.207803C662.898 0.207803 651.998 150.521 467.695 165.168C470.296 166.31 473.268 168.18 475.746 169.219ZM1574.26 50.9007C1534.87 76.5588 1502.3 107.099 1460.8 130.368C1468.65 131.684 1476.12 133.242 1483.22 135.043C1483.72 135.251 1484.17 135.458 1484.58 135.666C1516.04 116.137 1542.67 93.2834 1572.03 72.7154C1572.28 65.4438 1573.02 58.1722 1574.26 50.9007ZM1314.15 181.685C1327.69 181.685 1340.45 181.096 1352.43 179.919C1349.29 177.425 1346.19 174.898 1343.14 172.335C1364.94 168.249 1386.73 164.129 1408.53 159.974C1408.37 159.558 1408.16 159.143 1407.91 158.727C1408.33 158.727 1408.74 158.693 1409.15 158.623C1407.67 157.031 1406.1 155.576 1404.45 154.26C1378.81 161.844 1349.45 166.414 1314.15 166.414C1312.5 166.414 1310.85 166.38 1309.2 166.31C1305.73 171.297 1302.3 176.283 1298.92 181.269C1303.87 181.477 1308.95 181.615 1314.15 181.685ZM1932.59 289.511C1931.18 290.273 1929.74 291.035 1928.25 291.796C1923.79 293.874 1917.23 294.393 1908.8 294.289C1981.39 338.334 2028.82 402.947 2146 416.036C2145.09 415.62 2144.14 415.17 2143.15 414.685C2151.45 412.504 2159.74 408.349 2167.92 408.349C2175.27 408.349 2182.66 408.418 2190.09 408.556V403.363C2056.45 403.363 2006.28 338.23 1932.59 289.511ZM123.241 118.734C128.938 121.227 134.429 123.859 139.714 126.629C134.512 123.928 129.186 120.084 123.241 118.734ZM2183.4 181.477C2184.64 180.369 2185.92 179.191 2187.24 177.945C2188.23 178.222 2189.18 178.499 2190.09 178.776V166.414C2167.92 166.414 2148.23 164.648 2130.14 161.428C2132.99 166.31 2134.11 172.231 2134.6 177.841C2149.55 179.988 2165.81 181.2 2183.4 181.477ZM2157.64 243.908C2143.52 242.662 2130.39 240.688 2118.25 237.987C2091 234.455 2064.12 229.469 2037.12 224.691C2070.81 242.869 2110.82 256.477 2164.7 259.802C2170.15 252.322 2168.17 247.232 2157.64 243.908ZM1733.17 79.5714C1728.88 81.7183 1723.92 84.1073 1718.31 86.7389C1710.88 90.167 1697.62 93.2833 1696.88 97.1269C1696.71 97.6116 1696.59 98.1311 1696.51 98.6851C1713.27 95.8458 1731.81 94.3915 1752.12 94.3222C1790.77 94.3222 1822.35 99.8278 1849.6 108.761C1851.25 108.138 1852.78 107.827 1854.18 107.827C1859.51 108.034 1867.81 112.605 1869.54 116.241C1914.87 135.147 1948.19 163.713 1984.36 190.41C1986.34 190.203 1988.32 190.168 1990.3 190.306C1997.86 190.93 2004.42 196.643 2016.31 202.46C2013.09 203.984 2010.16 205.438 2007.52 206.823C2008.59 207.516 2009.67 208.243 2010.74 209.005C2010.91 208.866 2011.07 208.728 2011.24 208.589C2013.88 206.996 2016.85 205.577 2020.15 204.33C2018.92 202.599 2018.3 201.075 2018.3 199.759C2018.21 197.682 2017.92 195.5 2017.43 193.215C1945.22 144.496 1892.7 79.1558 1752.12 79.1558C1745.6 79.1558 1739.28 79.2944 1733.17 79.5714ZM1148.68 296.575C1181 315.896 1218.78 331.27 1269.56 337.088C1282.61 332.517 1295 328.223 1306.72 324.207C1245.78 323.064 1202.43 308.105 1166.14 287.433C1159.82 289.095 1154.13 292.316 1148.68 296.575ZM1298.18 339.165C1303.38 339.373 1308.7 339.512 1314.15 339.581C1406.55 339.581 1460.8 311.326 1507.75 278.084C1499.82 276.769 1491.93 275.418 1484.09 274.033C1445.94 299.276 1401.97 319.74 1336.94 323.583C1324.14 328.916 1311.22 334.11 1298.18 339.165ZM1752.12 158.104C1749.64 158.173 1747.21 158.243 1744.81 158.312C1749.11 159.628 1753.4 160.909 1757.7 162.155C1757.53 162.017 1757.32 161.878 1757.08 161.74C1758.31 160.77 1759.59 159.628 1760.92 158.312C1758.03 158.243 1755.09 158.173 1752.12 158.104ZM1742.58 158.312C1625.41 160.909 1571.16 210.043 1511.83 254.296C1514.97 259.005 1517.98 263.784 1520.87 268.631C1559.15 240.272 1594.32 210.147 1643.87 191.553C1649.07 176.698 1662.2 170.569 1687.47 178.36C1690.36 177.945 1693.25 177.702 1696.14 177.633C1710.92 175.209 1727.06 173.824 1744.57 173.478C1746.05 170.466 1745.68 165.687 1742.58 158.312Z" fill="#333333"/>
</svg>
