<svg width="6866" height="708" viewBox="0 0 6866 708" fill="none" xmlns="http://www.w3.org/2000/svg">
<rect x="4865.46" y="137" width="2000" height="40" fill="#333333"/>
<rect x="4865.3" y="246" width="2000" height="40" fill="#333333"/>
<rect x="4865.15" y="355" width="2000" height="40" fill="#333333"/>
<rect x="4865" y="464" width="2000" height="40" fill="#333333"/>
<rect x="0.457031" y="137" width="2000" height="40" fill="#333333"/>
<rect x="0.304688" y="246" width="2000" height="40" fill="#333333"/>
<rect x="0.152344" y="355" width="2000" height="40" fill="#333333"/>
<rect y="464" width="2000" height="40" fill="#333333"/>
<path d="M2155.86 167.672V152.438H2312.3V167.672H2266.02V369.234C2266.02 392.672 2268.16 412.789 2272.46 429.586C2283.79 471.773 2311.72 492.867 2356.25 492.867C2420.31 492.477 2452.54 451.656 2452.93 370.406V167.672H2406.05V152.438H2520.9V167.672H2474.02V366.891C2474.02 391.5 2471.48 412.789 2466.41 430.758C2450.78 483.492 2409.96 509.859 2343.95 509.859C2250.59 509.469 2203.52 463.961 2202.73 373.336V167.672H2155.86ZM2722.46 504H2542.58V488.766H2589.45V167.672H2542.58V152.438H2822.07L2824.41 262.008H2810.94L2800.39 228.023C2789.06 188.18 2767.38 168.062 2735.35 167.672H2652.15V314.156H2769.92V331.148H2652.15V488.766H2722.46V504ZM3310.74 504H3171.88V488.766H3211.13L3167.19 375.094H3047.07L3003.71 488.766H3034.18C3036.52 488.766 3038.87 488.961 3041.21 489.352C3046.29 490.523 3048.83 495.406 3048.83 504H2943.36V488.766H2980.27L3110.35 152.438H3141.41L3277.34 488.766H3296.09C3298.05 488.766 3300 488.961 3301.95 489.352C3307.81 490.133 3310.74 495.016 3310.74 504ZM3160.16 358.102L3106.84 219.234L3053.52 358.102H3160.16ZM3465.43 489.352C3468.16 489.352 3470.51 489.547 3472.46 489.938C3477.54 490.719 3480.08 495.406 3480.08 504H3326.56V489.352C3336.72 489.352 3344.34 488.57 3349.41 487.008C3360.74 483.883 3366.41 473.531 3366.41 455.953V268.453H3326.56V253.805H3418.55L3421.48 310.641C3426.17 298.922 3432.81 288.375 3441.41 279C3460.16 259.469 3481.25 249.703 3504.69 249.703C3508.98 249.703 3513.28 250.094 3517.58 250.875C3535.94 255.562 3545.12 267.086 3545.12 285.445C3545.12 288.961 3544.53 292.477 3543.36 295.992C3538.67 308.883 3529.49 315.328 3515.82 315.328C3512.7 315.328 3509.77 314.938 3507.03 314.156C3500.39 311.812 3493.75 304.781 3487.11 293.062C3481.64 283.688 3476.17 279 3470.7 279C3465.62 279.391 3459.96 282.32 3453.71 287.789C3433.01 306.148 3422.66 335.641 3422.66 376.266V489.352H3465.43ZM3569.14 380.367C3569.14 349.117 3576.76 322.164 3591.99 299.508C3615.43 264.352 3650.78 246.773 3698.05 246.773C3723.05 246.773 3745.12 252.047 3764.26 262.594C3787.3 275.484 3798.83 291.109 3798.83 309.469C3798.83 311.812 3798.44 314.352 3797.66 317.086C3794.53 330.758 3784.57 337.398 3767.77 337.008C3761.13 336.617 3755.47 335.055 3750.78 332.32C3744.53 328.023 3740.04 317.477 3737.3 300.68C3736.52 294.039 3735.74 289.352 3734.96 286.617C3730.66 269.82 3718.75 261.422 3699.22 261.422C3654.3 261.812 3631.64 300.68 3631.25 378.023C3631.25 400.68 3633.79 420.406 3638.87 437.203C3650.59 474.703 3673.05 493.453 3706.25 493.453C3712.5 493.453 3718.75 492.867 3725 491.695C3755.08 486.227 3776.56 469.43 3789.45 441.305L3804.69 445.992C3801.17 454.586 3796.48 462.594 3790.62 470.016C3769.53 496.578 3738.67 509.859 3698.05 509.859C3671.09 509.859 3647.07 503.609 3625.98 491.109C3588.09 468.453 3569.14 431.539 3569.14 380.367ZM3943.55 489.352C3945.9 489.352 3948.05 489.547 3950 489.938C3955.08 491.109 3957.62 495.797 3957.62 504H3823.44V489.352C3833.2 489.352 3840.82 488.57 3846.29 487.008C3858.01 483.883 3863.87 473.531 3863.87 455.953V137.789H3823.44V123.141H3920.12V304.781C3923.63 296.188 3928.52 287.984 3934.77 280.172C3953.91 257.906 3978.71 246.773 4009.18 246.773C4020.9 246.773 4031.84 249.117 4041.99 253.805C4072.46 267.477 4087.7 296.773 4087.7 341.695V489.352H4112.89C4115.62 489.352 4117.97 489.547 4119.92 489.938C4125 490.719 4127.54 495.406 4127.54 504H3997.46V489.352C4008.01 489.352 4015.62 488.375 4020.31 486.422C4027.34 482.906 4030.86 472.75 4030.86 455.953V337.594C4030.86 327.828 4029.69 318.648 4027.34 310.055C4019.92 286.617 4004.69 274.898 3981.64 274.898C3972.66 274.898 3963.87 277.438 3955.27 282.516C3931.84 296.578 3920.12 321.383 3920.12 356.93V489.352H3943.55ZM4286.91 261.422C4279.49 261.422 4272.66 262.789 4266.41 265.523C4239.06 277.633 4224.61 308.688 4223.05 358.688L4275.2 359.859C4291.6 360.641 4304.3 359.859 4313.28 357.516C4329.3 353.219 4337.3 341.5 4337.3 322.359C4337.3 314.547 4336.33 306.93 4334.38 299.508C4327.73 274.117 4311.91 261.422 4286.91 261.422ZM4391.8 445.992C4389.45 451.461 4386.72 456.93 4383.59 462.398C4364.06 494.039 4332.23 509.859 4288.09 509.859C4261.91 509.859 4238.48 503.609 4217.77 491.109C4179.88 468.453 4160.94 431.148 4160.94 379.195C4160.94 349.117 4168.16 322.75 4182.62 300.094C4205.27 264.547 4239.84 246.773 4286.33 246.773C4310.94 246.773 4333.01 251.852 4352.54 262.008C4381.84 277.242 4396.48 299.508 4396.48 328.805C4396.48 340.133 4393.36 349.508 4387.11 356.93C4373.83 370.992 4340.43 377.438 4286.91 376.266L4223.05 375.094C4223.05 375.484 4223.05 375.875 4223.05 376.266C4225 454.391 4250.39 493.453 4299.22 493.453C4305.47 493.453 4311.72 492.672 4317.97 491.109C4344.92 484.859 4364.84 468.258 4377.73 441.305L4391.8 445.992ZM4527.15 494.039C4553.71 494.039 4570.7 485.641 4578.12 468.844C4580.47 463.766 4581.64 458.492 4581.64 453.023C4581.64 435.445 4569.34 420.406 4544.73 407.906C4539.65 405.172 4531.25 401.266 4519.53 396.188C4488.67 382.906 4468.16 370.602 4458.01 359.273C4447.07 346.773 4441.6 332.125 4441.6 315.328C4441.6 286.031 4457.62 265.719 4489.65 254.391C4504.1 249.312 4519.92 246.773 4537.11 246.773C4565.23 246.773 4588.28 252.242 4606.25 263.18C4606.25 251.852 4609.18 245.406 4615.04 243.844C4616.99 243.453 4619.14 243.258 4621.48 243.258V316.5H4605.08C4603.52 280.562 4583.79 262.398 4545.9 262.008C4518.55 262.008 4501.56 270.406 4494.92 287.203C4493.36 291.5 4492.58 295.992 4492.58 300.68C4492.58 317.477 4504.49 331.93 4528.32 344.039C4533.4 346.383 4541.6 349.898 4552.93 354.586C4584.18 367.867 4604.88 380.172 4615.04 391.5C4626.76 404.781 4632.62 420.211 4632.62 437.789C4632.62 469.82 4615.82 491.5 4582.23 502.828C4568.55 507.516 4553.32 509.859 4536.52 509.859C4505.66 509.469 4479.3 502.828 4457.42 489.938C4457.42 500.094 4454.88 505.953 4449.8 507.516C4447.46 507.906 4444.73 508.102 4441.6 508.102V419.039H4459.77C4460.55 468.648 4483.01 493.648 4527.15 494.039Z" fill="#333333"/>
</svg>
